<svg width="40" height="40" viewBox="0 0 40 40" fill="none" xmlns="http://www.w3.org/2000/svg">
<g clip-path="url(#clip0_7238_12296)">
<path d="M18.4373 38.4375C16.8865 38.4375 15.6248 37.1758 15.6248 35.625V32.9784L15.4173 32.9044C13.8531 32.3466 12.4098 31.5088 11.1274 30.4145L10.9595 30.2712L8.65578 31.6014C8.2282 31.8483 7.74289 31.9788 7.25242 31.9788C6.2493 31.9788 5.31484 31.4398 4.81375 30.572L3.25125 27.8656C2.47594 26.5227 2.93773 24.7992 4.28078 24.0237L6.54336 22.7174L6.5032 22.5003C6.33273 21.5794 6.24984 20.7616 6.24984 20C6.24984 19.2383 6.33273 18.4204 6.50312 17.4997L6.54328 17.2826L4.2807 15.9763C2.93773 15.2009 2.47586 13.4774 3.25117 12.1343L4.81367 9.42797C5.31476 8.56031 6.2493 8.02125 7.2525 8.02125C7.74289 8.02125 8.22812 8.15172 8.6557 8.39852L10.9595 9.72859L11.1274 9.58539C12.4105 8.49086 13.8538 7.6532 15.4173 7.0957L15.6248 7.02164V4.375C15.6248 2.82422 16.8865 1.5625 18.4373 1.5625H21.5623C23.1132 1.5625 24.3748 2.82422 24.3748 4.375V7.02164L24.5823 7.09562C26.1458 7.65312 27.5891 8.49078 28.8722 9.58531L29.0401 9.72852L31.3439 8.39844C31.7715 8.15164 32.2567 8.02117 32.7471 8.02117C33.7503 8.02117 34.6848 8.56023 35.1859 9.42797L36.7484 12.1343C37.5237 13.4774 37.062 15.2009 35.7189 15.9763L33.4563 17.2826L33.4965 17.4997C33.667 18.4204 33.7498 19.2383 33.7498 20C33.7498 20.7616 33.667 21.5794 33.4966 22.5001L33.4564 22.7172L35.719 24.0235C37.062 24.7991 37.5238 26.5226 36.7485 27.8655L35.186 30.5718C34.6849 31.4395 33.7505 31.9787 32.7476 31.9787C32.7476 31.9787 32.7475 31.9787 32.7473 31.9787C32.2568 31.9787 31.7715 31.8481 31.344 31.6013L29.0402 30.2711L28.8723 30.4144C27.59 31.5087 26.1466 32.3464 24.5824 32.9042L24.3748 32.9784V35.625C24.3748 37.1758 23.1132 38.4375 21.5623 38.4375H18.4373Z" stroke="#00E0B4" stroke-width="1.5" stroke-miterlimit="10" stroke-linecap="round" stroke-linejoin="round"/>
<path d="M20 26.25C23.4518 26.25 26.25 23.4518 26.25 20C26.25 16.5482 23.4518 13.75 20 13.75C16.5482 13.75 13.75 16.5482 13.75 20C13.75 23.4518 16.5482 26.25 20 26.25Z" stroke="#00E0B4" stroke-width="1.5" stroke-miterlimit="10" stroke-linecap="round" stroke-linejoin="round"/>
</g>
<defs>
<clipPath id="clip0_7238_12296">
<rect width="40" height="40" fill="white"/>
</clipPath>
</defs>
</svg>
