<svg width="238" height="238" viewBox="0 0 238 238" fill="none" xmlns="http://www.w3.org/2000/svg">
<g opacity="0.5">
<rect x="27.5" y="27.5" width="183" height="183" rx="91.5" stroke="#08DBBA"/>
</g>
<g opacity="0.2">
<rect x="4.5" y="2.5" width="229" height="229" rx="114.5" stroke="#08DBBA"/>
</g>
<g filter="url(#filter0_d_7426_12177)">
<rect x="50" y="50" width="138" height="138" rx="69" fill="#08DBBA" shape-rendering="crispEdges"/>
<g clip-path="url(#clip0_7426_12177)">
<path d="M84.0684 101.787H140.5" stroke="white" stroke-width="4" stroke-miterlimit="10" stroke-linecap="round" stroke-linejoin="round"/>
<path d="M149.583 149.612C151.985 149.612 153.932 147.665 153.932 145.263V92.1355C153.932 89.7339 151.985 87.7871 149.583 87.7871H88.4167C86.0151 87.7871 84.0684 89.7339 84.0684 92.1355V145.263C84.0684 147.665 86.0151 149.612 88.4167 149.612L149.583 149.612Z" stroke="white" stroke-width="4" stroke-miterlimit="10" stroke-linecap="round" stroke-linejoin="round"/>
<path d="M123.403 116.941L114.838 134.241" stroke="white" stroke-width="4" stroke-miterlimit="10" stroke-linecap="round" stroke-linejoin="round"/>
<path d="M105.87 116.941L97.2168 125.595L105.87 134.248" stroke="white" stroke-width="4" stroke-miterlimit="10" stroke-linecap="round" stroke-linejoin="round"/>
<path d="M132.129 134.248L140.782 125.595L132.129 116.941" stroke="white" stroke-width="4" stroke-miterlimit="10" stroke-linecap="round" stroke-linejoin="round"/>
<circle cx="110.5" cy="94.7871" r="2" fill="white"/>
<circle cx="101.5" cy="94.7871" r="2" fill="white"/>
<circle cx="93.5" cy="94.7871" r="2" fill="white"/>
</g>
</g>
<defs>
<filter id="filter0_d_7426_12177" x="0" y="0" width="238" height="238" filterUnits="userSpaceOnUse" color-interpolation-filters="sRGB">
<feFlood flood-opacity="0" result="BackgroundImageFix"/>
<feColorMatrix in="SourceAlpha" type="matrix" values="0 0 0 0 0 0 0 0 0 0 0 0 0 0 0 0 0 0 127 0" result="hardAlpha"/>
<feOffset/>
<feGaussianBlur stdDeviation="25"/>
<feComposite in2="hardAlpha" operator="out"/>
<feColorMatrix type="matrix" values="0 0 0 0 0.027451 0 0 0 0 0.905882 0 0 0 0 0.768627 0 0 0 0.4 0"/>
<feBlend mode="normal" in2="BackgroundImageFix" result="effect1_dropShadow_7426_12177"/>
<feBlend mode="normal" in="SourceGraphic" in2="effect1_dropShadow_7426_12177" result="shape"/>
</filter>
<clipPath id="clip0_7426_12177">
<rect width="73" height="73" fill="white" transform="translate(82.5 82.5)"/>
</clipPath>
</defs>
</svg>
