<svg width="199" height="60" viewBox="0 0 199 60" fill="none" xmlns="http://www.w3.org/2000/svg">
<g clip-path="url(#clip0_7816_14635)">
<path d="M9.32331 42C7.47424 42 5.72543 41.7689 4.07686 41.3067C2.45057 40.8446 1.09162 40.2173 0 39.425L1.50376 35.3975C2.55082 36.1238 3.74269 36.696 5.07937 37.1142C6.43832 37.5323 7.85297 37.7414 9.32331 37.7414C10.9273 37.7414 12.0746 37.4993 12.7652 37.0151C13.4781 36.5089 13.8346 35.8817 13.8346 35.1334C13.8346 34.4952 13.5895 33.989 13.0994 33.6149C12.6093 33.2407 11.7516 32.9216 10.5263 32.6575L6.75021 31.8652C2.53968 30.9849 0.43442 28.8281 0.43442 25.3948C0.43442 23.9202 0.835422 22.6327 1.63743 21.5323C2.43943 20.4099 3.55333 19.5406 4.97911 18.9243C6.42718 18.3081 8.09802 18 9.99165 18C11.6179 18 13.144 18.2311 14.5698 18.6933C15.9955 19.1554 17.1763 19.8047 18.1119 20.641L16.6082 24.4044C14.7814 22.9739 12.5647 22.2586 9.95823 22.2586C8.55472 22.2586 7.4631 22.5337 6.68338 23.0839C5.92593 23.6121 5.5472 24.3054 5.5472 25.1637C5.5472 25.8019 5.78112 26.3191 6.24896 26.7153C6.71679 27.1114 7.52994 27.4305 8.68839 27.6726L12.4645 28.4649C16.7864 29.3893 18.9474 31.4801 18.9474 34.7373C18.9474 36.1898 18.5464 37.4663 17.7444 38.5667C16.9646 39.6451 15.8507 40.4924 14.4027 41.1087C12.9769 41.7029 11.2838 42 9.32331 42Z" fill="black"/>
<path d="M26.5254 18.3164H41.6833V23.012H26.5254V18.3164Z" fill="black"/>
<path d="M26.5254 27.6523H41.6833V32.3479H26.5254V27.6523Z" fill="black"/>
<path d="M26.5254 36.9883H41.6833V41.6839H26.5254V36.9883Z" fill="black"/>
<path d="M49.2637 41.3696V18.6328H53.276L60.6453 30.9249L68.0503 18.6328H72.0005V41.3696H67.6149V27.5018L62.1463 37.1244H59.1494L53.6182 27.5985V41.3696H49.2637Z" fill="black"/>
<path d="M79.5781 41.3696V18.6328H89.1076C91.3301 18.6328 93.0413 19.1596 94.2411 20.2131C95.4605 21.2666 96.0702 22.7072 96.0702 24.5347C96.0702 25.7387 95.7949 26.7815 95.2442 27.663C94.6934 28.523 93.9264 29.1681 92.9429 29.5981C94.123 29.9636 95.0278 30.6086 95.6572 31.5331C96.3063 32.4576 96.6308 33.5972 96.6308 34.9517C96.6308 36.9728 95.9817 38.553 94.6836 39.6926C93.4051 40.8106 91.6546 41.3696 89.4321 41.3696H79.5781ZM83.9446 27.9856H88.311C90.5532 27.9856 91.6743 27.0395 91.6743 25.1475C91.6743 23.2769 90.5532 22.3417 88.311 22.3417H83.9446V27.9856ZM83.9446 37.6608H88.8125C89.9927 37.6608 90.8581 37.4135 91.4088 36.919C91.9595 36.4245 92.2349 35.672 92.2349 34.6614C92.2349 33.6724 91.9595 32.9307 91.4088 32.4361C90.8581 31.9416 89.9927 31.6944 88.8125 31.6944H83.9446V37.6608Z" fill="black"/>
<path d="M104.211 41.3696L104.389 20.147L109.263 18.6328V41.3696H104.211Z" fill="black"/>
<path d="M116.842 41.3696V20.1967L121.93 18.6328V37.1448H132.632V41.3696H116.842Z" fill="black"/>
<path d="M140.211 41.3696L140.389 20.147L145.263 18.6328V41.3696H140.211Z" fill="black"/>
<path d="M159.477 41.3696V22.7609H152.842V18.6328H170.526V22.7609H163.891V41.3696H159.477Z" fill="black"/>
<path d="M186.239 41.3696V31.1139L178.105 18.6328H183.488L188.631 26.631L193.774 18.6328H198.947L190.874 31.1461V41.3696H186.239Z" fill="black"/>
</g>
<defs>
<clipPath id="clip0_7816_14635">
<rect width="199" height="24" fill="white" transform="translate(0 18)"/>
</clipPath>
</defs>
</svg>
