<svg width="171" height="60" viewBox="0 0 171 60" fill="none" xmlns="http://www.w3.org/2000/svg">
<g clip-path="url(#clip0_7799_14441)">
<path d="M163.952 32.8634C164.792 32.8589 165.624 33.0293 166.395 33.3636C167.89 34.0034 169.081 35.1943 169.721 36.689C170.049 37.4534 170.217 38.2763 170.217 39.1078C170.217 39.9392 170.049 40.762 169.721 41.5265C169.081 43.0209 167.89 44.2116 166.395 44.8519C165.622 45.179 164.791 45.3475 163.952 45.3475C163.112 45.3475 162.281 45.179 161.508 44.8519C160.013 44.2116 158.822 43.0209 158.182 41.5265C157.854 40.762 157.686 39.9392 157.686 39.1078C157.686 38.2763 157.854 37.4534 158.182 36.689C158.822 35.1943 160.013 34.0034 161.508 33.3636C162.279 33.0292 163.111 32.8588 163.952 32.8634Z" fill="#A9E8D3"/>
<path d="M30.7184 13.1222C29.4043 11.3012 27.6572 9.83602 25.6348 8.85894C23.6125 7.88186 21.3785 7.42366 19.1346 7.52568C16.5658 7.51151 14.0212 8.02218 11.6569 9.02641C9.38564 9.97815 7.31942 11.3591 5.57161 13.0935C3.84889 14.8201 2.46847 16.8569 1.50311 19.0964C0.511196 21.4318 0 23.943 0 26.4802C0 29.0173 0.511196 31.5285 1.50311 33.8638C3.42714 38.4376 7.07459 42.0707 11.6569 43.9777C14.0212 44.9817 16.5658 45.4924 19.1346 45.4784C22.3418 45.5821 25.4829 44.5526 28.006 42.5707L28.0786 42.4994L24.4129 36.0249L24.3391 35.9512H24.2666C23.0241 36.5141 21.6707 36.7898 20.3069 36.7578C18.9335 36.7666 17.5732 36.4902 16.3122 35.9462C15.0927 35.4236 13.985 34.6717 13.0494 33.7313C12.1193 32.7944 11.3733 31.6915 10.85 30.4797C10.3061 29.2218 10.0312 27.8642 10.043 26.4939C10.0352 25.1435 10.2968 23.8051 10.8123 22.5569C11.3279 21.3087 12.0871 20.1756 13.0456 19.224C13.9895 18.3029 15.0957 17.5643 16.3084 17.0454C17.5728 16.5109 18.9316 16.2355 20.3044 16.2355C21.6772 16.2355 23.036 16.5109 24.3003 17.0454C25.5199 17.5667 26.637 18.3005 27.5994 19.2128C28.5612 20.1311 29.3335 21.229 29.8727 22.4444C30.4368 23.7028 30.7243 25.0675 30.7159 26.4464V39.8944C30.7396 41.5246 30.4534 43.1445 29.8727 44.668C29.3501 46.0227 28.5791 47.2679 27.5994 48.3399C26.6854 49.3398 25.5746 50.1403 24.3366 50.691C23.1605 51.2191 21.8865 51.4944 20.5971 51.4989C19.7196 51.4932 18.846 51.3824 17.9949 51.1688C17.0833 50.9466 16.1983 50.6271 15.3551 50.2158C14.4806 49.7881 13.6669 49.246 12.9355 48.6037C12.1817 47.9499 11.549 47.1684 11.0664 46.2951L3.00191 49.8131L2.9281 49.8856L3.00191 50.0319C4.78637 53.0718 7.33614 55.5915 10.3975 57.3402C13.4588 59.089 16.9249 60.0058 20.4508 59.9994C23.067 60.0139 25.6595 59.5036 28.0748 58.4987C32.7865 56.5708 36.5697 52.8961 38.6327 48.2435C39.7188 45.8285 40.3406 43.2308 40.4656 40.586V8.11974H30.7159L30.7184 13.1222Z" fill="#1D1D1A"/>
<path d="M74.7786 9.57961H74.7061C72.0711 8.2365 69.1565 7.53339 66.1987 7.52734C61.2136 7.52734 57.4257 9.31072 54.8351 12.8775V8.11388H44.8652V44.7572H54.8364V24.6034C55.0289 23.4379 55.4393 22.3191 56.0461 21.3055C56.6416 20.2983 57.3971 19.3948 58.2831 18.6304C59.1701 17.8687 60.1873 17.273 61.2857 16.872C62.7202 16.3551 64.25 16.1562 65.7691 16.289C67.2882 16.4218 68.7603 16.8832 70.0833 17.6412L70.1559 17.7149L73.8953 11.0453L74.7786 9.57961Z" fill="#1D1D1A"/>
<path d="M104.618 13.0963C102.889 11.3742 100.849 9.99424 98.6069 9.02929C96.2643 8.03809 93.7463 7.52734 91.2024 7.52734C88.6585 7.52734 86.1406 8.03809 83.7979 9.02929C79.2676 10.9686 75.6579 14.5769 73.7179 19.1056C72.7262 21.4217 72.2148 23.9149 72.2148 26.4342C72.2148 28.9536 72.7262 31.4468 73.7179 33.7629C75.6579 38.2919 79.2675 41.9006 83.7979 43.8404C86.1406 44.8316 88.6585 45.3424 91.2024 45.3424C93.7463 45.3424 96.2643 44.8316 98.6069 43.8404C103.138 41.9027 106.749 38.2958 108.691 33.7679C109.683 31.4519 110.194 28.9587 110.194 26.4393C110.194 23.9198 109.683 21.4266 108.691 19.1106C107.725 16.8714 106.344 14.8348 104.622 13.1076M99.3075 30.2824C98.8683 31.4838 98.2236 32.5996 97.4022 33.5803C96.6316 34.5039 95.6839 35.2638 94.6148 35.8152C93.5598 36.3541 92.3903 36.6309 91.2056 36.6219C90.0095 36.6285 88.8288 36.3521 87.7601 35.8152C86.6756 35.2715 85.7144 34.5109 84.9364 33.5803C84.1142 32.6002 83.4694 31.4842 83.031 30.2824C82.5561 28.9796 82.3201 27.6019 82.3341 26.2154C82.3284 24.8772 82.5645 23.549 83.031 22.2947C83.4586 21.1098 84.1049 20.0158 84.9364 19.0693C85.7308 18.1749 86.6893 17.4409 87.7601 16.907C88.8291 16.3709 90.0096 16.0945 91.2056 16.1003C92.3902 16.0921 93.5595 16.3688 94.6148 16.907C95.6702 17.4485 96.6154 18.1818 97.4022 19.0693C98.2329 20.0163 98.8791 21.1102 99.3075 22.2947C99.773 23.5493 100.009 24.8773 100.004 26.2154C100.017 27.6018 99.7814 28.9794 99.3075 30.2824Z" fill="#1D1D1A"/>
<path d="M153.566 0L146.551 35.8429L145.145 28.8394L140.982 8.11405H130.865L125.294 35.8892L119.649 8.11405H109.531L109.604 8.18658L119.427 44.7561H131.085L135.85 23.0628L140.762 44.7561H152.3L164.354 0H153.566Z" fill="#1D1D1A"/>
<path d="M47.0627 49.3477C47.2975 49.3463 47.5301 49.3936 47.7458 49.4865C48.1653 49.6629 48.4989 49.9964 48.6753 50.4157C48.7683 50.6313 48.8156 50.8638 48.8142 51.0986C48.8151 51.3287 48.7727 51.557 48.6891 51.7714C48.6099 51.9755 48.4884 52.1605 48.3325 52.3142C48.1625 52.4765 47.9593 52.6002 47.737 52.6769C47.4692 52.767 47.1875 52.8093 46.905 52.8019H45.8066V54.2702H44.8633V49.3477H47.0627ZM47.0627 51.9603C47.1876 51.9632 47.3118 51.9393 47.4268 51.8902C47.5241 51.8465 47.6097 51.7805 47.677 51.6976C47.7429 51.6159 47.7922 51.522 47.8221 51.4212C47.8539 51.3167 47.87 51.2079 47.8697 51.0986C47.8695 50.985 47.8492 50.8724 47.8096 50.7659C47.7701 50.6582 47.7107 50.559 47.6344 50.4733C47.5499 50.3792 47.4459 50.3045 47.3297 50.2544C47.2135 50.2043 47.0879 50.18 46.9614 50.1831H45.8091V51.9615L47.0627 51.9603Z" fill="#1D1D1A"/>
<path d="M51.7363 54.3709C51.3961 54.3729 51.0591 54.3044 50.7467 54.1696C50.1346 53.9082 49.647 53.4208 49.3855 52.8089C49.2523 52.4941 49.1836 52.1558 49.1836 51.814C49.1836 51.4722 49.2523 51.1339 49.3855 50.8191C49.6459 50.2059 50.1338 49.7173 50.7467 49.456C51.0609 49.3226 51.3988 49.2539 51.7401 49.2539C52.0814 49.2539 52.4192 49.3226 52.7334 49.456C53.3464 49.7173 53.8343 50.2059 54.0946 50.8191C54.2279 51.1339 54.2965 51.4722 54.2965 51.814C54.2965 52.1558 54.2279 52.4941 54.0946 52.8089C53.8332 53.4208 53.3456 53.9082 52.7334 54.1696C52.4174 54.3055 52.0766 54.3741 51.7326 54.3709M51.7326 50.1363C51.5164 50.1352 51.3027 50.1822 51.107 50.2739C50.9156 50.3638 50.7426 50.4885 50.5966 50.6415C50.4489 50.797 50.3314 50.9785 50.25 51.1768C50.166 51.379 50.1227 51.5957 50.1227 51.8147C50.1227 52.0336 50.166 52.2503 50.25 52.4525C50.3326 52.6502 50.45 52.8315 50.5966 52.9877C50.7413 53.1442 50.9145 53.2715 51.107 53.3629C51.3033 53.4528 51.5167 53.4994 51.7326 53.4994C51.9485 53.4994 52.1618 53.4528 52.3581 53.3629C52.5506 53.2715 52.7239 53.1442 52.8685 52.9877C53.0151 52.8314 53.1325 52.6501 53.2151 52.4525C53.2995 52.2504 53.3429 52.0336 53.3429 51.8147C53.3429 51.5957 53.2995 51.3789 53.2151 51.1768C53.1337 50.9785 53.0162 50.797 52.8685 50.6415C52.7226 50.4885 52.5495 50.3638 52.3581 50.2739C52.1624 50.1821 51.9487 50.1351 51.7326 50.1363Z" fill="#1D1D1A"/>
<path d="M60.9855 49.3555L59.1464 54.2767H59.0526L57.7189 51.409L56.3715 54.2855H56.2839L54.4648 49.3567H55.4657L56.4291 52.0568L57.6801 49.3567H57.7414L58.9925 52.0631L59.9759 49.3567L60.9855 49.3555Z" fill="#1D1D1A"/>
<path d="M62.5307 50.1831V51.4162H64.9152V52.2704H62.5307V53.4284H65.218V54.2764H61.5898V49.3477H65.218V50.1831H62.5307Z" fill="#1D1D1A"/>
<path d="M67.1347 54.2765H66.1914V49.3478H68.4321C68.6686 49.3452 68.9034 49.3876 69.1239 49.4728C69.3249 49.551 69.5073 49.6703 69.6594 49.823C69.8108 49.9772 69.9291 50.1606 70.0072 50.362C70.092 50.5796 70.1345 50.8114 70.1323 51.0449C70.1397 51.3913 70.042 51.7318 69.8521 52.0216C69.6709 52.2951 69.4083 52.5046 69.1014 52.6207C69.5185 53.1693 69.9276 53.7212 70.3287 54.2765H69.2028C69.0059 54.0205 68.8133 53.7625 68.6248 53.5024C68.4363 53.2422 68.2486 52.9775 68.0618 52.7082H67.1285L67.1347 54.2765ZM67.1347 51.8728H68.4309C68.5215 51.8719 68.6113 51.855 68.6961 51.8228C68.7898 51.7899 68.8752 51.737 68.9463 51.6677C69.0215 51.5935 69.0818 51.5057 69.1239 51.4088C69.173 51.2939 69.1969 51.1698 69.194 51.0449C69.1923 50.9609 69.1836 50.8772 69.1677 50.7948C69.1493 50.6944 69.1128 50.5982 69.0601 50.5108C69.003 50.418 68.925 50.3396 68.8324 50.282C68.7121 50.2142 68.5751 50.1817 68.4371 50.1882H67.141L67.1347 51.8728Z" fill="#1D1D1A"/>
<path d="M71.9838 50.1831V51.4162H74.3683V52.2704H71.9838V53.4284H74.6711V54.2764H71.043V49.3477H74.6711V50.1831H71.9838Z" fill="#1D1D1A"/>
<path d="M77.5848 54.2741H75.6406V49.3453H77.5848C78.2222 49.3226 78.8438 49.5466 79.3201 49.9706C79.5617 50.191 79.7492 50.464 79.868 50.7685C80.1145 51.4472 80.1145 52.1909 79.868 52.8696C79.749 53.1737 79.5615 53.4463 79.3201 53.6663C79.0979 53.8702 78.8359 54.0261 78.5506 54.124C78.2398 54.2302 77.9133 54.2826 77.5848 54.2791M76.5839 53.4436H77.5848C77.7641 53.4432 77.9429 53.423 78.1178 53.3836C78.2969 53.3426 78.464 53.2604 78.6057 53.1435C78.7638 53.0077 78.8873 52.8362 78.966 52.6432C79.07 52.38 79.1181 52.0981 79.1074 51.8153C79.1178 51.5313 79.0696 51.2483 78.966 50.9836C78.8879 50.7894 78.7628 50.6175 78.6019 50.4834C78.4579 50.369 78.2898 50.2886 78.1103 50.2483C77.9378 50.2092 77.7616 50.1891 77.5848 50.1883H76.5839V53.4436Z" fill="#1D1D1A"/>
<path d="M86.8477 50.7188C86.8459 50.8274 86.8256 50.9348 86.7876 51.0365C86.748 51.1477 86.6923 51.2526 86.6224 51.3479C86.5542 51.4423 86.4694 51.5237 86.3723 51.588C86.2766 51.6526 86.1648 51.689 86.0495 51.6931C86.1753 51.7034 86.2977 51.7387 86.4098 51.7969C86.5313 51.8595 86.6399 51.9443 86.73 52.047C86.8261 52.1522 86.9047 52.2721 86.9627 52.4022C87.0238 52.5374 87.0549 52.6841 87.0541 52.8324C87.0594 53.0657 87.0168 53.2977 86.929 53.514C86.8566 53.6883 86.7433 53.8428 86.5987 53.9642C86.4561 54.0819 86.2896 54.1673 86.1108 54.2143C85.9163 54.2648 85.7161 54.2896 85.5153 54.2881H83.2383V49.3594H85.4089C85.5964 49.3587 85.7835 49.378 85.9669 49.4169C86.1338 49.4509 86.2908 49.5224 86.426 49.6258C86.5632 49.737 86.6699 49.8811 86.7363 50.0447C86.8193 50.2634 86.858 50.4964 86.8502 50.7301M84.1829 51.3667H85.3414C85.4219 51.369 85.5018 51.3524 85.5748 51.3183C85.6478 51.2842 85.7118 51.2335 85.7617 51.1703C85.8094 51.1111 85.8458 51.0437 85.8693 50.9714C85.8939 50.9002 85.9066 50.8254 85.9068 50.7501C85.907 50.678 85.893 50.6066 85.8656 50.54C85.8166 50.4116 85.7222 50.3057 85.6003 50.2423C85.5409 50.2111 85.4748 50.1948 85.4077 50.1948H84.1816L84.1829 51.3667ZM85.5165 53.454C85.5964 53.4545 85.6752 53.4347 85.7454 53.3964C85.818 53.3576 85.8822 53.3049 85.9344 53.2413C85.9872 53.1767 86.0294 53.1041 86.0595 53.0262C86.0906 52.9504 86.1067 52.8693 86.107 52.7874C86.1085 52.7084 86.0926 52.6302 86.0607 52.558C86.0287 52.4859 85.9813 52.4216 85.9218 52.3697C85.7797 52.2509 85.5977 52.1905 85.4127 52.2008H84.1803V53.4514L85.5165 53.454Z" fill="#1D1D1A"/>
<path d="M91.7506 49.3555C91.6247 49.5614 91.48 49.7969 91.3165 50.0621L90.8161 50.8738L90.3157 51.6892C90.1488 51.956 90.0029 52.1969 89.8778 52.412V54.2767H88.9357V52.412C88.6438 51.9009 88.3344 51.3915 88.0074 50.8838C87.6805 50.376 87.3681 49.8666 87.0703 49.3555H88.1688C88.3706 49.689 88.5791 50.0371 88.7943 50.3998C89.0095 50.7624 89.218 51.1101 89.4199 51.4428C89.5191 51.286 89.6225 51.1193 89.7301 50.9425C89.8377 50.7658 89.9453 50.5853 90.0529 50.401L90.3732 49.862L90.6734 49.3617L91.7506 49.3555Z" fill="#1D1D1A"/>
<path d="M94.432 53.6298L94.945 52.8794C95.1872 53.0473 95.4429 53.195 95.7094 53.3209C95.967 53.4432 96.2487 53.5065 96.5339 53.506C96.6707 53.5081 96.8071 53.4887 96.938 53.4484C97.0444 53.4157 97.1446 53.3654 97.2345 53.2996C97.3101 53.2449 97.3725 53.174 97.4171 53.092C97.4553 53.0203 97.4758 52.9406 97.4772 52.8594C97.4783 52.7677 97.4459 52.6787 97.3858 52.6093C97.3185 52.535 97.2357 52.4765 97.1431 52.4379C97.0283 52.3881 96.9089 52.3496 96.7866 52.3229C96.649 52.2903 96.5063 52.2616 96.3587 52.2353L96.0147 52.1716C95.8781 52.1457 95.7432 52.1118 95.6106 52.0702C95.469 52.027 95.3316 51.9709 95.2002 51.9026C95.0662 51.8336 94.943 51.7451 94.8349 51.64C94.7256 51.5325 94.6377 51.4052 94.5759 51.2649C94.5074 51.1019 94.4741 50.9263 94.4784 50.7496C94.4689 50.4987 94.5295 50.2501 94.6535 50.0317C94.764 49.8475 94.9177 49.693 95.1014 49.5815C95.2886 49.4693 95.4939 49.3906 95.7082 49.3489C95.9197 49.3051 96.1351 49.2825 96.3512 49.2814C96.5359 49.2799 96.7204 49.2932 96.9029 49.3214C97.0564 49.3464 97.2072 49.3857 97.3533 49.4389C97.4949 49.492 97.6314 49.5578 97.7612 49.6353C97.8938 49.7141 98.0364 49.8066 98.189 49.9142L97.6636 50.6545C97.4541 50.5045 97.2283 50.3787 96.9905 50.2794C96.7736 50.195 96.5427 50.1525 96.3099 50.1543C96.217 50.1553 96.1244 50.1654 96.0334 50.1843C95.9321 50.2036 95.8337 50.236 95.7407 50.2806C95.6535 50.322 95.5756 50.3807 95.5117 50.4532C95.4517 50.5226 95.4192 50.6116 95.4204 50.7033C95.4194 50.7503 95.4284 50.7969 95.447 50.8401C95.4655 50.8832 95.4932 50.9219 95.528 50.9535C95.6088 51.0263 95.7026 51.0831 95.8045 51.121C95.9265 51.169 96.0519 51.2074 96.1798 51.2361L96.5702 51.3299C96.6644 51.3524 96.7753 51.3749 96.9029 51.3974C97.0372 51.4217 97.17 51.4535 97.3008 51.4925C97.4408 51.5341 97.5769 51.5881 97.7074 51.6538C97.8408 51.7199 97.9625 51.8073 98.0677 51.9127C98.1759 52.0251 98.261 52.1576 98.3179 52.3029C98.3874 52.4817 98.4205 52.6726 98.4155 52.8644C98.4208 53.0939 98.3746 53.3216 98.2804 53.531C98.1931 53.7163 98.0611 53.877 97.8963 53.9987C97.7182 54.1288 97.5169 54.2239 97.3033 54.2789C97.0547 54.3446 96.7985 54.3766 96.5414 54.3739C96.3144 54.3767 96.0878 54.3574 95.8646 54.3164C95.512 54.2515 95.1749 54.1204 94.8712 53.9299C94.7269 53.8407 94.5784 53.7419 94.4258 53.6335" fill="#1D1D1A"/>
<path d="M102.331 50.1831H100.923V54.2764H99.9801V50.1831H98.5664V49.3477H102.331V50.1831Z" fill="#1D1D1A"/>
<path d="M105.095 54.3655C104.799 54.3691 104.505 54.3187 104.227 54.2167C103.978 54.1256 103.751 53.9837 103.56 53.8002C103.372 53.615 103.227 53.392 103.132 53.1461C103.028 52.8731 102.977 52.5828 102.981 52.2907V49.3555H103.924V52.287C103.918 52.4978 103.961 52.7071 104.049 52.8985C104.119 53.0472 104.222 53.1784 104.349 53.2825C104.462 53.3735 104.593 53.44 104.733 53.4776C104.973 53.5484 105.228 53.5484 105.468 53.4776C105.608 53.4397 105.738 53.3733 105.851 53.2825C105.978 53.1785 106.081 53.0473 106.151 52.8985C106.24 52.7072 106.283 52.4978 106.276 52.287V49.3555H107.219V52.2907C107.223 52.5825 107.173 52.8725 107.072 53.1461C106.979 53.3922 106.835 53.6154 106.648 53.8002C106.457 53.9837 106.229 54.1255 105.981 54.2167C105.7 54.3189 105.404 54.3693 105.105 54.3655" fill="#1D1D1A"/>
<path d="M110.231 54.274H108.287V49.3453H110.231C110.868 49.3228 111.489 49.5468 111.965 49.9706C112.207 50.1907 112.395 50.4638 112.513 50.7685C112.76 51.4472 112.76 52.1909 112.513 52.8695C112.395 53.1738 112.207 53.4466 111.965 53.6662C111.743 53.8701 111.481 54.0259 111.196 54.1239C110.885 54.23 110.559 54.2824 110.231 54.279M109.23 53.4436H110.231C110.41 53.4431 110.589 53.423 110.763 53.3836C110.943 53.343 111.11 53.2608 111.252 53.1435C111.41 53.0075 111.534 52.836 111.612 52.6432C111.716 52.3798 111.763 52.098 111.753 51.8153C111.763 51.5314 111.715 51.2484 111.612 50.9836C111.534 50.7895 111.409 50.6177 111.248 50.4834C111.104 50.3688 110.936 50.2884 110.757 50.2483C110.584 50.2092 110.408 50.1891 110.231 50.1882H109.23V53.4436Z" fill="#1D1D1A"/>
<path d="M114.592 49.3555H113.648V54.2767H114.592V49.3555Z" fill="#1D1D1A"/>
<path d="M118.107 54.3708C117.767 54.3729 117.43 54.3043 117.118 54.1695C116.506 53.9081 116.018 53.4207 115.757 52.8088C115.623 52.494 115.555 52.1557 115.555 51.8139C115.555 51.4721 115.623 51.1338 115.757 50.819C116.017 50.2058 116.505 49.7172 117.118 49.4558C117.432 49.3226 117.77 49.2539 118.111 49.2539C118.452 49.2539 118.79 49.3226 119.105 49.4558C119.407 49.5863 119.683 49.7726 119.916 50.0049C120.15 50.2388 120.336 50.5151 120.466 50.819C120.599 51.1338 120.668 51.4721 120.668 51.8139C120.668 52.1557 120.599 52.494 120.466 52.8088C120.204 53.4207 119.717 53.9081 119.105 54.1695C118.789 54.3054 118.448 54.3739 118.104 54.3708M118.104 50.1362C117.888 50.1351 117.674 50.182 117.478 50.2737C117.089 50.4559 116.783 50.7784 116.621 51.1767C116.537 51.3788 116.493 51.5956 116.493 51.8145C116.493 52.0335 116.537 52.2503 116.621 52.4523C116.703 52.65 116.82 52.8313 116.966 52.9876C117.111 53.1439 117.284 53.2712 117.477 53.3628C117.674 53.4537 117.888 53.5007 118.106 53.5007C118.323 53.5007 118.537 53.4537 118.734 53.3628C118.927 53.2713 119.1 53.1439 119.245 52.9876C119.391 52.8313 119.509 52.65 119.591 52.4523C119.675 52.2502 119.718 52.0335 119.718 51.8145C119.718 51.5956 119.675 51.3789 119.591 51.1767C119.51 50.9784 119.392 50.7969 119.245 50.6414C119.099 50.4885 118.926 50.3638 118.734 50.2737C118.538 50.1821 118.325 50.1351 118.109 50.1362" fill="#1D1D1A"/>
<path d="M129.872 49.3555L128.033 54.2767H127.939L126.606 51.409L125.258 54.2855H125.171L123.352 49.3567H124.352L125.316 52.0568L126.567 49.3567H126.627L127.878 52.0631L128.861 49.3567L129.872 49.3555Z" fill="#1D1D1A"/>
<path d="M131.557 49.3555H130.613V54.2767H131.557V49.3555Z" fill="#1D1D1A"/>
<path d="M133.712 50.1831V51.4162H136.097V52.2704H133.712V53.4284H136.4V54.2764H132.771V49.3477H136.4V50.1831H133.712Z" fill="#1D1D1A"/>
<path d="M139.313 54.274H137.369V49.3453H139.313C139.951 49.3227 140.572 49.5467 141.049 49.9706C141.291 50.1907 141.478 50.4638 141.597 50.7685C141.844 51.4471 141.844 52.191 141.597 52.8696C141.478 53.1739 141.29 53.4466 141.049 53.6662C140.826 53.8702 140.564 54.026 140.278 54.124C139.968 54.2301 139.641 54.2826 139.313 54.279M138.312 53.4436H139.313C139.492 53.4432 139.671 53.423 139.845 53.3836C140.025 53.3432 140.192 53.2609 140.334 53.1435C140.492 53.0077 140.616 52.8362 140.695 52.6432C140.798 52.3799 140.846 52.0981 140.836 51.8153C140.846 51.5313 140.798 51.2483 140.695 50.9836C140.616 50.7894 140.491 50.6175 140.33 50.4834C140.187 50.3687 140.018 50.2883 139.839 50.2483C139.666 50.2092 139.49 50.1891 139.313 50.1882H138.312V53.4436Z" fill="#1D1D1A"/>
<path d="M146.529 49.4679L143.777 53.3986H146.43V54.274H142.119V54.1665L144.872 50.2208H142.326V49.3516H146.522L146.529 49.4679Z" fill="#1D1D1A"/>
<path d="M151.385 49.3555C151.259 49.5614 151.114 49.7969 150.951 50.0621C150.787 50.3272 150.62 50.5978 150.45 50.8738L149.95 51.6892C149.783 51.956 149.637 52.1969 149.512 52.412V54.2767H148.57V52.412C148.278 51.9009 147.968 51.3915 147.64 50.8838C147.312 50.376 147 49.8666 146.703 49.3555H147.802C148.003 49.689 148.21 50.0371 148.421 50.3998C148.632 50.7624 148.838 51.1101 149.04 51.4428C149.139 51.286 149.243 51.1193 149.35 50.9425C149.458 50.7658 149.566 50.5853 149.673 50.401L149.993 49.862L150.294 49.3617L151.385 49.3555Z" fill="#1D1D1A"/>
</g>
<defs>
<clipPath id="clip0_7799_14441">
<rect width="170.217" height="60" fill="white"/>
</clipPath>
</defs>
</svg>
