<svg width="80" height="80" viewBox="0 0 80 80" fill="none" xmlns="http://www.w3.org/2000/svg">
<g clip-path="url(#clip0_7819_14679)">
<mask id="mask0_7819_14679" style="mask-type:luminance" maskUnits="userSpaceOnUse" x="0" y="0" width="80" height="80">
<path d="M80 0H0V80H80V0Z" fill="white"/>
</mask>
<g mask="url(#mask0_7819_14679)">
<path d="M40.0249 80.0496C62.1299 80.0496 80.0496 62.1299 80.0496 40.0249C80.0496 17.9197 62.1299 0 40.0249 0C17.9197 0 0 17.9197 0 40.0249C0 62.1299 17.9197 80.0496 40.0249 80.0496Z" fill="#333233"/>
<path d="M54.3588 50.7887C51.383 52.822 48.0103 54.1612 44.2409 54.7563C41.3146 55.2027 38.1406 55.2523 34.8672 54.7563C29.3618 54.0125 25.3446 52.2269 25.1957 52.1278C24.0054 51.5822 23.3606 50.3422 23.5094 49.1022C23.5094 48.8047 23.6086 48.5071 23.7574 48.2095C24.4517 46.7217 26.1877 46.0273 27.6755 46.7217C27.6755 46.7217 28.5682 47.1184 30.0562 47.5648C31.4945 48.0111 33.5776 48.5566 35.9086 48.8544C41.91 49.648 47.0183 48.6064 51.0357 45.8288C52.3748 44.8866 54.21 45.2337 55.1522 46.5728C55.6482 47.3168 55.7971 48.16 55.5986 48.9535C55.45 49.648 55.0035 50.2431 54.4084 50.6893L54.3588 50.7887Z" fill="#FFB64D"/>
<path d="M57.5814 50.9878C55.4487 52.426 53.1177 53.5667 50.6874 54.3603C49.497 54.7572 48.2572 55.1043 46.9676 55.3523C46.4221 55.4514 45.8765 55.5507 45.2814 55.6499C41.76 56.1459 37.941 56.0963 34.0725 55.5012C27.5255 54.4596 22.8139 52.178 22.6154 52.0789C21.3261 51.4342 20.7308 49.9462 21.0781 48.6071C21.1276 48.4086 21.1772 48.2599 21.2763 48.1111C21.4747 47.6648 21.8219 47.3175 22.1692 47.0199C23.0619 46.3752 24.2026 46.2264 25.2441 46.7719C25.2937 46.7719 27.1784 47.7144 30.0551 48.5575C31.4934 49.0039 33.2292 49.4006 35.1636 49.6982C40.5697 50.5413 45.4798 50.0951 49.7948 48.4086C51.3817 47.8135 52.8697 47.0199 54.2584 46.0777C55.6471 45.185 57.4822 45.5321 58.3749 46.9208C58.5734 47.2184 58.7221 47.5159 58.7718 47.8135C58.7718 47.8135 58.7718 47.8631 58.7718 47.9128C59.0198 49.1031 58.5734 50.3431 57.5318 51.0373L57.5814 50.9878Z" fill="#FC819C"/>
<path d="M57.5814 50.9868C55.4487 52.425 53.1177 53.5657 50.6874 54.3593C49.497 54.7562 48.2572 55.1033 46.9676 55.3513C46.4221 55.4504 45.8765 55.5497 45.2814 55.6488C41.76 56.1448 37.941 56.0953 34.0725 55.5C27.5255 54.4584 22.8139 52.177 22.6154 52.0779C21.3261 51.433 20.7308 49.9452 21.0781 48.6061C22.1194 48.5069 23.2107 48.6061 24.2026 49.1021C24.2026 49.1021 29.1622 51.3835 35.8083 52.3755C44.2398 53.665 51.3817 52.3755 57.1351 48.6061C57.6807 48.2589 58.2262 48.0109 58.8709 47.8125C59.1189 49.0028 58.6725 50.2428 57.6309 50.9372L57.5814 50.9868Z" fill="#F27293"/>
<path d="M47.0171 55.3982C47.0171 55.3982 46.8684 55.0511 46.8188 54.8527C46.7195 53.8111 46.4715 53.1169 46.1244 52.6209C45.3308 51.4306 43.9421 51.5297 42.4541 51.6784C41.611 51.7777 41.3134 52.2737 41.115 52.8689C40.7679 54.1087 41.115 55.8943 39.2801 55.6463C36.2049 55.2496 36.0562 54.0591 35.2131 52.3233C35.1635 52.224 35.1138 52.1249 35.0642 51.9762C34.0724 50.0915 33.13 51.2322 31.2948 50.9842C29.4599 50.7857 30.055 48.6035 30.055 48.6035V48.5043C31.5924 48.9506 33.2788 49.3475 35.2131 49.645C40.6192 50.4882 45.5293 50.0417 49.8442 48.3555C49.9929 49.2482 50.1914 50.4882 50.3898 51.7282C50.4889 52.5217 50.6378 53.2656 50.6874 53.9104C50.6874 54.0591 50.6874 54.208 50.6874 54.3567C50.5881 56.5389 47.7611 56.6878 46.9675 55.3487L47.0171 55.3982Z" fill="#FFF4CA"/>
<path d="M41.1169 52.8698C40.7696 54.1096 41.1169 55.8952 39.2818 55.6472C36.2068 55.2505 36.058 54.06 35.2148 52.3242C35.4133 52.3242 35.6115 52.3738 35.81 52.4234C37.6451 52.7209 39.3809 52.8698 41.0672 52.8698H41.1169Z" fill="#FFEB96"/>
<path d="M50.6887 54.4087C49.4984 54.8056 48.2584 55.1527 46.9689 55.4007C46.8697 55.2519 46.8202 55.0536 46.7706 54.8552C46.6713 53.8136 46.4233 53.1192 46.0762 52.6233C47.564 52.4249 49.0024 52.1273 50.3416 51.7305C50.4407 52.524 50.5896 53.268 50.6391 53.9127C50.6391 54.0616 50.6391 54.2103 50.6391 54.3592L50.6887 54.4087Z" fill="#FFEB96"/>
<path d="M24.1045 56.3437C22.5669 55.5502 21.9718 53.6655 22.7654 52.1279C23.5589 50.5905 25.4436 49.9952 26.981 50.7888C26.981 50.7888 30.6017 52.6239 35.5118 53.5166C41.761 54.6575 47.1671 53.8639 51.5812 51.1361C53.069 50.2432 54.9537 50.6896 55.8962 52.1279C56.7888 53.6159 56.3426 55.5006 54.9042 56.4429C51.6803 58.4267 48.0102 59.6667 44.0424 60.0634C40.9179 60.4107 37.6445 60.2618 34.2222 59.6171C28.469 58.526 24.3525 56.4429 24.1541 56.3437H24.1045Z" fill="#FFC988"/>
<path d="M54.8542 56.3921C51.6304 58.376 47.9603 59.6158 43.9925 60.0127C40.8679 60.3598 37.5945 60.2111 34.1723 59.5662C28.4191 58.4751 24.3025 56.3921 24.1041 56.2928C22.7154 55.5488 22.1201 53.9619 22.6161 52.5234C22.765 53.4659 23.3105 54.3586 24.2528 54.8546C24.4017 54.9537 28.5678 57.0368 34.321 58.128C37.7432 58.7727 41.0662 58.9215 44.1413 58.5744C48.109 58.128 51.7792 56.9377 55.0031 54.9537C55.6478 54.557 56.0942 53.9619 56.3422 53.317C56.4909 54.5074 55.9949 55.7473 54.9038 56.3921H54.8542Z" fill="#FFB64D"/>
<path d="M19.7891 32.0407C19.7891 30.4536 20.0371 28.9658 20.5826 27.6762C21.1282 26.3866 21.8722 25.246 22.864 24.3531C23.8065 23.4108 24.9967 22.7164 26.2863 22.2206C27.6254 21.7246 29.0637 21.4766 30.6508 21.4766C32.2379 21.4766 33.6762 21.7246 35.0153 22.2206C36.3545 22.7164 37.4951 23.4108 38.4376 24.3531C39.3798 25.2955 40.1734 26.3866 40.719 27.6762C41.2645 28.9658 41.5125 30.4536 41.5125 32.0407C41.5125 33.6279 41.2645 35.1157 40.719 36.4053C40.1734 37.6948 39.4294 38.8355 38.4376 39.7282C37.4951 40.6706 36.3049 41.3649 35.0153 41.8609C33.6762 42.3569 32.2379 42.6049 30.6508 42.6049C29.0637 42.6049 27.6254 42.3569 26.2863 41.8609C24.9471 41.3649 23.8065 40.6706 22.864 39.7282C21.9218 38.786 21.1282 37.6948 20.5826 36.4053C20.0371 35.1157 19.7891 33.6279 19.7891 32.0407ZM24.4016 32.0407C24.4016 32.983 24.5503 33.8759 24.848 34.6197C25.1456 35.4133 25.5423 36.1077 26.0878 36.6533C26.6334 37.2484 27.2781 37.6948 28.0717 37.9924C28.8157 38.29 29.7084 38.4884 30.6508 38.4884C31.5931 38.4884 32.4362 38.3395 33.2298 37.9924C33.9738 37.6948 34.6682 37.1988 35.2138 36.6533C35.7593 36.0581 36.2056 35.4133 36.4536 34.6197C36.7511 33.8261 36.9 32.983 36.9 32.0407C36.9 31.0983 36.7511 30.2552 36.4536 29.4616C36.156 28.668 35.7593 27.9738 35.2138 27.3786C34.6682 26.7833 34.0233 26.3371 33.2298 26.0395C32.4859 25.742 31.5931 25.5435 30.6508 25.5435C29.7084 25.5435 28.8652 25.6922 28.0717 26.0395C27.3278 26.3371 26.6334 26.8331 26.0878 27.3786C25.5423 27.9738 25.0958 28.6185 24.848 29.4616C24.5503 30.2552 24.4016 31.0983 24.4016 32.0407Z" fill="white"/>
<path d="M47.7115 34.7184L43.099 28.3203H48.1082L50.5385 32.0897L52.9192 28.3203H57.6806L53.1672 34.7184L58.4741 42.1083H53.4647L50.4393 37.4958L47.2155 42.1083H42.2559L47.7115 34.7184Z" fill="white"/>
</g>
</g>
<defs>
<clipPath id="clip0_7819_14679">
<rect width="80" height="80" fill="white"/>
</clipPath>
</defs>
</svg>
