<?xml version="1.0" standalone="no"?>
<!DOCTYPE svg PUBLIC "-//W3C//DTD SVG 20010904//EN"
 "http://www.w3.org/TR/2001/REC-SVG-20010904/DTD/svg10.dtd">
<svg version="1.0" xmlns="http://www.w3.org/2000/svg"
 width="119.000000pt" height="119.000000pt" viewBox="0 0 119.000000 119.000000"
 preserveAspectRatio="xMidYMid meet">
<metadata>
Created by potrace 1.14, written by Peter Selinger 2001-2017
</metadata>
<g transform="translate(0.000000,119.000000) scale(0.100000,-0.100000)"
fill="#000000" stroke="none">
<path d="M220 1181 c-95 -30 -165 -96 -199 -187 -21 -56 -22 -69 -19 -418 3
-353 4 -362 26 -403 35 -66 79 -110 140 -140 l57 -28 293 -2 292 -2 0 54 0 54
-284 3 -284 3 -44 31 c-25 19 -53 51 -66 78 -22 44 -22 52 -23 372 0 313 1
328 22 370 24 50 70 90 120 104 19 6 178 10 353 11 316 0 320 0 365 -24 28
-14 58 -40 76 -68 l30 -44 3 -282 3 -283 55 0 55 0 -3 293 -3 292 -28 57 c-30
61 -74 105 -140 140 -41 23 -49 23 -407 25 -201 1 -376 -2 -390 -6z"/>
<path d="M978 272 l-58 -3 -1 -39 c0 -22 0 -67 0 -100 0 -33 0 -76 0 -96 l1
-36 105 4 c99 3 106 5 132 31 26 26 28 33 31 132 2 58 0 105 -5 105 -79 4
-159 4 -205 2z"/>
</g>
</svg>
