<svg width="35" height="19" viewBox="0 0 35 19" fill="none" xmlns="http://www.w3.org/2000/svg">
<path d="M11.5831 15.075L0.0581056 10.6V7.9L11.5831 3.425V6.025L1.03311 9.975V8.525L11.5831 12.475V15.075ZM17.0792 18V1.75L18.5042 3.225H13.3792V0.499999H20.3292V18H17.0792ZM28.8757 18.175C27.759 18.175 26.684 18.0333 25.6507 17.75C24.634 17.45 23.8257 17.0917 23.2257 16.675L24.4257 14.3C25.0257 14.6833 25.7424 15 26.5757 15.25C27.409 15.5 28.2424 15.625 29.0757 15.625C30.059 15.625 30.7674 15.4917 31.2007 15.225C31.6507 14.9583 31.8757 14.6 31.8757 14.15C31.8757 13.7833 31.7257 13.5083 31.4257 13.325C31.1257 13.125 30.734 12.975 30.2507 12.875C29.7674 12.775 29.2257 12.6833 28.6257 12.6C28.0424 12.5167 27.4507 12.4083 26.8507 12.275C26.2674 12.125 25.734 11.9167 25.2507 11.65C24.7674 11.3667 24.3757 10.9917 24.0757 10.525C23.7757 10.0583 23.6257 9.44167 23.6257 8.675C23.6257 7.825 23.8674 7.09167 24.3507 6.475C24.834 5.84167 25.509 5.35833 26.3757 5.025C27.259 4.675 28.3007 4.5 29.5007 4.5C30.4007 4.5 31.309 4.6 32.2257 4.8C33.1424 5 33.9007 5.28333 34.5007 5.65L33.3007 8.025C32.6674 7.64167 32.0257 7.38333 31.3757 7.25C30.7424 7.1 30.109 7.025 29.4757 7.025C28.5257 7.025 27.8174 7.16667 27.3507 7.45C26.9007 7.73333 26.6757 8.09167 26.6757 8.525C26.6757 8.925 26.8257 9.225 27.1257 9.425C27.4257 9.625 27.8174 9.78333 28.3007 9.9C28.784 10.0167 29.3174 10.1167 29.9007 10.2C30.5007 10.2667 31.0924 10.375 31.6757 10.525C32.259 10.675 32.7924 10.8833 33.2757 11.15C33.7757 11.4 34.1757 11.7583 34.4757 12.225C34.7757 12.6917 34.9257 13.3 34.9257 14.05C34.9257 14.8833 34.6757 15.6083 34.1757 16.225C33.6924 16.8417 33.0007 17.325 32.1007 17.675C31.2007 18.0083 30.1257 18.175 28.8757 18.175Z" fill="#06CEAF"/>
</svg>
