<svg width="50" height="40" viewBox="0 0 50 40" fill="none" xmlns="http://www.w3.org/2000/svg">
<path d="M9.00156 22.55C8.40156 22.55 7.87656 22.4333 7.42656 22.2C6.97656 21.9667 6.5599 21.7 6.17656 21.4C5.8099 21.1 5.4599 20.8333 5.12656 20.6C4.8099 20.3667 4.46823 20.25 4.10156 20.25C3.60156 20.25 3.2099 20.4417 2.92656 20.825C2.64323 21.1917 2.4849 21.7 2.45156 22.35H0.451563C0.484896 20.85 0.826563 19.7333 1.47656 19C2.12656 18.2667 2.95156 17.9 3.95156 17.9C4.55156 17.9 5.07656 18.025 5.52656 18.275C5.99323 18.5083 6.4099 18.775 6.77656 19.075C7.14323 19.375 7.49323 19.6417 7.82656 19.875C8.1599 20.1083 8.50156 20.225 8.85156 20.225C9.36823 20.225 9.76823 20.0333 10.0516 19.65C10.3516 19.2667 10.5099 18.75 10.5266 18.1H12.5016C12.4849 19.6 12.1516 20.7167 11.5016 21.45C10.8516 22.1833 10.0182 22.55 9.00156 22.55ZM14.3564 29V26.825L21.3064 20.225C21.8898 19.675 22.3231 19.1917 22.6064 18.775C22.8898 18.3583 23.0731 17.975 23.1564 17.625C23.2564 17.2583 23.3064 16.9167 23.3064 16.6C23.3064 15.8 23.0314 15.1833 22.4814 14.75C21.9314 14.3 21.1231 14.075 20.0564 14.075C19.2064 14.075 18.4314 14.225 17.7314 14.525C17.0481 14.825 16.4564 15.2833 15.9564 15.9L13.6814 14.15C14.3648 13.2333 15.2814 12.525 16.4314 12.025C17.5981 11.5083 18.8981 11.25 20.3314 11.25C21.5981 11.25 22.6981 11.4583 23.6314 11.875C24.5814 12.275 25.3064 12.85 25.8064 13.6C26.3231 14.35 26.5814 15.2417 26.5814 16.275C26.5814 16.8417 26.5064 17.4083 26.3564 17.975C26.2064 18.525 25.9231 19.1083 25.5064 19.725C25.0898 20.3417 24.4814 21.0333 23.6814 21.8L17.7064 27.475L17.0314 26.25H27.2564V29H14.3564ZM34.2072 29.175C33.0906 29.175 32.0156 29.0333 30.9822 28.75C29.9656 28.45 29.1572 28.0917 28.5572 27.675L29.7572 25.3C30.3572 25.6833 31.0739 26 31.9072 26.25C32.7406 26.5 33.5739 26.625 34.4072 26.625C35.3906 26.625 36.0989 26.4917 36.5322 26.225C36.9822 25.9583 37.2072 25.6 37.2072 25.15C37.2072 24.7833 37.0572 24.5083 36.7572 24.325C36.4572 24.125 36.0656 23.975 35.5822 23.875C35.0989 23.775 34.5572 23.6833 33.9572 23.6C33.3739 23.5167 32.7822 23.4083 32.1822 23.275C31.5989 23.125 31.0656 22.9167 30.5822 22.65C30.0989 22.3667 29.7072 21.9917 29.4072 21.525C29.1072 21.0583 28.9572 20.4417 28.9572 19.675C28.9572 18.825 29.1989 18.0917 29.6822 17.475C30.1656 16.8417 30.8406 16.3583 31.7072 16.025C32.5906 15.675 33.6322 15.5 34.8322 15.5C35.7322 15.5 36.6406 15.6 37.5572 15.8C38.4739 16 39.2322 16.2833 39.8322 16.65L38.6322 19.025C37.9989 18.6417 37.3572 18.3833 36.7072 18.25C36.0739 18.1 35.4406 18.025 34.8072 18.025C33.8572 18.025 33.1489 18.1667 32.6822 18.45C32.2322 18.7333 32.0072 19.0917 32.0072 19.525C32.0072 19.925 32.1572 20.225 32.4572 20.425C32.7572 20.625 33.1489 20.7833 33.6322 20.9C34.1156 21.0167 34.6489 21.1167 35.2322 21.2C35.8322 21.2667 36.4239 21.375 37.0072 21.525C37.5906 21.675 38.1239 21.8833 38.6072 22.15C39.1072 22.4 39.5072 22.7583 39.8072 23.225C40.1072 23.6917 40.2572 24.3 40.2572 25.05C40.2572 25.8833 40.0072 26.6083 39.5072 27.225C39.0239 27.8417 38.3322 28.325 37.4322 28.675C36.5322 29.0083 35.4572 29.175 34.2072 29.175Z" fill="#06CEAF"/>
</svg>
