<svg width="80" height="30" viewBox="0 0 80 30" fill="none" xmlns="http://www.w3.org/2000/svg">
<path d="M12.8278 29.4C10.2944 29.4 8.12109 28.8667 6.30775 27.8C4.49442 26.7067 3.10775 25.1333 2.14775 23.08C1.18775 21.0267 0.707754 18.4933 0.707754 15.48C0.707754 12.28 1.28109 9.57333 2.42775 7.36C3.60109 5.14667 5.21442 3.46667 7.26775 2.32C9.34775 1.17333 11.7344 0.599998 14.4278 0.599998C15.8411 0.599998 17.1878 0.746665 18.4678 1.04C19.7744 1.33333 20.8811 1.78667 21.7878 2.4L19.8678 6.32C19.0944 5.81333 18.2544 5.46667 17.3478 5.28C16.4678 5.06667 15.5344 4.96 14.5478 4.96C11.9078 4.96 9.81442 5.77333 8.26775 7.4C6.72109 9.02667 5.94775 11.4267 5.94775 14.6C5.94775 15.1067 5.96109 15.7067 5.98775 16.4C6.01442 17.0667 6.10775 17.7467 6.26775 18.44L4.66775 16.68C5.14775 15.5867 5.80109 14.68 6.62775 13.96C7.48109 13.2133 8.48109 12.6533 9.62775 12.28C10.8011 11.9067 12.0678 11.72 13.4278 11.72C15.2678 11.72 16.9078 12.08 18.3478 12.8C19.7878 13.4933 20.9344 14.4933 21.7878 15.8C22.6411 17.08 23.0678 18.5867 23.0678 20.32C23.0678 22.16 22.6144 23.76 21.7078 25.12C20.8011 26.48 19.5744 27.5333 18.0278 28.28C16.4811 29.0267 14.7478 29.4 12.8278 29.4ZM12.5478 25.32C13.6144 25.32 14.5611 25.1333 15.3878 24.76C16.2144 24.36 16.8544 23.8 17.3078 23.08C17.7878 22.36 18.0278 21.52 18.0278 20.56C18.0278 19.0933 17.5211 17.9333 16.5078 17.08C15.4944 16.2267 14.1344 15.8 12.4278 15.8C11.3078 15.8 10.3211 16.0133 9.46775 16.44C8.64109 16.84 7.97442 17.4 7.46775 18.12C6.98775 18.84 6.74775 19.6667 6.74775 20.6C6.74775 21.4533 6.97442 22.24 7.42775 22.96C7.88109 23.68 8.53442 24.2533 9.38775 24.68C10.2678 25.1067 11.3211 25.32 12.5478 25.32ZM37.4659 29.4C35.2525 29.4 33.2525 28.84 31.4659 27.72C29.7059 26.6 28.3192 24.9733 27.3059 22.84C26.2925 20.68 25.7859 18.0667 25.7859 15C25.7859 11.9333 26.2925 9.33333 27.3059 7.2C28.3192 5.04 29.7059 3.4 31.4659 2.28C33.2525 1.16 35.2525 0.599998 37.4659 0.599998C39.7059 0.599998 41.7059 1.16 43.4659 2.28C45.2259 3.4 46.6125 5.04 47.6259 7.2C48.6659 9.33333 49.1859 11.9333 49.1859 15C49.1859 18.0667 48.6659 20.68 47.6259 22.84C46.6125 24.9733 45.2259 26.6 43.4659 27.72C41.7059 28.84 39.7059 29.4 37.4659 29.4ZM37.4659 24.88C38.7725 24.88 39.9059 24.5333 40.8659 23.84C41.8259 23.12 42.5725 22.0267 43.1059 20.56C43.6659 19.0933 43.9459 17.24 43.9459 15C43.9459 12.7333 43.6659 10.88 43.1059 9.44C42.5725 7.97333 41.8259 6.89333 40.8659 6.2C39.9059 5.48 38.7725 5.12 37.4659 5.12C36.2125 5.12 35.0925 5.48 34.1059 6.2C33.1459 6.89333 32.3859 7.97333 31.8259 9.44C31.2925 10.88 31.0259 12.7333 31.0259 15C31.0259 17.24 31.2925 19.0933 31.8259 20.56C32.3859 22.0267 33.1459 23.12 34.1059 23.84C35.0925 24.5333 36.2125 24.88 37.4659 24.88ZM55.9099 29L72.6399 4.5H76.0699L59.3399 29H55.9099ZM57.9399 17.695C56.7966 17.695 55.7816 17.415 54.8949 16.855C54.0083 16.295 53.3199 15.5133 52.8299 14.51C52.3399 13.5067 52.0949 12.3283 52.0949 10.975C52.0949 9.62167 52.3399 8.44333 52.8299 7.44C53.3199 6.43667 54.0083 5.655 54.8949 5.095C55.7816 4.535 56.7966 4.255 57.9399 4.255C59.1299 4.255 60.1566 4.535 61.0199 5.095C61.9066 5.655 62.5949 6.43667 63.0849 7.44C63.5749 8.44333 63.8199 9.62167 63.8199 10.975C63.8199 12.3283 63.5749 13.5067 63.0849 14.51C62.5949 15.5133 61.9066 16.295 61.0199 16.855C60.1566 17.415 59.1299 17.695 57.9399 17.695ZM57.9749 15.245C58.9083 15.245 59.6316 14.8833 60.1449 14.16C60.6816 13.4133 60.9499 12.3517 60.9499 10.975C60.9499 9.59833 60.6816 8.54833 60.1449 7.825C59.6316 7.07833 58.9083 6.705 57.9749 6.705C57.0416 6.705 56.2949 7.07833 55.7349 7.825C55.1983 8.57167 54.9299 9.62167 54.9299 10.975C54.9299 12.3283 55.1983 13.3783 55.7349 14.125C56.2949 14.8717 57.0416 15.245 57.9749 15.245ZM74.0049 29.245C72.8616 29.245 71.8466 28.965 70.9599 28.405C70.0733 27.845 69.3849 27.0633 68.8949 26.06C68.4049 25.0567 68.1599 23.8783 68.1599 22.525C68.1599 21.1717 68.4049 19.9933 68.8949 18.99C69.3849 17.9867 70.0733 17.205 70.9599 16.645C71.8466 16.085 72.8616 15.805 74.0049 15.805C75.1949 15.805 76.2216 16.085 77.0849 16.645C77.9716 17.205 78.6599 17.9867 79.1499 18.99C79.6399 19.9933 79.8849 21.1717 79.8849 22.525C79.8849 23.8783 79.6399 25.0567 79.1499 26.06C78.6599 27.0633 77.9716 27.845 77.0849 28.405C76.2216 28.965 75.1949 29.245 74.0049 29.245ZM74.0049 26.795C74.9383 26.795 75.6733 26.4217 76.2099 25.675C76.7466 24.9283 77.0149 23.8783 77.0149 22.525C77.0149 21.1717 76.7466 20.1217 76.2099 19.375C75.6733 18.6283 74.9383 18.255 74.0049 18.255C73.0949 18.255 72.3599 18.6283 71.7999 19.375C71.2633 20.0983 70.9949 21.1483 70.9949 22.525C70.9949 23.9017 71.2633 24.9633 71.7999 25.71C72.3599 26.4333 73.0949 26.795 74.0049 26.795Z" fill="#06CEAF"/>
</svg>
