<svg width="40" height="40" viewBox="0 0 40 40" fill="none" xmlns="http://www.w3.org/2000/svg">
<g clip-path="url(#clip0_7238_12365)">
<path d="M33.7497 38.4372H6.24996C3.66116 38.4372 1.5625 36.3386 1.5625 33.7497V6.24996C1.5625 3.66116 3.66116 1.5625 6.24996 1.5625H33.7497C36.3386 1.5625 38.4372 3.66116 38.4372 6.24996V33.7497C38.4372 36.3386 36.3386 38.4372 33.7497 38.4372Z" stroke="#00E0B4" stroke-width="1.5" stroke-miterlimit="10" stroke-linecap="round" stroke-linejoin="round"/>
<path d="M38.4376 7.81245H18.75C16.1612 7.81245 14.0625 5.7138 14.0625 3.12499V1.5625" stroke="#00E0B4" stroke-width="1.5" stroke-miterlimit="10" stroke-linecap="round" stroke-linejoin="round"/>
<path d="M7.8125 20H10.9375" stroke="#00E0B4" stroke-width="1.5" stroke-miterlimit="10" stroke-linecap="round" stroke-linejoin="round"/>
<path d="M17.1875 20H32.1874" stroke="#00E0B4" stroke-width="1.5" stroke-miterlimit="10" stroke-linecap="round" stroke-linejoin="round"/>
<path d="M7.8125 29.375H16.5625" stroke="#00E0B4" stroke-width="1.5" stroke-miterlimit="10" stroke-linecap="round" stroke-linejoin="round"/>
<path d="M29.0625 29.375H32.1875" stroke="#00E0B4" stroke-width="1.5" stroke-miterlimit="10" stroke-linecap="round" stroke-linejoin="round"/>
<path d="M14.0625 23.125C15.7884 23.125 17.1875 21.7259 17.1875 20C17.1875 18.2741 15.7884 16.875 14.0625 16.875C12.3366 16.875 10.9375 18.2741 10.9375 20C10.9375 21.7259 12.3366 23.125 14.0625 23.125Z" stroke="#00E0B4" stroke-width="1.5" stroke-miterlimit="10" stroke-linecap="round" stroke-linejoin="round"/>
<path d="M25.9375 32.5C27.6634 32.5 29.0625 31.1009 29.0625 29.375C29.0625 27.6491 27.6634 26.25 25.9375 26.25C24.2116 26.25 22.8125 27.6491 22.8125 29.375C22.8125 31.1009 24.2116 32.5 25.9375 32.5Z" stroke="#00E0B4" stroke-width="1.5" stroke-miterlimit="10" stroke-linecap="round" stroke-linejoin="round"/>
</g>
<defs>
<clipPath id="clip0_7238_12365">
<rect width="40" height="40" fill="white"/>
</clipPath>
</defs>
</svg>
