<svg width="60" height="60" viewBox="0 0 60 60" fill="none" xmlns="http://www.w3.org/2000/svg">
<g id="analysis 1" clip-path="url(#clip0_4163_1488)">
<path id="path1665" d="M11.6224 12.9111H34.8898C35.6175 12.9111 36.2075 12.3211 36.2075 11.5934C36.2075 10.8656 35.6175 10.2756 34.8898 10.2756H11.6224C10.8947 10.2756 10.3047 10.8656 10.3047 11.5934C10.3047 12.3211 10.8947 12.9111 11.6224 12.9111Z" fill="#08DBBA"/>
<path id="path1669" d="M11.6224 47.4207C10.8947 47.4207 10.3047 48.0106 10.3047 48.7384C10.3047 49.4661 10.8947 50.0561 11.6224 50.0561H34.8898C35.6175 50.0561 36.2075 49.4661 36.2075 48.7384C36.2075 48.0221 35.6358 47.4391 34.9238 47.4211L34.8898 47.4207H11.6224Z" fill="#08DBBA"/>
<path id="Vector" fill-rule="evenodd" clip-rule="evenodd" d="M59.5286 25.9183C59.4367 18.2882 53.5129 12.0309 45.9989 11.3639L45.5985 11.3284V1.93759C45.5985 1.20986 45.0086 0.619873 44.2808 0.619873H1.75522C1.02749 0.619873 0.4375 1.20986 0.4375 1.93759V58.3944C0.4375 59.1222 1.02749 59.7121 1.75522 59.7121H44.658V59.7128L44.6781 59.7122V59.7121C47.6226 59.7121 50.0181 57.3166 50.0181 54.3721V39.9043L50.2914 39.7928C55.7056 37.5812 59.5298 32.2768 59.5298 26.0988L59.5286 25.9183ZM35.2309 37.6747H11.6198C10.892 37.6747 10.3021 37.0847 10.3021 36.3569C10.3021 35.6291 10.892 35.0392 11.6198 35.0392H31.9769L32.3405 34.3535C30.7411 31.9942 29.8064 29.1531 29.8064 26.0988C29.8064 25.9798 29.8082 25.8612 29.811 25.7427L29.8218 25.293H11.6198C10.892 25.293 10.3021 24.703 10.3021 23.9752C10.3021 23.2474 10.892 22.6575 11.6198 22.6575H30.209L30.2955 22.3307C31.8017 16.6425 36.6329 12.2848 42.5848 11.4501L42.9631 11.397V3.25531H3.07293V57.0767H40.0074L39.7456 56.4647C39.4705 55.8218 39.3179 55.1145 39.3179 54.3721V39.9043L39.0448 39.7928C37.7802 39.2761 36.6022 38.5914 35.5396 37.7654L35.4164 37.6697L35.2604 37.6731L35.2309 37.6747ZM44.5884 57.0758L44.658 57.0767H44.6781L44.7478 57.0758C46.207 57.0388 47.3827 55.8401 47.3827 54.3721V40.6549L46.8787 40.73C46.1573 40.8375 45.4192 40.8938 44.6681 40.8938C43.9169 40.8938 43.1788 40.8375 42.4574 40.73L41.9534 40.6549V54.3721C41.9534 55.8401 43.1291 57.0388 44.5884 57.0758ZM44.353 38.2544L44.5104 38.2574L44.6681 38.2583C51.4104 38.2583 56.8943 32.8028 56.8943 26.0988C56.8943 19.3949 51.4104 13.9395 44.6681 13.9395C37.9259 13.9395 32.4418 19.3949 32.4418 26.0988C32.4418 32.6983 37.7562 38.0878 44.353 38.2544Z" fill="#08DBBA"/>
</g>
<defs>
<clipPath id="clip0_4163_1488">
<rect width="60" height="60" fill="white"/>
</clipPath>
</defs>
</svg>
