<svg width="40" height="40" viewBox="0 0 40 40" fill="none" xmlns="http://www.w3.org/2000/svg">
<g id="_1">
<path id="Vector" d="M34.2912 33.5054C36.0823 33.5054 37.5385 34.9617 37.5385 36.7527C37.5385 38.543 36.0823 40 34.2912 40C32.5202 40 31.0768 38.575 31.0455 36.812C31.0431 36.6742 30.9534 36.5525 30.8228 36.5092L26.8723 35.1915C26.5182 35.0738 26.2803 34.743 26.2803 34.3705V25.9543C26.2803 25.7749 26.1345 25.6291 25.9543 25.6291H21.1907C21.0113 25.6291 20.8655 25.7749 20.8655 25.9543V33.3845C20.8655 33.5222 20.952 33.6456 21.0818 33.6912C22.3417 34.1382 23.2469 35.3413 23.2469 36.7527C23.2469 38.543 21.7907 40 19.9996 40C18.2093 40 16.7523 38.543 16.7523 36.7527C16.7523 35.3413 17.6574 34.1382 18.9174 33.6912C19.0472 33.6456 19.1345 33.5222 19.1345 33.3845V25.9543C19.1345 25.7749 18.9887 25.6291 18.8085 25.6291H14.0449C13.8655 25.6291 13.7197 25.7749 13.7197 25.9543V34.3705C13.7197 34.743 13.481 35.0738 13.1277 35.1915L9.17636 36.5092C9.0458 36.5525 8.95689 36.6742 8.95448 36.812C8.92244 38.575 7.47902 40 5.70799 40C3.91774 40 2.4607 38.543 2.4607 36.7527C2.4607 34.9617 3.91774 33.5054 5.70799 33.5054C6.7477 33.5054 7.67367 33.9964 8.26882 34.759C8.35292 34.8671 8.49711 34.9104 8.62767 34.8671L11.766 33.821C11.899 33.777 11.9887 33.6528 11.9887 33.5126V25.9543C11.9887 25.7749 11.8429 25.6291 11.6635 25.6291H6.89909C3.13195 25.6291 0 22.5748 0 18.8093C0 15.4058 2.55202 12.6143 5.76246 12.0816C5.92186 12.0552 6.03801 11.9158 6.0348 11.7548C6.034 11.7244 6.034 11.6939 6.034 11.6635C6.034 8.57 7.23872 5.64952 9.42708 3.43873C11.6218 1.22154 14.5311 0 17.6182 0C20.1542 0 22.5644 0.831448 24.5878 2.40463C26.2114 3.66622 27.4938 5.36276 28.278 7.26355C28.3389 7.41014 28.4967 7.49184 28.6513 7.45659C29.3217 7.3036 30.0138 7.2251 30.7187 7.2251C35.8019 7.2251 40 11.3503 40 16.4271C40 18.879 39.026 21.1899 37.2581 22.9353C35.4983 24.6719 33.1754 25.6291 30.7187 25.6291H28.3365C28.1571 25.6291 28.0113 25.7749 28.0113 25.9543V33.5126C28.0113 33.6528 28.101 33.777 28.2332 33.821L31.3715 34.8671C31.5021 34.9104 31.6463 34.8671 31.7312 34.759C32.3263 33.9964 33.2523 33.5054 34.2912 33.5054ZM5.70799 38.269C6.54425 38.269 7.2251 37.589 7.2251 36.7527C7.2251 35.9165 6.54425 35.2364 5.70799 35.2364C4.87254 35.2364 4.19168 35.9165 4.19168 36.7527C4.19168 37.589 4.87254 38.269 5.70799 38.269ZM19.9996 38.269C20.8359 38.269 21.5159 37.589 21.5159 36.7527C21.5159 35.9165 20.8359 35.2364 19.9996 35.2364C19.1633 35.2364 18.4833 35.9165 18.4833 36.7527C18.4833 37.589 19.1633 38.269 19.9996 38.269ZM34.2912 38.269C35.1275 38.269 35.8075 37.589 35.8075 36.7527C35.8075 35.9165 35.1275 35.2364 34.2912 35.2364C33.455 35.2364 32.7749 35.9165 32.7749 36.7527C32.7749 37.589 33.455 38.269 34.2912 38.269ZM10.498 15.2104C7.28117 11.9935 1.73098 14.3845 1.73098 18.8093C1.73098 21.5664 4.09636 23.8981 6.89909 23.8981H30.7187C34.8831 23.8981 38.269 20.5459 38.269 16.4271C38.269 12.3083 34.8831 8.95608 30.7187 8.95608C29.2392 8.95608 28.3045 9.44069 27.9656 9.48876C27.9392 9.49196 27.9128 9.49917 27.8879 9.50958C26.9812 9.88045 26.1489 10.4307 25.4352 11.1444C25.0972 11.4825 24.5493 11.4825 24.2113 11.1444C23.8733 10.8064 23.8733 10.2585 24.2113 9.9205C24.8922 9.23964 25.6603 8.67974 26.4902 8.24879C26.6416 8.1711 26.7064 7.99007 26.6408 7.83387C25.102 4.19008 21.5343 1.73098 17.6182 1.73098C12.1858 1.73098 7.76498 6.1862 7.76498 11.6635C7.76498 11.7003 7.76739 11.7396 7.76899 11.778C7.7754 11.9318 7.88834 12.06 8.03973 12.0848C9.42788 12.3171 10.7071 12.9715 11.722 13.9864C12.06 14.3244 12.06 14.8723 11.722 15.2104C11.3839 15.5484 10.8361 15.5484 10.498 15.2104Z" fill="#07E7C4"/>
</g>
</svg>
