<svg width="60" height="60" viewBox="0 0 60 60" fill="none" xmlns="http://www.w3.org/2000/svg">
<rect width="60" height="60" fill="url(#paint0_linear_4815_3043)"/>
<path d="M46.5405 33.305H43.6911V29.6216C43.6911 29.2046 43.4131 28.9266 42.9961 28.9266H30.695V25.9382H33.5444C34.3784 25.9382 35.0039 25.3127 35.0039 24.4788V17.4595C35.0039 16.6255 34.3784 16 33.5444 16H26.4556C25.6216 16 24.9961 16.6255 24.9961 17.4595V24.5483C24.9961 25.3822 25.6216 26.0077 26.4556 26.0077H29.305V28.9266H17.0039C16.5869 28.9266 16.3089 29.2046 16.3089 29.6216V33.305H13.4595C12.6255 33.305 12 33.9305 12 34.7645V41.8533C12 42.6873 12.6255 43.3127 13.4595 43.3127H20.5483C21.3822 43.3127 22.0077 42.6873 22.0077 41.8533V34.7645C22.0077 33.9305 21.3822 33.305 20.5483 33.305H17.6988V30.3166H29.305V33.305H26.4556C25.6216 33.305 24.9961 33.9305 24.9961 34.7645V41.8533C24.9961 42.6873 25.6216 43.3127 26.4556 43.3127H33.5444C34.3784 43.3127 35.0039 42.6873 35.0039 41.8533V34.7645C35.0039 33.9305 34.3784 33.305 33.5444 33.305H30.695V30.3166H42.3012V33.305H39.4517C38.6178 33.305 37.9923 33.9305 37.9923 34.7645V41.8533C37.9923 42.6873 38.6178 43.3127 39.4517 43.3127H46.5405C47.3745 43.3127 48 42.6873 48 41.8533V34.7645C48 33.9305 47.305 33.305 46.5405 33.305ZM20.6178 34.7645C20.5483 34.695 20.6178 34.695 20.6178 34.7645V41.8533C20.6178 41.9228 20.6178 41.9228 20.5483 41.9228H13.4595C13.39 41.9228 13.39 41.9228 13.39 41.8533V34.7645C13.39 34.695 13.39 34.695 13.4595 34.695L20.6178 34.7645ZM33.6139 34.7645C33.5444 34.695 33.6139 34.695 33.6139 34.7645V41.8533C33.6139 41.9228 33.6139 41.9228 33.5444 41.9228H26.4556C26.3861 41.9228 26.3861 41.9228 26.3861 41.8533V34.7645C26.3861 34.695 26.3861 34.695 26.4556 34.695L33.6139 34.7645ZM26.3861 24.4788C26.3861 24.5483 26.4556 24.5483 26.3861 24.4788V17.4595C26.3861 17.39 26.3861 17.39 26.4556 17.39H33.5444C33.6139 17.39 33.6139 17.39 33.6139 17.4595V24.5483C33.6139 24.6178 33.6139 24.6178 33.5444 24.6178L26.3861 24.4788ZM46.61 41.7838C46.5405 41.8533 46.61 41.8533 46.61 41.7838L39.4517 41.8533C39.3822 41.8533 39.3822 41.8533 39.3822 41.7838V34.7645C39.3822 34.695 39.3822 34.695 39.4517 34.695H46.5405C46.61 34.695 46.61 34.695 46.61 34.7645V41.7838Z" fill="#06CEAF"/>
<defs>
<linearGradient id="paint0_linear_4815_3043" x1="30" y1="0" x2="30" y2="60" gradientUnits="userSpaceOnUse">
<stop stop-color="#ECF6F4"/>
<stop offset="1" stop-color="#ECF6F4" stop-opacity="0"/>
</linearGradient>
</defs>
</svg>
