<svg width="40" height="40" viewBox="0 0 40 40" fill="none" xmlns="http://www.w3.org/2000/svg">
<path d="M29.1673 31.6673H36.6673M36.6673 31.6673L32.5006 27.5007M36.6673 31.6673L32.5006 35.834M20.0007 3.33398L15.834 7.50065L20.0007 11.6673" stroke="#06CEAF" stroke-width="2" stroke-linecap="round" stroke-linejoin="round"/>
<path d="M17.5007 7.5C20.8159 7.5 23.9953 8.81696 26.3395 11.1612C28.6837 13.5054 30.0007 16.6848 30.0007 20C30.0007 23.3152 28.6837 26.4946 26.3395 28.8388C23.9953 31.183 20.8159 32.5 17.5007 32.5H3.33398" stroke="#06CEAF" stroke-width="2" stroke-linecap="round" stroke-linejoin="round"/>
<path d="M11.26 9.16797C9.35638 10.2641 7.77537 11.8427 6.67634 13.7446C5.5773 15.6466 4.9991 17.8047 5 20.0013C5 22.8146 5.93 25.4113 7.5 27.5013" stroke="#06CEAF" stroke-width="2" stroke-linecap="round" stroke-linejoin="round"/>
</svg>
