<svg width="46" height="45" viewBox="0 0 46 45" fill="none" xmlns="http://www.w3.org/2000/svg">
<path fill-rule="evenodd" clip-rule="evenodd" d="M4.08433 27.7994L0.905699 27.8206C0.575971 27.8231 0.271608 27.6447 0.112062 27.3559C-0.0474829 27.0671 -0.0360284 26.7136 0.142335 26.4363L10.7198 9.91964C10.8851 9.66191 11.1706 9.50564 11.4774 9.50564C11.7842 9.50564 12.0698 9.66191 12.2351 9.92045L22.7757 26.4068C22.9524 26.6834 22.9647 27.0335 22.8084 27.3215C22.6513 27.6095 22.3511 27.7895 22.0238 27.7912L18.8983 27.8125L18.9008 31.572C18.9016 32.0686 18.4982 32.472 18.0016 32.472C17.505 32.4728 17.1016 32.0695 17.1016 31.5728L17.0983 26.919C17.0975 26.424 17.4976 26.0223 17.9918 26.019L20.3809 26.0026L11.4766 12.0747L2.55188 26.01L4.95488 25.9936C5.19461 25.992 5.42533 26.0861 5.59552 26.2546C5.76488 26.424 5.86061 26.6539 5.86061 26.8936L5.84097 42.6379C5.84097 42.9717 6.11261 43.2425 6.44643 43.2425H16.5084C16.8422 43.2425 17.1131 42.9717 17.1131 42.6379V41.2445C17.1032 41.1914 17.1082 37.2985 17.1082 37.2985C17.109 36.8018 17.5042 36.3985 18.0008 36.3993C18.4974 36.3993 18.8942 36.7961 18.8934 37.2927C18.8934 37.2927 18.8885 41.229 18.8705 41.2994V42.6379C18.8705 43.9405 17.811 45 16.5084 45H6.44643C5.14388 45 4.08433 43.9405 4.08433 42.6379V27.7994ZM32.4122 23.0629L30.7554 23.0744C30.4257 23.076 30.1213 22.8976 29.9618 22.6088C29.8022 22.32 29.8137 21.9665 29.9921 21.6892L36.7592 11.1224C36.9245 10.8638 37.2101 10.7075 37.5177 10.7075C37.8245 10.7075 38.1101 10.8646 38.2753 11.1232L45.0122 21.6605C45.1881 21.9363 45.2012 22.2865 45.0441 22.5745C44.8879 22.8625 44.5876 23.0425 44.2595 23.0449L42.5847 23.0654L42.5872 25.0969C42.5872 25.5935 42.1846 25.9969 41.688 25.9977C41.1913 25.9977 40.788 25.5952 40.7871 25.0985L40.7847 22.1727C40.7839 21.6777 41.1831 21.2752 41.6782 21.2719L42.6174 21.2564L37.5161 13.2766L32.4016 21.2637L33.2836 21.2572C33.5233 21.2555 33.7532 21.3496 33.9234 21.5182C34.0936 21.6875 34.1893 21.9166 34.1893 22.1564L34.1697 31.914C34.1697 32.2478 34.4413 32.5186 34.7743 32.5186H40.2038C40.5376 32.5186 40.8084 32.2478 40.8084 31.914L40.8035 30.8332C40.8035 30.3365 41.1995 29.934 41.6961 29.934C42.1928 29.9348 42.5888 30.3316 42.5888 30.8283L42.5659 31.914C42.5659 33.2165 41.5063 34.2761 40.2038 34.2761H34.7743C33.4718 34.2761 32.4122 33.2165 32.4122 31.914V23.0629ZM28.0898 8.784L28.0252 13.8134C28.0252 15.1151 26.9656 16.1755 25.6631 16.1755L23.0171 16.1812C21.7145 16.1812 20.655 15.1216 20.655 13.8191V8.79545L19.8802 8.80036C19.5504 8.802 19.2461 8.62364 19.0865 8.33482C18.927 8.046 18.9384 7.69254 19.1168 7.41518L23.5996 0.414818C23.7657 0.156273 24.0512 0 24.3581 0C24.6649 0 24.9504 0.156273 25.1157 0.414818L29.5781 7.39473C29.7548 7.67045 29.7671 8.02064 29.6108 8.30864C29.4537 8.59664 29.1534 8.77664 28.8262 8.77909L28.0898 8.784ZM26.2898 7.89055L26.2685 13.8134C26.2685 14.1464 25.9969 14.418 25.6631 14.418L23.0171 14.4245C22.6841 14.4245 22.4124 14.1529 22.4124 13.8191L22.4321 7.88891C22.4321 7.64918 22.3363 7.42009 22.1662 7.25073C21.996 7.08218 21.7661 6.98809 21.5263 6.98973L24.3572 2.56909L27.1832 6.99055C26.6891 6.99382 26.2898 7.39555 26.2898 7.89055Z" fill="#07E7C4"/>
</svg>
