<svg width="40" height="60" viewBox="0 0 40 60" fill="none" xmlns="http://www.w3.org/2000/svg">
<path d="M9.99935 21.6667C10.8834 21.6667 11.7313 21.3155 12.3564 20.6904C12.9815 20.0652 13.3327 19.2174 13.3327 18.3333C13.3327 17.4493 12.9815 16.6014 12.3564 15.9763C11.7313 15.3512 10.8834 15 9.99935 15C9.11529 15 8.26745 15.3512 7.64233 15.9763C7.0172 16.6014 6.66602 17.4493 6.66602 18.3333C6.66602 19.2174 7.0172 20.0652 7.64233 20.6904C8.26745 21.3155 9.11529 21.6667 9.99935 21.6667ZM9.99935 21.6667V38.3333M9.99935 38.3333C10.8834 38.3333 11.7313 38.6845 12.3564 39.3096C12.9815 39.9348 13.3327 40.7826 13.3327 41.6667C13.3327 42.5507 12.9815 43.3986 12.3564 44.0237C11.7313 44.6488 10.8834 45 9.99935 45C9.11529 45 8.26745 44.6488 7.64233 44.0237C7.0172 43.3986 6.66602 42.5507 6.66602 41.6667C6.66602 40.7826 7.0172 39.9348 7.64233 39.3096C8.26745 38.6845 9.11529 38.3333 9.99935 38.3333ZM21.3803 18.3333H26.3803C29.7136 18.3333 29.7136 21.6667 29.7136 21.6667V42M26.2851 38.5714L33.1422 45.4286M26.2851 45.4286L33.1422 38.5714" stroke="#06CEAF" stroke-width="2" stroke-linecap="round" stroke-linejoin="round"/>
<path d="M24.9987 22.4993L20.832 18.3327L24.9987 14.166" stroke="#06CEAF" stroke-width="1.5" stroke-linecap="round" stroke-linejoin="round"/>
</svg>
