<svg width="40" height="60" viewBox="0 0 40 60" fill="none" xmlns="http://www.w3.org/2000/svg">
<path d="M18.166 28.6641C20.1551 28.6641 22.0628 27.8739 23.4693 26.4674C24.8758 25.0608 25.666 23.1532 25.666 21.1641C25.666 19.1749 24.8758 17.2673 23.4693 15.8608C22.0628 14.4542 20.1551 13.6641 18.166 13.6641C16.1769 13.6641 14.2692 14.4542 12.8627 15.8608C11.4562 17.2673 10.666 19.1749 10.666 21.1641C10.666 23.1532 11.4562 25.0608 12.8627 26.4674C14.2692 27.8739 16.1769 28.6641 18.166 28.6641Z" stroke="#08DBBA" stroke-width="2" stroke-linecap="round" stroke-linejoin="round"/>
<path d="M5.66602 43.065V41.2652C5.66557 39.1396 6.21005 37.0485 7.24875 35.1864C8.28746 33.3244 9.78663 31.752 11.6067 30.6156C13.4268 29.4792 15.5086 28.8158 17.6583 28.6872C19.808 28.5585 21.9558 28.9688 23.9017 29.8797M25.8832 35.6128L27.7779 31.6478C27.8291 31.5345 27.9126 31.4382 28.0181 31.3707C28.1236 31.3031 28.2466 31.2672 28.3724 31.2672C28.4981 31.2672 28.6212 31.3031 28.7267 31.3707C28.8322 31.4382 28.9156 31.5345 28.9669 31.6478L30.8634 35.6128L35.0995 36.2535C35.6429 36.3345 35.8581 37.0256 35.4642 37.4216L32.4006 40.5046L33.1228 44.8619C33.2158 45.4217 32.6486 45.8482 32.1617 45.5836L28.3724 43.5265L24.583 45.5836C24.0961 45.8482 23.529 45.4217 23.622 44.8637L24.3441 40.5046L21.2805 37.4216C20.8866 37.0256 21.1018 36.3345 21.6452 36.2517L25.8832 35.6128Z" stroke="#08DBBA" stroke-width="2" stroke-linecap="round" stroke-linejoin="round"/>
</svg>
