<svg width="40" height="39" viewBox="0 0 40 39" fill="none" xmlns="http://www.w3.org/2000/svg">
<path d="M16.225 23.375H9.33158L7.97286 26.5657H5.3335L11.5377 12.7788H14.0586L20.2826 26.5657H17.6039L16.225 23.375ZM15.3783 21.366L12.7783 15.3391L10.1985 21.366H15.3783Z" fill="#07E7C4"/>
<path d="M34.6666 24.3993V26.5657H22.9082V24.8521L31.0228 14.9452H23.0461V12.7788H34.4106V14.4924L26.2957 24.3993H34.6666Z" fill="#07E7C4"/>
<path fill-rule="evenodd" clip-rule="evenodd" d="M40 15.0493C40 14.4816 39.5331 14.0147 38.9658 14.0147C38.3981 14.0147 37.9312 14.4816 37.9312 15.0493C37.9312 15.0493 37.9312 32.4614 37.9312 32.4621C37.929 34.5245 36.2323 36.2211 34.1699 36.2234C34.1696 36.2234 34.1696 36.2234 34.1693 36.2234C34.1693 36.2234 5.83072 36.2234 5.8304 36.2234C3.768 36.2211 2.07136 34.5245 2.06912 32.4621C2.06912 32.4618 2.06912 32.4618 2.06912 32.4614C2.06912 32.4614 2.06912 5.83072 2.06912 5.8304C2.07136 3.76768 3.768 2.07136 5.8304 2.06912H8.25408C8.82144 2.06912 9.28864 1.60192 9.28864 1.03456C9.28864 0.46688 8.82144 0 8.25408 0C8.25408 0 5.83072 0 5.83136 0C2.63392 0.00352 0.00384 2.6336 0 5.83072C0 5.83072 0 32.4614 0 32.4611C0.00384 35.6586 2.63392 38.2886 5.83072 38.2922H34.169L34.2438 38.2918C34.8758 38.2787 35.5011 38.1709 36.0973 37.9587C37.7453 37.3722 39.08 36.0378 39.6666 34.3898C39.887 33.7699 39.9952 33.1187 40 32.4614V15.0493Z" fill="#07E7C4"/>
<path d="M21.5957 21.3383C22.3208 21.3383 22.9086 20.7505 22.9086 20.0254C22.9086 19.3002 22.3208 18.7124 21.5957 18.7124C20.8705 18.7124 20.2827 19.3002 20.2827 20.0254C20.2827 20.7505 20.8705 21.3383 21.5957 21.3383Z" fill="#07E7C4"/>
</svg>
