<svg width="40" height="60" viewBox="0 0 40 60" fill="none" xmlns="http://www.w3.org/2000/svg">
<path d="M38.8281 31.9531H1.17188C0.524687 31.9531 0 32.4778 0 33.125C0 33.7722 0.524687 34.2969 1.17188 34.2969H17.9302L11.9638 44.2409C11.4958 45.0211 12.0591 46.0156 12.9688 46.0156H27.0312C27.9412 46.0156 28.5041 45.0208 28.0361 44.2409L22.0698 34.2969H38.8281C39.4753 34.2969 40 33.7722 40 33.125C40 32.4778 39.4753 31.9531 38.8281 31.9531ZM15.0385 43.6719L20 35.4027L24.9615 43.6719H15.0385Z" fill="#06CEAF"/>
<path d="M7.03125 28.0469C10.9083 28.0469 14.0625 24.8927 14.0625 21.0156C14.0625 17.1386 10.9083 13.9844 7.03125 13.9844C3.15422 13.9844 0 17.1386 0 21.0156C0 24.8927 3.15422 28.0469 7.03125 28.0469ZM7.03125 16.3281C9.61594 16.3281 11.7188 18.4309 11.7188 21.0156C11.7188 23.6003 9.61594 25.7031 7.03125 25.7031C4.44656 25.7031 2.34375 23.6003 2.34375 21.0156C2.34375 18.4309 4.44656 16.3281 7.03125 16.3281Z" fill="#06CEAF"/>
<path d="M32.9688 28.0469C36.8458 28.0469 40 24.8927 40 21.0156C40 17.1386 36.8458 13.9844 32.9688 13.9844C29.0917 13.9844 25.9375 17.1386 25.9375 21.0156C25.9375 24.8927 29.0917 28.0469 32.9688 28.0469ZM32.9688 16.3281C35.5534 16.3281 37.6562 18.4309 37.6562 21.0156C37.6562 23.6003 35.5534 25.7031 32.9688 25.7031C30.3841 25.7031 28.2812 23.6003 28.2812 21.0156C28.2812 18.4309 30.3841 16.3281 32.9688 16.3281Z" fill="#06CEAF"/>
</svg>
