<svg width="45" height="45" viewBox="0 0 45 45" fill="none" xmlns="http://www.w3.org/2000/svg">
<path fill-rule="evenodd" clip-rule="evenodd" d="M22.9079 12.8449C21.8541 13.1509 20.838 13.574 19.8805 14.105L18.8959 13.115C17.9375 12.17 16.3806 12.17 15.4231 13.115L13.1138 15.4279C12.1725 16.3818 12.1716 17.9388 13.1129 18.9017L14.1074 19.8825H14.1046C13.571 20.8365 13.148 21.8535 12.8448 22.9064H11.4534C10.1089 22.9154 9.0038 24.0133 8.9993 25.3632V28.6389C9.0038 29.9798 10.1089 31.0867 11.4534 31.0867H12.8448C12.8448 31.0867 12.8457 31.0957 12.8448 31.0867C13.148 32.1397 13.571 33.1567 14.1046 34.1196L13.1129 35.1007C12.1716 36.0636 12.1725 37.6204 13.1138 38.5743L15.4285 40.8782L15.5994 41.0311C16.5606 41.8231 17.996 41.7692 18.8968 40.8872L19.8805 39.8882C20.838 40.4281 21.8541 40.8512 22.9079 41.1482V42.543C22.9124 43.8839 24.0166 44.991 25.3611 45H28.6351C29.9796 44.991 31.0838 43.8839 31.0883 42.543V41.1482C32.1421 40.8512 33.1582 40.4281 34.1157 39.8882L35.1003 40.8872C36.0587 41.8232 37.6156 41.8231 38.5731 40.8782L40.8824 38.5653C41.8237 37.6114 41.8246 36.0546 40.8833 35.1007L39.8916 34.1196C40.4252 33.1567 40.8482 32.1397 41.1515 31.0867H42.5428C43.8873 31.0867 44.9924 29.9798 44.9969 28.6389V25.3632C44.9924 24.0133 43.8873 22.9154 42.5428 22.9064H41.1515C40.8482 21.8535 40.4252 20.8365 39.8916 19.8825L40.8833 18.8927C41.8246 17.9388 41.8237 16.3818 40.8824 15.4189L38.5632 13.115L38.3518 12.926C37.3906 12.1791 35.9858 12.242 35.0994 13.115L34.1157 14.105C33.1582 13.574 32.1421 13.1509 31.0883 12.8449V11.4502C31.0838 10.1093 29.9796 9.00239 28.6351 9.00239H25.3611C24.0166 9.00239 22.9124 10.1093 22.9079 11.4502V12.8449ZM29.4532 13.4751V11.4502C29.4532 11.0092 29.0833 10.6311 28.6342 10.6311H25.362C24.9129 10.6311 24.543 11.0092 24.543 11.4502V13.4751C24.5421 13.853 24.2812 14.1769 23.914 14.2669H23.9149C22.5947 14.5909 21.333 15.1128 20.1748 15.8238H20.1738C19.8544 16.0128 19.4413 15.9679 19.1713 15.7069L17.7359 14.2759C17.5829 14.1229 17.3741 14.0329 17.1554 14.0329C16.9377 14.0329 16.728 14.1229 16.5759 14.2759L14.2739 16.5888C14.1182 16.7328 14.03 16.9397 14.03 17.1647C14.03 17.3717 14.1173 17.5788 14.2694 17.7318L15.7092 19.1715C15.9693 19.4415 16.0161 19.8556 15.8217 20.1796C15.8217 20.1796 15.8056 20.1976 15.8209 20.1796C15.1117 21.3315 14.587 22.5913 14.2676 23.9142C14.1803 24.2832 13.8509 24.5442 13.4738 24.5442H11.4534C11.0044 24.5442 10.6345 24.9133 10.6345 25.3632V28.6389C10.6345 29.0799 11.0044 29.458 11.4534 29.458H13.4747C13.8509 29.458 14.1803 29.7189 14.2676 30.0789C14.587 31.4018 15.1117 32.6617 15.8217 33.8226C15.8217 33.8226 15.8379 33.8496 15.8226 33.8226C16.0152 34.1466 15.9693 34.5516 15.7101 34.8216L14.2739 36.2614C14.1182 36.4144 14.03 36.6215 14.03 36.8375C14.03 37.0535 14.1173 37.2694 14.2739 37.4224L16.584 39.7172C16.7361 39.8792 16.9431 39.9602 17.1599 39.9602C17.3768 39.9602 17.5838 39.8792 17.7359 39.7172L19.1704 38.2863C19.3252 38.1423 19.5322 38.0523 19.7491 38.0523H19.7509C19.8994 38.0523 20.0461 38.0974 20.173 38.1784H20.1748C21.333 38.8893 22.5938 39.4113 23.9131 39.7263H23.9149C24.2821 39.8162 24.5421 40.1491 24.543 40.5181V42.543C24.543 42.9929 24.9129 43.362 25.362 43.362H28.6342C29.0833 43.362 29.4532 42.9929 29.4532 42.543V40.5181C29.4541 40.1491 29.7159 39.8162 30.0813 39.7263C31.4015 39.4113 32.6632 38.8893 33.8214 38.1784H33.8224C34.1418 37.9804 34.5549 38.0253 34.8249 38.2863L36.2603 39.7263C36.4133 39.8792 36.6221 39.9693 36.8408 39.9693C37.0585 39.9693 37.2682 39.8792 37.4203 39.7172L39.7223 37.4133C39.878 37.2604 39.9662 37.0535 39.9662 36.8375C39.9662 36.6215 39.8789 36.4144 39.7268 36.2614L38.287 34.8306C38.0269 34.5606 37.9801 34.1466 38.1745 33.8226H38.1753C38.8845 32.6617 39.4092 31.4018 39.7287 30.0789L39.735 30.0609C39.8295 29.7009 40.1534 29.458 40.5215 29.458H42.5428C42.9918 29.458 43.3617 29.0799 43.3617 28.6389V25.3632C43.3617 24.9133 42.9918 24.5442 42.5428 24.5442H40.5215C40.1453 24.5442 39.8159 24.2832 39.7287 23.9142C39.4092 22.5913 38.8845 21.3315 38.1745 20.1796C38.1898 20.1976 38.1736 20.1706 38.1736 20.1706C37.981 19.8556 38.0269 19.4415 38.2861 19.1715L39.7223 17.7408C39.878 17.5788 39.9662 17.3717 39.9662 17.1557C39.9662 16.9397 39.879 16.7328 39.7251 16.5798L37.4113 14.2759C37.261 14.1229 37.0531 14.0329 36.8363 14.0329C36.6203 14.0329 36.4142 14.1139 36.2648 14.2669L34.8258 15.7069C34.5567 15.9679 34.1427 16.0128 33.8214 15.8238C33.8349 15.8328 33.8205 15.8238 33.8205 15.8238C32.6632 15.1128 31.4015 14.5909 30.0822 14.2669C30.0894 14.2669 30.0804 14.2669 30.0804 14.2669C29.7771 14.1949 29.5458 13.952 29.4756 13.664C29.4612 13.601 29.4532 13.5381 29.4532 13.4751ZM8.29732 34.8935C8.29642 34.9115 8.29644 34.9115 8.29644 34.9025L7.51531 34.8935C3.48178 34.7045 0.107881 31.1679 0.0259869 27.2082C-0.00821086 20.6476 -0.0091108 14.0779 0.0259869 7.51736C0.112381 3.44063 3.68514 0.0389974 7.62418 0.0119992C14.1559 0.0119992 20.6877 -0.014999 27.2195 0.0119992C31.4852 0.101993 34.7466 3.81865 34.905 8.01237L34.9104 8.21934V8.80421C34.9104 9.29918 34.5099 9.70415 34.0176 9.70415C33.5254 9.70415 33.1258 9.29918 33.1258 8.80421V8.21934H33.124L33.1204 7.72433C33.0718 4.60154 30.2856 1.84787 27.1961 1.80287C20.6841 1.74888 14.1713 1.70388 7.66021 1.80287C4.57971 1.90186 1.90956 4.61068 1.81417 7.65248C1.71247 14.186 1.71247 20.7284 1.81417 27.262C1.91406 30.4568 4.79748 32.9226 7.96797 33.1026H8.43953C8.93269 33.1026 9.33408 33.5076 9.33408 34.0025C9.33408 34.4885 8.93269 34.8935 8.43953 34.8935H8.29732ZM26.9981 21.6464C24.0427 21.6464 21.6434 24.0404 21.6434 27.0012C21.6434 29.953 24.0427 32.3558 26.9981 32.3558C29.9535 32.3558 32.3528 29.953 32.3528 27.0012C32.3528 24.0404 29.9535 21.6464 26.9981 21.6464ZM26.9981 23.3564C29.0095 23.3564 30.6428 24.9853 30.6428 27.0012C30.6428 29.0081 29.0095 30.6458 26.9981 30.6458C24.9867 30.6458 23.3534 29.0081 23.3534 27.0012C23.3534 24.9853 24.9867 23.3564 26.9981 23.3564Z" fill="#07E7C4"/>
</svg>
