<svg width="80" height="60" viewBox="0 0 80 60" fill="none" xmlns="http://www.w3.org/2000/svg">
<rect width="80" height="60" rx="30" fill="#08DBBA"/>
<g clip-path="url(#clip0_8682_23057)">
<path d="M58.8281 10.3125C59.3027 10.3125 59.6875 10.6973 59.6875 11.1719V41.7188C59.6875 42.1934 59.3027 42.5781 58.8281 42.5781H45.5469V47.9688H49.3711C49.8457 47.9688 50.2305 48.3535 50.2305 48.8281C50.2305 49.3027 49.8457 49.6875 49.3711 49.6875H30.6289C30.1543 49.6875 29.7695 49.3027 29.7695 48.8281C29.7695 48.3535 30.1543 47.9688 30.6289 47.9688H34.4531V42.5781H21.1719C20.6973 42.5781 20.3125 42.1934 20.3125 41.7188V11.1719C20.3125 10.6973 20.6973 10.3125 21.1719 10.3125H58.8281ZM36.1719 47.9688H43.8281V42.5781H36.1719V47.9688ZM22.0312 40.8594H57.9688V12.0312H22.0312V40.8594ZM25.9414 37.8867C25.4668 37.8867 25.082 37.502 25.082 37.0273V29.9961C25.082 29.5215 25.4668 29.1367 25.9414 29.1367H37.6602C38.1348 29.1367 38.5195 29.5215 38.5195 29.9961V37.0273C38.5195 37.502 38.1348 37.8867 37.6602 37.8867H25.9414ZM54.0664 29.1367C54.541 29.1367 54.9258 29.5215 54.9258 29.9961V37.0273C54.9258 37.502 54.541 37.8867 54.0664 37.8867H42.3477C41.873 37.8867 41.4883 37.502 41.4883 37.0273V29.9961C41.4883 29.5215 41.873 29.1367 42.3477 29.1367H54.0664ZM36.8008 30.8555H26.8008V36.168H36.8008V30.8555ZM43.207 36.168H53.207V30.8555H43.207V36.168ZM47.0352 26.1719C46.5605 26.1719 46.1758 25.7871 46.1758 25.3125C46.1758 24.8379 46.5605 24.4531 47.0352 24.4531H54.0664C54.541 24.4531 54.9258 24.8379 54.9258 25.3125C54.9258 25.7871 54.541 26.1719 54.0664 26.1719H47.0352ZM25.9414 26.1719C25.4668 26.1719 25.082 25.7871 25.082 25.3125V15.9375C25.082 15.4629 25.4668 15.0781 25.9414 15.0781H42.3398C42.8145 15.0781 43.1992 15.4629 43.1992 15.9375V25.3125C43.1992 25.7871 42.8145 26.1719 42.3398 26.1719H25.9414ZM41.4805 16.7969H26.8008V24.4531H41.4805V16.7969ZM47.0352 21.4844C46.5605 21.4844 46.1758 21.0996 46.1758 20.625C46.1758 20.1504 46.5605 19.7656 47.0352 19.7656H54.0664C54.541 19.7656 54.9258 20.1504 54.9258 20.625C54.9258 21.0996 54.541 21.4844 54.0664 21.4844H47.0352ZM47.0352 16.7969C46.5605 16.7969 46.1758 16.4121 46.1758 15.9375C46.1758 15.4629 46.5605 15.0781 47.0352 15.0781H54.0586C54.5332 15.0781 54.918 15.4629 54.918 15.9375C54.918 16.4121 54.5332 16.7969 54.0586 16.7969H47.0352Z" fill="#202020"/>
</g>
<defs>
<clipPath id="clip0_8682_23057">
<rect width="40" height="40" fill="white" transform="translate(20 10)"/>
</clipPath>
</defs>
</svg>
