<svg width="80" height="60" viewBox="0 0 80 60" fill="none" xmlns="http://www.w3.org/2000/svg">
<rect width="80" height="60" rx="30" fill="#202020"/>
<path d="M40 18.3018C40 15.1407 42.5626 12.5781 45.7237 12.5781C48.147 12.5781 50.2087 14.0859 51.0437 16.213C52.0702 16.0143 53.1641 16.3143 53.9591 17.1093C54.7291 17.8794 55.033 18.9392 54.8706 19.9379C57.1581 20.1025 58.9627 22.0105 58.9627 24.34C58.9627 25.9275 58.1246 27.3192 56.8667 28.0969C58.256 29.252 59.1406 30.9934 59.1406 32.9416C59.1406 35.0087 58.1443 36.8434 56.6062 37.9916C57.0527 39.0969 57.0602 40.3768 56.5236 41.5455C55.6679 43.4094 53.6958 44.407 51.7647 44.1095C50.7133 46.08 48.6385 47.4219 46.2491 47.4219C42.7978 47.4219 40 44.6241 40 41.1727" stroke="#06CEAF" stroke-width="1.5" stroke-miterlimit="10" stroke-linejoin="round"/>
<path d="M49.3807 30H40.0117" stroke="#06CEAF" stroke-width="1.5" stroke-miterlimit="10" stroke-linejoin="round"/>
<path d="M47.5682 22.3516H45.0398L43.1965 24.3047H40" stroke="#06CEAF" stroke-width="1.5" stroke-miterlimit="10" stroke-linejoin="round"/>
<path d="M47.5682 37.6484H45.0398L43.1965 35.6953H40" stroke="#06CEAF" stroke-width="1.5" stroke-miterlimit="10" stroke-linejoin="round"/>
<path d="M51.5664 32.1875C50.3583 32.1875 49.3789 31.2081 49.3789 30C49.3789 28.7919 50.3583 27.8125 51.5664 27.8125C52.7745 27.8125 53.7539 28.7919 53.7539 30C53.7539 31.2081 52.7745 32.1875 51.5664 32.1875Z" stroke="#06CEAF" stroke-width="1.5" stroke-miterlimit="10" stroke-linejoin="round"/>
<path d="M49.7539 20.1641C48.5458 20.1641 47.5664 21.1434 47.5664 22.3516C47.5664 23.5597 48.5458 24.5391 49.7539 24.5391C50.962 24.5391 51.9414 23.5597 51.9414 22.3516C51.9414 21.1434 50.962 20.1641 49.7539 20.1641Z" stroke="#06CEAF" stroke-width="1.5" stroke-miterlimit="10" stroke-linejoin="round"/>
<path d="M49.7539 39.8359C48.5458 39.8359 47.5664 38.8566 47.5664 37.6484C47.5664 36.4403 48.5458 35.4609 49.7539 35.4609C50.962 35.4609 51.9414 36.4403 51.9414 37.6484C51.9414 38.8566 50.962 39.8359 49.7539 39.8359Z" stroke="#06CEAF" stroke-width="1.5" stroke-miterlimit="10" stroke-linejoin="round"/>
<path d="M28.2344 44.1095C29.2857 46.08 31.3605 47.4219 33.7498 47.4219C37.2012 47.4219 39.999 44.6241 39.999 41.1727V18.3018C39.999 15.1407 37.4364 12.5781 34.2753 12.5781C31.852 12.5781 29.7805 14.0841 28.9455 16.2112" stroke="#06CEAF" stroke-width="1.5" stroke-miterlimit="10" stroke-linejoin="round"/>
<path d="M24.2969 27.3301C22.2565 28.3721 20.8594 30.4941 20.8594 32.9424C20.8594 35.0095 21.8552 36.8441 23.3934 37.9923" stroke="#06CEAF" stroke-width="1.5" stroke-miterlimit="10" stroke-linecap="round" stroke-linejoin="round"/>
<path d="M24.297 36.5859C23.0742 37.8768 22.6894 39.8305 23.4767 41.5454C24.5106 43.7973 27.1743 44.7848 29.4263 43.7509" stroke="#06CEAF" stroke-width="1.5" stroke-miterlimit="10" stroke-linecap="round" stroke-linejoin="round"/>
<path d="M30.6491 17.1083C29.377 15.8363 27.3148 15.8363 26.0427 17.1083C25.2727 17.8784 24.9688 18.9382 25.1312 19.9369C22.8437 20.1015 21.0391 22.0095 21.0391 24.339C21.0391 25.9265 21.8772 27.3183 23.1352 28.0959" stroke="#06CEAF" stroke-width="1.5" stroke-miterlimit="10" stroke-linecap="round" stroke-linejoin="round"/>
<path d="M35.9766 22.2651C38.1984 22.2651 39.9995 20.464 39.9995 18.2422" stroke="#06CEAF" stroke-width="1.5" stroke-miterlimit="10" stroke-linecap="round" stroke-linejoin="round"/>
<path d="M35.3164 33.0098C37.9027 33.0098 39.9991 35.1063 39.9991 37.6925" stroke="#06CEAF" stroke-width="1.5" stroke-miterlimit="10" stroke-linecap="round" stroke-linejoin="round"/>
</svg>
