<svg width="55" height="55" viewBox="0 0 55 55" fill="none" xmlns="http://www.w3.org/2000/svg">
<g id="calendar 2" clip-path="url(#clip0_5038_2859)">
<g id="Group">
<path id="Vector" d="M47.9102 4.29688H42.9688V1.71875C42.9688 0.76957 42.1993 0 41.25 0C40.3007 0 39.5312 0.76957 39.5312 1.71875V4.29688H15.4688V1.71875C15.4688 0.76957 14.6993 0 13.75 0C12.8007 0 12.0312 0.76957 12.0312 1.71875V4.29688H7.08984C3.18044 4.29688 0 7.47731 0 11.3867V47.9102C0 51.8196 3.18044 55 7.08984 55H47.9102C51.8196 55 55 51.8196 55 47.9102V11.3867C55 7.47731 51.8196 4.29688 47.9102 4.29688ZM6.30469 6.5625H12.1836V8.28125C12.1836 9.23043 12.9531 10 13.9023 10C14.8516 10 15.6211 9.23043 15.6211 8.28125V6.5625H39.6836V8.28125C39.6836 9.23043 40.4531 10 41.4023 10C42.3516 10 43.1211 9.23043 43.1211 8.28125V6.5625H49C51.0139 6.5625 52.5 9.37277 52.5 11.3867V15.5H2.5V11.3867C2.5 9.37277 4.29074 6.5625 6.30469 6.5625ZM49 52.5H6.5C4.48605 52.5 2.5 49.9241 2.5 47.9102V18H52.5L52.6523 48.8477C52.6523 50.8616 51.0139 52.5 49 52.5Z" fill="#06CEAF"/>
<path id="Vector_2" fill-rule="evenodd" clip-rule="evenodd" d="M12.6737 24.1119H24.6124C26.2046 24.1119 27.4952 25.4026 27.4952 26.9947V33.942C27.4952 34.6799 28.0933 35.2779 28.8312 35.2779H42.4387C44.0309 35.2779 45.3215 36.5686 45.3215 38.1607V41.7715C46.5414 42.1095 47.4375 43.2274 47.4375 44.5522C47.4375 46.1442 46.1432 47.4375 44.5481 47.4375C42.953 47.4375 41.6587 46.1442 41.6587 44.5522C41.6587 43.2274 42.5548 42.1095 43.7746 41.7715V38.1607C43.7746 37.4229 43.1766 36.8248 42.4387 36.8248H28.8312C27.239 36.8248 25.9484 35.5341 25.9484 33.942V26.9947C25.9484 26.2569 25.3503 25.6588 24.6124 25.6588H12.6737C12.335 26.8759 11.2162 27.7707 9.88942 27.7707C8.29431 27.7707 7 26.4774 7 24.8853C7 23.2933 8.29431 22 9.88942 22C11.2162 22 12.335 22.8948 12.6737 24.1119ZM44.5481 43.2137C43.8075 43.2137 43.2055 43.813 43.2055 44.5522C43.2055 45.2913 43.8075 45.8906 44.5481 45.8906C45.2886 45.8906 45.8906 45.2913 45.8906 44.5522C45.8906 43.813 45.2886 43.2137 44.5481 43.2137ZM11.2319 24.8909V24.8853V24.8798C11.2289 24.1432 10.6281 23.5469 9.88942 23.5469C9.14889 23.5469 8.54688 24.1462 8.54688 24.8853C8.54688 25.6245 9.14889 26.2238 9.88942 26.2238C10.6281 26.2238 11.2289 25.6275 11.2319 24.8909Z" fill="#06CEAF"/>
</g>
</g>
<defs>
<clipPath id="clip0_5038_2859">
<rect width="55" height="55" fill="white"/>
</clipPath>
</defs>
</svg>
