<svg width="55" height="55" viewBox="0 0 55 55" fill="none" xmlns="http://www.w3.org/2000/svg">
<g id="chat 1" clip-path="url(#clip0_5046_2960)">
<g id="Group">
<path id="Vector" fill-rule="evenodd" clip-rule="evenodd" d="M26.538 15.3085C32.8113 17.209 37.7623 22.152 39.6741 28.4205L39.7935 28.4525C42.7746 28.6632 45.7839 27.8784 48.1814 26.3916C49.706 26.8006 51.2304 27.2096 52.7551 27.6182C53.5688 27.8478 54.3481 27.1033 54.1252 26.2664C53.7151 24.736 53.3049 23.2071 52.8947 21.678C58.7104 12.4103 51.7745 -0.106312 40.7477 0.00661815C32.563 -0.0252642 25.9881 6.99573 26.538 15.1576V15.3085Z" fill="#06CEAF"/>
<g id="Group_2">
<path id="Vector_2" d="M20.8125 13.3903C5.0126 13.1908 -5.27188 31.1009 2.83944 44.6312C2.31054 46.6021 1.78174 48.5732 1.25284 50.5472C1.00884 51.4631 1.26604 52.4071 1.94105 53.0722C2.60693 53.7284 3.57532 53.9805 4.47092 53.7307C6.43399 53.2047 8.39643 52.6781 10.3593 52.1516C23.8934 60.2646 41.8008 49.9777 41.6011 34.1789C41.6012 22.7162 32.2755 13.3903 20.8125 13.3903ZM20.8125 52.8211C17.3683 52.8211 14.0031 51.8739 11.0812 50.0818C10.9108 49.9772 10.7163 49.9233 10.52 49.9233C8.29734 50.4142 6.10691 51.1035 3.89564 51.6621C3.52755 51.7523 3.24297 51.438 3.32713 51.1015C3.89489 48.9825 4.46287 46.8657 5.03085 44.7486C5.10717 44.4639 5.06327 44.1605 4.90912 43.9092C-2.73439 31.7919 6.46545 15.351 20.8127 15.5375C45.5065 16.4745 45.5061 51.8855 20.8125 52.8211Z" fill="#06CEAF"/>
<path id="Vector_3" d="M30.2188 30.4004H11.4609C10.8678 30.4004 10.3867 30.8814 10.3867 31.4746C10.3867 32.0678 10.8678 32.5488 11.4609 32.5488H30.2188C30.8119 32.5488 31.293 32.0678 31.293 31.4746C31.293 30.8814 30.8119 30.4004 30.2188 30.4004Z" fill="#06CEAF"/>
<path id="Vector_4" d="M20.6992 36.7715H11.4609C10.8678 36.7715 10.3867 37.2525 10.3867 37.8457C10.3867 38.4389 10.8678 38.9199 11.4609 38.9199H20.6992C21.2924 38.9199 21.7734 38.4389 21.7734 37.8457C21.7734 37.2525 21.2924 36.7715 20.6992 36.7715Z" fill="#06CEAF"/>
<path id="Vector_5" d="M35.2712 15.318C35.864 15.318 36.3447 14.8373 36.3447 14.2445C36.2921 12.822 34.2494 12.8223 34.1973 14.2445C34.1973 14.8374 34.6783 15.318 35.2712 15.318Z" fill="#010302"/>
<path id="Vector_6" d="M40.7477 13.1719C40.1546 13.1714 39.6738 13.6523 39.6738 14.2454C39.7266 15.6674 41.7687 15.6676 41.8212 14.2454C41.8212 13.6526 41.3406 13.1719 40.7477 13.1719Z" fill="#010302"/>
<path id="Vector_7" d="M46.2243 13.1719C45.6312 13.1713 45.1504 13.6523 45.1504 14.2454C45.2032 15.6674 47.2453 15.6676 47.2978 14.2454C47.2978 13.6526 46.8171 13.1719 46.2243 13.1719Z" fill="#010302"/>
</g>
</g>
</g>
<defs>
<clipPath id="clip0_5046_2960">
<rect width="55" height="55" fill="white"/>
</clipPath>
</defs>
</svg>
