<svg width="40" height="60" viewBox="0 0 40 60" fill="none" xmlns="http://www.w3.org/2000/svg">
<mask id="mask0_7940_4569" style="mask-type:luminance" maskUnits="userSpaceOnUse" x="0" y="10" width="40" height="40">
<path d="M0 10H40V50H0V10Z" fill="white"/>
</mask>
<g mask="url(#mask0_7940_4569)">
<path d="M10.5 20.375C6.14306 22.7709 3.17188 27.3879 3.17188 32.6904C3.17188 40.4569 9.54602 46.831 17.3125 46.831C22.4096 46.831 26.8733 44.0856 29.3396 40.0029C25 42.002 17.5 42.502 12.5 37.002C6.29826 30.18 9 22.502 10.5 20.375Z" fill="#08DBBA" stroke="#08DBBA" stroke-width="2" stroke-miterlimit="10" stroke-linecap="round" stroke-linejoin="round"/>
<path d="M36.8281 27.3125C36.8281 19.546 30.454 13.1719 22.6875 13.1719C14.921 13.1719 8.625 19.546 8.625 27.3125C8.625 35.079 14.921 41.375 22.6875 41.375C30.454 41.375 36.8281 35.079 36.8281 27.3125Z" stroke="#08DBBA" stroke-width="2" stroke-miterlimit="10" stroke-linecap="round" stroke-linejoin="round"/>
</g>
</svg>
