<svg width="90" height="70" viewBox="0 0 90 70" fill="none" xmlns="http://www.w3.org/2000/svg">
<g clip-path="url(#clip0_5849_3984)">
<path d="M29.3203 49.0004H71.6743V37.2804L63.6283 32.6664L62.2403 32.0664L29.3203 32.2924V49.0004Z" fill="#F3FEFC"/>
<path d="M57.024 47.4445C57.418 46.0945 57.268 44.8565 56.612 43.9365C56.012 43.0925 54.998 42.6045 53.78 42.5485L30.69 42.2485C30.54 42.2485 30.41 42.1725 30.334 42.0605C30.258 41.9485 30.24 41.8005 30.278 41.6485C30.354 41.4225 30.578 41.2545 30.822 41.2365L54.118 40.9365C56.878 40.8045 59.878 38.5725 60.926 35.8365L62.258 32.3665C62.3167 32.224 62.3306 32.0671 62.298 31.9165C60.798 25.1265 54.738 20.0625 47.498 20.0625C40.818 20.0625 35.158 24.3765 33.13 30.3625C31.816 29.3865 30.13 28.8625 28.346 29.0305C25.138 29.3505 22.546 31.9185 22.25 35.1265C22.1723 35.9243 22.2291 36.7295 22.418 37.5085C19.8943 37.5768 17.4972 38.6284 15.7378 40.439C13.9784 42.2496 12.996 44.6759 13 47.2005C13 47.6685 13.04 48.1405 13.094 48.6065C13.134 48.8325 13.32 49.0005 13.544 49.0005H56.16C56.2826 48.9981 56.4013 48.957 56.499 48.883C56.5968 48.8089 56.6685 48.7059 56.704 48.5885L57.024 47.4445Z" fill="#202020"/>
<path d="M64.3751 32.6055L63.7351 32.6255C63.5851 32.6255 63.4551 32.7375 63.3951 32.8855L62.4951 36.0175C62.1011 37.3675 62.2511 38.6055 62.9071 39.5255C63.5071 40.3695 64.5211 40.8575 65.7391 40.9135L70.6531 41.2135C70.8031 41.2135 70.9331 41.2895 71.0091 41.4015C71.0851 41.5135 71.1031 41.6815 71.0651 41.8135C70.9891 42.0395 70.7651 42.2075 70.5211 42.2255L65.4011 42.5255C62.6251 42.6575 59.6411 44.8895 58.5931 47.6255L58.2171 48.5815C58.1411 48.7695 58.2731 48.9575 58.4771 48.9575H76.0711C76.1729 48.9589 76.2723 48.9265 76.3538 48.8653C76.4352 48.8041 76.494 48.7177 76.5211 48.6195C76.8328 47.5101 76.9936 46.3638 76.9991 45.2115C76.9895 41.8681 75.6558 38.6648 73.2898 36.3025C70.9239 33.9403 67.7184 32.6097 64.3751 32.6055Z" fill="#424242"/>
</g>
<defs>
<clipPath id="clip0_5849_3984">
<rect width="64" height="64" fill="white" transform="translate(13 3)"/>
</clipPath>
</defs>
</svg>
