<svg width="70" height="50" viewBox="0 0 70 50" fill="none" xmlns="http://www.w3.org/2000/svg">
<g clip-path="url(#clip0_2191_2)">
<path d="M45 0H25C11.1929 0 0 11.1929 0 25C0 38.8071 11.1929 50 25 50H45C58.8071 50 70 38.8071 70 25C70 11.1929 58.8071 0 45 0Z" fill="#F3FEFC"/>
<path d="M45 0H25C11.1929 0 0 11.1929 0 25C0 38.8071 11.1929 50 25 50H45C58.8071 50 70 38.8071 70 25C70 11.1929 58.8071 0 45 0Z" fill="black" fill-opacity="0.06"/>
<g clip-path="url(#clip1_2191_2)">
<path d="M47.3495 29.5565C48.291 29.5565 49.0542 28.7798 49.0542 27.8217C49.0542 26.8636 48.291 26.087 47.3495 26.087C46.408 26.087 45.6448 26.8636 45.6448 27.8217C45.6448 28.7798 46.408 29.5565 47.3495 29.5565Z" fill="#E62415"/>
<path d="M22.5351 18H24.791V32.8043H22.5351V18ZM33.0069 28.2391C33.0069 30.5348 31.1612 30.7174 30.5972 30.7174C29.1873 30.7174 28.9823 29.3739 28.9823 28.5652V22.8391H26.7136V28.5522C26.7008 29.9739 27.0981 31.1478 27.8671 31.9304C28.5656 32.564 29.4554 32.9364 30.3897 32.9862C31.3241 33.036 32.2473 32.7602 33.0069 32.2043V32.8043H35.2756V22.8391H33.0069V28.2391ZM40.1718 19.487H37.9031V22.8391H36.3266V25.0174H37.9031V32.8043H40.1718V25.0174H42.0303V22.8391H40.1718V19.487ZM49.3747 29.9739C48.862 30.4435 48.1826 30.7043 47.4392 30.7043C47.0616 30.7152 46.6857 30.6473 46.3348 30.5049C45.9839 30.3624 45.6654 30.1483 45.3988 29.8758C45.1322 29.6033 44.9233 29.2782 44.7849 28.9205C44.6464 28.5627 44.5814 28.1799 44.5938 27.7957C44.5938 26.113 45.7602 24.9391 47.4392 24.9391C48.1698 24.9391 48.862 25.187 49.3875 25.6565L49.7464 25.9696L51.3357 24.3522L50.9384 23.987C49.9759 23.1133 48.7289 22.6346 47.4392 22.6435C44.4912 22.6435 42.3508 24.8087 42.3508 27.7826C42.3351 28.4682 42.4558 29.1499 42.7057 29.7869C42.9555 30.4238 43.3293 31.0027 43.8046 31.4888C44.28 31.975 44.847 32.3583 45.4716 32.6157C46.0962 32.8732 46.7655 32.9995 47.4392 32.987C48.7851 32.987 50.0412 32.5043 50.964 31.6304L51.3485 31.2652L49.7335 29.6478L49.3747 29.9739ZM59.8464 23.713C59.148 23.0795 58.2582 22.7071 57.3238 22.6573C56.3895 22.6075 55.4663 22.8833 54.7067 23.4391V18H52.438V32.8043H54.7067V27.4174C54.7067 25.1217 56.5524 24.9391 57.1163 24.9391C58.5263 24.9391 58.7313 26.2826 58.7313 27.0913V32.8174H61V27.0913C61.0684 25.8545 60.6538 24.6402 59.8464 23.713ZM19.1898 29.2565C18.7484 29.7179 18.2201 30.084 17.6365 30.3327C17.0529 30.5815 16.4259 30.7079 15.7932 30.7043C13.1656 30.7043 11.2559 28.6043 11.2559 25.7217C11.2559 22.8261 13.1656 20.7261 15.7932 20.7261C17.0621 20.7261 18.2669 21.2348 19.177 22.1609L19.5359 22.5261L21.1124 20.9217L20.7663 20.5565C20.116 19.8834 19.3397 19.3496 18.4834 18.9867C17.6271 18.6238 16.708 18.4391 15.7804 18.4435C11.9224 18.4435 9 21.5739 9 25.7348C9 29.8696 11.9224 33 15.7804 33C17.6902 33 19.459 32.2435 20.7663 30.8739L21.1124 30.5087L19.5487 28.8783L19.1898 29.2565Z" fill="#17313B"/>
</g>
</g>
<defs>
<clipPath id="clip0_2191_2">
<rect width="70" height="50" fill="white"/>
</clipPath>
<clipPath id="clip1_2191_2">
<rect width="52" height="15" fill="white" transform="translate(9 18)"/>
</clipPath>
</defs>
</svg>
