<svg width="55" height="55" viewBox="0 0 55 55" fill="none" xmlns="http://www.w3.org/2000/svg">
<g id="Frame 439">
<path id="Vector" d="M11.1934 25C11.5415 24.6217 11.9101 24.255 12.2986 23.9005C15.7408 20.7411 20.3339 19.0039 25.2408 19.0039H28.7249C34.2402 19.0039 39.3523 21.2608 42.7736 25C41.8 25 41.25 25 39.9054 25C36.9496 22.432 32.9766 20.9225 28.7353 20.9225H25.2513C20.9093 20.9225 16.8393 22.4592 13.7843 25.2559C13.0657 25.2559 11.55 25 11.1934 25Z" fill="#06CEAF"/>
<path id="Vector_2" d="M26.9687 20.5315C20.7644 20.5315 15.7109 15.9212 15.7109 10.261C15.7109 4.60073 20.7644 0 26.9687 0C33.173 0 38.2265 4.61028 38.2265 10.2705C38.2265 15.9308 33.173 20.5315 26.9687 20.5315ZM26.9687 1.90902C21.9153 1.90902 17.8035 5.66024 17.8035 10.2705C17.8035 14.8808 21.9153 18.632 26.9687 18.632C32.0221 18.632 36.1339 14.8808 36.1339 10.2705C36.1339 5.65069 32.0221 1.90902 26.9687 1.90902Z" fill="#06CEAF"/>
<path id="Vector_3" d="M47.9139 49.9993H7.08885C4.49412 49.9993 2.29698 48.1571 2.08772 45.7995L0.0161271 27.6924C-0.088499 26.5852 0.319543 25.4971 1.13563 24.6953C1.94125 23.8935 3.09213 23.4258 4.29533 23.4258H50.7075C51.9002 23.4258 53.0511 23.8839 53.8672 24.6953C54.6728 25.4971 55.0808 26.5852 54.9867 27.6733L52.9255 45.8281C52.7058 48.1571 50.5087 49.9993 47.9139 49.9993ZM4.29533 25.3348C3.67804 25.3348 3.1026 25.5639 2.67363 25.9839C2.25513 26.4038 2.04587 26.9384 2.09819 27.5111L4.16978 45.6277C4.29533 47.0212 5.58223 48.0903 7.08885 48.0903H47.9244C49.431 48.0903 50.7179 47.0117 50.8435 45.6467L52.9046 27.492C52.9569 26.9479 52.7477 26.4038 52.3292 25.9839C51.9107 25.5639 51.3352 25.3348 50.7075 25.3348H4.29533Z" fill="#06CEAF"/>
<path id="Vector_4" d="M34.2005 31.4905C34.2005 31.4803 34.2005 31.4692 34.2005 31.4571C34.5285 31.0554 35.1849 30.9724 35.7316 31.2618C35.7316 31.2628 41.8542 35.9888 41.8542 35.9888C41.8542 35.9958 41.8542 36.0029 41.8542 36.009C42.1822 36.2058 42.292 36.5058 42.292 36.8002C42.292 37.1088 42.0729 37.4088 41.8542 37.6177C41.7995 37.6207 35.7316 42.3542 35.7316 42.3542C35.7316 42.3608 35.6761 42.3679 35.6761 42.375C35.6761 42.4048 35.621 42.4281 35.5117 42.4529C35.4023 42.5045 35.2379 42.544 35.0739 42.544C34.7459 42.544 34.4191 42.3193 34.2005 42.1099C33.7631 41.7138 33.872 41.1245 34.3094 40.7248C34.3094 40.7228 39.1207 37.044 39.1207 37.044C39.2301 36.9843 39.2851 36.8948 39.2851 36.8002C39.2851 36.7056 39.2301 36.616 39.1207 36.5563L34.3094 32.8675C34.3094 32.8644 34.3094 32.8614 34.3094 32.8584C33.872 32.566 33.7631 31.8815 34.2005 31.4905Z" fill="#06CEAF"/>
<path id="Vector_5" d="M20.9271 31.4638C21.3644 31.8639 21.2551 32.4592 20.9271 32.8684L16.1157 36.5417C16.0611 36.6016 16.0068 36.6913 16.0068 36.7862C16.0068 36.881 16.0611 36.9707 16.1157 37.0306L20.9826 40.7282C20.9826 40.7313 20.9826 40.7343 20.9826 40.7369C21.4199 41.0315 21.5288 41.7165 21.0915 42.1085C21.0915 42.1232 21.0906 42.1395 21.036 42.1567C20.8173 42.4533 20.5439 42.5436 20.2159 42.5436C19.9973 42.5436 19.779 42.5598 19.5603 42.3722C19.5603 42.3656 19.5603 42.3595 19.5603 42.3534L13.4378 37.5995C13.4378 37.5924 13.4378 37.5853 13.4378 37.5792C13.1098 37.382 13 37.0828 13 36.7862C13 36.6305 13.0009 36.4738 13.0555 36.3435C13.1102 36.2578 13.1632 36.1807 13.2178 36.1467C13.2725 36.1356 13.2733 36.1219 13.2733 36.1056L19.3959 31.3517C19.4506 31.3461 19.4514 31.3396 19.4514 31.333C19.8888 30.9319 20.5444 31.0632 20.9271 31.4638Z" fill="#06CEAF"/>
<path id="Vector_6" d="M31.1971 31.2289C31.1971 31.2375 31.2531 31.2451 31.2531 31.2512C31.8268 31.4503 31.9985 32.0548 31.6543 32.6526V32.6603L25.6888 42.0339C25.4593 42.3377 24.9999 42.5439 24.6557 42.5439C24.4262 42.5439 24.3114 42.5485 24.082 42.453C23.5083 42.1442 23.2783 41.5448 23.6226 41.0424C23.6226 41.0394 23.6226 41.0368 23.6226 41.0343L29.5903 31.6459C29.9345 31.1415 30.6234 30.9261 31.1971 31.2289Z" fill="#06CEAF"/>
</g>
</svg>
