<svg width="60" height="60" viewBox="0 0 60 60" fill="none" xmlns="http://www.w3.org/2000/svg">
<rect width="60" height="60" fill="url(#paint0_linear_4676_3178)"/>
<path d="M36.2471 18.7534C35.9319 18.4382 35.4592 18.517 35.144 18.8322C34.8288 19.1473 34.9076 19.6201 35.2228 19.9353L39.714 23.8749L35.2228 27.8146C34.9076 28.1297 34.8288 28.6025 35.144 28.9177C35.3016 29.0753 35.538 29.154 35.7743 29.154C35.9319 29.154 36.1683 29.0753 36.3259 28.9965L41.5262 24.5053C41.6838 24.3477 41.7626 24.1113 41.7626 23.8749C41.7626 23.6385 41.6838 23.4022 41.5262 23.2446L36.2471 18.7534Z" fill="#06CEAF"/>
<path d="M24.8992 18.8322C24.584 18.517 24.1113 18.4382 23.7961 18.7534L18.5958 23.2446C18.4382 23.4022 18.3594 23.6385 18.3594 23.8749C18.3594 24.1113 18.4382 24.3477 18.5958 24.5053L23.7961 28.9965C23.9537 29.154 24.1113 29.154 24.3476 29.154C24.584 29.154 24.8204 29.0753 24.978 28.9177C25.2932 28.6025 25.2144 28.1297 24.8992 27.8146L20.408 23.8749L24.8992 19.9353C25.1356 19.6201 25.2144 19.1473 24.8992 18.8322Z" fill="#06CEAF"/>
<path d="M32.8571 18.6755C32.4632 18.4391 31.9904 18.5967 31.754 18.9907L26.8689 27.9731C26.6325 28.367 26.7901 28.8398 27.184 29.0762C27.578 29.2338 27.972 29.155 28.2871 28.761L33.1723 19.6998C33.3299 19.3059 33.2511 18.8331 32.8571 18.6755Z" fill="#06CEAF"/>
<path d="M48.8532 43.1801L45.7802 35.6159V11.8993C45.7802 11.4265 45.4651 11.1113 44.9923 11.1113H14.9722C14.4994 11.1113 14.1843 11.4265 14.1843 11.8993V35.6159L11.1113 43.2589V45.7802C11.1113 47.5137 12.4508 48.9319 14.1055 48.9319H45.859C47.5137 48.9319 48.8532 47.5137 48.8532 45.7802V43.574C48.932 43.4952 48.932 43.3377 48.8532 43.1801ZM15.7601 12.6872H44.2044V34.9856H15.7601V12.6872ZM15.5237 36.5615H44.5195L46.9621 42.7861H13.0812L15.5237 36.5615ZM47.3561 45.7802C47.3561 46.647 46.7257 47.3561 45.9378 47.3561H14.1055C13.3175 47.3561 12.6872 46.647 12.6872 45.7802V44.362H47.3561V45.7802Z" fill="#06CEAF"/>
<path d="M32.1482 39.3184H27.8934C27.4206 39.3184 27.1055 39.6335 27.1055 40.1063C27.1055 40.579 27.4206 40.8942 27.8934 40.8942H32.1482C32.621 40.8942 32.9361 40.579 32.9361 40.1063C32.9361 39.6335 32.621 39.3184 32.1482 39.3184Z" fill="#06CEAF"/>
<defs>
<linearGradient id="paint0_linear_4676_3178" x1="30" y1="0" x2="30" y2="60" gradientUnits="userSpaceOnUse">
<stop stop-color="#ECF6F4"/>
<stop offset="1" stop-color="#ECF6F4" stop-opacity="0"/>
</linearGradient>
</defs>
</svg>
