<svg width="80" height="60" viewBox="0 0 80 60" fill="none" xmlns="http://www.w3.org/2000/svg">
<rect width="80" height="60" rx="30" fill="#F3FEFC"/>
<rect width="80" height="60" rx="30" fill="black" fill-opacity="0.06"/>
<path d="M46.2471 18.7534C45.9319 18.4382 45.4592 18.517 45.144 18.8322C44.8288 19.1473 44.9076 19.6201 45.2228 19.9353L49.714 23.8749L45.2228 27.8146C44.9076 28.1297 44.8288 28.6025 45.144 28.9177C45.3016 29.0753 45.538 29.154 45.7743 29.154C45.9319 29.154 46.1683 29.0753 46.3259 28.9965L51.5262 24.5053C51.6838 24.3477 51.7626 24.1113 51.7626 23.8749C51.7626 23.6385 51.6838 23.4022 51.5262 23.2446L46.2471 18.7534Z" fill="#202020"/>
<path d="M34.8992 18.8322C34.584 18.517 34.1113 18.4382 33.7961 18.7534L28.5958 23.2446C28.4382 23.4022 28.3594 23.6385 28.3594 23.8749C28.3594 24.1113 28.4382 24.3477 28.5958 24.5053L33.7961 28.9965C33.9537 29.154 34.1113 29.154 34.3476 29.154C34.584 29.154 34.8204 29.0753 34.978 28.9177C35.2932 28.6025 35.2144 28.1297 34.8992 27.8146L30.408 23.8749L34.8992 19.9353C35.1356 19.6201 35.2144 19.1473 34.8992 18.8322Z" fill="#202020"/>
<path d="M42.8571 18.6755C42.4632 18.4391 41.9904 18.5967 41.754 18.9907L36.8689 27.9731C36.6325 28.367 36.7901 28.8398 37.184 29.0762C37.578 29.2338 37.972 29.155 38.2871 28.761L43.1723 19.6998C43.3299 19.3059 43.2511 18.8331 42.8571 18.6755Z" fill="#202020"/>
<path d="M58.8532 43.1801L55.7802 35.6159V11.8993C55.7802 11.4265 55.4651 11.1113 54.9923 11.1113H24.9722C24.4994 11.1113 24.1843 11.4265 24.1843 11.8993V35.6159L21.1113 43.2589V45.7802C21.1113 47.5137 22.4508 48.9319 24.1055 48.9319H55.859C57.5137 48.9319 58.8532 47.5137 58.8532 45.7802V43.574C58.932 43.4952 58.932 43.3377 58.8532 43.1801ZM25.7601 12.6872H54.2044V34.9856H25.7601V12.6872ZM25.5237 36.5615H54.5195L56.9621 42.7861H23.0812L25.5237 36.5615ZM57.3561 45.7802C57.3561 46.647 56.7257 47.3561 55.9378 47.3561H24.1055C23.3175 47.3561 22.6872 46.647 22.6872 45.7802V44.362H57.3561V45.7802Z" fill="#202020"/>
<path d="M42.1482 39.3184H37.8934C37.4206 39.3184 37.1055 39.6335 37.1055 40.1063C37.1055 40.579 37.4206 40.8942 37.8934 40.8942H42.1482C42.621 40.8942 42.9361 40.579 42.9361 40.1063C42.9361 39.6335 42.621 39.3184 42.1482 39.3184Z" fill="#202020"/>
</svg>
