<svg width="60" height="60" viewBox="0 0 60 60" fill="none" xmlns="http://www.w3.org/2000/svg">
<rect width="60" height="60" fill="url(#paint0_linear_5212_4005)"/>
<path d="M13.7593 11.875C12.2078 11.875 11.3973 12.6989 11.0096 13.4742C10.622 14.2495 10.627 15.0086 10.627 15.0086V37.5404C10.627 37.5404 10.6221 38.2995 11.0096 39.0747C11.3973 39.85 12.2017 40.6727 13.7593 40.6727H22.7726V39.4208H13.7593C12.8367 39.4208 12.3667 38.9915 12.1283 38.5148C11.89 38.0381 11.8789 37.5404 11.8789 37.5404V15.0086C11.8789 15.0086 11.8899 14.5108 12.1283 14.0342C12.3667 13.5575 12.7993 13.1282 13.7593 13.1282H46.3093C47.2517 13.1282 47.7019 13.5575 47.9403 14.0342C48.1786 14.5108 48.186 15.0086 48.186 15.0086V37.5404C48.186 37.5404 48.1785 38.0381 47.9403 38.5148C47.7019 38.9915 47.2548 39.4207 46.3093 39.4208H37.2923V40.6727H46.3093C47.8588 40.6727 48.6713 39.85 49.059 39.0747C49.4466 38.2995 49.438 37.5404 49.438 37.5404V15.0086C49.438 15.0086 49.4466 14.2495 49.059 13.4742C48.6713 12.6989 47.8568 11.875 46.3093 11.875H13.7593Z" fill="#06CEAF"/>
<path d="M11.252 18.752V19.9976H48.7519V18.752H11.252Z" fill="#06CEAF"/>
<path d="M14.3748 15.002C14.0313 15.0031 13.7531 15.2813 13.752 15.6248C13.7506 15.9701 14.0295 16.2511 14.3748 16.2523H15.6251C15.9722 16.2536 16.2539 15.9719 16.2526 15.6248C16.2514 15.2795 15.9704 15.0006 15.6251 15.002H14.3748Z" fill="#06CEAF"/>
<path d="M18.1248 15.002C17.7813 15.0031 17.5031 15.2813 17.502 15.6248C17.5006 15.9701 17.7795 16.2511 18.1248 16.2523H19.3751C19.7204 16.2511 19.9993 15.9701 19.998 15.6248C19.9968 15.2813 19.7186 15.0031 19.3751 15.002H18.1248Z" fill="#06CEAF"/>
<path d="M21.8775 15.002C21.5322 15.0006 21.2512 15.2795 21.25 15.6248C21.2486 15.9719 21.5304 16.2536 21.8775 16.2523H23.1278C23.4731 16.2511 23.752 15.9701 23.7506 15.6248C23.7494 15.2813 23.4713 15.0031 23.1278 15.002H21.8775Z" fill="#06CEAF"/>
<path d="M25.6801 24.0321L21.1772 25.5315C20.2828 25.8296 19.5836 26.5334 19.2855 27.4277L17.5323 32.6781C17.2179 33.6215 17.7857 34.6515 18.7504 34.8927L22.5982 35.8569L22.9027 34.6435L19.0549 33.6839C18.7784 33.6148 18.6279 33.3452 18.7181 33.0749L20.4713 27.8245C20.6453 27.3024 21.0518 26.8913 21.5739 26.7172L25.4345 25.4351C25.6377 25.8757 26.0355 26.2584 26.4644 26.5234C27.1509 26.9477 29.0346 27.1832 30.002 27.1832C31.9693 27.1832 32.853 26.9477 33.5395 26.5234C33.9672 26.2591 34.3586 25.8757 34.5703 25.4354L38.43 26.7172C38.9521 26.8913 39.3586 27.3024 39.5327 27.8245L41.2859 33.0749C41.376 33.3452 41.2255 33.6148 40.9491 33.6839L37.1012 34.6435L37.4011 35.8569L41.2536 34.8927C42.2182 34.6515 42.786 33.6215 42.4716 32.6781L40.7184 27.4277C40.4203 26.5334 39.7165 25.8296 38.8221 25.5315L34.3238 24.0321C33.9187 23.8981 33.5014 24.2005 33.5026 24.6272C33.5026 24.8873 33.3289 25.1829 32.8843 25.4577C32.4398 25.7324 31.7605 25.9329 30.002 25.9329C29.2434 25.9329 27.5641 25.7324 27.1196 25.4577C26.675 25.1829 26.5013 24.8873 26.5013 24.6272C26.5025 24.2005 26.0852 23.8981 25.6801 24.0321Z" fill="#06CEAF"/>
<path d="M22.7498 32.875C22.4045 32.8762 22.1256 33.1572 22.127 33.5025V45.3781C22.127 46.7514 23.2543 47.8787 24.6276 47.8787H35.3751C36.7484 47.8787 37.8757 46.7514 37.8757 45.3781V33.5025C37.8771 33.1572 37.5982 32.8762 37.2529 32.875C36.9058 32.8736 36.6241 33.1554 36.6254 33.5025V45.3781C36.6254 46.0758 36.0729 46.6284 35.3751 46.6284H24.6276C23.9298 46.6284 23.3773 46.0758 23.3773 45.3781V33.5025C23.3786 33.1554 23.0969 32.8736 22.7498 32.875Z" fill="#06CEAF"/>
<defs>
<linearGradient id="paint0_linear_5212_4005" x1="30" y1="0" x2="30" y2="60" gradientUnits="userSpaceOnUse">
<stop stop-color="#ECF6F4"/>
<stop offset="1" stop-color="#ECF6F4" stop-opacity="0"/>
</linearGradient>
</defs>
</svg>
