<svg width="80" height="60" viewBox="0 0 80 60" fill="none" xmlns="http://www.w3.org/2000/svg">
<rect width="80" height="60" rx="30" fill="#202020"/>
<path d="M59.3964 34C59.7297 34 60 34.2664 60 34.595C60 34.9237 59.7297 35.1901 59.3964 35.1901H41.0662L47.761 46.1898C48.0021 46.5858 47.7121 47.0909 47.2435 47.0909H32.7565C32.288 47.0909 31.9978 46.5859 32.239 46.1897L38.9338 35.1901H20.6036C20.2703 35.1901 20 34.9237 20 34.595C20 34.2664 20.2703 34 20.6036 34H59.3964ZM40 35.7516L33.8227 45.9008H46.1773L40 35.7516Z" fill="#06CEAF"/>
<path d="M26.5455 26.7276C22.9363 26.7276 20 23.7914 20 20.1822C20 16.573 22.9363 13.6367 26.5455 13.6367C30.1547 13.6367 33.0909 16.573 33.0909 20.1822C33.0909 23.7914 30.1547 26.7276 26.5455 26.7276ZM26.5455 14.8268C23.5925 14.8268 21.1901 17.2292 21.1901 20.1822C21.1901 23.1352 23.5925 25.5375 26.5455 25.5375C29.4984 25.5375 31.9008 23.1352 31.9008 20.1822C31.9008 17.2292 29.4984 14.8268 26.5455 14.8268Z" fill="#06CEAF"/>
<path d="M53.4537 26.7276C49.8445 26.7276 46.9082 23.7914 46.9082 20.1822C46.9082 16.573 49.8445 13.6367 53.4537 13.6367C57.0629 13.6367 59.9991 16.573 59.9991 20.1822C59.9991 23.7914 57.0629 26.7276 53.4537 26.7276ZM53.4537 14.8268C50.5007 14.8268 48.0983 17.2292 48.0983 20.1822C48.0983 23.1352 50.5007 25.5375 53.4537 25.5375C56.4066 25.5375 58.809 23.1352 58.809 20.1822C58.809 17.2292 56.4066 14.8268 53.4537 14.8268Z" fill="#06CEAF"/>
</svg>
