<svg width="80" height="60" viewBox="0 0 80 60" fill="none" xmlns="http://www.w3.org/2000/svg">
<rect width="80" height="60" rx="30" fill="#202020"/>
<path d="M54.9032 50H25.0961C22.286 50 20 47.7429 20 44.9683V15.0324C20 12.2579 22.286 10 25.0961 10H54.9032C57.7133 10 60 12.2579 60 15.0324V44.9683C60 47.7429 57.7133 50 54.9032 50ZM25.0961 11.5628C23.1584 11.5628 21.5821 13.1192 21.5821 15.0324V44.9683C21.5821 46.8808 23.1584 48.4372 25.0961 48.4372H54.9032C56.8409 48.4372 58.4172 46.8808 58.4172 44.9683V15.0324C58.4172 13.1192 56.8409 11.5628 54.9032 11.5628H25.0961Z" fill="#06CEAF"/>
<path d="M35.7749 29.144C34.5829 29.144 33.6509 28.812 32.9789 28.148C32.3069 27.484 31.9709 26.536 31.9709 25.304V20.6H33.9149V25.232C33.9149 26.032 34.0789 26.608 34.4069 26.96C34.7349 27.312 35.1949 27.488 35.7869 27.488C36.3789 27.488 36.8389 27.312 37.1669 26.96C37.4949 26.608 37.6589 26.032 37.6589 25.232V20.6H39.5789V25.304C39.5789 26.536 39.2429 27.484 38.5709 28.148C37.8989 28.812 36.9669 29.144 35.7749 29.144ZM40.4227 29L44.0347 24.02V25.436L40.5787 20.6H42.7867L45.1747 23.972L44.2507 23.984L46.6027 20.6H48.7147L45.2827 25.352V23.96L48.9187 29H46.6747L44.2027 25.436H45.0907L42.6547 29H40.4227ZM30.5571 42.2L34.5171 30.896H36.1851L32.2251 42.2H30.5571ZM40.3803 41.144C39.1883 41.144 38.2563 40.812 37.5843 40.148C36.9123 39.484 36.5763 38.536 36.5763 37.304V32.6H38.5203V37.232C38.5203 38.032 38.6843 38.608 39.0123 38.96C39.3403 39.312 39.8003 39.488 40.3923 39.488C40.9843 39.488 41.4443 39.312 41.7723 38.96C42.1003 38.608 42.2643 38.032 42.2643 37.232V32.6H44.1843V37.304C44.1843 38.536 43.8483 39.484 43.1763 40.148C42.5043 40.812 41.5723 41.144 40.3803 41.144ZM46.1054 41V32.6H48.0494V41H46.1054Z" fill="#06CEAF"/>
</svg>
