<svg width="238" height="238" viewBox="0 0 238 238" fill="none" xmlns="http://www.w3.org/2000/svg">
<g opacity="0.5">
<rect x="27.5" y="27.5" width="183" height="183" rx="91.5" stroke="#08DBBA"/>
</g>
<g opacity="0.2">
<rect x="4.5" y="2.5" width="229" height="229" rx="114.5" stroke="#08DBBA"/>
</g>
<g filter="url(#filter0_d_7586_14779)">
<rect x="50" y="50" width="138" height="138" rx="69" fill="#08DBBA" shape-rendering="crispEdges"/>
<path d="M118.997 129.165C124.613 129.165 129.165 124.613 129.165 118.997C129.165 113.381 124.613 108.828 118.997 108.828C113.381 108.828 108.828 113.381 108.828 118.997C108.828 124.613 113.381 129.165 118.997 129.165Z" stroke="white" stroke-width="4" stroke-miterlimit="10" stroke-linecap="round" stroke-linejoin="round"/>
<path d="M125.976 93.4955L125.102 86.4609H112.899L112.025 93.4955C109.869 94.0853 107.815 94.9436 105.904 96.0316L100.311 91.6775L91.6674 100.306L96.0397 105.905C94.9418 107.807 94.0874 109.859 93.4975 112.021L86.4609 112.899V125.101L93.4975 125.98C94.0874 128.142 94.9415 130.192 96.0397 132.095L91.6674 137.694L100.311 146.323L105.904 141.969C107.815 143.055 109.849 143.915 112.025 144.505L112.9 151.54H125.102L125.977 144.505C128.132 143.915 130.186 143.057 132.098 141.969L137.691 146.323L146.334 137.694L141.962 132.095C143.06 130.194 143.914 128.142 144.504 125.98L151.54 125.101V112.899L144.504 112.021C143.914 109.859 143.06 107.809 141.962 105.905L146.334 100.306L137.691 91.6775L132.098 96.0316C130.186 94.9453 128.153 94.0851 125.976 93.4955Z" stroke="white" stroke-width="4" stroke-miterlimit="10" stroke-linecap="round" stroke-linejoin="round"/>
</g>
<defs>
<filter id="filter0_d_7586_14779" x="0" y="0" width="238" height="238" filterUnits="userSpaceOnUse" color-interpolation-filters="sRGB">
<feFlood flood-opacity="0" result="BackgroundImageFix"/>
<feColorMatrix in="SourceAlpha" type="matrix" values="0 0 0 0 0 0 0 0 0 0 0 0 0 0 0 0 0 0 127 0" result="hardAlpha"/>
<feOffset/>
<feGaussianBlur stdDeviation="25"/>
<feComposite in2="hardAlpha" operator="out"/>
<feColorMatrix type="matrix" values="0 0 0 0 0.027451 0 0 0 0 0.905882 0 0 0 0 0.768627 0 0 0 0.4 0"/>
<feBlend mode="normal" in2="BackgroundImageFix" result="effect1_dropShadow_7586_14779"/>
<feBlend mode="normal" in="SourceGraphic" in2="effect1_dropShadow_7586_14779" result="shape"/>
</filter>
</defs>
</svg>
