<svg width="60" height="60" viewBox="0 0 60 60" fill="none" xmlns="http://www.w3.org/2000/svg">
<g id="design (1) 1" clip-path="url(#clip0_4166_1544)">
<path id="Vector" d="M56.8938 56.8939C55.2945 58.4934 53.1935 59.2929 51.0926 59.2929C48.9916 59.2929 46.8907 58.4933 45.2913 56.8939L31.2589 42.8615L16.0384 58.0818C15.255 58.8654 14.2134 59.2968 13.1055 59.2968C11.9975 59.2968 10.956 58.8654 10.1725 58.0818L1.91813 49.8274C1.13461 49.044 0.703125 48.0025 0.703125 46.8945C0.703125 45.7866 1.13461 44.745 1.91801 43.9615L17.1386 28.741L6.6477 18.2502C5.06426 16.6668 3.93727 14.6824 3.38848 12.5115L0.735352 2.0163C0.644297 1.6563 0.749414 1.27485 1.01203 1.01224L1.01215 1.01212C1.27477 0.749384 1.65633 0.644267 2.01633 0.735322L12.5114 3.38833C14.6825 3.93724 16.6669 5.06423 18.2502 6.64767L28.7411 17.1385L43.9617 1.91821C44.7451 1.1347 45.7867 0.703213 46.8947 0.703213C48.0026 0.703213 49.0443 1.13481 49.8277 1.91821L58.0819 10.1725C58.8653 10.9558 59.2969 11.9975 59.2969 13.1054C59.2969 14.2133 58.8654 15.255 58.082 16.0384L42.8614 31.2589L56.8938 45.2914C60.0928 48.4902 60.0928 53.6952 56.8938 56.8939ZM14.5471 56.5903L14.5477 56.5897L16.6555 54.4817L13.395 51.2211C12.9831 50.8093 12.9831 50.1415 13.3949 49.7297C13.8068 49.3179 14.4746 49.3177 14.8864 49.7297L18.1471 52.9902L21.8529 49.2843L15.9937 43.4251C15.5818 43.0133 15.5818 42.3454 15.9936 41.9336C16.4055 41.5218 17.0734 41.5217 17.4852 41.9336L23.3445 47.7928L27.0503 44.087L23.7898 40.8263C23.3779 40.4145 23.3779 39.7467 23.7896 39.3349C24.2016 38.9231 24.8694 38.923 25.2812 39.3349L28.5418 42.5954L32.2477 38.8896L26.3884 33.0302C25.9765 32.6184 25.9765 31.9506 26.3883 31.5388C26.8002 31.1268 27.468 31.1268 27.8798 31.5388L33.7392 37.398L37.398 33.7392L34.1375 30.4786C33.7256 30.0668 33.7256 29.3989 34.1374 28.9871C34.5493 28.5753 35.2172 28.5752 35.629 28.9871L38.8897 32.2476L42.5955 28.5418L36.7363 22.6824C36.3244 22.2706 36.3244 21.6028 36.7362 21.191C37.1481 20.7791 37.8159 20.7791 38.2277 21.191L44.0871 27.0504L47.7929 23.3445L44.5323 20.0839C44.1204 19.6721 44.1204 19.0044 44.5322 18.5925C44.9441 18.1807 45.612 18.1804 46.0238 18.5924L49.2845 21.853L52.9903 18.1472L47.1311 12.2877C46.7191 11.8759 46.7191 11.208 47.1309 10.7962C47.543 10.3843 48.2107 10.3842 48.6225 10.7961L54.4819 16.6556L56.5905 14.5469C56.9755 14.1618 57.1876 13.6499 57.1876 13.1054C57.1876 12.5608 56.9754 12.0487 56.5904 11.6639L48.3361 3.40954C47.9509 3.02458 47.4391 2.81247 46.8947 2.81247C46.3501 2.81247 45.838 3.02458 45.453 3.40954L3.40957 45.453C3.02461 45.8382 2.81262 46.3501 2.81262 46.8945C2.81262 47.4391 3.02461 47.9511 3.40957 48.3361L11.6641 56.5904C12.0493 56.9754 12.5611 57.1875 13.1055 57.1875C13.65 57.1875 14.162 56.9755 14.5471 56.5903ZM55.4024 55.4024C57.7788 53.0259 57.7788 49.1593 55.4025 46.7827L51.3046 42.6849L42.6851 51.3044L46.7828 55.4024C49.1592 57.7787 53.0259 57.7787 55.4024 55.4024ZM41.37 32.7505L32.7505 41.37L41.1935 49.813L49.813 41.1935L41.37 32.7505ZM27.2495 18.6301L20.1332 11.5138L11.5137 20.1332L18.63 27.2496L27.2495 18.6301ZM11.9944 5.4336L11.9918 5.4329L3.21363 3.21372L5.4334 11.9946C5.88902 13.7968 6.82453 15.4442 8.13902 16.7587L10.0221 18.6418L18.6416 10.0223L16.7586 8.13923C15.4441 6.82474 13.7967 5.88911 11.9944 5.4336Z" fill="#08DBBA"/>
</g>
<defs>
<clipPath id="clip0_4166_1544">
<rect width="60" height="60" fill="white"/>
</clipPath>
</defs>
</svg>
