<svg width="60" height="60" viewBox="0 0 60 60" fill="none" xmlns="http://www.w3.org/2000/svg">
<rect width="60" height="60" fill="url(#paint0_linear_4815_3078)"/>
<g clip-path="url(#clip0_4815_3078)">
<path fill-rule="evenodd" clip-rule="evenodd" d="M13.0543 32.7849C12.6177 32.7849 12.2637 33.1389 12.2637 33.5755V44.1172C12.2637 46.1065 13.8763 47.719 15.8654 47.719H26.4071C26.8438 47.719 27.1978 47.365 27.1978 46.9284V43.1509H27.8127C29.4137 43.1509 30.7117 41.853 30.7117 40.252C30.7117 38.6509 29.4137 37.353 27.8128 37.353H27.1978V33.5755C27.1978 33.1389 26.8438 32.7849 26.4071 32.7849H21.8391C21.4024 32.7849 21.0485 33.1389 21.0485 33.5755V34.8618C21.0485 35.5879 20.5278 36.2589 19.8027 36.297C19.0425 36.3367 18.413 35.7327 18.413 34.9811V33.5755C18.413 33.1389 18.059 32.7849 17.6224 32.7849H13.0543ZM13.8449 34.3661H16.8318V34.9811C16.8318 36.6336 18.214 37.9635 19.8854 37.8761L19.8854 37.876C21.4408 37.7945 22.6297 36.4192 22.6297 34.8618V34.3661H25.6165V38.1436C25.6165 38.5802 25.9705 38.9342 26.4071 38.9342H27.8128C28.5405 38.9342 29.1304 39.5242 29.1304 40.252C29.1304 40.9797 28.5405 41.5697 27.8127 41.5697H26.4071C25.9705 41.5697 25.6165 41.9237 25.6165 42.3603V46.1378H15.8654C14.7496 46.1378 13.8449 45.2332 13.8449 44.1172V34.3661ZM44.1172 12.2637H23.0338C21.0446 12.2637 19.432 13.8762 19.432 15.8655L19.4321 26.4071C19.4321 26.8438 19.7861 27.1978 20.2227 27.1978H24.0001V27.8127C24.0001 29.4138 25.2981 30.7117 26.8991 30.7117L26.974 30.7107C28.5403 30.6711 29.7981 29.3888 29.7981 27.8128V27.1978H32.7848L32.7849 30.9752C32.7849 31.4119 33.1389 31.7659 33.5755 31.7659H34.8618C35.5879 31.7659 36.2589 32.2865 36.297 33.0116C36.3367 33.7718 35.7327 34.4013 34.9811 34.4013H33.5755C33.1389 34.4013 32.7849 34.7553 32.7849 35.1919V39.76C32.7849 40.1967 33.1389 40.5507 33.5755 40.5507H44.1172C46.1065 40.5507 47.719 38.9381 47.719 36.9489L47.7189 26.4177C47.719 26.4141 47.719 26.4107 47.719 26.4071V15.8654C47.719 13.8762 46.1064 12.2637 44.1172 12.2637ZM40.234 23.684C40.1947 23.6845 40.1558 23.6867 40.1174 23.6906L40.117 23.6907L40.1084 23.6916C39.4209 23.7684 38.9342 24.4189 38.9342 25.1208V26.4071L38.9342 26.4174L38.934 26.4276L38.9337 26.4377L38.9332 26.4478L38.9327 26.4579L38.9319 26.468L38.9311 26.478L38.9302 26.488L38.9291 26.498L38.9279 26.5079L38.9265 26.5177L38.9251 26.5276L38.9236 26.5374L38.9219 26.5471L38.9201 26.5568L38.9182 26.5665L38.9162 26.5761L38.914 26.5857L38.9117 26.5953L38.9094 26.6047L38.9068 26.6142L38.9042 26.6236L38.9015 26.6329L38.8987 26.6423L38.8958 26.6515L38.8927 26.6607L38.8895 26.6699L38.8863 26.679L38.8829 26.6881L38.8794 26.697L38.8758 26.706L38.8721 26.7149L38.8683 26.7238L38.8644 26.7325L38.8604 26.7413L38.8563 26.7499L38.8521 26.7585L38.8477 26.7671L38.8433 26.7756L38.8388 26.784L38.8342 26.7924L38.8295 26.8007L38.8247 26.8089L38.8198 26.8171L38.8148 26.8252L38.8097 26.8333L38.8045 26.8413L38.7992 26.8492L38.7938 26.8571L38.7884 26.8649L38.7828 26.8726L38.7772 26.8802L38.7714 26.8878L38.7656 26.8953L38.7597 26.9027L38.7537 26.9101L38.7476 26.9174L38.7414 26.9246L38.7352 26.9317L38.7288 26.9388L38.7224 26.9457L38.7159 26.9526L38.7093 26.9595L38.7027 26.9662L38.6959 26.9729L38.6891 26.9794L38.6822 26.986L38.6752 26.9924L38.6682 26.9987L38.661 27.005L38.6538 27.0112L38.6465 27.0172L38.6392 27.0232L38.6317 27.0292L38.6242 27.035L38.6167 27.0407L38.609 27.0464L38.6013 27.0519L38.5935 27.0574L38.5857 27.0628L38.5777 27.0681L38.5698 27.0732L38.5617 27.0783L38.5536 27.0833L38.5454 27.0882L38.5371 27.093L38.5289 27.0977L38.5205 27.1024L38.512 27.1069L38.5036 27.1113L38.495 27.1156L38.4864 27.1198L38.4777 27.1239L38.469 27.1279L38.4602 27.1318L38.4514 27.1357L38.4425 27.1394L38.4335 27.143L38.4245 27.1464L38.4154 27.1498L38.4064 27.1531L38.3972 27.1562L38.388 27.1593L38.3787 27.1622L38.3694 27.1651L38.36 27.1678L38.3507 27.1704L38.3412 27.1729L38.3317 27.1753L38.3222 27.1775L38.3212 27.1777C38.3151 27.1792 38.3091 27.1805 38.3029 27.1817L38.2933 27.1836L38.2927 27.1837C38.2799 27.1862 38.2671 27.1883 38.2542 27.1901L38.2443 27.1914L38.2344 27.1927L38.2245 27.1937L38.2229 27.1939C38.2168 27.1944 38.2107 27.195 38.2044 27.1955L38.1944 27.1962L38.1843 27.1968L38.1817 27.1969C38.1691 27.1975 38.1564 27.1978 38.1436 27.1978H34.3661L34.3661 30.1846H34.8618C36.4192 30.1846 37.7945 31.3737 37.876 32.9288L37.8761 32.9289C37.9635 34.6004 36.6336 35.9826 34.9811 35.9826H34.3661V38.9694H44.1172C45.2332 38.9694 46.1378 38.0648 46.1378 36.9489C46.1378 36.9403 46.1377 27.1978 46.1377 27.1978H42.3603C41.9237 27.1978 41.5697 26.8438 41.5697 26.4071V25.0016L41.5696 24.9843L41.5695 24.9786L41.5692 24.967L41.569 24.9604L41.5687 24.9498L41.5684 24.9428L41.5679 24.9326L41.5675 24.9256L41.5669 24.9155L41.5664 24.9084L41.5657 24.8984L41.5651 24.8914L41.5642 24.8813L41.5636 24.8745L41.5626 24.8644L41.5619 24.8577L41.5607 24.8474L41.56 24.841L41.5587 24.8305L41.5578 24.8243L41.5563 24.8135L41.5555 24.8077L41.5538 24.7967L41.553 24.7912L41.5511 24.7799L41.5502 24.7748L41.5481 24.7631L41.5473 24.7585L41.545 24.7463L41.5441 24.7422L41.5415 24.7295L41.5408 24.726L41.5379 24.7127L41.5373 24.7099L41.534 24.6958L41.5335 24.6938L41.5299 24.679L41.5296 24.6779C41.3839 24.1012 40.8577 23.6762 40.234 23.684ZM32.7849 13.8449H23.0338C21.9179 13.8449 21.0133 14.7496 21.0133 15.8655L21.0134 25.6165H24.7908C25.2274 25.6165 25.5814 25.9705 25.5814 26.4071V27.8127C25.5814 28.5405 26.1714 29.1304 26.8991 29.1304H26.8992C27.6269 29.1304 28.2168 28.5405 28.2168 27.8128V26.4071C28.2168 25.9705 28.5708 25.6165 29.0075 25.6165H32.7849V22.6297H32.1699C30.6416 22.6297 29.3895 21.4469 29.2789 19.9467L29.2784 19.94L29.2781 19.9354L29.2781 19.9348C29.2769 19.9184 29.2759 19.9019 29.275 19.8854V19.8854C29.1952 18.3596 30.2966 17.0748 31.7462 16.8625L31.7518 16.8617L31.7633 16.8601L31.7704 16.8591L31.7808 16.8577L31.7826 16.8574L31.7836 16.8573L31.7891 16.8565L31.7984 16.8553L31.8008 16.8551L31.8022 16.8549L31.8078 16.8542L31.8163 16.8531L31.8189 16.8528L31.8207 16.8526L31.8266 16.8519L31.8343 16.851L31.8371 16.8506L31.8393 16.8504L31.8454 16.8497L31.8524 16.849L31.8553 16.8486L31.858 16.8484L31.8642 16.8477L31.8705 16.8471L31.8736 16.8467L31.8767 16.8464L31.883 16.8458L31.8888 16.8452L31.8918 16.8449L31.8954 16.8446L31.9019 16.844L31.9072 16.8435L31.9102 16.8433L31.9142 16.8429L31.9209 16.8423L31.9256 16.8419L31.9285 16.8417L31.933 16.8413L31.9398 16.8407L31.9441 16.8404L31.9469 16.8402L31.9518 16.8398L31.9588 16.8393L31.9627 16.839L31.9654 16.8389L31.9707 16.8385L31.9779 16.838L31.9813 16.8378L31.9838 16.8376L31.9896 16.8373L31.9969 16.8368L31.9999 16.8367L32.0023 16.8365L32.0086 16.8362L32.016 16.8358L32.0187 16.8356L32.0208 16.8355L32.0276 16.8352L32.0352 16.8348L32.0374 16.8347L32.0393 16.8347L32.0466 16.8344L32.0543 16.834L32.0562 16.8339L32.0579 16.8339L32.0658 16.8336L32.0735 16.8334L32.0751 16.8333L32.0765 16.8332L32.085 16.833L32.0928 16.8328L32.094 16.8327H32.0951L32.1044 16.8325L32.112 16.8323H32.1138L32.124 16.8321L32.1313 16.832H32.1325L32.1444 16.8319L32.1506 16.8318H32.1512L32.17 16.8318H32.7849V13.8449ZM34.3661 13.8449V17.6224C34.3661 17.6861 34.3586 17.7481 34.3444 17.8074C34.2611 18.1548 33.9485 18.413 33.5755 18.413H32.17L32.1526 18.4131L32.147 18.4132L32.1354 18.4135L32.1288 18.4137L32.1182 18.414L32.1112 18.4143L32.101 18.4148L32.0939 18.4152L32.0839 18.4158L32.0768 18.4163L32.0667 18.417L32.0598 18.4176L32.0497 18.4185L32.0429 18.4191L32.0327 18.4201L32.0261 18.4208L32.0158 18.4219L32.0093 18.4227L31.9988 18.424L31.9927 18.4249L31.9819 18.4264L31.9761 18.4272L31.9651 18.4288L31.9596 18.4297L31.9483 18.4316L31.9432 18.4325L31.9315 18.4346L31.9268 18.4354L31.9147 18.4378L31.9106 18.4386L31.8978 18.4412L31.8944 18.4419L31.8811 18.4448L31.8782 18.4454L31.8642 18.4487L31.8622 18.4492L31.8474 18.4528L31.8462 18.4531C31.2697 18.5988 30.8446 19.1249 30.8524 19.7486C30.853 19.7913 30.8555 19.8335 30.8601 19.8751C30.9373 20.5622 31.5876 21.0485 32.2892 21.0485H33.5755C33.5789 21.0485 33.5823 21.0485 33.5857 21.0485L33.5959 21.0487L33.6061 21.049L33.6162 21.0495L33.6263 21.05L33.6363 21.0507L33.6464 21.0516L33.6564 21.0525L33.6663 21.0536L33.6762 21.0548L33.6861 21.0561L33.696 21.0576L33.7058 21.0591L33.7155 21.0608L33.7252 21.0626L33.7348 21.0645L33.7445 21.0665L33.7541 21.0687L33.7636 21.071L33.7731 21.0733L33.7826 21.0758L33.792 21.0785L33.8013 21.0811L33.8106 21.084L33.8199 21.0869L33.8291 21.09L33.8383 21.0932L33.8474 21.0964L33.8564 21.0998L33.8654 21.1033L33.8744 21.1069L33.8833 21.1106L33.8921 21.1144L33.9009 21.1183L33.9096 21.1223L33.9183 21.1264L33.9269 21.1306L33.9355 21.135L33.9439 21.1393L33.9524 21.1439L33.9608 21.1485L33.9691 21.1532L33.9773 21.158L33.9855 21.1629L33.9936 21.1679L34.0017 21.173L34.0097 21.1782L34.0176 21.1834L34.0254 21.1888L34.0332 21.1943L34.0409 21.1999L34.0486 21.2055L34.0562 21.2112L34.0636 21.2171L34.0711 21.223L34.0785 21.229L34.0857 21.2351L34.093 21.2412L34.1001 21.2475L34.1071 21.2538L34.1141 21.2602L34.121 21.2668L34.1278 21.2734L34.1346 21.28L34.1412 21.2868L34.1478 21.2936L34.1544 21.3005L34.1608 21.3075L34.1671 21.3145L34.1734 21.3217L34.1796 21.3289L34.1856 21.3361L34.1916 21.3435L34.1975 21.351L34.2034 21.3584L34.2091 21.366L34.2147 21.3737L34.2203 21.3814L34.2258 21.3892L34.2312 21.397L34.2364 21.4049L34.2416 21.4129L34.2467 21.421L34.2517 21.4291L34.2566 21.4373L34.2614 21.4455L34.2661 21.4538L34.2707 21.4622L34.2753 21.4707L34.2796 21.4791L34.284 21.4877L34.2882 21.4963L34.2923 21.505L34.2963 21.5137L34.3002 21.5225L34.3041 21.5313L34.3077 21.5402L34.3113 21.5492L34.3148 21.5582L34.3182 21.5672L34.3214 21.5763L34.3246 21.5855L34.3277 21.5947L34.3306 21.604L34.3335 21.6133L34.3362 21.6226L34.3388 21.6321L34.3413 21.6415L34.3436 21.651L34.3459 21.6605L34.3481 21.6701L34.3501 21.6798L34.352 21.6894L34.3538 21.6991L34.3555 21.7088L34.357 21.7187L34.3585 21.7285L34.3598 21.7384L34.361 21.7483L34.3621 21.7582L34.363 21.7682L34.3639 21.7783L34.3646 21.7883L34.3651 21.7984L34.3656 21.8085L34.3659 21.8187L34.3661 21.8289L34.3661 21.839L34.3662 25.6165H35.5969H37.353V25.0016C37.353 23.4726 38.5368 22.2201 40.0377 22.1104L40.0427 22.1101L40.0459 22.1098L40.0473 22.1097L40.0496 22.1096C40.0655 22.1084 40.0813 22.1075 40.0972 22.1066H40.0973C41.6231 22.0268 42.9079 23.1282 43.1201 24.5778L43.121 24.5834L43.1236 24.602L43.125 24.6124L43.1253 24.6143L43.1254 24.6153L43.1262 24.6207L43.1273 24.6301L43.1276 24.6324L43.1278 24.6338L43.1285 24.6394L43.1296 24.6479L43.1299 24.6505L43.1301 24.6524L43.1308 24.6582L43.1317 24.6659L43.132 24.6687L43.1323 24.671L43.133 24.677L43.1337 24.684L43.1341 24.6869L43.1343 24.6896L43.135 24.6958L43.1356 24.7022L43.136 24.7052L43.1363 24.7083L43.1369 24.7147L43.1374 24.7205L43.1378 24.7235L43.1381 24.727L43.1387 24.7335L43.1392 24.7388L43.1394 24.7418L43.1398 24.7458L43.1404 24.7525L43.1408 24.7573L43.141 24.7602L43.1414 24.7646L43.1419 24.7714L43.1422 24.7758L43.1425 24.7785L43.1428 24.7834L43.1433 24.7905L43.1436 24.7943L43.1438 24.797L43.1442 24.8023L43.1447 24.8095L43.1449 24.8129L43.145 24.8154L43.1454 24.8212L43.1459 24.8286L43.146 24.8316L43.1461 24.8339L43.1465 24.8402L43.1469 24.8476L43.147 24.8503L43.1471 24.8524L43.1475 24.8592L43.1479 24.8668L43.1479 24.869L43.148 24.8709L43.1483 24.8783L43.1487 24.886L43.1487 24.8879L43.1488 24.8896L43.1491 24.8974L43.1493 24.9052L43.1494 24.9067L43.1495 24.9082L43.1497 24.9166L43.1499 24.9244V24.9256L43.15 24.9268L43.1502 24.936L43.1504 24.9436L43.1504 24.9454L43.1506 24.9556L43.1507 24.9629V24.9641L43.1508 24.976L43.1509 24.9823V24.9825C43.1509 24.9888 43.1509 24.9952 43.1509 25.0016V25.6165H46.1378V15.8654C46.1378 14.7495 45.2331 13.8449 44.1172 13.8449C44.1172 13.8449 36.8161 13.8449 34.3661 13.8449Z" fill="#06CEAF"/>
</g>
<defs>
<linearGradient id="paint0_linear_4815_3078" x1="30" y1="0" x2="30" y2="60" gradientUnits="userSpaceOnUse">
<stop stop-color="#ECF6F4"/>
<stop offset="1" stop-color="#ECF6F4" stop-opacity="0"/>
</linearGradient>
<clipPath id="clip0_4815_3078">
<rect width="36" height="36" fill="white" transform="translate(12 12)"/>
</clipPath>
</defs>
</svg>
