<svg width="50" height="50" viewBox="0 0 50 50" fill="none" xmlns="http://www.w3.org/2000/svg">
<g id="destination 2" clip-path="url(#clip0_4249_594)">
<path id="Vector" d="M0.390625 10.6073V10.5699C0.390625 5.03105 4.89697 0.524902 10.4359 0.524902C15.9748 0.524902 20.4812 5.03115 20.4812 10.57C20.4812 12.5779 19.9363 14.5501 18.9056 16.2732L12.2567 27.3894H20.481C23.276 27.3894 25.55 29.6634 25.55 32.4583C25.55 35.2533 23.276 37.5273 20.481 37.5273H7.24072C5.46533 37.5273 4.0207 38.9719 4.0207 40.7473C4.0207 42.5228 5.46533 43.9673 7.24072 43.9673H28.251L28.3188 43.6613C28.6957 41.9637 29.9775 40.6038 31.6307 40.1151L31.9106 40.0324V18.2801C31.9106 17.9241 32.0871 17.5913 32.3818 17.3919C32.6767 17.1924 33.0512 17.1521 33.3817 17.2843C33.4225 17.3005 48.9213 23.5001 48.9352 23.5057C49.3277 23.6627 49.5916 24.0359 49.6085 24.4585V24.4586C49.6255 24.8812 49.3924 25.2744 49.0135 25.4626L34.0559 32.887V40.033L34.3356 40.1158C36.3131 40.701 37.7604 42.5328 37.7604 44.6974C37.7604 47.3319 35.6171 49.4753 32.9824 49.4753C30.9348 49.4753 29.1845 48.1802 28.5059 46.3663L28.4109 46.1126H7.24072C4.28242 46.1126 1.87549 43.7057 1.87549 40.7473C1.87549 37.789 4.28242 35.382 7.24072 35.382H20.4811C22.0934 35.382 23.4049 34.0705 23.4049 32.4582C23.4049 30.846 22.0934 29.5345 20.4811 29.5345H10.3591C9.92666 29.5371 9.61299 29.2789 9.43955 29.0034C9.43838 29.0015 1.92695 16.2445 1.92695 16.2445C0.921875 14.5376 0.390625 12.5883 0.390625 10.6073ZM32.9838 42.0648L32.9777 42.0646C31.528 42.0674 30.3497 43.2473 30.3497 44.6973C30.3497 46.1488 31.531 47.33 32.9824 47.33C34.434 47.33 35.6151 46.149 35.6151 44.6973C35.6151 43.2476 34.4376 42.0681 32.989 42.0647L32.9838 42.0648ZM34.0559 19.8644V30.4919L45.912 24.6068L34.0559 19.8644ZM2.53584 10.6072L2.53574 10.6071C2.53574 12.2056 2.96445 13.7785 3.77549 15.1561L10.3726 26.3603L17.0646 15.172C17.8963 13.7813 18.3358 12.19 18.3358 10.5698C18.3358 6.21387 14.792 2.66982 10.4358 2.66982C6.07969 2.66982 2.53574 6.21387 2.53574 10.5698L2.92637 10.9604L2.53574 10.5709L2.53584 10.6072ZM14.6044 10.7506C14.6044 13.088 12.7027 14.9896 10.3652 14.9896C8.02783 14.9896 6.12617 13.088 6.12617 10.7506C6.12617 8.41318 8.02793 6.51152 10.3653 6.51152C12.7028 6.51152 14.6044 8.41318 14.6044 10.7506ZM10.3652 12.8445C11.5199 12.8445 12.4592 11.9053 12.4592 10.7506C12.4592 9.5959 11.5199 8.65664 10.3652 8.65664C9.21064 8.65664 8.27129 9.5959 8.27129 10.7506C8.27129 11.9053 9.21064 12.8445 10.3652 12.8445Z" fill="#08DBBA"/>
</g>
<defs>
<clipPath id="clip0_4249_594">
<rect width="50" height="50" fill="white"/>
</clipPath>
</defs>
</svg>
