<svg width="40" height="60" viewBox="0 0 40 60" fill="none" xmlns="http://www.w3.org/2000/svg">
<path d="M14.166 16.668H9.99935C9.11529 16.668 8.26745 17.0192 7.64233 17.6443C7.0172 18.2694 6.66602 19.1172 6.66602 20.0013V43.3346C6.66602 44.2187 7.0172 45.0665 7.64233 45.6917C8.26745 46.3168 9.11529 46.668 9.99935 46.668H29.9993C30.8834 46.668 31.7312 46.3168 32.3564 45.6917C32.9815 45.0665 33.3327 44.2187 33.3327 43.3346V20.0013C33.3327 19.1172 32.9815 18.2694 32.3564 17.6443C31.7312 17.0192 30.8834 16.668 29.9993 16.668H25.8327" stroke="#08DBBA" stroke-width="2" stroke-linecap="round"/>
<path d="M24.1654 28.8462C23.214 27.9679 21.539 27.3577 19.9987 27.3192M19.9987 27.3192C18.1654 27.2731 16.5265 28.0385 16.5265 30.1282C16.5265 33.9744 24.1654 32.0513 24.1654 35.8974C24.1654 38.091 22.132 39.0333 19.9987 38.9628M19.9987 27.3192V25M15.832 37.1795C16.7265 38.2821 18.3918 38.9103 19.9987 38.9628M19.9987 38.9628V41.6667" stroke="#08DBBA" stroke-width="2" stroke-linecap="round" stroke-linejoin="round"/>
<path d="M13.332 19.0013V17.5013C13.332 17.2803 13.4198 17.0683 13.5761 16.912C13.7324 16.7558 13.9444 16.668 14.1654 16.668C14.6254 16.668 15.0054 16.2946 15.0854 15.8413C15.332 14.4213 16.2887 11.668 19.9987 11.668C23.7087 11.668 24.6654 14.4213 24.912 15.8413C24.992 16.2946 25.372 16.668 25.832 16.668C26.053 16.668 26.265 16.7558 26.4213 16.912C26.5776 17.0683 26.6654 17.2803 26.6654 17.5013V19.0013C26.6654 19.2665 26.56 19.5209 26.3725 19.7084C26.1849 19.8959 25.9306 20.0013 25.6654 20.0013H14.332C14.0668 20.0013 13.8125 19.8959 13.6249 19.7084C13.4374 19.5209 13.332 19.2665 13.332 19.0013Z" stroke="#08DBBA" stroke-width="2" stroke-linecap="round"/>
</svg>
