<svg width="80" height="60" viewBox="0 0 80 60" fill="none" xmlns="http://www.w3.org/2000/svg">
<rect width="80" height="60" rx="30" fill="#08DBBA"/>
<path d="M46.0924 18.529C43.2854 15.722 40.5864 13.0229 39.8036 10C38.9939 13.0229 36.3219 15.695 33.5148 18.529C29.3043 22.7395 24.5 27.5169 24.5 34.6964C24.5 43.1444 31.3556 50 39.8036 50C48.2517 50 55.1073 43.1444 55.1073 34.6964C55.1073 27.5169 50.303 22.7395 46.0924 18.529ZM31.0047 38.2591C30.0601 38.2321 26.6053 32.2672 33.029 25.8974L37.2935 30.5398C37.4285 30.6748 37.4285 30.9177 37.2935 31.0526L37.2665 31.0796C36.2409 32.1323 31.9224 36.4507 31.3826 37.9622C31.2476 38.2591 31.0857 38.2591 31.0047 38.2591ZM39.8036 46.1134C36.8887 46.1134 34.5405 43.7652 34.5405 40.8502C34.5675 39.5816 35.0263 38.3401 35.863 37.3684C36.8077 36.2078 39.8036 32.942 39.8036 32.942C39.8036 32.942 42.7726 36.2618 43.7443 37.3684C44.608 38.3131 45.0668 39.5816 45.0668 40.8502C45.0668 43.7652 42.6916 46.1134 39.8036 46.1134ZM49.8711 37.5843C49.7632 37.8273 49.4933 38.2591 49.1424 38.2591C48.5216 38.2861 48.4676 37.9622 48.0088 37.2874C47.0101 35.803 38.2382 26.6262 36.5918 24.8718C35.1613 23.3063 36.3758 22.2267 36.9696 21.6329C37.6984 20.9042 39.8036 18.7989 39.8036 18.7989C39.8036 18.7989 46.0924 24.7638 48.6835 28.8124C51.2746 32.861 50.4109 36.4238 49.8711 37.5843Z" fill="#202020"/>
</svg>
