<svg width="100" height="80" viewBox="0 0 100 80" fill="none" xmlns="http://www.w3.org/2000/svg">
<path d="M59.1387 22.7935C54.9281 18.583 50.8796 14.5344 49.7055 10C48.4909 14.5344 44.4828 18.5425 40.2723 22.7935C33.9565 29.1093 26.75 36.2753 26.75 47.0445C26.75 59.7166 37.0334 70 49.7055 70C62.3775 70 72.6609 59.7166 72.6609 47.0445C72.6609 36.2753 65.4545 29.1093 59.1387 22.7935ZM36.5071 52.3887C35.0901 52.3482 29.9079 43.4008 39.5435 33.8462L45.9403 40.8097C46.1427 41.0121 46.1427 41.3765 45.9403 41.5789L45.8998 41.6194C44.3613 43.1984 37.8836 49.6761 37.0739 51.9433C36.8715 52.3887 36.6285 52.3887 36.5071 52.3887ZM49.7055 64.17C45.333 64.17 41.8107 60.6478 41.8107 56.2753C41.8512 54.3725 42.5395 52.5101 43.7945 51.0526C45.2115 49.3117 49.7055 44.413 49.7055 44.413C49.7055 44.413 54.1589 49.3927 55.6164 51.0526C56.9119 52.4696 57.6002 54.3725 57.6002 56.2753C57.6002 60.6478 54.0375 64.17 49.7055 64.17ZM64.8067 51.3765C64.6447 51.7409 64.2399 52.3887 63.7136 52.3887C62.7824 52.4291 62.7014 51.9433 62.0132 50.9312C60.5152 48.7045 47.3573 34.9393 44.8877 32.3077C42.7419 29.9595 44.5638 28.3401 45.4545 27.4494C46.5476 26.3563 49.7055 23.1984 49.7055 23.1984C49.7055 23.1984 59.1387 32.1457 63.0253 38.2186C66.9119 44.2915 65.6164 49.6356 64.8067 51.3765Z" fill="#202020"/>
</svg>
