<svg width="80" height="60" viewBox="0 0 80 60" fill="none" xmlns="http://www.w3.org/2000/svg">
<rect width="80" height="60" rx="30" fill="#08DBBA"/>
<mask id="mask0_7238_12139" style="mask-type:luminance" maskUnits="userSpaceOnUse" x="20" y="10" width="40" height="40">
<path d="M20 10H60V50H20V10Z" fill="white"/>
</mask>
<g mask="url(#mask0_7238_12139)">
<path d="M43.3516 28.064H53.6129C54.682 28.064 55.5487 28.9306 55.5487 29.9998C55.5487 31.0689 54.682 31.9355 53.6129 31.9355H43.3516" stroke="black" stroke-width="1.5" stroke-miterlimit="10"/>
<path d="M36.6464 31.9355H26.385C25.3159 31.9355 24.4492 31.0689 24.4492 29.9998C24.4492 28.9306 25.3159 28.064 26.385 28.064H36.6464" stroke="black" stroke-width="1.5" stroke-miterlimit="10"/>
<path d="M43.872 29.9995C43.872 32.1377 42.1387 33.8711 40.0005 33.8711C37.8623 33.8711 36.1289 32.1377 36.1289 29.9995C36.1289 27.8613 37.8623 26.128 40.0005 26.128C42.1387 26.128 43.872 27.8613 43.872 29.9995Z" stroke="black" stroke-width="1.5" stroke-miterlimit="10"/>
<path d="M31.6719 16.3843H53.6125C54.6815 16.3843 55.5483 17.2509 55.5483 18.3201C55.5483 19.3892 54.6815 20.2559 53.6125 20.2559H31.6719" stroke="black" stroke-width="1.5" stroke-miterlimit="10"/>
<path d="M32.1923 18.3198C32.1923 20.458 30.459 22.1914 28.3208 22.1914C26.1826 22.1914 24.4492 20.458 24.4492 18.3198C24.4492 16.1816 26.1826 14.4483 28.3208 14.4483C30.459 14.4483 32.1923 16.1816 32.1923 18.3198Z" stroke="black" stroke-width="1.5" stroke-miterlimit="10"/>
<path d="M48.3256 43.6152H26.385C25.3159 43.6152 24.4492 42.7486 24.4492 41.6795C24.4492 40.6103 25.3159 39.7437 26.385 39.7437H48.3256" stroke="black" stroke-width="1.5" stroke-miterlimit="10"/>
<path d="M55.5517 41.6792C55.5517 43.8174 53.8184 45.5508 51.6802 45.5508C49.542 45.5508 47.8086 43.8174 47.8086 41.6792C47.8086 39.541 49.542 37.8077 51.6802 37.8077C53.8184 37.8077 55.5517 39.541 55.5517 41.6792Z" stroke="black" stroke-width="1.5" stroke-miterlimit="10"/>
</g>
</svg>
