<svg width="60" height="60" viewBox="0 0 60 60" fill="none" xmlns="http://www.w3.org/2000/svg">
<g id="exam 1">
<path id="Vector" d="M47.6467 7.52754C50.3075 7.52754 52.4722 9.69223 52.4722 12.353V54.7059C52.4722 57.3666 50.3075 59.5312 47.6468 59.5312H12.3527C9.69203 59.5312 7.52734 57.3666 7.52734 54.7059V12.353C7.52734 9.69234 9.69203 7.52766 12.3527 7.52766H18.2814L18.3921 7.21559C19.0561 5.3434 20.8438 3.9982 22.9409 3.9982H25.3391L25.4498 3.68613C26.1136 1.81359 27.9025 0.46875 29.9997 0.46875C32.0969 0.46875 33.8857 1.81359 34.5496 3.68602L34.6602 3.99809H37.0585C39.1554 3.99809 40.9432 5.3434 41.6072 7.21547L41.718 7.52754H47.6467ZM49.8305 55.1747H49.8803V12.353C49.8803 11.1213 48.8782 10.1195 47.6468 10.1195H41.884V12.353C41.884 13.0688 41.3037 13.6489 40.5881 13.6489H19.4116C18.6958 13.6489 18.1156 13.0688 18.1156 12.353V10.1195H12.3527C11.121 10.1195 10.1192 11.1216 10.1192 12.353V54.7059C10.1192 55.9376 11.1213 56.9394 12.3527 56.9394H47.6467C48.7176 56.9394 49.6148 56.1819 49.8305 55.1747ZM41.5043 45.034L38.8912 47.647L41.5045 50.26C42.0105 50.7661 42.0105 51.5866 41.5045 52.0928H41.5043C41.2513 52.3459 40.9197 52.4723 40.5881 52.4723C40.2564 52.4723 39.9247 52.3459 39.6718 52.0929L37.0586 49.4797L34.4454 52.0928C34.1924 52.3459 33.8608 52.4723 33.5291 52.4723C33.1975 52.4723 32.8657 52.3459 32.6126 52.0929C32.1066 51.5868 32.1066 50.7662 32.6126 50.2601L35.2258 47.647L32.6126 45.034C32.1066 44.5279 32.1066 43.7073 32.6126 43.2012C33.1188 42.6952 33.9393 42.695 34.4453 43.2012L37.0585 45.8143L39.6714 43.2013C40.1775 42.6953 40.9981 42.6952 41.5041 43.2013H41.5042C42.0104 43.7074 42.0104 44.528 41.5043 45.034ZM24.7056 46.3511C25.4213 46.3511 26.0016 46.9313 26.0016 47.647C26.0016 48.3628 25.4213 48.943 24.7056 48.943H17.6468C16.9311 48.943 16.3509 48.3628 16.3509 47.647C16.3509 46.9313 16.9312 46.3511 17.6468 46.3511H24.7056ZM43.2688 30.8482C43.7751 31.3545 43.775 32.1749 43.2691 32.6811L37.9749 37.9752C37.7219 38.2283 37.3902 38.3548 37.0586 38.3548C36.7268 38.3548 36.3952 38.2282 36.1421 37.9752L32.6126 34.4459C32.1066 33.9397 32.1066 33.1192 32.6126 32.613C33.1188 32.107 33.9393 32.1069 34.4453 32.613L37.0585 35.2261L41.4364 30.8483C41.9424 30.3422 42.7629 30.3422 43.2688 30.8482ZM24.7056 33.9982C25.4213 33.9982 26.0015 34.5784 26.0016 35.2942C26.0016 36.01 25.4213 36.5902 24.7056 36.5902H17.6468C16.9311 36.5902 16.3509 36.0098 16.3509 35.2942C16.3509 34.5784 16.9312 33.9982 17.6468 33.9982H24.7056ZM43.2688 20.26C43.7751 20.7661 43.7751 21.5868 43.2691 22.0929L37.9749 27.387C37.7219 27.6401 37.3902 27.7665 37.0586 27.7665C36.7268 27.7665 36.3952 27.64 36.1421 27.387L32.6126 23.8576C32.1066 23.3515 32.1066 22.5309 32.6126 22.0248C33.1188 21.5188 33.9393 21.5187 34.4453 22.0248L37.0585 24.6379L41.4364 20.2601C41.9424 19.7539 42.7629 19.7539 43.2688 20.26ZM24.7056 21.6452C25.4213 21.6452 26.0016 22.2254 26.0016 22.9412C26.0016 23.657 25.4213 24.2372 24.7056 24.2372H17.6468C16.9311 24.2372 16.3509 23.657 16.3509 22.9412C16.3509 22.2254 16.9312 21.6452 17.6468 21.6452H24.7056ZM20.7074 8.82352V11.057H39.2922V8.82352C39.2922 7.59187 38.2901 6.59004 37.0587 6.59004H33.5293C32.8135 6.59004 32.2333 6.00984 32.2333 5.29406C32.2333 4.06242 31.2312 3.06059 29.9998 3.06059C28.7682 3.06059 27.7663 4.06266 27.7663 5.29406C27.7663 6.00984 27.186 6.59004 26.4704 6.59004H22.9409C21.7093 6.59004 20.7074 7.59211 20.7074 8.82352Z" fill="#06CEAF"/>
</g>
</svg>
