<svg width="43" height="40" viewBox="0 0 43 40" fill="none" xmlns="http://www.w3.org/2000/svg">
<path d="M21.6987 21.3282L19.1654 11.8771C16.2761 12.2187 13.4863 10.3971 12.7034 7.50771V7.49311C12.2622 5.87052 12.5607 4.20522 13.372 2.86729L13.4005 2.82489C14.1691 1.57236 15.3935 0.618255 16.9164 0.205489C18.4537 -0.207277 19.9906 0.0209561 21.2858 0.718389L21.3289 0.732288C22.7096 1.48665 23.791 2.78166 24.218 4.4185C25.0008 7.30786 23.4919 10.2829 20.816 11.4358L23.35 20.8869C23.5777 20.8584 23.8193 20.8438 24.047 20.8438C25.0576 20.8438 26.0829 21.1001 27.0223 21.6409C27.6201 21.9825 28.1322 22.4094 28.545 22.8933C29.1286 23.5623 29.57 24.3599 29.812 25.2709C29.9116 25.6409 29.9684 26.0249 29.9968 26.4092L30.0107 26.4801V26.5517V26.6226V26.6942V26.7227V26.7651V26.7936V26.836V26.8645V26.9076V26.9499V26.9645V27.0215V27.05V27.1063L29.9968 27.1779C29.9684 27.8184 29.8117 28.4305 29.584 29.0141L31.89 30.3519C33.6976 28.0603 36.9569 27.3771 39.5474 28.8716H39.5613C41.0131 29.7256 41.9955 31.0918 42.3656 32.6148V32.6718C42.7072 34.0951 42.5222 35.6469 41.7394 37.0133C40.9423 38.3797 39.6899 39.319 38.295 39.746L38.238 39.7599C36.7293 40.2012 35.0636 40.0444 33.5976 39.2046V39.1907C30.9929 37.6962 29.9541 34.5362 31.0358 31.8176L28.7299 30.4944C27.9613 31.4765 26.8942 32.2162 25.5989 32.5578C24.7022 32.7998 23.7911 32.8287 22.9371 32.6579C22.2966 32.544 21.6703 32.3163 21.0725 31.9747L21.0579 31.9601C20.2181 31.4762 19.535 30.8071 19.0369 30.0385C18.8661 29.768 18.7094 29.4697 18.567 29.1565L11.8778 30.9496C12.2194 33.839 10.3978 36.6287 7.50838 37.4116H7.49379C5.87118 37.8528 4.20588 37.5678 2.86794 36.7423L2.82555 36.7138C1.57301 35.9452 0.60467 34.7215 0.206135 33.1986C-0.206633 31.6756 0.0212403 30.1241 0.704442 28.8431L0.732937 28.7861C1.48731 27.4197 2.78265 26.3383 4.40526 25.897H4.41916C7.30853 25.1142 10.2836 26.6228 11.4365 29.3129L18.1264 27.5052C18.098 27.2063 18.0837 26.9073 18.0979 26.6226C18.1122 25.669 18.3823 24.7015 18.8805 23.819C19.521 22.7231 20.4602 21.8973 21.5277 21.3991L21.5562 21.3852L21.5993 21.3706L21.6563 21.3421L21.6987 21.3282ZM38.7078 30.3519C36.6725 29.1705 34.0673 29.8677 32.8859 31.9031C31.7188 33.9385 32.4167 36.5436 34.4378 37.725C36.4732 38.8921 39.0919 38.1946 40.259 36.1592C41.4262 34.1238 40.729 31.519 38.7078 30.3519ZM4.84658 27.5476C2.58347 28.1454 1.24503 30.4942 1.84283 32.7573C2.45487 35.0203 4.78937 36.3727 7.05247 35.7749C9.32981 35.1628 10.6679 32.8145 10.0701 30.5514C9.45808 28.2883 7.12392 26.9356 4.84658 27.5476ZM27.278 24.0324C26.239 22.8368 24.5736 22.2533 22.951 22.6945C22.3105 22.8653 21.7416 23.178 21.2719 23.5765C20.0763 24.6155 19.5068 26.2809 19.948 27.9035C20.375 29.5118 21.6845 30.665 23.2075 30.9781C24.9582 31.3197 26.7945 30.5512 27.734 28.9286C28.6591 27.3202 28.4167 25.3703 27.278 24.0324ZM22.5813 4.85981C21.9693 2.59671 19.6351 1.24438 17.3578 1.84218C15.0947 2.45421 13.742 4.78906 14.354 7.06639C14.9661 9.32949 17.3006 10.6815 19.5637 10.0694C21.8268 9.4574 23.1791 7.12291 22.5813 4.85981Z" fill="#08DBBA"/>
</svg>
