<svg width="40" height="60" viewBox="0 0 40 60" fill="none" xmlns="http://www.w3.org/2000/svg">
<path fill-rule="evenodd" clip-rule="evenodd" d="M23.4322 24.8821C22.6419 25.1116 21.8796 25.4291 21.1615 25.8273L20.4231 25.0848C19.7041 24.3761 18.5363 24.3761 17.8182 25.0848L16.0862 26.8196C15.3802 27.5351 15.3793 28.7029 16.0854 29.4252L16.8314 30.1606H16.8294C16.4291 30.8764 16.1119 31.639 15.8845 32.4286H14.8406C13.8324 32.4354 13.0035 33.259 13 34.2716V36.7284C13.0035 37.7343 13.8324 38.5643 14.8406 38.5643H15.8845C15.8845 38.5643 15.8851 38.5711 15.8845 38.5643C16.1119 39.3543 16.4291 40.1168 16.8294 40.8391L16.0854 41.5751C15.3793 42.2973 15.3802 43.4649 16.0862 44.1804L17.8223 45.9085L17.9504 46.023C18.6715 46.6171 19.748 46.5768 20.4237 45.9152L21.1615 45.1659C21.8796 45.5709 22.6419 45.8881 23.4322 46.1111V47.157C23.4354 48.1629 24.2637 48.9932 25.2722 49H27.7278C28.7363 48.9932 29.5646 48.1629 29.5678 47.157V46.1111C30.3584 45.8881 31.1204 45.5709 31.8385 45.1659L32.5772 45.9152C33.2959 46.6171 34.4637 46.6171 35.1818 45.9085L36.9138 44.1736C37.6198 43.4581 37.6207 42.2906 36.9146 41.5751L36.1706 40.8391C36.5709 40.1168 36.8881 39.3543 37.1158 38.5643H38.1594C39.1676 38.5643 39.9965 37.7343 40 36.7284V34.2716C39.9965 33.259 39.1676 32.4354 38.1594 32.4286H37.1158C36.8881 31.639 36.5709 30.8764 36.1706 30.1606L36.9146 29.4184C37.6207 28.7029 37.6198 27.5351 36.9138 26.8129L35.1745 25.0848L35.0157 24.9431C34.295 24.3829 33.2411 24.43 32.5763 25.0848L31.8385 25.8273C31.1204 25.4291 30.3584 25.1116 29.5678 24.8821V23.8362C29.5646 22.8303 28.7363 22 27.7278 22H25.2722C24.2637 22 23.4354 22.8303 23.4322 23.8362V24.8821ZM28.3413 25.3549V23.8362C28.3413 23.5054 28.0639 23.2218 27.7272 23.2218H25.2728C24.9361 23.2218 24.6587 23.5054 24.6587 23.8362V25.3549C24.6578 25.6382 24.4622 25.8812 24.1868 25.9487H24.1874C23.1971 26.1917 22.251 26.5831 21.3821 27.1165H21.3816C21.1418 27.2582 20.8319 27.2246 20.6296 27.0288L19.553 25.9554C19.4382 25.8409 19.2815 25.7731 19.1174 25.7731C18.9542 25.7731 18.7969 25.8409 18.6829 25.9554L16.9563 27.6903C16.8394 27.7984 16.7734 27.9533 16.7734 28.1221C16.7734 28.2776 16.8388 28.4328 16.9528 28.5474L18.0329 29.6275C18.2279 29.8299 18.2629 30.1406 18.1171 30.3836C18.1171 30.3836 18.105 30.3972 18.1165 30.3836C17.5846 31.2475 17.1911 32.1924 16.9516 33.1847C16.8859 33.4613 16.6391 33.6572 16.356 33.6572H14.8406C14.5039 33.6572 14.2265 33.9341 14.2265 34.2716V36.7284C14.2265 37.0592 14.5039 37.3428 14.8406 37.3428H16.3569C16.6391 37.3428 16.8859 37.5384 16.9516 37.8085C17.1911 38.8008 17.5846 39.7457 18.1171 40.6164C18.1171 40.6164 18.1292 40.6367 18.118 40.6164C18.2623 40.8594 18.2279 41.1634 18.0335 41.3657L16.9563 42.4455C16.8394 42.5604 16.7734 42.7156 16.7734 42.8779C16.7734 43.0399 16.8388 43.2016 16.9563 43.3165L18.6888 45.0378C18.8031 45.1591 18.9583 45.2198 19.1209 45.2198C19.2835 45.2198 19.4387 45.1591 19.553 45.0378L20.629 43.9645C20.745 43.8564 20.9003 43.7889 21.0629 43.7889H21.0643C21.1757 43.7889 21.2858 43.8228 21.381 43.8835H21.3821C22.251 44.4166 23.1965 44.8083 24.1862 45.0446H24.1874C24.4628 45.112 24.6578 45.3615 24.6587 45.6384V47.157C24.6587 47.4946 24.9361 47.7715 25.2728 47.7715H27.7272C28.0639 47.7715 28.3413 47.4946 28.3413 47.157V45.6384C28.3422 45.3615 28.5384 45.112 28.8126 45.0446C29.8029 44.8083 30.7492 44.4166 31.6179 43.8835H31.6184C31.8582 43.735 32.1681 43.7686 32.3704 43.9645L33.447 45.0446C33.5619 45.1591 33.7185 45.2269 33.8826 45.2269C34.0458 45.2269 34.2031 45.1591 34.3171 45.0378L36.0437 43.3097C36.1606 43.1948 36.2266 43.0399 36.2266 42.8779C36.2266 42.7156 36.1612 42.5604 36.0472 42.4455L34.9671 41.3725C34.7721 41.1698 34.7371 40.8594 34.8829 40.6164H34.8835C35.4154 39.7457 35.8089 38.8008 36.0487 37.8085L36.0534 37.7949C36.1241 37.5248 36.3671 37.3428 36.6431 37.3428H38.1594C38.4961 37.3428 38.7735 37.0592 38.7735 36.7284V34.2716C38.7735 33.9341 38.4961 33.6572 38.1594 33.6572H36.6431C36.3609 33.6572 36.1141 33.4613 36.0487 33.1847C35.8089 32.1924 35.4154 31.2475 34.8829 30.3836C34.8944 30.3972 34.8823 30.3768 34.8823 30.3768C34.7377 30.1406 34.7721 29.8299 34.9665 29.6275L36.0437 28.5542C36.1606 28.4328 36.2266 28.2776 36.2266 28.1153C36.2266 27.9533 36.1612 27.7984 36.0457 27.6835L34.3103 25.9554C34.1978 25.8409 34.0417 25.7731 33.8791 25.7731C33.7171 25.7731 33.5624 25.8341 33.4505 25.9487L32.3713 27.0288C32.1692 27.2246 31.8588 27.2582 31.6179 27.1165C31.6279 27.1233 31.6173 27.1165 31.6173 27.1165C30.7492 26.5831 29.8029 26.1917 28.8132 25.9487C28.8185 25.9487 28.812 25.9487 28.812 25.9487C28.5843 25.8948 28.4109 25.7124 28.3581 25.4965C28.3475 25.4494 28.3413 25.402 28.3413 25.3549ZM26.5001 31.4837C24.2834 31.4837 22.4837 33.2793 22.4837 35.5001C22.4837 37.7139 24.2834 39.5163 26.5001 39.5163C28.7166 39.5163 30.5163 37.7139 30.5163 35.5001C30.5163 33.2793 28.7166 31.4837 26.5001 31.4837ZM26.5001 32.7662C28.0088 32.7662 29.2338 33.988 29.2338 35.5001C29.2338 37.0053 28.0088 38.2338 26.5001 38.2338C24.9915 38.2338 23.7662 37.0053 23.7662 35.5001C23.7662 33.988 24.9915 32.7662 26.5001 32.7662Z" fill="#06CEAF"/>
<path fill-rule="evenodd" clip-rule="evenodd" d="M4.05318 13.3248C3.63082 13.6939 3.25143 14.109 2.92238 14.5617L2.25279 14.3153C1.60498 14.0842 0.883586 14.4201 0.643711 15.0644L0.0727201 16.6339C-0.157737 17.2791 0.177794 18.0006 0.821484 18.2437L1.49372 18.4836L1.49255 18.4842C1.45105 19.0414 1.4743 19.6036 1.56112 20.157L0.916257 20.4569C0.295525 20.7513 0.0203302 21.4984 0.309358 22.1247L1.01574 23.6424C1.30712 24.2626 2.05765 24.5372 2.68074 24.247L3.32531 23.9471C3.32531 23.9471 3.32766 23.9509 3.32531 23.9471C3.69263 24.3695 4.10792 24.7495 4.56295 25.0806L4.31513 25.7491C4.08673 26.3981 4.42285 27.1193 5.06477 27.3583L6.63382 27.9264L6.74596 27.9602C7.36198 28.1201 8.01538 27.7854 8.2426 27.1826L8.48277 26.5073C9.04287 26.5512 9.60474 26.5279 10.1572 26.4382L10.458 27.0845C10.7491 27.7047 11.4996 27.9797 12.1245 27.6939L13.6411 26.9877C14.2621 26.6934 14.5347 25.9422 14.2477 25.3202L13.9469 24.6738C14.371 24.3088 14.7504 23.8938 15.0777 23.4372L15.7494 23.6877C16.3951 23.9147 17.1165 23.5788 17.3561 22.9345L17.9274 21.3647C18.1575 20.7198 17.8223 19.9983 17.1804 19.7593L16.5093 19.5185C16.5491 18.9575 16.5255 18.395 16.439 17.8416L17.0835 17.5417C17.7063 17.2518 17.9798 16.5006 17.6925 15.8783L16.9861 14.3606C16.693 13.736 15.9442 13.4658 15.3194 13.7516L14.6748 14.0516C14.3072 13.6292 13.8919 13.2492 13.4389 12.9224L13.685 12.2498C13.9154 11.6049 13.579 10.8838 12.9353 10.6406L11.3639 10.0734L11.2253 10.0313C10.619 9.89268 9.98177 10.2247 9.75926 10.8205L9.51703 11.4913C8.95899 11.4519 8.39712 11.4748 7.84291 11.5605L7.54211 10.9144C7.25073 10.2939 6.50049 10.0193 5.8777 10.3092L4.36075 11.0153C3.73795 11.3053 3.46511 12.0565 3.75238 12.6787L4.05318 13.3248ZM7.22129 12.2051L6.78452 11.267C6.68945 11.0627 6.43662 10.9674 6.22854 11.0642L4.71246 11.7698C4.50438 11.8666 4.41461 12.1218 4.50968 12.3261L4.94645 13.2642C5.02769 13.4393 4.97647 13.6457 4.82578 13.7666L4.82637 13.7663C4.28452 14.2014 3.81242 14.7153 3.42921 15.2946H3.42891C3.32178 15.4512 3.12046 15.5195 2.93915 15.4568L1.96553 15.1033C1.86163 15.0656 1.74567 15.0688 1.64412 15.1159C1.54346 15.163 1.46576 15.2499 1.42809 15.3535L0.860629 16.9218C0.819424 17.0219 0.82325 17.137 0.871814 17.2412C0.916551 17.3371 1.00161 17.4142 1.10492 17.4522L2.08237 17.8087C2.26132 17.8778 2.37228 18.0595 2.35198 18.2517C2.35198 18.2517 2.34844 18.2634 2.35168 18.2517C2.27162 18.9384 2.30017 19.6351 2.43762 20.3171C2.47648 20.5067 2.38023 20.6989 2.2057 20.7801L1.26974 21.2158C1.06165 21.3126 0.969824 21.5634 1.06695 21.7721L1.77333 23.2898C1.8684 23.4941 2.12122 23.5894 2.32931 23.4926L3.26586 23.0566C3.4401 22.9754 3.64877 23.0252 3.76709 23.1732C4.20034 23.7172 4.71511 24.1878 5.29435 24.5726C5.29435 24.5726 5.30759 24.5817 5.29464 24.5723C5.45387 24.6809 5.52009 24.8784 5.45799 25.0594L5.10333 26.0364C5.06418 26.1409 5.06801 26.2557 5.11451 26.3557C5.16102 26.4558 5.24814 26.5371 5.3538 26.5741L6.91873 27.1393C7.0241 27.1814 7.13771 27.1743 7.23807 27.1275C7.33844 27.0807 7.41702 26.9986 7.45234 26.8909L7.80847 25.9183C7.84909 25.8182 7.92562 25.732 8.02598 25.6852L8.02686 25.6849C8.09573 25.6528 8.17344 25.6419 8.24967 25.6522L8.25055 25.6516C8.94045 25.7314 9.63712 25.7014 10.3161 25.5628L10.317 25.5622C10.5066 25.5248 10.6987 25.6228 10.7788 25.7935L11.2156 26.7319C11.3124 26.9403 11.5635 27.0316 11.7716 26.9347L13.2873 26.2289C13.4954 26.132 13.5873 25.8812 13.4901 25.6728L13.0536 24.7344C12.9745 24.5634 13.0239 24.3527 13.1737 24.2323C13.7173 23.8017 14.1894 23.2877 14.5727 22.7084L14.573 22.7081C14.6783 22.5474 14.8793 22.4791 15.0606 22.5418L16.0363 22.8995C16.1402 22.9374 16.2562 22.9342 16.3577 22.8868C16.4584 22.84 16.5361 22.7529 16.5717 22.6451L17.1412 21.0813C17.1804 20.9768 17.1768 20.862 17.1301 20.7619C17.0835 20.6618 16.9985 20.5847 16.8949 20.5464L15.9195 20.1941C15.7405 20.1252 15.6296 19.9433 15.6499 19.7514L15.6502 19.7511C15.7285 19.0602 15.6999 18.3635 15.5625 17.6818L15.5616 17.6721C15.5277 17.4849 15.6255 17.3024 15.7959 17.2229L16.7324 16.787C16.9402 16.6901 17.0303 16.4352 16.9349 16.2309L16.2285 14.7133C16.1317 14.5049 15.8806 14.4136 15.6726 14.5105L14.7363 14.9464C14.5618 15.0273 14.3531 14.9776 14.233 14.8254C13.7998 14.2815 13.285 13.8108 12.7075 13.4305C12.7184 13.4355 12.7052 13.4264 12.7052 13.4264C12.548 13.3219 12.48 13.1202 12.5418 12.9392L12.8985 11.9667C12.9359 11.8581 12.9321 11.743 12.8856 11.6429C12.8388 11.5428 12.7537 11.4657 12.6495 11.428L11.0808 10.8596C10.9781 10.8214 10.8624 10.8243 10.762 10.8711C10.662 10.9176 10.584 10.9997 10.5478 11.1028L10.1916 12.0803C10.123 12.2593 9.94115 12.3694 9.75161 12.3511C9.75956 12.3523 9.75102 12.3514 9.75102 12.3514C9.06171 12.2716 8.36445 12.3019 7.68338 12.4362C7.68662 12.4347 7.6825 12.4368 7.6825 12.4368C7.52651 12.4688 7.36699 12.4061 7.27251 12.2878C7.2522 12.2616 7.23483 12.2342 7.22129 12.2051ZM7.84615 16.5206C6.47695 17.1579 5.88182 18.7847 6.52021 20.1564C7.15684 21.524 8.78652 22.1197 10.1557 21.4825C11.5249 20.8449 12.1183 19.2142 11.4817 17.8466C10.8433 16.4747 9.21535 15.883 7.84615 16.5206ZM8.21494 17.3127C9.14677 16.8791 10.2546 17.2815 10.6896 18.2155C11.1223 19.1453 10.7188 20.2562 9.78693 20.6901C8.85509 21.1239 7.74519 20.7174 7.31254 19.7876C6.87782 18.8536 7.2831 17.7466 8.21494 17.3127Z" fill="#06CEAF"/>
</svg>
