<svg width="60" height="60" viewBox="0 0 60 60" fill="none" xmlns="http://www.w3.org/2000/svg">
<rect width="60" height="60" fill="url(#paint0_linear_5212_4025)"/>
<path d="M49.3538 26.5763C49.7415 26.5763 50 26.8955 50 27.2157V32.7692C50 32.9617 49.9349 33.1239 49.8056 33.2364C49.7087 33.3488 49.5477 33.4086 49.3538 33.4086H45.8969L45.8641 33.5656C45.444 35.3943 44.7012 37.1394 43.6996 38.7194L43.6352 38.856L46.0256 41.2412C46.1549 41.3688 46.22 41.4958 46.22 41.688C46.22 41.879 46.1549 42.0059 46.0256 42.1336L42.1484 46.004C41.8899 46.2589 41.502 46.2589 41.2435 46.004L38.8531 43.6189L38.7231 43.7048C37.1399 44.7025 35.3956 45.4502 33.5863 45.8663L33.4247 45.9022V49.3442C33.4247 49.5367 33.3596 49.6989 33.2304 49.8114C33.1334 49.9238 32.9724 49.9836 32.7785 49.9836H27.2215C27.0276 49.9836 26.8653 49.9238 26.7684 49.8114C26.6391 49.6989 26.5753 49.5367 26.5753 49.3442V45.9022L26.4137 45.8663C24.6044 45.4502 22.8589 44.7025 21.2757 43.7048L21.1469 43.6189L18.7565 46.004C18.498 46.2589 18.1101 46.2589 17.8516 46.004L13.9744 42.1336C13.8774 42.0059 13.8128 41.879 13.8128 41.688C13.8128 41.4958 13.8774 41.3688 13.9744 41.2412L16.3648 38.856L16.3004 38.7194C15.2988 37.1394 14.556 35.3947 14.1359 33.5659L14.1031 33.4086H10.6462C10.4523 33.4086 10.2913 33.3488 10.1944 33.2364C10.0651 33.1239 10 32.9617 10 32.7692V27.2157C10 27.0232 10.0651 26.861 10.1944 26.7485C10.2913 26.6361 10.4523 26.5763 10.6462 26.5763H14.0059L14.0387 26.4193C14.4588 24.5905 15.2017 22.8442 16.2033 21.2655L16.3004 21.1292L13.91 18.7424C13.7808 18.6148 13.7156 18.4878 13.7156 18.2969C13.7156 18.105 13.7808 17.9783 13.91 17.8507L17.8516 13.9803C18.1101 13.7247 18.498 13.7247 18.7565 13.9796L21.1469 16.3664L21.2757 16.2801C22.8589 15.2824 24.6044 14.5334 26.4137 14.1186L26.5753 14.083V10.6394C26.5753 10.4468 26.6391 10.2847 26.7684 10.1722C26.8653 10.0598 27.0276 10 27.2215 10H32.7785C32.9724 10 33.1334 10.0598 33.2304 10.1722C33.3596 10.2847 33.4247 10.4468 33.4247 10.6394V14.083L33.5863 14.1186C35.3956 14.5334 37.1399 15.2827 38.7231 16.2801L38.8531 16.3664L41.2435 13.9796C41.502 13.7247 41.8899 13.7247 42.1484 13.9796L46.0256 17.85C46.1549 17.9777 46.22 18.1046 46.22 18.2969C46.22 18.4878 46.1549 18.6148 46.0256 18.7424L43.6352 21.1292L43.6996 21.2655C44.7012 22.8442 45.444 24.5905 45.8641 26.4193L45.8969 26.5763H49.3538ZM45.4122 32.1297H48.7076V27.8551H45.4122C45.0891 27.8551 44.8307 27.6648 44.766 27.3446C44.346 25.2119 43.5696 23.2516 42.2772 21.4603V21.4584C42.0833 21.2015 42.1489 20.8187 42.3428 20.6277L44.6689 18.2969L41.6966 15.3189L39.3693 17.6387C39.1108 17.829 38.7884 17.9088 38.53 17.714C36.8175 16.4342 34.7823 15.5796 32.6498 15.2374C32.3267 15.1719 32.1323 14.914 32.1323 14.5948V11.2788H27.8677V14.5948C27.8677 14.915 27.6733 15.1735 27.3502 15.2381C25.2177 15.6639 23.2471 16.4329 21.47 17.7111V17.7127C21.2116 17.9063 20.8233 17.8403 20.6295 17.6494L18.3034 15.3189L15.3311 18.2969L17.6572 20.6167C17.8511 20.8772 17.9154 21.1977 17.7216 21.4565C16.4292 23.1641 15.5894 25.2125 15.234 27.3475C15.1693 27.6658 14.9114 27.8551 14.6206 27.8551H11.2924V32.1297H14.6206C14.9114 32.1297 15.1693 32.3194 15.234 32.6406C15.6863 34.7714 16.4292 36.7333 17.7216 38.5232V38.5252C17.9154 38.7827 17.8511 39.1659 17.6572 39.3578L15.3311 41.688L18.3034 44.666L20.6295 42.3462C20.888 42.1546 21.2116 42.076 21.47 42.2696C23.1825 43.551 25.2177 44.4053 27.3502 44.7474C27.6733 44.8121 27.8677 45.0699 27.8677 45.3901V48.7048H32.1323V45.3901C32.1323 45.0689 32.3267 44.8104 32.6498 44.7468C34.7823 44.3197 36.7529 43.552 38.53 42.2722V42.2709C38.7884 42.0786 39.1754 42.1436 39.3693 42.3355L41.6966 44.666L44.6689 41.688L42.3428 39.3681C42.1812 39.1074 42.0833 38.7856 42.2772 38.5268C43.5696 36.8195 44.4106 34.7708 44.766 32.637C44.8307 32.3178 45.0891 32.1297 45.4122 32.1297Z" fill="#06CEAF"/>
<path d="M35.4369 26.0113C35.4369 26.0038 35.4369 25.9956 35.4369 25.9866C35.6615 25.6894 36.1109 25.628 36.4853 25.8421C36.4853 25.8428 40.6775 29.3398 40.6775 29.3398C40.6775 29.3451 40.6775 29.3503 40.6775 29.3548C40.9021 29.5004 40.9773 29.7224 40.9773 29.9403C40.9773 30.1686 40.8272 30.3906 40.6775 30.5452C40.6401 30.5474 36.4853 34.05 36.4853 34.05C36.4853 34.0549 36.4473 34.0602 36.4473 34.0654C36.4473 34.0875 36.4095 34.1047 36.3347 34.123C36.2598 34.1612 36.1472 34.1904 36.0349 34.1904C35.8103 34.1904 35.5866 34.0242 35.4369 33.8692C35.1374 33.5761 35.212 33.14 35.5114 32.8443C35.5114 32.8428 38.8058 30.1207 38.8058 30.1207C38.8807 30.0765 38.9184 30.0103 38.9184 29.9403C38.9184 29.8703 38.8807 29.804 38.8058 29.7598L35.5114 27.0302C35.5114 27.028 35.5114 27.0257 35.5114 27.0235C35.212 26.8071 35.1374 26.3006 35.4369 26.0113Z" fill="#06CEAF"/>
<path d="M24.8765 25.9934C25.183 26.2915 25.1064 26.735 24.8765 27.0399L21.5042 29.7765C21.4658 29.8211 21.4278 29.888 21.4278 29.9586C21.4278 30.0293 21.4658 30.0961 21.5042 30.1407L24.9154 32.8955C24.9154 32.8977 24.9154 32.9 24.9154 32.9019C25.2219 33.1214 25.2983 33.6318 24.9917 33.9238C24.9917 33.9347 24.9911 33.9468 24.9528 33.9597C24.7995 34.1807 24.6079 34.2479 24.378 34.2479C24.2247 34.2479 24.0718 34.26 23.9185 34.1202C23.9185 34.1153 23.9185 34.1108 23.9185 34.1062L19.6272 30.5646C19.6272 30.5593 19.6272 30.554 19.6272 30.5495C19.3972 30.4025 19.3203 30.1796 19.3203 29.9586C19.3203 29.8426 19.3209 29.7259 19.3592 29.6288C19.3975 29.565 19.4347 29.5075 19.473 29.4822C19.5113 29.4739 19.5119 29.4637 19.5119 29.4516L23.8032 25.9099C23.8416 25.9058 23.8422 25.9009 23.8422 25.896C24.1487 25.5971 24.6082 25.695 24.8765 25.9934Z" fill="#06CEAF"/>
<path d="M32.4404 25.8525C32.4404 25.8588 32.4769 25.8644 32.4769 25.8689C32.8513 26.0157 32.9633 26.4611 32.7387 26.9017V26.9073L28.8462 33.8152C28.6965 34.0391 28.3967 34.1911 28.1721 34.1911C28.0224 34.1911 27.9475 34.1944 27.7978 34.1241C27.4235 33.8965 27.2734 33.4548 27.498 33.0845C27.498 33.0823 27.498 33.0804 27.498 33.0785L31.392 26.1598C31.6166 25.7881 32.066 25.6293 32.4404 25.8525Z" fill="#06CEAF"/>
<defs>
<linearGradient id="paint0_linear_5212_4025" x1="30" y1="0" x2="30" y2="60" gradientUnits="userSpaceOnUse">
<stop stop-color="#ECF6F4"/>
<stop offset="1" stop-color="#ECF6F4" stop-opacity="0"/>
</linearGradient>
</defs>
</svg>
