<svg width="80" height="60" viewBox="0 0 80 60" fill="none" xmlns="http://www.w3.org/2000/svg">
<rect width="80" height="60" rx="30" fill="#202020"/>
<path d="M38.4373 48.4375C36.8865 48.4375 35.6248 47.1758 35.6248 45.625V42.9784L35.4173 42.9044C33.8531 42.3466 32.4098 41.5088 31.1274 40.4145L30.9595 40.2712L28.6558 41.6014C28.2282 41.8483 27.7429 41.9788 27.2524 41.9788C26.2493 41.9788 25.3148 41.4398 24.8137 40.572L23.2512 37.8656C22.4759 36.5227 22.9377 34.7992 24.2808 34.0237L26.5434 32.7174L26.5032 32.5003C26.3327 31.5794 26.2498 30.7616 26.2498 30C26.2498 29.2383 26.3327 28.4204 26.5031 27.4997L26.5433 27.2826L24.2807 25.9763C22.9377 25.2009 22.4759 23.4774 23.2512 22.1343L24.8137 19.428C25.3148 18.5603 26.2493 18.0212 27.2525 18.0212C27.7429 18.0212 28.2281 18.1517 28.6557 18.3985L30.9595 19.7286L31.1274 19.5854C32.4105 18.4909 33.8538 17.6532 35.4173 17.0957L35.6248 17.0216V14.375C35.6248 12.8242 36.8865 11.5625 38.4373 11.5625H41.5623C43.1132 11.5625 44.3748 12.8242 44.3748 14.375V17.0216L44.5823 17.0956C46.1458 17.6531 47.5891 18.4908 48.8722 19.5853L49.0401 19.7285L51.3439 18.3984C51.7715 18.1516 52.2567 18.0212 52.7471 18.0212C53.7503 18.0212 54.6848 18.5602 55.1859 19.428L56.7484 22.1343C57.5237 23.4774 57.062 25.2009 55.7189 25.9763L53.4563 27.2826L53.4965 27.4997C53.667 28.4204 53.7498 29.2383 53.7498 30C53.7498 30.7616 53.667 31.5794 53.4966 32.5001L53.4564 32.7172L55.719 34.0235C57.062 34.7991 57.5238 36.5226 56.7485 37.8655L55.186 40.5718C54.6849 41.4395 53.7505 41.9787 52.7476 41.9787C52.7476 41.9787 52.7475 41.9787 52.7473 41.9787C52.2568 41.9787 51.7715 41.8481 51.344 41.6013L49.0402 40.2711L48.8723 40.4144C47.59 41.5087 46.1466 42.3464 44.5824 42.9042L44.3748 42.9784V45.625C44.3748 47.1758 43.1132 48.4375 41.5623 48.4375H38.4373Z" stroke="#00E0B4" stroke-width="1.5" stroke-miterlimit="10" stroke-linecap="round" stroke-linejoin="round"/>
<path d="M40 36.25C43.4518 36.25 46.25 33.4518 46.25 30C46.25 26.5482 43.4518 23.75 40 23.75C36.5482 23.75 33.75 26.5482 33.75 30C33.75 33.4518 36.5482 36.25 40 36.25Z" stroke="#00E0B4" stroke-width="1.5" stroke-miterlimit="10" stroke-linecap="round" stroke-linejoin="round"/>
</svg>
