<svg width="90" height="70" viewBox="0 0 90 70" fill="none" xmlns="http://www.w3.org/2000/svg">
<path d="M68.0962 33.0128L47.1384 12.0566C46.8513 11.7693 46.5104 11.5414 46.1352 11.3859C45.76 11.2304 45.3578 11.1504 44.9517 11.1504C44.5456 11.1504 44.1434 11.2304 43.7682 11.3859C43.393 11.5414 43.0521 11.7693 42.765 12.0566L38.4147 16.409L43.9341 21.9285C44.583 21.7081 45.2806 21.6737 45.9481 21.8291C46.6155 21.9846 47.2262 22.3237 47.7109 22.8081C48.1983 23.2961 48.5386 23.9114 48.6928 24.5836C48.847 25.2558 48.8088 25.9579 48.5828 26.6095L53.9042 31.9294C54.556 31.703 55.2583 31.6649 55.9308 31.8194C56.6032 31.9738 57.2185 32.3147 57.7061 32.8028C58.0476 33.1443 58.3186 33.5497 58.5035 33.996C58.6883 34.4422 58.7835 34.9205 58.7835 35.4035C58.7835 35.8865 58.6883 36.3647 58.5035 36.8109C58.3186 37.2572 58.0476 37.6626 57.7061 38.0041C57.0155 38.6939 56.0794 39.0814 55.1033 39.0814C54.1273 39.0814 53.1911 38.6939 52.5006 38.0041C51.9876 37.4903 51.6381 36.8362 51.4961 36.1242C51.354 35.4121 51.4258 34.674 51.7024 34.0027L46.7398 29.0417V42.0996C47.2636 42.3583 47.7182 42.7381 48.066 43.2075C48.4138 43.677 48.6447 44.2225 48.7397 44.7989C48.8346 45.3754 48.7909 45.9662 48.6121 46.5224C48.4333 47.0785 48.1245 47.5841 47.7114 47.9972C47.3699 48.3388 46.9645 48.6097 46.5183 48.7946C46.072 48.9794 45.5938 49.0746 45.1108 49.0746C44.6278 49.0746 44.1495 48.9794 43.7033 48.7946C43.257 48.6097 42.8516 48.3388 42.5101 47.9972C42.1685 47.6557 41.8975 47.2502 41.7125 46.804C41.5276 46.3577 41.4325 45.8793 41.4325 45.3963C41.4325 44.9132 41.5276 44.4349 41.7125 43.9886C41.8975 43.5423 42.1685 43.1369 42.5101 42.7954C42.8543 42.4505 43.2633 42.1773 43.7137 41.9914V28.8134C43.2652 28.6287 42.8576 28.3571 42.5143 28.0144C42.1711 27.6717 41.8989 27.2645 41.7135 26.8163C41.5281 26.368 41.433 25.8876 41.4338 25.4025C41.4346 24.9175 41.5313 24.4374 41.7182 23.9898L36.2761 18.5466L21.9044 32.9146C21.3253 33.4949 21 34.2812 21 35.101C21 35.9208 21.3253 36.7071 21.9044 37.2874L42.8632 58.2463C43.4435 58.8252 44.2297 59.1504 45.0494 59.1504C45.8691 59.1504 46.6553 58.8252 47.2355 58.2463L68.0962 37.3856C68.6753 36.8053 69.0006 36.019 69.0006 35.1992C69.0006 34.3794 68.6753 33.5931 68.0962 33.0128Z" fill="#202020"/>
</svg>
