<svg xmlns="http://www.w3.org/2000/svg" width="70" height="50" viewBox="0 0 70 50" fill="none" class="mt-5" data-v-inspector="components/content/opinion-md.vue:11:7" data-v-5b94615c=""><rect width="70" height="50" rx="25" fill="#F3FEFC" data-v-inspector="components/content/opinion-md.vue:12:9" data-v-5b94615c=""/><rect width="70" height="50" rx="25" fill="black" fill-opacity="0.06" data-v-inspector="components/content/opinion-md.vue:13:9" data-v-5b94615c=""/><path d="M49.6664 25.1872C49.6664 24.2069 49.5686 23.1949 49.4056 22.2461H35.2891V27.8438H43.3743C43.0483 29.6464 41.9724 31.2277 40.3749 32.2397L45.2 35.8766C48.0363 33.3149 49.6664 29.5832 49.6664 25.1872Z" fill="#202020" data-v-inspector="components/content/opinion-md.vue:14:9" data-v-5b94615c=""/><path d="M35.2905 39.3537C39.3331 39.3537 42.7237 38.0571 45.2014 35.8433L40.3764 32.238C39.0397 33.1235 37.3118 33.6295 35.2905 33.6295C31.3783 33.6295 28.0855 31.0679 26.8793 27.6523L21.9238 31.3525C24.4668 36.2544 29.6178 39.3537 35.2905 39.3537Z" fill="#202020" data-v-inspector="components/content/opinion-md.vue:17:9" data-v-5b94615c=""/><path d="M26.8788 27.6221C26.2593 25.8194 26.2593 23.8586 26.8788 22.056L21.9233 18.3242C19.8042 22.4355 19.8042 27.2742 21.9233 31.3538L26.8788 27.6221Z" fill="#202020" data-v-inspector="components/content/opinion-md.vue:20:9" data-v-5b94615c=""/><path d="M35.2905 16.0786C37.4096 16.047 39.4961 16.8376 41.0284 18.2608L45.2992 14.0862C42.5933 11.6195 39.0071 10.2912 35.2905 10.3228C29.6178 10.3228 24.4668 13.4221 21.9238 18.324L26.8793 22.0558C28.0855 18.6086 31.3783 16.0786 35.2905 16.0786Z" fill="#202020" data-v-inspector="components/content/opinion-md.vue:23:9" data-v-5b94615c=""/></svg>