<svg width="80" height="60" viewBox="0 0 80 60" fill="none" xmlns="http://www.w3.org/2000/svg">
<rect width="80" height="60" rx="30" fill="#08DBBA"/>
<g clip-path="url(#clip0_348_228)">
<mask id="mask0_348_228" style="mask-type:luminance" maskUnits="userSpaceOnUse" x="20" y="10" width="40" height="40">
<path d="M20 10H60V50H20V10Z" fill="white"/>
</mask>
<g mask="url(#mask0_348_228)">
<path d="M38.1172 40.6693C38.1172 40.0034 37.8529 39.3645 37.3816 38.8937C36.9109 38.4231 36.2727 38.1588 35.6067 38.1588H33.0963C32.4304 38.1588 31.7922 38.4231 31.3215 38.8937C30.8501 39.3645 30.5859 40.0034 30.5859 40.6693C30.5859 41.3345 30.8501 41.9734 31.3215 42.4441C31.7922 42.9148 32.4304 43.1797 33.0963 43.1797H35.6067C36.2727 43.1797 36.9109 42.9148 37.3816 42.4441C37.8529 41.9734 38.1172 41.3345 38.1172 40.6693Z" stroke="black" stroke-width="1.5" stroke-miterlimit="10" stroke-linecap="round" stroke-linejoin="round"/>
<path d="M36.862 35.6484C36.862 34.9826 36.5978 34.3437 36.1264 33.873C35.6558 33.4023 35.0175 33.138 34.3516 33.138H31.8411C31.1753 33.138 30.537 33.4023 30.0664 33.873C29.595 34.3437 29.3308 34.9826 29.3308 35.6484C29.3308 36.3137 29.595 36.9526 30.0664 37.4233C30.537 37.894 31.1753 38.1588 31.8411 38.1588H34.3516C35.0175 38.1588 35.6558 37.894 36.1264 37.4233C36.5978 36.9526 36.862 36.3137 36.862 35.6484Z" stroke="black" stroke-width="1.5" stroke-miterlimit="10" stroke-linecap="round" stroke-linejoin="round"/>
<path d="M35.6067 30.6275C35.6067 29.9617 35.3425 29.3228 34.8711 28.8521C34.4004 28.3814 33.7622 28.1172 33.0963 28.1172H30.5858C29.92 28.1172 29.2817 28.3814 28.811 28.8521C28.3396 29.3228 28.0754 29.9617 28.0754 30.6275C28.0754 31.2929 28.3396 31.9317 28.811 32.4024C29.2817 32.8732 29.92 33.1379 30.5858 33.1379H33.0963C33.7622 33.1379 34.4004 32.8732 34.8711 32.4024C35.3425 31.9317 35.6067 31.2929 35.6067 30.6275Z" stroke="black" stroke-width="1.5" stroke-miterlimit="10" stroke-linecap="round" stroke-linejoin="round"/>
<path d="M34.3516 25.6068C34.3516 24.9409 34.0873 24.302 33.616 23.8313C33.1453 23.3606 32.507 23.0964 31.8411 23.0964H29.3307C28.6648 23.0964 28.0266 23.3606 27.5559 23.8313C27.0845 24.302 26.8203 24.9409 26.8203 25.6068C26.8203 26.272 27.0845 26.9109 27.5559 27.3816C28.0266 27.8523 28.6648 28.1172 29.3307 28.1172H31.8411C32.507 28.1172 33.1453 27.8523 33.616 27.3816C34.0873 26.9109 34.3516 26.272 34.3516 25.6068Z" stroke="black" stroke-width="1.5" stroke-miterlimit="10" stroke-linecap="round" stroke-linejoin="round"/>
<path d="M45.6483 43.1797L51.2968 48.8281L58.828 41.2969L53.1796 35.6484C53.1796 35.6484 51.394 28.5076 50.5166 24.9973C50.2374 23.8802 49.2333 23.0963 48.0816 23.0963H41.8827C41.2168 23.0963 40.5785 23.3605 40.1079 23.8312C39.6365 24.302 39.3723 24.9409 39.3723 25.6067C39.3723 26.272 39.6365 26.9109 40.1079 27.3816C40.5785 27.8523 41.2168 28.1172 41.8827 28.1172H45.6483" stroke="black" stroke-width="1.5" stroke-miterlimit="10" stroke-linecap="round" stroke-linejoin="round"/>
<path d="M26.8203 24.3516L21.1719 18.7031L28.7032 11.1719L34.3516 16.8203C34.3516 16.8203 41.4925 18.6052 45.002 19.4826C46.1198 19.7619 46.9036 20.766 46.9036 21.9183V23.0963H41.8828C41.2169 23.0963 40.5786 23.3605 40.108 23.8312C39.6366 24.302 39.3724 24.9409 39.3724 25.6067C39.3724 26.272 39.6366 26.9109 40.108 27.3816C40.5786 27.8523 41.2169 28.1172 41.8828 28.1172H45.6484C45.6484 28.1172 47.3863 35.0685 48.5009 39.527C48.7205 40.405 48.5229 41.3352 47.9662 42.0488C47.4088 42.7623 46.5541 43.1797 45.6491 43.1797H35.6068" stroke="black" stroke-width="1.5" stroke-miterlimit="10" stroke-linecap="round" stroke-linejoin="round"/>
</g>
</g>
<defs>
<clipPath id="clip0_348_228">
<rect width="40" height="40" fill="white" transform="translate(20 10)"/>
</clipPath>
</defs>
</svg>
