<svg width="60" height="60" viewBox="0 0 60 60" fill="none" xmlns="http://www.w3.org/2000/svg">
<rect width="60" height="60" fill="url(#paint0_linear_4837_2981)"/>
<path d="M44.0909 27.6281V25.9091C44.0909 18.2395 37.8515 12 30.1818 12C22.5122 12 16.2727 18.2395 16.2727 25.9091V27.6281C14.4077 28.0081 13 29.6609 13 31.6364V36.1364C13 38.3921 14.8352 40.2273 17.0909 40.2273H20.3636C21.2661 40.2273 22 39.4934 22 38.5909V29.1818C22 28.2794 21.2661 27.5455 20.3636 27.5455H17.9091V25.9091C17.9091 23.4484 18.6397 21.1563 19.892 19.2331L20.2777 19.6193C20.7445 20.0861 21.3626 20.3422 22.0213 20.3422H22.0348C22.6869 20.3389 23.2956 20.082 23.7485 19.6185C25.456 17.8717 27.7408 16.9091 30.1818 16.9091C32.6229 16.9091 34.9076 17.8717 36.6156 19.6189C37.068 20.082 37.6772 20.3389 38.3289 20.3422H38.3424C39.0006 20.3422 39.6195 20.0857 40.0859 19.6193L40.4717 19.2331C41.7239 21.1563 42.4545 23.4484 42.4545 25.9091V27.5455H40C39.0975 27.5455 38.3636 28.2794 38.3636 29.1818V38.5909C38.3636 39.4934 39.0975 40.2273 40 40.2273H42.4545V41.8636C42.4545 43.2173 41.3537 44.3182 40 44.3182H33.743C33.3899 43.1367 32.2944 42.2727 31 42.2727H29.3636C27.785 42.2727 26.5 43.5577 26.5 45.1364C26.5 46.715 27.785 48 29.3636 48H31C32.2944 48 33.3899 47.1356 33.743 45.9545H40C42.2557 45.9545 44.0909 44.1194 44.0909 41.8636V40.1446C45.956 39.7646 47.3636 38.1115 47.3636 36.1364V31.6364C47.3636 29.6609 45.956 28.0081 44.0909 27.6281ZM20.3649 38.5909H17.0909C15.7372 38.5909 14.6364 37.49 14.6364 36.1364V31.6364C14.6364 30.2827 15.7372 29.1818 17.0909 29.1818H20.3636L20.3649 38.5909ZM38.9282 18.4624C38.7715 18.6195 38.5633 18.7058 38.342 18.7058C38.3403 18.7058 38.3387 18.7058 38.3375 18.7058C38.1255 18.705 37.9296 18.6228 37.7852 18.4755C35.7675 16.41 33.0671 15.2727 30.1818 15.2727C27.2965 15.2727 24.5961 16.41 22.5785 18.4747C22.4336 18.6224 22.2377 18.7046 22.0258 18.7054C22.0245 18.7054 22.0229 18.7054 22.0213 18.7054C21.8 18.7054 21.5917 18.6191 21.435 18.462L20.8844 17.911C23.1373 15.2965 26.4681 13.6364 30.1818 13.6364C33.8955 13.6364 37.2264 15.2965 39.4788 17.9114L38.9282 18.4624ZM31 46.3636H29.3636C28.687 46.3636 28.1364 45.813 28.1364 45.1364C28.1364 44.4597 28.687 43.9091 29.3636 43.9091H31C31.6766 43.9091 32.2273 44.4597 32.2273 45.1364C32.2273 45.813 31.6766 46.3636 31 46.3636ZM45.7273 36.1364C45.7273 37.49 44.6264 38.5909 43.2727 38.5909H40V29.1818H43.2727C44.6264 29.1818 45.7273 30.2827 45.7273 31.6364V36.1364Z" fill="#06CEAF"/>
<defs>
<linearGradient id="paint0_linear_4837_2981" x1="30" y1="0" x2="30" y2="60" gradientUnits="userSpaceOnUse">
<stop stop-color="#ECF6F4"/>
<stop offset="1" stop-color="#ECF6F4" stop-opacity="0"/>
</linearGradient>
</defs>
</svg>
