<svg width="40" height="43" viewBox="0 0 40 43" fill="none" xmlns="http://www.w3.org/2000/svg">
<path d="M39.1749 40.5946H37.3653V14.3186C37.3653 13.0956 36.3702 12.1006 35.1473 12.1006H31.1024C29.8793 12.1006 28.8844 13.0956 28.8844 14.3186V40.5946H24.2893V26.2237C24.2893 25.0006 23.2943 24.0057 22.0713 24.0057H18.0264C16.8034 24.0057 15.8084 25.0007 15.8084 26.2237V40.5946H11.2133V33.152C11.2133 31.929 10.2183 30.934 8.99533 30.934H4.95035C3.72733 30.934 2.73235 31.9291 2.73235 33.152V40.5946H0.825086C0.369391 40.5946 0 40.964 0 41.4197C0 41.8754 0.369391 42.2448 0.825086 42.2448H39.1749C39.6306 42.2448 40 41.8754 40 41.4197C40 40.964 39.6306 40.5946 39.1749 40.5946ZM9.56299 40.5946H4.38244V33.152C4.38244 32.8389 4.63715 32.5842 4.95027 32.5842H8.99517C9.30829 32.5842 9.56299 32.8389 9.56299 33.152V40.5946ZM22.639 40.5946H17.4585V26.2237C17.4585 25.9105 17.7132 25.6558 18.0263 25.6558H22.0712C22.3843 25.6558 22.639 25.9105 22.639 26.2237V40.5946ZM35.7151 40.5946H30.5345V14.3186C30.5345 14.0055 30.7892 13.7508 31.1024 13.7508H35.1473C35.4604 13.7508 35.7151 14.0055 35.7151 14.3186V40.5946Z" fill="#07E7C4"/>
<path d="M37.3633 0.86766C37.3749 0.642494 37.2957 0.413533 37.1237 0.241585C36.9518 0.0696372 36.7228 -0.00965351 36.4977 0.00198021C36.4844 0.00140265 36.4713 0 36.4577 0L31.466 0C31.0103 0 30.6409 0.369391 30.6409 0.825086C30.6409 1.28078 31.0103 1.65017 31.466 1.65017H34.5482L22.3714 13.827L19.2955 10.7511C19.1408 10.5964 18.9309 10.5095 18.7121 10.5095C18.4933 10.5095 18.2834 10.5964 18.1287 10.7511L3.8354 25.0445C3.5132 25.3667 3.5132 25.8891 3.8354 26.2114C3.99654 26.3724 4.20768 26.4529 4.41882 26.4529C4.62995 26.4529 4.84118 26.3724 5.00223 26.2112L18.7121 12.5013L21.788 15.5772C22.1102 15.8994 22.6327 15.8994 22.9549 15.5772L35.7152 2.81709V5.60671C35.7152 6.0624 36.0845 6.43179 36.5402 6.43179C36.9959 6.43179 37.3653 6.0624 37.3653 5.60671V0.907595C37.3653 0.894146 37.3639 0.881027 37.3633 0.86766Z" fill="#07E7C4"/>
</svg>
