<svg width="80" height="60" viewBox="0 0 80 60" fill="none" xmlns="http://www.w3.org/2000/svg">
<rect width="80" height="60" rx="30" fill="#F3FEFC"/>
<rect width="80" height="60" rx="30" fill="black" fill-opacity="0.06"/>
<g clip-path="url(#clip0_7292_13647)">
<path d="M54.1416 30C54.1416 29.1515 54.0666 28.3204 53.9234 27.513L58.2402 23.9351L54.373 17.237L49.1128 19.1876C47.8482 18.1208 46.3943 17.2716 44.8081 16.6982L43.8681 11.1719H36.1338L35.1938 16.6981C33.6076 17.2715 32.1537 18.1207 30.8891 19.1875L25.6289 17.2369L21.7617 23.935L26.0785 27.513C25.9352 28.3204 25.8603 29.1515 25.8603 30C25.8603 30.8485 25.9352 31.6796 26.0785 32.487L21.7617 36.0649L25.6289 42.7631L30.8891 40.8125C32.1537 41.8793 33.6076 42.7285 35.1938 43.3019L36.1338 48.8281H43.8681L44.8081 43.3019C46.3943 42.7285 47.8482 41.8793 49.1128 40.8125L54.373 42.7631L58.2402 36.0649L53.9234 32.487C54.0666 31.6796 54.1416 30.8485 54.1416 30Z" stroke="#202020" stroke-width="1.5" stroke-miterlimit="10"/>
<path d="M33.6758 29.3674C33.6758 25.8684 36.5774 22.9668 40.0764 22.9668C42.6366 22.9668 44.7702 24.4176 45.7943 26.5512" stroke="#202020" stroke-width="1.5" stroke-miterlimit="10"/>
<path d="M41.3242 26.5628H46.3264V21.5605" stroke="#202020" stroke-width="1.5" stroke-miterlimit="10"/>
<path d="M46.349 30.6621C46.349 34.1612 43.4473 37.0627 39.9484 37.0627C37.3881 37.0627 35.2545 35.612 34.2305 33.4784" stroke="#202020" stroke-width="1.5" stroke-miterlimit="10"/>
<path d="M38.6546 33.4375H33.6523V38.4398" stroke="#202020" stroke-width="1.5" stroke-miterlimit="10"/>
</g>
<defs>
<clipPath id="clip0_7292_13647">
<rect width="40" height="40" fill="white" transform="translate(20 10)"/>
</clipPath>
</defs>
</svg>
