<svg width="80" height="60" viewBox="0 0 80 60" fill="none" xmlns="http://www.w3.org/2000/svg">
<rect width="80" height="60" rx="30" fill="#F3FEFC"/>
<rect width="80" height="60" rx="30" fill="black" fill-opacity="0.06"/>
<path d="M58.3784 33.6731H55.2124V29.5804C55.2124 29.1171 54.9035 28.8082 54.4402 28.8082H40.7722V25.4878H43.9382C44.8649 25.4878 45.5598 24.7928 45.5598 23.8662V16.0669C45.5598 15.1403 44.8649 14.4453 43.9382 14.4453H36.0618C35.1351 14.4453 34.4402 15.1403 34.4402 16.0669V23.9434C34.4402 24.87 35.1351 25.565 36.0618 25.565H39.2278V28.8082H25.5598C25.0965 28.8082 24.7876 29.1171 24.7876 29.5804V33.6731H21.6216C20.695 33.6731 20 34.3681 20 35.2947V43.1712C20 44.0978 20.695 44.7928 21.6216 44.7928H29.4981C30.4247 44.7928 31.1197 44.0978 31.1197 43.1712V35.2947C31.1197 34.3681 30.4247 33.6731 29.4981 33.6731H26.332V30.3526H39.2278V33.6731H36.0618C35.1351 33.6731 34.4402 34.3681 34.4402 35.2947V43.1712C34.4402 44.0978 35.1351 44.7928 36.0618 44.7928H43.9382C44.8649 44.7928 45.5598 44.0978 45.5598 43.1712V35.2947C45.5598 34.3681 44.8649 33.6731 43.9382 33.6731H40.7722V30.3526H53.668V33.6731H50.5019C49.5753 33.6731 48.8803 34.3681 48.8803 35.2947V43.1712C48.8803 44.0978 49.5753 44.7928 50.5019 44.7928H58.3784C59.305 44.7928 60 44.0978 60 43.1712V35.2947C60 34.3681 59.2278 33.6731 58.3784 33.6731ZM29.5753 35.2947C29.4981 35.2175 29.5753 35.2175 29.5753 35.2947V43.1712C29.5753 43.2484 29.5753 43.2484 29.4981 43.2484H21.6216C21.5444 43.2484 21.5444 43.2484 21.5444 43.1712V35.2947C21.5444 35.2175 21.5444 35.2175 21.6216 35.2175L29.5753 35.2947ZM44.0154 35.2947C43.9382 35.2175 44.0154 35.2175 44.0154 35.2947V43.1712C44.0154 43.2484 44.0154 43.2484 43.9382 43.2484H36.0618C35.9846 43.2484 35.9846 43.2484 35.9846 43.1712V35.2947C35.9846 35.2175 35.9846 35.2175 36.0618 35.2175L44.0154 35.2947ZM35.9846 23.8662C35.9846 23.9434 36.0618 23.9434 35.9846 23.8662V16.0669C35.9846 15.9897 35.9846 15.9897 36.0618 15.9897H43.9382C44.0154 15.9897 44.0154 15.9897 44.0154 16.0669V23.9434C44.0154 24.0206 44.0154 24.0206 43.9382 24.0206L35.9846 23.8662ZM58.4556 43.094C58.3784 43.1712 58.4556 43.1712 58.4556 43.094L50.5019 43.1712C50.4247 43.1712 50.4247 43.1712 50.4247 43.094V35.2947C50.4247 35.2175 50.4247 35.2175 50.5019 35.2175H58.3784C58.4556 35.2175 58.4556 35.2175 58.4556 35.2947V43.094Z" fill="#202020"/>
</svg>
