<svg width="81" height="60" viewBox="0 0 81 60" fill="none" xmlns="http://www.w3.org/2000/svg">
<rect x="0.332031" width="80" height="60" rx="30" fill="#08DBBA"/>
<g clip-path="url(#clip0_6895_7645)">
<path fill-rule="evenodd" clip-rule="evenodd" d="M53.7155 12.6591H44.8946C43.1255 12.6591 41.6915 14.0931 41.6915 15.8622V30.248C41.6915 31.0679 41.027 31.7324 40.2071 31.7324H26.1988C24.4297 31.7324 22.9956 33.1665 22.9956 34.9355V43.392C21.6402 43.7675 20.6445 45.0096 20.6445 46.4816C20.6445 48.2505 22.0827 49.6875 23.855 49.6875C25.6273 49.6875 27.0655 48.2505 27.0655 46.4816C27.0655 45.0096 26.0698 43.7675 24.7144 43.392V34.9355C24.7144 34.1157 25.3789 33.4512 26.1988 33.4512H40.2071C41.9762 33.4512 43.4102 32.0171 43.4102 30.248V15.8622C43.4102 15.0423 44.0748 14.3778 44.8946 14.3778H53.7155C54.0918 15.7302 55.3348 16.7244 56.8091 16.7244C58.5814 16.7244 60.0195 15.2874 60.0195 13.5184C60.0195 11.7495 58.5814 10.3125 56.8091 10.3125C55.3348 10.3125 54.0918 11.3067 53.7155 12.6591ZM56.0172 46.9005L54.6972 48.2205C54.3618 48.5559 54.3618 49.1004 54.6972 49.4358C55.0326 49.7712 55.5771 49.7712 55.9125 49.4358L57.2325 48.1158L58.5525 49.4358C58.8879 49.7712 59.4324 49.7712 59.7678 49.4358C60.1032 49.1004 60.1032 48.5559 59.7678 48.2205L58.4478 46.9005L59.7678 45.5805C60.1032 45.2451 60.1032 44.7006 59.7678 44.3652C59.4324 44.0298 58.8879 44.0298 58.5525 44.3652L57.2325 45.6852L55.9125 44.3652C55.5771 44.0298 55.0326 44.0298 54.6972 44.3652C54.3618 44.7006 54.3618 45.2451 54.6972 45.5805L56.0172 46.9005ZM23.855 44.9944C24.6778 44.9944 25.3467 45.6603 25.3467 46.4816C25.3467 47.3028 24.6778 47.9688 23.855 47.9688C23.0322 47.9688 22.3633 47.3028 22.3633 46.4816C22.3633 45.6603 23.0322 44.9944 23.855 44.9944ZM39.7476 39.207L38.4276 40.527C38.0922 40.8624 38.0922 41.407 38.4276 41.7423C38.763 42.0777 39.3075 42.0777 39.6429 41.7423L40.9629 40.4223L42.2829 41.7423C42.6183 42.0777 43.1628 42.0777 43.4982 41.7423C43.8336 41.407 43.8336 40.8624 43.4982 40.527L42.1782 39.207L43.4982 37.887C43.8336 37.5516 43.8336 37.007 43.4982 36.6716C43.1628 36.3363 42.6183 36.3363 42.2829 36.6716L40.9629 37.9916L39.6429 36.6716C39.3075 36.3363 38.763 36.3363 38.4276 36.6716C38.0922 37.007 38.0922 37.5516 38.4276 37.887L39.7476 39.207ZM48.3413 39.207L47.0213 40.527C46.6859 40.8624 46.6859 41.407 47.0213 41.7423C47.3567 42.0777 47.9012 42.0777 48.2366 41.7423L49.5566 40.4223L50.8766 41.7423C51.212 42.0777 51.7566 42.0777 52.092 41.7423C52.4273 41.407 52.4273 40.8624 52.092 40.527L50.772 39.207L52.092 37.887C52.4273 37.5516 52.4273 37.007 52.092 36.6716C51.7566 36.3363 51.212 36.3363 50.8766 36.6716L49.5566 37.9916L48.2366 36.6716C47.9012 36.3363 47.3567 36.3363 47.0213 36.6716C46.6859 37.007 46.6859 37.5516 47.0213 37.887L48.3413 39.207ZM48.3413 30.6914L47.0213 32.0114C46.6859 32.3468 46.6859 32.8914 47.0213 33.2267C47.3567 33.5621 47.9012 33.5621 48.2366 33.2267L49.5566 31.9067L50.8766 33.2267C51.212 33.5621 51.7566 33.5621 52.092 33.2267C52.4273 32.8914 52.4273 32.3468 52.092 32.0114L50.772 30.6914L52.092 29.3713C52.4273 29.0359 52.4273 28.4914 52.092 28.156C51.7566 27.8206 51.212 27.8206 50.8766 28.156L49.5566 29.476L48.2366 28.156C47.9012 27.8206 47.3567 27.8206 47.0213 28.156C46.6859 28.4914 46.6859 29.0359 47.0213 29.3713L48.3413 30.6914ZM35.5527 24.488L34.2327 23.168C33.8973 22.8326 33.3528 22.8326 33.0174 23.168C32.682 23.5034 32.682 24.0479 33.0174 24.3833L34.3374 25.7033L33.0174 27.0233C32.682 27.3587 32.682 27.9032 33.0174 28.2386C33.3528 28.574 33.8973 28.574 34.2327 28.2386L35.5527 26.9186L36.8727 28.2386C37.2081 28.574 37.7527 28.574 38.088 28.2386C38.4234 27.9032 38.4234 27.3587 38.088 27.0233L36.768 25.7033L38.088 24.3833C38.4234 24.0479 38.4234 23.5034 38.088 23.168C37.7527 22.8326 37.2081 22.8326 36.8727 23.168L35.5527 24.488ZM57.2325 20.8823L55.9125 19.5623C55.5771 19.2269 55.0326 19.2269 54.6972 19.5623C54.3618 19.8977 54.3618 20.4422 54.6972 20.7776L56.0172 22.0977L54.6972 23.4177C54.3618 23.753 54.3618 24.2977 54.6972 24.633C55.0326 24.9684 55.5771 24.9684 55.9125 24.633L57.2325 23.313L58.5525 24.633C58.8879 24.9684 59.4324 24.9684 59.7678 24.633C60.1032 24.2977 60.1032 23.753 59.7678 23.4177L58.4478 22.0977L59.7678 20.7776C60.1032 20.4422 60.1032 19.8977 59.7678 19.5623C59.4324 19.2269 58.8879 19.2269 58.5525 19.5623L57.2325 20.8823ZM26.1268 19.4677L24.8068 18.1477C24.4714 17.8123 23.9269 17.8123 23.5915 18.1477C23.2561 18.4831 23.2561 19.0277 23.5915 19.363L24.9115 20.683L23.5915 22.003C23.2561 22.3384 23.2561 22.883 23.5915 23.2184C23.9269 23.5537 24.4714 23.5537 24.8068 23.2184L26.1268 21.8984L27.4468 23.2184C27.7822 23.5537 28.3267 23.5537 28.6621 23.2184C28.9975 22.883 28.9975 22.3384 28.6621 22.003L27.3421 20.683L28.6621 19.363C28.9975 19.0277 28.9975 18.4831 28.6621 18.1477C28.3267 17.8123 27.7822 17.8123 27.4468 18.1477L26.1268 19.4677ZM34.3374 15.6629L33.0174 16.9829C32.682 17.3183 32.682 17.8628 33.0174 18.1982C33.3528 18.5336 33.8973 18.5336 34.2327 18.1982L35.5527 16.8782L36.8727 18.1982C37.2081 18.5336 37.7527 18.5336 38.088 18.1982C38.4234 17.8628 38.4234 17.3183 38.088 16.9829L36.768 15.6629L38.088 14.3429C38.4234 14.0075 38.4234 13.463 38.088 13.1276C37.7527 12.7922 37.2081 12.7922 36.8727 13.1276L35.5527 14.4476L34.2327 13.1276C33.8973 12.7922 33.3528 12.7922 33.0174 13.1276C32.682 13.463 32.682 14.0075 33.0174 14.3429L34.3374 15.6629ZM55.3174 13.5246V13.5184V13.5123C55.3207 12.6938 55.9883 12.0312 56.8091 12.0312C57.6319 12.0312 58.3008 12.6972 58.3008 13.5184C58.3008 14.3397 57.6319 15.0056 56.8091 15.0056C55.9883 15.0056 55.3207 14.343 55.3174 13.5246Z" fill="#202020"/>
</g>
<defs>
<clipPath id="clip0_6895_7645">
<rect width="40" height="40" fill="white" transform="translate(20.332 10)"/>
</clipPath>
</defs>
</svg>
