<svg width="80" height="60" viewBox="0 0 80 60" fill="none" xmlns="http://www.w3.org/2000/svg">
<rect width="80" height="60" rx="30" fill="#08DBBA"/>
<g clip-path="url(#clip0_6895_7665)">
<path fill-rule="evenodd" clip-rule="evenodd" d="M21.1714 33.0943C20.6863 33.0943 20.293 33.4876 20.293 33.9728V45.6858C20.293 47.8961 22.0848 49.6878 24.2949 49.6878H36.0079C36.4931 49.6878 36.8864 49.2945 36.8864 48.8093V44.6121H37.5697C39.3486 44.6121 40.7908 43.17 40.7908 41.3911C40.7908 39.6121 39.3485 38.17 37.5697 38.17H36.8864V33.9728C36.8864 33.4876 36.4931 33.0943 36.0079 33.0943H30.9323C30.4471 33.0943 30.0538 33.4876 30.0538 33.9728V35.402C30.0538 36.2087 29.4753 36.9543 28.6697 36.9966C27.825 37.0408 27.1256 36.3697 27.1256 35.5345V33.9728C27.1256 33.4876 26.7323 33.0943 26.2471 33.0943H21.1714ZM22.0499 34.8513H25.3686V35.5345C25.3686 37.3706 26.9044 38.8483 28.7615 38.7512L28.7616 38.7511C30.4897 38.6606 31.8108 37.1325 31.8108 35.402V34.8513H35.1295V39.0485C35.1295 39.5336 35.5228 39.9269 36.0079 39.9269H37.5697C38.3783 39.9269 39.0338 40.5825 39.0338 41.3911C39.0338 42.1997 38.3783 42.8552 37.5697 42.8552H36.0079C35.5228 42.8552 35.1295 43.2485 35.1295 43.7337V47.9309H24.2949C23.0551 47.9309 22.0499 46.9258 22.0499 45.6858V34.8513ZM55.6858 10.293H32.2598C30.0495 10.293 28.2578 12.0847 28.2578 14.295L28.2579 26.0079C28.2579 26.4931 28.6512 26.8864 29.1364 26.8864H33.3335V27.5697C33.3335 29.3487 34.7757 30.7908 36.5546 30.7908L36.6377 30.7897C38.3781 30.7457 39.7757 29.3209 39.7757 27.5697V26.8864H43.0943L43.0943 31.0836C43.0943 31.5688 43.4876 31.9621 43.9728 31.9621H45.402C46.2087 31.9621 46.9543 32.5406 46.9966 33.3462C47.0408 34.1909 46.3696 34.8903 45.5345 34.8903H43.9728C43.4876 34.8903 43.0943 35.2837 43.0943 35.7688V40.8445C43.0943 41.3296 43.4876 41.7229 43.9728 41.7229H55.6858C57.8961 41.7229 59.6878 39.9313 59.6878 37.721L59.6877 26.0196C59.6878 26.0157 59.6878 26.0119 59.6878 26.0079V14.2949C59.6878 12.0847 57.896 10.293 55.6858 10.293ZM51.3711 22.9822C51.3274 22.9828 51.2842 22.9853 51.2415 22.9896L51.2411 22.9897L51.2316 22.9907C50.4677 23.076 49.9269 23.7988 49.9269 24.5787V26.0079L49.9269 26.0193L49.9266 26.0307L49.9263 26.0419L49.9258 26.0531L49.9252 26.0644L49.9244 26.0755L49.9235 26.0867L49.9224 26.0978L49.9212 26.1088L49.9198 26.1198L49.9184 26.1308L49.9168 26.1418L49.9151 26.1526L49.9132 26.1635L49.9112 26.1743L49.9091 26.185L49.9068 26.1957L49.9044 26.2063L49.9019 26.2169L49.8993 26.2275L49.8965 26.238L49.8936 26.2485L49.8906 26.2588L49.8875 26.2692L49.8842 26.2795L49.8808 26.2897L49.8773 26.2999L49.8736 26.31L49.8699 26.3201L49.866 26.33L49.862 26.34L49.8579 26.3499L49.8537 26.3597L49.8493 26.3695L49.8449 26.3792L49.8403 26.3888L49.8356 26.3984L49.8308 26.4079L49.8259 26.4173L49.8209 26.4267L49.8158 26.436L49.8106 26.4452L49.8052 26.4544L49.7997 26.4634L49.7942 26.4725L49.7885 26.4814L49.7827 26.4903L49.7769 26.4991L49.7709 26.5078L49.7649 26.5165L49.7587 26.5251L49.7524 26.5336L49.746 26.542L49.7396 26.5503L49.733 26.5586L49.7263 26.5668L49.7196 26.5748L49.7127 26.5829L49.7058 26.5908L49.6987 26.5986L49.6916 26.6063L49.6844 26.614L49.677 26.6216L49.6697 26.6291L49.6622 26.6365L49.6545 26.6438L49.6469 26.6511L49.6391 26.6582L49.6313 26.6653L49.6233 26.6722L49.6154 26.6791L49.6072 26.6858L49.5991 26.6925L49.5908 26.6991L49.5825 26.7056L49.5741 26.7119L49.5656 26.7182L49.557 26.7244L49.5484 26.7304L49.5396 26.7364L49.5308 26.7423L49.522 26.748L49.513 26.7537L49.504 26.7593L49.4949 26.7647L49.4857 26.77L49.4765 26.7753L49.4672 26.7804L49.4578 26.7854L49.4484 26.7903L49.4389 26.7951L49.4293 26.7998L49.4197 26.8044L49.41 26.8088L49.4002 26.8131L49.3904 26.8174L49.3805 26.8215L49.3706 26.8255L49.3605 26.8294L49.3505 26.8331L49.3404 26.8367L49.3302 26.8403L49.32 26.8437L49.3097 26.8469L49.2993 26.8501L49.2889 26.8531L49.2785 26.856L49.268 26.8588L49.2575 26.8614L49.2469 26.8639L49.2458 26.8642C49.239 26.8657 49.2323 26.8672 49.2255 26.8686L49.2148 26.8707L49.2141 26.8708C49.1999 26.8735 49.1857 26.8759 49.1713 26.8779L49.1603 26.8794L49.1493 26.8807L49.1383 26.8819L49.1366 26.8821C49.1298 26.8827 49.1229 26.8834 49.116 26.8839L49.1049 26.8847L49.0937 26.8853L49.0908 26.8854C49.0768 26.8861 49.0627 26.8864 49.0485 26.8864H44.8512L44.8513 30.2051H45.402C47.1325 30.2051 48.6606 31.5263 48.7511 33.2543L48.7512 33.2544C48.8483 35.1116 47.3706 36.6473 45.5345 36.6473H44.8513V39.966H55.6858C56.9258 39.966 57.9309 38.9609 57.9309 37.721C57.9309 37.7115 57.9307 26.8864 57.9307 26.8864H53.7337C53.2485 26.8864 52.8552 26.4931 52.8552 26.0079V24.4462L52.8551 24.427L52.855 24.4207L52.8547 24.4078L52.8544 24.4004L52.8541 24.3887L52.8537 24.3809L52.8532 24.3696L52.8528 24.3617L52.8521 24.3505L52.8516 24.3427L52.8507 24.3316L52.8501 24.3238L52.8492 24.3126L52.8485 24.305L52.8473 24.2937L52.8465 24.2863L52.8452 24.2749L52.8444 24.2677L52.843 24.2561L52.842 24.2492L52.8404 24.2373L52.8394 24.2308L52.8376 24.2186L52.8366 24.2125L52.8345 24.1999L52.8336 24.1942L52.8312 24.1812L52.8303 24.1761L52.8277 24.1625L52.8268 24.158L52.8239 24.1439L52.8231 24.14L52.8199 24.1252L52.8192 24.1221L52.8155 24.1065L52.815 24.1043L52.811 24.0878L52.8106 24.0865C52.6488 23.4458 52.0641 22.9736 51.3711 22.9822ZM43.0943 12.0499H32.2598C31.0199 12.0499 30.0148 13.0551 30.0148 14.295L30.0148 25.1295H34.212C34.6971 25.1295 35.0904 25.5228 35.0904 26.0079V27.5697C35.0904 28.3784 35.746 29.0338 36.5546 29.0338H36.5546C37.3632 29.0338 38.0187 28.3784 38.0187 27.5697V26.0079C38.0187 25.5228 38.412 25.1295 38.8972 25.1295H43.0943V21.8108H42.411C40.7129 21.8108 39.3217 20.4966 39.1988 18.8297L39.1983 18.8222L39.1979 18.8171L39.1979 18.8164C39.1966 18.7982 39.1955 18.7799 39.1945 18.7616V18.7615C39.1058 17.0662 40.3295 15.6386 41.9402 15.4028L41.9464 15.4019L41.9593 15.4001L41.9671 15.399L41.9786 15.3974L41.9807 15.3971L41.9818 15.397L41.9879 15.3962L41.9983 15.3948L42.0008 15.3945L42.0024 15.3943L42.0087 15.3935L42.0181 15.3924L42.021 15.392L42.023 15.3918L42.0295 15.3909L42.0381 15.39L42.0412 15.3896L42.0437 15.3894L42.0504 15.3886L42.0582 15.3877L42.0615 15.3874L42.0644 15.3871L42.0713 15.3863L42.0784 15.3856L42.0817 15.3853L42.0852 15.3849L42.0923 15.3842L42.0987 15.3836L42.102 15.3833L42.106 15.3829L42.1132 15.3822L42.1191 15.3817L42.1224 15.3814L42.1269 15.381L42.1343 15.3803L42.1396 15.3799L42.1428 15.3796L42.1478 15.3792L42.1553 15.3786L42.1601 15.3782L42.1632 15.378L42.1687 15.3776L42.1765 15.377L42.1808 15.3767L42.1837 15.3765L42.1897 15.3761L42.1976 15.3755L42.2014 15.3753L42.2042 15.3751L42.2107 15.3748L42.2188 15.3743L42.2222 15.3741L42.2247 15.3739L42.2318 15.3736L42.24 15.3731L42.243 15.3729L42.2453 15.3728L42.2529 15.3724L42.2613 15.372L42.2638 15.3719L42.2659 15.3719L42.274 15.3715L42.2826 15.3712L42.2847 15.371L42.2866 15.371L42.2953 15.3707L42.3039 15.3704L42.3057 15.3703L42.3073 15.3703L42.3167 15.37L42.3253 15.3697L42.3266 15.3697H42.3279L42.3382 15.3695L42.3467 15.3692H42.3487L42.36 15.369L42.3681 15.3689H42.3695L42.3827 15.3688L42.3896 15.3687H42.3902L42.4111 15.3686H43.0943V12.0499ZM44.8513 12.0499V16.2471C44.8513 16.3179 44.8429 16.3867 44.8271 16.4527C44.7345 16.8387 44.3872 17.1256 43.9728 17.1256H42.4111L42.3918 17.1257L42.3856 17.1258L42.3726 17.1261L42.3653 17.1263L42.3535 17.1267L42.3457 17.1271L42.3344 17.1275L42.3265 17.128L42.3154 17.1286L42.3075 17.1292L42.2964 17.13L42.2886 17.1306L42.2774 17.1316L42.2699 17.1323L42.2586 17.1334L42.2512 17.1343L42.2397 17.1355L42.2326 17.1364L42.2209 17.1378L42.2141 17.1388L42.2021 17.1404L42.1957 17.1413L42.1834 17.1432L42.1773 17.1442L42.1648 17.1462L42.1591 17.1472L42.1461 17.1495L42.1409 17.1505L42.1274 17.1531L42.1228 17.154L42.1087 17.1569L42.1049 17.1577L42.0901 17.1609L42.0869 17.1616L42.0714 17.1652L42.0691 17.1658L42.0526 17.1698L42.0514 17.1701C41.4107 17.332 40.9385 17.9165 40.9471 18.6096C40.9477 18.6569 40.9506 18.7039 40.9557 18.7501C41.0414 19.5136 41.7639 20.0538 42.5436 20.0538H43.9728C43.9766 20.0538 43.9803 20.0538 43.9842 20.0539L43.9955 20.0541L44.0068 20.0545L44.018 20.055L44.0292 20.0556L44.0404 20.0564L44.0516 20.0573L44.0626 20.0584L44.0737 20.0595L44.0847 20.0609L44.0957 20.0623L44.1066 20.064L44.1175 20.0657L44.1283 20.0676L44.1391 20.0695L44.1498 20.0716L44.1606 20.0739L44.1712 20.0763L44.1818 20.0789L44.1924 20.0815L44.2028 20.0842L44.2133 20.0872L44.2237 20.0902L44.2341 20.0933L44.2444 20.0966L44.2545 20.1L44.2647 20.1035L44.2749 20.1071L44.2849 20.1109L44.2949 20.1148L44.3049 20.1187L44.3148 20.1228L44.3246 20.1271L44.3343 20.1314L44.344 20.1359L44.3536 20.1405L44.3632 20.1451L44.3727 20.15L44.3822 20.1548L44.3915 20.1598L44.4008 20.165L44.4101 20.1702L44.4192 20.1755L44.4283 20.181L44.4373 20.1866L44.4463 20.1922L44.4552 20.198L44.464 20.2038L44.4727 20.2098L44.4814 20.2159L44.4899 20.2221L44.4984 20.2284L44.5068 20.2347L44.5152 20.2412L44.5234 20.2478L44.5316 20.2544L44.5397 20.2612L44.5477 20.268L44.5556 20.275L44.5635 20.282L44.5712 20.2892L44.5789 20.2964L44.5865 20.3037L44.594 20.3111L44.6014 20.3186L44.6087 20.3262L44.616 20.3339L44.6231 20.3416L44.6301 20.3495L44.6371 20.3574L44.6439 20.3654L44.6507 20.3735L44.6574 20.3817L44.6639 20.39L44.6704 20.3983L44.6767 20.4067L44.683 20.4152L44.6892 20.4237L44.6953 20.4324L44.7013 20.4411L44.7071 20.4499L44.7129 20.4588L44.7186 20.4678L44.7241 20.4768L44.7296 20.4859L44.7349 20.495L44.7401 20.5043L44.7453 20.5136L44.7503 20.523L44.7552 20.5324L44.76 20.5419L44.7647 20.5515L44.7692 20.5611L44.7737 20.5708L44.778 20.5805L44.7823 20.5904L44.7864 20.6003L44.7904 20.6102L44.7942 20.6202L44.798 20.6302L44.8016 20.6404L44.8051 20.6506L44.8085 20.6608L44.8118 20.6711L44.815 20.6814L44.8179 20.6918L44.8209 20.7023L44.8236 20.7128L44.8263 20.7233L44.8288 20.7339L44.8312 20.7446L44.8335 20.7553L44.8356 20.766L44.8376 20.7768L44.8394 20.7876L44.8411 20.7985L44.8428 20.8095L44.8442 20.8204L44.8456 20.8314L44.8468 20.8425L44.8478 20.8536L44.8487 20.8647L44.8495 20.8759L44.8502 20.8871L44.8506 20.8984L44.851 20.9097L44.8512 20.921L44.8513 20.9323L44.8513 25.1295H46.2188H48.17V24.4462C48.17 22.7474 49.4853 21.3556 51.153 21.2338L51.1586 21.2334L51.1621 21.2331L51.1637 21.2331L51.1662 21.2329C51.1839 21.2316 51.2015 21.2305 51.2191 21.2296H51.2192C52.9146 21.1409 54.3422 22.3647 54.5779 23.9753L54.5789 23.9816L54.5818 24.0022L54.5834 24.0138L54.5836 24.0158L54.5838 24.0169L54.5846 24.023L54.5859 24.0335L54.5863 24.036L54.5864 24.0376L54.5873 24.0438L54.5884 24.0533L54.5888 24.0561L54.589 24.0582L54.5898 24.0647L54.5908 24.0732L54.5911 24.0763L54.5914 24.0789L54.5922 24.0855L54.593 24.0933L54.5934 24.0966L54.5937 24.0996L54.5945 24.1064L54.5952 24.1135L54.5955 24.1169L54.5959 24.1204L54.5966 24.1274L54.5972 24.1338L54.5975 24.1372L54.5979 24.1412L54.5986 24.1484L54.5991 24.1542L54.5994 24.1576L54.5998 24.162L54.6004 24.1695L54.6008 24.1747L54.6011 24.1779L54.6015 24.1829L54.6021 24.1905L54.6025 24.1953L54.6028 24.1984L54.6031 24.2038L54.6037 24.2116L54.604 24.2159L54.6042 24.2189L54.6046 24.2248L54.6052 24.2328L54.6054 24.2366L54.6056 24.2394L54.606 24.2458L54.6065 24.254L54.6067 24.2573L54.6068 24.2599L54.6072 24.2669L54.6077 24.2752L54.6078 24.2781L54.6079 24.2804L54.6083 24.288L54.6087 24.2964L54.6088 24.2989L54.6089 24.301L54.6093 24.3092L54.6096 24.3177L54.6097 24.3198L54.6098 24.3217L54.6101 24.3304L54.6104 24.3391L54.6104 24.3408L54.6105 24.3424L54.6108 24.3518L54.611 24.3604V24.3618L54.6111 24.3631L54.6113 24.3734L54.6115 24.3818L54.6116 24.3838L54.6117 24.3952L54.6119 24.4032V24.4046L54.612 24.4178L54.6121 24.4247V24.425C54.6121 24.432 54.6121 24.4391 54.6121 24.4462V25.1295H57.9309V14.2949C57.9309 13.055 56.9257 12.0499 55.6858 12.0499C55.6858 12.0499 47.5734 12.0499 44.8513 12.0499Z" fill="#202020"/>
</g>
<defs>
<clipPath id="clip0_6895_7665">
<rect width="40" height="40" fill="white" transform="translate(20 10)"/>
</clipPath>
</defs>
</svg>
