<svg width="80" height="60" viewBox="0 0 80 60" fill="none" xmlns="http://www.w3.org/2000/svg">
<rect width="80" height="60" rx="30" fill="#E4EFED"/>
<path d="M28.334 36.6673L36.6673 31.6673M43.334 28.334L51.6673 23.334M40.0007 18.334V26.6673M40.0007 33.334V41.6673M28.334 23.334L36.6673 28.334M43.334 31.6673L51.6673 36.6673M54.1673 25.0007V34.1673M42.5007 44.1673L51.6673 39.1673M27.5007 39.1673L37.5007 44.1673M25.834 35.0007V25.0007M27.5007 20.834L37.5007 15.834M52.5007 20.834L42.5007 15.834" stroke="#202020" stroke-width="1.5" stroke-linejoin="round"/>
<path d="M40 18.334C41.3807 18.334 42.5 17.2147 42.5 15.834C42.5 14.4533 41.3807 13.334 40 13.334C38.6193 13.334 37.5 14.4533 37.5 15.834C37.5 17.2147 38.6193 18.334 40 18.334Z" stroke="#202020" stroke-width="1.5" stroke-linejoin="round"/>
<path d="M40 46.668C41.3807 46.668 42.5 45.5487 42.5 44.168C42.5 42.7873 41.3807 41.668 40 41.668C38.6193 41.668 37.5 42.7873 37.5 44.168C37.5 45.5487 38.6193 46.668 40 46.668Z" stroke="#202020" stroke-width="1.5" stroke-linejoin="round"/>
<path d="M25.834 25C27.2147 25 28.334 23.8807 28.334 22.5C28.334 21.1193 27.2147 20 25.834 20C24.4533 20 23.334 21.1193 23.334 22.5C23.334 23.8807 24.4533 25 25.834 25Z" stroke="#202020" stroke-width="1.5" stroke-linejoin="round"/>
<path d="M54.168 25C55.5487 25 56.668 23.8807 56.668 22.5C56.668 21.1193 55.5487 20 54.168 20C52.7873 20 51.668 21.1193 51.668 22.5C51.668 23.8807 52.7873 25 54.168 25Z" stroke="#202020" stroke-width="1.5" stroke-linejoin="round"/>
<path d="M54.168 40C55.5487 40 56.668 38.8807 56.668 37.5C56.668 36.1193 55.5487 35 54.168 35C52.7873 35 51.668 36.1193 51.668 37.5C51.668 38.8807 52.7873 40 54.168 40Z" stroke="#202020" stroke-width="1.5" stroke-linejoin="round"/>
<path d="M25.834 40C27.2147 40 28.334 38.8807 28.334 37.5C28.334 36.1193 27.2147 35 25.834 35C24.4533 35 23.334 36.1193 23.334 37.5C23.334 38.8807 24.4533 40 25.834 40Z" stroke="#202020" stroke-width="1.5" stroke-linejoin="round"/>
<path d="M40.0013 26.25L43.3346 28.125V31.875L40.0013 33.75L36.668 31.875V28.125L40.0013 26.25Z" stroke="#202020" stroke-width="1.5" stroke-linejoin="round"/>
</svg>
