<svg width="80" height="60" viewBox="0 0 80 60" fill="none" xmlns="http://www.w3.org/2000/svg">
<rect width="80" height="60" rx="30" fill="#F3FEFC"/>
<rect width="80" height="60" rx="30" fill="black" fill-opacity="0.06"/>
<path d="M31.6667 21.6667H48.3333M31.6667 30H48.3333M31.6667 38.3333H41.6667M51.6667 15H28.3333C27.4493 15 26.6014 15.3512 25.9763 15.9763C25.3512 16.6014 25 17.4493 25 18.3333V41.6667C25 42.5507 25.3512 43.3986 25.9763 44.0237C26.6014 44.6488 27.4493 45 28.3333 45H51.6667C52.5507 45 53.3986 44.6488 54.0237 44.0237C54.6488 43.3986 55 42.5507 55 41.6667V18.3333C55 17.4493 54.6488 16.6014 54.0237 15.9763C53.3986 15.3512 52.5507 15 51.6667 15Z" stroke="#202020" stroke-width="1.5" stroke-linecap="round" stroke-linejoin="round"/>
</svg>
