<svg width="80" height="60" viewBox="0 0 80 60" fill="none" xmlns="http://www.w3.org/2000/svg">
<rect width="80" height="60" rx="30" fill="#F3FEFC"/>
<rect width="80" height="60" rx="30" fill="black" fill-opacity="0.06"/>
<g clip-path="url(#clip0_7293_11153)">
<mask id="mask0_7293_11153" style="mask-type:luminance" maskUnits="userSpaceOnUse" x="20" y="10" width="40" height="40">
<path d="M20 10H60V50H20V10Z" fill="white"/>
</mask>
<g mask="url(#mask0_7293_11153)">
<path d="M38.1172 40.6693C38.1172 40.0034 37.8529 39.3645 37.3816 38.8937C36.9109 38.4231 36.2727 38.1588 35.6067 38.1588H33.0963C32.4304 38.1588 31.7922 38.4231 31.3215 38.8937C30.8501 39.3645 30.5859 40.0034 30.5859 40.6693C30.5859 41.3345 30.8501 41.9734 31.3215 42.4441C31.7922 42.9148 32.4304 43.1797 33.0963 43.1797H35.6067C36.2727 43.1797 36.9109 42.9148 37.3816 42.4441C37.8529 41.9734 38.1172 41.3345 38.1172 40.6693Z" stroke="black" stroke-width="1.5" stroke-miterlimit="10" stroke-linecap="round" stroke-linejoin="round"/>
<path d="M36.8632 35.6478C36.8632 34.982 36.599 34.343 36.1277 33.8723C35.657 33.4016 35.0187 33.1374 34.3528 33.1374H31.8423C31.1765 33.1374 30.5382 33.4016 30.0676 33.8723C29.5962 34.343 29.332 34.982 29.332 35.6478C29.332 36.3131 29.5962 36.952 30.0676 37.4227C30.5382 37.8934 31.1765 38.1582 31.8423 38.1582H34.3528C35.0187 38.1582 35.657 37.8934 36.1277 37.4227C36.599 36.952 36.8632 36.3131 36.8632 35.6478Z" stroke="black" stroke-width="1.5" stroke-miterlimit="10" stroke-linecap="round" stroke-linejoin="round"/>
<path d="M35.6055 30.6283C35.6055 29.9624 35.3412 29.3235 34.8699 28.8528C34.3992 28.3821 33.7609 28.1179 33.0951 28.1179H30.5846C29.9188 28.1179 29.2805 28.3821 28.8098 28.8528C28.3384 29.3235 28.0742 29.9624 28.0742 30.6283C28.0742 31.2936 28.3384 31.9324 28.8098 32.4031C29.2805 32.8739 29.9188 33.1387 30.5846 33.1387H33.0951C33.7609 33.1387 34.3992 32.8739 34.8699 32.4031C35.3412 31.9324 35.6055 31.2936 35.6055 30.6283Z" stroke="black" stroke-width="1.5" stroke-miterlimit="10" stroke-linecap="round" stroke-linejoin="round"/>
<path d="M34.3516 25.6068C34.3516 24.9409 34.0873 24.302 33.616 23.8313C33.1453 23.3606 32.507 23.0964 31.8411 23.0964H29.3307C28.6648 23.0964 28.0266 23.3606 27.5559 23.8313C27.0845 24.302 26.8203 24.9409 26.8203 25.6068C26.8203 26.272 27.0845 26.9109 27.5559 27.3816C28.0266 27.8523 28.6648 28.1172 29.3307 28.1172H31.8411C32.507 28.1172 33.1453 27.8523 33.616 27.3816C34.0873 26.9109 34.3516 26.272 34.3516 25.6068Z" stroke="black" stroke-width="1.5" stroke-miterlimit="10" stroke-linecap="round" stroke-linejoin="round"/>
<path d="M45.6471 43.1797L51.2955 48.8281L58.8268 41.2969L53.1784 35.6484C53.1784 35.6484 51.3928 28.5076 50.5154 24.9973C50.2362 23.8802 49.232 23.0963 48.0804 23.0963H41.8815C41.2155 23.0963 40.5773 23.3605 40.1066 23.8312C39.6353 24.302 39.3711 24.9409 39.3711 25.6067C39.3711 26.272 39.6353 26.9109 40.1066 27.3816C40.5773 27.8523 41.2155 28.1172 41.8815 28.1172H45.6471" stroke="black" stroke-width="1.5" stroke-miterlimit="10" stroke-linecap="round" stroke-linejoin="round"/>
<path d="M26.8203 24.3516L21.1719 18.7031L28.7032 11.1719L34.3516 16.8203C34.3516 16.8203 41.4925 18.6052 45.002 19.4826C46.1198 19.7619 46.9036 20.766 46.9036 21.9183V23.0963H41.8828C41.2169 23.0963 40.5786 23.3605 40.108 23.8312C39.6366 24.302 39.3724 24.9409 39.3724 25.6067C39.3724 26.272 39.6366 26.9109 40.108 27.3816C40.5786 27.8523 41.2169 28.1172 41.8828 28.1172H45.6484C45.6484 28.1172 47.3863 35.0685 48.5009 39.527C48.7205 40.405 48.5229 41.3352 47.9662 42.0488C47.4088 42.7623 46.5541 43.1797 45.6491 43.1797H35.6068" stroke="black" stroke-width="1.5" stroke-miterlimit="10" stroke-linecap="round" stroke-linejoin="round"/>
</g>
</g>
<defs>
<clipPath id="clip0_7293_11153">
<rect width="40" height="40" fill="white" transform="translate(20 10)"/>
</clipPath>
</defs>
</svg>
