<svg width="81" height="60" viewBox="0 0 81 60" fill="none" xmlns="http://www.w3.org/2000/svg">
<rect x="0.5" width="80" height="60" rx="30" fill="#08DBBA"/>
<g clip-path="url(#clip0_6895_7673)">
<path fill-rule="evenodd" clip-rule="evenodd" d="M35.6405 43.0584V47.65C35.6405 49.0341 36.7627 50.1562 38.1468 50.1562H42.853C44.2372 50.1562 45.3593 49.0341 45.3593 47.65V43.0584L46.9008 36.8955C46.953 36.6867 46.9319 36.4665 46.8409 36.2715L41.3495 24.5043C41.1955 24.1742 40.8641 23.9633 40.4999 23.9633C40.1357 23.9633 39.8044 24.1742 39.6504 24.5043L34.159 36.2715C34.068 36.4665 34.0468 36.6867 34.0991 36.8955L35.6405 43.0584ZM35.9987 36.763L37.483 42.6977C37.4945 42.7396 37.503 42.7827 37.5084 42.8268L37.5088 42.8299C37.5142 42.874 37.5164 42.9179 37.5155 42.9613V47.65C37.5155 47.9987 37.7981 48.2812 38.1468 48.2812H42.853C43.2017 48.2812 43.4843 47.9987 43.4843 47.65V42.9613C43.4834 42.9179 43.4856 42.874 43.491 42.8299L43.4915 42.8268C43.4969 42.7827 43.5054 42.7396 43.5168 42.6977L45.0012 36.763L41.4374 29.1266V35.913C42.332 36.2748 42.9753 37.1398 43.0048 38.1656C43.0445 39.5484 41.9541 40.7032 40.5713 40.7429C39.1885 40.7826 38.0337 39.6922 37.994 38.3095C37.963 37.2323 38.6179 36.2935 39.5624 35.9124V29.1266L35.9987 36.763ZM40.4813 37.6065C40.8296 37.5965 41.1205 37.8711 41.1305 38.2195C41.1405 38.5677 40.8659 38.8587 40.5175 38.8687C40.1691 38.8787 39.8782 38.604 39.8682 38.2557C39.8582 37.9073 40.1329 37.6165 40.4813 37.6065ZM36.0359 12.9815H26.7896C26.3855 11.6214 25.1251 10.6282 23.6345 10.6282C21.8183 10.6282 20.3438 12.1027 20.3438 13.919C20.3438 15.7352 21.8183 17.2098 23.6345 17.2098C25.1251 17.2098 26.3855 16.2166 26.7896 14.8565H36.0359C36.0581 15.3417 36.1854 15.7995 36.3955 16.2077C31.3209 16.8733 27.4036 21.2141 27.4036 26.47C27.4036 26.9874 27.8237 27.4075 28.3411 27.4075C28.8585 27.4075 29.2786 26.9874 29.2786 26.47C29.2786 21.7889 33.0733 17.9942 37.7544 17.9942H43.2455C47.9266 17.9942 51.7212 21.7889 51.7212 26.47C51.7212 26.9874 52.1413 27.4075 52.6587 27.4075C53.1762 27.4075 53.5962 26.9874 53.5962 26.47C53.5962 21.2141 49.679 16.8733 44.6043 16.2077C44.8145 15.7994 44.9417 15.3416 44.9639 14.8565H54.21C54.6137 16.2172 55.8737 17.2098 57.3653 17.2098C59.1829 17.2098 60.6562 15.7364 60.6562 13.919C60.6562 12.1016 59.1829 10.6282 57.3653 10.6282C55.8737 10.6282 54.6137 11.6208 54.21 12.9815H44.9639C44.8841 11.2352 43.4427 9.84375 41.6766 9.84375H39.3233C37.557 9.84375 36.1158 11.2352 36.0359 12.9815ZM37.9074 14.7034V13.1346C37.9074 12.3527 38.5413 11.7188 39.3233 11.7188H41.6766C42.4585 11.7188 43.0924 12.3527 43.0924 13.1346V14.7034C43.0924 15.4854 42.4585 16.1192 41.6766 16.1192H39.3233C38.5413 16.1192 37.9074 15.4854 37.9074 14.7034ZM23.6345 12.5032C24.4159 12.5032 25.0503 13.1376 25.0503 13.919C25.0503 14.7004 24.4159 15.3348 23.6345 15.3348C22.8531 15.3348 22.2188 14.7004 22.2188 13.919C22.2188 13.1376 22.8531 12.5032 23.6345 12.5032ZM55.9495 13.919C55.9495 13.137 56.5834 12.5032 57.3653 12.5032C58.1473 12.5032 58.7812 13.137 58.7812 13.919C58.7812 14.7009 58.1473 15.3348 57.3653 15.3348C56.5834 15.3348 55.9495 14.7009 55.9495 13.919Z" fill="#202020"/>
</g>
<defs>
<clipPath id="clip0_6895_7673">
<rect width="40" height="40" fill="white" transform="translate(20.5 10)"/>
</clipPath>
</defs>
</svg>
