<svg width="81" height="60" viewBox="0 0 81 60" fill="none" xmlns="http://www.w3.org/2000/svg">
<rect x="0.332031" width="80" height="60" rx="30" fill="#08DBBA"/>
<path d="M36.0959 35.5575H25.3588C24.9919 35.5575 24.6953 35.2602 24.6953 34.894C24.6953 34.5277 24.9919 34.2305 25.3588 34.2305H36.0959C36.4628 34.2305 36.7594 34.5277 36.7594 34.894C36.7594 35.2602 36.4621 35.5575 36.0959 35.5575Z" fill="#202020"/>
<path d="M36.0959 24.9422H25.3588C24.9919 24.9422 24.6953 24.645 24.6953 24.2787C24.6953 23.9125 24.9919 23.6152 25.3588 23.6152H36.0959C36.4628 23.6152 36.7594 23.9125 36.7594 24.2787C36.7594 24.645 36.4621 24.9422 36.0959 24.9422Z" fill="#202020"/>
<path d="M34.8976 30.2508H20.9955C20.6286 30.2508 20.332 29.9536 20.332 29.5873C20.332 29.2211 20.6286 28.9238 20.9955 28.9238H34.8976C35.2645 28.9238 35.5611 29.2211 35.5611 29.5873C35.5611 29.9536 35.2645 30.2508 34.8976 30.2508Z" fill="#202020"/>
<path d="M43.7433 32.8191C42.0967 32.8191 40.4258 31.7114 40.4258 29.5883C40.4258 27.4651 42.0967 26.3574 43.7433 26.3574C45.3899 26.3574 47.0609 27.4651 47.0609 29.5883C47.0609 31.7114 45.3899 32.8191 43.7433 32.8191ZM43.7433 27.6844C43.1939 27.6844 42.5922 27.869 42.1966 28.3121C41.9304 28.6104 41.7528 29.0258 41.7528 29.5883C41.7528 30.1507 41.9304 30.5662 42.1966 30.8644C42.5922 31.3075 43.1939 31.4921 43.7433 31.4921C44.2927 31.4921 44.8944 31.3075 45.2901 30.8644C45.5562 30.5662 45.7338 30.1507 45.7338 29.5883C45.7338 29.0258 45.5562 28.6104 45.2901 28.3121C44.8944 27.869 44.2927 27.6844 43.7433 27.6844Z" fill="#202020"/>
<path d="M45.6207 28.3748C45.4508 28.3748 45.281 28.3097 45.1516 28.1804C44.8922 27.9209 44.8922 27.5016 45.1516 27.2422L50.1562 22.2375C50.4156 21.9781 50.835 21.9781 51.0944 22.2375C51.3538 22.497 51.3538 22.9163 51.0944 23.1757L46.0898 28.1804C45.9604 28.3097 45.7906 28.3748 45.6207 28.3748Z" fill="#202020"/>
<path d="M40.6168 33.3798C40.447 33.3798 40.2771 33.3148 40.1477 33.1854L40.1475 33.1851C39.8882 32.9265 39.8884 32.5066 40.1477 32.2472L41.3987 30.9954C41.6581 30.7359 42.0774 30.7359 42.3369 30.9954L42.3371 30.9956C42.5964 31.2542 42.5962 31.6741 42.3369 31.9336L41.0859 33.1854C40.9565 33.3148 40.7867 33.3798 40.6168 33.3798Z" fill="#202020"/>
<path d="M43.7455 46.1744C43.3786 46.1744 43.082 45.8772 43.082 45.5109V42.8569C43.082 42.4906 43.3786 42.1934 43.7455 42.1934C44.1125 42.1934 44.409 42.4906 44.409 42.8569V45.5109C44.409 45.8772 44.1125 46.1744 43.7455 46.1744Z" fill="#202020"/>
<path d="M55.0049 41.5111C54.8351 41.5111 54.6652 41.4461 54.5358 41.3167L52.6594 39.4394C52.4001 39.18 52.3999 38.7601 52.6592 38.5014L52.6594 38.5012C52.9189 38.2418 53.3382 38.2418 53.5976 38.5012L55.474 40.3785C55.7334 40.6378 55.7336 41.0577 55.4744 41.3164C55.3441 41.4459 55.1742 41.5111 55.0049 41.5111Z" fill="#202020"/>
<path d="M53.1285 20.8685C52.9587 20.8685 52.7888 20.8035 52.6594 20.6741L52.6592 20.6739C52.3999 20.4152 52.4001 19.9953 52.6594 19.7359L54.5358 17.8586C54.7953 17.5992 55.2146 17.5992 55.474 17.8586L55.4743 17.8589C55.7336 18.1175 55.7334 18.5374 55.474 18.7968L53.5976 20.6741C53.4683 20.8035 53.2984 20.8685 53.1285 20.8685Z" fill="#202020"/>
<path d="M43.7455 16.981C43.3786 16.981 43.082 16.6838 43.082 16.3175V13.6635C43.082 13.2973 43.3786 13 43.7455 13C44.1125 13 44.409 13.2973 44.409 13.6635V16.3175C44.409 16.6838 44.1125 16.981 43.7455 16.981Z" fill="#202020"/>
<path d="M59.6691 30.2508H57.0151C56.6482 30.2508 56.3516 29.9536 56.3516 29.5873C56.3516 29.2211 56.6482 28.9238 57.0151 28.9238H59.6691C60.036 28.9238 60.3326 29.2211 60.3326 29.5873C60.3326 29.9536 60.036 30.2508 59.6691 30.2508Z" fill="#202020"/>
<path d="M37.3647 19.6356H30.6635C30.2966 19.6356 30 19.3384 30 18.9721C30 18.6058 30.2966 18.3086 30.6635 18.3086H37.3647C37.7316 18.3086 38.0282 18.6058 38.0282 18.9721C38.0282 19.3384 37.7316 19.6356 37.3647 19.6356Z" fill="#202020"/>
<path d="M37.3647 40.868H30.6635C30.2966 40.868 30 40.5708 30 40.2045C30 39.8383 30.2966 39.541 30.6635 39.541H37.3647C37.7316 39.541 38.0282 39.8383 38.0282 40.2045C38.0282 40.5708 37.7316 40.868 37.3647 40.868Z" fill="#202020"/>
<path d="M43.6892 46.1584C41.1306 46.1584 38.5458 45.5692 36.1451 44.3322C35.8193 44.1643 35.6913 43.7642 35.8591 43.4385C36.027 43.1127 36.4277 42.9845 36.7527 43.1524L36.7529 43.1525C43.7944 46.781 52.5657 44.3498 56.722 37.6181C60.8899 30.8665 59.1454 21.9266 52.7511 17.2649C48.1201 13.8896 41.84 13.4014 36.7529 16.0217L36.7527 16.0218C36.4277 16.1897 36.027 16.0623 35.8593 15.7358L35.8591 15.7357C35.6913 15.4099 35.8186 15.0098 36.145 14.8421L36.1451 14.842C41.6741 11.9923 48.4978 12.5223 53.5328 16.1918C60.4839 21.2589 62.3806 30.9767 57.8504 38.3145V38.3146C54.7502 43.3382 49.2854 46.1584 43.6892 46.1584Z" fill="#202020"/>
</svg>
