<svg width="80" height="60" viewBox="0 0 80 60" fill="none" xmlns="http://www.w3.org/2000/svg">
<rect width="80" height="60" rx="30" fill="#08DBBA"/>
<path d="M46.2491 18.7534C45.9339 18.4382 45.4611 18.517 45.146 18.8322C44.8308 19.1473 44.9096 19.6201 45.2247 19.9353L49.7159 23.8749L45.2247 27.8146C44.9096 28.1297 44.8308 28.6025 45.146 28.9177C45.3035 29.0753 45.5399 29.154 45.7763 29.154C45.9339 29.154 46.1703 29.0753 46.3278 28.9965L51.5282 24.5053C51.6858 24.3477 51.7646 24.1113 51.7646 23.8749C51.7646 23.6385 51.6858 23.4022 51.5282 23.2446L46.2491 18.7534Z" fill="#202020"/>
<path d="M34.8992 18.8322C34.584 18.517 34.1113 18.4382 33.7961 18.7534L28.5958 23.2446C28.4382 23.4022 28.3594 23.6385 28.3594 23.8749C28.3594 24.1113 28.4382 24.3477 28.5958 24.5053L33.7961 28.9965C33.9537 29.154 34.1113 29.154 34.3476 29.154C34.584 29.154 34.8204 29.0753 34.978 28.9177C35.2932 28.6025 35.2144 28.1297 34.8992 27.8146L30.408 23.8749L34.8992 19.9353C35.1356 19.6201 35.2144 19.1473 34.8992 18.8322Z" fill="#202020"/>
<path d="M42.8571 18.6755C42.4632 18.4391 41.9904 18.5967 41.754 18.9907L36.8689 27.9731C36.6325 28.367 36.7901 28.8398 37.184 29.0762C37.578 29.2338 37.972 29.155 38.2871 28.761L43.1723 19.6998C43.3299 19.3059 43.2511 18.8331 42.8571 18.6755Z" fill="#202020"/>
<path d="M58.8512 43.1801L55.7783 35.6159V11.8993C55.7783 11.4265 55.4631 11.1113 54.9903 11.1113H24.9702C24.4975 11.1113 24.1823 11.4265 24.1823 11.8993V35.6159L21.1094 43.2589V45.7802C21.1094 47.5137 22.4489 48.9319 24.1035 48.9319H55.8571C57.5117 48.9319 58.8512 47.5137 58.8512 45.7802V43.574C58.93 43.4952 58.93 43.3377 58.8512 43.1801ZM25.7582 12.6872H54.2024V34.9856H25.7582V12.6872ZM25.5218 36.5615H54.5176L56.9602 42.7861H23.0792L25.5218 36.5615ZM57.3541 45.7802C57.3541 46.647 56.7238 47.3561 55.9359 47.3561H24.1035C23.3156 47.3561 22.6852 46.647 22.6852 45.7802V44.362H57.3541V45.7802Z" fill="#202020"/>
<path d="M42.1482 39.3184H37.8934C37.4206 39.3184 37.1055 39.6335 37.1055 40.1063C37.1055 40.579 37.4206 40.8942 37.8934 40.8942H42.1482C42.621 40.8942 42.9361 40.579 42.9361 40.1063C42.9361 39.6335 42.621 39.3184 42.1482 39.3184Z" fill="#202020"/>
</svg>
