<svg width="80" height="60" viewBox="0 0 80 60" fill="none" xmlns="http://www.w3.org/2000/svg">
<rect width="80" height="60" rx="30" fill="#08DBBA"/>
<path d="M54.9032 50H25.0961C22.286 50 20 47.7429 20 44.9683V15.0324C20 12.2579 22.286 10 25.0961 10H54.9032C57.7133 10 60 12.2579 60 15.0324V44.9683C60 47.7429 57.7133 50 54.9032 50ZM25.0961 11.5628C23.1584 11.5628 21.5821 13.1192 21.5821 15.0324V44.9683C21.5821 46.8808 23.1584 48.4372 25.0961 48.4372H54.9032C56.8409 48.4372 58.4172 46.8808 58.4172 44.9683V15.0324C58.4172 13.1192 56.8409 11.5628 54.9032 11.5628H25.0961Z" fill="#202020"/>
<path d="M24.7362 34V25.6H28.3722C29.1242 25.6 29.7722 25.724 30.3162 25.972C30.8602 26.212 31.2802 26.56 31.5762 27.016C31.8722 27.472 32.0202 28.016 32.0202 28.648C32.0202 29.272 31.8722 29.812 31.5762 30.268C31.2802 30.716 30.8602 31.06 30.3162 31.3C29.7722 31.54 29.1242 31.66 28.3722 31.66H25.8162L26.6802 30.808V34H24.7362ZM30.0762 34L27.9762 30.952H30.0522L32.1762 34H30.0762ZM26.6802 31.024L25.8162 30.112H28.2642C28.8642 30.112 29.3122 29.984 29.6082 29.728C29.9042 29.464 30.0522 29.104 30.0522 28.648C30.0522 28.184 29.9042 27.824 29.6082 27.568C29.3122 27.312 28.8642 27.184 28.2642 27.184H25.8162L26.6802 26.26V31.024ZM35.5765 34L32.8285 25.6H34.8445L37.2325 33.04H36.2245L38.7205 25.6H40.5205L42.9205 33.04H41.9485L44.3965 25.6H46.2565L43.5085 34H41.4205L39.2965 27.472H39.8485L37.6645 34H35.5765ZM47.3417 34V25.6H51.1577C52.0697 25.6 52.8737 25.776 53.5697 26.128C54.2657 26.472 54.8097 26.956 55.2017 27.58C55.5937 28.204 55.7897 28.944 55.7897 29.8C55.7897 30.648 55.5937 31.388 55.2017 32.02C54.8097 32.644 54.2657 33.132 53.5697 33.484C52.8737 33.828 52.0697 34 51.1577 34H47.3417ZM49.2857 32.404H51.0617C51.6217 32.404 52.1057 32.3 52.5137 32.092C52.9297 31.876 53.2497 31.572 53.4737 31.18C53.7057 30.788 53.8217 30.328 53.8217 29.8C53.8217 29.264 53.7057 28.804 53.4737 28.42C53.2497 28.028 52.9297 27.728 52.5137 27.52C52.1057 27.304 51.6217 27.196 51.0617 27.196H49.2857V32.404Z" fill="#202020"/>
</svg>
