<svg width="80" height="60" viewBox="0 0 80 60" fill="none" xmlns="http://www.w3.org/2000/svg">
<rect width="80" height="60" rx="30" fill="#F3FEFC"/>
<rect width="80" height="60" rx="30" fill="black" fill-opacity="0.06"/>
<g clip-path="url(#clip0_7292_13673)">
<mask id="mask0_7292_13673" style="mask-type:luminance" maskUnits="userSpaceOnUse" x="20" y="10" width="40" height="40">
<path d="M20 10H60V50H20V10Z" fill="white"/>
</mask>
<g mask="url(#mask0_7292_13673)">
<path d="M37.6984 36.1184C37.6984 36.1184 31.915 36.1911 31.6411 36.0998C31.3671 36.0084 32.0803 35.5261 35.8721 30.1084C36.5802 29.0966 36.9701 28.243 37.1359 27.5278L37.1946 27.068C37.1946 25.3881 35.8329 24.0263 34.153 24.0263C32.6748 24.0263 31.443 25.0807 31.1684 26.4784M47.5525 35.741C47.5525 35.741 47.612 25.3918 47.5525 24.678C47.4931 23.9643 46.8685 23.4597 46.2091 24.2688C45.5568 25.069 41.6047 32.2327 41.6047 32.2327H49.0692M50.6473 17.7084H56.7931M56.7931 17.7084V11.5625M56.7931 17.7084C54.6678 14.0344 50.6955 11.5625 46.1459 11.5625H33.8541C27.0657 11.5625 21.5625 17.0657 21.5625 23.8541V33.073M29.3528 42.2917H23.207V48.4375M23.207 42.2919C25.3323 45.9657 29.3046 48.4375 33.8542 48.4375H46.1459C52.9344 48.4375 58.4375 42.9344 58.4375 36.1459V26.9271" stroke="#202020" stroke-width="1.5" stroke-miterlimit="10" stroke-linecap="round" stroke-linejoin="round"/>
</g>
</g>
<defs>
<clipPath id="clip0_7292_13673">
<rect width="40" height="40" fill="white" transform="translate(20 10)"/>
</clipPath>
</defs>
</svg>
