<svg width="81" height="60" viewBox="0 0 81 60" fill="none" xmlns="http://www.w3.org/2000/svg">
<rect x="0.5" width="80" height="60" rx="30" fill="#08DBBA"/>
<path fill-rule="evenodd" clip-rule="evenodd" d="M38.7157 30.1821V36.6916C38.7157 37.8718 39.1903 39.0035 40.0177 39.8308C40.8572 40.6704 41.9764 41.1325 43.1566 41.1325H53.7785L58.4143 45.7682C58.6454 45.9994 58.9861 46.0604 59.2781 45.9387C59.5701 45.8171 59.7649 45.5249 59.7649 45.2086V29.3913C59.7649 28.2111 59.3025 27.0916 58.463 26.2521C57.6356 25.4247 56.504 24.9504 55.3238 24.9504H45.1644V18.4409C45.1644 17.2607 44.7019 16.1412 43.8624 15.3017C43.035 14.4743 41.9034 14 40.7232 14H27.3393C26.1591 14 25.0399 14.4743 24.2004 15.3017C23.373 16.1412 22.8984 17.2607 22.8984 18.4409V34.2582C22.8984 34.5745 23.093 34.8666 23.385 34.9883C23.6892 35.11 24.0301 35.049 24.2491 34.8178L28.8846 30.1821H38.7157ZM45.0913 26.5319C44.9331 27.4201 44.5073 28.2355 43.8624 28.8804C43.035 29.7199 41.9034 30.1821 40.7232 30.1821H40.2975V36.6916C40.2975 37.446 40.6016 38.1762 41.137 38.7115C41.6723 39.2591 42.4023 39.551 43.1566 39.551H54.107C54.3261 39.551 54.521 39.6361 54.667 39.7821L58.1832 43.2986V29.3913C58.1832 28.637 57.8912 27.9073 57.3437 27.372C56.8083 26.8366 56.0903 26.5319 55.3238 26.5319H45.0913ZM53.7057 36.8621H45.4929V35.889H49.07V34.0395H46.2715V33.0658H49.07V31.3382H45.7118V30.365H49.5931C49.1186 29.8784 48.5712 29.5009 47.9507 29.2089L48.7536 28.4669C49.435 28.7467 50.0433 29.1726 50.5665 29.7323L49.7879 30.365H53.4987V31.3382H50.1405V33.0658H52.939V34.0395H50.1405V35.889H53.7057V36.8621ZM24.4802 32.3481V18.4409C24.4802 17.6865 24.7843 16.9569 25.3197 16.4215C25.855 15.8862 26.585 15.5815 27.3393 15.5815H40.7232C41.4897 15.5815 42.2078 15.8862 42.7431 16.4215C43.2906 16.9569 43.5826 17.6865 43.5826 18.4409V25.7412C43.5826 26.4955 43.2906 27.2258 42.7431 27.7611C42.2078 28.3086 41.4897 28.6006 40.7232 28.6006H28.556C28.3492 28.6006 28.1546 28.6857 27.9964 28.8317L24.4802 32.3481ZM35.6739 23.6363H32.3645L31.7074 25.1697H30.442L33.4229 18.5264H34.6396L37.633 25.1697H36.3432L35.6739 23.6363ZM35.2723 22.6631L34.0191 19.755L32.7783 22.6631H35.2723Z" fill="#202020"/>
</svg>
