<svg width="81" height="60" viewBox="0 0 81 60" fill="none" xmlns="http://www.w3.org/2000/svg">
<rect x="0.667969" width="80" height="60" rx="30" fill="#08DBBA"/>
<path fill-rule="evenodd" clip-rule="evenodd" d="M40.668 20C46.1518 20.0052 50.6628 24.5162 50.668 30C50.668 35.4858 46.1537 40 40.668 40C35.1822 40 30.668 35.4858 30.668 30C30.668 24.5142 35.1822 20 40.668 20ZM36.754 37.6643C33.8756 36.1953 32.0567 33.2251 32.0567 29.9935C32.0567 25.2697 35.9442 21.3823 40.668 21.3823C45.3918 21.3823 49.2792 25.2697 49.2792 29.9935C49.2792 33.2251 46.9424 36.5964 44.064 38.0654C42.2727 38.8909 39.3947 38.9143 36.754 37.6643Z" fill="#202020"/>
<path fill-rule="evenodd" clip-rule="evenodd" d="M44.9115 26.9376C45.0365 27.0626 45.1067 27.2322 45.1067 27.4089C45.1067 27.5857 45.0365 27.7552 44.9115 27.8803L39.9146 32.8772C39.8486 32.9432 39.7702 32.9956 39.6839 33.0313C39.5976 33.0671 39.5051 33.0855 39.4117 33.0855C39.3183 33.0855 39.2259 33.0671 39.1396 33.0313C39.0533 32.9956 38.9749 32.9432 38.9088 32.8772L36.4262 30.3949C36.3625 30.3334 36.3117 30.2599 36.2768 30.1785C36.2418 30.0972 36.2235 30.0097 36.2227 29.9212C36.2219 29.8327 36.2388 29.7449 36.2723 29.663C36.3058 29.581 36.3553 29.5066 36.4179 29.444C36.4805 29.3814 36.5549 29.3319 36.6369 29.2984C36.7188 29.2649 36.8066 29.248 36.8951 29.2488C36.9836 29.2495 37.0711 29.2679 37.1525 29.3029C37.2338 29.3378 37.3074 29.3886 37.3688 29.4523L39.4115 31.4949L43.9684 26.9376C44.0303 26.8756 44.1038 26.8265 44.1847 26.793C44.2657 26.7594 44.3524 26.7422 44.44 26.7422C44.5275 26.7422 44.6143 26.7594 44.6952 26.793C44.7761 26.8265 44.8496 26.8756 44.9115 26.9376Z" fill="black"/>
<path d="M23.962 26.0468C23.902 26.0468 23.842 26.0401 23.782 26.0201C23.4287 25.9201 23.222 25.5535 23.3154 25.2001C24.9887 19.1335 29.802 14.3201 35.8687 12.6535C36.762 12.4001 37.682 12.2201 38.5954 12.1201C38.9554 12.0868 39.2887 12.3401 39.3287 12.7068C39.3687 13.0735 39.1087 13.4001 38.742 13.4401C37.8954 13.5335 37.0487 13.7001 36.222 13.9335C30.5954 15.4801 26.142 19.9335 24.5954 25.5535C24.5154 25.8468 24.2487 26.0401 23.9554 26.0401L23.962 26.0468Z" fill="#202020"/>
<path d="M36.0481 47.373C35.9881 47.373 35.9281 47.3664 35.8681 47.3464C29.7947 45.673 24.9881 40.8664 23.3147 34.793C23.0614 33.8997 22.8814 32.9797 22.7814 32.0664C22.7414 31.6997 23.0014 31.373 23.3681 31.333C23.7281 31.2997 24.0614 31.553 24.1014 31.9197C24.1947 32.7664 24.3614 33.613 24.5947 34.4397C26.1414 40.0664 30.5947 44.5197 36.2147 46.0664C36.5681 46.1664 36.7747 46.533 36.6814 46.8864C36.6014 47.1797 36.3347 47.373 36.0414 47.373H36.0481Z" fill="#202020"/>
<path d="M42.6602 47.8861C42.3268 47.8861 42.0335 47.6328 42.0002 47.2928C41.9602 46.9261 42.2202 46.5994 42.5868 46.5594C43.4335 46.4661 44.2802 46.2994 45.1068 46.0661C50.7335 44.5194 55.1868 40.0661 56.7335 34.4461C56.8335 34.0928 57.2002 33.8861 57.5535 33.9794C57.9068 34.0794 58.1135 34.4461 58.0202 34.7994C56.3468 40.8728 51.5402 45.6794 45.4668 47.3528C44.5735 47.6061 43.6535 47.7861 42.7402 47.8861C42.7135 47.8861 42.6935 47.8861 42.6668 47.8861H42.6602Z" fill="#202020"/>
<path d="M57.8874 28.6721C57.5541 28.6721 57.2607 28.4188 57.2274 28.0788C57.1341 27.2321 56.9674 26.3854 56.7341 25.5588C55.1874 19.9321 50.7341 15.4788 45.1141 13.9321C44.7607 13.8321 44.5541 13.4654 44.6474 13.1121C44.7407 12.7588 45.1141 12.5521 45.4674 12.6454C51.5407 14.3188 56.3474 19.1254 58.0207 25.1988C58.2741 26.0921 58.4541 27.0121 58.5541 27.9254C58.5941 28.2921 58.3341 28.6188 57.9674 28.6588C57.9407 28.6588 57.9207 28.6588 57.8941 28.6588L57.8874 28.6721Z" fill="#202020"/>
<path d="M40.6667 15.3333C39.1933 15.3333 38 14.14 38 12.6667C38 11.1933 39.1933 10 40.6667 10C42.14 10 43.3333 11.1933 43.3333 12.6667C43.3333 14.14 42.14 15.3333 40.6667 15.3333ZM40.6667 11.3333C39.9333 11.3333 39.3333 11.9333 39.3333 12.6667C39.3333 13.4 39.9333 14 40.6667 14C41.4 14 42 13.4 42 12.6667C42 11.9333 41.4 11.3333 40.6667 11.3333Z" fill="#202020"/>
<path d="M40.6667 49.9993C39.1933 49.9993 38 48.806 38 47.3327C38 45.8593 39.1933 44.666 40.6667 44.666C42.14 44.666 43.3333 45.8593 43.3333 47.3327C43.3333 48.806 42.14 49.9993 40.6667 49.9993ZM40.6667 45.9993C39.9333 45.9993 39.3333 46.5993 39.3333 47.3327C39.3333 48.066 39.9333 48.666 40.6667 48.666C41.4 48.666 42 48.066 42 47.3327C42 46.5993 41.4 45.9993 40.6667 45.9993Z" fill="#202020"/>
<path d="M58.0026 32.6673C56.5293 32.6673 55.3359 31.474 55.3359 30.0007C55.3359 28.5273 56.5293 27.334 58.0026 27.334C59.4759 27.334 60.6693 28.5273 60.6693 30.0007C60.6693 31.474 59.4759 32.6673 58.0026 32.6673ZM58.0026 28.6673C57.2693 28.6673 56.6693 29.2673 56.6693 30.0007C56.6693 30.734 57.2693 31.334 58.0026 31.334C58.7359 31.334 59.3359 30.734 59.3359 30.0007C59.3359 29.2673 58.7359 28.6673 58.0026 28.6673Z" fill="#202020"/>
<path d="M23.3346 32.6673C21.8613 32.6673 20.668 31.474 20.668 30.0007C20.668 28.5273 21.8613 27.334 23.3346 27.334C24.808 27.334 26.0013 28.5273 26.0013 30.0007C26.0013 31.474 24.808 32.6673 23.3346 32.6673ZM23.3346 28.6673C22.6013 28.6673 22.0013 29.2673 22.0013 30.0007C22.0013 30.734 22.6013 31.334 23.3346 31.334C24.068 31.334 24.668 30.734 24.668 30.0007C24.668 29.2673 24.068 28.6673 23.3346 28.6673Z" fill="#202020"/>
</svg>
