<svg width="81" height="60" viewBox="0 0 81 60" fill="none" xmlns="http://www.w3.org/2000/svg">
<rect x="0.667969" width="80" height="60" rx="30" fill="#08DBBA"/>
<g clip-path="url(#clip0_6895_7655)">
<path d="M59.4961 10.3125C59.9707 10.3125 60.3555 10.6973 60.3555 11.1719V41.7188C60.3555 42.1934 59.9707 42.5781 59.4961 42.5781H46.2148V47.9688H50.0391C50.5137 47.9688 50.8984 48.3535 50.8984 48.8281C50.8984 49.3027 50.5137 49.6875 50.0391 49.6875H31.2969C30.8223 49.6875 30.4375 49.3027 30.4375 48.8281C30.4375 48.3535 30.8223 47.9688 31.2969 47.9688H35.1211V42.5781H21.8398C21.3652 42.5781 20.9805 42.1934 20.9805 41.7188V11.1719C20.9805 10.6973 21.3652 10.3125 21.8398 10.3125H59.4961ZM36.8398 47.9688H44.4961V42.5781H36.8398V47.9688ZM22.6992 40.8594H58.6367V12.0312H22.6992V40.8594ZM26.6094 37.8867C26.1348 37.8867 25.75 37.502 25.75 37.0273V29.9961C25.75 29.5215 26.1348 29.1367 26.6094 29.1367H38.3281C38.8027 29.1367 39.1875 29.5215 39.1875 29.9961V37.0273C39.1875 37.502 38.8027 37.8867 38.3281 37.8867H26.6094ZM54.7344 29.1367C55.209 29.1367 55.5938 29.5215 55.5938 29.9961V37.0273C55.5938 37.502 55.209 37.8867 54.7344 37.8867H43.0156C42.541 37.8867 42.1562 37.502 42.1562 37.0273V29.9961C42.1562 29.5215 42.541 29.1367 43.0156 29.1367H54.7344ZM37.4688 30.8555H27.4688V36.168H37.4688V30.8555ZM43.875 36.168H53.875V30.8555H43.875V36.168ZM47.7031 26.1719C47.2285 26.1719 46.8438 25.7871 46.8438 25.3125C46.8438 24.8379 47.2285 24.4531 47.7031 24.4531H54.7344C55.209 24.4531 55.5938 24.8379 55.5938 25.3125C55.5938 25.7871 55.209 26.1719 54.7344 26.1719H47.7031ZM26.6094 26.1719C26.1348 26.1719 25.75 25.7871 25.75 25.3125V15.9375C25.75 15.4629 26.1348 15.0781 26.6094 15.0781H43.0078C43.4824 15.0781 43.8672 15.4629 43.8672 15.9375V25.3125C43.8672 25.7871 43.4824 26.1719 43.0078 26.1719H26.6094ZM42.1484 16.7969H27.4688V24.4531H42.1484V16.7969ZM47.7031 21.4844C47.2285 21.4844 46.8438 21.0996 46.8438 20.625C46.8438 20.1504 47.2285 19.7656 47.7031 19.7656H54.7344C55.209 19.7656 55.5938 20.1504 55.5938 20.625C55.5938 21.0996 55.209 21.4844 54.7344 21.4844H47.7031ZM47.7031 16.7969C47.2285 16.7969 46.8438 16.4121 46.8438 15.9375C46.8438 15.4629 47.2285 15.0781 47.7031 15.0781H54.7266C55.2012 15.0781 55.5859 15.4629 55.5859 15.9375C55.5859 16.4121 55.2012 16.7969 54.7266 16.7969H47.7031Z" fill="#202020"/>
</g>
<defs>
<clipPath id="clip0_6895_7655">
<rect width="40" height="40" fill="white" transform="translate(20.668 10)"/>
</clipPath>
</defs>
</svg>
