<svg width="60" height="60" viewBox="0 0 60 60" fill="none" xmlns="http://www.w3.org/2000/svg">
<rect width="60" height="60" fill="url(#paint0_linear_4922_4569)"/>
<path d="M39.4084 23.3H12.591C12.2647 23.3 12 23.0091 12 22.65C12 22.2909 12.2647 22 12.591 22H39.4084C39.7353 22 40 22.2909 40 22.65C40 23.0091 39.7353 23.3 39.4084 23.3Z" fill="#06CEAF"/>
<path d="M24 21C22.8975 21 22 20.1032 22 19C22 17.8975 22.8975 17 24 17C25.1032 17 26 17.8975 26 19C26 20.1032 25.1032 21 24 21ZM24 18.0918C23.4994 18.0918 23.0918 18.4994 23.0918 19C23.0918 19.5013 23.4994 19.909 24 19.909C24.5013 19.909 24.909 19.5013 24.909 19C24.909 18.4994 24.5013 18.0918 24 18.0918Z" fill="#06CEAF"/>
<path d="M19 21C17.8968 21 17 20.1032 17 19C17 17.8975 17.8968 17 19 17C20.1025 17 21 17.8975 21 19C21 20.1032 20.1025 21 19 21ZM19 18.0918C18.4987 18.0918 18.091 18.4994 18.091 19C18.091 19.5013 18.4987 19.909 19 19.909C19.5006 19.909 19.9082 19.5013 19.9082 19C19.9082 18.4994 19.5006 18.0918 19 18.0918Z" fill="#06CEAF"/>
<path d="M29 21C27.8968 21 27 20.1032 27 19C27 17.8975 27.8968 17 29 17C30.1025 17 31 17.8975 31 19C31 20.1032 30.1025 21 29 21ZM29 18.0918C28.4987 18.0918 28.091 18.4994 28.091 19C28.091 19.5013 28.4987 19.909 29 19.909C29.5006 19.909 29.9082 19.5013 29.9082 19C29.9082 18.4994 29.5006 18.0918 29 18.0918Z" fill="#06CEAF"/>
<path d="M43.6072 45H16.3922C13.9703 45 12 43.0079 12 40.5591V18.4415C12 15.9927 13.9703 14 16.3922 14H43.6072C46.0291 14 48 15.9927 48 18.4415V40.5591C48 43.0079 46.0291 45 43.6072 45ZM16.3922 15.3793C14.7222 15.3793 13.3636 16.753 13.3636 18.4415V40.5591C13.3636 42.247 14.7222 43.6207 16.3922 43.6207H43.6072C45.2772 43.6207 46.6358 42.247 46.6358 40.5591V18.4415C46.6358 16.753 45.2772 15.3793 43.6072 15.3793H16.3922Z" fill="#06CEAF"/>
<path d="M35.8877 27.2006C35.5726 26.8855 35.0998 26.9643 34.7846 27.2794C34.4695 27.5946 34.5482 28.0674 34.8634 28.3825L39.3546 32.3222L34.8634 36.2618C34.5482 36.577 34.4695 37.0498 34.7846 37.3649C34.9422 37.5225 35.1786 37.6013 35.415 37.6013C35.5726 37.6013 35.8089 37.5225 35.9665 37.4437L41.1669 32.9525C41.3244 32.7949 41.4032 32.5586 41.4032 32.3222C41.4032 32.0858 41.3244 31.8494 41.1669 31.6918L35.8877 27.2006Z" fill="#06CEAF"/>
<path d="M24.5398 27.2794C24.2246 26.9643 23.7519 26.8855 23.4367 27.2006L18.2364 31.6918C18.0788 31.8494 18 32.0858 18 32.3222C18 32.5586 18.0788 32.7949 18.2364 32.9525L23.4367 37.4437C23.5943 37.6013 23.7519 37.6013 23.9883 37.6013C24.2246 37.6013 24.461 37.5225 24.6186 37.3649C24.9338 37.0498 24.855 36.577 24.5398 36.2618L20.0486 32.3222L24.5398 28.3825C24.7762 28.0674 24.855 27.5946 24.5398 27.2794Z" fill="#06CEAF"/>
<path d="M32.4978 27.1228C32.1038 26.8864 31.631 27.044 31.3947 27.438L26.5095 36.4204C26.2731 36.8143 26.4307 37.2871 26.8247 37.5235C27.2186 37.681 27.6126 37.6022 27.9278 37.2083L32.8129 28.1471C32.9705 27.7531 32.8917 27.2804 32.4978 27.1228Z" fill="#06CEAF"/>
<defs>
<linearGradient id="paint0_linear_4922_4569" x1="30" y1="0" x2="30" y2="60" gradientUnits="userSpaceOnUse">
<stop stop-color="#ECF6F4"/>
<stop offset="1" stop-color="#ECF6F4" stop-opacity="0"/>
</linearGradient>
</defs>
</svg>
