<svg width="60" height="60" viewBox="0 0 60 60" fill="none" xmlns="http://www.w3.org/2000/svg">
<rect width="60" height="60" fill="url(#paint0_linear_5212_3980)"/>
<path fill-rule="evenodd" clip-rule="evenodd" d="M17.042 10.0109C13.3996 10.0354 10.0998 13.1901 10.0183 16.9577C9.99389 23.0381 9.99389 29.1188 10.0183 35.1993C10.0998 38.8606 13.2123 42.1376 16.9362 42.3092L17.6615 42.3176C17.6778 46.2977 20.7335 49.8938 24.7588 49.9755C30.8213 50.0082 36.8836 50.0082 42.9461 49.9755C46.5558 49.9019 49.791 46.8127 49.8643 43.0287C49.8969 36.9564 49.8969 30.8759 49.8643 24.7955C49.791 21.0933 46.6212 17.7589 42.767 17.6771H42.2291C42.2128 13.6889 39.1571 10.1008 35.1318 10.0109C29.1019 9.98638 23.0719 10.0109 17.042 10.0109ZM42.7507 19.328C45.6108 19.4016 48.145 21.837 48.2183 24.8119C48.2672 30.9005 48.3161 36.997 48.2183 43.0774C48.1287 45.8398 45.6923 48.2756 42.9218 48.3246C36.8756 48.3736 30.8292 48.3736 24.7831 48.3246C21.9067 48.2592 19.3562 45.7417 19.3155 42.8404L19.3075 42.3176C24.6366 42.3176 29.9738 42.3421 35.3029 42.3176C38.9615 42.2359 42.2046 39.0564 42.2291 35.2807V19.328C42.4002 19.328 42.5714 19.328 42.7507 19.328ZM35.1075 11.6702C37.9595 11.711 40.5344 14.2609 40.5751 17.154L40.5831 17.6771C35.311 17.6771 30.0309 17.6526 24.7588 17.6771C24.6692 17.6771 24.5797 17.6851 24.4819 17.6851C20.8558 17.8976 17.6778 21.1175 17.6615 24.8933V40.6667C14.614 40.6422 11.7701 38.3131 11.6723 35.2483C11.5827 29.1924 11.5827 23.1363 11.6723 17.0885C11.7619 14.269 14.2227 11.7601 17.0746 11.6702C23.0801 11.5803 29.0939 11.6211 35.1075 11.6702ZM25.7853 40.6583L40.5751 25.8251V20.799C40.5099 20.7744 40.4366 20.7419 40.3714 20.7092L20.6846 40.454L20.7741 40.6583H25.7853ZM33.4205 40.6583L40.5751 33.4829V28.4568C40.5099 28.4323 40.4366 28.3995 40.3714 28.375L28.3277 40.454L28.4177 40.6583H33.4205ZM40.2735 37.0625L39.8092 37.8797C39.3203 38.7052 38.6273 39.3998 37.8043 39.8902L36.9895 40.3563L36.5904 39.8247L39.744 36.6622C39.9232 36.793 40.0943 36.9317 40.2735 37.0625ZM39.206 19.5403L19.5192 39.2772L19.3075 39.1954V34.1693L34.1053 19.328H39.1165C39.141 19.4016 39.1734 19.475 39.206 19.5403ZM31.5629 19.5403L19.5192 31.6193L19.3075 31.5296V26.5114L26.4701 19.328H31.4733C31.5059 19.4016 31.5303 19.475 31.5629 19.5403ZM23.3002 20.1613L20.1466 23.3326L19.6171 22.9319L20.0814 22.1146C20.2932 21.7469 20.326 21.7142 20.4482 21.5508C20.8882 20.9705 21.4507 20.4801 22.0863 20.1042L22.9011 19.6385C23.0315 19.8101 23.1698 19.9896 23.3002 20.1613Z" fill="#06CEAF"/>
<defs>
<linearGradient id="paint0_linear_5212_3980" x1="30" y1="0" x2="30" y2="60" gradientUnits="userSpaceOnUse">
<stop stop-color="#ECF6F4"/>
<stop offset="1" stop-color="#ECF6F4" stop-opacity="0"/>
</linearGradient>
</defs>
</svg>
