<svg width="60" height="60" viewBox="0 0 60 60" fill="none" xmlns="http://www.w3.org/2000/svg">
<rect width="60" height="60" fill="url(#paint0_linear_4815_3028)"/>
<g clip-path="url(#clip0_4815_3028)">
<path d="M12.2812 19.6383V19.6113C12.2812 15.6233 15.5258 12.3789 19.5139 12.3789C23.5019 12.3789 26.7464 15.6234 26.7464 19.6114C26.7464 21.0571 26.3542 22.477 25.612 23.7177L20.8249 31.7213H26.7463C28.7587 31.7213 30.396 33.3586 30.396 35.371C30.396 37.3834 28.7587 39.0207 26.7463 39.0207H17.2133C15.935 39.0207 14.8949 40.0607 14.8949 41.339C14.8949 42.6174 15.935 43.6574 17.2133 43.6574H32.3407L32.3896 43.4371C32.6609 42.2148 33.5838 41.2357 34.7741 40.8839L34.9757 40.8243V25.1626C34.9757 24.9063 35.1027 24.6667 35.3149 24.5231C35.5272 24.3795 35.7968 24.3505 36.0349 24.4457C36.0642 24.4573 47.2233 28.921 47.2333 28.9251C47.516 29.0381 47.706 29.3069 47.7181 29.6111V29.6112C47.7304 29.9155 47.5625 30.1986 47.2897 30.334L36.5202 35.6796V40.8247L36.7217 40.8844C38.1454 41.3057 39.1875 42.6246 39.1875 44.1831C39.1875 46.08 37.6443 47.6232 35.7473 47.6232C34.273 47.6232 33.0128 46.6907 32.5242 45.3847L32.4559 45.202H17.2133C15.0833 45.202 13.3504 43.4691 13.3504 41.339C13.3504 39.209 15.0833 37.476 17.2133 37.476H26.7464C27.9072 37.476 28.8515 36.5317 28.8515 35.3709C28.8515 34.2101 27.9072 33.2658 26.7464 33.2658H19.4585C19.1472 33.2677 18.9214 33.0818 18.7965 32.8834C18.7956 32.882 13.3874 23.697 13.3874 23.697C12.6638 22.468 12.2812 21.0645 12.2812 19.6383ZM35.7483 42.2877L35.744 42.2875C34.7002 42.2895 33.8518 43.139 33.8518 44.183C33.8518 45.2281 34.7023 46.0786 35.7473 46.0786C36.7925 46.0786 37.6429 45.2283 37.6429 44.183C37.6429 43.1392 36.7951 42.29 35.7521 42.2876L35.7483 42.2877ZM36.5202 26.3033V33.9551L45.0566 29.7179L36.5202 26.3033ZM13.8258 19.6382L13.8257 19.6381C13.8257 20.789 14.1344 21.9215 14.7184 22.9133L19.4682 30.9804L24.2865 22.9248C24.8853 21.9235 25.2018 20.7778 25.2018 19.6112C25.2018 16.475 22.6502 13.9233 19.5138 13.9233C16.3774 13.9233 13.8257 16.475 13.8257 19.6112L14.107 19.8925L13.8257 19.612L13.8258 19.6382ZM22.5152 19.7414C22.5152 21.4243 21.146 22.7935 19.463 22.7935C17.78 22.7935 16.4108 21.4243 16.4108 19.7414C16.4108 18.0585 17.7801 16.6893 19.463 16.6893C21.146 16.6893 22.5152 18.0585 22.5152 19.7414ZM19.463 21.249C20.2943 21.249 20.9706 20.5728 20.9706 19.7414C20.9706 18.91 20.2943 18.2338 19.463 18.2338C18.6317 18.2338 17.9553 18.91 17.9553 19.7414C17.9553 20.5728 18.6317 21.249 19.463 21.249Z" fill="#06CEAF"/>
</g>
<defs>
<linearGradient id="paint0_linear_4815_3028" x1="30" y1="0" x2="30" y2="60" gradientUnits="userSpaceOnUse">
<stop stop-color="#ECF6F4"/>
<stop offset="1" stop-color="#ECF6F4" stop-opacity="0"/>
</linearGradient>
<clipPath id="clip0_4815_3028">
<rect width="36" height="36" fill="white" transform="translate(12 12)"/>
</clipPath>
</defs>
</svg>
