<svg width="90" height="70" viewBox="0 0 90 70" fill="none" xmlns="http://www.w3.org/2000/svg">
<g clip-path="url(#clip0_5844_3763)">
<path d="M69 11H21V59H69V11Z" fill="#202020"/>
<path d="M53.244 48.4993C54.2109 50.078 55.4688 51.2384 57.6935 51.2384C59.5625 51.2384 60.7564 50.3043 60.7564 49.0136C60.7564 47.467 59.5297 46.9192 57.4726 46.0193L56.345 45.5355C53.0901 44.1489 50.9278 42.4117 50.9278 38.7393C50.9278 35.3565 53.5053 32.7812 57.5335 32.7812C60.4013 32.7812 62.4631 33.7793 63.9488 36.3927L60.4364 38.6479C59.6631 37.2612 58.8288 36.715 57.5335 36.715C56.2124 36.715 55.3751 37.5531 55.3751 38.6479C55.3751 40.0011 56.2132 40.5489 58.1484 41.387L59.276 41.87C63.1084 43.5134 65.2722 45.1889 65.2722 48.9557C65.2722 53.0167 62.0821 55.2414 57.7979 55.2414C53.609 55.2414 50.9027 53.2452 49.5785 50.6289L53.244 48.4993ZM37.3103 48.8902C38.0189 50.1473 38.6634 51.2102 40.2131 51.2102C41.6951 51.2102 42.6299 50.6304 42.6299 48.3759V33.0388H47.1404V48.4369C47.1404 53.1073 44.4021 55.2331 40.4051 55.2331C36.7937 55.2331 34.7023 53.3641 33.6387 51.1131L37.3103 48.8902Z" fill="#F3FEFC"/>
</g>
<defs>
<clipPath id="clip0_5844_3763">
<rect width="48" height="48" fill="white" transform="translate(21 11)"/>
</clipPath>
</defs>
</svg>
