<svg width="80" height="60" viewBox="0 0 80 60" fill="none" xmlns="http://www.w3.org/2000/svg">
<rect width="80" height="60" rx="30" fill="#F3FEFC"/>
<rect width="80" height="60" rx="30" fill="black" fill-opacity="0.06"/>
<path d="M40.0007 46.6673C49.2057 46.6673 56.6673 39.2057 56.6673 30.0007C56.6673 20.7957 49.2057 13.334 40.0007 13.334C30.7957 13.334 23.334 20.7957 23.334 30.0007C23.334 39.2057 30.7957 46.6673 40.0007 46.6673Z" stroke="black" stroke-width="2" stroke-linecap="round" stroke-linejoin="round"/>
<path d="M35.3923 34.8173L28.334 41.6673M44.609 34.8173L51.6673 41.6673M44.609 25.184L51.6673 18.334M35.3923 25.184L28.334 18.334M33.334 30.0007C33.334 31.7688 34.0364 33.4645 35.2866 34.7147C36.5368 35.9649 38.2325 36.6673 40.0007 36.6673C41.7688 36.6673 43.4645 35.9649 44.7147 34.7147C45.9649 33.4645 46.6673 31.7688 46.6673 30.0007C46.6673 28.2325 45.9649 26.5368 44.7147 25.2866C43.4645 24.0364 41.7688 23.334 40.0007 23.334C38.2325 23.334 36.5368 24.0364 35.2866 25.2866C34.0364 26.5368 33.334 28.2325 33.334 30.0007Z" stroke="black" stroke-width="2" stroke-linecap="round" stroke-linejoin="round"/>
</svg>
