<svg width="60" height="50" viewBox="0 0 60 50" fill="none" xmlns="http://www.w3.org/2000/svg">
<rect width="60" height="50" rx="25" fill="#E5EFED"/>
<path d="M23.5996 33.5V31.325L30.5496 24.725C31.1329 24.175 31.5663 23.6917 31.8496 23.275C32.1329 22.8583 32.3163 22.475 32.3996 22.125C32.4996 21.7583 32.5496 21.4167 32.5496 21.1C32.5496 20.3 32.2746 19.6833 31.7246 19.25C31.1746 18.8 30.3663 18.575 29.2996 18.575C28.4496 18.575 27.6746 18.725 26.9746 19.025C26.2913 19.325 25.6996 19.7833 25.1996 20.4L22.9246 18.65C23.6079 17.7333 24.5246 17.025 25.6746 16.525C26.8413 16.0083 28.1413 15.75 29.5746 15.75C30.8413 15.75 31.9413 15.9583 32.8746 16.375C33.8246 16.775 34.5496 17.35 35.0496 18.1C35.5663 18.85 35.8246 19.7417 35.8246 20.775C35.8246 21.3417 35.7496 21.9083 35.5996 22.475C35.4496 23.025 35.1663 23.6083 34.7496 24.225C34.3329 24.8417 33.7246 25.5333 32.9246 26.3L26.9496 31.975L26.2746 30.75H36.4996V33.5H23.5996Z" fill="#202020"/>
</svg>
