<svg width="60" height="50" viewBox="0 0 60 50" fill="none" xmlns="http://www.w3.org/2000/svg">
<rect width="60" height="50" rx="25" fill="#E5EFED"/>
<path d="M29.3246 33.75C28.0913 33.75 26.8829 33.575 25.6996 33.225C24.5329 32.8583 23.5496 32.3583 22.7496 31.725L24.1496 29.2C24.7829 29.7167 25.5496 30.1333 26.4496 30.45C27.3496 30.7667 28.2913 30.925 29.2746 30.925C30.4413 30.925 31.3496 30.6917 31.9996 30.225C32.6496 29.7417 32.9746 29.0917 32.9746 28.275C32.9746 27.475 32.6746 26.8417 32.0746 26.375C31.4746 25.9083 30.5079 25.675 29.1746 25.675H27.5746V23.45L32.5746 17.5L32.9996 18.725H23.5996V16H35.5246V18.175L30.5246 24.125L28.8246 23.125H29.7996C31.9496 23.125 33.5579 23.6083 34.6246 24.575C35.7079 25.525 36.2496 26.75 36.2496 28.25C36.2496 29.2333 35.9996 30.1417 35.4996 30.975C34.9996 31.8083 34.2329 32.4833 33.1996 33C32.1829 33.5 30.8913 33.75 29.3246 33.75Z" fill="#202020"/>
</svg>
