<svg width="80" height="60" viewBox="0 0 80 60" fill="none" xmlns="http://www.w3.org/2000/svg">
<rect width="80" height="60" rx="30" fill="#08DBBA"/>
<path d="M58.2651 24.4928C59.245 24.4928 59.245 25.9733 58.2651 25.9743H57.2275L57.2021 26.2393C56.5753 32.8275 51.0149 37.9996 44.2654 37.9996C41.0451 37.9996 38.1007 36.8154 35.827 34.8684L35.6207 34.6914L32.8532 37.4588L33.8614 38.4671C34.1509 38.7565 34.1509 39.2249 33.8614 39.5144L25.3272 48.0486C25.0378 48.338 24.5694 48.338 24.2799 48.0486L21.2171 44.9858C20.9276 44.6963 20.9276 44.2279 21.2171 43.9384L29.7513 35.4033C30.0407 35.1148 30.5101 35.1148 30.7986 35.4033L31.8068 36.4115L34.5743 33.645L34.3973 33.4387C32.7036 31.4603 31.5888 28.9745 31.3287 26.2393L31.3032 25.9733H26.9095C26.5007 25.9733 26.1682 25.6418 26.1682 25.233C26.1682 24.8243 26.5007 24.4928 26.9095 24.4928H31.2895L31.3062 24.217C31.7139 17.4147 37.3623 12 44.2664 12C51.1694 12 56.8178 17.4147 57.2256 24.217L57.2422 24.4928H58.2651ZM22.7876 44.4616L24.8031 46.4781L32.2919 38.9902L30.2754 36.9738L22.7876 44.4616ZM44.2664 36.5181C50.6169 36.5181 55.7842 31.3518 55.7842 24.9993C55.7842 18.6478 50.6179 13.4806 44.2664 13.4806C37.9139 13.4806 32.7466 18.6478 32.7466 24.9993C32.7466 31.3508 37.9149 36.5181 44.2664 36.5181Z" fill="#202020"/>
<path d="M47.0253 19.4013L49.2647 24.4952H52.3832C53.3631 24.4952 53.3631 25.9757 52.3832 25.9757H48.7816C48.4872 25.9757 48.2212 25.8017 48.1029 25.5327L46.3329 21.5057L42.1523 30.612C41.8893 31.1811 41.0825 31.189 40.8116 30.6237L38.58 25.9757H36.1411C35.1613 25.9757 35.1613 24.4942 36.1411 24.4942H39.0455C39.3301 24.4942 39.5892 24.6585 39.7134 24.9147L41.4639 28.5613L45.6748 19.3895C45.9417 18.8096 46.769 18.8175 47.0253 19.4013Z" fill="#202020"/>
</svg>
