<svg width="40" height="38" viewBox="0 0 40 38" fill="none" xmlns="http://www.w3.org/2000/svg">
<path d="M20.4082 20.0597L18.0256 11.1707C15.3081 11.492 12.6842 9.77872 11.9479 7.06119V7.04747C11.5329 5.52137 11.8137 3.95512 12.5767 2.69676L12.6035 2.65688C13.3264 1.47885 14.478 0.581485 15.9104 0.193268C17.3561 -0.19495 18.8017 0.0197098 20.0199 0.675663L20.0604 0.688736C21.3589 1.39824 22.376 2.61623 22.7777 4.15571C23.5139 6.87323 22.0947 9.67131 19.578 10.7556L21.9612 19.6447C22.1754 19.6179 22.4027 19.6041 22.6169 19.6041C23.5673 19.6041 24.5316 19.8452 25.4152 20.3539C25.9774 20.6752 26.4591 21.0766 26.8473 21.5317C27.3962 22.1609 27.8113 22.9111 28.0389 23.7679C28.1326 24.116 28.186 24.4771 28.2128 24.8386L28.2259 24.9053V24.9726V25.0392V25.1066V25.1334V25.1732V25.2V25.2399V25.2667V25.3072V25.3471V25.3608V25.4144V25.4412V25.4942L28.2128 25.5615C28.186 26.1639 28.0387 26.7396 27.8245 27.2885L29.9934 28.5467C31.6935 26.3915 34.7589 25.7489 37.1953 27.1545H37.2084C38.5739 27.9577 39.4978 29.2427 39.8459 30.675V30.7286C40.1672 32.0673 39.9932 33.5269 39.257 34.812C38.5073 36.0971 37.3293 36.9806 36.0174 37.3822L35.9638 37.3952C34.5448 37.8102 32.9782 37.6628 31.5994 36.873V36.8599C29.1496 35.4543 28.1726 32.4822 29.19 29.9253L27.0212 28.6807C26.2983 29.6044 25.2947 30.3002 24.0765 30.6214C23.2331 30.849 22.3762 30.8762 21.573 30.7156C20.9706 30.6085 20.3815 30.3943 19.8192 30.073L19.8055 30.0593C19.0157 29.6041 18.3732 28.9748 17.9047 28.2519C17.744 27.9976 17.5967 27.717 17.4628 27.4225L11.1714 29.1089C11.4926 31.8264 9.77936 34.4503 7.06183 35.1866H7.0481C5.522 35.6015 3.95574 35.3335 2.69737 34.5571L2.6575 34.5303C1.47946 33.8074 0.568707 32.6565 0.193875 31.2241C-0.194343 29.7917 0.019977 28.3325 0.662546 27.1277L0.689346 27.0741C1.39885 25.7889 2.61716 24.7718 4.14326 24.3568H4.15633C6.87386 23.6206 9.67195 25.0394 10.7563 27.5695L17.0484 25.8694C17.0216 25.5883 17.0082 25.307 17.0216 25.0392C17.035 24.1423 17.289 23.2324 17.7576 22.4024C18.36 21.3716 19.2433 20.5949 20.2474 20.1264L20.2742 20.1133L20.3147 20.0996L20.3683 20.0728L20.4082 20.0597ZM36.4057 28.5467C34.4914 27.4356 32.0411 28.0914 30.93 30.0057C29.8323 31.92 30.4887 34.3702 32.3897 35.4813C34.304 36.5791 36.7669 35.923 37.8647 34.0087C38.9624 32.0944 38.3066 29.6445 36.4057 28.5467ZM4.55833 25.9093C2.42982 26.4715 1.17099 28.6805 1.73323 30.809C2.30887 32.9375 4.50452 34.2094 6.63303 33.6472C8.77493 33.0716 10.0334 30.8628 9.4712 28.7343C8.89557 26.6058 6.70023 25.3336 4.55833 25.9093ZM21.2383 4.57078C20.6627 2.44228 18.4673 1.17037 16.3254 1.73262C14.1969 2.30825 12.9247 4.50424 13.5003 6.64612C14.076 8.77463 16.2716 10.0462 18.4001 9.47056C20.5286 8.89492 21.8005 6.69928 21.2383 4.57078Z" fill="#08DBBA"/>
</svg>
