<svg width="90" height="70" viewBox="0 0 90 70" fill="none" xmlns="http://www.w3.org/2000/svg">
<path d="M42.7401 11.6397C43.9401 10.9602 45.4701 10.9572 46.6401 11.6397L64.5561 21.7392C65.6766 22.3692 66.4266 23.6187 66.4161 24.9102V45.1602C66.4236 46.5057 65.6001 47.7822 64.4181 48.4002L46.5981 58.4532C45.9886 58.79 45.3 58.9575 44.6039 58.9382C43.9078 58.9189 43.2295 58.7137 42.6396 58.3437L37.2921 55.2537C36.9276 55.0362 36.5181 54.8637 36.2601 54.5112C36.4881 54.2052 36.8931 54.1662 37.2231 54.0312C37.9671 53.7942 38.6481 53.4312 39.3321 53.0472C39.5046 52.9272 39.7161 52.9722 39.8811 53.0802L44.4411 55.7172C44.7666 55.9047 45.0966 55.6572 45.3756 55.4997L62.8731 45.6252C63.0891 45.5202 63.2091 45.2922 63.1911 45.0552V25.0002C63.2151 24.7302 63.0606 24.4842 62.8161 24.3747L45.0411 14.3652C44.9386 14.2943 44.8171 14.2562 44.6925 14.256C44.568 14.2557 44.4463 14.2932 44.3436 14.3637L26.5941 24.3942C26.3541 24.5037 26.1891 24.7467 26.2191 25.0167V45.0717C26.1981 45.3087 26.3241 45.5322 26.5416 45.6342L31.2846 48.3117C32.1756 48.7917 33.2691 49.0617 34.2501 48.7092C34.6793 48.5474 35.0489 48.2582 35.3092 47.8805C35.5696 47.5027 35.7082 47.0544 35.7066 46.5957L35.7111 26.6607C35.6901 26.3652 35.9691 26.1207 36.2556 26.1507H38.5356C38.8356 26.1432 39.0711 26.4612 39.0306 26.7582L39.0261 46.8192C39.0276 48.6012 38.2956 50.5392 36.6471 51.4137C34.6161 52.4637 32.1051 52.2432 30.0981 51.2337L24.9981 48.4137C23.7981 47.8137 22.9926 46.5177 23.0001 45.1737V24.9237C23.005 24.2655 23.186 23.6207 23.5241 23.056C23.8622 22.4913 24.3452 22.0273 24.9231 21.7122L42.7401 11.6397ZM47.9061 25.6767C50.4966 25.5267 53.2701 25.5777 55.6011 26.8542C57.4056 27.8322 58.4061 29.8842 58.439 31.8912C58.3881 32.1612 58.1061 32.3112 57.8481 32.2917C57.0981 32.2902 56.3451 32.3022 55.5921 32.2872C55.2726 32.2992 55.0881 32.0052 55.0476 31.7232C54.8316 30.7632 54.3081 29.8137 53.4051 29.3502C52.0191 28.6557 50.411 28.6902 48.899 28.7052C47.795 28.7652 46.6086 28.8597 45.6741 29.5077C44.9541 29.9997 44.7381 31.0077 44.9946 31.7907C45.2346 32.3652 45.8991 32.5497 46.4406 32.7207C49.5636 33.5367 52.871 33.4707 55.9356 34.5312C57.203 34.9692 58.4436 35.8212 58.8786 37.1487C59.4456 38.9277 59.1981 41.0547 57.9336 42.4827C56.9076 43.6587 55.4136 44.2827 53.9211 44.6457C51.9366 45.0882 49.8786 45.0987 47.8641 44.9007C45.9696 44.6847 43.9986 44.1867 42.5361 42.8967C41.2851 41.8107 40.6761 40.1187 40.7361 38.4867C40.7511 38.2107 41.0256 38.0187 41.2911 38.0412H43.5411C43.8441 38.0202 44.0661 38.2812 44.0811 38.5662C44.2206 39.4662 44.5641 40.4412 45.3621 40.9662C46.9011 41.9592 48.8316 41.8902 50.5926 41.9187C52.0521 41.8542 53.6901 41.8347 54.8825 40.8687C55.5126 40.3182 55.6971 39.3987 55.5275 38.6067C55.3431 37.9377 54.6276 37.6272 54.0275 37.4067C50.9451 36.4317 47.6001 36.7857 44.5476 35.6817C43.3086 35.2437 42.1101 34.4157 41.6346 33.1422C40.9701 31.3422 41.2746 29.1117 42.6741 27.7317C44.0241 26.3592 46.0041 25.8297 47.8791 25.6407L47.9061 25.6767Z" fill="#202020"/>
</svg>
