<svg width="60" height="52" viewBox="0 0 60 52" fill="none" xmlns="http://www.w3.org/2000/svg">
<g id="Frame 88">
<path id="Vector" d="M52.6792 51.5H7.32081C3.28431 51.5 0 48.2221 0 44.1935V7.80674C0 3.77814 3.28431 0.5 7.32081 0.5H52.6792C56.7157 0.5 60 3.77814 60 7.80674V44.1935C60 48.2221 56.7157 51.5 52.6792 51.5ZM7.32081 2.7693C4.53796 2.7693 2.27348 5.02907 2.27348 7.80674V44.1935C2.27348 46.9709 4.53796 49.231 7.32081 49.231H52.6792C55.462 49.231 57.7265 46.9709 57.7265 44.1935V7.80674C57.7265 5.02907 55.462 2.7693 52.6792 2.7693H7.32081Z" fill="#08DBBA"/>
<path id="Vector_2" d="M33.858 22.5502V42.0078H30.2491V25.58H26.1406V22.5502H33.858Z" fill="#08DBBA"/>
<path id="Vector_3" d="M52.9629 16.5H1.14207C0.511499 16.5 0 16.0525 0 15.5C0 14.9475 0.511499 14.5 1.14207 14.5H52.9629C53.5945 14.5 54.106 14.9475 54.106 15.5C54.106 16.0525 53.5945 16.5 52.9629 16.5Z" fill="#08DBBA"/>
<path id="Vector_4" d="M19.0371 11.5C17.3802 11.5 16.0312 10.1549 16.0312 8.5C16.0312 6.84629 17.3802 5.5 19.0371 5.5C20.6952 5.5 22.043 6.84629 22.043 8.5C22.043 10.1549 20.6952 11.5 19.0371 11.5ZM19.0371 7.13771C18.2848 7.13771 17.6722 7.74914 17.6722 8.5C17.6722 9.252 18.2848 9.86343 19.0371 9.86343C19.7906 9.86343 20.4032 9.252 20.4032 8.5C20.4032 7.74914 19.7906 7.13771 19.0371 7.13771Z" fill="#08DBBA"/>
<path id="Vector_5" d="M11.0215 11.5C9.36341 11.5 8.01562 10.1549 8.01562 8.5C8.01562 6.84629 9.36341 5.5 11.0215 5.5C12.6785 5.5 14.0274 6.84629 14.0274 8.5C14.0274 10.1549 12.6785 11.5 11.0215 11.5ZM11.0215 7.13771C10.268 7.13771 9.65541 7.74914 9.65541 8.5C9.65541 9.252 10.268 9.86343 11.0215 9.86343C11.7738 9.86343 12.3865 9.252 12.3865 8.5C12.3865 7.74914 11.7738 7.13771 11.0215 7.13771Z" fill="#08DBBA"/>
<path id="Vector_6" d="M27.0528 11.5C25.3947 11.5 24.0469 10.1549 24.0469 8.5C24.0469 6.84629 25.3947 5.5 27.0528 5.5C28.7097 5.5 30.0587 6.84629 30.0587 8.5C30.0587 10.1549 28.7097 11.5 27.0528 11.5ZM27.0528 7.13771C26.2993 7.13771 25.6867 7.74914 25.6867 8.5C25.6867 9.252 26.2993 9.86343 27.0528 9.86343C27.8051 9.86343 28.4177 9.252 28.4177 8.5C28.4177 7.74914 27.8051 7.13771 27.0528 7.13771Z" fill="#08DBBA"/>
</g>
</svg>
