<svg width="41" height="40" viewBox="0 0 41 40" fill="none" xmlns="http://www.w3.org/2000/svg">
<path fill-rule="evenodd" clip-rule="evenodd" d="M8.01272 0.0108969C4.37035 0.0354148 1.07052 3.19006 0.989037 6.95765C0.964592 13.0381 0.964592 19.1188 0.989037 25.1993C1.07052 28.8606 4.18303 32.1376 7.90689 32.3092L8.63221 32.3176C8.64851 36.2977 11.7042 39.8938 15.7295 39.9755C21.792 40.0082 27.8543 40.0082 33.9168 39.9755C37.5265 39.9019 40.7617 36.8127 40.835 33.0287C40.8676 26.9564 40.8676 20.8759 40.835 14.7955C40.7617 11.0933 37.5919 7.75887 33.7377 7.67715H33.1998C33.1835 3.68889 30.1278 0.100796 26.1025 0.0108969C20.0726 -0.0136211 14.0426 0.0108969 8.01272 0.0108969ZM33.7214 9.32804C36.5815 9.40159 39.1157 11.837 39.189 14.8119C39.2379 20.9005 39.2868 26.997 39.189 33.0774C39.0994 35.8398 36.663 38.2756 33.8925 38.3246C27.8463 38.3736 21.7999 38.3736 15.7538 38.3246C12.8774 38.2592 10.3269 35.7417 10.2862 32.8404L10.2782 32.3176C15.6073 32.3176 20.9445 32.3421 26.2736 32.3176C29.9322 32.2359 33.1753 29.0564 33.1998 25.2807V9.32804C33.3709 9.32804 33.5421 9.32804 33.7214 9.32804ZM26.0782 1.67017C28.9302 1.71103 31.5051 4.26087 31.5458 7.15399L31.5538 7.67715C26.2817 7.67715 21.0016 7.65263 15.7295 7.67715C15.6399 7.67715 15.5504 7.68513 15.4526 7.68513C11.8265 7.89762 8.64851 11.1175 8.63221 14.8933V30.6667C5.58468 30.6422 2.74078 28.3131 2.643 25.2483C2.55337 19.1924 2.55337 13.1363 2.643 7.08854C2.73264 4.26898 5.19338 1.76007 8.04535 1.67017C14.0508 1.58027 20.0646 1.62113 26.0782 1.67017ZM16.756 30.6583L31.5458 15.8251V10.799C31.4806 10.7744 31.4073 10.7419 31.3421 10.7092L11.6553 30.454L11.7448 30.6583H16.756ZM24.3912 30.6583L31.5458 23.4829V18.4568C31.4806 18.4323 31.4073 18.3995 31.3421 18.375L19.2984 30.454L19.3884 30.6583H24.3912ZM31.2442 27.0625L30.7799 27.8797C30.291 28.7052 29.598 29.3998 28.775 29.8902L27.9602 30.3563L27.5611 29.8247L30.7147 26.6622C30.8939 26.793 31.065 26.9317 31.2442 27.0625ZM30.1767 9.54034L10.4899 29.2772L10.2782 29.1954V24.1693L25.076 9.32804H30.0872C30.1117 9.40159 30.1441 9.47495 30.1767 9.54034ZM22.5336 9.54034L10.4899 21.6193L10.2782 21.5296V16.5114L17.4408 9.32804H22.444C22.4766 9.40159 22.501 9.47495 22.5336 9.54034ZM14.2709 10.1613L11.1173 13.3326L10.5878 12.9319L11.0521 12.1146C11.2639 11.7469 11.2967 11.7142 11.4189 11.5508C11.8589 10.9705 12.4214 10.4801 13.057 10.1042L13.8718 9.6385C14.0022 9.81013 14.1405 9.98964 14.2709 10.1613Z" fill="#08DBBA"/>
</svg>
