<svg width="80" height="60" viewBox="0 0 80 60" fill="none" xmlns="http://www.w3.org/2000/svg">
<rect width="80" height="60" rx="30" fill="#08DBBA"/>
<path d="M53.2674 39.3359H44.0673C43.6621 39.3359 43.334 38.9953 43.334 38.5748C43.334 38.1549 43.6621 37.8136 44.0673 37.8136H53.2674C53.6719 37.8136 54.0007 38.1549 54.0007 38.5748C54.0007 38.9953 53.6725 39.3359 53.2674 39.3359ZM53.2674 34.0974H44.0673C43.6621 34.0974 43.334 33.7569 43.334 33.3363C43.334 32.9164 43.6621 32.5751 44.0673 32.5751H53.2674C53.6719 32.5751 54.0007 32.9164 54.0007 33.3363C54.0007 33.7569 53.6725 34.0974 53.2674 34.0974ZM53.2674 28.8583H44.0673C43.6621 28.8583 43.334 28.5177 43.334 28.0971C43.334 27.6772 43.6621 27.3359 44.0673 27.3359H53.2674C53.6719 27.3359 54.0007 27.6772 54.0007 28.0971C54.0007 28.5177 53.6725 28.8583 53.2674 28.8583Z" fill="#202020"/>
<path d="M55.2394 23.3333H20.7599C20.3403 23.3333 20 23.035 20 22.6667C20 22.2983 20.3403 22 20.7599 22H55.2394C55.6597 22 56 22.2983 56 22.6667C56 23.035 55.6597 23.3333 55.2394 23.3333Z" fill="#202020"/>
<path d="M32.666 20C31.5635 20 30.666 19.1032 30.666 18C30.666 16.8975 31.5635 16 32.666 16C33.7693 16 34.666 16.8975 34.666 18C34.666 19.1032 33.7693 20 32.666 20ZM32.666 17.0918C32.1654 17.0918 31.7578 17.4994 31.7578 18C31.7578 18.5013 32.1654 18.909 32.666 18.909C33.1673 18.909 33.575 18.5013 33.575 18C33.575 17.4994 33.1673 17.0918 32.666 17.0918Z" fill="#202020"/>
<path d="M27.334 20C26.2307 20 25.334 19.1032 25.334 18C25.334 16.8975 26.2307 16 27.334 16C28.4365 16 29.334 16.8975 29.334 18C29.334 19.1032 28.4365 20 27.334 20ZM27.334 17.0918C26.8327 17.0918 26.425 17.4994 26.425 18C26.425 18.5013 26.8327 18.909 27.334 18.909C27.8346 18.909 28.2422 18.5013 28.2422 18C28.2422 17.4994 27.8346 17.0918 27.334 17.0918Z" fill="#202020"/>
<path d="M38 20C36.8968 20 36 19.1032 36 18C36 16.8975 36.8968 16 38 16C39.1025 16 40 16.8975 40 18C40 19.1032 39.1025 20 38 20ZM38 17.0918C37.4987 17.0918 37.091 17.4994 37.091 18C37.091 18.5013 37.4987 18.909 38 18.909C38.5006 18.909 38.9082 18.5013 38.9082 18C38.9082 17.4994 38.5006 17.0918 38 17.0918Z" fill="#202020"/>
<path d="M38.559 40.0013H26.109C25.6808 40.0013 25.334 39.6731 25.334 39.2678V27.4014C25.334 26.9968 25.6808 26.668 26.109 26.668H38.559C38.9872 26.668 39.334 26.9968 39.334 27.4014V39.2678C39.334 39.6731 38.9872 40.0013 38.559 40.0013ZM37.784 28.2625C37.7833 28.2033 37.7153 28.1362 37.6521 28.1349C35.8579 28.1136 27.0187 28.1349 27.0187 28.1349C26.8439 28.1349 26.8839 28.2598 26.8839 28.2598V38.4101C26.8839 38.4786 26.9429 38.5344 27.0159 38.5344H37.6521C37.7251 38.5344 37.784 38.4786 37.784 38.4101C37.784 38.4101 37.8058 29.9752 37.784 28.2625V28.2625Z" fill="#202020"/>
<path d="M55.1191 46.668H24.8802C22.1892 46.668 20 44.4831 20 41.7973V17.5393C20 14.8536 22.1892 12.668 24.8802 12.668H55.1191C57.8101 12.668 60 14.8536 60 17.5393V41.7973C60 44.4831 57.8101 46.668 55.1191 46.668ZM24.8802 14.1808C23.0246 14.1808 21.5151 15.6874 21.5151 17.5393V41.7973C21.5151 43.6486 23.0246 45.1552 24.8802 45.1552H55.1191C56.9747 45.1552 58.4842 43.6486 58.4842 41.7973V17.5393C58.4842 15.6874 56.9747 14.1808 55.1191 14.1808H24.8802Z" fill="#202020"/>
</svg>
