<svg width="47" height="38" viewBox="0 0 47 38" fill="none" xmlns="http://www.w3.org/2000/svg">
<path d="M33.9445 2.43017L36.2177 0.645676C37.0619 -0.013351 38.2837 0.142121 38.9427 0.986268L46.5919 10.6199C47.2509 11.4715 47.0954 12.6932 46.2439 13.3523L45.5479 13.8557C45.5108 13.9002 44.4001 14.7667 44.4001 14.7667C44.0817 15.0184 43.6226 14.9665 43.3708 14.6407C43.119 14.3149 43.1857 13.8558 43.5041 13.6041C43.5041 13.6041 44.5852 12.7598 44.6296 12.7376L45.3627 12.2045C45.5775 12.0416 45.6145 11.7232 45.4442 11.5085L37.8024 1.87481C37.6321 1.65266 37.3211 1.61573 37.099 1.78604L34.8775 3.42248C34.2925 3.87417 33.678 4.37022 33.3225 4.6442C33.1448 4.78489 33.0263 4.89591 32.9818 4.96255C32.9522 5.01439 32.9375 5.06635 32.9375 5.09597C32.9375 5.11818 32.9448 5.15513 32.967 5.19956C32.9892 5.24399 33.0485 5.34775 33.1521 5.48845C33.626 6.16228 40.6829 15.6108 40.6829 15.6108C40.6829 15.6108 41.0679 16.0698 41.1271 16.6399C41.1864 17.1953 40.905 17.7212 40.905 17.7212L38.7946 22.0825L39.0538 23.0823C39.1797 23.571 39.2241 24.2743 39.1501 24.6594C39.0168 25.3554 38.4837 26.0812 37.8617 26.5625C37.4544 26.8661 37.0175 27.066 36.625 27.066C36.4177 27.066 36.2622 27.1475 36.1215 27.34C36.0178 27.4881 35.9289 27.7325 35.8401 28.0879C35.5809 29.1098 34.4628 30.1908 33.4706 30.3759C33.0041 30.4647 32.7672 30.5907 32.6635 30.7758C32.6117 30.8646 32.582 30.9683 32.582 31.1015C32.582 31.4866 32.3821 31.931 32.0785 32.3309C31.612 32.9603 30.9011 33.5008 30.2273 33.6267C29.8867 33.6933 29.6867 33.7673 29.5534 33.908C29.4127 34.0413 29.3387 34.2486 29.272 34.5892C29.1239 35.3741 28.2428 36.4257 27.4579 36.7441C27.0654 36.907 26.4731 36.944 25.8955 36.8773C25.3253 36.8107 24.7626 36.6479 24.4294 36.4035L23.7258 35.885L23.2372 36.433C22.4449 37.3215 20.764 37.5881 19.6014 37.018C19.1867 36.8106 18.7128 36.322 18.3944 35.8481C18.1945 35.5519 18.0538 35.2631 18.0538 35.0558C18.0538 34.9003 18.0094 34.7818 17.9205 34.6929C17.8094 34.5819 17.6243 34.5152 17.3207 34.5152C15.936 34.5004 14.5069 33.3009 14.2921 31.9606C14.2181 31.5163 14.1219 31.3016 13.9515 31.1979C13.8331 31.1238 13.6775 31.0941 13.4406 31.0941C13.0037 31.0941 12.5372 30.8573 12.1226 30.5019C11.5006 29.9465 11.0119 29.1171 11.0119 28.3618C11.0119 28.11 10.9748 27.9323 10.8859 27.7768C10.7527 27.5695 10.4787 27.3918 9.90855 27.1327C8.25728 26.37 7.67223 24.689 8.44973 22.9488C8.45714 22.9488 8.87927 22.0084 8.87927 22.0084C8.87927 22.0084 6.36163 18.6467 5.81367 18.0247C5.05098 17.1584 5.52483 16.4698 5.57667 16.4254C5.95431 16.0551 13.1741 6.16968 13.7072 5.48103C13.8183 5.34034 13.8849 5.24399 13.9145 5.19956C13.9367 5.16994 13.9441 5.14784 13.9515 5.13303C13.9589 5.096 13.9663 5.02936 13.9145 4.94791C13.8775 4.89608 13.7516 4.78489 13.5591 4.6442C13.1666 4.348 12.4854 3.89628 11.8486 3.50383C11.7894 3.4594 11.6783 3.37808 11.545 3.27442L9.1828 1.54904C8.96806 1.38613 8.6497 1.42306 8.48679 1.6378L1.5485 11.6269C1.38559 11.849 1.42261 12.1602 1.63735 12.3305L2.19271 12.7524C2.22974 12.7746 3.31084 13.6263 3.31084 13.6263C3.63666 13.8707 3.69584 14.3371 3.44408 14.6555C3.19232 14.9813 2.7407 15.0405 2.41489 14.7887C2.41489 14.7887 1.30414 13.915 1.26711 13.8705L0.756134 13.4708C-0.0954183 12.8118 -0.250897 11.5899 0.40813 10.7457L7.33901 0.749264C7.99804 -0.0948833 9.21988 -0.250355 10.0714 0.408672L12.6186 2.3857C12.7297 2.45974 12.8334 2.54123 12.9445 2.60788C14.9586 3.88891 15.2696 4.08154 17.7354 4.75538L20.4233 5.48103L31.4194 4.02972L33.9445 2.43017ZM22.6744 34.8929C23.4519 34.1302 23.6889 33.6933 23.6889 33.2194C23.6889 32.7455 23.5407 32.3678 23.2742 32.1087C23.0076 31.8495 22.6225 31.7014 22.1412 31.7014C21.5414 31.7014 21.186 31.8791 20.4307 32.6344C19.7791 33.2786 19.4755 33.8783 19.4829 34.404C19.4829 34.7817 19.6384 35.1224 19.9568 35.4408C20.2604 35.7444 20.5862 35.8998 20.9342 35.8924C21.4155 35.8924 21.9784 35.5741 22.6744 34.8929ZM15.7731 22.8749C15.7805 22.8675 15.8768 22.8527 15.9582 22.8527C16.1433 22.8453 16.4026 22.8675 16.6617 22.912C17.7428 23.0971 18.8535 24.1337 19.1275 25.2148C19.1941 25.4739 19.2534 25.6665 19.32 25.8072C19.4089 25.9849 19.5052 26.0885 19.6162 26.1552C19.7199 26.207 19.831 26.2293 19.9791 26.2293C20.179 26.2293 20.4456 26.3403 20.7418 26.5106C21.2009 26.7698 21.7044 27.1844 22.008 27.5991C22.2153 27.8805 22.4226 28.5174 22.4671 29.0209C22.5189 29.517 22.5707 29.7909 22.7114 29.9908C22.8447 30.1907 23.0743 30.3314 23.5038 30.5388C23.9332 30.7461 24.4885 31.2201 24.7329 31.583C25.1179 32.1679 25.155 32.4196 25.081 33.5377C25.044 34.1153 25.0365 34.4782 25.0662 34.7152C25.118 35.0188 25.229 35.1595 25.4067 35.2631C26.1028 35.6778 26.9692 35.5149 27.4653 34.8929C27.7171 34.5671 27.917 34.093 27.917 33.8487C27.917 33.7672 27.8577 33.6044 27.7319 33.4045C27.4875 33.0269 27.0062 32.4344 26.4434 31.8568C25.8585 31.2571 25.5104 30.872 25.3179 30.5758C25.155 30.3315 25.1106 30.1611 25.1328 29.9612C25.155 29.7909 25.1772 29.6724 25.2513 29.5983C25.3179 29.5243 25.4364 29.5096 25.6067 29.4873C25.8066 29.4651 25.9769 29.5022 26.2287 29.6725C26.5175 29.865 26.9025 30.213 27.5023 30.7906C28.1909 31.4644 28.6797 31.8791 29.0722 32.079C29.3758 32.2419 29.6275 32.2789 29.8719 32.2271C30.1162 32.1827 30.3532 32.0273 30.6198 31.7829C30.9382 31.4867 31.1233 31.2126 31.1677 30.909C31.2121 30.6128 31.1159 30.2722 30.8123 29.8205C30.4569 29.2874 29.7978 28.5766 28.7686 27.5326C27.7245 26.4737 27.021 25.6887 26.6878 25.2148C26.6285 25.1259 26.5767 25.0444 26.5471 24.9778C26.5249 24.9407 26.5101 24.9112 26.5101 24.8816C26.5101 24.7631 26.5767 24.6372 26.6804 24.5262C26.8359 24.3559 27.0728 24.2299 27.3172 24.2224C27.3542 24.2447 27.4875 24.341 27.6134 24.4372C28.0799 24.8297 28.9314 25.6072 29.8348 26.5032C31.1306 27.7842 31.9008 28.4803 32.4561 28.7543C32.7079 28.8802 32.9227 28.9246 33.1226 28.9097C33.4114 28.8875 33.6631 28.7247 33.9519 28.4359C34.1667 28.2212 34.3073 28.0063 34.3591 27.7694C34.4406 27.4139 34.337 26.992 33.9519 26.407C33.3743 25.5184 32.1155 24.2002 29.8941 21.9936C28.9093 21.0162 28.3316 20.3943 28.0725 19.95C27.9688 19.7649 27.917 19.6167 27.9318 19.4909C27.9392 19.3724 28.0058 19.2688 28.1095 19.1725C28.1984 19.0836 28.2798 19.017 28.3761 19.0022C28.5464 18.9652 28.7389 19.0539 29.0351 19.2687C29.6275 19.6908 30.5456 20.6016 32.1303 22.2454C33.9 24.0744 34.8775 25.0371 35.5366 25.4295C35.8402 25.6072 36.0844 25.6739 36.3066 25.6665C36.6324 25.6517 36.9212 25.459 37.2618 25.1406C37.5432 24.8741 37.7284 24.6595 37.7654 24.3855C37.8024 24.1115 37.6913 23.7709 37.3136 23.26C36.6472 22.3344 35.0849 20.7645 32.0193 17.6915L26.2583 11.9158L21.9561 11.8713L20.564 14.2779C19.3866 16.2994 19.1793 16.5807 18.3425 16.9954C16.2544 18.032 14.0256 16.6103 14.0256 14.2482C14.0256 13.4411 14.2847 12.9005 15.936 9.99044C16.8986 8.28734 17.6761 6.85089 17.7946 6.56211C17.8316 6.46584 17.8168 6.3992 17.8094 6.37699C17.7946 6.33996 17.7724 6.31026 17.7428 6.28804C17.6836 6.24361 17.491 6.16956 17.2318 6.09551C16.6839 5.94001 16.3952 5.87344 15.9287 5.8068C15.7806 5.78459 15.662 5.76975 15.6102 5.77715C15.5584 5.78456 15.5287 5.7994 15.5065 5.81421C15.4917 5.82162 15.4621 5.84373 15.4177 5.89556C15.3066 6.01404 15.04 6.32517 14.6624 6.76205C12.8186 8.95387 8.54604 15.2997 7.47975 16.677C7.33906 16.8621 7.25014 16.9806 7.23533 17.0102C7.21312 17.0546 7.21319 17.0843 7.21319 17.0991C7.21319 17.1213 7.21312 17.1509 7.23533 17.1879C7.24274 17.2175 7.27977 17.2695 7.3316 17.351C7.56115 17.699 9.97517 20.9941 9.97517 20.9941L10.8563 20.5497C12.4853 19.7204 14.5291 20.5201 15.0845 22.2158C15.1882 22.5194 15.3363 22.749 15.4547 22.8378C15.5732 22.9267 15.6842 22.9193 15.7731 22.8749ZM19.4459 31.4495C20.1716 30.7239 20.6158 30.2352 20.8379 29.8428C21.0083 29.5466 21.0601 29.2948 21.0231 29.0504C20.986 28.806 20.8454 28.5618 20.6159 28.273C20.3641 27.9546 20.1123 27.7547 19.8383 27.6732C19.5717 27.5992 19.283 27.6361 18.9424 27.799C18.4981 28.0212 17.9501 28.4802 17.2097 29.2133C16.4988 29.9315 16.0544 30.4501 15.8397 30.8721C15.6768 31.1905 15.6324 31.4644 15.6991 31.7236C15.7657 31.9902 15.936 32.242 16.2174 32.5308C16.4913 32.7974 16.7283 32.9676 16.9801 33.0269C17.2244 33.0787 17.4762 33.0417 17.7946 32.8714C18.1944 32.6492 18.7055 32.19 19.4459 31.4495ZM15.9434 28.5024C16.6765 27.8212 17.1652 27.266 17.4318 26.7847C17.728 26.2589 17.765 25.8145 17.6095 25.3999C17.4688 25.0222 17.3133 24.8001 17.0912 24.652C16.8764 24.5113 16.5876 24.4594 16.1582 24.452C15.8768 24.452 15.6176 24.526 15.2696 24.7778C14.9586 25 14.5513 25.3703 13.959 25.9701C13.3073 26.6217 12.8852 27.1179 12.6557 27.5251C12.4632 27.8732 12.4039 28.1619 12.4558 28.4285C12.5002 28.6951 12.6483 28.9395 12.9074 29.1986C13.1518 29.443 13.3962 29.5836 13.6627 29.6428C13.9737 29.7021 14.3144 29.6428 14.7068 29.4355C15.0623 29.2503 15.4695 28.9393 15.9434 28.5024ZM11.893 25.7182C12.4557 25.4294 13.0334 24.8668 13.4036 24.3114C13.6702 23.9189 13.8256 23.5265 13.8256 23.2377C13.8256 22.8675 13.6109 22.4603 13.2925 22.1567C12.9815 21.8457 12.5668 21.6308 12.1966 21.6308C12.1152 21.6308 11.9819 21.6753 11.819 21.7568C11.5228 21.9197 11.0859 22.2454 10.686 22.6157C9.84185 23.408 9.63457 23.7782 9.63457 24.3114C9.63457 24.7113 9.67898 24.9852 9.79746 25.1999C9.91593 25.4147 10.1084 25.585 10.4268 25.7627C10.7378 25.9404 10.9229 26.0145 11.1229 26.0071C11.308 25.9997 11.5227 25.9108 11.893 25.7182ZM21.3415 10.2126C21.3934 10.2126 21.5414 10.1978 21.6969 10.2052C22.2449 10.2052 23.2149 10.2496 24.2738 10.3384L26.9469 10.5458L32.1303 15.7143C34.7294 18.306 36.9434 20.4238 37.4099 20.7645C37.4914 20.8237 37.5581 20.8386 37.5877 20.846C37.6692 20.8534 37.721 20.8163 37.7506 20.7719C37.8172 20.6904 38.4096 19.5056 39.0687 18.1431L39.7129 16.7734L31.3232 5.71044C31.3232 5.71044 20.0605 7.09524 19.52 7.29517C19.3571 7.35441 19.2534 7.4062 19.2238 7.42841C19.1867 7.45803 19.1127 7.54697 19.0164 7.69506C18.6832 8.17637 17.9575 9.39809 17.1948 10.768C16.2396 12.4785 15.7361 13.4633 15.588 14.1076C15.4991 14.4704 15.5214 14.7443 15.6324 14.9739C15.7361 15.196 15.9212 15.3886 16.1878 15.5811C16.4618 15.7884 16.6395 15.8847 16.8246 15.9069C17.0097 15.9365 17.2096 15.8847 17.5132 15.7588C17.7279 15.67 17.9353 15.5145 18.1945 15.2035C18.5351 14.7814 18.9794 14.0706 19.6828 12.834C20.2456 11.8417 20.7935 10.9532 21.1267 10.4867C21.2156 10.3608 21.3119 10.2496 21.3415 10.2126ZM5.38413 9.76103C6.20607 9.76103 6.8651 10.4275 6.8651 11.242C6.8651 12.0639 6.20607 12.7229 5.38413 12.7229C4.56961 12.7229 3.90317 12.0639 3.90317 11.242C3.90317 10.4275 4.56961 9.76103 5.38413 9.76103ZM41.3493 9.82015C42.1638 9.82015 42.8303 10.4792 42.8303 11.3011C42.8303 12.1156 42.1638 12.7821 41.3493 12.7821C40.5274 12.7821 39.8683 12.1156 39.8683 11.3011C39.8683 10.4792 40.5274 9.82015 41.3493 9.82015Z" fill="#07E7C4"/>
</svg>
