<svg width="80" height="60" viewBox="0 0 80 60" fill="none" xmlns="http://www.w3.org/2000/svg">
<rect width="80" height="60" rx="30" fill="#202020"/>
<path d="M34.3373 24.2991C34.1433 21.783 34.7247 19.2679 36.0034 17.0923C37.282 14.9167 39.1964 13.185 41.4889 12.1303C43.7815 11.0756 46.3421 10.7486 48.8262 11.1932C51.3102 11.6378 53.5984 12.8327 55.3828 14.6171C57.1672 16.4015 58.3622 18.6897 58.8068 21.1738C59.2514 23.6578 58.9243 26.2185 57.8696 28.511C56.8149 30.8036 55.0832 32.718 52.9076 33.9966C50.732 35.2752 48.2169 35.8566 45.7009 35.6626" stroke="#08DBBA" stroke-width="2" stroke-linecap="round" stroke-linejoin="round"/>
<path d="M59.0007 39.499C59.0007 41.0107 58.4001 42.4605 57.3312 43.5294C56.2623 44.5983 54.8125 45.1988 53.3008 45.1988H49.501M49.501 45.1988L53.3008 41.399M49.501 45.1988L53.3008 48.9987M21.002 20.4997C21.002 18.988 21.6025 17.5382 22.6714 16.4693C23.7403 15.4004 25.1901 14.7999 26.7018 14.7999H30.5016M30.5016 14.7999L26.7018 18.5997M30.5016 14.7999L26.7018 11M33.3515 48.9987C30.0762 48.9987 26.9351 47.6976 24.6191 45.3816C22.3031 43.0656 21.002 39.9244 21.002 36.6491C21.002 33.3738 22.3031 30.2326 24.6191 27.9167C26.9351 25.6007 30.0762 24.2995 33.3515 24.2995C36.6268 24.2995 39.768 25.6007 42.084 27.9167C44.4 30.2326 45.7011 33.3738 45.7011 36.6491C45.7011 39.9244 44.4 43.0656 42.084 45.3816C39.768 47.6976 36.6268 48.9987 33.3515 48.9987Z" stroke="#08DBBA" stroke-width="2" stroke-linecap="round" stroke-linejoin="round"/>
</svg>
