<svg width="40" height="60" viewBox="0 0 40 60" fill="none" xmlns="http://www.w3.org/2000/svg">
<path d="M10 44.1667C11.6667 28.3333 19.1667 23.3333 33.3333 20" stroke="#08DBBA" stroke-width="2" stroke-linecap="round" stroke-linejoin="round"/>
<path d="M26.515 16.35L33.9917 19.8333L30.505 27.31M26.6667 43.7383L30.2017 40.2017M30.2017 40.2017L33.7383 36.6667M30.2017 40.2017L26.6667 36.6667M30.2017 40.2017L33.7383 43.7383M8.33333 21.6667C9.21739 21.6667 10.0652 21.3155 10.6904 20.6904C11.3155 20.0652 11.6667 19.2174 11.6667 18.3333C11.6667 17.4493 11.3155 16.6014 10.6904 15.9763C10.0652 15.3512 9.21739 15 8.33333 15C7.44928 15 6.60143 15.3512 5.97631 15.9763C5.35119 16.6014 5 17.4493 5 18.3333C5 19.2174 5.35119 20.0652 5.97631 20.6904C6.60143 21.3155 7.44928 21.6667 8.33333 21.6667Z" stroke="#08DBBA" stroke-width="2" stroke-linecap="round" stroke-linejoin="round"/>
</svg>
