<svg width="60" height="60" viewBox="0 0 60 60" fill="none" xmlns="http://www.w3.org/2000/svg">
<rect width="60" height="60" fill="url(#paint0_linear_4815_3057)"/>
<g clip-path="url(#clip0_4815_3057)">
<path fill-rule="evenodd" clip-rule="evenodd" d="M40.0451 12.3932H32.1063C30.5142 12.3932 29.2235 13.6838 29.2235 15.276V28.2232C29.2235 28.9611 28.6254 29.5592 27.8876 29.5592H15.28C13.6879 29.5592 12.3972 30.8498 12.3972 32.442V40.0528C11.1774 40.3908 10.2812 41.5086 10.2812 42.8334C10.2812 44.4255 11.5756 45.7188 13.1707 45.7188C14.7658 45.7188 16.0601 44.4255 16.0601 42.8334C16.0601 41.5086 15.164 40.3908 13.9441 40.0528V32.442C13.9441 31.7041 14.5422 31.1061 15.28 31.1061H27.8876C29.4797 31.1061 30.7704 29.8154 30.7704 28.2232V15.276C30.7704 14.5381 31.3685 13.94 32.1063 13.94H40.0451C40.3838 15.1571 41.5025 16.0519 42.8293 16.0519C44.4244 16.0519 45.7188 14.7587 45.7188 13.1666C45.7188 11.5746 44.4244 10.2812 42.8293 10.2812C41.5025 10.2812 40.3838 11.176 40.0451 12.3932ZM42.1166 43.2104L40.9286 44.3984C40.6268 44.7003 40.6268 45.1904 40.9286 45.4922C41.2305 45.7941 41.7206 45.7941 42.0224 45.4922L43.2104 44.3042L44.3984 45.4922C44.7003 45.7941 45.1904 45.7941 45.4922 45.4922C45.7941 45.1904 45.7941 44.7003 45.4922 44.3984L44.3042 43.2104L45.4922 42.0224C45.7941 41.7206 45.7941 41.2305 45.4922 40.9286C45.1904 40.6268 44.7003 40.6268 44.3984 40.9286L43.2104 42.1166L42.0224 40.9286C41.7206 40.6268 41.2305 40.6268 40.9286 40.9286C40.6268 41.2305 40.6268 41.7206 40.9286 42.0224L42.1166 43.2104ZM13.1707 41.4949C13.9112 41.4949 14.5132 42.0943 14.5132 42.8334C14.5132 43.5725 13.9112 44.1719 13.1707 44.1719C12.4301 44.1719 11.8281 43.5725 11.8281 42.8334C11.8281 42.0943 12.4301 41.4949 13.1707 41.4949ZM27.474 36.2863L26.286 37.4743C25.9841 37.7762 25.9841 38.2663 26.286 38.5681C26.5878 38.87 27.0779 38.87 27.3798 38.5681L28.5678 37.3801L29.7558 38.5681C30.0576 38.87 30.5477 38.87 30.8496 38.5681C31.1514 38.2663 31.1514 37.7762 30.8496 37.4743L29.6616 36.2863L30.8496 35.0983C31.1514 34.7964 31.1514 34.3063 30.8496 34.0045C30.5477 33.7026 30.0576 33.7026 29.7558 34.0045L28.5678 35.1925L27.3798 34.0045C27.0779 33.7026 26.5878 33.7026 26.286 34.0045C25.9841 34.3063 25.9841 34.7964 26.286 35.0983L27.474 36.2863ZM35.2084 36.2863L34.0204 37.4743C33.7185 37.7762 33.7185 38.2663 34.0204 38.5681C34.3222 38.87 34.8123 38.87 35.1141 38.5681L36.3021 37.3801L37.4901 38.5681C37.792 38.87 38.2821 38.87 38.5839 38.5681C38.8858 38.2663 38.8858 37.7762 38.5839 37.4743L37.3959 36.2863L38.5839 35.0983C38.8858 34.7964 38.8858 34.3063 38.5839 34.0045C38.2821 33.7026 37.792 33.7026 37.4901 34.0045L36.3021 35.1925L35.1141 34.0045C34.8123 33.7026 34.3222 33.7026 34.0204 34.0045C33.7185 34.3063 33.7185 34.7964 34.0204 35.0983L35.2084 36.2863ZM35.2084 28.6223L34.0204 29.8103C33.7185 30.1121 33.7185 30.6023 34.0204 30.904C34.3222 31.2059 34.8123 31.2059 35.1141 30.904L36.3021 29.716L37.4901 30.904C37.792 31.2059 38.2821 31.2059 38.5839 30.904C38.8858 30.6023 38.8858 30.1121 38.5839 29.8103L37.3959 28.6223L38.5839 27.4342C38.8858 27.1323 38.8858 26.6423 38.5839 26.3404C38.2821 26.0386 37.792 26.0386 37.4901 26.3404L36.3021 27.5284L35.1141 26.3404C34.8123 26.0386 34.3222 26.0386 34.0204 26.3404C33.7185 26.6423 33.7185 27.1323 34.0204 27.4342L35.2084 28.6223ZM23.6986 23.0392L22.5106 21.8512C22.2088 21.5493 21.7187 21.5493 21.4169 21.8512C21.115 22.153 21.115 22.6431 21.4169 22.945L22.6049 24.133L21.4169 25.321C21.115 25.6228 21.115 26.1129 21.4169 26.4147C21.7187 26.7166 22.2088 26.7166 22.5106 26.4147L23.6986 25.2267L24.8866 26.4147C25.1885 26.7166 25.6786 26.7166 25.9804 26.4147C26.2823 26.1129 26.2823 25.6228 25.9804 25.321L24.7924 24.133L25.9804 22.945C26.2823 22.6431 26.2823 22.153 25.9804 21.8512C25.6786 21.5493 25.1885 21.5493 24.8866 21.8512L23.6986 23.0392ZM43.2104 19.794L42.0224 18.606C41.7206 18.3042 41.2305 18.3042 40.9286 18.606C40.6268 18.9079 40.6268 19.398 40.9286 19.6998L42.1166 20.8879L40.9286 22.0759C40.6268 22.3777 40.6268 22.8679 40.9286 23.1697C41.2305 23.4715 41.7206 23.4715 42.0224 23.1697L43.2104 21.9817L44.3984 23.1697C44.7003 23.4715 45.1904 23.4715 45.4922 23.1697C45.7941 22.8679 45.7941 22.3777 45.4922 22.0759L44.3042 20.8879L45.4922 19.6998C45.7941 19.398 45.7941 18.9079 45.4922 18.606C45.1904 18.3042 44.7003 18.3042 44.3984 18.606L43.2104 19.794ZM15.2153 18.521L14.0273 17.333C13.7254 17.0311 13.2354 17.0311 12.9335 17.333C12.6317 17.6348 12.6317 18.1249 12.9335 18.4267L14.1215 19.6147L12.9335 20.8027C12.6317 21.1046 12.6317 21.5947 12.9335 21.8965C13.2354 22.1984 13.7254 22.1984 14.0273 21.8965L15.2153 20.7085L16.4033 21.8965C16.7051 22.1984 17.1952 22.1984 17.4971 21.8965C17.7989 21.5947 17.7989 21.1046 17.4971 20.8027L16.3091 19.6147L17.4971 18.4267C17.7989 18.1249 17.7989 17.6348 17.4971 17.333C17.1952 17.0311 16.7051 17.0311 16.4033 17.333L15.2153 18.521ZM22.6049 15.0966L21.4169 16.2846C21.115 16.5865 21.115 17.0765 21.4169 17.3784C21.7187 17.6802 22.2088 17.6802 22.5106 17.3784L23.6986 16.1904L24.8866 17.3784C25.1885 17.6802 25.6786 17.6802 25.9804 17.3784C26.2823 17.0765 26.2823 16.5865 25.9804 16.2846L24.7924 15.0966L25.9804 13.9086C26.2823 13.6068 26.2823 13.1167 25.9804 12.8148C25.6786 12.513 25.1885 12.513 24.8866 12.8148L23.6986 14.0028L22.5106 12.8148C22.2088 12.513 21.7187 12.513 21.4169 12.8148C21.115 13.1167 21.115 13.6068 21.4169 13.9086L22.6049 15.0966ZM41.4869 13.1721V13.1666V13.161C41.4898 12.4244 42.0906 11.8281 42.8293 11.8281C43.5699 11.8281 44.1719 12.4275 44.1719 13.1666C44.1719 13.9057 43.5699 14.5051 42.8293 14.5051C42.0906 14.5051 41.4898 13.9087 41.4869 13.1721Z" fill="#08DBBA"/>
</g>
<defs>
<linearGradient id="paint0_linear_4815_3057" x1="30" y1="0" x2="30" y2="60" gradientUnits="userSpaceOnUse">
<stop stop-color="#ECF6F4"/>
<stop offset="1" stop-color="#ECF6F4" stop-opacity="0"/>
</linearGradient>
<clipPath id="clip0_4815_3057">
<rect width="36" height="36" fill="white" transform="translate(10 10)"/>
</clipPath>
</defs>
</svg>
