<svg width="50" height="50" viewBox="0 0 50 50" fill="none" xmlns="http://www.w3.org/2000/svg">
<g id="vector 1" clip-path="url(#clip0_4249_569)">
<path id="Vector" fill-rule="evenodd" clip-rule="evenodd" d="M18.9257 41.323V47.0625C18.9257 48.7927 20.3283 50.1953 22.0585 50.1953H27.9413C29.6715 50.1953 31.0741 48.7927 31.0741 47.0625V41.323L33.001 33.6193C33.0663 33.3584 33.0398 33.0831 32.9261 32.8394L26.0618 18.1304C25.8693 17.7178 25.4552 17.4541 24.9999 17.4541C24.5446 17.4541 24.1305 17.7178 23.938 18.1304L17.0737 32.8394C16.96 33.0831 16.9335 33.3584 16.9988 33.6193L18.9257 41.323ZM19.3733 33.4538L21.2288 40.8721C21.2431 40.9245 21.2537 40.9784 21.2604 41.0335L21.261 41.0374C21.2678 41.0925 21.2705 41.1474 21.2694 41.2017V47.0625C21.2694 47.4983 21.6227 47.8516 22.0585 47.8516H27.9413C28.3771 47.8516 28.7304 47.4983 28.7304 47.0625V41.2017C28.7293 41.1474 28.732 41.0925 28.7388 41.0374L28.7394 41.0335C28.7461 40.9784 28.7567 40.9245 28.771 40.8721L30.6265 33.4538L26.1718 23.9082V32.3912C27.29 32.8436 28.0941 33.9248 28.131 35.207C28.1806 36.9354 26.8176 38.379 25.0892 38.4286C23.3606 38.4782 21.9171 37.1152 21.8675 35.3869C21.8288 34.0404 22.6474 32.8669 23.828 32.3905V23.9082L19.3733 33.4538ZM24.9766 34.5081C25.412 34.4956 25.7757 34.8389 25.7882 35.2743C25.8007 35.7097 25.4573 36.0733 25.0219 36.0858C24.5864 36.0983 24.2228 35.755 24.2103 35.3196C24.1978 34.8842 24.5411 34.5206 24.9766 34.5081ZM19.4199 3.72686H7.86201C7.35693 2.02676 5.78135 0.785254 3.91816 0.785254C1.64785 0.785254 -0.195312 2.62842 -0.195312 4.89873C-0.195312 7.16904 1.64785 9.01221 3.91816 9.01221C5.78135 9.01221 7.35693 7.7707 7.86201 6.0706H19.4199C19.4477 6.67715 19.6067 7.24932 19.8694 7.75957C13.5261 8.5916 8.62949 14.0177 8.62949 20.5875C8.62949 21.2343 9.15459 21.7594 9.80137 21.7594C10.4481 21.7594 10.9732 21.2343 10.9732 20.5875C10.9732 14.7361 15.7166 9.99277 21.568 9.99277H28.4318C34.2832 9.99277 39.0266 14.7361 39.0266 20.5875C39.0266 21.2343 39.5517 21.7594 40.1984 21.7594C40.8452 21.7594 41.3703 21.2343 41.3703 20.5875C41.3703 14.0177 36.4737 8.5916 30.1304 7.75957C30.3931 7.24922 30.5521 6.67705 30.5799 6.0706H42.1375C42.6421 7.77148 44.2171 9.01221 46.0816 9.01221C48.3536 9.01221 50.1952 7.17051 50.1952 4.89873C50.1952 2.62695 48.3536 0.785254 46.0816 0.785254C44.2171 0.785254 42.6421 2.02598 42.1375 3.72686H30.5799C30.4801 1.54395 28.6784 -0.195312 26.4707 -0.195312H23.5291C21.3212 -0.195312 19.5197 1.54395 19.4199 3.72686ZM21.7593 5.8793V3.91826C21.7593 2.94082 22.5517 2.14844 23.5291 2.14844H26.4707C27.4481 2.14844 28.2405 2.94082 28.2405 3.91826V5.8793C28.2405 6.85674 27.4481 7.64902 26.4707 7.64902H23.5291C22.5517 7.64902 21.7593 6.85674 21.7593 5.8793ZM3.91816 3.129C4.89492 3.129 5.68789 3.92197 5.68789 4.89873C5.68789 5.87549 4.89492 6.66846 3.91816 6.66846C2.94141 6.66846 2.14844 5.87549 2.14844 4.89873C2.14844 3.92197 2.94141 3.129 3.91816 3.129ZM44.3119 4.89873C44.3119 3.92129 45.1043 3.129 46.0816 3.129C47.0591 3.129 47.8515 3.92129 47.8515 4.89873C47.8515 5.87617 47.0591 6.66846 46.0816 6.66846C45.1043 6.66846 44.3119 5.87617 44.3119 4.89873Z" fill="#08DBBA"/>
</g>
<defs>
<clipPath id="clip0_4249_569">
<rect width="50" height="50" fill="white"/>
</clipPath>
</defs>
</svg>
