<svg width="60" height="60" viewBox="0 0 60 60" fill="none" xmlns="http://www.w3.org/2000/svg">
<rect width="60" height="60" fill="url(#paint0_linear_4837_3006)"/>
<g clip-path="url(#clip0_4837_3006)">
<path d="M40.3044 15.2323C33.313 8.47986 22.229 8.47986 15.2376 15.2323C15.2358 15.2341 15.2341 15.2358 15.2323 15.2375C8.31031 22.4045 8.50888 33.8258 15.6758 40.7478C22.6672 47.5002 33.7512 47.5002 40.7426 40.7478C40.7444 40.746 40.7461 40.7443 40.7479 40.7426C47.6699 33.5757 47.4713 22.1543 40.3044 15.2323ZM39.6346 39.5762C39.6218 39.5814 39.61 39.5891 39.5996 39.5994C33.182 46.0112 22.7818 46.0065 16.37 39.5888C9.95827 33.1712 9.96304 22.7711 16.3806 16.3593C22.7982 9.94761 33.1985 9.95231 39.6102 16.3698C42.69 19.4525 44.4187 23.6324 44.416 27.9899V27.9901C44.4162 32.3326 42.6969 36.498 39.6346 39.5762Z" fill="#06CEAF"/>
<path d="M38.0777 32.9887L34.7378 29.6606C33.9384 28.8593 32.6405 28.8578 31.839 29.6573L29.9221 31.5743C29.8139 31.6827 29.6435 31.6977 29.5181 31.6098L29.518 31.6097C28.4758 30.8814 27.5003 30.0621 26.6027 29.1616L26.6025 29.1614C25.7987 28.3594 25.0592 27.4954 24.3909 26.5772C24.3908 26.5771 24.3907 26.577 24.3907 26.5769C24.3002 26.4537 24.3133 26.2828 24.4215 26.1748L26.3828 24.2136C27.1815 23.4134 27.1815 22.1176 26.3828 21.3174L23.043 17.9776C23.0424 17.977 23.0419 17.9764 23.0413 17.9759C22.2304 17.2007 20.9532 17.2007 20.1424 17.9759C20.1418 17.9764 20.1412 17.977 20.1407 17.9776L19.0831 19.0352C17.4572 20.6431 16.8768 23.0303 17.5831 25.2052C17.5832 25.2054 17.5832 25.2056 17.5833 25.2058C18.1042 26.7782 18.8405 28.2709 19.7711 29.6412C20.6078 30.8958 21.5676 32.0637 22.6365 33.1275C23.7986 34.298 25.0859 35.3369 26.4752 36.2259C28.0048 37.2241 29.6844 37.9709 31.45 38.4382C31.4506 38.4384 31.4511 38.4385 31.4518 38.4387C31.9113 38.5519 32.3829 38.6088 32.8561 38.6081C32.8563 38.6081 32.8564 38.6081 32.8566 38.6081C34.4775 38.5982 36.0282 37.9458 37.1687 36.7939L38.0778 35.8848C38.8764 35.0846 38.8765 33.7889 38.0777 32.9887ZM37.1251 35.0226L37.1194 35.0283L37.0628 34.9504C37.0679 34.9347 37.0766 34.9202 37.0888 34.908L36.1791 35.8177C35.0375 36.9737 33.3752 37.4495 31.795 37.0729C30.1768 36.6397 28.6389 35.9503 27.2393 35.031C27.2389 35.0308 27.2385 35.0305 27.2381 35.0303C25.9351 34.1975 24.7275 33.224 23.6374 32.1271C23.6371 32.1269 23.637 32.1268 23.6369 32.1266C22.6337 31.1308 21.7325 30.0374 20.9465 28.8627C20.9463 28.8625 20.9461 28.8622 20.946 28.862C20.0875 27.6 19.408 26.2251 18.9268 24.7765C18.3842 23.1022 18.834 21.265 20.0887 20.0308L21.1473 18.9723C21.3998 18.7186 21.8101 18.7177 22.0637 18.9702L22.0652 18.9717L22.0659 18.9724L25.4058 22.3123C25.6594 22.5648 25.6603 22.975 25.4078 23.2286L23.4447 25.1918C22.8447 25.7855 22.7693 26.7288 23.2675 27.4103C23.9799 28.388 24.7684 29.3082 25.6255 30.1623C26.5811 31.122 27.62 31.9951 28.7299 32.7712L28.73 32.7713C29.4107 33.2461 30.3336 33.166 30.9224 32.5812C30.9227 32.5809 30.9229 32.5806 30.9232 32.5803L32.8186 30.6553C33.0711 30.4018 33.4813 30.4009 33.7349 30.6533L33.7371 30.6556L37.0829 34.0074C37.3366 34.2598 37.3375 34.67 37.085 34.9237L37.0852 34.9235C37.0846 34.9241 37.0832 34.9255 37.0832 34.9255C37.0832 34.9255 37.0851 34.9236 37.0862 34.9226L37.1251 35.0226ZM37.1087 35.039L37.0888 35.0589C37.079 35.0493 37.0711 35.0375 37.0656 35.0244C37.0582 35.0065 37.056 34.9875 37.0585 34.9691L37.1087 35.039Z" fill="#06CEAF"/>
<path fill-rule="evenodd" clip-rule="evenodd" d="M38.1545 32.9145L34.8144 29.5862C33.9736 28.7435 32.6081 28.7419 31.7649 29.583L29.8478 31.5002C29.7762 31.5718 29.6635 31.5818 29.5806 31.5237C29.5805 31.5236 29.5805 31.5236 29.5804 31.5235C28.5434 30.7988 27.5727 29.9837 26.6796 29.0876C26.6795 29.0874 26.6793 29.0873 26.6792 29.0871C25.8793 28.2891 25.1434 27.4293 24.4784 26.5157C24.4783 26.5155 24.4781 26.5152 24.4779 26.515C24.4187 26.4343 24.4273 26.3224 24.4981 26.2517L26.4596 24.2903C27.2999 23.4484 27.2999 22.0852 26.4596 21.2433L23.1198 17.9034C23.1186 17.9023 23.1175 17.9012 23.1163 17.9C22.2642 17.0854 20.922 17.0854 20.0699 17.9C20.0688 17.9012 20.0677 17.9023 20.0665 17.9034L19.0091 18.9608C17.3546 20.597 16.764 23.0263 17.4829 25.2395C17.483 25.2398 17.4831 25.2403 17.4833 25.2406C18.0072 26.8223 18.7478 28.3237 19.6837 29.7021C20.5243 30.9623 21.4886 32.1355 22.5623 33.2042C23.7298 34.38 25.0229 35.4238 26.4185 36.3169C27.9576 37.321 29.6475 38.0725 31.4239 38.5427C31.4252 38.543 31.4263 38.5433 31.4275 38.5435C31.8954 38.6589 32.3757 38.7169 32.8575 38.7161C32.8579 38.7161 32.8582 38.7161 32.8585 38.7161C34.5076 38.706 36.0852 38.0423 37.2456 36.8705L38.1546 35.9615C38.9948 35.1196 38.9948 33.7564 38.1545 32.9145ZM22.9688 18.0543L26.3085 21.3941C27.0657 22.1527 27.0657 23.3809 26.3085 24.1395L24.3474 26.1007C24.2018 26.2458 24.1842 26.4756 24.3059 26.6413C24.9775 27.564 25.7206 28.4322 26.5284 29.2383C26.5284 29.2382 26.5285 29.2383 26.5284 29.2383C27.4304 30.1432 28.4108 30.9665 29.4581 31.6985C29.6259 31.8161 29.8541 31.796 29.9989 31.6509C29.9987 31.651 31.9156 29.7341 31.9156 29.7341C32.6754 28.9762 33.9058 28.9776 34.6635 29.7372L38.0035 33.0654C38.7605 33.824 38.7605 35.0522 38.0035 35.8107L37.0941 36.7201C35.9735 37.8519 34.4499 38.493 32.8573 38.5027C32.857 38.5027 32.8574 38.5027 32.8573 38.5027C32.3927 38.5034 31.9297 38.4476 31.4786 38.3363C29.724 37.8719 28.0549 37.1297 26.5348 36.1379C26.5345 36.1377 26.5342 36.1375 26.534 36.1374C25.1513 35.2525 23.8701 34.2185 22.7135 33.0536C22.7134 33.0535 22.7132 33.0533 22.7131 33.0532C21.6492 31.9943 20.6939 30.8319 19.8611 29.5832C19.861 29.583 19.8608 29.5827 19.8606 29.5825C18.9356 28.2204 18.2037 26.7366 17.6859 25.1735C17.6858 25.1733 17.686 25.1737 17.6859 25.1735C16.9919 23.037 17.5622 20.6919 19.1594 19.1124L20.2174 18.0543C20.2168 18.0549 20.218 18.0538 20.2174 18.0543C20.987 17.3186 22.1992 17.3186 22.9688 18.0543ZM23.5629 32.2036C24.6586 33.306 25.8723 34.2845 27.1819 35.1215C28.5912 36.0471 30.1395 36.7411 31.7686 37.1773C31.7696 37.1776 31.7706 37.1778 31.7716 37.178C33.3879 37.5632 35.0883 37.0766 36.256 35.8943L37.0146 35.1356L37.0148 35.1359C37.0348 35.1558 37.0619 35.1669 37.09 35.1669C37.09 35.1669 37.1285 35.1728 37.1659 35.1352C37.1686 35.1326 37.1849 35.1163 37.1849 35.1163L37.1847 35.1164C37.1877 35.1135 37.1906 35.1104 37.1932 35.1071L37.1973 35.1037L37.2016 35.0996C37.2063 35.0949 37.2106 35.0897 37.2144 35.0842C37.2343 35.0551 37.2386 35.018 37.2258 34.9852L37.2107 34.9463C37.4549 34.6494 37.4377 34.2097 37.1595 33.933C37.1598 33.9333 33.8138 30.5814 33.8138 30.5814V30.5815L33.8114 30.579C33.5161 30.285 33.0384 30.286 32.7443 30.5812L30.8484 32.5068C30.8482 32.5071 30.8487 32.5065 30.8484 32.5068C30.2962 33.0552 29.4307 33.1303 28.7924 32.6851C27.6876 31.9125 26.6535 31.0435 25.7024 30.0882C25.7023 30.0882 25.7022 30.0881 25.7021 30.088C24.849 29.2378 24.0641 28.322 23.355 27.3488C23.355 27.3487 23.3549 27.3486 23.3549 27.3486C22.8879 26.7097 22.9585 25.8255 23.521 25.2689L25.4847 23.3052C25.7788 23.0098 25.7777 22.532 25.4823 22.238C25.4824 22.2381 22.1426 18.8982 22.1426 18.8982L22.1427 18.8984L22.1402 18.8959L22.1394 18.8951C21.844 18.6017 21.3668 18.6031 21.0729 18.8982C21.0731 18.8981 20.0148 19.9564 20.0148 19.9564C18.7315 21.2189 18.2715 23.0981 18.8265 24.8107C18.8266 24.811 18.8267 24.8112 18.8268 24.8115C19.3111 26.2693 19.995 27.6531 20.859 28.9234C20.8589 28.9231 20.8592 28.9236 20.859 28.9234C21.649 30.104 22.5547 31.2029 23.5629 32.2036ZM21.9994 19.0511L21.9897 19.0471C21.7778 18.8362 21.4351 18.837 21.2242 19.0488L20.1648 20.1081C18.939 21.314 18.4995 23.1088 19.0295 24.7446C19.5076 26.1836 20.1826 27.5495 21.0355 28.8033C21.0358 28.8038 21.0361 28.8042 21.0364 28.8046C21.8185 29.9735 22.7151 31.0614 23.7133 32.0522C23.7136 32.0525 23.714 32.0529 23.7143 32.0532C24.7989 33.1445 26.0004 34.1131 27.2969 34.9416C27.2976 34.9421 27.2984 34.9426 27.2991 34.9431C28.6889 35.8559 30.2157 36.5404 31.8229 36.9709C33.3663 37.338 34.9896 36.873 36.1044 35.744L37.0145 34.8338C37.0234 34.8251 37.0333 34.8181 37.0439 34.8131C37.2208 34.6 37.2091 34.2834 37.0089 34.0843L33.6628 30.7323L33.6644 30.7329C33.6628 30.7319 33.6615 30.731 33.6606 30.7301C33.6599 30.7293 33.6591 30.7286 33.6583 30.7278C33.4463 30.5195 33.1057 30.5209 32.8957 30.7318L31.0006 32.6565C31 32.6571 30.9994 32.6577 30.9988 32.6583C30.3735 33.2794 29.3932 33.3645 28.6702 32.8601C28.6702 32.8601 28.6701 32.86 28.67 32.86C27.5549 32.0803 26.5113 31.2032 25.5512 30.239C24.6903 29.381 23.8982 28.4566 23.1826 27.4745C22.6533 26.7505 22.7333 25.7484 23.3706 25.1175L25.3335 23.1546C25.5443 22.9427 25.5436 22.6001 25.3318 22.3892L21.9917 19.0492C22.0117 19.0692 22.0388 19.0804 22.0671 19.0804L22.0331 19.0657L21.9902 19.0477L22.0121 19.0567L21.9994 19.0511ZM22.144 18.8998C22.1649 18.9251 22.0671 19.0804 22.0671 19.0804C22.1103 19.0804 22.1492 19.0544 22.1658 19.0145C22.182 18.9753 22.1734 18.9302 22.144 18.8998ZM22.0032 19.0527L22.0186 19.0593L22.0649 19.0782L22.0032 19.0527Z" fill="#06CEAF"/>
</g>
<defs>
<linearGradient id="paint0_linear_4837_3006" x1="30" y1="0" x2="30" y2="60" gradientUnits="userSpaceOnUse">
<stop stop-color="#ECF6F4"/>
<stop offset="1" stop-color="#ECF6F4" stop-opacity="0"/>
</linearGradient>
<clipPath id="clip0_4837_3006">
<rect width="36" height="36" fill="white" transform="translate(10 10)"/>
</clipPath>
</defs>
</svg>
