<svg width="90" height="70" viewBox="0 0 90 70" fill="none" xmlns="http://www.w3.org/2000/svg">
<path d="M33.0686 30.3555H30.9013L29.7205 36.4244H31.6455C32.9156 36.4244 33.8644 36.1838 34.4917 35.7008C35.1087 35.2264 35.5298 34.4203 35.7447 33.3014C35.9578 32.2272 35.8598 31.4658 35.468 31.0189C35.0641 30.5806 34.2666 30.3555 33.0686 30.3555ZM44.5 20C29.308 20 17 26.4814 17 34.465C17 42.4486 29.308 48.93 44.5 48.93C59.692 48.93 72 42.4486 72 34.465C72 26.4814 59.692 20 44.5 20ZM37.0252 37.0792C36.4339 37.6516 35.7103 38.0812 34.93 38.3391C34.16 38.5814 33.1769 38.7155 31.9858 38.7155H29.2719L28.5294 42.5655H25.3686L28.1891 28.073H34.258C36.085 28.073 37.4188 28.5473 38.2592 29.5047C39.0928 30.462 39.3523 31.8061 39.0103 33.5248C38.8866 34.2055 38.6442 34.8586 38.3142 35.4688C37.9825 36.048 37.5631 36.5877 37.0234 37.0792H37.0252ZM46.2548 38.7155L47.4992 32.2994C47.6419 31.5723 47.5886 31.0739 47.3359 30.8023C47.0953 30.5428 46.5659 30.4088 45.7616 30.4088H43.2642L41.6537 38.7155H38.5119L41.3306 24.2144H44.4639L43.7128 28.073H46.5058C48.2709 28.073 49.4775 28.3772 50.1409 28.9856C50.813 29.6044 51.0089 30.5961 50.7511 31.9677L49.4328 38.7172L46.2548 38.7155ZM63.6555 33.5248C63.5317 34.2055 63.298 34.8586 62.9594 35.4688C62.6362 36.048 62.2083 36.5877 61.6789 37.0792C61.0791 37.643 60.3641 38.0812 59.5752 38.3391C58.8052 38.5814 57.8203 38.7155 56.6309 38.7155H53.9273L53.1763 42.5655H50.0155L52.8359 28.073H58.9048C60.7319 28.073 62.0656 28.5473 62.9061 29.515C63.7397 30.4637 63.9975 31.8061 63.6555 33.5248ZM57.7137 30.3555H55.555L54.3742 36.4244H56.2906C57.5694 36.4244 58.5181 36.1838 59.1369 35.7008C59.7625 35.2264 60.1836 34.4203 60.4002 33.3014C60.6133 32.2272 60.5153 31.4658 60.1114 31.0189C59.7195 30.5806 58.9134 30.3555 57.7137 30.3555Z" fill="#202020"/>
</svg>
