<svg width="55" height="55" viewBox="0 0 55 55" fill="none" xmlns="http://www.w3.org/2000/svg">
<g id="piggy-bank 1 1">
<path id="Vector" d="M53.388 23.3223C53.857 23.3223 54.2359 23.7012 54.2359 24.1687V34.3391C54.2359 34.8066 53.857 35.1855 53.388 35.1855C45.9248 35.1855 40.3102 41.2874 40.3301 48.0142C40.3316 48.4832 39.9512 48.8637 39.4821 48.8637H32.656C32.1885 48.8637 31.8081 48.4848 31.8081 48.0173V44.8609L30.9205 45.0075C29.2185 45.2871 27.4494 45.4338 25.7108 45.4338C23.992 45.4338 22.2335 45.2871 20.5346 45.0075L19.6455 44.8593V48.0173C19.6455 48.4848 19.2666 48.8637 18.7991 48.8637H11.9394C11.4719 48.8637 11.0914 48.4848 11.0914 48.0173C11.0914 44.5339 9.5377 41.0919 6.8152 38.5802C2.92242 34.9914 0.763672 30.4555 0.763672 25.7988C0.763672 14.918 11.9974 6.16227 25.7108 6.16227C33.1526 6.16227 38.1224 8.80991 38.4356 8.91227L38.842 9.04365L39.1674 8.76713C41.1749 7.06213 43.6698 6.13477 46.2991 6.13477C46.7666 6.13477 47.1455 6.51366 47.1455 6.98116V15.8682L47.2906 16.0684C48.7603 18.1034 49.7671 20.3691 50.2453 22.7112L50.3706 23.3223H53.388ZM51.8541 33.5675L52.5416 33.4988V25.0166H49.6205C49.1912 25.0166 48.8291 24.6942 48.7787 24.2664C48.4716 21.5913 47.3838 18.9635 45.6253 16.6703C45.5123 16.5221 45.4512 16.3403 45.4512 16.1539V7.82143L44.5421 7.9956C42.6859 8.35463 40.9702 9.2774 39.5937 10.686C39.3446 10.9412 38.9627 11.013 38.6388 10.8663L38.5716 10.8403C37.8031 10.5775 33.206 7.8581 25.7108 7.8581C18.6876 7.8581 11.7576 10.4813 7.33159 14.8263C4.31881 17.7825 2.45798 21.5317 2.45798 25.7988C2.45798 29.9467 4.40131 34.0488 7.96409 37.335C10.6316 39.7948 12.3121 43.0657 12.7002 46.491L12.7781 47.1693H17.9512V43.7975C17.9512 43.2521 18.4614 42.8488 18.9916 42.9725C21.132 43.4737 23.4558 43.7395 25.7108 43.7395C27.9933 43.7395 30.3277 43.4737 32.462 42.9725C32.9937 42.8473 33.504 43.2521 33.504 43.7975V47.1693H38.6419L38.7167 46.4895C39.4439 39.8925 44.7805 34.2841 51.8541 33.5675ZM40.4981 21.7945C40.0291 21.7945 39.6502 21.4141 39.6502 20.9466C39.6502 20.4791 40.0291 20.0987 40.4981 20.0987C40.9656 20.0987 41.346 20.4791 41.346 20.9466C41.346 21.4141 40.9656 21.7945 40.4981 21.7945ZM30.8303 13.6545C31.2978 13.6545 31.6767 14.0334 31.6767 14.5009C31.6767 14.9699 31.2978 15.3488 30.8303 15.3488H17.7251C17.256 15.3488 16.8771 14.9699 16.8771 14.5009C16.8771 14.0334 17.256 13.6545 17.7251 13.6545H30.8303Z" fill="#06CEAF"/>
</g>
</svg>
