<svg width="52" height="60" viewBox="0 0 52 60" fill="none" xmlns="http://www.w3.org/2000/svg">
<g id="Serwisy www">
<g id="Group">
<g id="Group_2">
<path id="Vector" d="M40.6782 38.7878C40.9218 39.1076 40.9978 39.5343 40.8912 39.915L35.4246 59.0558C35.2571 59.604 34.7546 60 34.176 60H12.3093C11.7306 60 11.228 59.604 11.0758 59.0558L5.59389 39.915C5.4873 39.5343 5.56346 39.1076 5.8071 38.7878C6.05074 38.468 6.43132 38.2703 6.84246 38.2703H39.6426C40.0538 38.2703 40.4345 38.468 40.6782 38.7878ZM13.4513 57.4111H33.0339C33.1405 57.4111 33.2317 57.3504 33.2622 57.2438L37.8609 41.1485C37.8762 41.0724 37.8611 40.9964 37.8154 40.9508C37.7697 40.8898 37.7088 40.8593 37.6327 40.8593H8.86784C8.56329 40.8593 8.8526 41.3158 8.8526 41.3158C8.76124 41.3158 8.66985 41.2399 8.63939 41.1485L13.2381 57.2438C13.2838 57.3961 13.4209 57.4111 13.4513 57.4111ZM40.9826 38.8488C40.9522 38.864 40.9066 38.8793 40.8609 38.8793H40.8759C40.8912 38.8793 40.9064 38.8793 40.9064 38.8793C40.9369 38.864 40.9674 38.8488 40.9826 38.8488Z" fill="#07E7C4"/>
</g>
<g id="Group_3">
<path id="Vector_2" d="M51.6139 3.51495C51.8118 4.00223 51.7053 4.56517 51.3399 4.93063C48.538 7.7325 47.6852 12.8492 46.8781 17.7982C46.1168 22.3512 45.4163 26.6608 43.0865 28.9906C40.7262 31.3509 37.5893 32.645 34.2697 32.645C30.9349 32.645 27.7981 31.3509 25.4378 28.9906C23.0928 26.6303 21.7832 23.5086 21.7832 20.1738C21.7832 16.839 23.0928 13.702 25.4378 11.357C30.8436 5.9512 40.1932 2.72308 50.4261 2.72308C50.9438 2.72308 51.4159 3.04289 51.6139 3.51495ZM44.32 17.3722C44.9748 13.4434 45.6753 9.08781 47.5482 5.75298C47.5939 5.67684 47.5787 5.58598 47.533 5.50984C47.4873 5.44893 47.4112 5.40277 47.335 5.40277C39.0056 5.96619 31.6658 8.78343 27.2651 13.169C25.4073 15.042 24.3718 17.5242 24.3718 20.1738C24.3718 22.8081 25.4073 25.3052 27.2651 27.163C31.011 30.909 37.5285 30.909 41.2593 27.163C41.9597 26.4777 42.4774 25.4271 42.9038 24.148C43.5129 22.2597 43.9089 19.8542 44.32 17.3722Z" fill="#07E7C4"/>
</g>
<g id="Group_4">
<path id="Vector_3" d="M14.2407 4.49168C16.9208 7.17172 16.9208 11.5422 14.2407 14.2223C12.9007 15.5623 11.1344 16.2477 9.36798 16.2477C7.61681 16.2477 5.85032 15.5775 4.5103 14.2223C3.1855 12.9127 2.83529 10.6592 2.43938 8.28369C2.19574 6.8523 1.96738 5.40542 1.541 4.20244C1.25168 3.39538 0.886206 2.69518 0.383698 2.19268C0.0182371 1.82722 -0.10368 1.27914 0.094278 0.791862C0.307463 0.304581 0.779576 0 1.29731 0C6.6574 0 11.3779 1.6289 14.2407 4.49168ZM6.33771 12.3954C8.01274 14.0857 10.7385 14.0857 12.4135 12.3954C14.0885 10.7204 14.0885 7.99431 12.4135 6.31928C10.5557 4.46152 7.57102 3.19787 4.11437 2.75627C4.023 2.74105 3.94684 2.7712 3.90116 2.83211C3.84025 2.90825 3.84039 2.98424 3.85562 3.06038C4.44949 4.5679 4.72357 6.28921 4.98244 7.85765C5.16517 8.98448 5.3478 10.1259 5.63712 11.0244C5.81985 11.6182 6.04839 12.1213 6.33771 12.3954ZM12.185 12.304L12.2611 12.4713C12.2458 12.4713 12.185 12.4258 12.1241 12.3649C12.1393 12.3497 12.1698 12.3344 12.185 12.304ZM12.2155 12.3188L12.2003 12.2884L12.185 12.304L12.2611 12.4713C12.2458 12.4256 12.2307 12.3645 12.2155 12.3188ZM14.2407 4.49168C14.2559 4.50691 14.2865 4.52255 14.3322 4.53778C14.3626 4.553 14.4082 4.56826 14.4082 4.56826C14.3473 4.56826 14.2864 4.53736 14.2407 4.49168Z" fill="#07E7C4"/>
</g>
<g id="Group_5">
<path id="Vector_4" d="M23.054 40.8429H23.0083C22.4144 40.8429 21.912 40.4468 21.7597 39.8681C20.6785 35.6501 18.0442 26.3617 15.4555 20.0575C14.3439 17.347 13.2323 15.1842 12.2577 14.2096C11.7552 13.7071 11.7552 12.8852 12.2577 12.3827C12.7602 11.8802 13.5825 11.8802 14.085 12.3827C15.0443 13.3573 16.0492 15.0928 17.039 17.2551C19.2927 22.1431 21.4703 29.163 22.8408 33.9749C22.8713 34.0815 22.9474 34.143 23.054 34.143C23.1454 34.143 23.2368 34.0819 23.2672 33.9905C25.0793 28.9198 28.7491 21.0466 35.769 14.0267C36.2715 13.5242 37.0937 13.5242 37.5962 14.0267C38.0987 14.5292 38.0987 15.3518 37.5962 15.8543C26.8912 26.5593 24.3026 39.6553 24.2873 39.7923C24.1655 40.3862 23.6631 40.8125 23.054 40.8429Z" fill="#07E7C4"/>
</g>
</g>
</g>
</svg>
