<svg width="100" height="80" viewBox="0 0 100 80" fill="none" xmlns="http://www.w3.org/2000/svg">
<rect width="100" height="80" rx="40" fill="#F3FEFC"/>
<path d="M48.895 12.5859C32.935 12.5859 20 25.5259 20 41.4809C20 44.6259 20.5025 47.6559 21.435 50.4734L21.44 50.4559C21.7691 48.9357 22.212 47.4423 22.765 45.9884L22.7925 45.9134C23.005 45.3584 23.24 44.8084 23.485 44.2634L23.695 43.8109C23.895 43.3834 24.1075 42.9609 24.3275 42.5434C24.4175 42.3734 24.5025 42.2034 24.5975 42.0359C24.6475 41.9409 24.7075 41.8534 24.7575 41.7609C24.9925 41.3459 25.2325 40.9309 25.4825 40.5284L25.67 40.2434C25.9825 39.7559 26.31 39.2784 26.6525 38.8109L26.74 38.6859C27.1 38.2034 27.4775 37.7359 27.8675 37.2784L28.1175 36.9834C28.505 36.5409 28.905 36.1084 29.32 35.6909L29.5675 35.4484C30.0073 35.013 30.4626 34.5936 30.9325 34.1909C32.7825 27.9909 38.445 23.4784 45.1475 23.4784C47.845 23.4784 50.5275 24.2534 52.825 25.6609C55.1874 27.1184 57.1005 29.201 58.3525 31.6784L58.37 31.7159L58.47 31.9009V31.9084L58.48 31.9134C59.882 32.7792 61.1944 33.7825 62.3975 34.9084C62.4975 35.0009 62.6 35.0859 62.6975 35.1809C62.7025 35.1809 62.7125 35.1934 62.715 35.1959L62.71 35.1809L62.7075 35.1709V35.1634L62.8125 34.9534C63.755 28.9934 66.3875 24.6984 69.4875 24.6984C71.8225 24.6984 73.8925 27.1359 75.1775 30.8884L75.19 30.9284L75.1925 30.9334C75.555 31.3284 75.91 31.7609 76.2525 32.2359L76.27 32.2609L76.3225 32.4284L76.2725 32.2334C72.4175 20.8109 61.615 12.5909 48.8925 12.5909L48.895 12.5859ZM44.8175 23.6934C38.965 23.8009 33.35 27.8309 31.435 33.4134L31.405 33.4984C32.4406 32.6677 33.5398 31.9195 34.6925 31.2609C41.7075 27.1209 50.89 27.1459 57.8875 31.3009C55.65 27.1684 51.31 24.2534 46.6375 23.7909C46.0339 23.7154 45.4257 23.6828 44.8175 23.6934ZM69.4025 24.9434C69.0711 24.9514 68.7426 25.0079 68.4275 25.1109C65.265 26.5159 64.13 30.2934 63.35 33.3684L63.31 33.5484C64.2225 31.9984 65.33 30.5109 66.8 29.4434C68.8875 27.7259 72.0625 27.8059 74.09 29.5759C74.86 30.3909 74.4425 29.5959 74.1675 29.0259C73.3125 27.1509 71.605 24.8934 69.4025 24.9409V24.9434ZM50.875 30.7884L48.2 38.9634L48.195 38.9759L48.18 38.9809L36.935 41.7609H36.9125L48.0525 44.4784C48.315 44.7534 48.62 44.9909 48.9525 45.1784H48.9575C49.0625 45.2384 49.17 45.2909 49.28 45.3409L49.305 45.3534C49.4075 45.3984 49.5125 45.4359 49.62 45.4709L49.6725 45.4909C49.7725 45.5234 49.8725 45.5484 49.9725 45.5709L50.055 45.5909C50.3168 45.6437 50.583 45.6713 50.85 45.6734C51.6133 45.6756 52.3602 45.4516 52.9964 45.0299C53.6327 44.6081 54.1297 44.0074 54.425 43.3034C54.625 42.8384 54.7325 42.3284 54.7325 41.7934V41.7659L54.73 41.7359C54.7275 41.6009 54.72 41.4684 54.705 41.3359L54.7025 41.3309C54.6874 41.2024 54.6657 41.0747 54.6375 40.9484L54.635 40.9384C54.5794 40.691 54.499 40.4498 54.395 40.2184V40.2109C54.1894 39.7488 53.8936 39.3323 53.525 38.9859V38.9784L50.875 30.7884ZM58.745 32.3534C58.865 34.8734 58.835 37.4684 58.495 39.9959C58.07 45.0409 55.52 49.4909 53.565 54.0359L53.49 54.2359L53.4025 54.4509C57.1775 50.6459 61.3275 46.8509 63.325 41.7459C64.2825 40.1559 63.62 38.3909 63.0375 36.8059C62.6125 34.6134 60.365 33.6109 58.745 32.3534ZM74.175 33.7834L72.705 40.5034C72.6562 40.6677 72.6169 40.8346 72.5875 41.0034C72.5825 41.0534 72.57 41.1034 72.5625 41.1534C72.5375 41.3374 72.5241 41.5228 72.5225 41.7084L72.5175 41.7859H72.525C72.525 43.3559 73.2675 44.6259 74.1825 44.6284C74.3408 44.6266 74.4966 44.5881 74.6375 44.5159L74.705 44.4784C74.7663 44.4439 74.8248 44.4046 74.88 44.3609C74.9125 44.3359 74.94 44.3059 74.97 44.2784C75.1039 44.1557 75.2192 44.0142 75.3125 43.8584L75.3875 43.7234C75.4352 43.6356 75.4786 43.5455 75.5175 43.4534L75.56 43.3534C75.61 43.2209 75.655 43.0834 75.6925 42.9384L75.6975 42.9334L75.7 42.9259L76.71 41.7984L75.6925 40.6584V40.6609L75.6425 40.5034L74.175 33.7834ZM63.2225 35.9234C64.9475 40.2134 65.3475 45.1909 63.45 49.4984C62.225 52.9184 59.4825 55.6559 58.765 59.2609C60.59 59.5484 62.435 59.7009 64.29 59.7259C69.705 59.7984 75.12 58.6759 80 56.3134C74.9 49.1409 69.6975 41.9259 63.2225 35.9234ZM50.8525 38.3659C51.2391 38.3659 51.6098 38.5195 51.8831 38.7928C52.1564 39.0662 52.31 39.4369 52.31 39.8234C52.31 40.21 52.1564 40.5807 51.8831 40.854C51.6098 41.1274 51.2391 41.2809 50.8525 41.2809C50.4659 41.2809 50.0952 41.1274 49.8219 40.854C49.5486 40.5807 49.395 40.21 49.395 39.8234C49.395 39.4369 49.5486 39.0662 49.8219 38.7928C50.0952 38.5195 50.4659 38.3659 50.8525 38.3659ZM74.2325 39.2909C74.5775 39.2909 74.855 39.7659 74.855 40.3559C74.855 40.9459 74.5775 41.4209 74.2325 41.4209C73.89 41.4209 73.6125 40.9459 73.6125 40.3559C73.6125 39.7684 73.8875 39.2909 74.2325 39.2909ZM64.1225 39.7509C64.0825 40.0309 64.04 40.2734 63.9975 40.4759L63.9825 40.5334C63.9575 40.6584 63.9275 40.7684 63.9 40.8534C62.7 44.3959 60.7125 47.1534 58 50.0959C57.6325 50.4959 57.2475 50.8959 56.8525 51.3059C55.8704 52.3244 54.8736 53.3287 53.8625 54.3184C53.5825 54.5934 53.215 54.9709 52.8 55.4084C52.5425 56.1259 52.25 56.9334 52.005 57.7834C51.895 57.7434 51.79 57.7059 51.6775 57.6609C46.4075 55.6234 42.88 52.9009 42.88 52.9009C42.88 52.9009 45.595 56.4359 50.1675 59.7509C50.61 60.0734 51.045 60.3509 51.4725 60.5984C51.285 63.5834 52.6025 66.4484 58.5475 67.3034C59.5658 67.4412 60.5975 67.448 61.6175 67.3234L61.5925 67.2509C61.5899 67.2423 61.5866 67.234 61.5825 67.2259C61.5825 67.2259 61.165 66.8934 60.635 66.2834C60.0461 65.6077 59.5546 64.8529 59.175 64.0409C58.8581 63.3555 58.6344 62.6307 58.51 61.8859C58.3803 61.0815 58.3753 60.2619 58.495 59.4559C58.5375 59.1559 58.595 58.8534 58.675 58.5409C58.9075 57.6059 59.3125 56.6109 59.9425 55.5609L59.9475 55.5534L60.55 54.5434C63.3075 49.8934 65.0425 46.3559 64.315 40.9409C64.2607 40.5426 64.1982 40.1458 64.1225 39.7509ZM75.825 41.6984L75.8325 41.7884V41.8134C75.8325 41.8459 75.825 41.8759 75.825 41.9084C75.825 41.8734 75.8325 41.8384 75.8325 41.8009C75.8325 41.7659 75.8275 41.7359 75.825 41.7009V41.6984ZM75.795 42.3859L75.79 42.4134L75.785 42.4484L75.795 42.3859ZM79.1775 57.2059C72.795 60.0509 65.5775 60.8059 58.6975 59.7234C58.3475 62.4934 59.6575 65.2684 61.7325 67.0484L61.7625 67.0734C68.52 65.9909 74.2 61.6509 79.1775 57.2059Z" fill="#202020"/>
</svg>
