<svg width="70" height="50" viewBox="0 0 70 50" fill="none" xmlns="http://www.w3.org/2000/svg">
<rect width="70" height="50" rx="25" fill="#09DBBA"/>
<path d="M34.4475 11.2925C26.4675 11.2925 20 17.7625 20 25.74C20 27.3125 20.2512 28.8275 20.7175 30.2362L20.72 30.2275C20.8845 29.4674 21.106 28.7207 21.3825 27.9937L21.3963 27.9562C21.5025 27.6787 21.62 27.4037 21.7425 27.1312L21.8475 26.905C21.9475 26.6912 22.0538 26.48 22.1637 26.2712C22.2088 26.1862 22.2513 26.1012 22.2987 26.0175C22.3238 25.97 22.3537 25.9262 22.3788 25.88C22.4962 25.6725 22.6163 25.465 22.7413 25.2638L22.835 25.1212C22.9912 24.8775 23.155 24.6387 23.3263 24.405L23.37 24.3425C23.55 24.1012 23.7387 23.8675 23.9338 23.6387L24.0588 23.4912C24.2525 23.27 24.4525 23.0537 24.66 22.845L24.7838 22.7237C25.0036 22.506 25.2313 22.2963 25.4663 22.095C26.3913 18.995 29.2225 16.7387 32.5737 16.7387C33.9225 16.7387 35.2638 17.1262 36.4125 17.83C37.5937 18.5587 38.5502 19.6 39.1763 20.8387L39.185 20.8575L39.235 20.95V20.9537L39.24 20.9563C39.941 21.3891 40.5972 21.8908 41.1987 22.4537C41.2487 22.5 41.3 22.5425 41.3488 22.59C41.3512 22.59 41.3563 22.5962 41.3575 22.5975L41.355 22.59L41.3538 22.585V22.5812L41.4062 22.4762C41.8775 19.4962 43.1938 17.3488 44.7437 17.3488C45.9113 17.3488 46.9462 18.5675 47.5887 20.4437L47.595 20.4637L47.5962 20.4662C47.7775 20.6637 47.955 20.88 48.1262 21.1175L48.135 21.13L48.1612 21.2137L48.1363 21.1162C46.2088 15.405 40.8075 11.295 34.4462 11.295L34.4475 11.2925ZM32.4088 16.8463C29.4825 16.9 26.675 18.915 25.7175 21.7062L25.7025 21.7487C26.2203 21.3334 26.7699 20.9593 27.3462 20.63C30.8538 18.56 35.445 18.5725 38.9438 20.65C37.825 18.5838 35.655 17.1262 33.3187 16.895C33.017 16.8572 32.7129 16.8409 32.4088 16.8463ZM44.7013 17.4713C44.5355 17.4752 44.3713 17.5035 44.2138 17.555C42.6325 18.2575 42.065 20.1462 41.675 21.6837L41.655 21.7737C42.1112 20.9987 42.665 20.255 43.4 19.7212C44.4437 18.8625 46.0312 18.9025 47.045 19.7875C47.43 20.195 47.2213 19.7975 47.0837 19.5125C46.6562 18.575 45.8025 17.4462 44.7013 17.47V17.4713ZM35.4375 20.3937L34.1 24.4812L34.0975 24.4875L34.09 24.49L28.4675 25.88H28.4563L34.0262 27.2387C34.1575 27.3762 34.31 27.495 34.4763 27.5887H34.4788C34.5312 27.6187 34.585 27.645 34.64 27.67L34.6525 27.6762C34.7038 27.6987 34.7562 27.7175 34.81 27.735L34.8363 27.745C34.8863 27.7612 34.9363 27.7737 34.9862 27.785L35.0275 27.795C35.1584 27.8214 35.2915 27.8352 35.425 27.8362C35.8067 27.8373 36.1801 27.7253 36.4982 27.5145C36.8163 27.3036 37.0649 27.0032 37.2125 26.6512C37.3125 26.4187 37.3662 26.1637 37.3662 25.8962V25.8825L37.365 25.8675C37.3638 25.8 37.36 25.7337 37.3525 25.6675L37.3512 25.665C37.3437 25.6007 37.3329 25.5369 37.3187 25.4737L37.3175 25.4687C37.2897 25.345 37.2495 25.2244 37.1975 25.1087V25.105C37.0947 24.8739 36.9468 24.6657 36.7625 24.4925V24.4887L35.4375 20.3937ZM39.3725 21.1762C39.4325 22.4362 39.4175 23.7337 39.2475 24.9975C39.035 27.52 37.76 29.745 36.7825 32.0175L36.745 32.1175L36.7013 32.225C38.5888 30.3225 40.6637 28.425 41.6625 25.8725C42.1413 25.0775 41.81 24.195 41.5187 23.4025C41.3062 22.3062 40.1825 21.805 39.3725 21.1762ZM47.0875 21.8912L46.3525 25.2512C46.3281 25.3334 46.3085 25.4168 46.2938 25.5012C46.2913 25.5262 46.285 25.5512 46.2812 25.5763C46.2687 25.6682 46.2621 25.7609 46.2613 25.8537L46.2588 25.8925H46.2625C46.2625 26.6775 46.6338 27.3125 47.0913 27.3137C47.1704 27.3128 47.2483 27.2936 47.3187 27.2575L47.3525 27.2387C47.3832 27.2215 47.4124 27.2018 47.44 27.18C47.4562 27.1675 47.47 27.1525 47.485 27.1388C47.5519 27.0774 47.6096 27.0067 47.6562 26.9287L47.6938 26.8612C47.7176 26.8173 47.7393 26.7723 47.7588 26.7262L47.78 26.6762C47.805 26.61 47.8275 26.5412 47.8463 26.4687L47.8487 26.4662L47.85 26.4625L48.355 25.8987L47.8463 25.3287V25.33L47.8213 25.2512L47.0875 21.8912ZM41.6112 22.9612C42.4737 25.1062 42.6737 27.595 41.725 29.7487C41.1125 31.4587 39.7412 32.8275 39.3825 34.63C40.295 34.7738 41.2175 34.85 42.145 34.8625C44.8525 34.8987 47.56 34.3375 50 33.1562C47.45 29.57 44.8487 25.9625 41.6112 22.9612ZM35.4262 24.1825C35.6195 24.1825 35.8049 24.2593 35.9416 24.3959C36.0782 24.5326 36.155 24.718 36.155 24.9112C36.155 25.1045 36.0782 25.2899 35.9416 25.4266C35.8049 25.5632 35.6195 25.64 35.4262 25.64C35.233 25.64 35.0476 25.5632 34.9109 25.4266C34.7743 25.2899 34.6975 25.1045 34.6975 24.9112C34.6975 24.718 34.7743 24.5326 34.9109 24.3959C35.0476 24.2593 35.233 24.1825 35.4262 24.1825ZM47.1163 24.645C47.2888 24.645 47.4275 24.8825 47.4275 25.1775C47.4275 25.4725 47.2888 25.71 47.1163 25.71C46.945 25.71 46.8062 25.4725 46.8062 25.1775C46.8062 24.8837 46.9438 24.645 47.1163 24.645ZM42.0613 24.875C42.0413 25.015 42.02 25.1362 41.9988 25.2375L41.9913 25.2662C41.9788 25.3287 41.9637 25.3837 41.95 25.4262C41.35 27.1975 40.3563 28.5762 39 30.0475C38.8162 30.2475 38.6238 30.4475 38.4263 30.6525C37.9352 31.1617 37.4368 31.6639 36.9312 32.1587C36.7913 32.2962 36.6075 32.485 36.4 32.7037C36.2712 33.0625 36.125 33.4662 36.0025 33.8913C35.9475 33.8713 35.895 33.8525 35.8387 33.83C33.2037 32.8112 31.44 31.45 31.44 31.45C31.44 31.45 32.7975 33.2175 35.0838 34.875C35.305 35.0362 35.5225 35.175 35.7362 35.2987C35.6425 36.7913 36.3013 38.2237 39.2738 38.6512C39.7829 38.7202 40.2988 38.7235 40.8088 38.6613L40.7962 38.625C40.7949 38.6207 40.7933 38.6165 40.7912 38.6125C40.7913 38.6125 40.5825 38.4462 40.3175 38.1413C40.023 37.8034 39.7773 37.426 39.5875 37.02C39.429 36.6773 39.3172 36.3149 39.255 35.9425C39.1902 35.5403 39.1876 35.1305 39.2475 34.7275C39.2687 34.5775 39.2975 34.4263 39.3375 34.27C39.4538 33.8025 39.6562 33.305 39.9713 32.78L39.9738 32.7762L40.275 32.2712C41.6537 29.9462 42.5212 28.1775 42.1575 25.47C42.1304 25.2708 42.0991 25.0724 42.0613 24.875ZM47.9125 25.8487L47.9163 25.8937V25.9062C47.9163 25.9225 47.9125 25.9375 47.9125 25.9537C47.9125 25.9362 47.9163 25.9187 47.9163 25.9C47.9163 25.8825 47.9137 25.8675 47.9125 25.85V25.8487ZM47.8975 26.1925L47.895 26.2062L47.8925 26.2237L47.8975 26.1925ZM49.5887 33.6025C46.3975 35.025 42.7887 35.4025 39.3488 34.8612C39.1737 36.2462 39.8288 37.6337 40.8663 38.5238L40.8813 38.5362C44.26 37.995 47.1 35.825 49.5887 33.6025Z" fill="#202020"/>
</svg>
