<svg width="60" height="60" viewBox="0 0 60 60" fill="none" xmlns="http://www.w3.org/2000/svg">
<rect width="60" height="60" fill="url(#paint0_linear_5212_4035)"/>
<path d="M30.5905 31.8632C30.5905 31.557 30.8387 31.3088 31.1437 31.3088H36.022C36.3281 31.3088 36.5764 31.557 36.5764 31.8632C36.5764 32.1693 36.3281 32.4175 36.022 32.4175H31.1437C30.8387 32.4175 30.5905 32.1693 30.5905 31.8632ZM25.8269 32.4175H28.6851C28.9912 32.4175 29.2395 32.1693 29.2395 31.8632C29.2395 31.557 28.9912 31.3088 28.6851 31.3088H25.8269C25.5207 31.3088 25.2725 31.557 25.2725 31.8632C25.2725 32.1693 25.5207 32.4175 25.8269 32.4175ZM47.5717 39.8124V46.5642C47.5717 47.355 46.9287 47.9992 46.1367 47.9992H39.3849C38.5942 47.9992 37.9499 47.355 37.9499 46.5642V43.7427H16.6389C14.3705 43.7427 12.5254 41.8963 12.5254 39.628V35.4235C12.5254 33.1552 14.3705 31.3088 16.6389 31.3088H21.5527C21.8257 29.2048 23.6271 27.5747 25.8045 27.5747H36.0457C38.2218 27.5747 40.0244 29.2048 40.2963 31.3088H43.1911C44.8483 31.3088 46.197 29.96 46.197 28.3028V22.8832C46.197 21.2248 44.8483 19.8773 43.1911 19.8773H26.094V20.1645C26.094 20.4376 26.094 18.2082 26.094 18.4801V18.7685H43.1911C45.4594 18.7685 47.3058 20.6137 47.3058 22.8832V28.3028C47.3058 30.5712 45.4594 32.4175 43.1911 32.4175H40.2963C40.0244 34.5216 38.2217 36.1516 36.0444 36.1516H25.8045C23.6271 36.1516 21.8257 34.5216 21.5527 32.4175H16.6389C14.9816 32.4175 13.633 33.7651 13.633 35.4235V39.628C13.633 41.2852 14.9816 42.6339 16.6389 42.6339H37.9499V39.8124C37.9499 39.0204 38.5942 38.3774 39.3849 38.3774H46.1367C46.9287 38.3774 47.5717 39.0204 47.5717 39.8124ZM22.6235 31.8632C22.6235 33.6173 24.0503 35.044 25.8045 35.044H36.0444C37.7986 35.044 39.2253 33.6173 39.2253 31.8632C39.2253 30.109 37.7986 28.6823 36.0444 28.6823H25.8045C24.0503 28.6823 22.6235 30.109 22.6235 31.8632ZM46.4641 39.8124C46.4641 39.6351 46.314 39.485 46.1367 39.485H39.3849C39.2076 39.485 39.0575 39.6351 39.0575 39.8124V46.5642C39.0575 46.7415 39.2076 46.8916 39.3849 46.8916H46.1367C46.314 46.8916 46.4641 46.7415 46.4641 46.5642V39.8124ZM44.905 41.4519C44.6675 41.2592 44.3188 41.2959 44.1261 41.5346L42.4015 43.6658L41.3565 42.6221C41.1402 42.4058 40.7891 42.4058 40.5728 42.6221C40.3565 42.8384 40.3565 43.1895 40.5728 43.4058L42.0528 44.8857C42.1568 44.9898 42.2987 45.0476 42.4452 45.0476C42.4547 45.0476 42.4641 45.0477 42.4736 45.0465C42.6308 45.0382 42.7773 44.9637 42.8754 44.8419L44.9878 42.2308C45.1805 41.9932 45.1426 41.6446 44.905 41.4519Z" fill="#06CEAF"/>
<path fill-rule="evenodd" clip-rule="evenodd" d="M17.645 13.9013L17.7591 13.8658L17.8433 12.7155C17.8717 12.3121 18.2124 12 18.6379 12H19.9998C20.397 12 20.7372 12.3118 20.7656 12.7149L20.8797 13.8658L20.9927 13.9013C21.3332 14.0054 21.6448 14.1407 21.9568 14.3044L22.071 14.3612L22.9498 13.6114C23.2334 13.3489 23.7166 13.3668 24.0003 13.6536L24.9644 14.6253C25.2481 14.9121 25.2769 15.3702 24.9932 15.6783L24.2552 16.558L24.3117 16.6644C24.4819 16.9728 24.596 17.2971 24.7095 17.6352L24.7372 17.7501L25.9008 17.8423C26.298 17.8749 26.61 18.212 26.61 18.6171V19.9918C26.61 20.3969 26.298 20.734 25.9008 20.7666L24.7372 20.8576L24.7095 20.9723C24.596 21.3115 24.4819 21.6361 24.3117 21.9445L24.2552 22.0508L24.9932 22.9291C25.2769 23.2384 25.2481 23.6965 24.9644 23.9822L24.0003 24.9553C23.7166 25.2409 23.2334 25.2591 22.9498 24.9972L22.071 24.2483L21.9568 24.3045C21.6448 24.467 21.3332 24.6023 20.9927 24.7065L20.8797 24.7419L20.7656 25.8937C20.7372 26.2968 20.397 26.6077 19.9998 26.6077H18.6379C18.2124 26.6077 17.8717 26.2968 17.8433 25.8937L17.7591 24.7419L17.645 24.7065C17.3046 24.6023 16.9929 24.467 16.6809 24.3045L16.5667 24.2483L15.688 24.9975C15.3759 25.2594 14.9222 25.2409 14.6385 24.955L13.6733 23.9822C13.3613 23.6962 13.3615 23.2384 13.6168 22.9294L14.3548 22.0506L14.326 21.9442C14.1558 21.6361 14.014 21.3118 13.9005 20.9728L13.8717 20.8576L12.7092 20.7666C12.3121 20.734 12 20.3972 12 19.9918V18.6171C12 18.212 12.3121 17.8749 12.7092 17.8423L13.8717 17.7498L13.9005 17.6352C14.014 17.2971 14.1558 16.9731 14.326 16.665L14.3548 16.5583L13.6168 15.6783C13.3615 15.3702 13.3613 14.9121 13.6733 14.6255L14.6385 13.6539C14.9222 13.3671 15.3759 13.3487 15.688 13.6114L16.5667 14.3612L16.6809 14.3041C16.9929 14.1404 17.3046 14.0054 17.645 13.9013ZM20.0563 14.1092L19.9433 12.8275H18.6667L18.5814 14.1087C18.553 14.3555 18.3824 14.5626 18.127 14.6224C17.6731 14.739 17.2199 14.922 16.8227 15.1612C16.6241 15.2888 16.3402 15.2661 16.17 15.1061L15.1771 14.2718L14.2695 15.1785L15.1206 16.1561C15.2624 16.3453 15.2906 16.6148 15.1771 16.8273C14.9218 17.2261 14.752 17.663 14.6385 18.1271C14.5818 18.3666 14.3546 18.541 14.1277 18.5609L12.8223 18.6639V19.945L14.1277 20.048C14.3546 20.067 14.5818 20.2423 14.6385 20.4815C14.752 20.9456 14.9218 21.3813 15.1771 21.7813C15.2906 21.993 15.2624 22.2636 15.1206 22.4514L14.2695 23.4304L15.1771 24.3371L16.17 23.503C16.3402 23.3428 16.6241 23.3201 16.8227 23.4469C17.2199 23.686 17.6731 23.8701 18.127 23.9853C18.3824 24.0457 18.553 24.2531 18.5814 24.4991L18.6667 25.7802H19.9433L20.0563 24.4988C20.0847 24.2526 20.2549 24.0457 20.4819 23.9853C20.9641 23.8701 21.3901 23.686 21.7873 23.4466C22.0142 23.3201 22.2691 23.3428 22.4677 23.5028L23.4329 24.3371L24.3405 23.4304L23.5171 22.4514C23.3469 22.2633 23.3188 21.9938 23.4606 21.7811C23.6876 21.3813 23.8868 20.9456 24.0003 20.4815C24.057 20.2426 24.2547 20.067 24.51 20.048L25.7867 19.945V18.6639L24.51 18.5609C24.2547 18.541 24.057 18.3666 24.0003 18.1268C23.8868 17.6633 23.6876 17.2264 23.4606 16.8273C23.3188 16.6151 23.3469 16.3453 23.5171 16.1561L24.3405 15.1785L23.4329 14.2721L22.4677 15.1061C22.2691 15.2661 22.0142 15.2888 21.7873 15.1612C21.3901 14.922 20.9641 14.739 20.4819 14.6224C20.2549 14.5629 20.0847 14.3558 20.0563 14.1092Z" fill="#06CEAF"/>
<path fill-rule="evenodd" clip-rule="evenodd" d="M19.3214 16.5254C20.8533 16.5254 22.1007 17.7711 22.1007 19.3033C22.1007 20.8366 20.8533 22.0812 19.3214 22.0812C17.7895 22.0812 16.541 20.8366 16.541 19.3033C16.541 17.7711 17.7895 16.5254 19.3214 16.5254ZM19.3214 17.3529C18.2434 17.3529 17.3633 18.2267 17.3633 19.3033C17.3633 20.3799 18.2434 21.2536 19.3214 21.2536C20.3994 21.2536 21.2496 20.3799 21.2496 19.3033C21.2496 18.2267 20.3994 17.3529 19.3214 17.3529Z" fill="#06CEAF"/>
<defs>
<linearGradient id="paint0_linear_5212_4035" x1="30" y1="0" x2="30" y2="60" gradientUnits="userSpaceOnUse">
<stop stop-color="#ECF6F4"/>
<stop offset="1" stop-color="#ECF6F4" stop-opacity="0"/>
</linearGradient>
</defs>
</svg>
