<svg width="60" height="60" viewBox="0 0 60 60" fill="none" xmlns="http://www.w3.org/2000/svg">
<rect width="60" height="60" fill="url(#paint0_linear_4815_3103)"/>
<g clip-path="url(#clip0_4815_3103)">
<path fill-rule="evenodd" clip-rule="evenodd" d="M25.6265 41.7526V45.885C25.6265 47.1307 26.6364 48.1406 27.8821 48.1406H32.1177C33.3635 48.1406 34.3734 47.1307 34.3734 45.885V41.7526L35.7607 36.2059C35.8077 36.018 35.7887 35.8198 35.7068 35.6443L30.7645 25.0539C30.6259 24.7568 30.3277 24.567 29.9999 24.567C29.6721 24.567 29.3739 24.7568 29.2354 25.0539L24.2931 35.6443C24.2112 35.8198 24.1921 36.018 24.2392 36.2059L25.6265 41.7526ZM25.9488 36.0867L27.2847 41.4279C27.295 41.4656 27.3027 41.5045 27.3075 41.5441L27.3079 41.5469C27.3128 41.5866 27.3148 41.6261 27.314 41.6652V45.885C27.314 46.1988 27.5683 46.4531 27.8821 46.4531H32.1177C32.4315 46.4531 32.6859 46.1988 32.6859 45.885V41.6652C32.6851 41.6261 32.6871 41.5866 32.6919 41.5469L32.6923 41.5441C32.6972 41.5045 32.7049 41.4656 32.7151 41.4279L34.0511 36.0867L30.8437 29.2139V35.3217C31.6488 35.6474 32.2278 36.4259 32.2543 37.3491C32.29 38.5935 31.3087 39.6329 30.0642 39.6686C28.8197 39.7043 27.7803 38.723 27.7446 37.4786C27.7167 36.5091 28.3061 35.6642 29.1562 35.3212V29.2139L25.9488 36.0867ZM29.9831 36.8458C30.2966 36.8368 30.5585 37.084 30.5675 37.3975C30.5765 37.711 30.3293 37.9728 30.0158 37.9818C29.7022 37.9908 29.4404 37.7436 29.4314 37.4301C29.4224 37.1166 29.6696 36.8548 29.9831 36.8458ZM25.9823 14.6833H17.6606C17.297 13.4593 16.1626 12.5654 14.8211 12.5654C13.1865 12.5654 11.8594 13.8925 11.8594 15.5271C11.8594 17.1617 13.1865 18.4888 14.8211 18.4888C16.1626 18.4888 17.297 17.5949 17.6606 16.3708H25.9823C26.0023 16.8075 26.1169 17.2195 26.306 17.5869C21.7388 18.186 18.2132 22.0927 18.2132 26.823C18.2132 27.2887 18.5913 27.6667 19.057 27.6667C19.5227 27.6667 19.9007 27.2887 19.9007 26.823C19.9007 22.61 23.316 19.1948 27.5289 19.1948H32.4709C36.6839 19.1948 40.0991 22.61 40.0991 26.823C40.0991 27.2887 40.4772 27.6667 40.9429 27.6667C41.4086 27.6667 41.7866 27.2887 41.7866 26.823C41.7866 22.0927 38.2611 18.186 33.6939 17.5869C33.883 17.2194 33.9975 16.8075 34.0175 16.3708H42.339C42.7023 17.5955 43.8363 18.4888 45.1788 18.4888C46.8146 18.4888 48.1406 17.1628 48.1406 15.5271C48.1406 13.8914 46.8146 12.5654 45.1788 12.5654C43.8363 12.5654 42.7023 13.4587 42.339 14.6833H34.0175C33.9457 13.1116 32.6485 11.8594 31.0589 11.8594H28.941C27.3513 11.8594 26.0542 13.1116 25.9823 14.6833ZM27.6667 16.2331V14.8211C27.6667 14.1174 28.2372 13.5469 28.941 13.5469H31.0589C31.7627 13.5469 32.3332 14.1174 32.3332 14.8211V16.2331C32.3332 16.9369 31.7627 17.5073 31.0589 17.5073H28.941C28.2372 17.5073 27.6667 16.9369 27.6667 16.2331ZM14.8211 14.2529C15.5243 14.2529 16.0953 14.8238 16.0953 15.5271C16.0953 16.2304 15.5243 16.8013 14.8211 16.8013C14.1178 16.8013 13.5469 16.2304 13.5469 15.5271C13.5469 14.8238 14.1178 14.2529 14.8211 14.2529ZM43.9046 15.5271C43.9046 14.8233 44.4751 14.2529 45.1788 14.2529C45.8825 14.2529 46.4531 14.8233 46.4531 15.5271C46.4531 16.2308 45.8825 16.8013 45.1788 16.8013C44.4751 16.8013 43.9046 16.2308 43.9046 15.5271Z" fill="#06CEAF"/>
</g>
<defs>
<linearGradient id="paint0_linear_4815_3103" x1="30" y1="0" x2="30" y2="60" gradientUnits="userSpaceOnUse">
<stop stop-color="#ECF6F4"/>
<stop offset="1" stop-color="#ECF6F4" stop-opacity="0"/>
</linearGradient>
<clipPath id="clip0_4815_3103">
<rect width="36" height="36" fill="white" transform="translate(12 12)"/>
</clipPath>
</defs>
</svg>
