<svg width="56" height="55" viewBox="0 0 56 55" fill="none" xmlns="http://www.w3.org/2000/svg">
<path d="M15.9541 51.2664L10.428 41.6944L10.212 41.7808C6.93366 43.0934 3.07281 41.8455 1.24148 38.6732C-0.76312 35.2038 0.435386 30.7652 3.89544 28.7683L13.0633 23.4753L27.1362 5.54776L27.1432 5.5368C27.69 4.68097 28.6132 4.1748 29.6301 4.1748L29.6655 4.17523C30.7203 4.18833 31.663 4.74027 32.1892 5.65185L36.2355 12.6606L40.5337 12.4027C40.8375 12.3847 41.1275 12.5394 41.2802 12.8039L43.4286 16.525C43.5814 16.7895 43.5712 17.1171 43.4031 17.3721L41.0302 20.966L44.6833 27.2933C45.7888 29.2068 44.4778 31.6005 42.2892 31.7193L42.2705 31.7203L42.2521 31.7239C22.9389 35.5126 21.8437 35.7274 21.6772 35.7597L21.3073 35.8314L22.8927 38.5772C23.1152 38.9624 22.9828 39.4549 22.5976 39.6777L19.5743 41.4232L22.9312 47.2385C24.0457 49.1665 23.3836 51.628 21.4571 52.7412C19.5103 53.8668 17.0485 53.1641 15.9541 51.2664ZM21.5306 48.035L21.5178 48.0129C21.4039 47.8157 20.6404 46.493 16.1647 38.7399L16.0305 38.5074L11.8441 40.9244L17.3495 50.4611C18.0095 51.6049 19.489 52.0175 20.6508 51.3457C21.8088 50.6768 22.2037 49.1991 21.5362 48.0444L21.5306 48.035ZM2.63689 37.8676C4.19182 40.5605 7.64737 41.4866 10.3408 39.9322L18.9459 34.9635L13.3062 25.1954L4.70111 30.1637C2.9613 31.1682 1.87999 33.0415 1.87999 35.0532C1.87999 36.0375 2.14167 37.0106 2.63689 37.8676ZM17.4259 37.7017L18.7686 40.0274L21.0943 38.6846L19.7516 36.3589L17.4259 37.7017ZM39.7543 30.5719L26.95 8.39422L14.571 24.1638L20.4562 34.357L39.7543 30.5719ZM28.4845 6.43001L28.0227 7.02911L41.4248 30.2424L42.1578 30.1121C43.1783 30.0869 43.7967 28.9796 43.2879 28.0988L30.7933 6.45719C30.4497 5.86175 29.8806 5.78924 29.6499 5.78623C29.4162 5.78033 28.8446 5.84091 28.4845 6.43001ZM41.7843 16.8996L40.1338 14.0406L37.1362 14.2206L40.1295 19.4056L41.7843 16.8996ZM48.5566 16.4773L52.7072 17.5892C53.1371 17.7042 53.3922 18.146 53.2772 18.5758C53.1626 19.0025 52.723 19.2616 52.2907 19.1454L48.1396 18.0334C47.7097 17.9182 47.4545 17.4767 47.5696 17.0468C47.6848 16.6169 48.1267 16.362 48.5566 16.4773ZM53.5349 6.43882L53.535 6.43871C53.9236 6.22226 54.4141 6.36191 54.6303 6.75088L54.6304 6.75099C54.8469 7.13975 54.7071 7.63035 54.3182 7.8468C54.3181 7.8468 48.3328 11.1777 48.3328 11.1777C47.9431 11.3945 47.4529 11.254 47.2369 10.8657C47.0203 10.4769 47.1605 9.98621 47.5492 9.76965L53.5349 6.43882ZM42.606 2.37086C42.7211 1.94096 43.163 1.68594 43.5926 1.8011V1.8012C44.0225 1.91636 44.2774 2.35829 44.1622 2.7882L43.0494 6.93887C42.9338 7.3691 42.492 7.62347 42.0623 7.50864C41.6325 7.39305 41.3775 6.95155 41.4928 6.52164L42.606 2.37086Z" fill="#06CEAF"/>
</svg>
