<svg width="60" height="60" viewBox="0 0 60 60" fill="none" xmlns="http://www.w3.org/2000/svg">
<g id="prototyping 1" clip-path="url(#clip0_4186_1698)">
<path id="Shape" d="M55.6216 20.0197H37.8939C35.5563 20.0197 33.6614 21.9146 33.6614 24.2521V33.8079H32.9695C32.0435 33.8079 31.2927 33.0572 31.2927 32.1311V27.2067C31.2927 24.8692 29.3978 22.9743 27.0604 22.9743H26.3684C26.3684 20.597 26.3684 4.55473 26.3684 4.55473C26.3684 2.21719 24.4734 0.322266 22.1359 0.322266H4.40824C2.0707 0.322266 0.175781 2.21719 0.175781 4.55473V36.0705C0.175781 38.4081 2.0707 40.303 4.40824 40.303H22.1359C24.4734 40.303 26.3684 38.4081 26.3684 36.0705V25.53H27.0604C27.9864 25.53 28.7371 26.2807 28.7371 27.2067V32.1311C28.7371 34.4686 30.632 36.3635 32.9695 36.3635H33.6614C33.6614 38.8111 33.6614 55.768 33.6614 55.768C33.6614 58.1055 35.5563 60.0005 37.8939 60.0005H55.6216C57.9591 60.0005 59.8541 58.1055 59.8541 55.768V24.2521C59.8541 21.9146 57.9591 20.0197 55.6216 20.0197ZM55.6216 57.4448H37.8939C36.9678 57.4448 36.2171 56.6941 36.2171 55.768V52.1215H57.2984V55.768C57.2984 56.6941 56.5477 57.4448 55.6216 57.4448ZM47.7427 53.5053H45.7729C45.0672 53.5053 44.495 54.0775 44.495 54.7832C44.495 55.4889 45.0672 56.061 45.7729 56.061H47.7427C48.4484 56.061 49.0205 55.4889 49.0205 54.7832C49.0205 54.0775 48.4484 53.5053 47.7427 53.5053ZM39.7743 36.3635C39.4548 36.8584 39.5118 37.5255 39.945 37.9589C40.444 38.4578 41.2529 38.4578 41.7519 37.9589L43.7217 35.9892C43.8409 35.8703 43.9354 35.7285 43.9992 35.5724C44.1281 35.2601 44.1281 34.9095 43.9992 34.5971C43.9354 34.4411 43.8409 34.2993 43.7215 34.1801C43.7217 34.1803 41.7519 32.2105 41.7519 32.2105C41.7507 32.2093 41.7496 32.2082 41.7483 32.207C41.247 31.7227 40.45 31.7297 39.9571 32.2226C39.5278 32.6517 39.4671 33.3116 39.7784 33.8059H36.2171V30.4543H57.2984C57.2984 32.7115 57.2984 47.3087 57.2984 49.5659H36.2171V36.3635H39.7743ZM22.1359 37.7474H4.40824C3.48223 37.7474 2.73141 36.9967 2.73141 36.0705V32.424H23.8127V36.0705C23.8127 36.9967 23.062 37.7474 22.1359 37.7474ZM14.2569 33.8079H12.2872C11.5815 33.8079 11.0094 34.38 11.0094 35.0857C11.0094 35.7914 11.5815 36.3635 12.2872 36.3635H14.2569C14.9627 36.3635 15.5348 35.7914 15.5348 35.0857C15.5348 34.38 14.9627 33.8079 14.2569 33.8079ZM23.8127 29.8684H2.73141V10.7569H23.8127V22.9743H20.185C19.6787 21.7902 18.5139 21.01 17.2127 21.0046H9.33258C7.53902 21.0046 6.08496 22.4585 6.08496 24.2521C6.08496 26.0457 7.53902 27.4997 9.33258 27.4997H17.2127C18.5139 27.4943 19.6787 26.7141 20.1851 25.5299C20.185 25.53 23.8127 25.53 23.8127 25.53V29.8684ZM37.8939 22.5754H55.6216C56.5477 22.5754 57.2984 23.3261 57.2984 24.2521V27.8986H36.2171V24.2521C36.2171 23.3261 36.9678 22.5754 37.8939 22.5754ZM42.8182 26.5148H45.7729C46.4786 26.5148 47.0507 25.9427 47.0507 25.237C47.0507 24.5312 46.4786 23.9591 45.7729 23.9591H42.8182C42.1125 23.9591 41.5404 24.5312 41.5404 25.237C41.5404 25.9427 42.1125 26.5148 42.8182 26.5148ZM49.7123 26.5148H50.6972C51.403 26.5148 51.9751 25.9427 51.9751 25.237C51.9751 24.5312 51.403 23.9591 50.6972 23.9591H49.7123C49.0066 23.9591 48.4345 24.5312 48.4345 25.237C48.4345 25.9427 49.0066 26.5148 49.7123 26.5148ZM17.9034 24.2521C17.9034 24.6342 17.5937 24.9441 17.2116 24.9441H9.33258C8.95043 24.9441 8.6407 24.6342 8.6407 24.2521C8.6407 23.87 8.95043 23.5602 9.33258 23.5602H17.2116C17.5937 23.5602 17.9034 23.87 17.9034 24.2521ZM4.40824 2.87789H22.1359C23.062 2.87789 23.8127 3.62859 23.8127 4.55473V8.20125C23.8127 8.20125 5.29465 8.20125 2.73141 8.20125V4.55473C2.73141 3.62859 3.48223 2.87789 4.40824 2.87789ZM9.33258 6.81738H12.2872C12.9929 6.81738 13.565 6.24527 13.565 5.53957C13.565 4.83387 12.9929 4.26176 12.2872 4.26176H9.33258C8.62687 4.26176 8.05477 4.83387 8.05477 5.53957C8.05477 6.24527 8.62687 6.81738 9.33258 6.81738ZM16.2267 6.81738H17.2116C17.9173 6.81738 18.4894 6.24527 18.4894 5.53957C18.4894 4.83387 17.9173 4.26176 17.2116 4.26176H16.2267C15.521 4.26176 14.9489 4.83387 14.9489 5.53957C14.9489 6.24527 15.521 6.81738 16.2267 6.81738Z" fill="#08DBBA"/>
</g>
<defs>
<clipPath id="clip0_4186_1698">
<rect width="60" height="60" fill="white"/>
</clipPath>
</defs>
</svg>
