<svg width="50" height="50" viewBox="0 0 50 50" fill="none" xmlns="http://www.w3.org/2000/svg">
<g id="puzzle 1" clip-path="url(#clip0_4249_553)">
<path id="Vector" fill-rule="evenodd" clip-rule="evenodd" d="M1.46333 28.8679C0.856889 28.8679 0.365234 29.3595 0.365234 29.966V44.6073C0.365234 47.3702 2.60499 49.6098 5.36765 49.6098H20.0089C20.6155 49.6098 21.107 49.1181 21.107 48.5117V43.2652H21.9611C24.1848 43.2652 25.9875 41.4625 25.9875 39.2388C25.9875 37.0152 24.1847 35.2125 21.9612 35.2125H21.107V29.966C21.107 29.3595 20.6155 28.8679 20.0089 28.8679H13.6644C13.0579 28.8679 12.5663 29.3595 12.5663 29.966V31.7525C12.5663 32.7609 11.8432 33.6929 10.8362 33.7458C9.78031 33.801 8.90601 32.9621 8.90601 31.9182V29.966C8.90601 29.3595 8.41436 28.8679 7.80791 28.8679H1.46333ZM2.56143 31.0641H6.70982V31.9182C6.70982 34.2133 8.62958 36.0604 10.951 35.939L10.951 35.9389C13.1112 35.8257 14.7625 33.9156 14.7625 31.7525V31.0641H18.9108V36.3106C18.9108 36.917 19.4025 37.4087 20.0089 37.4087H21.9612C22.9719 37.4087 23.7913 38.2281 23.7913 39.2388C23.7913 40.2496 22.9719 41.069 21.9611 41.069H20.0089C19.4025 41.069 18.9108 41.5606 18.9108 42.1671V47.4136H5.36765C3.81787 47.4136 2.56143 46.1572 2.56143 44.6073V31.0641ZM44.6063 0.366211H15.3237C12.5609 0.366211 10.3213 2.60589 10.3213 5.36877L10.3214 20.0099C10.3214 20.6164 10.813 21.108 11.4195 21.108H16.6659V21.9621C16.6659 24.1859 18.4686 25.9885 20.6922 25.9885L20.7962 25.9871C22.9716 25.9321 24.7186 24.1511 24.7186 21.9622V21.108H28.8668L28.8669 26.3545C28.8669 26.9609 29.3586 27.4526 29.965 27.4526H31.7515C32.76 27.4526 33.692 28.1757 33.7448 29.1828C33.8 30.2386 32.9611 31.1129 31.9172 31.1129H29.965C29.3586 31.1129 28.8669 31.6046 28.8669 32.211V38.5556C28.8669 39.162 29.3586 39.6537 29.965 39.6537H44.6063C47.3692 39.6537 49.6088 37.4141 49.6088 34.6512L49.6086 20.0246C49.6087 20.0196 49.6088 20.0148 49.6088 20.0099V5.36863C49.6088 2.60582 47.369 0.366211 44.6063 0.366211ZM39.2129 16.2278C39.1583 16.2285 39.1043 16.2316 39.051 16.237L39.0504 16.2371L39.0385 16.2384C38.0836 16.345 37.4077 17.2485 37.4077 18.2234V20.0099L37.4076 20.0241L37.4073 20.0383L37.4069 20.0524L37.4062 20.0664L37.4055 20.0805L37.4045 20.0944L37.4034 20.1084L37.4021 20.1222L37.4005 20.136L37.3988 20.1498L37.397 20.1635L37.395 20.1772L37.3929 20.1908L37.3906 20.2044L37.3881 20.2178L37.3854 20.2312L37.3826 20.2446L37.3796 20.2579L37.3764 20.2712L37.3731 20.2844L37.3696 20.2975L37.366 20.3106L37.3622 20.3235L37.3584 20.3365L37.3543 20.3494L37.35 20.3621L37.3456 20.3748L37.3411 20.3875L37.3364 20.4001L37.3316 20.4125L37.3265 20.425L37.3214 20.4374L37.3161 20.4497L37.3107 20.4618L37.3051 20.474L37.2994 20.486L37.2936 20.498L37.2876 20.5098L37.2814 20.5216L37.2752 20.5333L37.2687 20.545L37.2622 20.5565L37.2555 20.568L37.2487 20.5793L37.2418 20.5906L37.2347 20.6018L37.2275 20.6129L37.2201 20.6239L37.2127 20.6348L37.2051 20.6456L37.1974 20.6563L37.1895 20.6669L37.1816 20.6775L37.1735 20.6879L37.1653 20.6982L37.157 20.7085L37.1485 20.7186L37.1399 20.7286L37.1313 20.7385L37.1224 20.7483L37.1135 20.7579L37.1045 20.7675L37.0953 20.777L37.0861 20.7864L37.0767 20.7956L37.0672 20.8048L37.0576 20.8139L37.048 20.8228L37.0381 20.8316L37.0282 20.8403L37.0182 20.8489L37.0081 20.8573L36.9979 20.8656L36.9876 20.8738L36.9771 20.8819L36.9666 20.8899L36.956 20.8978L36.9452 20.9054L36.9345 20.9131L36.9236 20.9205L36.9125 20.9279L36.9015 20.935L36.8903 20.9421L36.879 20.9491L36.8676 20.9559L36.8562 20.9626L36.8447 20.9691L36.833 20.9755L36.8213 20.9818L36.8095 20.9879L36.7976 20.9939L36.7857 20.9997L36.7737 21.0054L36.7615 21.011L36.7493 21.0164L36.737 21.0218L36.7247 21.0269L36.7122 21.0319L36.6997 21.0367L36.6871 21.0414L36.6745 21.0459L36.6618 21.0503L36.649 21.0546L36.6362 21.0587L36.6232 21.0626L36.6102 21.0664L36.5972 21.07L36.584 21.0735L36.5709 21.0768L36.5576 21.0799L36.5562 21.0802C36.5478 21.0822 36.5394 21.084 36.5309 21.0858L36.5175 21.0884L36.5166 21.0885C36.4989 21.0919 36.4811 21.0948 36.4632 21.0974L36.4494 21.0992L36.4357 21.1009L36.4219 21.1024L36.4198 21.1026C36.4113 21.1034 36.4027 21.1042 36.3941 21.1049L36.3801 21.1058L36.3661 21.1066L36.3625 21.1068C36.345 21.1076 36.3274 21.108 36.3096 21.108H31.063L31.0631 25.2564H31.7515C33.9146 25.2564 35.8247 26.9079 35.9379 29.0678L35.938 29.068C36.0594 31.3895 34.2123 33.3091 31.9172 33.3091H31.0631V37.4575H44.6063C46.1562 37.4575 47.4126 36.2011 47.4126 34.6512C47.4126 34.6393 47.4124 21.108 47.4124 21.108H42.1661C41.5597 21.108 41.068 20.6164 41.068 20.0099V18.0578L41.0679 18.0337L41.0677 18.0259L41.0674 18.0097L41.0671 18.0005L41.0666 17.9858L41.0662 17.9761L41.0655 17.962L41.065 17.9522L41.0641 17.9382L41.0635 17.9284L41.0625 17.9145L41.0616 17.9047L41.0605 17.8907L41.0596 17.8813L41.0582 17.8672L41.0572 17.8579L41.0556 17.8436L41.0545 17.8347L41.0527 17.8201L41.0515 17.8115L41.0495 17.7966L41.0483 17.7885L41.046 17.7732L41.0448 17.7656L41.0422 17.7499L41.041 17.7428L41.0381 17.7265L41.0369 17.7201L41.0337 17.7032L41.0325 17.6975L41.0289 17.6799L41.0279 17.675L41.0239 17.6565L41.023 17.6526L41.0185 17.6331L41.0178 17.6303L41.0127 17.6097L41.0123 17.6082C40.81 16.8073 40.0791 16.2169 39.2129 16.2278ZM28.8669 2.5624H15.3237C13.7739 2.5624 12.5175 3.81885 12.5175 5.36877L12.5176 18.9118H17.764C18.3704 18.9118 18.8621 19.4035 18.8621 20.0099V21.9621C18.8621 22.9729 19.6815 23.7923 20.6922 23.7923H20.6923C21.703 23.7923 22.5224 22.9729 22.5224 21.9622V20.0099C22.5224 19.4035 23.014 18.9118 23.6205 18.9118H28.8669V14.7635H28.0127C25.8902 14.7635 24.1511 13.1207 23.9975 11.0371L23.9969 11.0278L23.9964 11.0213L23.9963 11.0205C23.9947 10.9978 23.9933 10.9749 23.9921 10.952V10.9519C23.8813 8.83276 25.4109 7.04827 27.4242 6.75347L27.4321 6.75237L27.4481 6.75011L27.4579 6.74871L27.4723 6.74674L27.4749 6.74637L27.4763 6.74623L27.4839 6.7452L27.4969 6.74352L27.5001 6.74315L27.5021 6.74286L27.5099 6.74191L27.5217 6.74044L27.5253 6.74L27.5278 6.73971L27.536 6.73868L27.5466 6.73751L27.5505 6.737L27.5537 6.73671L27.562 6.73576L27.5717 6.73466L27.5758 6.73422L27.5796 6.73385L27.5881 6.7329L27.597 6.73202L27.6012 6.73158L27.6056 6.73114L27.6144 6.73027L27.6224 6.72946L27.6266 6.72909L27.6316 6.72858L27.6406 6.72778L27.6479 6.72712L27.6521 6.72675L27.6576 6.72624L27.6669 6.72543L27.6735 6.72485L27.6775 6.72456L27.6838 6.72404L27.6932 6.72324L27.6992 6.7228L27.7031 6.72251L27.7099 6.72199L27.7196 6.72126L27.725 6.7209L27.7287 6.72068L27.7361 6.72016L27.7461 6.71943L27.7508 6.71914L27.7543 6.71892L27.7624 6.71848L27.7726 6.71782L27.7767 6.7176L27.7799 6.71738L27.7887 6.71694L27.7991 6.71636L27.8027 6.71614L27.8056 6.71599L27.8152 6.71555L27.8256 6.71504L27.8288 6.71489L27.8314 6.71482L27.8416 6.71438L27.8523 6.71394L27.8549 6.71379L27.8573 6.71372L27.8682 6.71336L27.8789 6.71299L27.8811 6.71292L27.8831 6.71284L27.8949 6.71248L27.9056 6.71218L27.9073 6.71211H27.9089L27.9218 6.71182L27.9324 6.71153H27.9349L27.9491 6.71131L27.9592 6.71109H27.9608L27.9774 6.71094L27.986 6.71087H27.9868L28.0129 6.71079H28.8669V2.5624ZM31.0631 2.5624V7.80889C31.0631 7.89732 31.0526 7.98341 31.0329 8.06585C30.9172 8.54835 30.483 8.90699 29.965 8.90699H28.0129L27.9888 8.90713L27.981 8.90728L27.9648 8.90757L27.9556 8.90787L27.9409 8.90838L27.9312 8.90882L27.9171 8.9094L27.9072 8.90999L27.8933 8.91079L27.8835 8.91152L27.8695 8.91248L27.8598 8.91328L27.8458 8.91453L27.8364 8.91541L27.8223 8.9168L27.813 8.91782L27.7987 8.91936L27.7898 8.92046L27.7752 8.92229L27.7666 8.92346L27.7517 8.92551L27.7436 8.92668L27.7283 8.92895L27.7206 8.93019L27.705 8.93276L27.6979 8.934L27.6816 8.93693L27.6752 8.9381L27.6583 8.94132L27.6526 8.94249L27.6349 8.94608L27.6301 8.9471L27.6116 8.95113L27.6077 8.95201L27.5882 8.95655L27.5854 8.95721L27.5648 8.96226L27.5633 8.96262C26.7625 9.16497 26.1721 9.89564 26.1829 10.762C26.1837 10.8212 26.1873 10.8798 26.1936 10.9377C26.3008 11.892 27.204 12.5673 28.1785 12.5673H29.965C29.9698 12.5673 29.9745 12.5673 29.9792 12.5674L29.9933 12.5677L30.0075 12.5681L30.0215 12.5687L30.0356 12.5695L30.0495 12.5705L30.0635 12.5716L30.0773 12.5729L30.0911 12.5744L30.1049 12.5761L30.1186 12.5779L30.1323 12.58L30.1459 12.5821L30.1595 12.5844L30.1729 12.5869L30.1863 12.5896L30.1997 12.5924L30.213 12.5954L30.2263 12.5986L30.2395 12.6019L30.2526 12.6053L30.2657 12.609L30.2786 12.6127L30.2916 12.6166L30.3045 12.6207L30.3172 12.625L30.3299 12.6294L30.3426 12.6339L30.3552 12.6386L30.3676 12.6434L30.3801 12.6484L30.3925 12.6535L30.4048 12.6589L30.4169 12.6643L30.4291 12.6699L30.4411 12.6756L30.4531 12.6814L30.4649 12.6874L30.4767 12.6935L30.4884 12.6998L30.5001 12.7063L30.5116 12.7128L30.5231 12.7194L30.5344 12.7262L30.5457 12.7332L30.5569 12.7403L30.568 12.7475L30.579 12.7548L30.5899 12.7623L30.6007 12.7699L30.6114 12.7776L30.622 12.7855L30.6326 12.7934L30.643 12.8015L30.6533 12.8097L30.6635 12.818L30.6737 12.8265L30.6837 12.835L30.6936 12.8437L30.7034 12.8525L30.713 12.8615L30.7226 12.8705L30.7321 12.8797L30.7415 12.8889L30.7507 12.8983L30.7599 12.9078L30.769 12.9174L30.7779 12.927L30.7867 12.9369L30.7954 12.9467L30.804 12.9568L30.8124 12.9669L30.8207 12.9771L30.8289 12.9874L30.837 12.9978L30.845 13.0084L30.8528 13.019L30.8605 13.0297L30.8682 13.0405L30.8756 13.0514L30.8829 13.0624L30.8901 13.0735L30.8972 13.0847L30.9042 13.096L30.911 13.1074L30.9177 13.1188L30.9242 13.1303L30.9306 13.142L30.9369 13.1537L30.943 13.1655L30.949 13.1773L30.9548 13.1893L30.9605 13.2014L30.9661 13.2135L30.9715 13.2257L30.9769 13.238L30.982 13.2503L30.987 13.2628L30.9918 13.2752L30.9965 13.2878L31.001 13.3005L31.0054 13.3132L31.0097 13.3259L31.0138 13.3388L31.0177 13.3518L31.0215 13.3647L31.0251 13.3779L31.0286 13.391L31.0319 13.4041L31.035 13.4174L31.038 13.4307L31.0409 13.4441L31.0435 13.4575L31.046 13.471L31.0483 13.4845L31.0504 13.4981L31.0525 13.5118L31.0543 13.5255L31.056 13.5393L31.0575 13.5531L31.0588 13.5669L31.06 13.5809L31.0609 13.5948L31.0617 13.6089L31.0623 13.6229L31.0627 13.6371L31.063 13.6512L31.0631 13.6653L31.0632 18.9118H32.7726H35.2115V18.0578C35.2115 15.9342 36.8556 14.1945 38.9403 14.0423L38.9472 14.0418L38.9517 14.0414L38.9536 14.0413L38.9568 14.0411C38.9789 14.0395 39.0009 14.0382 39.0229 14.037H39.0231C41.1422 13.9262 42.9267 15.4558 43.2215 17.4691L43.2226 17.477L43.2263 17.5028L43.2283 17.5172L43.2286 17.5198L43.2288 17.5212L43.2298 17.5288L43.2314 17.5418L43.2318 17.545L43.2321 17.547L43.2331 17.5548L43.2346 17.5666L43.235 17.5702L43.2353 17.5727L43.2362 17.5809L43.2375 17.5915L43.2379 17.5954L43.2383 17.5986L43.2392 17.6069L43.2403 17.6166L43.2408 17.6208L43.2411 17.6245L43.2421 17.633L43.243 17.6419L43.2434 17.6461L43.2439 17.6505L43.2447 17.6593L43.2455 17.6673L43.2459 17.6715L43.2463 17.6765L43.2472 17.6855L43.2479 17.6928L43.2482 17.697L43.2488 17.7025L43.2496 17.7118L43.2501 17.7184L43.2504 17.7224L43.251 17.7287L43.2517 17.7381L43.2521 17.7441L43.2525 17.748L43.2529 17.7548L43.2537 17.7645L43.254 17.7699L43.2543 17.7736L43.2548 17.781L43.2555 17.791L43.2558 17.7957L43.256 17.7992L43.2565 17.8073L43.2572 17.8175L43.2574 17.8216L43.2575 17.8248L43.2581 17.8336L43.2586 17.844L43.2588 17.8476L43.2589 17.8505L43.2594 17.8601L43.26 17.8705L43.26 17.8737L43.2602 17.8763L43.2606 17.8865L43.2611 17.8972L43.2611 17.8998L43.2613 17.9022L43.2616 17.9131L43.262 17.9238L43.2621 17.926L43.2622 17.928L43.2625 17.9398L43.2628 17.9505V17.9522L43.2629 17.9538L43.2632 17.9667L43.2634 17.9773L43.2635 17.9798L43.2637 17.994L43.2638 18.0041V18.0057L43.2641 18.0223L43.2641 18.0309V18.0313C43.2642 18.04 43.2642 18.0489 43.2642 18.0578V18.9118H47.4126V5.36863C47.4126 3.81877 46.1562 2.5624 44.6063 2.5624C44.6063 2.5624 34.4658 2.5624 31.0631 2.5624Z" fill="#08DBBA"/>
</g>
<defs>
<clipPath id="clip0_4249_553">
<rect width="50" height="50" fill="white"/>
</clipPath>
</defs>
</svg>
