<svg width="90" height="70" viewBox="0 0 90 70" fill="none" xmlns="http://www.w3.org/2000/svg">
<g clip-path="url(#clip0_5849_3926)">
<path fill-rule="evenodd" clip-rule="evenodd" d="M61.1526 17.7767L62.1643 19.1087C62.4299 19.4603 62.3635 19.9642 62.012 20.2298L60.9378 21.0462C61.1331 21.5657 61.2581 22.1204 61.3089 22.6868L62.5315 22.8548C62.969 22.9134 63.2737 23.3196 63.2151 23.7571L62.9885 25.4173C62.9299 25.8548 62.5237 26.1634 62.0862 26.1009L60.7503 25.9173C60.512 26.4368 60.2073 26.9134 59.8479 27.3392L60.5979 28.3235C60.8635 28.6751 60.7932 29.179 60.4417 29.4446L59.1096 30.4564C58.7581 30.722 58.2542 30.6517 57.9885 30.304L57.1721 29.2298C56.6487 29.4251 56.0979 29.5501 55.5276 29.6009L55.3596 30.8235C55.301 31.261 54.8948 31.5657 54.4573 31.5071L52.7971 31.2806C52.3596 31.222 52.0549 30.8157 52.1135 30.3782L52.2971 29.0423C51.7815 28.804 51.301 28.4993 50.8753 28.1439L49.8909 28.89C49.5393 29.1556 49.0354 29.0892 48.7698 28.7376L47.7581 27.4056C47.4924 27.054 47.5589 26.5501 47.9104 26.2845L48.9846 25.4681C48.7893 24.9446 48.6643 24.3939 48.6135 23.8274L47.3909 23.6595C46.9534 23.6009 46.6448 23.1946 46.7073 22.7571L46.9339 21.097C46.9964 20.6595 47.3987 20.3548 47.8362 20.4134L49.1721 20.597C49.4104 20.0814 49.7151 19.6009 50.0706 19.1751L49.3245 18.1907C49.0589 17.8431 49.1253 17.3392 49.4768 17.0735L50.8089 16.0618C51.1604 15.7962 51.6643 15.8626 51.9299 16.2142L52.7464 17.2884C53.2659 17.0931 53.8206 16.9681 54.387 16.9173L54.5549 15.6946C54.6135 15.2571 55.0198 14.9485 55.4573 15.0071L57.1174 15.2337C57.5549 15.2923 57.8635 15.6985 57.801 16.136L57.6174 17.472C58.137 17.7103 58.6135 18.015 59.0432 18.3743L60.0276 17.6282C60.3792 17.3587 60.8831 17.4251 61.1526 17.7767ZM32.5901 41.2181V34.7728H35.9104C36.5276 34.7728 36.9964 34.8235 37.3206 34.9329C37.6448 35.0384 37.9104 35.2337 38.1057 35.5189C38.3049 35.8079 38.4065 36.1556 38.4065 36.5657C38.4065 36.9212 38.3284 37.2337 38.176 37.4915C38.0237 37.7532 37.8128 37.9642 37.5471 38.1243C37.3792 38.2259 37.1448 38.3118 36.8479 38.3782C37.0862 38.4603 37.2581 38.5345 37.3635 38.6165C37.4378 38.6712 37.5432 38.7845 37.6799 38.9564C37.8167 39.1282 37.9104 39.2649 37.9573 39.3587L38.926 41.222H36.676L35.6135 39.2571C35.4768 39.0032 35.3596 38.8353 35.2542 38.761C35.1096 38.6634 34.9456 38.6126 34.7659 38.6126H34.5901V41.222H32.5901V41.2181ZM39.6135 52.4407H35.8948L35.3596 54.1907H32.0081L36.0042 43.5696H39.5979L43.5784 54.1907H40.1409L39.6135 52.4407ZM38.9182 50.1399L37.7581 46.3196L36.594 50.1399H38.9182ZM44.3518 43.5696H49.8128C51.0042 43.5696 51.8948 43.8509 52.4846 44.4173C53.0745 44.9837 53.3714 45.7923 53.3714 46.8353C53.3714 47.9095 53.0471 48.7493 52.4026 49.3548C51.7581 49.9603 50.7698 50.261 49.4456 50.261H47.6448V54.1907H44.3518V43.5696ZM47.6448 48.1087H48.4534C49.0901 48.1087 49.5393 47.9993 49.7971 47.7767C50.0549 47.5579 50.1839 47.2728 50.1839 46.9329C50.1839 46.6009 50.0706 46.3157 49.8479 46.0853C49.6253 45.8548 49.2034 45.7376 48.5862 45.7376H47.6448V48.1087ZM54.6995 43.5696H57.9924V54.1907H54.6995V43.5696ZM34.5901 37.3899H35.4299C35.5198 37.3899 35.6956 37.3587 35.9573 37.3001C36.0901 37.2728 36.1995 37.2064 36.2815 37.097C36.3674 36.9876 36.4065 36.8626 36.4065 36.722C36.4065 36.5149 36.3401 36.3509 36.2073 36.2415C36.0745 36.1282 35.8284 36.0735 35.4651 36.0735H34.5901V37.3899ZM39.3089 34.7728H44.6409V36.1478H41.3089V37.1751H44.3987V38.4876H41.3089V39.7571H44.7385V41.2142H39.3089V34.7728ZM45.2112 39.0853L47.1018 38.9681C47.1409 39.2767 47.2268 39.5071 47.3518 39.6673C47.5589 39.9251 47.8518 40.0579 48.2307 40.0579C48.512 40.0579 48.7346 39.9915 48.887 39.8587C49.0393 39.7259 49.1174 39.5696 49.1174 39.3939C49.1174 39.2259 49.0432 39.0774 48.8987 38.9446C48.7542 38.8118 48.4143 38.6907 47.8792 38.5696C47.0081 38.3743 46.387 38.1126 46.012 37.7884C45.637 37.4642 45.4495 37.0501 45.4495 36.5462C45.4495 36.2142 45.5471 35.9017 45.7385 35.6087C45.9299 35.3157 46.219 35.0814 46.6057 34.9134C46.9924 34.7454 47.5198 34.6634 48.1917 34.6634C49.0159 34.6634 49.6409 34.8157 50.0745 35.1243C50.5042 35.4329 50.762 35.9173 50.844 36.5892L48.9729 36.7024C48.9221 36.4095 48.8167 36.1946 48.6604 36.0657C48.5003 35.9329 48.2776 35.8665 48.0003 35.8665C47.7698 35.8665 47.594 35.9173 47.4768 36.0149C47.3596 36.1126 47.301 36.2337 47.301 36.3743C47.301 36.4759 47.3518 36.5657 47.4456 36.6517C47.5393 36.7337 47.7581 36.8157 48.1096 36.8899C48.9807 37.0774 49.6057 37.2689 49.9807 37.4603C50.3557 37.6517 50.6331 37.8899 50.801 38.1751C50.9729 38.4564 51.0589 38.7767 51.0589 39.1282C51.0589 39.5423 50.9456 39.9212 50.7151 40.2689C50.4885 40.6165 50.1682 40.8821 49.7581 41.0618C49.3479 41.2415 48.8323 41.3314 48.2073 41.3314C47.1135 41.3314 46.3518 41.1204 45.9299 40.6985C45.5081 40.2689 45.2698 39.7337 45.2112 39.0853ZM51.3479 34.7728H57.4065V36.3665H55.3753V41.2181H53.3831V36.3665H51.3479V34.7728ZM44.6448 19.4759C43.9299 19.4212 43.2073 19.429 42.4924 19.4993C40.2932 19.7103 38.1565 20.511 36.3909 21.8821C34.3479 23.4642 32.7971 25.8314 32.1995 28.9681L32.012 29.9485L31.0354 30.1204C30.0784 30.2884 29.2229 30.5189 28.4729 30.8118C27.7464 31.0931 27.0979 31.4407 26.5315 31.8509C26.0784 32.179 25.6878 32.5462 25.3557 32.9446C24.3284 34.1751 23.8518 35.7181 23.8635 37.2806C23.8753 38.8665 24.3909 40.4681 25.344 41.7845C25.6995 42.2728 26.1096 42.722 26.5784 43.1126C27.0549 43.5071 27.5901 43.8353 28.1917 44.0814C28.5315 44.222 28.8948 44.3392 29.2737 44.4329V47.3587C28.4924 47.2181 27.7737 47.0071 27.1018 46.7298C26.2151 46.3626 25.4299 45.8899 24.7385 45.3118C24.0823 44.7649 23.5081 44.1439 23.0198 43.4681C21.719 41.6712 21.0159 39.4759 21.0003 37.2884C20.9846 35.0774 21.6721 32.8782 23.1565 31.097C23.637 30.5189 24.2034 29.9876 24.8518 29.5189C25.6057 28.972 26.469 28.511 27.4456 28.1321C28.1174 27.8704 28.8362 27.6517 29.594 27.4759C30.4534 24.0618 32.2854 21.4329 34.6409 19.6087C36.844 17.9017 39.4964 16.9056 42.2268 16.6439C43.6604 16.5071 45.1135 16.5696 46.5354 16.8353C46.5042 16.9642 46.4768 17.0931 46.4612 17.2259L46.4573 17.2493C46.4299 17.472 46.4182 17.6946 46.4299 17.9212C46.1292 18.0384 45.8479 18.1985 45.594 18.3939L45.5823 18.4017C45.2034 18.6868 44.8831 19.054 44.6448 19.4759ZM65.3128 26.9759C65.5315 27.1751 65.7424 27.3821 65.9495 27.6048C66.3674 28.054 66.762 28.5618 67.1331 29.1282C68.3831 31.0501 69.0237 33.6165 68.9964 36.1282C68.969 38.5931 68.3049 41.0462 66.9456 42.8509C66.0589 44.0267 64.9221 44.9876 63.5589 45.7493C62.6253 46.2728 61.5745 46.7064 60.4299 47.0579V44.0306C61.0471 43.8001 61.6214 43.5423 62.1487 43.2493C63.176 42.6751 64.0159 41.9759 64.6448 41.136C65.6214 39.8353 66.1018 37.9954 66.1214 36.1087C66.1448 34.1282 65.6604 32.1399 64.719 30.6946C64.4495 30.2767 64.1526 29.9017 63.8401 29.5657C63.719 29.4368 63.5979 29.3157 63.4729 29.1985C63.4924 29.0032 63.5003 28.804 63.4885 28.6048C63.7893 28.4876 64.0706 28.3274 64.3245 28.1321L64.3362 28.1243C64.7385 27.8157 65.0745 27.4251 65.3128 26.9759ZM55.4065 19.9993C57.2073 20.2454 58.4651 21.9056 58.219 23.7064C57.9729 25.5071 56.3128 26.7689 54.512 26.5228C52.7112 26.2767 51.4495 24.6165 51.6995 22.8157C51.9495 21.015 53.6057 19.7532 55.4065 19.9993Z" fill="#202020"/>
</g>
<defs>
<clipPath id="clip0_5849_3926">
<rect width="48" height="39.1914" fill="white" transform="translate(21 15)"/>
</clipPath>
</defs>
</svg>
