<svg width="50" height="74" viewBox="0 0 50 74" fill="none" xmlns="http://www.w3.org/2000/svg">
<g id="Frame 419 1">
<path id="Vector" fill-rule="evenodd" clip-rule="evenodd" d="M25 72.6562C24.5703 72.6562 24.2188 72.3047 24.2188 71.875V57.8125C24.2188 57.3828 24.5703 57.0312 25 57.0312C25.4297 57.0312 25.7812 57.3828 25.7812 57.8125V71.875C25.7812 72.3047 25.4297 72.6562 25 72.6562Z" fill="#06CEAF"/>
<path id="Vector_2" fill-rule="evenodd" clip-rule="evenodd" d="M32.8125 66.4062C32.3828 66.4062 32.0312 66.0547 32.0312 65.625V57.8125C32.0312 57.3828 32.3828 57.0312 32.8125 57.0312C33.2422 57.0312 33.5938 57.3828 33.5938 57.8125V65.625C33.5938 66.0547 33.2422 66.4062 32.8125 66.4062Z" fill="#06CEAF"/>
<path id="Vector_3" fill-rule="evenodd" clip-rule="evenodd" d="M17.1875 66.4062C16.7578 66.4062 16.4062 66.0547 16.4062 65.625V57.8125C16.4062 57.3828 16.7578 57.0312 17.1875 57.0312C17.6172 57.0312 17.9688 57.3828 17.9688 57.8125V65.625C17.9688 66.0547 17.6172 66.4062 17.1875 66.4062Z" fill="#06CEAF"/>
<path id="Vector_4" fill-rule="evenodd" clip-rule="evenodd" d="M6.24903 53.8912V53.9068C6.19122 53.9068 6.13184 53.9037 6.07403 53.8834L6.03497 53.8725C5.80997 53.81 5.62403 53.6443 5.53028 53.4272L0.842781 42.4912C0.711531 42.1803 0.794344 41.8146 1.05216 41.5959L9.00684 34.7756L8.95684 34.3615C6.14434 10.9193 24.3897 0.983399 24.6147 0.870899L24.6193 0.867774C24.8537 0.747462 25.1303 0.747462 25.36 0.866212L25.3647 0.867774C25.5943 0.983399 43.8725 10.9318 41.0803 34.4084L41.0318 34.8225L48.9475 41.61C49.2053 41.8287 49.2897 42.1959 49.1568 42.5068L44.4709 53.4428C44.3818 53.6506 44.2068 53.81 43.9943 53.8787C43.9022 53.9022 43.8272 53.9225 43.7506 53.9225V53.9068C43.5959 53.9068 43.4459 53.8662 43.3193 53.7693L36.974 49.2475L36.5897 50.1287C36.335 50.7115 36.0693 51.2959 35.7928 51.8865L35.7912 51.8912C35.6647 52.1662 35.3818 52.3443 35.0787 52.3443H14.9084C14.8318 52.3428 14.7553 52.3334 14.6818 52.3115C14.5912 52.285 14.5053 52.2428 14.4287 52.185C14.3725 52.1396 14.3209 52.0881 14.2772 52.0303L14.1725 51.8334L13.9459 51.3553L13.0022 49.249L6.70372 53.7381C6.57091 53.8318 6.41466 53.8912 6.24903 53.8912ZM47.4928 42.4209L40.774 36.66L40.5131 37.9693C40.1428 39.8271 39.6443 41.7615 39.0006 43.7725L38.8662 44.1896C38.5428 45.1771 38.185 46.1818 37.7912 47.2053L37.574 47.7709L43.4147 51.9334L47.4928 42.4209ZM9.17559 36.7178L2.50841 42.4053L6.58497 51.9178L12.3897 47.7818L10.5787 42.4381L10.0365 40.235C10.0365 40.235 9.65372 38.6834 9.64278 38.6553L9.17559 36.7178ZM36.7459 45.5803L37.1303 44.5303H12.8693L13.2818 45.6568C13.5162 46.2959 13.76 46.9303 14.0131 47.56L14.1459 47.8881C14.474 48.6896 14.8225 49.499 15.1943 50.3225L15.4022 50.7818H34.5975L34.8053 50.3225C35.1881 49.474 35.5475 48.6412 35.8818 47.8193L35.924 47.7115C36.2209 46.9803 36.4928 46.274 36.7459 45.5803ZM39.4287 35.2756L39.4943 34.8193C42.2943 14.3865 28.8381 4.79277 25.4084 2.69277L24.999 2.44277L24.5912 2.69277C21.1631 4.79277 7.71934 14.3771 10.5006 34.7865L10.5709 35.2787C10.9037 37.5256 11.4318 39.9021 12.1928 42.4131L12.3615 42.9678H37.6381L37.8053 42.4131C38.5678 39.9006 39.0975 37.524 39.4287 35.2756Z" fill="#06CEAF"/>
<path id="Vector_5" fill-rule="evenodd" clip-rule="evenodd" d="M25 28.9062C21.1188 28.9062 17.9688 25.7563 17.9688 21.875C17.9688 17.9938 21.1188 14.8438 25 14.8438C28.8813 14.8438 32.0312 17.9938 32.0312 21.875C32.0312 25.7563 28.8813 28.9062 25 28.9062ZM25 16.4062C21.9922 16.4062 19.5312 18.8672 19.5312 21.875C19.5312 24.8828 21.9922 27.3438 25 27.3438C28.0078 27.3438 30.4688 24.8828 30.4688 21.875C30.4688 18.8672 28.0078 16.4062 25 16.4062Z" fill="#06CEAF"/>
</g>
</svg>
