<svg width="60" height="60" viewBox="0 0 60 60" fill="none" xmlns="http://www.w3.org/2000/svg">
<rect width="60" height="60" fill="url(#paint0_linear_4676_3212)"/>
<path d="M46.5039 9.94141C48.4641 9.94141 50.0586 11.5359 50.0586 13.4961V46.5039C50.0586 48.4641 48.4641 50.0586 46.5039 50.0586H30.8251C30.2642 50.0586 29.8095 49.6043 29.8095 49.043C29.8095 48.4816 30.2642 48.0273 30.8251 48.0273H46.5039C47.3437 48.0273 48.0273 47.3444 48.0273 46.5039V13.4961C48.0273 12.6556 47.3437 11.9727 46.5039 11.9727H13.4961C12.6563 11.9727 11.9727 12.6556 11.9727 13.4961V29.1743C11.9727 29.7356 11.518 30.1899 10.957 30.1899C10.3962 30.1899 9.94141 29.7356 9.94141 29.1743V13.4961C9.94141 11.5359 11.5359 9.94141 13.4961 9.94141H46.5039ZM23.6523 32.793C25.6125 32.793 27.207 34.3875 27.207 36.3477V46.5039C27.207 48.4641 25.6125 50.0586 23.6523 50.0586H13.4961C11.5359 50.0586 9.94141 48.4641 9.94141 46.5039V36.3477C9.94141 34.3875 11.5359 32.793 13.4961 32.793H23.6523ZM25.1758 46.5039V36.3477C25.1758 35.5071 24.4922 34.8242 23.6523 34.8242H13.4961C12.6563 34.8242 11.9727 35.5071 11.9727 36.3477V46.5039C11.9727 47.3444 12.6563 48.0273 13.4961 48.0273H23.6523C24.4922 48.0273 25.1758 47.3444 25.1758 46.5039ZM30.718 30.718C30.3223 31.1139 29.6653 31.1015 29.282 30.718C28.8852 30.3213 28.8852 29.6787 29.282 29.282L37.7045 20.8594H34.5156C33.9547 20.8594 33.5 20.4051 33.5 19.8438C33.5 19.2824 33.9547 18.8281 34.5156 18.8281H40.1562C40.7087 18.8281 41.1719 19.2997 41.1719 19.8438V25.4844C41.1719 26.0457 40.7172 26.5 40.1562 26.5C39.5954 26.5 39.1406 26.0457 39.1406 25.4844V22.2955L30.718 30.718Z" fill="#06CEAF"/>
<defs>
<linearGradient id="paint0_linear_4676_3212" x1="30" y1="0" x2="30" y2="60" gradientUnits="userSpaceOnUse">
<stop stop-color="#ECF6F4"/>
<stop offset="1" stop-color="#ECF6F4" stop-opacity="0"/>
</linearGradient>
</defs>
</svg>
