<svg width="80" height="60" viewBox="0 0 80 60" fill="none" xmlns="http://www.w3.org/2000/svg">
<rect width="80" height="60" rx="30" fill="#F3FEFC"/>
<rect width="80" height="60" rx="30" fill="black" fill-opacity="0.06"/>
<path d="M56.5625 10C58.5227 10 60.1172 11.5945 60.1172 13.5547V46.5625C60.1172 48.5227 58.5227 50.1172 56.5625 50.1172H40.8837C40.3228 50.1172 39.8681 49.6629 39.8681 49.1016C39.8681 48.5402 40.3228 48.0859 40.8837 48.0859H56.5625C57.4023 48.0859 58.0859 47.403 58.0859 46.5625V13.5547C58.0859 12.7142 57.4023 12.0312 56.5625 12.0312H23.5547C22.7149 12.0312 22.0312 12.7142 22.0312 13.5547V29.2329C22.0312 29.7942 21.5766 30.2485 21.0156 30.2485C20.4548 30.2485 20 29.7942 20 29.2329V13.5547C20 11.5945 21.5945 10 23.5547 10H56.5625ZM33.7109 32.8516C35.6711 32.8516 37.2656 34.4461 37.2656 36.4062V46.5625C37.2656 48.5227 35.6711 50.1172 33.7109 50.1172H23.5547C21.5945 50.1172 20 48.5227 20 46.5625V36.4062C20 34.4461 21.5945 32.8516 23.5547 32.8516H33.7109ZM35.2344 46.5625V36.4062C35.2344 35.5657 34.5508 34.8828 33.7109 34.8828H23.5547C22.7149 34.8828 22.0312 35.5657 22.0312 36.4062V46.5625C22.0312 47.403 22.7149 48.0859 23.5547 48.0859H33.7109C34.5508 48.0859 35.2344 47.403 35.2344 46.5625ZM40.7766 30.7766C40.3809 31.1725 39.7239 31.1601 39.3405 30.7766C38.9438 30.3799 38.9438 29.7372 39.3405 29.3405L47.7631 20.918H44.5742C44.0133 20.918 43.5586 20.4637 43.5586 19.9023C43.5586 19.341 44.0133 18.8867 44.5742 18.8867H50.2148C50.7673 18.8867 51.2305 19.3583 51.2305 19.9023V25.543C51.2305 26.1043 50.7758 26.5586 50.2148 26.5586C49.654 26.5586 49.1992 26.1043 49.1992 25.543V22.3541L40.7766 30.7766Z" fill="#202020"/>
</svg>
