<svg width="40" height="40" viewBox="0 0 40 40" fill="none" xmlns="http://www.w3.org/2000/svg">
<path d="M33.1646 4C34.7281 4 36 5.2719 36 6.83544V33.1646C36 34.7281 34.7281 36 33.1646 36H20.6581C20.2107 36 19.848 35.6376 19.848 35.1899C19.848 34.7421 20.2107 34.3797 20.6581 34.3797H33.1646C33.8344 34.3797 34.3797 33.835 34.3797 33.1646V6.83544C34.3797 6.16498 33.8344 5.62025 33.1646 5.62025H6.83544C6.16555 5.62025 5.62025 6.16498 5.62025 6.83544V19.3414C5.62025 19.7891 5.25756 20.1515 4.81013 20.1515C4.36277 20.1515 4 19.7891 4 19.3414V6.83544C4 5.2719 5.2719 4 6.83544 4H33.1646ZM14.9367 22.2278C16.5003 22.2278 17.7722 23.4997 17.7722 25.0633V33.1646C17.7722 34.7281 16.5003 36 14.9367 36H6.83544C5.2719 36 4 34.7281 4 33.1646V25.0633C4 23.4997 5.2719 22.2278 6.83544 22.2278H14.9367ZM16.1519 33.1646V25.0633C16.1519 24.3928 15.6066 23.8481 14.9367 23.8481H6.83544C6.16555 23.8481 5.62025 24.3928 5.62025 25.0633V33.1646C5.62025 33.835 6.16555 34.3797 6.83544 34.3797H14.9367C15.6066 34.3797 16.1519 33.835 16.1519 33.1646ZM20.5728 20.5728C20.2571 20.8885 19.7331 20.8787 19.4272 20.5728C19.1108 20.2563 19.1108 19.7437 19.4272 19.4272L26.1456 12.7089H23.6019C23.1545 12.7089 22.7918 12.3465 22.7918 11.8987C22.7918 11.451 23.1545 11.0886 23.6019 11.0886H28.1013C28.542 11.0886 28.9114 11.4647 28.9114 11.8987V16.3981C28.9114 16.8458 28.5487 17.2082 28.1013 17.2082C27.6539 17.2082 27.2911 16.8458 27.2911 16.3981V13.8544L20.5728 20.5728Z" fill="#06CEAF"/>
</svg>
