<svg width="32" height="32" viewBox="0 0 32 32" fill="none" xmlns="http://www.w3.org/2000/svg">
<path d="M15.9367 13.2279C17.5003 13.2279 18.7722 14.4998 18.7722 16.0633V29.1646C18.7722 30.7281 17.5003 32 15.9367 32H2.83544C1.2719 32 0 30.7281 0 29.1646V16.0633C0 14.4998 1.2719 13.2279 2.83544 13.2279H15.9367ZM17.1519 29.1646V16.0633C17.1519 15.3929 16.6066 14.8481 15.9367 14.8481H2.83544C2.16555 14.8481 1.62025 15.3929 1.62025 16.0633V29.1646C1.62025 29.8351 2.16555 30.3798 2.83544 30.3798H15.9367C16.6066 30.3798 17.1519 29.8351 17.1519 29.1646ZM21.5728 11.5728C21.2571 11.8886 20.7331 11.8787 20.4272 11.5728C20.1108 11.2564 20.1108 10.7437 20.4272 10.4273L28.7342 2.12221H26.1906C25.7431 2.12221 25.3804 1.75984 25.3804 1.31208C25.3804 0.864323 25.7431 0.501953 26.1906 0.501953H30.6899C31.1306 0.501953 31.5 0.878095 31.5 1.31208V5.8114C31.5 6.25915 31.1373 6.62153 30.6899 6.62153C30.2425 6.62153 29.8797 6.25915 29.8797 5.8114V3.26773L21.5728 11.5728Z" fill="#06CEAF"/>
</svg>
