<svg width="45" height="55" viewBox="0 0 45 55" fill="none" xmlns="http://www.w3.org/2000/svg">
<path d="M22.5791 0.870909C22.6016 0.870909 22.6132 0.870624 22.6357 0.859375C22.7369 0.859375 22.8602 0.93851 22.9839 0.983505C23.1076 1.0285 23.2202 1.07336 23.3327 1.1296C26.5835 2.52442 34.0303 5.94379 39.0922 8.23849C40.262 8.74468 41.4317 9.25126 42.5903 9.76869L44.3227 10.5332C44.4014 10.5557 44.4916 10.5896 44.5704 10.6233C44.5591 11.5907 44.5591 12.5466 44.5479 13.514C44.5591 15.8537 44.5813 17.676 44.5588 20.0044V24.8301C44.5363 27.2823 44.2213 29.7119 43.6251 32.0741C41.7354 40.9492 35.3348 48.7557 26.9434 52.6252C26.3698 52.8839 25.7963 53.1319 25.2001 53.3568C24.4915 53.6268 23.7714 53.9413 23.0515 54.0538C22.9052 54.0763 22.7591 54.0879 22.6016 54.0879H22.5681C22.4107 54.0879 22.2642 54.0763 22.1068 54.0538C21.3981 53.9413 20.6671 53.6268 19.9697 53.3568C19.3735 53.1319 18.7885 52.8839 18.2148 52.6252C9.82339 48.7557 3.43441 40.9492 1.54466 32.0741C0.948483 29.7119 0.63315 27.2823 0.599405 24.8301V20.0044C0.576908 17.676 0.59969 15.8537 0.610939 13.514C0.610939 12.5466 0.599405 11.5907 0.599405 10.6233C0.678145 10.5896 0.757126 10.5557 0.847115 10.5332L2.5679 9.76869C3.73775 9.25126 4.90745 8.74468 6.06605 8.23849C11.1391 5.94379 18.5747 2.52442 21.8256 1.1296C21.9493 1.07336 22.0618 1.0285 22.1743 0.983505C22.2981 0.93851 22.4216 0.859375 22.5341 0.859375C22.5453 0.870624 22.5679 0.870909 22.5791 0.870909ZM22.5791 2.96299H22.5456C22.3319 2.97423 22.1291 3.0078 21.9266 3.06405C21.8929 3.0753 21.8593 3.08685 21.8256 3.0981C21.1844 3.36807 20.5545 3.63772 19.9246 3.90769C19.7784 3.97518 19.6435 4.04287 19.4973 4.11036C16.6852 5.39269 13.8615 6.62986 11.0268 7.8672C8.91211 8.82333 6.78624 9.79077 4.67151 10.7469C2.69177 11.6243 2.43325 11.9843 2.34326 13.0416C2.34326 13.3454 2.34326 13.6491 2.34326 13.9528L2.35425 14.7514C2.35425 17.991 2.35453 21.1632 2.36578 24.4028C2.38828 25.3477 2.43312 26.2813 2.48936 27.2149C2.50061 27.3837 2.5119 27.5526 2.5344 27.7213C2.55689 27.9463 2.57946 28.1708 2.60195 28.3733C3.43435 35.1562 6.88759 41.7819 11.8145 46.4275C13.693 48.1261 15.7401 49.5993 17.9111 50.6117C19.3959 51.2979 21.0381 52.1304 22.5791 52.1754C24.1202 52.1304 25.7624 51.2979 27.2472 50.6117C29.4294 49.5993 31.4433 48.1261 33.3218 46.4275C38.2487 41.7819 41.7354 35.1562 42.5678 28.3733C42.5903 28.1708 42.6129 27.9463 42.6354 27.7213C42.6466 27.5526 42.6576 27.3837 42.6689 27.2149C42.7251 26.2813 42.7703 25.3477 42.804 24.4028C42.8152 21.1632 42.8155 17.991 42.8155 14.7514V13.9528C42.8155 13.6491 42.8155 13.3454 42.8155 13.0416C42.7368 11.9843 42.478 11.6243 40.4983 10.7469C38.3723 9.79077 36.2577 8.82333 34.1429 7.8672C31.3083 6.62986 28.4736 5.39269 25.6615 4.11036C25.5265 4.04287 25.3801 3.97518 25.2452 3.90769C24.6152 3.63772 23.9741 3.36807 23.3442 3.0981C23.3105 3.08685 23.2764 3.0753 23.2426 3.06405C23.0401 3.0078 22.8269 2.97423 22.6132 2.96299H22.5791Z" fill="#06CEAF"/>
<path d="M40.4195 12.9334C34.6117 10.3501 28.7993 7.76684 22.9824 5.18357C22.8559 5.12996 22.7196 5.10155 22.582 5.09961V27.3803H40.7877C40.8438 26.6783 40.8736 25.9679 40.8781 25.2491V13.6244C40.9129 13.3144 40.7186 13.0219 40.4195 12.9334Z" fill="#06CEAF"/>
<path d="M4.62177 29.3958C5.27469 33.4826 6.9099 37.3504 9.38791 40.6653C12.4084 44.8967 16.7477 48.0115 21.723 49.5195C22.0007 49.6086 22.2901 49.6564 22.582 49.6616V27.3809H4.38281C4.43448 28.0267 4.49906 28.7306 4.62177 29.3958Z" fill="#06CEAF"/>
</svg>
