<svg width="80" height="60" viewBox="0 0 80 60" fill="none" xmlns="http://www.w3.org/2000/svg">
<rect width="80" height="60" rx="30" fill="#08DBBA"/>
<path d="M54.2912 43.5054C56.0823 43.5054 57.5385 44.9617 57.5385 46.7527C57.5385 48.543 56.0823 50 54.2912 50C52.5202 50 51.0768 48.575 51.0455 46.812C51.0431 46.6742 50.9534 46.5525 50.8228 46.5092L46.8723 45.1915C46.5182 45.0738 46.2803 44.743 46.2803 44.3705V35.9543C46.2803 35.7749 46.1345 35.6291 45.9543 35.6291H41.1907C41.0113 35.6291 40.8655 35.7749 40.8655 35.9543V43.3845C40.8655 43.5222 40.952 43.6456 41.0818 43.6912C42.3417 44.1382 43.2469 45.3413 43.2469 46.7527C43.2469 48.543 41.7907 50 39.9996 50C38.2093 50 36.7523 48.543 36.7523 46.7527C36.7523 45.3413 37.6574 44.1382 38.9174 43.6912C39.0472 43.6456 39.1345 43.5222 39.1345 43.3845V35.9543C39.1345 35.7749 38.9887 35.6291 38.8085 35.6291H34.0449C33.8655 35.6291 33.7197 35.7749 33.7197 35.9543V44.3705C33.7197 44.743 33.481 45.0738 33.1277 45.1915L29.1764 46.5092C29.0458 46.5525 28.9569 46.6742 28.9545 46.812C28.9224 48.575 27.479 50 25.708 50C23.9177 50 22.4607 48.543 22.4607 46.7527C22.4607 44.9617 23.9177 43.5054 25.708 43.5054C26.7477 43.5054 27.6737 43.9964 28.2688 44.759C28.3529 44.8671 28.4971 44.9104 28.6277 44.8671L31.766 43.821C31.899 43.777 31.9887 43.6528 31.9887 43.5126V35.9543C31.9887 35.7749 31.8429 35.6291 31.6635 35.6291H26.8991C23.1319 35.6291 20 32.5748 20 28.8093C20 25.4058 22.552 22.6143 25.7625 22.0816C25.9219 22.0552 26.038 21.9158 26.0348 21.7548C26.034 21.7244 26.034 21.6939 26.034 21.6635C26.034 18.57 27.2387 15.6495 29.4271 13.4387C31.6218 11.2215 34.5311 10 37.6182 10C40.1542 10 42.5644 10.8314 44.5878 12.4046C46.2114 13.6662 47.4938 15.3628 48.278 17.2636C48.3389 17.4101 48.4967 17.4918 48.6513 17.4566C49.3217 17.3036 50.0138 17.2251 50.7187 17.2251C55.8019 17.2251 60 21.3503 60 26.4271C60 28.879 59.026 31.1899 57.2581 32.9353C55.4983 34.6719 53.1754 35.6291 50.7187 35.6291H48.3365C48.1571 35.6291 48.0113 35.7749 48.0113 35.9543V43.5126C48.0113 43.6528 48.101 43.777 48.2332 43.821L51.3715 44.8671C51.5021 44.9104 51.6463 44.8671 51.7312 44.759C52.3263 43.9964 53.2523 43.5054 54.2912 43.5054ZM25.708 48.269C26.5442 48.269 27.2251 47.589 27.2251 46.7527C27.2251 45.9165 26.5442 45.2364 25.708 45.2364C24.8725 45.2364 24.1917 45.9165 24.1917 46.7527C24.1917 47.589 24.8725 48.269 25.708 48.269ZM39.9996 48.269C40.8359 48.269 41.5159 47.589 41.5159 46.7527C41.5159 45.9165 40.8359 45.2364 39.9996 45.2364C39.1633 45.2364 38.4833 45.9165 38.4833 46.7527C38.4833 47.589 39.1633 48.269 39.9996 48.269ZM54.2912 48.269C55.1275 48.269 55.8075 47.589 55.8075 46.7527C55.8075 45.9165 55.1275 45.2364 54.2912 45.2364C53.455 45.2364 52.7749 45.9165 52.7749 46.7527C52.7749 47.589 53.455 48.269 54.2912 48.269ZM30.498 25.2104C27.2812 21.9935 21.731 24.3845 21.731 28.8093C21.731 31.5664 24.0964 33.8981 26.8991 33.8981H50.7187C54.8831 33.8981 58.269 30.5459 58.269 26.4271C58.269 22.3083 54.8831 18.9561 50.7187 18.9561C49.2392 18.9561 48.3045 19.4407 47.9656 19.4888C47.9392 19.492 47.9128 19.4992 47.8879 19.5096C46.9812 19.8804 46.1489 20.4307 45.4352 21.1444C45.0972 21.4825 44.5493 21.4825 44.2113 21.1444C43.8733 20.8064 43.8733 20.2585 44.2113 19.9205C44.8922 19.2396 45.6603 18.6797 46.4902 18.2488C46.6416 18.1711 46.7064 17.9901 46.6408 17.8339C45.102 14.1901 41.5343 11.731 37.6182 11.731C32.1858 11.731 27.765 16.1862 27.765 21.6635C27.765 21.7003 27.7674 21.7396 27.769 21.778C27.7754 21.9318 27.8883 22.06 28.0397 22.0848C29.4279 22.3171 30.7071 22.9715 31.722 23.9864C32.06 24.3244 32.06 24.8723 31.722 25.2104C31.3839 25.5484 30.8361 25.5484 30.498 25.2104Z" fill="#202020"/>
</svg>
