<svg width="80" height="60" viewBox="0 0 80 60" fill="none" xmlns="http://www.w3.org/2000/svg">
<rect width="80" height="60" rx="30" fill="#08DBBA"/>
<path d="M53.2674 39.332H44.0673C43.6621 39.332 43.334 38.9914 43.334 38.5709C43.334 38.151 43.6621 37.8097 44.0673 37.8097H53.2674C53.6719 37.8097 54.0007 38.151 54.0007 38.5709C54.0007 38.9914 53.6725 39.332 53.2674 39.332ZM53.2674 34.0935H44.0673C43.6621 34.0935 43.334 33.7529 43.334 33.3324C43.334 32.9125 43.6621 32.5712 44.0673 32.5712H53.2674C53.6719 32.5712 54.0007 32.9125 54.0007 33.3324C54.0007 33.7529 53.6725 34.0935 53.2674 34.0935ZM53.2674 28.8544H44.0673C43.6621 28.8544 43.334 28.5138 43.334 28.0932C43.334 27.6733 43.6621 27.332 44.0673 27.332H53.2674C53.6719 27.332 54.0007 27.6733 54.0007 28.0932C54.0007 28.5138 53.6725 28.8544 53.2674 28.8544Z" fill="#202020"/>
<path d="M55.2394 23.3333H20.7599C20.3403 23.3333 20 23.035 20 22.6667C20 22.2983 20.3403 22 20.7599 22H55.2394C55.6597 22 56 22.2983 56 22.6667C56 23.035 55.6597 23.3333 55.2394 23.3333Z" fill="#202020"/>
<path d="M32.666 20C31.5635 20 30.666 19.1032 30.666 18C30.666 16.8975 31.5635 16 32.666 16C33.7693 16 34.666 16.8975 34.666 18C34.666 19.1032 33.7693 20 32.666 20ZM32.666 17.0918C32.1654 17.0918 31.7578 17.4994 31.7578 18C31.7578 18.5013 32.1654 18.909 32.666 18.909C33.1673 18.909 33.575 18.5013 33.575 18C33.575 17.4994 33.1673 17.0918 32.666 17.0918Z" fill="#202020"/>
<path d="M27.334 20C26.2307 20 25.334 19.1032 25.334 18C25.334 16.8975 26.2307 16 27.334 16C28.4365 16 29.334 16.8975 29.334 18C29.334 19.1032 28.4365 20 27.334 20ZM27.334 17.0918C26.8327 17.0918 26.425 17.4994 26.425 18C26.425 18.5013 26.8327 18.909 27.334 18.909C27.8346 18.909 28.2422 18.5013 28.2422 18C28.2422 17.4994 27.8346 17.0918 27.334 17.0918Z" fill="#202020"/>
<path d="M38 20C36.8968 20 36 19.1032 36 18C36 16.8975 36.8968 16 38 16C39.1025 16 40 16.8975 40 18C40 19.1032 39.1025 20 38 20ZM38 17.0918C37.4987 17.0918 37.091 17.4994 37.091 18C37.091 18.5013 37.4987 18.909 38 18.909C38.5006 18.909 38.9082 18.5013 38.9082 18C38.9082 17.4994 38.5006 17.0918 38 17.0918Z" fill="#202020"/>
<path d="M38.559 39.9993H26.109C25.6808 39.9993 25.334 39.6711 25.334 39.2659V27.3995C25.334 26.9949 25.6808 26.666 26.109 26.666H38.559C38.9872 26.666 39.334 26.9949 39.334 27.3995V39.2659C39.334 39.6711 38.9872 39.9993 38.559 39.9993ZM37.784 28.2605C37.7833 28.2014 37.7153 28.1343 37.6521 28.133C35.8579 28.1117 27.0187 28.133 27.0187 28.133C26.8439 28.133 26.8839 28.2579 26.8839 28.2579V38.4082C26.8839 38.4766 26.9429 38.5324 27.0159 38.5324H37.6521C37.7251 38.5324 37.784 38.4766 37.784 38.4082C37.784 38.4082 37.8058 29.9733 37.784 28.2605Z" fill="#202020"/>
<path d="M55.1191 46.666H24.8802C22.1892 46.666 20 44.4811 20 41.7954V17.5374C20 14.8516 22.1892 12.666 24.8802 12.666H55.1191C57.8101 12.666 60 14.8516 60 17.5374V41.7954C60 44.4811 57.8101 46.666 55.1191 46.666ZM24.8802 14.1788C23.0246 14.1788 21.5151 15.6854 21.5151 17.5374V41.7954C21.5151 43.6466 23.0246 45.1532 24.8802 45.1532H55.1191C56.9747 45.1532 58.4842 43.6466 58.4842 41.7954V17.5374C58.4842 15.6854 56.9747 14.1788 55.1191 14.1788H24.8802Z" fill="#202020"/>
</svg>
