<svg width="76" height="56" viewBox="0 0 76 56" fill="none" xmlns="http://www.w3.org/2000/svg">
<rect width="76" height="56" rx="28" fill="#08DBBA"/>
<path d="M52.2031 18.5279V28.6146L52.2978 28.731C53.6826 30.432 54.4436 32.5572 54.4531 34.7506C54.4466 40.0708 50.0708 44.4466 44.7506 44.4531C42.5572 44.4436 40.432 43.6826 38.731 42.2978L38.6146 42.2031H26.4354C23.7548 42.2001 21.5499 39.9952 21.5469 37.3146C21.5469 37.2244 21.5469 18.6179 21.5469 18.5279C21.5499 15.8473 23.7548 13.6424 26.4354 13.6394H27.8156V12.25C27.8156 11.8643 28.133 11.5469 28.5187 11.5469C28.9044 11.5469 29.2218 11.8643 29.2218 12.25V13.6394H44.5291V12.25C44.5291 11.8643 44.8465 11.5469 45.2322 11.5469C45.6179 11.5469 45.9353 11.8643 45.9353 12.25V13.6394H47.3146C49.9952 13.6424 52.2001 15.8473 52.2031 18.5279ZM44.75 43.0469H44.7503C49.2997 43.0414 53.0414 39.2997 53.0469 34.7505V34.7503C53.0469 30.1985 49.3015 26.4531 44.75 26.4531C40.1985 26.4531 36.4531 30.1985 36.4531 34.75C36.4531 39.3015 40.1985 43.0469 44.75 43.0469ZM22.9531 21.3105V37.3153C22.9555 39.2244 24.5256 40.7945 26.4345 40.7969H37.2195L36.6894 40.14C35.6186 38.5432 35.0467 36.6634 35.0467 34.7408C35.0467 29.4227 39.4227 25.0467 44.7408 25.0467C46.6634 25.0467 48.5432 25.6186 50.14 26.6894L50.7969 27.1491V21.3105H22.9531ZM27.8147 15.0456H26.4347C24.5255 15.0479 22.9554 16.618 22.9531 18.527V19.9043H50.7969V18.5272C50.7946 16.618 49.2245 15.0479 47.3155 15.0456H45.9335V16.4275C45.9335 16.8133 45.6161 17.1307 45.2304 17.1307C44.8446 17.1307 44.5273 16.8133 44.5273 16.4275V15.0456H29.2209V16.4275C29.2209 16.8133 28.9035 17.1307 28.5178 17.1307C28.1321 17.1307 27.8147 16.8133 27.8147 16.4275V15.0456Z" fill="black"/>
<path d="M45.4531 30.25V34.459L47.4941 36.4999C47.6193 36.6307 47.6893 36.805 47.6893 36.9861C47.6893 37.3719 47.3719 37.6893 46.9861 37.6893C46.8059 37.6893 46.6324 37.6199 46.5018 37.4958C46.4999 37.4941 44.2528 35.247 44.2528 35.247C44.1209 35.1153 44.0468 34.9364 44.0469 34.7501V30.25C44.0469 29.8643 44.3643 29.5469 44.75 29.5469C45.1357 29.5469 45.4531 29.8643 45.4531 30.25Z" fill="black"/>
</svg>
