<svg width="76" height="56" viewBox="0 0 76 56" fill="none" xmlns="http://www.w3.org/2000/svg">
<rect width="76" height="56" rx="28" fill="#08DBBA"/>
<path d="M49.0932 18.7754L49.2765 18.5931C49.2765 18.0137 48.8001 17.5398 48.2175 17.5398H41.6326V19.9492C41.6326 20.3261 41.3226 20.6343 40.9437 20.6343H30.6636C30.2847 20.6343 29.9748 20.3261 29.9748 19.9492V17.5398H23.3898C22.8073 17.5398 22.3308 18.0137 22.3308 18.5931V36.4416C22.3308 37.0209 22.8073 37.4948 23.3898 37.4948H36.3487C36.3487 37.4948 37 37.5385 37 38.172C37 38.5489 36.6901 38.8572 36.3111 38.8572H23.3898C22.0494 38.8572 20.9531 37.7668 20.9531 36.4336V18.5931C20.9531 17.2519 22.0413 16.1695 23.3898 16.1695H29.9748V15.4725C29.9748 13.6529 31.4567 12.1797 33.2854 12.1797H38.3228C40.1521 12.1797 41.6333 13.6536 41.6333 15.4725V16.1695H48.2183C49.5668 16.1695 50.655 17.2519 50.655 18.5931V25.3148C50.655 25.6917 50.3451 26 49.9661 26C49.5872 26 49.2773 25.6917 49.2773 25.3148L49.2765 18.5931L49.0923 18.7772L49.0932 18.7754ZM31.3525 19.264H40.2556V17.5398H31.3525V19.264ZM31.3525 16.1695H40.2556V15.4725C40.2556 14.4149 39.386 13.55 38.3228 13.55H33.2854C32.2221 13.55 31.3525 14.4149 31.3525 15.4725V16.1695Z" fill="black"/>
<path d="M45.5247 29.4512C45.9037 29.4512 46.2136 29.7594 46.2136 30.1363V33.7972H48.1465C48.5254 33.7972 48.8353 34.1055 48.8353 34.4824C48.8353 34.8593 48.5254 35.1676 48.1465 35.1676H45.5247C45.1458 35.1676 44.8359 34.8593 44.8359 34.4824V30.1363C44.8359 29.7594 45.1458 29.4512 45.5247 29.4512Z" fill="black"/>
<path fill-rule="evenodd" clip-rule="evenodd" d="M45.424 24.0801C39.782 24.0801 35.2031 28.6376 35.2031 34.2492C35.2031 39.8608 39.782 44.4184 45.424 44.4184C51.0659 44.4184 55.6448 39.8608 55.6448 34.2492C55.6448 28.6376 51.0659 24.0801 45.424 24.0801ZM45.424 25.2754C50.4044 25.2754 54.4495 29.2955 54.4495 34.2492C54.4495 39.2029 50.4044 43.2231 45.424 43.2231C40.4435 43.2231 36.3985 39.2029 36.3985 34.2492C36.3985 29.2955 40.4435 25.2754 45.424 25.2754Z" fill="#070707"/>
</svg>
