<svg width="80" height="60" viewBox="0 0 80 60" fill="none" xmlns="http://www.w3.org/2000/svg">
<rect width="80" height="60" rx="30" fill="#08DBBA"/>
<path d="M35.7619 35.5575H25.0248C24.6579 35.5575 24.3613 35.2602 24.3613 34.894C24.3613 34.5277 24.6579 34.2305 25.0248 34.2305H35.7619C36.1288 34.2305 36.4254 34.5277 36.4254 34.894C36.4254 35.2602 36.1282 35.5575 35.7619 35.5575Z" fill="#202020"/>
<path d="M35.7619 24.9422H25.0248C24.6579 24.9422 24.3613 24.645 24.3613 24.2787C24.3613 23.9125 24.6579 23.6152 25.0248 23.6152H35.7619C36.1288 23.6152 36.4254 23.9125 36.4254 24.2787C36.4254 24.645 36.1282 24.9422 35.7619 24.9422Z" fill="#202020"/>
<path d="M34.5656 30.2508H20.6635C20.2966 30.2508 20 29.9536 20 29.5873C20 29.2211 20.2966 28.9238 20.6635 28.9238H34.5656C34.9325 28.9238 35.2291 29.2211 35.2291 29.5873C35.2291 29.9536 34.9325 30.2508 34.5656 30.2508Z" fill="#202020"/>
<path d="M43.4113 32.8191C41.7647 32.8191 40.0938 31.7114 40.0938 29.5883C40.0938 27.4651 41.7647 26.3574 43.4113 26.3574C45.0579 26.3574 46.7288 27.4651 46.7288 29.5883C46.7288 31.7114 45.0579 32.8191 43.4113 32.8191ZM43.4113 27.6844C42.8619 27.6844 42.2602 27.869 41.8645 28.3121C41.5984 28.6104 41.4208 29.0258 41.4208 29.5883C41.4208 30.1507 41.5984 30.5662 41.8645 30.8644C42.2602 31.3075 42.8619 31.4921 43.4113 31.4921C43.9607 31.4921 44.5624 31.3075 44.958 30.8644C45.2242 30.5662 45.4018 30.1507 45.4018 29.5883C45.4018 29.0258 45.2242 28.6104 44.958 28.3121C44.5624 27.869 43.9607 27.6844 43.4113 27.6844Z" fill="#202020"/>
<path d="M45.2887 28.3748C45.1188 28.3748 44.949 28.3097 44.8196 28.1804C44.5601 27.9209 44.5601 27.5016 44.8196 27.2422L49.8242 22.2375C50.0836 21.9781 50.503 21.9781 50.7624 22.2375C51.0218 22.497 51.0218 22.9163 50.7624 23.1757L45.7578 28.1804C45.6284 28.3097 45.4585 28.3748 45.2887 28.3748Z" fill="#202020"/>
<path d="M40.2867 33.3798C40.1169 33.3798 39.947 33.3148 39.8176 33.1854L39.8174 33.1851C39.5581 32.9265 39.5583 32.5066 39.8176 32.2472L41.0686 30.9954C41.328 30.7359 41.7473 30.7359 42.0068 30.9954L42.007 30.9956C42.2663 31.2542 42.2661 31.6741 42.0068 31.9336L40.7558 33.1854C40.6265 33.3148 40.4566 33.3798 40.2867 33.3798Z" fill="#202020"/>
<path d="M43.4135 46.1744C43.0466 46.1744 42.75 45.8772 42.75 45.5109V42.8569C42.75 42.4906 43.0466 42.1934 43.4135 42.1934C43.7804 42.1934 44.077 42.4906 44.077 42.8569V45.5109C44.077 45.8772 43.7804 46.1744 43.4135 46.1744Z" fill="#202020"/>
<path d="M54.6729 41.5111C54.5031 41.5111 54.3332 41.4461 54.2038 41.3167L52.3274 39.4394C52.0681 39.18 52.0679 38.7601 52.3272 38.5014L52.3274 38.5012C52.5868 38.2418 53.0062 38.2418 53.2656 38.5012L55.142 40.3785C55.4013 40.6378 55.4016 41.0577 55.1423 41.3164C55.0121 41.4459 54.8422 41.5111 54.6729 41.5111Z" fill="#202020"/>
<path d="M52.7946 20.8685C52.6247 20.8685 52.4548 20.8035 52.3255 20.6741L52.3252 20.6739C52.0659 20.4152 52.0661 19.9953 52.3255 19.7359L54.2019 17.8586C54.4613 17.5992 54.8806 17.5992 55.1401 17.8586L55.1403 17.8589C55.3996 18.1175 55.3994 18.5374 55.1401 18.7968L53.2637 20.6741C53.1343 20.8035 52.9644 20.8685 52.7946 20.8685Z" fill="#202020"/>
<path d="M43.4135 16.981C43.0466 16.981 42.75 16.6838 42.75 16.3175V13.6635C42.75 13.2973 43.0466 13 43.4135 13C43.7804 13 44.077 13.2973 44.077 13.6635V16.3175C44.077 16.6838 43.7804 16.981 43.4135 16.981Z" fill="#202020"/>
<path d="M59.3371 30.2508H56.683C56.3161 30.2508 56.0195 29.9536 56.0195 29.5873C56.0195 29.2211 56.3161 28.9238 56.683 28.9238H59.3371C59.704 28.9238 60.0006 29.2211 60.0006 29.5873C60.0006 29.9536 59.704 30.2508 59.3371 30.2508Z" fill="#202020"/>
<path d="M37.0326 19.6356H30.3315C29.9646 19.6356 29.668 19.3384 29.668 18.9721C29.668 18.6058 29.9646 18.3086 30.3315 18.3086H37.0326C37.3996 18.3086 37.6962 18.6058 37.6962 18.9721C37.6962 19.3384 37.3996 19.6356 37.0326 19.6356Z" fill="#202020"/>
<path d="M37.0326 40.868H30.3315C29.9646 40.868 29.668 40.5708 29.668 40.2045C29.668 39.8383 29.9646 39.541 30.3315 39.541H37.0326C37.3996 39.541 37.6962 39.8383 37.6962 40.2045C37.6962 40.5708 37.3996 40.868 37.0326 40.868Z" fill="#202020"/>
<path d="M43.3572 46.1584C40.7986 46.1584 38.2138 45.5692 35.8131 44.3322C35.4873 44.1643 35.3592 43.7642 35.5271 43.4385C35.695 43.1127 36.0956 42.9845 36.4206 43.1524L36.4209 43.1525C43.4623 46.781 52.2337 44.3498 56.39 37.6181C60.5579 30.8665 58.8133 21.9266 52.4191 17.2649C47.7881 13.8896 41.508 13.4014 36.4209 16.0217L36.4206 16.0218C36.0956 16.1897 35.695 16.0623 35.5272 15.7358L35.5271 15.7357C35.3592 15.4099 35.4865 15.0098 35.813 14.8421L35.8131 14.842C41.3421 11.9923 48.1658 12.5223 53.2007 16.1918C60.1518 21.2589 62.0486 30.9767 57.5184 38.3145V38.3146C54.4182 43.3382 48.9534 46.1584 43.3572 46.1584Z" fill="#202020"/>
</svg>
