<svg width="80" height="60" viewBox="0 0 80 60" fill="none" xmlns="http://www.w3.org/2000/svg">
<rect width="80" height="60" rx="30" fill="#08DBBA"/>
<path fill-rule="evenodd" clip-rule="evenodd" d="M53.4221 47.2356H53.1095C52.6298 47.2356 52.2411 47.6242 52.2411 48.1039C52.2411 48.5823 52.6298 48.9709 53.1095 48.9709H53.4221C56.5003 48.9709 59 46.4711 59 43.393V42.4285C59 41.9488 58.6115 41.5602 58.1318 41.5602C57.6533 41.5602 57.2647 41.9488 57.2647 42.4285V43.3829L58.1318 44.26L57.2647 43.393C57.2647 45.5143 55.5421 47.2356 53.4221 47.2356ZM21 25.2619V43.393C21 46.4711 23.4997 48.9709 26.5779 48.9709H44.4318C44.9115 48.9709 45.3001 48.5823 45.3001 48.1039C45.3001 47.6242 44.9115 47.2356 44.4318 47.2356H40.8677V34.6963C40.8677 31.6169 38.3678 29.1184 35.2897 29.1184H22.7353V25.2619C22.7353 24.7834 22.3467 24.3936 21.8683 24.3936C21.3886 24.3936 21 24.7834 21 25.2619ZM22.7353 30.8537V43.393C22.7353 45.5143 24.4579 47.2356 26.5779 47.2356H39.1323V34.6963C39.1323 32.575 37.4097 30.8537 35.2897 30.8537H22.7353ZM59 33.7509V25.0745C59 24.5948 58.6115 24.2063 58.1318 24.2063C57.6533 24.2063 57.2647 24.5948 57.2647 25.0745V33.7509C57.2647 34.2306 57.6533 34.6192 58.1318 34.6192C58.6115 34.6192 59 34.2306 59 33.7509ZM41.8397 27.5351L49.9908 19.384H46.7746C46.3139 19.384 45.9406 19.0106 45.9406 18.5499C45.9406 18.0905 46.3139 17.7171 46.7746 17.7171H52.002C52.4614 17.7171 52.8348 18.0905 52.8348 18.5499V23.7772C52.8348 24.238 52.4614 24.6113 52.002 24.6113C51.5413 24.6113 51.1691 24.238 51.1691 23.7772V20.5623L43.018 28.7134C42.6928 29.0387 42.165 29.0387 41.8397 28.7134C41.6764 28.5514 41.5954 28.3362 41.5954 28.1236C41.5954 27.911 41.6764 27.6971 41.8397 27.5351ZM21.2417 17.1855C21.1038 17.0425 21.0152 16.8501 21.0012 16.6387L21 16.5842C21 16.6032 21 16.621 21.0012 16.6387C21.0139 16.8918 21.1139 17.0665 21.2417 17.1855C21.3999 17.35 21.6215 17.4525 21.8683 17.4525C22.3467 17.4525 22.7353 17.0639 22.7353 16.5842V16.5779C22.7353 14.4579 24.4579 12.7353 26.5779 12.7353H27.8487C28.3284 12.7353 28.7169 12.3467 28.7169 11.8683C28.7169 11.3886 28.3284 11 27.8487 11H26.5779C23.4997 11 21 13.4997 21 16.5779L21.8683 17.4462C21.8683 17.4462 21.4987 17.426 21.2417 17.1855ZM59 16.5779C59 13.682 56.7876 11.2987 53.9626 11.0266C53.4854 10.9797 53.0613 11.3291 53.0158 11.8063C52.9689 12.2834 53.3196 12.7074 53.7955 12.753C55.7421 12.9416 57.2647 14.5832 57.2647 16.5779C57.2647 17.0576 57.6533 17.4462 58.1318 17.4462C58.6115 17.4462 59 17.0576 59 16.5779ZM45.2026 11H36.5263C36.0466 11 35.658 11.3886 35.658 11.8683C35.658 12.3467 36.0466 12.7353 36.5263 12.7353H45.2026C45.6823 12.7353 46.0709 12.3467 46.0709 11.8683C46.0709 11.3886 45.6823 11 45.2026 11Z" fill="#202020"/>
</svg>
