<svg width="80" height="60" viewBox="0 0 80 60" fill="none" xmlns="http://www.w3.org/2000/svg">
<rect width="80" height="60" rx="30" fill="#08DBBA"/>
<path fill-rule="evenodd" clip-rule="evenodd" d="M59.2307 40.568C59.2307 40.568 45.4893 13.9827 45.4813 13.968C44.4253 12.1347 42.4627 11 40.3453 11C38.208 11 36.2307 12.156 35.1827 14.0187L20.7867 40.54C20.784 40.544 20.7813 40.5494 20.7787 40.5547C20.268 41.448 20 42.46 20 43.4907C20 46.7413 22.6747 49.416 25.9253 49.416H54.0747C57.3253 49.416 60 46.7413 60 43.4907C60 42.476 59.7387 41.4773 59.2427 40.592C59.2387 40.584 59.2347 40.576 59.2307 40.568ZM57.8027 45.648C58.5787 44.3227 58.5853 42.6787 57.82 41.348L57.4347 40.6027C55.212 36.2987 44.0933 14.7653 44.0933 14.7653C44.0853 14.7507 44.0773 14.736 44.0693 14.7227C43.2893 13.4187 41.8773 12.6187 40.3587 12.6187C38.8107 12.6187 37.376 13.4507 36.6067 14.7947C36.604 14.8 36.6013 14.8053 36.5987 14.8107L22.2053 41.3107L22.008 41.6947C21.7533 42.2547 21.62 42.864 21.62 43.4827C21.62 45.8493 23.5667 47.7987 25.9333 47.804H54.0653C55.604 47.8107 57.036 46.9867 57.8027 45.648ZM39.9973 39.004C39.5533 39.004 39.192 39.3653 39.192 39.8107C39.192 40.256 39.5533 40.6173 39.9973 40.6173C40.4427 40.6173 40.804 40.256 40.804 39.8107C40.804 39.3653 40.4427 39.004 39.9973 39.004ZM39.9973 23.0053C39.556 23.0053 39.192 23.3693 39.192 23.812V35.0107C39.192 35.4533 39.556 35.8173 39.9973 35.8173C40.44 35.8173 40.804 35.4533 40.804 35.0107V23.812C40.804 23.3693 40.44 23.0053 39.9973 23.0053Z" fill="#202020"/>
</svg>
