<svg width="80" height="60" viewBox="0 0 80 60" fill="none" xmlns="http://www.w3.org/2000/svg">
<rect width="80" height="60" rx="30" fill="#08DBBA"/>
<path fill-rule="evenodd" clip-rule="evenodd" d="M39.4992 41.7859C39.4992 43.682 37.9598 45.2195 36.0605 45.2195C34.1612 45.2195 32.6212 43.682 32.6212 41.7859C32.6212 39.8891 34.1612 38.3516 36.0605 38.3516C37.9598 38.3516 39.4992 39.8891 39.4992 41.7859ZM53.6997 41.7859C53.6997 43.682 52.1597 45.2195 50.2604 45.2195C48.3612 45.2195 46.8218 43.682 46.8218 41.7859C46.8218 39.8891 48.3612 38.3516 50.2604 38.3516C52.1597 38.3516 53.6997 39.8891 53.6997 41.7859ZM33.9429 41.7859C33.9429 42.9535 34.891 43.9003 36.0605 43.9003C37.23 43.9003 38.1781 42.9535 38.1781 41.7859C38.1781 40.6182 37.23 39.6714 36.0605 39.6714C34.891 39.6714 33.9429 40.6182 33.9429 41.7859ZM48.1429 41.7859C48.1429 42.9535 49.0909 43.9003 50.2604 43.9003C51.43 43.9003 52.378 42.9535 52.378 41.7859C52.378 40.6182 51.43 39.6714 50.2604 39.6714C49.0909 39.6714 48.1429 40.6182 48.1429 41.7859ZM58.9042 18.0072C59.3532 18.0072 59.672 18.4457 59.5323 18.8723L54.2842 34.9011C54.1956 35.1724 53.9417 35.3558 53.6561 35.3558H33.8993C33.603 35.3558 33.3429 35.1587 33.2631 34.873L28.2283 16.834C28.1684 16.6194 27.99 16.4591 27.7704 16.4223L21.1345 15.3108H21.1339C20.774 15.2509 20.5308 14.911 20.5913 14.5517C20.6511 14.1918 20.9911 13.9492 21.351 14.0091L28.7603 15.2422C29.0129 15.2846 29.2188 15.4692 29.288 15.7156L34.3976 34.0247L53.1833 34.0366L54.5661 29.807H39.2016C38.8367 29.807 38.5411 29.512 38.5411 29.1477C38.5411 28.7835 38.8367 28.4878 39.2016 28.4878H54.9977L56.1784 24.8752H38.2211C37.8562 24.8752 37.5606 24.5801 37.5606 24.2159C37.5606 23.851 37.8562 23.556 38.2211 23.556H56.6101L57.9941 19.322L36.9861 19.327C36.6212 19.327 36.3256 19.0314 36.3256 18.6671C36.3256 18.3029 36.6212 18.0072 36.9861 18.0072H58.9042Z" fill="#202020"/>
</svg>
