<svg width="80" height="60" viewBox="0 0 80 60" fill="none" xmlns="http://www.w3.org/2000/svg">
<rect width="80" height="60" rx="30" fill="#08DBBA"/>
<path d="M54.9032 50H25.0961C22.286 50 20 47.6864 20 44.8425V15.1582C20 12.3143 22.286 10 25.0961 10H54.9032C57.7133 10 60 12.3143 60 15.1582V44.8425C60 47.6864 57.7133 50 54.9032 50ZM25.0961 11.6019C23.1584 11.6019 21.5821 13.1972 21.5821 15.1582V44.8425C21.5821 46.8028 23.1584 48.3981 25.0961 48.3981H54.9032C56.8409 48.3981 58.4172 46.8028 58.4172 44.8425V15.1582C58.4172 13.1972 56.8409 11.6019 54.9032 11.6019H25.0961Z" fill="#202020"/>
<path d="M35.7749 28.144C34.5829 28.144 33.6509 27.812 32.9789 27.148C32.3069 26.484 31.9709 25.536 31.9709 24.304V19.6H33.9149V24.232C33.9149 25.032 34.0789 25.608 34.4069 25.96C34.7349 26.312 35.1949 26.488 35.7869 26.488C36.3789 26.488 36.8389 26.312 37.1669 25.96C37.4949 25.608 37.6589 25.032 37.6589 24.232V19.6H39.5789V24.304C39.5789 25.536 39.2429 26.484 38.5709 27.148C37.8989 27.812 36.9669 28.144 35.7749 28.144ZM40.4227 28L44.0347 23.02V24.436L40.5787 19.6H42.7867L45.1747 22.972L44.2507 22.984L46.6027 19.6H48.7147L45.2827 24.352V22.96L48.9187 28H46.6747L44.2027 24.436H45.0907L42.6547 28H40.4227ZM30.5571 41.2L34.5171 29.896H36.1851L32.2251 41.2H30.5571ZM40.3803 40.144C39.1883 40.144 38.2563 39.812 37.5843 39.148C36.9123 38.484 36.5763 37.536 36.5763 36.304V31.6H38.5203V36.232C38.5203 37.032 38.6843 37.608 39.0123 37.96C39.3403 38.312 39.8003 38.488 40.3923 38.488C40.9843 38.488 41.4443 38.312 41.7723 37.96C42.1003 37.608 42.2643 37.032 42.2643 36.232V31.6H44.1843V36.304C44.1843 37.536 43.8483 38.484 43.1763 39.148C42.5043 39.812 41.5723 40.144 40.3803 40.144ZM46.1054 40V31.6H48.0494V40H46.1054Z" fill="#202020"/>
</svg>
