<svg width="80" height="60" viewBox="0 0 80 60" fill="none" xmlns="http://www.w3.org/2000/svg">
<rect width="80" height="60" rx="30" fill="#08DBBA"/>
<path d="M40.7832 10.6334C40.7996 10.6334 40.808 10.6332 40.8244 10.625C40.898 10.625 40.9876 10.6826 41.0776 10.7153C41.1676 10.748 41.2495 10.7806 41.3313 10.8215C43.6955 11.8359 49.1114 14.3228 52.7927 15.9916C53.6435 16.3598 54.4942 16.7282 55.3368 17.1045L56.5967 17.6605C56.654 17.6769 56.7196 17.7015 56.7769 17.726C56.7687 18.4296 56.7687 19.1248 56.7605 19.8284C56.7687 21.53 56.7848 22.8553 56.7685 24.5487V28.0583C56.7521 29.8417 56.523 31.6087 56.0894 33.3266C54.715 39.7812 50.0601 45.4587 43.9573 48.2729C43.54 48.4611 43.123 48.6413 42.6894 48.805C42.174 49.0013 41.6503 49.2301 41.1267 49.3119C41.0204 49.3282 40.9141 49.3366 40.7996 49.3366H40.7752C40.6607 49.3366 40.5542 49.3282 40.4397 49.3119C39.9243 49.2301 39.3926 49.0013 38.8854 48.805C38.4518 48.6413 38.0264 48.4611 37.6092 48.2729C31.5063 45.4587 26.8598 39.7812 25.4854 33.3266C25.0518 31.6087 24.8225 29.8417 24.798 28.0583V24.5487C24.7816 22.8553 24.7982 21.53 24.8064 19.8284C24.8064 19.1248 24.798 18.4296 24.798 17.726C24.8552 17.7015 24.9127 17.6769 24.9781 17.6605L26.2296 17.1045C27.0804 16.7282 27.9311 16.3598 28.7737 15.9916C32.4632 14.3228 37.8709 11.8359 40.2352 10.8215C40.3252 10.7806 40.407 10.748 40.4888 10.7153C40.5788 10.6826 40.6687 10.625 40.7505 10.625C40.7586 10.6332 40.775 10.6334 40.7832 10.6334ZM40.7832 12.1549H40.7589C40.6034 12.1631 40.4559 12.1875 40.3087 12.2284C40.2841 12.2366 40.2597 12.245 40.2352 12.2532C39.7689 12.4495 39.3108 12.6456 38.8527 12.842C38.7463 12.891 38.6482 12.9403 38.5419 12.9894C36.4967 13.922 34.4431 14.8217 32.3816 15.7216C30.8436 16.417 29.2975 17.1206 27.7595 17.8159C26.3197 18.454 26.1317 18.7158 26.0662 19.4848C26.0662 19.7057 26.0662 19.9266 26.0662 20.1475L26.0742 20.7283C26.0742 23.0844 26.0744 25.3914 26.0826 27.7475C26.099 28.4347 26.1316 29.1137 26.1725 29.7927C26.1807 29.9154 26.1889 30.0383 26.2052 30.161C26.2216 30.3246 26.238 30.4879 26.2544 30.6351C26.8597 35.5681 29.3712 40.3868 32.9544 43.7655C34.3206 45.0008 35.8094 46.0722 37.3883 46.8085C38.4681 47.3075 39.6625 47.913 40.7832 47.9457C41.904 47.913 43.0983 47.3075 44.1782 46.8085C45.7652 46.0722 47.2299 45.0008 48.5961 43.7655C52.1793 40.3868 54.7151 35.5681 55.3205 30.6351C55.3368 30.4879 55.3532 30.3246 55.3696 30.161C55.3778 30.0383 55.3858 29.9154 55.394 29.7927C55.4349 29.1137 55.4677 28.4347 55.4922 27.7475C55.5004 25.3914 55.5006 23.0844 55.5006 20.7283V20.1475C55.5006 19.9266 55.5006 19.7057 55.5006 19.4848C55.4433 18.7158 55.2551 18.454 53.8153 17.8159C52.2692 17.1206 50.7313 16.417 49.1933 15.7216C47.1317 14.8217 45.0701 13.922 43.0249 12.9894C42.9268 12.9403 42.8203 12.891 42.7222 12.842C42.264 12.6456 41.7978 12.4495 41.3397 12.2532C41.3151 12.245 41.2903 12.2366 41.2658 12.2284C41.1185 12.1875 40.9634 12.1631 40.808 12.1549H40.7832Z" fill="#202020"/>
<path d="M53.7579 19.4063C49.534 17.5275 45.3068 15.6488 41.0764 13.77C40.9843 13.7311 40.8852 13.7104 40.7852 13.709V29.9132H54.0256C54.0665 29.4026 54.0881 28.886 54.0914 28.3632V19.9088C54.1167 19.6834 53.9754 19.4706 53.7579 19.4063Z" fill="#202020"/>
<path d="M27.7226 31.3795C28.1975 34.3517 29.3867 37.1646 31.1889 39.5755C33.3856 42.6529 36.5414 44.9182 40.1599 46.0149C40.3619 46.0797 40.5723 46.1145 40.7846 46.1182V29.9141H27.5488C27.5864 30.3837 27.6334 30.8957 27.7226 31.3795Z" fill="#202020"/>
</svg>
