<svg width="80" height="60" viewBox="0 0 80 60" fill="none" xmlns="http://www.w3.org/2000/svg">
<rect width="80" height="60" rx="30" fill="#08DBBA"/>
<path d="M40.5905 31.8632C40.5905 31.557 40.8387 31.3088 41.1437 31.3088H46.022C46.3281 31.3088 46.5764 31.557 46.5764 31.8632C46.5764 32.1693 46.3281 32.4175 46.022 32.4175H41.1437C40.8387 32.4175 40.5905 32.1693 40.5905 31.8632ZM35.8269 32.4175H38.6851C38.9912 32.4175 39.2395 32.1693 39.2395 31.8632C39.2395 31.557 38.9912 31.3088 38.6851 31.3088H35.8269C35.5207 31.3088 35.2725 31.557 35.2725 31.8632C35.2725 32.1693 35.5207 32.4175 35.8269 32.4175ZM57.5717 39.8124V46.5642C57.5717 47.355 56.9287 47.9992 56.1367 47.9992H49.3849C48.5942 47.9992 47.9499 47.355 47.9499 46.5642V43.7427H26.6389C24.3705 43.7427 22.5254 41.8963 22.5254 39.628V35.4235C22.5254 33.1552 24.3705 31.3088 26.6389 31.3088H31.5527C31.8257 29.2048 33.6271 27.5747 35.8045 27.5747H46.0457C48.2218 27.5747 50.0244 29.2048 50.2963 31.3088H53.1911C54.8483 31.3088 56.197 29.96 56.197 28.3028V22.8832C56.197 21.2248 54.8483 19.8773 53.1911 19.8773H36.094V20.1645C36.094 20.4376 36.094 18.2082 36.094 18.4801V18.7685H53.1911C55.4594 18.7685 57.3058 20.6137 57.3058 22.8832V28.3028C57.3058 30.5712 55.4594 32.4175 53.1911 32.4175H50.2963C50.0244 34.5216 48.2217 36.1516 46.0444 36.1516H35.8045C33.6271 36.1516 31.8257 34.5216 31.5527 32.4175H26.6389C24.9816 32.4175 23.633 33.7651 23.633 35.4235V39.628C23.633 41.2852 24.9816 42.6339 26.6389 42.6339H47.9499V39.8124C47.9499 39.0204 48.5942 38.3774 49.3849 38.3774H56.1367C56.9287 38.3774 57.5717 39.0204 57.5717 39.8124ZM32.6235 31.8632C32.6235 33.6173 34.0503 35.044 35.8045 35.044H46.0444C47.7986 35.044 49.2253 33.6173 49.2253 31.8632C49.2253 30.109 47.7986 28.6823 46.0444 28.6823H35.8045C34.0503 28.6823 32.6235 30.109 32.6235 31.8632ZM56.4641 39.8124C56.4641 39.6351 56.314 39.485 56.1367 39.485H49.3849C49.2076 39.485 49.0575 39.6351 49.0575 39.8124V46.5642C49.0575 46.7415 49.2076 46.8916 49.3849 46.8916H56.1367C56.314 46.8916 56.4641 46.7415 56.4641 46.5642V39.8124ZM54.905 41.4519C54.6675 41.2592 54.3188 41.2959 54.1261 41.5346L52.4015 43.6658L51.3565 42.6221C51.1402 42.4058 50.7891 42.4058 50.5728 42.6221C50.3565 42.8384 50.3565 43.1895 50.5728 43.4058L52.0528 44.8857C52.1568 44.9898 52.2987 45.0476 52.4452 45.0476C52.4547 45.0476 52.4641 45.0477 52.4736 45.0465C52.6308 45.0382 52.7773 44.9637 52.8754 44.8419L54.9878 42.2308C55.1805 41.9932 55.1426 41.6446 54.905 41.4519Z" fill="#202020"/>
<path fill-rule="evenodd" clip-rule="evenodd" d="M27.645 13.9013L27.7591 13.8658L27.8433 12.7155C27.8717 12.3121 28.2124 12 28.6379 12H29.9998C30.397 12 30.7372 12.3118 30.7656 12.7149L30.8797 13.8658L30.9927 13.9013C31.3332 14.0054 31.6448 14.1407 31.9568 14.3044L32.071 14.3612L32.9498 13.6114C33.2334 13.3489 33.7166 13.3668 34.0003 13.6536L34.9644 14.6253C35.2481 14.9121 35.2769 15.3702 34.9932 15.6783L34.2552 16.558L34.3117 16.6644C34.4819 16.9728 34.596 17.2971 34.7095 17.6352L34.7372 17.7501L35.9008 17.8423C36.298 17.8749 36.61 18.212 36.61 18.6171V19.9918C36.61 20.3969 36.298 20.734 35.9008 20.7666L34.7372 20.8576L34.7095 20.9723C34.596 21.3115 34.4819 21.6361 34.3117 21.9445L34.2552 22.0508L34.9932 22.9291C35.2769 23.2384 35.2481 23.6965 34.9644 23.9822L34.0003 24.9553C33.7166 25.2409 33.2334 25.2591 32.9498 24.9972L32.071 24.2483L31.9568 24.3045C31.6448 24.467 31.3332 24.6023 30.9927 24.7065L30.8797 24.7419L30.7656 25.8937C30.7372 26.2968 30.397 26.6077 29.9998 26.6077H28.6379C28.2124 26.6077 27.8717 26.2968 27.8433 25.8937L27.7591 24.7419L27.645 24.7065C27.3046 24.6023 26.9929 24.467 26.6809 24.3045L26.5667 24.2483L25.688 24.9975C25.3759 25.2594 24.9222 25.2409 24.6385 24.955L23.6733 23.9822C23.3613 23.6962 23.3615 23.2384 23.6168 22.9294L24.3548 22.0506L24.326 21.9442C24.1558 21.6361 24.014 21.3118 23.9005 20.9728L23.8717 20.8576L22.7092 20.7666C22.3121 20.734 22 20.3972 22 19.9918V18.6171C22 18.212 22.3121 17.8749 22.7092 17.8423L23.8717 17.7498L23.9005 17.6352C24.014 17.2971 24.1558 16.9731 24.326 16.665L24.3548 16.5583L23.6168 15.6783C23.3615 15.3702 23.3613 14.9121 23.6733 14.6255L24.6385 13.6539C24.9222 13.3671 25.3759 13.3487 25.688 13.6114L26.5667 14.3612L26.6809 14.3041C26.9929 14.1404 27.3046 14.0054 27.645 13.9013ZM30.0563 14.1092L29.9433 12.8275H28.6667L28.5814 14.1087C28.553 14.3555 28.3824 14.5626 28.127 14.6224C27.6731 14.739 27.2199 14.922 26.8227 15.1612C26.6241 15.2888 26.3402 15.2661 26.17 15.1061L25.1771 14.2718L24.2695 15.1785L25.1206 16.1561C25.2624 16.3453 25.2906 16.6148 25.1771 16.8273C24.9218 17.2261 24.752 17.663 24.6385 18.1271C24.5818 18.3666 24.3546 18.541 24.1277 18.5609L22.8223 18.6639V19.945L24.1277 20.048C24.3546 20.067 24.5818 20.2423 24.6385 20.4815C24.752 20.9456 24.9218 21.3813 25.1771 21.7813C25.2906 21.993 25.2624 22.2636 25.1206 22.4514L24.2695 23.4304L25.1771 24.3371L26.17 23.503C26.3402 23.3428 26.6241 23.3201 26.8227 23.4469C27.2199 23.686 27.6731 23.8701 28.127 23.9853C28.3824 24.0457 28.553 24.2531 28.5814 24.4991L28.6667 25.7802H29.9433L30.0563 24.4988C30.0847 24.2526 30.2549 24.0457 30.4819 23.9853C30.9641 23.8701 31.3901 23.686 31.7873 23.4466C32.0142 23.3201 32.2691 23.3428 32.4677 23.5028L33.4329 24.3371L34.3405 23.4304L33.5171 22.4514C33.3469 22.2633 33.3188 21.9938 33.4606 21.7811C33.6876 21.3813 33.8868 20.9456 34.0003 20.4815C34.057 20.2426 34.2547 20.067 34.51 20.048L35.7867 19.945V18.6639L34.51 18.5609C34.2547 18.541 34.057 18.3666 34.0003 18.1268C33.8868 17.6633 33.6876 17.2264 33.4606 16.8273C33.3188 16.6151 33.3469 16.3453 33.5171 16.1561L34.3405 15.1785L33.4329 14.2721L32.4677 15.1061C32.2691 15.2661 32.0142 15.2888 31.7873 15.1612C31.3901 14.922 30.9641 14.739 30.4819 14.6224C30.2549 14.5629 30.0847 14.3558 30.0563 14.1092Z" fill="#202020"/>
<path fill-rule="evenodd" clip-rule="evenodd" d="M29.3214 16.5254C30.8533 16.5254 32.1007 17.7711 32.1007 19.3033C32.1007 20.8366 30.8533 22.0812 29.3214 22.0812C27.7895 22.0812 26.541 20.8366 26.541 19.3033C26.541 17.7711 27.7895 16.5254 29.3214 16.5254ZM29.3214 17.3529C28.2434 17.3529 27.3633 18.2267 27.3633 19.3033C27.3633 20.3799 28.2434 21.2536 29.3214 21.2536C30.3994 21.2536 31.2496 20.3799 31.2496 19.3033C31.2496 18.2267 30.3994 17.3529 29.3214 17.3529Z" fill="#202020"/>
</svg>
