<svg width="80" height="60" viewBox="0 0 80 60" fill="none" xmlns="http://www.w3.org/2000/svg">
<rect width="80" height="60" rx="30" fill="#08DBBA"/>
<path d="M58.2971 30.0027V29.9987C58.2865 29.4147 58.7198 29.1266 59.1518 29.1293C59.5838 29.1306 60.0145 29.4213 59.9998 30.0013V30.0066C59.9904 38.7585 54.2825 46.4931 45.928 49.0864C38.6268 51.3517 30.7722 49.237 25.5936 43.8638L24.8563 43.0238L24.887 49.125C24.8883 49.5943 24.5283 49.9863 24.059 49.9997C23.5737 50.013 23.187 49.6157 23.1843 49.1304L23.1376 40.4985C23.135 40.0119 23.5363 39.6372 23.9883 39.6345C24.5923 39.6305 29.7482 39.6025 32.6268 39.5865C33.7642 39.5812 33.7695 41.2851 32.6322 41.2918L25.679 41.3238L26.2389 42.0305C30.9575 47.4211 38.4561 49.621 45.4267 47.4571C53.0812 45.0811 58.2892 38.0145 58.2971 30.0027ZM55.1132 10.8749C55.1119 10.4043 55.4745 10.0136 55.9532 10.0003C56.4292 9.98827 56.8132 10.3856 56.8158 10.8696L56.8638 19.5028C56.8665 19.9881 56.4638 20.3641 56.0118 20.3654L47.3733 20.4134C46.2373 20.4201 46.232 18.7148 47.368 18.7081L54.4079 18.6762L53.7612 17.9709C49.0426 12.5789 41.5454 10.3789 34.5735 12.5429C26.9189 14.9188 21.7123 21.9867 21.703 29.9973V30.0013C21.7243 31.1666 19.971 31.1587 20.0004 29.9987V29.9933C20.0097 21.2428 25.7176 13.5082 34.0722 10.9149C41.3734 8.64825 49.2279 10.763 54.4065 16.1375L55.1439 16.9375L55.1132 10.8749Z" fill="#202020"/>
</svg>
