<svg width="80" height="60" viewBox="0 0 80 60" fill="none" xmlns="http://www.w3.org/2000/svg">
<rect width="80" height="60" rx="30" fill="#08DBBA"/>
<path d="M59.3538 26.5763C59.7415 26.5763 60 26.8955 60 27.2157V32.7692C60 32.9617 59.9349 33.1239 59.8056 33.2364C59.7087 33.3488 59.5477 33.4086 59.3538 33.4086H55.8969L55.8641 33.5656C55.444 35.3943 54.7012 37.1394 53.6996 38.7194L53.6352 38.856L56.0256 41.2412C56.1549 41.3688 56.22 41.4958 56.22 41.688C56.22 41.879 56.1549 42.0059 56.0256 42.1336L52.1484 46.004C51.8899 46.2589 51.502 46.2589 51.2435 46.004L48.8531 43.6189L48.7231 43.7048C47.1399 44.7025 45.3956 45.4502 43.5863 45.8663L43.4247 45.9022V49.3442C43.4247 49.5367 43.3596 49.6989 43.2304 49.8114C43.1334 49.9238 42.9724 49.9836 42.7785 49.9836H37.2215C37.0276 49.9836 36.8653 49.9238 36.7684 49.8114C36.6391 49.6989 36.5753 49.5367 36.5753 49.3442V45.9022L36.4137 45.8663C34.6044 45.4502 32.8589 44.7025 31.2757 43.7048L31.1469 43.6189L28.7565 46.004C28.498 46.2589 28.1101 46.2589 27.8516 46.004L23.9744 42.1336C23.8774 42.0059 23.8128 41.879 23.8128 41.688C23.8128 41.4958 23.8774 41.3688 23.9744 41.2412L26.3648 38.856L26.3004 38.7194C25.2988 37.1394 24.556 35.3947 24.1359 33.5659L24.1031 33.4086H20.6462C20.4523 33.4086 20.2913 33.3488 20.1944 33.2364C20.0651 33.1239 20 32.9617 20 32.7692V27.2157C20 27.0232 20.0651 26.861 20.1944 26.7485C20.2913 26.6361 20.4523 26.5763 20.6462 26.5763H24.0059L24.0387 26.4193C24.4588 24.5905 25.2017 22.8442 26.2033 21.2655L26.3004 21.1292L23.91 18.7424C23.7808 18.6148 23.7156 18.4878 23.7156 18.2969C23.7156 18.105 23.7808 17.9783 23.91 17.8507L27.8516 13.9803C28.1101 13.7247 28.498 13.7247 28.7565 13.9796L31.1469 16.3664L31.2757 16.2801C32.8589 15.2824 34.6044 14.5334 36.4137 14.1186L36.5753 14.083V10.6394C36.5753 10.4468 36.6391 10.2847 36.7684 10.1722C36.8653 10.0598 37.0276 10 37.2215 10H42.7785C42.9724 10 43.1334 10.0598 43.2304 10.1722C43.3596 10.2847 43.4247 10.4468 43.4247 10.6394V14.083L43.5863 14.1186C45.3956 14.5334 47.1399 15.2827 48.7231 16.2801L48.8531 16.3664L51.2435 13.9796C51.502 13.7247 51.8899 13.7247 52.1484 13.9796L56.0256 17.85C56.1549 17.9777 56.22 18.1046 56.22 18.2969C56.22 18.4878 56.1549 18.6148 56.0256 18.7424L53.6352 21.1292L53.6996 21.2655C54.7012 22.8442 55.444 24.5905 55.8641 26.4193L55.8969 26.5763H59.3538ZM55.4122 32.1297H58.7076V27.8551H55.4122C55.0891 27.8551 54.8307 27.6648 54.766 27.3446C54.346 25.2119 53.5696 23.2516 52.2772 21.4603V21.4584C52.0833 21.2015 52.1489 20.8187 52.3428 20.6277L54.6689 18.2969L51.6966 15.3189L49.3693 17.6387C49.1108 17.829 48.7884 17.9088 48.53 17.714C46.8175 16.4342 44.7823 15.5796 42.6498 15.2374C42.3267 15.1719 42.1323 14.914 42.1323 14.5948V11.2788H37.8677V14.5948C37.8677 14.915 37.6733 15.1735 37.3502 15.2381C35.2177 15.6639 33.2471 16.4329 31.47 17.7111V17.7127C31.2116 17.9063 30.8233 17.8403 30.6295 17.6494L28.3034 15.3189L25.3311 18.2969L27.6572 20.6167C27.8511 20.8772 27.9154 21.1977 27.7216 21.4565C26.4292 23.1641 25.5894 25.2125 25.234 27.3475C25.1693 27.6658 24.9114 27.8551 24.6206 27.8551H21.2924V32.1297H24.6206C24.9114 32.1297 25.1693 32.3194 25.234 32.6406C25.6863 34.7714 26.4292 36.7333 27.7216 38.5232V38.5252C27.9154 38.7827 27.8511 39.1659 27.6572 39.3578L25.3311 41.688L28.3034 44.666L30.6295 42.3462C30.888 42.1546 31.2116 42.076 31.47 42.2696C33.1825 43.551 35.2177 44.4053 37.3502 44.7474C37.6733 44.8121 37.8677 45.0699 37.8677 45.3901V48.7048H42.1323V45.3901C42.1323 45.0689 42.3267 44.8104 42.6498 44.7468C44.7823 44.3197 46.7529 43.552 48.53 42.2722V42.2709C48.7884 42.0786 49.1754 42.1436 49.3693 42.3355L51.6966 44.666L54.6689 41.688L52.3428 39.3681C52.1812 39.1074 52.0833 38.7856 52.2772 38.5268C53.5696 36.8195 54.4106 34.7708 54.766 32.637C54.8307 32.3178 55.0891 32.1297 55.4122 32.1297Z" fill="#202020"/>
<path d="M45.4369 26.0113C45.4369 26.0038 45.4369 25.9956 45.4369 25.9866C45.6615 25.6894 46.1109 25.628 46.4853 25.8421C46.4853 25.8428 50.6775 29.3398 50.6775 29.3398C50.6775 29.3451 50.6775 29.3503 50.6775 29.3548C50.9021 29.5004 50.9773 29.7224 50.9773 29.9403C50.9773 30.1686 50.8272 30.3906 50.6775 30.5452C50.6401 30.5474 46.4853 34.05 46.4853 34.05C46.4853 34.0549 46.4473 34.0602 46.4473 34.0654C46.4473 34.0875 46.4095 34.1047 46.3347 34.123C46.2598 34.1612 46.1472 34.1904 46.0349 34.1904C45.8103 34.1904 45.5866 34.0242 45.4369 33.8692C45.1374 33.5761 45.212 33.14 45.5114 32.8443C45.5114 32.8428 48.8058 30.1207 48.8058 30.1207C48.8807 30.0765 48.9184 30.0103 48.9184 29.9403C48.9184 29.8703 48.8807 29.804 48.8058 29.7598L45.5114 27.0302C45.5114 27.028 45.5114 27.0257 45.5114 27.0235C45.212 26.8071 45.1374 26.3006 45.4369 26.0113Z" fill="#202020"/>
<path d="M34.8765 25.9934C35.183 26.2915 35.1064 26.735 34.8765 27.0399L31.5042 29.7765C31.4658 29.8211 31.4278 29.888 31.4278 29.9586C31.4278 30.0293 31.4658 30.0961 31.5042 30.1407L34.9154 32.8955C34.9154 32.8977 34.9154 32.9 34.9154 32.9019C35.2219 33.1214 35.2983 33.6318 34.9917 33.9238C34.9917 33.9347 34.9911 33.9468 34.9528 33.9597C34.7995 34.1807 34.6079 34.2479 34.378 34.2479C34.2247 34.2479 34.0718 34.26 33.9185 34.1202C33.9185 34.1153 33.9185 34.1108 33.9185 34.1062L29.6272 30.5646C29.6272 30.5593 29.6272 30.554 29.6272 30.5495C29.3972 30.4025 29.3203 30.1796 29.3203 29.9586C29.3203 29.8426 29.3209 29.7259 29.3592 29.6288C29.3975 29.565 29.4347 29.5075 29.473 29.4822C29.5113 29.4739 29.5119 29.4637 29.5119 29.4516L33.8032 25.9099C33.8416 25.9058 33.8422 25.9009 33.8422 25.896C34.1487 25.5971 34.6082 25.695 34.8765 25.9934Z" fill="#202020"/>
<path d="M42.4404 25.8525C42.4404 25.8588 42.4769 25.8644 42.4769 25.8689C42.8513 26.0157 42.9633 26.4611 42.7387 26.9017V26.9073L38.8462 33.8152C38.6965 34.0391 38.3967 34.1911 38.1721 34.1911C38.0224 34.1911 37.9475 34.1944 37.7978 34.1241C37.4235 33.8965 37.2734 33.4548 37.498 33.0845C37.498 33.0823 37.498 33.0804 37.498 33.0785L41.392 26.1598C41.6166 25.7881 42.066 25.6293 42.4404 25.8525Z" fill="#202020"/>
</svg>
