<svg width="80" height="60" viewBox="0 0 80 60" fill="none" xmlns="http://www.w3.org/2000/svg">
<rect width="80" height="60" rx="30" fill="#08DBBA"/>
<path fill-rule="evenodd" clip-rule="evenodd" d="M27.042 10.0109C23.3996 10.0354 20.0998 13.1901 20.0183 16.9577C19.9939 23.0381 19.9939 29.1188 20.0183 35.1993C20.0998 38.8606 23.2123 42.1376 26.9362 42.3092L27.6615 42.3176C27.6778 46.2977 30.7335 49.8938 34.7588 49.9755C40.8213 50.0082 46.8836 50.0082 52.9461 49.9755C56.5558 49.9019 59.791 46.8127 59.8643 43.0287C59.8969 36.9564 59.8969 30.8759 59.8643 24.7955C59.791 21.0933 56.6212 17.7589 52.767 17.6771H52.2291C52.2128 13.6889 49.1571 10.1008 45.1318 10.0109C39.1019 9.98638 33.0719 10.0109 27.042 10.0109ZM52.7507 19.328C55.6108 19.4016 58.145 21.837 58.2183 24.8119C58.2672 30.9005 58.3161 36.997 58.2183 43.0774C58.1287 45.8398 55.6923 48.2756 52.9218 48.3246C46.8756 48.3736 40.8292 48.3736 34.7831 48.3246C31.9067 48.2592 29.3562 45.7417 29.3155 42.8404L29.3075 42.3176C34.6366 42.3176 39.9738 42.3421 45.3029 42.3176C48.9615 42.2359 52.2046 39.0564 52.2291 35.2807V19.328C52.4002 19.328 52.5714 19.328 52.7507 19.328ZM45.1075 11.6702C47.9595 11.711 50.5344 14.2609 50.5751 17.154L50.5831 17.6771C45.311 17.6771 40.0309 17.6526 34.7588 17.6771C34.6692 17.6771 34.5797 17.6851 34.4819 17.6851C30.8558 17.8976 27.6778 21.1175 27.6615 24.8933V40.6667C24.614 40.6422 21.7701 38.3131 21.6723 35.2483C21.5827 29.1924 21.5827 23.1363 21.6723 17.0885C21.7619 14.269 24.2227 11.7601 27.0746 11.6702C33.0801 11.5803 39.0939 11.6211 45.1075 11.6702ZM35.7853 40.6583L50.5751 25.8251V20.799C50.5099 20.7744 50.4366 20.7419 50.3714 20.7092L30.6846 40.454L30.7741 40.6583H35.7853ZM43.4205 40.6583L50.5751 33.4829V28.4568C50.5099 28.4323 50.4366 28.3995 50.3714 28.375L38.3277 40.454L38.4177 40.6583H43.4205ZM50.2735 37.0625L49.8092 37.8797C49.3203 38.7052 48.6273 39.3998 47.8043 39.8902L46.9895 40.3563L46.5904 39.8247L49.744 36.6622C49.9232 36.793 50.0943 36.9317 50.2735 37.0625ZM49.206 19.5403L29.5192 39.2772L29.3075 39.1954V34.1693L44.1053 19.328H49.1165C49.141 19.4016 49.1734 19.475 49.206 19.5403ZM41.5629 19.5403L29.5192 31.6193L29.3075 31.5296V26.5114L36.4701 19.328H41.4733C41.5059 19.4016 41.5303 19.475 41.5629 19.5403ZM33.3002 20.1613L30.1466 23.3326L29.6171 22.9319L30.0814 22.1146C30.2932 21.7469 30.326 21.7142 30.4482 21.5508C30.8882 20.9705 31.4507 20.4801 32.0863 20.1042L32.9011 19.6385C33.0315 19.8101 33.1698 19.9896 33.3002 20.1613Z" fill="#202020"/>
</svg>
