<svg width="80" height="60" viewBox="0 0 80 60" fill="none" xmlns="http://www.w3.org/2000/svg">
<rect width="80" height="60" rx="30" fill="#08DBBA"/>
<path d="M40 35C41.3261 35 42.5979 34.4732 43.5355 33.5355C44.4732 32.5979 45 31.3261 45 30C45 28.6739 44.4732 27.4021 43.5355 26.4645C42.5979 25.5268 41.3261 25 40 25C38.6739 25 37.4021 25.5268 36.4645 26.4645C35.5268 27.4021 35 28.6739 35 30C35 31.3261 35.5268 32.5979 36.4645 33.5355C37.4021 34.4732 38.6739 35 40 35Z" stroke="black" stroke-width="1.8" stroke-linecap="round" stroke-linejoin="round"/>
<path d="M52.704 27.3237L50.8756 22.907L53.334 19.9987L50.0007 16.6654L47.109 19.137L42.5973 17.282L41.559 13.332H38.3023L37.249 17.3337L32.8407 19.192L30.0007 16.6654L26.6673 19.9987L29.089 22.9804L27.289 27.4087L23.334 28.332V31.6654L27.3357 32.7587L29.194 37.1654L26.6673 39.9987L30.0007 43.332L32.9857 40.8987L37.329 42.6854L38.334 46.6654H41.6673L42.674 42.687L47.0923 40.857C47.829 41.3854 50.0007 43.332 50.0007 43.332L53.334 39.9987L50.8607 37.082L52.6907 32.662L56.6673 31.6287V28.332L52.704 27.3237Z" stroke="black" stroke-width="1.8" stroke-linecap="round" stroke-linejoin="round"/>
</svg>
