<svg width="55" height="55" viewBox="0 0 55 55" fill="none" xmlns="http://www.w3.org/2000/svg">
<g clip-path="url(#clip0_4837_2821)">
<path d="M27.7211 -0.425582C27.7443 -0.425582 27.7563 -0.425877 27.7796 -0.4375C27.8842 -0.4375 28.0115 -0.355731 28.1394 -0.309239C28.2672 -0.262748 28.3835 -0.216392 28.4997 -0.158278C31.8588 1.28296 39.5534 4.81613 44.7837 7.1872C45.9925 7.71023 47.2012 8.23367 48.3983 8.76833L50.1883 9.55832C50.2696 9.58157 50.3629 9.61653 50.4442 9.65139C50.4326 10.651 50.4326 11.6387 50.421 12.6383C50.4326 15.0558 50.4556 16.9388 50.4323 19.3447V24.331C50.4091 26.8648 50.0835 29.3753 49.4675 31.8161C47.5149 40.9866 40.9014 49.0529 32.2307 53.0512C31.6379 53.3185 31.0453 53.5747 30.4293 53.8071C29.6971 54.0861 28.953 54.4111 28.2092 54.5273C28.0581 54.5506 27.9071 54.5625 27.7444 54.5625H27.7097C27.547 54.5625 27.3958 54.5506 27.233 54.5273C26.5008 54.4111 25.7454 54.0861 25.0248 53.8071C24.4088 53.5747 23.8043 53.3185 23.2115 53.0512C14.5409 49.0529 7.93924 40.9866 5.98659 31.8161C5.37058 29.3753 5.04475 26.8648 5.00988 24.331V19.3447C4.98663 16.9388 5.01017 15.0558 5.0218 12.6383C5.0218 11.6387 5.00988 10.651 5.00988 9.65139C5.09124 9.61653 5.17285 9.58157 5.26583 9.55832L7.04389 8.76833C8.25267 8.23367 9.4613 7.71023 10.6585 7.1872C15.9004 4.81613 23.5834 1.28296 26.9425 -0.158278C27.0703 -0.216392 27.1866 -0.262748 27.3028 -0.309239C27.4307 -0.355731 27.5583 -0.4375 27.6746 -0.4375C27.6862 -0.425877 27.7095 -0.425582 27.7211 -0.425582ZM27.7211 1.73612H27.6865C27.4656 1.74774 27.2561 1.78243 27.0469 1.84055C27.012 1.85217 26.9773 1.86411 26.9425 1.87573C26.2799 2.15468 25.6291 2.43331 24.9783 2.71226C24.8272 2.782 24.6878 2.85194 24.5367 2.92168C21.631 4.24669 18.7133 5.52503 15.7843 6.80355C13.5992 7.7915 11.4026 8.79114 9.21751 9.77909C7.17188 10.6857 6.90475 11.0577 6.81177 12.1502C6.81177 12.464 6.81177 12.7779 6.81177 13.0917L6.82312 13.9169C6.82312 17.2643 6.82342 20.5421 6.83504 23.8895C6.85829 24.8658 6.90462 25.8305 6.96273 26.7952C6.97436 26.9695 6.98602 27.1441 7.00927 27.3185C7.03252 27.5509 7.05583 27.7829 7.07908 27.9921C7.93917 35.0007 11.5073 41.847 16.5982 46.6472C18.5392 48.4023 20.6545 49.9246 22.8977 50.9706C24.4319 51.6796 26.1288 52.5399 27.7211 52.5864C29.3134 52.5399 31.0103 51.6796 32.5445 50.9706C34.7993 49.9246 36.8803 48.4023 38.8213 46.6472C43.9122 41.847 47.5149 35.0007 48.375 27.9921C48.3983 27.7829 48.4216 27.5509 48.4449 27.3185C48.4565 27.1441 48.4678 26.9695 48.4795 26.7952C48.5376 25.8305 48.5842 24.8658 48.6191 23.8895C48.6307 20.5421 48.631 17.2643 48.631 13.9169V13.0917C48.631 12.7779 48.631 12.464 48.631 12.1502C48.5496 11.0577 48.2822 10.6857 46.2366 9.77909C44.0399 8.79114 41.8549 7.7915 39.6698 6.80355C36.7408 5.52503 33.8118 4.24669 30.9061 2.92168C30.7666 2.85194 30.6153 2.782 30.4759 2.71226C29.825 2.43331 29.1625 2.15468 28.5117 1.87573C28.4768 1.86411 28.4415 1.85217 28.4067 1.84055C28.1975 1.78243 27.9771 1.74774 27.7563 1.73612H27.7211Z" fill="#06CEAF"/>
<path d="M26.7024 25.118L19.9795 19.4284C19.2164 18.7826 18.0741 18.8777 17.4283 19.641C16.7826 20.4044 16.8778 21.5467 17.6409 22.1925L22.7309 26.5001L17.6409 30.8076C16.8778 31.4535 16.7827 32.5958 17.4283 33.3591C18.0756 34.1241 19.2182 34.2159 19.9795 33.5716L26.7024 27.8821C27.5577 27.1583 27.5553 25.8398 26.7024 25.118Z" fill="#06CEAF"/>
<path d="M38.0354 30.3789H29.8902C28.8905 30.3789 28.0801 31.1894 28.0801 32.1893C28.0801 33.1892 28.8905 33.9997 29.8902 33.9997H38.0354C39.0351 33.9997 39.8455 33.1892 39.8455 32.1893C39.8455 31.1894 39.0351 30.3789 38.0354 30.3789Z" fill="#06CEAF"/>
</g>
<defs>
<clipPath id="clip0_4837_2821">
<rect width="55" height="55" fill="white"/>
</clipPath>
</defs>
</svg>
