<svg width="55" height="55" viewBox="0 0 55 55" fill="none" xmlns="http://www.w3.org/2000/svg">
<path d="M28.5791 0.870909C28.6016 0.870909 28.6132 0.870624 28.6357 0.859375C28.7369 0.859375 28.8602 0.93851 28.9839 0.983505C29.1076 1.0285 29.2202 1.07336 29.3327 1.1296C32.5835 2.52442 40.0303 5.94379 45.0922 8.23849C46.262 8.74468 47.4317 9.25126 48.5903 9.76869L50.3227 10.5332C50.4014 10.5557 50.4916 10.5896 50.5704 10.6233C50.5591 11.5907 50.5591 12.5466 50.5479 13.514C50.5591 15.8537 50.5813 17.676 50.5588 20.0044V24.8301C50.5363 27.2823 50.2213 29.7119 49.6251 32.0741C47.7354 40.9492 41.3348 48.7557 32.9434 52.6252C32.3698 52.8839 31.7963 53.1319 31.2001 53.3568C30.4915 53.6268 29.7714 53.9413 29.0515 54.0538C28.9052 54.0763 28.7591 54.0879 28.6016 54.0879H28.5681C28.4107 54.0879 28.2642 54.0763 28.1068 54.0538C27.3981 53.9413 26.6671 53.6268 25.9697 53.3568C25.3735 53.1319 24.7885 52.8839 24.2148 52.6252C15.8234 48.7557 9.43441 40.9492 7.54466 32.0741C6.94848 29.7119 6.63315 27.2823 6.5994 24.8301V20.0044C6.57691 17.676 6.59969 15.8537 6.61094 13.514C6.61094 12.5466 6.5994 11.5907 6.5994 10.6233C6.67814 10.5896 6.75713 10.5557 6.84711 10.5332L8.5679 9.76869C9.73775 9.25126 10.9074 8.74468 12.066 8.23849C17.1391 5.94379 24.5747 2.52442 27.8256 1.1296C27.9493 1.07336 28.0618 1.0285 28.1743 0.983505C28.2981 0.93851 28.4216 0.859375 28.5341 0.859375C28.5453 0.870624 28.5679 0.870909 28.5791 0.870909ZM28.5791 2.96299H28.5456C28.3319 2.97423 28.1291 3.0078 27.9266 3.06405C27.8929 3.0753 27.8593 3.08685 27.8256 3.0981C27.1844 3.36807 26.5545 3.63772 25.9246 3.90769C25.7784 3.97518 25.6435 4.04287 25.4973 4.11036C22.6852 5.39269 19.8615 6.62986 17.0268 7.8672C14.9121 8.82333 12.7862 9.79077 10.6715 10.7469C8.69177 11.6243 8.43325 11.9843 8.34326 13.0416C8.34326 13.3454 8.34326 13.6491 8.34326 13.9528L8.35425 14.7514C8.35425 17.991 8.35453 21.1632 8.36578 24.4028C8.38828 25.3477 8.43312 26.2813 8.48936 27.2149C8.50061 27.3837 8.5119 27.5526 8.5344 27.7213C8.55689 27.9463 8.57946 28.1708 8.60195 28.3733C9.43435 35.1562 12.8876 41.7819 17.8145 46.4275C19.693 48.1261 21.7401 49.5993 23.9111 50.6117C25.3959 51.2979 27.0381 52.1304 28.5791 52.1754C30.1202 52.1304 31.7624 51.2979 33.2472 50.6117C35.4294 49.5993 37.4433 48.1261 39.3218 46.4275C44.2487 41.7819 47.7354 35.1562 48.5678 28.3733C48.5903 28.1708 48.6129 27.9463 48.6354 27.7213C48.6466 27.5526 48.6576 27.3837 48.6689 27.2149C48.7251 26.2813 48.7703 25.3477 48.804 24.4028C48.8152 21.1632 48.8155 17.991 48.8155 14.7514V13.9528C48.8155 13.6491 48.8155 13.3454 48.8155 13.0416C48.7368 11.9843 48.478 11.6243 46.4983 10.7469C44.3723 9.79077 42.2577 8.82333 40.1429 7.8672C37.3083 6.62986 34.4736 5.39269 31.6615 4.11036C31.5265 4.04287 31.3801 3.97518 31.2452 3.90769C30.6152 3.63772 29.9741 3.36807 29.3442 3.0981C29.3105 3.08685 29.2764 3.0753 29.2426 3.06405C29.0401 3.0078 28.8269 2.97423 28.6132 2.96299H28.5791Z" fill="#06CEAF"/>
<path d="M46.4195 12.9334C40.6117 10.3501 34.7993 7.76684 28.9824 5.18357C28.8559 5.12996 28.7196 5.10155 28.582 5.09961V27.3803H46.7877C46.8438 26.6783 46.8736 25.9679 46.8781 25.2491V13.6244C46.9129 13.3144 46.7186 13.0219 46.4195 12.9334Z" fill="#06CEAF"/>
<path d="M10.6218 29.3958C11.2747 33.4826 12.9099 37.3504 15.3879 40.6653C18.4084 44.8967 22.7477 48.0115 27.723 49.5195C28.0007 49.6086 28.2901 49.6564 28.582 49.6616V27.3809H10.3828C10.4345 28.0267 10.4991 28.7306 10.6218 29.3958Z" fill="#06CEAF"/>
</svg>
