<svg width="60" height="60" viewBox="0 0 60 60" fill="none" xmlns="http://www.w3.org/2000/svg">
<g id="shuttle 1" clip-path="url(#clip0_4173_1574)">
<path id="Vector" d="M59.4616 4.50488C59.7212 9.26363 59.4721 18.5771 54.8659 27.4824C52.5187 32.0207 48.5365 36.8184 43.9446 40.6486C43.888 40.6958 43.831 40.7417 43.7741 40.7886L43.6207 40.9154L42.9266 49.9005C42.8262 51.2015 42.1444 52.3604 41.056 53.08L31.9889 59.0748C31.5313 59.3773 31.0064 59.5316 30.4778 59.5317C30.1012 59.5317 29.7228 59.4534 29.3652 59.2952C28.5062 58.9152 27.9075 58.134 27.7637 57.2056L26.5436 49.3272L26.0701 49.4131C25.9285 49.4389 25.7869 49.4648 25.6451 49.4885C25.4189 49.5262 25.1916 49.5448 24.9655 49.5448C23.8661 49.5448 22.7932 49.1068 21.9991 48.3127L11.6875 38.0011C10.7301 37.0436 10.29 35.6809 10.5116 34.3552V34.3551C10.5353 34.2133 10.5612 34.0718 10.587 33.9301L10.6729 33.4566L2.7946 32.2365C1.86624 32.0927 1.08519 31.4939 0.705029 30.6348C0.32499 29.7757 0.407373 28.7949 0.925576 28.0112L6.92019 18.9441C7.63972 17.8558 8.79858 17.1738 10.0997 17.0732L19.085 16.3791L19.2117 16.2257C19.2586 16.1689 19.3046 16.112 19.3518 16.0554C23.1819 11.4636 27.9797 7.48156 32.5178 5.13418C41.4228 0.528244 50.7361 0.278634 55.4952 0.538673C57.6394 0.655744 59.3446 2.3607 59.4616 4.50488ZM13.7029 46.2971C14.2063 46.8005 14.2063 47.6168 13.7029 48.1201L2.66909 59.1539C2.41749 59.4057 2.08761 59.5314 1.75772 59.5314C1.42784 59.5314 1.09796 59.4056 0.84624 59.154C0.34292 58.6505 0.34292 57.8343 0.84624 57.3309L11.8799 46.2971C12.3833 45.7938 13.1996 45.7937 13.7029 46.2971ZM11.4004 57.2956L17.1395 51.5566C17.6428 51.0533 18.4589 51.0533 18.9623 51.5566C19.4657 52.06 19.4657 52.8763 18.9624 53.3797L13.2232 59.1187C12.9716 59.3705 12.6416 59.4963 12.3119 59.4963C11.982 59.4963 11.6521 59.3703 11.4004 59.1187C10.8971 58.6153 10.8971 57.7991 11.4004 57.2956ZM39.6341 50.9294C40.0544 50.6516 40.3178 50.204 40.3565 49.7018L40.8781 42.95L40.0705 43.5521C36.6571 45.837 33.0747 47.5434 29.4528 48.6083L29.0589 48.7242L30.3511 57.0669L39.6341 50.9294ZM1.793 48.9773C1.46312 48.9773 1.13323 48.8514 0.881631 48.5997C0.378193 48.0963 0.378193 47.2801 0.881514 46.7766L6.62042 41.0376C7.12386 40.5343 7.94007 40.5342 8.44339 41.0376C8.94683 41.5411 8.94683 42.3573 8.44351 42.8607L2.70437 48.5997C2.45276 48.8516 2.12288 48.9773 1.793 48.9773ZM13.5103 36.178L23.8221 46.4898C24.1935 46.8611 24.7158 47.0294 25.2195 46.9457H25.2197C26.7187 46.6951 28.5146 46.2669 30.5195 45.5488L31.2161 45.2991L14.6979 28.781L14.4482 29.4771C13.8494 31.1465 13.3657 32.9185 13.0545 34.7802C12.9702 35.283 13.1387 35.8063 13.5103 36.178ZM42.2935 38.6687C46.639 35.0438 50.3853 30.5336 52.5761 26.298C56.8961 17.9461 57.1328 9.14738 56.8874 4.64539C56.8423 3.81688 56.1833 3.15793 55.3549 3.11281C50.853 2.86777 42.0542 3.10402 33.7023 7.42402C29.4666 9.61496 24.9563 13.3612 21.3314 17.7069C19.5953 19.7881 17.5908 22.5822 15.9481 25.9374L15.8009 26.2382L33.7609 44.1983L34.0615 44.0517C36.6319 42.7975 39.4207 41.0648 42.2935 38.6687ZM10.2983 19.6438C9.7962 19.6824 9.34866 19.9457 9.07069 20.3661L2.93312 29.6492L11.2757 30.9413L11.3916 30.5475C12.4565 26.9256 14.1628 23.3431 16.4479 19.9297L16.9758 19.1279L10.2983 19.6438ZM41.1 10.6169C36.5282 10.6169 32.8165 14.3286 32.8165 18.9003C32.8165 23.472 36.5282 27.1837 41.1 27.1837C45.6717 27.1837 49.3834 23.472 49.3834 18.9003C49.3834 14.3286 45.6717 10.6169 41.1 10.6169ZM41.1 13.0779C44.3135 13.0779 46.9225 15.6868 46.9225 18.9003C46.9225 22.1138 44.3135 24.7228 41.1 24.7228C37.8864 24.7228 35.2775 22.1138 35.2775 18.9003C35.2775 15.6868 37.8864 13.0779 41.1 13.0779Z" fill="#08DBBA"/>
</g>
<defs>
<clipPath id="clip0_4173_1574">
<rect width="60" height="60" fill="white"/>
</clipPath>
</defs>
</svg>
