<svg width="40" height="13" viewBox="0 0 40 13" fill="none" xmlns="http://www.w3.org/2000/svg">
<path d="M35.1455 1.00232C35.3554 1.02521 35.5749 1.06345 35.7788 1.11183C36.6836 1.32653 37.5472 1.77382 38.2734 2.45767C38.7361 2.89054 39.1039 3.38152 39.3707 3.90252C39.7511 4.62547 39.9769 5.43345 40 6.30048C40.0106 6.65299 39.9798 7.0089 39.9237 7.35903C39.9237 7.35903 39.9219 7.47983 39.7604 8.04727C39.5988 8.61471 39.3285 9.12948 39.0006 9.60361C38.7202 10.0091 38.2555 10.4808 37.9214 10.7476C37.0245 11.4636 35.9119 11.8993 34.6796 11.9299C33.8254 11.9561 33.0034 11.7884 32.2751 11.454C31.7258 11.216 31.2133 10.8791 30.7506 10.4462L30.7407 10.43C30.0916 9.81831 29.6221 9.07409 29.3394 8.28007C29.2439 8.00164 29.167 7.7012 29.1061 7.39059L11.22 7.46184C10.912 10.1215 8.68825 12.2324 5.93486 12.3195L5.92179 12.3164C4.37522 12.3667 2.94469 11.7577 1.92212 10.7343L1.89022 10.6998C0.93202 9.74552 0.324968 8.44414 0.291688 6.99585C0.245664 5.54453 0.779322 4.20374 1.66319 3.20192L1.70081 3.15695C2.66655 2.09378 4.05612 1.40069 5.6027 1.35035L5.61515 1.35331C8.36853 1.26623 10.7118 3.24905 11.1725 5.90263L29.0624 5.81846C29.1004 5.54479 29.1512 5.27398 29.2244 5.02212C29.4397 4.17129 29.8872 3.36243 30.5207 2.67813C31.327 1.83291 32.3434 1.29304 33.4051 1.07379C33.6745 1.00875 34.47 0.929181 35.1455 1.00232ZM5.64717 2.92201C3.49384 2.97646 1.79645 4.7951 1.8509 6.94842C1.9181 9.10477 3.72104 10.8116 5.87437 10.7571C8.04347 10.693 9.74049 8.87456 9.68604 6.72124C9.61884 4.56489 7.81627 2.85784 5.64717 2.92201Z" fill="#08DBBA"/>
</svg>
