<svg width="55" height="55" viewBox="0 0 55 55" fill="none" xmlns="http://www.w3.org/2000/svg">
<g id="siren 1">
<g id="Group">
<g id="Group_2">
<path id="Vector" d="M44.6875 44.6875H43.4042L39.9071 25.0808C39.2561 21.5031 36.1445 18.9062 32.508 18.9062H22.492C18.8549 18.9062 15.7435 21.5032 15.0933 25.0844L11.5958 44.6875H10.3125C8.53553 44.6875 7.08984 46.1332 7.08984 47.9102V52.207C7.08984 52.8002 7.57077 53.2812 8.16406 53.2812H46.8359C47.4291 53.2812 47.9102 52.8002 47.9102 52.207V47.9102C47.9102 46.1332 46.4645 44.6875 44.6875 44.6875ZM17.2078 25.465C17.6718 22.9095 19.8941 21.0547 22.492 21.0547H32.508C35.1056 21.0547 37.3284 22.9096 37.7926 25.4617L41.2219 44.6875H13.7781L17.2078 25.465ZM45.7617 51.1328H9.23828V47.9102C9.23828 47.3178 9.72018 46.8359 10.3125 46.8359C12.7266 46.8359 43.2247 46.8359 44.6875 46.8359C45.2798 46.8359 45.7617 47.3178 45.7617 47.9102V51.1328Z" fill="#06CEAF"/>
</g>
</g>
<g id="Group_3">
<g id="Group_4">
<path id="Vector_2" d="M38.4826 41.2737L36.9067 32.5994C36.8007 32.0154 36.2405 31.6279 35.6578 31.7344C35.074 31.8405 34.6868 32.3996 34.7929 32.9833L36.3688 41.6576C36.4755 42.2459 37.0393 42.6283 37.6176 42.5226C38.2015 42.4166 38.5887 41.8573 38.4826 41.2737Z" fill="#06CEAF"/>
</g>
</g>
<g id="Group_5">
<g id="Group_6">
<path id="Vector_3" d="M53.9258 27.5H44.6875C44.0943 27.5 43.6133 27.981 43.6133 28.5742C43.6133 29.1674 44.0943 29.6484 44.6875 29.6484H53.9258C54.519 29.6484 55 29.1674 55 28.5742C55 27.981 54.519 27.5 53.9258 27.5Z" fill="#06CEAF"/>
</g>
</g>
<g id="Group_7">
<g id="Group_8">
<path id="Vector_4" d="M10.3125 27.5H1.07422C0.480928 27.5 0 27.981 0 28.5742C0 29.1674 0.480928 29.6484 1.07422 29.6484H10.3125C10.9058 29.6484 11.3867 29.1674 11.3867 28.5742C11.3867 27.981 10.9058 27.5 10.3125 27.5Z" fill="#06CEAF"/>
</g>
</g>
<g id="Group_9">
<g id="Group_10">
<path id="Vector_5" d="M46.4908 9.58406C46.0712 9.16469 45.3912 9.16469 44.9715 9.58406L38.8947 15.6609C38.4752 16.0804 38.4752 16.7606 38.8947 17.1802C39.3144 17.5997 39.9943 17.5996 40.414 17.1802L46.4908 11.1033C46.9104 10.6837 46.9104 10.0035 46.4908 9.58406Z" fill="#06CEAF"/>
</g>
</g>
<g id="Group_11">
<g id="Group_12">
<path id="Vector_6" d="M16.106 15.661L10.0292 9.5841C9.6096 9.16473 8.92951 9.16462 8.50992 9.5841C8.09044 10.0036 8.09044 10.6838 8.50992 11.1034L14.5868 17.1802C15.0065 17.5997 15.6865 17.5997 16.106 17.1802C16.5255 16.7607 16.5255 16.0805 16.106 15.661Z" fill="#06CEAF"/>
</g>
</g>
<g id="Group_13">
<g id="Group_14">
<path id="Vector_7" d="M27.5 1.71875C26.9068 1.71875 26.4258 2.19979 26.4258 2.79297V11.3867C26.4258 11.9799 26.9068 12.4609 27.5 12.4609C28.0932 12.4609 28.5742 11.9799 28.5742 11.3867V2.79297C28.5742 2.19979 28.0932 1.71875 27.5 1.71875Z" fill="#06CEAF"/>
</g>
</g>
</g>
</svg>
