<svg width="60" height="52" viewBox="0 0 60 52" fill="none" xmlns="http://www.w3.org/2000/svg">
<path d="M50.8701 8.13739H53.6345C57.1445 8.13739 60.0005 10.9245 60.0005 14.3498V45.2876C60.0005 48.7129 57.1445 51.5 53.6345 51.5H14.1922C10.6822 51.5 7.82617 48.7129 7.82617 45.2876V42.5898H9.80331V45.2876C9.80331 47.6491 11.7723 49.5706 14.1922 49.5706H53.6345C56.0544 49.5706 58.0236 47.6491 58.0236 45.2876V14.3498C58.0236 11.9883 56.0544 10.0666 53.6345 10.0666H50.8701V8.13739Z" fill="#08DBBA"/>
<path d="M45.8085 43.8626H6.36607C2.85603 43.8626 0 41.0755 0 37.6502V6.71239C0 3.28709 2.85603 0.5 6.36607 0.5H45.8085C49.3186 0.5 52.1746 3.28709 52.1746 6.71239V37.6502C52.1746 41.0755 49.3186 43.8626 45.8085 43.8626ZM6.36607 2.42941C3.94612 2.42941 1.97714 4.35086 1.97714 6.71239V37.6502C1.97714 40.0117 3.94612 41.9332 6.36607 41.9332H45.8085C48.2285 41.9332 50.1975 40.0117 50.1975 37.6502V6.71239C50.1975 4.35086 48.2285 2.42941 45.8085 2.42941H6.36607Z" fill="#08DBBA"/>
<path d="M43.6351 37.7374H31.2325C30.6865 37.7374 30.2441 37.3055 30.2441 36.7727C30.2441 36.2403 30.6865 35.8079 31.2325 35.8079H43.6348C44.1806 35.8079 44.6234 36.2403 44.6234 36.7727C44.6234 37.3055 44.1811 37.7371 43.6351 37.7374ZM43.6351 32.3705H31.2325C30.6865 32.3705 30.2441 31.9388 30.2441 31.406C30.2441 30.8734 30.6865 30.4413 31.2325 30.4413H43.6348C44.1806 30.4413 44.6234 30.8734 44.6234 31.406C44.6234 31.9388 44.1811 32.3705 43.6351 32.3705Z" fill="#08DBBA"/>
<path d="M14.2791 16.4129H9.35185C8.80561 16.4129 8.36328 15.9811 8.36328 15.4482C8.36328 14.9159 8.80561 14.4835 9.35185 14.4835H14.2791C14.8246 14.4835 15.2677 14.9159 15.2677 15.4482C15.2677 15.9811 14.8251 16.4127 14.2791 16.4129Z" fill="#08DBBA"/>
<path d="M23.793 16.4129H18.8655C18.3195 16.4129 17.877 15.9811 17.877 15.4482C17.877 14.9159 18.3195 14.4835 18.8655 14.4835H23.7928C24.3385 14.4835 24.7813 14.9159 24.7813 15.4482C24.7813 15.9811 24.339 16.4127 23.793 16.4129Z" fill="#08DBBA"/>
<path d="M33.3084 16.4129H28.3811C27.8349 16.4129 27.3926 15.9811 27.3926 15.4482C27.3926 14.9159 27.8349 14.4835 28.3811 14.4835H33.3084C33.8539 14.4835 34.297 14.9159 34.297 15.4482C34.297 15.9811 33.8544 16.4127 33.3084 16.4129Z" fill="#08DBBA"/>
<path d="M42.8201 16.4129H37.8929C37.3469 16.4129 36.9043 15.9811 36.9043 15.4482C36.9043 14.9159 37.3469 14.4835 37.8929 14.4835H42.8201C43.3656 14.4835 43.8087 14.9159 43.8087 15.4482C43.8087 15.9811 43.3664 16.4127 42.8201 16.4129Z" fill="#08DBBA"/>
<path d="M45.8021 12.8894H0.98857C0.442565 12.8894 0 12.4578 0 11.9247C0 11.3919 0.442565 10.96 0.98857 10.96H45.8021C46.3481 10.96 46.7906 11.3919 46.7906 11.9247C46.7906 12.4578 46.3481 12.8894 45.8021 12.8894Z" fill="#08DBBA"/>
<path d="M14.0933 9.04436C12.797 9.04436 11.7422 8.01548 11.7422 6.75052C11.7422 5.48555 12.797 4.45691 14.0933 4.45691C15.3893 4.45691 16.4436 5.48555 16.4436 6.75052C16.4436 8.01548 15.3893 9.04436 14.0933 9.04436ZM14.0933 5.70876C13.5043 5.70876 13.025 6.17624 13.025 6.75052C13.025 7.3248 13.5043 7.79228 14.0933 7.79228C14.6815 7.79228 15.1608 7.3248 15.1608 6.75052C15.1608 6.17624 14.6815 5.70876 14.0933 5.70876Z" fill="#08DBBA"/>
<path d="M7.14355 9.04436C5.84778 9.04436 4.79297 8.01548 4.79297 6.75052C4.79297 5.48555 5.84778 4.45691 7.14355 4.45691C8.43981 4.45691 9.49438 5.48555 9.49438 6.75052C9.49438 8.01548 8.43981 9.04436 7.14355 9.04436ZM7.14355 5.70876C6.55507 5.70876 6.07602 6.17624 6.07602 6.75052C6.07602 7.3248 6.55507 7.79228 7.14355 7.79228C7.73252 7.79228 8.21156 7.3248 8.21156 6.75052C8.21156 6.17624 7.73252 5.70876 7.14355 5.70876Z" fill="#08DBBA"/>
<path d="M21.0459 9.04436C19.7496 9.04436 18.6953 8.01548 18.6953 6.75052C18.6953 5.48555 19.7496 4.45691 21.0459 4.45691C22.3419 4.45691 23.3967 5.48555 23.3967 6.75052C23.3967 8.01548 22.3419 9.04436 21.0459 9.04436ZM21.0459 5.70876C20.4567 5.70876 19.9781 6.17624 19.9781 6.75052C19.9781 7.3248 20.4574 7.79228 21.0459 7.79228C21.6346 7.79228 22.1139 7.3248 22.1139 6.75052C22.1139 6.17624 21.6346 5.70876 21.0459 5.70876Z" fill="#08DBBA"/>
<path d="M43.6331 26.5855H8.2481C7.70209 26.5855 7.25977 26.1536 7.25977 25.6208V19.0896C7.25977 18.5573 7.70209 18.1249 8.2481 18.1249H43.6331C44.1793 18.1249 44.6217 18.5573 44.6217 19.0896V25.6208C44.6217 26.1536 44.1793 26.5855 43.6331 26.5855ZM42.6448 20.222C42.6438 20.1441 42.5569 20.0553 42.4768 20.0544C40.1881 20.0262 9.40875 20.0544 9.40875 20.0544C9.18555 20.0544 9.23667 20.2181 9.23667 20.2181V24.4921C9.23667 24.5828 9.31203 24.6561 9.40467 24.6561H42.4768C42.5694 24.6561 42.6448 24.5828 42.6448 24.4921C42.6448 24.4921 42.6726 22.4744 42.6448 20.222Z" fill="#08DBBA"/>
<path d="M24.4286 39.01H8.2481C7.70209 39.01 7.25977 38.5783 7.25977 38.0455V30.2414C7.25977 29.7091 7.70209 29.2767 8.2481 29.2767H24.4286C24.9748 29.2767 25.4171 29.7091 25.4171 30.2414V38.0455C25.4171 38.5783 24.9748 39.01 24.4286 39.01ZM23.44 31.3738C23.439 31.2958 23.3522 31.2071 23.2722 31.2061C20.9836 31.178 9.40875 31.2061 9.40875 31.2061C9.18554 31.2061 9.23667 31.3699 9.23667 31.3699V36.9169C9.23667 37.0075 9.31203 37.0808 9.40467 37.0808H23.2722C23.3649 37.0808 23.44 37.0075 23.44 36.9169C23.44 36.9169 23.4681 33.6262 23.44 31.3738Z" fill="#08DBBA"/>
</svg>
