<svg width="43" height="37" viewBox="0 0 43 37" fill="none" xmlns="http://www.w3.org/2000/svg">
<g id="Www">
<g id="Group">
<path id="Vector" d="M37.1308 36.0181H5.15976C2.3146 36.0181 0 33.7035 0 30.8584V5.16048C0 2.31532 2.3146 0 5.15976 0H37.1308C39.976 0 42.2913 2.31532 42.2913 5.16048V30.8584C42.2913 33.7035 39.976 36.0181 37.1308 36.0181ZM5.15976 1.60258C3.1979 1.60258 1.60185 3.19863 1.60185 5.16048V30.8584C1.60185 32.8195 3.1979 34.4156 5.15976 34.4156H37.1308C39.0927 34.4156 40.6887 32.8195 40.6887 30.8584V5.16048C40.6887 3.19863 39.0927 1.60258 37.1308 1.60258H5.15976Z" fill="#07E7C4"/>
<path id="Vector_2" d="M35.3679 28.239H25.3147C24.872 28.239 24.5134 27.8804 24.5134 27.4377C24.5134 26.9957 24.872 26.6364 25.3147 26.6364H35.3679C35.8099 26.6364 36.1692 26.9957 36.1692 27.4377C36.1692 27.8804 35.8106 28.239 35.3679 28.239ZM35.3679 22.7243H25.3147C24.872 22.7243 24.5134 22.3658 24.5134 21.923C24.5134 21.481 24.872 21.1217 25.3147 21.1217H35.3679C35.8099 21.1217 36.1692 21.481 36.1692 21.923C36.1692 22.3658 35.8106 22.7243 35.3679 22.7243ZM35.3679 17.2089H25.3147C24.872 17.2089 24.5134 16.8504 24.5134 16.4076C24.5134 15.9656 24.872 15.6063 25.3147 15.6063H35.3679C35.8099 15.6063 36.1692 15.9656 36.1692 16.4076C36.1692 16.8504 35.8106 17.2089 35.3679 17.2089Z" fill="#07E7C4"/>
<path id="Vector_3" d="M37.1257 10.2912H0.800564C0.358548 10.2912 0 9.93263 0 9.48989C0 9.04715 0.358548 8.6886 0.800564 8.6886H37.1257C37.5685 8.6886 37.927 9.04715 37.927 9.48989C37.927 9.93263 37.5685 10.2912 37.1257 10.2912Z" fill="#07E7C4"/>
<path id="Vector_4" d="M11.4243 7.09698C10.374 7.09698 9.51904 6.24271 9.51904 5.19174C9.51904 4.1415 10.374 3.2865 11.4243 3.2865C12.4753 3.2865 13.3295 4.1415 13.3295 5.19174C13.3295 6.24271 12.4753 7.09698 11.4243 7.09698ZM11.4243 4.32658C10.9474 4.32658 10.5591 4.71489 10.5591 5.19174C10.5591 5.66932 10.9474 6.05763 11.4243 6.05763C11.9019 6.05763 12.2902 5.66932 12.2902 5.19174C12.2902 4.71489 11.9019 4.32658 11.4243 4.32658Z" fill="#07E7C4"/>
<path id="Vector_5" d="M5.7905 7.09698C4.73953 7.09698 3.88525 6.24271 3.88525 5.19174C3.88525 4.1415 4.73953 3.2865 5.7905 3.2865C6.84074 3.2865 7.69574 4.1415 7.69574 5.19174C7.69574 6.24271 6.84074 7.09698 5.7905 7.09698ZM5.7905 4.32658C5.31292 4.32658 4.92461 4.71489 4.92461 5.19174C4.92461 5.66932 5.31292 6.05763 5.7905 6.05763C6.26735 6.05763 6.65566 5.66932 6.65566 5.19174C6.65566 4.71489 6.26735 4.32658 5.7905 4.32658Z" fill="#07E7C4"/>
<path id="Vector_6" d="M17.0586 7.09698C16.0076 7.09698 15.1533 6.24271 15.1533 5.19174C15.1533 4.1415 16.0076 3.2865 17.0586 3.2865C18.1088 3.2865 18.9638 4.1415 18.9638 5.19174C18.9638 6.24271 18.1088 7.09698 17.0586 7.09698ZM17.0586 4.32658C16.581 4.32658 16.1927 4.71489 16.1927 5.19174C16.1927 5.66932 16.581 6.05763 17.0586 6.05763C17.5354 6.05763 17.9237 5.66932 17.9237 5.19174C17.9237 4.71489 17.5354 4.32658 17.0586 4.32658Z" fill="#07E7C4"/>
<path id="Vector_7" d="M19.5582 29.2057H6.68532C6.24258 29.2057 5.88403 28.8472 5.88403 28.4044V15.4408C5.88403 14.9988 6.24258 14.6395 6.68532 14.6395H19.5582C20.001 14.6395 20.3595 14.9988 20.3595 15.4408V28.4044C20.3595 28.8472 20.001 29.2057 19.5582 29.2057ZM18.7569 16.3815C18.7562 16.3169 18.6858 16.2436 18.6205 16.2421C16.7653 16.2189 7.62597 16.2421 7.62597 16.2421C7.44524 16.2421 7.48661 16.3786 7.48661 16.3786V27.4674C7.48661 27.5422 7.54758 27.6032 7.62307 27.6032H18.6205C18.696 27.6032 18.7569 27.5422 18.7569 27.4674C18.7569 27.4674 18.7794 18.2526 18.7569 16.3815Z" fill="#07E7C4"/>
</g>
</g>
</svg>
