<svg width="75" height="55" viewBox="0 0 75 55" fill="none" xmlns="http://www.w3.org/2000/svg">
<rect width="75" height="55" rx="27.5" fill="#F3FEFC"/>
<rect width="75" height="55" rx="27.5" fill="black" fill-opacity="0.06"/>
<path d="M24.375 33.3333V21.6667C24.375 19.7328 25.1432 17.8781 26.5107 16.5107C27.8781 15.1432 29.7328 14.375 31.6667 14.375H43.3333C45.2672 14.375 47.1219 15.1432 48.4893 16.5107C49.8568 17.8781 50.625 19.7328 50.625 21.6667V33.3333C50.625 35.2672 49.8568 37.1219 48.4893 38.4893C47.1219 39.8568 45.2672 40.625 43.3333 40.625H31.6667C29.7328 40.625 27.8781 39.8568 26.5107 38.4893C25.1432 37.1219 24.375 35.2672 24.375 33.3333Z" stroke="black" stroke-width="2"/>
<path d="M44.0625 31.1465C44.0625 31.1465 41.875 34.0632 37.5 34.0632C33.125 34.0632 30.9375 31.1465 30.9375 31.1465" stroke="black" stroke-width="2" stroke-linecap="round" stroke-linejoin="round"/>
<path d="M32.3952 24.5833C32.2018 24.5833 32.0163 24.5065 31.8796 24.3698C31.7428 24.233 31.666 24.0476 31.666 23.8542C31.666 23.6608 31.7428 23.4753 31.8796 23.3386C32.0163 23.2018 32.2018 23.125 32.3952 23.125C32.5886 23.125 32.774 23.2018 32.9108 23.3386C33.0475 23.4753 33.1243 23.6608 33.1243 23.8542C33.1243 24.0476 33.0475 24.233 32.9108 24.3698C32.774 24.5065 32.5886 24.5833 32.3952 24.5833Z" fill="black" stroke="black" stroke-width="2" stroke-linecap="round" stroke-linejoin="round"/>
<path d="M41 24H45" stroke="black" stroke-width="2" stroke-linecap="round"/>
</svg>
