<svg width="55" height="55" viewBox="0 0 55 55" fill="none" xmlns="http://www.w3.org/2000/svg">
<g id="stability (1) 1">
<path id="Vector" d="M54.17 33C54.6284 33 55 33.3663 55 33.8182C55 34.27 54.6284 34.6364 54.17 34.6364H28.966L38.1714 49.7609C38.5029 50.3054 38.1042 51 37.4598 51H17.5402C16.896 51 16.497 50.3056 16.8286 49.7608L26.034 34.6364H0.82998C0.37161 34.6364 0 34.27 0 33.8182C0 33.3663 0.37161 33 0.82998 33H54.17ZM27.5 35.4085L19.0062 49.3636H35.9938L27.5 35.4085Z" fill="#06CEAF"/>
<path id="Vector_2" d="M9 23C4.03745 23 0 18.9627 0 14C0 9.03745 4.03735 5 9 5C13.9627 5 18 9.03745 18 14C18 18.9627 13.9627 23 9 23ZM9 6.63636C4.93964 6.63636 1.63636 9.93964 1.63636 14C1.63636 18.0604 4.93964 21.3636 9 21.3636C13.0604 21.3636 16.3636 18.0604 16.3636 14C16.3636 9.93964 13.0604 6.63636 9 6.63636Z" fill="#06CEAF"/>
<path id="Vector_3" d="M46 23C41.0375 23 37 18.9627 37 14C37 9.03745 41.0375 5 46 5C50.9627 5 55 9.03745 55 14C55 18.9627 50.9627 23 46 23ZM46 6.63636C41.9397 6.63636 38.6364 9.93964 38.6364 14C38.6364 18.0604 41.9397 21.3636 46 21.3636C50.0604 21.3636 53.3636 18.0604 53.3636 14C53.3636 9.93964 50.0604 6.63636 46 6.63636Z" fill="#06CEAF"/>
</g>
</svg>
