<svg width="230" height="50" viewBox="0 0 230 50" fill="none" xmlns="http://www.w3.org/2000/svg">
<rect width="70" height="50" rx="25" fill="#F3FEFC"/>
<rect width="70" height="50" rx="25" fill="black" fill-opacity="0.06"/>
<path d="M34.4475 11.293C26.4675 11.293 20 17.763 20 25.7405C20 27.313 20.2512 28.828 20.7175 30.2367L20.72 30.228C20.8845 29.4678 21.106 28.7211 21.3825 27.9942L21.3963 27.9567C21.5025 27.6792 21.62 27.4042 21.7425 27.1317L21.8475 26.9055C21.9475 26.6917 22.0538 26.4805 22.1637 26.2717C22.2088 26.1867 22.2513 26.1017 22.2987 26.018C22.3238 25.9705 22.3537 25.9267 22.3788 25.8805C22.4962 25.673 22.6163 25.4655 22.7413 25.2642L22.835 25.1217C22.9912 24.878 23.155 24.6392 23.3263 24.4055L23.37 24.343C23.55 24.1017 23.7387 23.868 23.9338 23.6392L24.0588 23.4917C24.2525 23.2705 24.4525 23.0542 24.66 22.8455L24.7838 22.7242C25.0036 22.5065 25.2313 22.2968 25.4663 22.0955C26.3913 18.9955 29.2225 16.7392 32.5737 16.7392C33.9225 16.7392 35.2638 17.1267 36.4125 17.8305C37.5937 18.5592 38.5502 19.6005 39.1763 20.8392L39.185 20.858L39.235 20.9505V20.9542L39.24 20.9567C39.941 21.3896 40.5972 21.8912 41.1987 22.4542C41.2487 22.5005 41.3 22.543 41.3488 22.5905C41.3512 22.5905 41.3563 22.5967 41.3575 22.598L41.355 22.5905L41.3538 22.5855V22.5817L41.4062 22.4767C41.8775 19.4967 43.1938 17.3492 44.7437 17.3492C45.9113 17.3492 46.9462 18.568 47.5887 20.4442L47.595 20.4642L47.5962 20.4667C47.7775 20.6642 47.955 20.8805 48.1262 21.118L48.135 21.1305L48.1612 21.2142L48.1363 21.1167C46.2088 15.4055 40.8075 11.2955 34.4462 11.2955L34.4475 11.293ZM32.4088 16.8467C29.4825 16.9005 26.675 18.9155 25.7175 21.7067L25.7025 21.7492C26.2203 21.3338 26.7699 20.9598 27.3462 20.6305C30.8538 18.5605 35.445 18.573 38.9438 20.6505C37.825 18.5842 35.655 17.1267 33.3187 16.8955C33.017 16.8577 32.7129 16.8414 32.4088 16.8467ZM44.7013 17.4717C44.5355 17.4757 44.3713 17.5039 44.2138 17.5555C42.6325 18.258 42.065 20.1467 41.675 21.6842L41.655 21.7742C42.1112 20.9992 42.665 20.2555 43.4 19.7217C44.4437 18.863 46.0312 18.903 47.045 19.788C47.43 20.1955 47.2213 19.798 47.0837 19.513C46.6562 18.5755 45.8025 17.4467 44.7013 17.4705V17.4717ZM35.4375 20.3942L34.1 24.4817L34.0975 24.488L34.09 24.4905L28.4675 25.8805H28.4563L34.0262 27.2392C34.1575 27.3767 34.31 27.4955 34.4763 27.5892H34.4788C34.5312 27.6192 34.585 27.6455 34.64 27.6705L34.6525 27.6767C34.7038 27.6992 34.7562 27.718 34.81 27.7355L34.8363 27.7455C34.8863 27.7617 34.9363 27.7742 34.9862 27.7855L35.0275 27.7955C35.1584 27.8218 35.2915 27.8357 35.425 27.8367C35.8067 27.8378 36.1801 27.7258 36.4982 27.5149C36.8163 27.304 37.0649 27.0037 37.2125 26.6517C37.3125 26.4192 37.3662 26.1642 37.3662 25.8967V25.883L37.365 25.868C37.3638 25.8005 37.36 25.7342 37.3525 25.668L37.3512 25.6655C37.3437 25.6012 37.3329 25.5374 37.3187 25.4742L37.3175 25.4692C37.2897 25.3455 37.2495 25.2249 37.1975 25.1092V25.1055C37.0947 24.8744 36.9468 24.6662 36.7625 24.493V24.4892L35.4375 20.3942ZM39.3725 21.1767C39.4325 22.4367 39.4175 23.7342 39.2475 24.998C39.035 27.5205 37.76 29.7455 36.7825 32.018L36.745 32.118L36.7013 32.2255C38.5888 30.323 40.6637 28.4255 41.6625 25.873C42.1413 25.078 41.81 24.1955 41.5187 23.403C41.3062 22.3067 40.1825 21.8055 39.3725 21.1767ZM47.0875 21.8917L46.3525 25.2517C46.3281 25.3338 46.3085 25.4173 46.2938 25.5017C46.2913 25.5267 46.285 25.5517 46.2812 25.5767C46.2687 25.6687 46.2621 25.7614 46.2613 25.8542L46.2588 25.893H46.2625C46.2625 26.678 46.6338 27.313 47.0913 27.3142C47.1704 27.3133 47.2483 27.294 47.3187 27.258L47.3525 27.2392C47.3832 27.222 47.4124 27.2023 47.44 27.1805C47.4562 27.168 47.47 27.153 47.485 27.1392C47.5519 27.0779 47.6096 27.0071 47.6562 26.9292L47.6938 26.8617C47.7176 26.8178 47.7393 26.7727 47.7588 26.7267L47.78 26.6767C47.805 26.6105 47.8275 26.5417 47.8463 26.4692L47.8487 26.4667L47.85 26.463L48.355 25.8992L47.8463 25.3292V25.3305L47.8213 25.2517L47.0875 21.8917ZM41.6112 22.9617C42.4737 25.1067 42.6737 27.5955 41.725 29.7492C41.1125 31.4592 39.7412 32.828 39.3825 34.6305C40.295 34.7742 41.2175 34.8505 42.145 34.863C44.8525 34.8992 47.56 34.338 50 33.1567C47.45 29.5705 44.8487 25.963 41.6112 22.9617ZM35.4262 24.183C35.6195 24.183 35.8049 24.2597 35.9416 24.3964C36.0782 24.5331 36.155 24.7184 36.155 24.9117C36.155 25.105 36.0782 25.2904 35.9416 25.427C35.8049 25.5637 35.6195 25.6405 35.4262 25.6405C35.233 25.6405 35.0476 25.5637 34.9109 25.427C34.7743 25.2904 34.6975 25.105 34.6975 24.9117C34.6975 24.7184 34.7743 24.5331 34.9109 24.3964C35.0476 24.2597 35.233 24.183 35.4262 24.183ZM47.1163 24.6455C47.2888 24.6455 47.4275 24.883 47.4275 25.178C47.4275 25.473 47.2888 25.7105 47.1163 25.7105C46.945 25.7105 46.8062 25.473 46.8062 25.178C46.8062 24.8842 46.9438 24.6455 47.1163 24.6455ZM42.0613 24.8755C42.0413 25.0155 42.02 25.1367 41.9988 25.238L41.9913 25.2667C41.9788 25.3292 41.9637 25.3842 41.95 25.4267C41.35 27.198 40.3563 28.5767 39 30.048C38.8162 30.248 38.6238 30.448 38.4263 30.653C37.9352 31.1622 37.4368 31.6643 36.9312 32.1592C36.7913 32.2967 36.6075 32.4855 36.4 32.7042C36.2712 33.063 36.125 33.4667 36.0025 33.8917C35.9475 33.8717 35.895 33.853 35.8387 33.8305C33.2037 32.8117 31.44 31.4505 31.44 31.4505C31.44 31.4505 32.7975 33.218 35.0838 34.8755C35.305 35.0367 35.5225 35.1755 35.7362 35.2992C35.6425 36.7917 36.3013 38.2242 39.2738 38.6517C39.7829 38.7206 40.2988 38.724 40.8088 38.6617L40.7962 38.6255C40.7949 38.6212 40.7933 38.617 40.7912 38.613C40.7913 38.613 40.5825 38.4467 40.3175 38.1417C40.023 37.8039 39.7773 37.4264 39.5875 37.0205C39.429 36.6778 39.3172 36.3154 39.255 35.943C39.1902 35.5408 39.1876 35.131 39.2475 34.728C39.2687 34.578 39.2975 34.4267 39.3375 34.2705C39.4538 33.803 39.6562 33.3055 39.9713 32.7805L39.9738 32.7767L40.275 32.2717C41.6537 29.9467 42.5212 28.178 42.1575 25.4705C42.1304 25.2713 42.0991 25.0729 42.0613 24.8755ZM47.9125 25.8492L47.9163 25.8942V25.9067C47.9163 25.923 47.9125 25.938 47.9125 25.9542C47.9125 25.9367 47.9163 25.9192 47.9163 25.9005C47.9163 25.883 47.9137 25.868 47.9125 25.8505V25.8492ZM47.8975 26.193L47.895 26.2067L47.8925 26.2242L47.8975 26.193ZM49.5887 33.603C46.3975 35.0255 42.7887 35.403 39.3488 34.8617C39.1737 36.2467 39.8288 37.6342 40.8663 38.5242L40.8813 38.5367C44.26 37.9955 47.1 35.8255 49.5887 33.603Z" fill="#202020"/>
<rect x="80" width="70" height="50" rx="25" fill="#F3FEFC"/>
<rect x="80" width="70" height="50" rx="25" fill="black" fill-opacity="0.06"/>
<path d="M119.569 16.3968C117.464 14.2915 115.44 12.2672 114.853 10C114.245 12.2672 112.241 14.2713 110.136 16.3968C106.978 19.5547 103.375 23.1376 103.375 28.5223C103.375 34.8583 108.517 40 114.853 40C121.189 40 126.33 34.8583 126.33 28.5223C126.33 23.1376 122.727 19.5547 119.569 16.3968ZM108.254 31.1943C107.545 31.1741 104.954 26.7004 109.772 21.9231L112.97 25.4049C113.071 25.5061 113.071 25.6883 112.97 25.7895L112.95 25.8097C112.181 26.5992 108.942 29.8381 108.537 30.9717C108.436 31.1943 108.314 31.1943 108.254 31.1943ZM114.853 37.085C112.666 37.085 110.905 35.3239 110.905 33.1377C110.926 32.1862 111.27 31.2551 111.897 30.5263C112.606 29.6559 114.853 27.2065 114.853 27.2065C114.853 27.2065 117.079 29.6964 117.808 30.5263C118.456 31.2348 118.8 32.1862 118.8 33.1377C118.8 35.3239 117.019 37.085 114.853 37.085ZM122.403 30.6883C122.322 30.8704 122.12 31.1943 121.857 31.1943C121.391 31.2146 121.351 30.9717 121.007 30.4656C120.258 29.3522 113.679 22.4696 112.444 21.1538C111.371 19.9798 112.282 19.17 112.727 18.7247C113.274 18.1781 114.853 16.5992 114.853 16.5992C114.853 16.5992 119.569 21.0729 121.513 24.1093C123.456 27.1458 122.808 29.8178 122.403 30.6883Z" fill="#202020"/>
<rect x="160" width="70" height="50" rx="25" fill="#F3FEFC"/>
<rect x="160" width="70" height="50" rx="25" fill="black" fill-opacity="0.06"/>
<path d="M182.786 16.0449H207.203C208.748 16.0449 209.999 17.2946 209.999 18.8384V28.1496C209.999 29.6934 208.748 30.943 207.203 30.943H198.447L199.649 33.8834L194.363 30.943H182.798C181.253 30.943 180.002 29.6934 180.002 28.1496V18.8384C179.99 17.3068 181.24 16.0449 182.786 16.0449Z" fill="#202020"/>
<path d="M181.71 18.5907C181.881 18.3592 182.137 18.2374 182.478 18.2131C183.1 18.1643 183.454 18.4566 183.539 19.0901C183.917 21.6362 184.332 23.7925 184.771 25.5588L187.441 20.4789C187.685 20.016 187.99 19.7724 188.356 19.748C188.892 19.7115 189.221 20.0525 189.356 20.7712C189.66 22.3914 190.051 23.768 190.514 24.9375C190.831 21.8433 191.368 19.614 192.124 18.2374C192.306 17.8963 192.575 17.7258 192.928 17.7013C193.209 17.6771 193.465 17.7623 193.697 17.945C193.928 18.1278 194.05 18.3592 194.075 18.6394C194.087 18.8587 194.05 19.0414 193.953 19.2242C193.477 20.1013 193.087 21.5753 192.77 23.6218C192.465 25.6075 192.355 27.1547 192.428 28.2633C192.453 28.5677 192.404 28.8357 192.282 29.0673C192.136 29.3353 191.916 29.4815 191.636 29.5058C191.319 29.5302 190.99 29.3841 190.672 29.0551C189.538 27.8977 188.636 26.1679 187.978 23.8655C187.185 25.4248 186.6 26.5943 186.222 27.3739C185.502 28.7505 184.892 29.4571 184.38 29.4936C184.051 29.518 183.771 29.2377 183.527 28.6531C182.905 27.0572 182.234 23.9751 181.515 19.4069C181.466 19.0901 181.539 18.8099 181.71 18.5907ZM207.915 20.5033C207.476 19.7358 206.829 19.273 205.964 19.0901C205.732 19.0414 205.513 19.0171 205.305 19.0171C204.135 19.0171 203.184 19.6262 202.44 20.8444C201.806 21.8798 201.489 23.0249 201.489 24.2797C201.489 25.2177 201.684 26.0217 202.074 26.6918C202.513 27.4592 203.159 27.9221 204.025 28.1048C204.256 28.1536 204.476 28.178 204.683 28.178C205.866 28.178 206.817 27.5689 207.549 26.3506C208.183 25.3029 208.5 24.1578 208.5 22.9032C208.512 21.953 208.305 21.1611 207.915 20.5033ZM206.378 23.8777C206.208 24.6817 205.903 25.2786 205.451 25.6806C205.098 25.9974 204.769 26.1313 204.464 26.0704C204.171 26.0095 203.927 25.7537 203.744 25.2786C203.598 24.901 203.525 24.5233 203.525 24.17C203.525 23.8655 203.549 23.5609 203.61 23.2808C203.72 22.7813 203.927 22.294 204.256 21.8311C204.659 21.2341 205.086 20.9906 205.525 21.0758C205.817 21.1367 206.061 21.3926 206.244 21.8677C206.391 22.2453 206.464 22.6229 206.464 22.9762C206.464 23.293 206.439 23.5976 206.378 23.8777ZM200.281 20.5033C199.842 19.7358 199.184 19.273 198.33 19.0901C198.099 19.0414 197.879 19.0171 197.672 19.0171C196.501 19.0171 195.55 19.6262 194.806 20.8444C194.172 21.8798 193.855 23.0249 193.855 24.2797C193.855 25.2177 194.05 26.0217 194.44 26.6918C194.879 27.4592 195.526 27.9221 196.391 28.1048C196.623 28.1536 196.842 28.178 197.05 28.178C198.233 28.178 199.184 27.5689 199.915 26.3506C200.55 25.3029 200.867 24.1578 200.867 22.9032C200.867 21.953 200.671 21.1611 200.281 20.5033ZM198.733 23.8777C198.562 24.6817 198.257 25.2786 197.806 25.6806C197.452 25.9974 197.123 26.1313 196.818 26.0704C196.526 26.0095 196.282 25.7537 196.099 25.2786C195.952 24.901 195.879 24.5233 195.879 24.17C195.879 23.8655 195.904 23.5609 195.965 23.2808C196.074 22.7813 196.282 22.294 196.611 21.8311C197.013 21.2341 197.44 20.9906 197.879 21.0758C198.172 21.1367 198.416 21.3926 198.599 21.8677C198.745 22.2453 198.818 22.6229 198.818 22.9762C198.83 23.293 198.794 23.5976 198.733 23.8777Z" fill="white"/>
</svg>
