<svg width="50" height="40" viewBox="0 0 50 40" fill="none" xmlns="http://www.w3.org/2000/svg">
<g id="E-commerce 1" clip-path="url(#clip0_202_13)">
<path id="Vector" fill-rule="evenodd" clip-rule="evenodd" d="M24.3747 35.2277C24.3747 37.5979 22.4505 39.5198 20.0764 39.5198C17.7023 39.5198 15.7773 37.5979 15.7773 35.2277C15.7773 32.8567 17.7023 30.9348 20.0764 30.9348C22.4505 30.9348 24.3747 32.8567 24.3747 35.2277ZM42.1254 35.2277C42.1254 37.5979 40.2004 39.5198 37.8263 39.5198C35.4522 39.5198 33.528 37.5979 33.528 35.2277C33.528 32.8567 35.4522 30.9348 37.8263 30.9348C40.2004 30.9348 42.1254 32.8567 42.1254 35.2277ZM17.4294 35.2277C17.4294 36.6872 18.6145 37.8708 20.0764 37.8708C21.5382 37.8708 22.7233 36.6872 22.7233 35.2277C22.7233 33.7681 21.5382 32.5846 20.0764 32.5846C18.6145 32.5846 17.4294 33.7681 17.4294 35.2277ZM35.1793 35.2277C35.1793 36.6872 36.3644 37.8708 37.8263 37.8708C39.2882 37.8708 40.4733 36.6872 40.4733 35.2277C40.4733 33.7681 39.2882 32.5846 37.8263 32.5846C36.3644 32.5846 35.1793 33.7681 35.1793 35.2277ZM48.6309 5.50438C49.1923 5.50438 49.5907 6.05249 49.4161 6.58578L42.8559 26.6217C42.7452 26.9609 42.4279 27.1901 42.0708 27.1901H17.3748C17.0045 27.1901 16.6793 26.9437 16.5796 26.5866L10.2861 4.03783C10.2112 3.76962 9.98824 3.56925 9.71379 3.52325L1.4189 2.13388H1.41812C0.968254 2.05903 0.664184 1.63411 0.739811 1.18502C0.81466 0.735151 1.23958 0.43186 1.68945 0.506708L10.9511 2.04811C11.2669 2.10113 11.5242 2.33191 11.6107 2.63988L17.9978 25.5263L41.4798 25.5411L43.2083 20.2541H24.0028C23.5467 20.2541 23.1771 19.8854 23.1771 19.43C23.1771 18.9747 23.5467 18.6051 24.0028 18.6051H43.7479L45.2238 14.0893H22.7771C22.321 14.0893 21.9515 13.7205 21.9515 13.2652C21.9515 12.8091 22.321 12.4403 22.7771 12.4403H45.7633L47.4934 7.14792L21.2334 7.15416C20.7773 7.15416 20.4077 6.7846 20.4077 6.32927C20.4077 5.87395 20.7773 5.50438 21.2334 5.50438H48.6309Z" fill="#07E7C4"/>
</g>
<defs>
<clipPath id="clip0_202_13">
<rect width="50" height="40" fill="white"/>
</clipPath>
</defs>
</svg>
