<svg width="50" height="50" viewBox="0 0 50 50" fill="none" xmlns="http://www.w3.org/2000/svg">
<g id="strategy 1" clip-path="url(#clip0_4249_177)">
<g id="Group">
<path id="Vector" fill-rule="evenodd" clip-rule="evenodd" d="M41.7293 3.32383H30.7032C28.4919 3.32383 26.6993 5.11641 26.6993 7.32773V25.3101C26.6993 26.3349 25.8687 27.1655 24.8438 27.1655H7.3334C5.12207 27.1655 3.32949 28.9581 3.32949 31.1694V41.7399C1.63525 42.2094 0.390625 43.762 0.390625 45.602C0.390625 47.8132 2.18828 49.6094 4.40371 49.6094C6.61914 49.6094 8.4168 47.8132 8.4168 45.602C8.4168 43.762 7.17217 42.2094 5.47793 41.7399V31.1694C5.47793 30.1446 6.30859 29.314 7.3334 29.314H24.8438C27.0552 29.314 28.8478 27.5214 28.8478 25.3101V7.32773C28.8478 6.30293 29.6784 5.47227 30.7032 5.47227H41.7293C42.1997 7.1627 43.7535 8.40547 45.5963 8.40547C47.8117 8.40547 49.6094 6.60928 49.6094 4.39805C49.6094 2.18691 47.8117 0.390625 45.5963 0.390625C43.7535 0.390625 42.1997 1.6334 41.7293 3.32383ZM44.6064 46.1256L42.9564 47.7756C42.5372 48.1948 42.5372 48.8755 42.9564 49.2947C43.3757 49.714 44.0563 49.714 44.4756 49.2947L46.1256 47.6447L47.7756 49.2947C48.1948 49.714 48.8755 49.714 49.2947 49.2947C49.714 48.8755 49.714 48.1948 49.2947 47.7756L47.6447 46.1256L49.2947 44.4756C49.714 44.0564 49.714 43.3757 49.2947 42.9564C48.8755 42.5372 48.1948 42.5372 47.7756 42.9564L46.1256 44.6064L44.4756 42.9564C44.0563 42.5372 43.3757 42.5372 42.9564 42.9564C42.5372 43.3757 42.5372 44.0564 42.9564 44.4756L44.6064 46.1256ZM4.40371 43.743C5.43223 43.743 6.26836 44.5754 6.26836 45.602C6.26836 46.6285 5.43223 47.4609 4.40371 47.4609C3.3752 47.4609 2.53906 46.6285 2.53906 45.602C2.53906 44.5754 3.3752 43.743 4.40371 43.743ZM24.2694 36.5088L22.6194 38.1588C22.2002 38.578 22.2002 39.2588 22.6194 39.6779C23.0387 40.0972 23.7193 40.0972 24.1386 39.6779L25.7886 38.0279L27.4386 39.6779C27.8578 40.0972 28.5385 40.0972 28.9577 39.6779C29.377 39.2588 29.377 38.578 28.9577 38.1588L27.3077 36.5088L28.9577 34.8587C29.377 34.4395 29.377 33.7588 28.9577 33.3396C28.5385 32.9203 27.8578 32.9203 27.4386 33.3396L25.7886 34.9896L24.1386 33.3396C23.7193 32.9203 23.0387 32.9203 22.6194 33.3396C22.2002 33.7588 22.2002 34.4395 22.6194 34.8587L24.2694 36.5088ZM35.0116 36.5088L33.3616 38.1588C32.9424 38.578 32.9424 39.2588 33.3616 39.6779C33.7809 40.0972 34.4615 40.0972 34.8808 39.6779L36.5308 38.0279L38.1808 39.6779C38.6 40.0972 39.2807 40.0972 39.6999 39.6779C40.1191 39.2588 40.1191 38.578 39.6999 38.1588L38.0499 36.5088L39.6999 34.8587C40.1191 34.4395 40.1191 33.7588 39.6999 33.3396C39.2807 32.9203 38.6 32.9203 38.1808 33.3396L36.5308 34.9896L34.8808 33.3396C34.4615 32.9203 33.7809 32.9203 33.3616 33.3396C32.9424 33.7588 32.9424 34.4395 33.3616 34.8587L35.0116 36.5088ZM35.0116 25.8643L33.3616 27.5143C32.9424 27.9335 32.9424 28.6143 33.3616 29.0334C33.7809 29.4526 34.4615 29.4526 34.8808 29.0334L36.5308 27.3834L38.1808 29.0334C38.6 29.4526 39.2807 29.4526 39.6999 29.0334C40.1191 28.6143 40.1191 27.9335 39.6999 27.5143L38.0499 25.8643L39.6999 24.2142C40.1191 23.7949 40.1191 23.1143 39.6999 22.695C39.2807 22.2758 38.6 22.2758 38.1808 22.695L36.5308 24.345L34.8808 22.695C34.4615 22.2758 33.7809 22.2758 33.3616 22.695C32.9424 23.1143 32.9424 23.7949 33.3616 24.2142L35.0116 25.8643ZM19.0259 18.11L17.3759 16.46C16.9566 16.0407 16.276 16.0407 15.8567 16.46C15.4375 16.8792 15.4375 17.5599 15.8567 17.9791L17.5067 19.6291L15.8567 21.2791C15.4375 21.6983 15.4375 22.379 15.8567 22.7982C16.276 23.2175 16.9566 23.2175 17.3759 22.7982L19.0259 21.1482L20.6759 22.7982C21.0951 23.2175 21.7758 23.2175 22.195 22.7982C22.6143 22.379 22.6143 21.6983 22.195 21.2791L20.545 19.6291L22.195 17.9791C22.6143 17.5599 22.6143 16.8792 22.195 16.46C21.7758 16.0407 21.0951 16.0407 20.6759 16.46L19.0259 18.11ZM46.1256 13.6028L44.4756 11.9528C44.0563 11.5336 43.3757 11.5336 42.9564 11.9528C42.5372 12.3721 42.5372 13.0527 42.9564 13.472L44.6064 15.1221L42.9564 16.7721C42.5372 17.1913 42.5372 17.8721 42.9564 18.2912C43.3757 18.7104 44.0563 18.7104 44.4756 18.2912L46.1256 16.6412L47.7756 18.2912C48.1948 18.7104 48.8755 18.7104 49.2947 18.2912C49.714 17.8721 49.714 17.1913 49.2947 16.7721L47.6447 15.1221L49.2947 13.472C49.714 13.0527 49.714 12.3721 49.2947 11.9528C48.8755 11.5336 48.1948 11.5336 47.7756 11.9528L46.1256 13.6028ZM7.24346 11.8347L5.59346 10.1847C5.17422 9.76543 4.49355 9.76543 4.07432 10.1847C3.65508 10.6039 3.65508 11.2846 4.07432 11.7038L5.72432 13.3538L4.07432 15.0038C3.65508 15.423 3.65508 16.1037 4.07432 16.5229C4.49355 16.9422 5.17422 16.9422 5.59346 16.5229L7.24346 14.8729L8.89346 16.5229C9.3127 16.9422 9.99336 16.9422 10.4126 16.5229C10.8318 16.1037 10.8318 15.423 10.4126 15.0038L8.7626 13.3538L10.4126 11.7038C10.8318 11.2846 10.8318 10.6039 10.4126 10.1847C9.99336 9.76543 9.3127 9.76543 8.89346 10.1847L7.24346 11.8347ZM17.5067 7.07861L15.8567 8.72861C15.4375 9.14785 15.4375 9.82852 15.8567 10.2478C16.276 10.667 16.9566 10.667 17.3759 10.2478L19.0259 8.59775L20.6759 10.2478C21.0951 10.667 21.7758 10.667 22.195 10.2478C22.6143 9.82852 22.6143 9.14785 22.195 8.72861L20.545 7.07861L22.195 5.42861C22.6143 5.00938 22.6143 4.32871 22.195 3.90947C21.7758 3.49023 21.0951 3.49023 20.6759 3.90947L19.0259 5.55947L17.3759 3.90947C16.9566 3.49023 16.276 3.49023 15.8567 3.90947C15.4375 4.32871 15.4375 5.00938 15.8567 5.42861L17.5067 7.07861ZM43.7317 4.40576V4.39805V4.39033C43.7358 3.36728 44.5703 2.53906 45.5963 2.53906C46.6248 2.53906 47.4609 3.37148 47.4609 4.39805C47.4609 5.42461 46.6248 6.25703 45.5963 6.25703C44.5703 6.25703 43.7358 5.42881 43.7317 4.40576Z" fill="#08DBBA"/>
</g>
</g>
<defs>
<clipPath id="clip0_4249_177">
<rect width="50" height="50" fill="white"/>
</clipPath>
</defs>
</svg>
