<svg width="54" height="40" viewBox="0 0 54 40" fill="none" xmlns="http://www.w3.org/2000/svg">
<g id="Group">
<g id="Group_2">
<path id="Vector" d="M51.2239 25.3435H47.0509V19.9491C47.0509 19.3384 46.6438 18.9313 46.0331 18.9313H28.0178V14.5547H32.1908C33.4122 14.5547 34.3282 13.6387 34.3282 12.4173V2.13741C34.3282 0.916031 33.4122 0 32.1908 0H21.8092C20.5878 0 19.6718 0.916031 19.6718 2.13741V12.5191C19.6718 13.7405 20.5878 14.6565 21.8092 14.6565H25.9822V18.9313H7.96692C7.35623 18.9313 6.9491 19.3384 6.9491 19.9491V25.3435H2.77608C1.5547 25.3435 0.638672 26.2595 0.638672 27.4809V37.8626C0.638672 39.084 1.5547 40 2.77608 40H13.1578C14.3791 40 15.2952 39.084 15.2952 37.8626V27.4809C15.2952 26.2595 14.3791 25.3435 13.1578 25.3435H8.98473V20.9669H25.9822V25.3435H21.8092C20.5878 25.3435 19.6718 26.2595 19.6718 27.4809V37.8626C19.6718 39.084 20.5878 40 21.8092 40H32.1908C33.4122 40 34.3282 39.084 34.3282 37.8626V27.4809C34.3282 26.2595 33.4122 25.3435 32.1908 25.3435H28.0178V20.9669H45.0153V25.3435H40.8422C39.6209 25.3435 38.7048 26.2595 38.7048 27.4809V37.8626C38.7048 39.084 39.6209 40 40.8422 40H51.2239C52.4453 40 53.3613 39.084 53.3613 37.8626V27.4809C53.3613 26.2595 52.3435 25.3435 51.2239 25.3435ZM13.2595 27.4809C13.1578 27.3791 13.2595 27.3791 13.2595 27.4809V37.8626C13.2595 37.9644 13.2595 37.9644 13.1578 37.9644H2.77608C2.6743 37.9644 2.6743 37.9644 2.6743 37.8626V27.4809C2.6743 27.3791 2.6743 27.3791 2.77608 27.3791L13.2595 27.4809ZM32.2926 27.4809C32.1908 27.3791 32.2926 27.3791 32.2926 27.4809V37.8626C32.2926 37.9644 32.2926 37.9644 32.1908 37.9644H21.8092C21.7074 37.9644 21.7074 37.9644 21.7074 37.8626V27.4809C21.7074 27.3791 21.7074 27.3791 21.8092 27.3791L32.2926 27.4809ZM21.7074 12.4173C21.7074 12.5191 21.8092 12.5191 21.7074 12.4173V2.13741C21.7074 2.03562 21.7074 2.03562 21.8092 2.03562H32.1908C32.2926 2.03562 32.2926 2.03562 32.2926 2.13741V12.5191C32.2926 12.6209 32.2926 12.6209 32.1908 12.6209L21.7074 12.4173ZM51.3257 37.7608C51.2239 37.8626 51.3257 37.8626 51.3257 37.7608L40.8422 37.8626C40.7405 37.8626 40.7405 37.8626 40.7405 37.7608V27.4809C40.7405 27.3791 40.7405 27.3791 40.8422 27.3791H51.2239C51.3257 27.3791 51.3257 27.3791 51.3257 27.4809V37.7608Z" fill="#08DBBA"/>
</g>
</g>
</svg>
