<svg width="60" height="60" viewBox="0 0 60 60" fill="none" xmlns="http://www.w3.org/2000/svg">
<rect width="60" height="60" fill="url(#paint0_linear_4922_4593)"/>
<path fill-rule="evenodd" clip-rule="evenodd" d="M18.7468 30.5276H12.7028C12.3826 30.5276 12.123 30.7871 12.123 31.1073V40.9463C12.123 41.2665 12.3826 41.5261 12.7028 41.5261H18.7468C19.067 41.5261 19.3266 41.2665 19.3266 40.9463V40.1312C21.7108 40.2206 23.283 40.8552 24.8565 41.4846C26.6729 42.2112 28.4906 42.9316 31.3969 42.9316C32.8127 42.9316 34.8964 42.3915 37.0666 41.6448C37.3692 41.5407 37.5303 41.2104 37.4261 40.9079C37.322 40.6053 36.9918 40.4442 36.6893 40.5483C34.6617 41.246 32.7197 41.772 31.3969 41.772C28.6808 41.772 26.9847 41.0869 25.2871 40.4079C23.5947 39.731 21.9009 39.0592 19.3266 38.9707V31.6101C19.9223 31.4648 20.5827 31.1359 21.3229 30.8167C22.545 30.2896 24.05 29.8361 25.9929 30.9289L29.3858 32.8376C29.6834 33.0052 30.018 33.0927 30.3596 33.0927H34.9107C35.755 33.0927 36.4393 33.777 36.4393 34.6212C36.4393 35.2702 36.035 35.8245 35.4645 36.0456C35.4639 36.0458 35.4633 36.0461 35.4626 36.0464C35.2913 36.1134 35.1053 36.1498 34.9107 36.1498H27.7663C27.4463 36.1498 27.1865 36.4096 27.1865 36.7296C27.1865 37.0496 27.4463 37.3094 27.7663 37.3094H34.9107C35.2436 37.3094 35.5621 37.2486 35.8566 37.1372C35.8628 37.1352 35.8689 37.133 35.875 37.1307L44.6091 33.9022C44.6121 33.9011 44.6151 33.8999 44.6181 33.8987C44.7899 33.832 44.9763 33.7955 45.1714 33.7955C46.0156 33.7955 46.7 34.4798 46.7 35.324C46.7 35.9345 46.3423 36.4613 45.8252 36.7065C45.7387 36.7472 41.8342 38.5843 39.935 39.4202C39.6421 39.5491 39.5089 39.8916 39.6378 40.1845C39.7668 40.4773 40.1092 40.6105 40.4021 40.4816C42.319 39.6379 46.2695 37.779 46.32 37.7553C46.3204 37.7551 46.3209 37.7548 46.3214 37.7546C47.2307 37.3237 47.8596 36.3973 47.8596 35.324C47.8596 33.8393 46.6562 32.6359 45.1714 32.6359C44.8298 32.6359 44.5034 32.6999 44.2025 32.8162L37.5155 35.288C37.5699 35.0749 37.5989 34.8515 37.5989 34.6212C37.5989 33.1365 36.3955 31.9331 34.9107 31.9331H30.3596C30.2176 31.9331 30.0785 31.8969 29.9547 31.8271L26.5614 29.9182C24.1905 28.5847 22.3549 29.1087 20.8636 29.7519C20.0436 30.1056 19.3605 30.5276 18.7468 30.5276ZM18.167 39.5407V40.3665H13.2826V31.6871H18.167C18.167 33.5926 18.167 39.5407 18.167 39.5407Z" fill="#06CEAF"/>
<path d="M15.8574 24.2721L13.6562 17.6309H14.9371L16.901 23.6365H16.2653L18.3052 17.6309H19.4437L21.4266 23.6365H20.8099L22.8212 17.6309H23.9977L21.7966 24.2721H20.4873L18.6752 18.8548H19.0167L17.1761 24.2721H15.8574Z" fill="#06CEAF"/>
<path d="M26.7109 24.2721L24.5098 17.6309H25.7906L27.7545 23.6365H27.1188L29.1587 17.6309H30.2972L32.2801 23.6365H31.6634L33.6747 17.6309H34.8512L32.6501 24.2721H31.3408L29.5287 18.8548H29.8702L28.0296 24.2721H26.7109Z" fill="#06CEAF"/>
<path d="M37.5644 24.2721L35.3633 17.6309H36.6441L38.608 23.6365H37.9724L40.0122 17.6309H41.1507L43.1336 23.6365H42.5169L44.5283 17.6309H45.7047L43.5036 24.2721H42.1943L40.3822 18.8548H40.7238L38.8832 24.2721H37.5644Z" fill="#06CEAF"/>
<defs>
<linearGradient id="paint0_linear_4922_4593" x1="30" y1="0" x2="30" y2="60" gradientUnits="userSpaceOnUse">
<stop stop-color="#ECF6F4"/>
<stop offset="1" stop-color="#ECF6F4" stop-opacity="0"/>
</linearGradient>
</defs>
</svg>
