<svg width="80" height="60" viewBox="0 0 80 60" fill="none" xmlns="http://www.w3.org/2000/svg">
<rect width="80" height="60" rx="30" fill="#08DBBA"/>
<path fill-rule="evenodd" clip-rule="evenodd" d="M35.5284 14.2697L35.459 14.2895C34.2895 14.6263 33.1627 15.0956 32.0998 15.6876L32.0366 15.7227L30.8876 14.5653C29.8545 13.5512 28.1752 13.5512 27.1429 14.5661L24.5669 17.1512C23.5512 18.1806 23.5512 19.859 24.5661 20.8884L25.7234 22.0366L25.6876 22.0998C25.0956 23.1627 24.6263 24.2895 24.2895 25.459L24.2697 25.5284H22.6446C21.1954 25.533 20.0046 26.7238 20 28.173V31.827C20.0046 33.2762 21.1954 34.467 22.6446 34.4716H24.2697L24.2895 34.541C24.6263 35.7097 25.0956 36.8373 25.6876 37.9002L25.7234 37.9634L24.5653 39.1124C23.5512 40.1455 23.5512 41.824 24.5661 42.8571L27.1497 45.4316C27.2389 45.5208 27.3333 45.597 27.3333 45.597C28.3695 46.4457 29.9177 46.3909 30.8884 45.4339L32.0366 44.2766L32.0998 44.3124C33.1627 44.9044 34.2895 45.3737 35.459 45.7105L35.5284 45.7303V47.3554C35.533 48.8046 36.7238 49.9954 38.173 50H41.827C43.2762 49.9954 44.467 48.8046 44.4716 47.3554V45.7303L44.541 45.7105C45.7105 45.3737 46.8373 44.9044 47.9002 44.3124L47.9634 44.2766L49.1124 45.4347C50.1455 46.4488 51.8248 46.4488 52.8571 45.4339L55.4331 42.848C56.4488 41.8187 56.4488 40.141 55.4339 39.1116L54.2766 37.9634L54.3124 37.9002C54.9044 36.8373 55.3737 35.7097 55.7105 34.541L55.7303 34.4716H57.3554C58.8046 34.467 59.9954 33.2762 60 31.827V28.173C59.9954 26.7238 58.8046 25.533 57.3554 25.5284H55.7303L55.7105 25.459C55.3737 24.2895 54.9044 23.1627 54.3124 22.0998L54.2766 22.0366L55.4347 20.8876C56.4488 19.8545 56.4488 18.1752 55.4339 17.1429L52.8503 14.5684C52.6514 14.3954 52.6171 14.3634 52.6171 14.3634C51.5817 13.5566 50.067 13.6236 49.1116 14.5661L47.9634 15.7227L47.9002 15.6876C46.8373 15.0956 45.7105 14.6263 44.541 14.2895L44.4716 14.2697V12.6446C44.467 11.1954 43.2762 10.0046 41.827 10H38.173C36.7238 10.0046 35.533 11.1954 35.5284 12.6446V14.2697ZM42.8358 14.899L42.8587 15.088C42.9288 15.3821 43.1604 15.6213 43.4651 15.6937H43.4659C44.9486 16.0533 46.3665 16.6423 47.667 17.44V17.4408C47.9893 17.635 48.403 17.5878 48.6728 17.328L50.2781 15.7219C50.4625 15.5337 50.7177 15.4263 50.9844 15.4263C51.2518 15.4263 51.5086 15.5352 51.6945 15.7272L54.2758 18.2994C54.4663 18.4861 54.5737 18.7436 54.5737 19.011C54.5737 19.2808 54.4648 19.5383 54.2728 19.7265L52.6712 21.328C52.4114 21.5985 52.3657 22.0114 52.5592 22.3314V22.3322C53.3577 23.6335 53.9467 25.0514 54.3063 26.5349C54.3931 26.9013 54.7223 27.1627 55.0994 27.1642H57.3554C57.9086 27.1642 58.3642 27.6198 58.3642 28.173V31.827C58.3642 32.3802 57.9086 32.8358 57.3554 32.8358H55.0994C54.7291 32.8373 54.4046 33.0895 54.3109 33.4476L54.3063 33.4659L54.3124 33.4408L54.3063 33.4659C53.9467 34.9486 53.3577 36.3657 52.56 37.6663L52.5592 37.667C52.365 37.9893 52.4122 38.403 52.672 38.6728L54.2773 40.2781C54.4663 40.4625 54.5737 40.7177 54.5737 40.9844C54.5737 41.2518 54.4648 41.5086 54.2728 41.6945L51.7044 44.272C51.5162 44.4648 51.2579 44.5737 50.989 44.5737C50.7192 44.5737 50.4617 44.4648 50.2735 44.272L48.672 42.6712C48.4015 42.4114 47.9886 42.3657 47.6678 42.5592H47.667C46.3665 43.357 44.9486 43.9467 43.4651 44.3063C43.0987 44.3931 42.8373 44.7223 42.8358 45.0994V47.3554C42.8358 47.9086 42.3802 48.3642 41.827 48.3642H38.173C37.6198 48.3642 37.1642 47.9086 37.1642 47.3554V45.4118L37.165 45.4126L37.1642 45.0994C37.1627 44.7223 36.9013 44.3931 36.5341 44.3063C35.0507 43.9467 33.6335 43.357 32.3314 42.5585L32.3307 42.5577C32.2034 42.4785 32.0571 42.4366 31.9078 42.4358H31.907C31.6899 42.4373 31.4827 42.5219 31.3272 42.672L29.7265 44.272C29.539 44.4625 29.283 44.5699 29.0156 44.5699C28.749 44.5699 28.4922 44.4625 28.3055 44.2728L25.7265 41.7029C25.5337 41.5131 25.4263 41.2564 25.4263 40.989C25.4263 40.7192 25.5352 40.461 25.7272 40.2735L27.3288 38.672C27.5886 38.4015 27.6343 37.9886 27.4408 37.6678V37.667C26.6423 36.3657 26.0533 34.9486 25.6937 33.4651C25.6069 33.0987 25.2777 32.8373 24.9006 32.8358H22.6446C22.0914 32.8358 21.6358 32.3802 21.6358 31.827V28.173C21.6358 27.6198 22.0914 27.1642 22.6446 27.1642H24.8998C25.2777 27.1627 25.6069 26.9013 25.6937 26.5341C26.0533 25.0514 26.6423 23.6335 27.44 22.333L27.4408 22.3322C27.635 22.0107 27.5878 21.5962 27.328 21.3265L25.7227 19.7219C25.5337 19.5375 25.4263 19.2823 25.4263 19.0156C25.4263 18.7482 25.5352 18.4914 25.7272 18.3055L28.2956 15.728C28.4838 15.5352 28.7421 15.4263 29.011 15.4263C29.2808 15.4263 29.5383 15.5352 29.7265 15.7272L31.328 17.3288C31.5985 17.5878 32.0114 17.6343 32.3322 17.4408H32.333C33.6335 16.6423 35.0514 16.0533 36.5349 15.6937C36.9013 15.6069 37.1627 15.2777 37.1642 14.9006V12.6446C37.1642 12.0914 37.6198 11.6358 38.173 11.6358H41.827C42.3802 11.6358 42.8358 12.0914 42.8358 12.6446V14.899ZM43.4667 44.3055C43.504 44.2971 43.5032 44.2971 43.4941 44.2994C43.4842 44.3017 43.4659 44.3063 43.4659 44.3063L43.4667 44.3055ZM42.8587 15.088L42.8358 14.9006C42.8358 14.9646 42.8442 15.0278 42.8587 15.088Z" fill="#202020"/>
<path fill-rule="evenodd" clip-rule="evenodd" d="M39.9998 18.2207C46.4592 18.2268 51.7727 23.5403 51.7788 29.9998C51.7788 36.4615 46.4615 41.7788 39.9998 41.7788C33.538 41.7788 28.2207 36.4615 28.2207 29.9998C28.2207 23.538 33.538 18.2207 39.9998 18.2207ZM36.4417 29.9182V29.9998C36.4432 30.2725 36.5811 30.5278 36.8104 30.6786L39.5518 32.5064C39.8192 32.6916 40.175 32.6938 40.4462 32.5072L43.1914 30.6771C43.4177 30.5278 43.5563 30.2733 43.5578 29.9998V24.591L43.7186 24.6763C45.4535 25.8878 46.4897 27.8756 46.4897 29.9921C46.4897 32.3068 45.25 34.4523 43.2447 35.6089C42.991 35.7552 42.8348 36.0272 42.8356 36.3213V39.7262L42.767 39.7468C40.9658 40.274 39.0512 40.2756 37.2485 39.7514L37.1639 39.7262V36.319C37.1647 36.0272 37.0085 35.7552 36.7548 35.6089C34.7495 34.4523 33.5098 32.3068 33.5098 29.9921C33.5098 27.8778 34.5445 25.8923 36.2756 24.6801L36.2832 24.6748C36.3411 24.6413 36.3937 24.6116 36.4417 24.5857V29.9182ZM36.9559 22.4577L36.9491 22.4607L36.975 22.4508L36.9483 22.4615C33.8855 23.7003 31.8695 26.6893 31.8695 29.9937C31.8695 32.7068 33.2287 35.247 35.4855 36.7525L35.5281 36.7655V36.767L35.49 36.7556L35.5281 36.7807V39.0984L35.3895 39.0276C31.999 37.2973 29.8565 33.7986 29.8565 29.9921C29.8565 24.4279 34.4356 19.8489 39.9998 19.8489C45.5639 19.8489 50.143 24.4279 50.143 29.9921C50.143 33.7986 48.0005 37.2973 44.61 39.0276L44.4714 39.0984V36.7807L44.514 36.7525C46.7708 35.247 48.13 32.7068 48.13 29.9937C48.13 26.6908 46.1163 23.7026 43.0527 22.4615L43.0489 22.4599C42.7944 22.3662 42.5133 22.3959 42.2862 22.5407L42.2756 22.5476C42.0577 22.703 41.9258 22.9537 41.922 23.2211V29.5571C41.922 29.5578 39.9998 30.8455 39.9998 30.8455L38.0775 29.5578V23.2173C38.0775 22.7685 37.7079 22.3998 37.2592 22.3998C37.1556 22.3998 37.0535 22.4196 36.9559 22.4577Z" fill="#202020"/>
</svg>
