<svg width="310" height="50" viewBox="0 0 310 50" fill="none" xmlns="http://www.w3.org/2000/svg">
<rect width="70" height="50" rx="25" fill="#F3FEFC"/>
<rect width="70" height="50" rx="25" fill="black" fill-opacity="0.06"/>
<path d="M22.1188 25C22.1188 30.1094 25.0531 34.5109 29.3375 36.5763L23.2606 19.7828C22.5547 21.4131 22.1188 23.1531 22.1188 25ZM43.6953 24.3475C43.6953 22.7725 43.0972 21.6287 42.6078 20.815C41.9553 19.7275 41.3581 18.8584 41.3581 17.7719C41.3581 16.5766 42.2825 15.4891 43.5331 15.4891H43.6962C41.4125 13.3694 38.3694 12.1188 35 12.1188C32.8682 12.1376 30.7734 12.6773 28.8979 13.6909C27.0225 14.7045 25.4232 16.1611 24.2394 17.9341H25.055C26.4144 17.9341 28.4787 17.7709 28.4787 17.7709C29.1856 17.7166 29.24 18.7488 28.5875 18.8584C28.5875 18.8584 27.8806 18.9672 27.1203 18.9672L31.7947 32.8797L34.6203 24.4553L32.6094 18.9663L31.25 18.8594C30.5431 18.805 30.6519 17.7719 31.3044 17.7719C31.3044 17.7719 33.4231 17.935 34.6737 17.935C36.0331 17.935 38.0975 17.7719 38.0975 17.7719C38.8044 17.7175 38.8587 18.7497 38.2062 18.8594C38.2062 18.8594 37.4994 18.9681 36.7391 18.9681L41.4125 32.8281L42.725 28.5344C43.2687 26.7409 43.7028 25.4913 43.7028 24.3494L43.6953 24.3475ZM35.2175 26.1409L31.3588 37.3375C32.4997 37.6637 33.7494 37.8813 35 37.8813C36.5216 37.8813 37.9344 37.6 39.2938 37.1744C39.2394 37.12 39.2394 37.0656 39.185 37.0112L35.2175 26.1409ZM46.3044 18.8594L46.4131 20.1719C46.4131 21.4844 46.1956 22.9441 45.4353 24.7919L41.5222 36.1506C45.3266 33.9222 47.9347 29.7916 47.9347 25.0094C47.8803 22.7809 47.2822 20.7156 46.3034 18.8687L46.3044 18.8594ZM35 10C26.7387 10 20 16.7387 20 25C20 33.2612 26.7387 40 35 40C43.2612 40 50 33.2612 50 25C50 16.7387 43.2612 10 35 10ZM35 39.3475C27.1194 39.3475 20.7069 32.935 20.7069 25C20.7128 21.2111 22.2206 17.579 24.8998 14.8998C27.579 12.2206 31.2111 10.7128 35 10.7069C38.7889 10.7128 42.421 12.2206 45.1002 14.8998C47.7794 17.579 49.2872 21.2111 49.2931 25C49.2931 32.935 42.8806 39.3475 35 39.3475Z" fill="#202020"/>
<rect x="80" width="70" height="50" rx="25" fill="#F3FEFC"/>
<rect x="80" width="70" height="50" rx="25" fill="black" fill-opacity="0.06"/>
<path d="M119.569 16.3968C117.464 14.2915 115.44 12.2672 114.853 10C114.245 12.2672 112.241 14.2713 110.136 16.3968C106.978 19.5547 103.375 23.1376 103.375 28.5223C103.375 34.8583 108.517 40 114.853 40C121.189 40 126.33 34.8583 126.33 28.5223C126.33 23.1376 122.727 19.5547 119.569 16.3968ZM108.254 31.1943C107.545 31.1741 104.954 26.7004 109.772 21.9231L112.97 25.4049C113.071 25.5061 113.071 25.6883 112.97 25.7895L112.95 25.8097C112.181 26.5992 108.942 29.8381 108.537 30.9717C108.436 31.1943 108.314 31.1943 108.254 31.1943ZM114.853 37.085C112.666 37.085 110.905 35.3239 110.905 33.1377C110.926 32.1862 111.27 31.2551 111.897 30.5263C112.606 29.6559 114.853 27.2065 114.853 27.2065C114.853 27.2065 117.079 29.6964 117.808 30.5263C118.456 31.2348 118.8 32.1862 118.8 33.1377C118.8 35.3239 117.019 37.085 114.853 37.085ZM122.403 30.6883C122.322 30.8704 122.12 31.1943 121.857 31.1943C121.391 31.2146 121.351 30.9717 121.007 30.4656C120.258 29.3522 113.679 22.4696 112.444 21.1538C111.371 19.9798 112.282 19.17 112.727 18.7247C113.274 18.1781 114.853 16.5992 114.853 16.5992C114.853 16.5992 119.569 21.0729 121.513 24.1093C123.456 27.1458 122.808 29.8178 122.403 30.6883Z" fill="#202020"/>
<rect x="160" width="70" height="50" rx="25" fill="#F3FEFC"/>
<rect x="160" width="70" height="50" rx="25" fill="black" fill-opacity="0.06"/>
<path d="M194.447 11.293C186.467 11.293 180 17.763 180 25.7405C180 27.313 180.251 28.828 180.717 30.2367L180.72 30.228C180.885 29.4678 181.106 28.7211 181.382 27.9942L181.396 27.9567C181.502 27.6792 181.62 27.4042 181.743 27.1317L181.848 26.9055C181.948 26.6917 182.054 26.4805 182.164 26.2717C182.209 26.1867 182.251 26.1017 182.299 26.018C182.324 25.9705 182.354 25.9267 182.379 25.8805C182.496 25.673 182.616 25.4655 182.741 25.2642L182.835 25.1217C182.991 24.878 183.155 24.6392 183.326 24.4055L183.37 24.343C183.55 24.1017 183.739 23.868 183.934 23.6392L184.059 23.4917C184.253 23.2705 184.452 23.0542 184.66 22.8455L184.784 22.7242C185.004 22.5065 185.231 22.2968 185.466 22.0955C186.391 18.9955 189.222 16.7392 192.574 16.7392C193.922 16.7392 195.264 17.1267 196.413 17.8305C197.594 18.5592 198.55 19.6005 199.176 20.8392L199.185 20.858L199.235 20.9505V20.9542L199.24 20.9567C199.941 21.3896 200.597 21.8912 201.199 22.4542C201.249 22.5005 201.3 22.543 201.349 22.5905C201.351 22.5905 201.356 22.5967 201.358 22.598L201.355 22.5905L201.354 22.5855V22.5817L201.406 22.4767C201.878 19.4967 203.194 17.3492 204.744 17.3492C205.911 17.3492 206.946 18.568 207.589 20.4442L207.595 20.4642L207.596 20.4667C207.778 20.6642 207.955 20.8805 208.126 21.118L208.135 21.1305L208.161 21.2142L208.136 21.1167C206.209 15.4055 200.808 11.2955 194.446 11.2955L194.447 11.293ZM192.409 16.8467C189.483 16.9005 186.675 18.9155 185.717 21.7067L185.702 21.7492C186.22 21.3338 186.77 20.9598 187.346 20.6305C190.854 18.5605 195.445 18.573 198.944 20.6505C197.825 18.5842 195.655 17.1267 193.319 16.8955C193.017 16.8577 192.713 16.8414 192.409 16.8467ZM204.701 17.4717C204.536 17.4757 204.371 17.5039 204.214 17.5555C202.632 18.258 202.065 20.1467 201.675 21.6842L201.655 21.7742C202.111 20.9992 202.665 20.2555 203.4 19.7217C204.444 18.863 206.031 18.903 207.045 19.788C207.43 20.1955 207.221 19.798 207.084 19.513C206.656 18.5755 205.802 17.4467 204.701 17.4705V17.4717ZM195.438 20.3942L194.1 24.4817L194.097 24.488L194.09 24.4905L188.468 25.8805H188.456L194.026 27.2392C194.157 27.3767 194.31 27.4955 194.476 27.5892H194.479C194.531 27.6192 194.585 27.6455 194.64 27.6705L194.653 27.6767C194.704 27.6992 194.756 27.718 194.81 27.7355L194.836 27.7455C194.886 27.7617 194.936 27.7742 194.986 27.7855L195.028 27.7955C195.158 27.8218 195.291 27.8357 195.425 27.8367C195.807 27.8378 196.18 27.7258 196.498 27.5149C196.816 27.304 197.065 27.0037 197.213 26.6517C197.312 26.4192 197.366 26.1642 197.366 25.8967V25.883L197.365 25.868C197.364 25.8005 197.36 25.7342 197.353 25.668L197.351 25.6655C197.344 25.6012 197.333 25.5374 197.319 25.4742L197.318 25.4692C197.29 25.3455 197.249 25.2249 197.198 25.1092V25.1055C197.095 24.8744 196.947 24.6662 196.763 24.493V24.4892L195.438 20.3942ZM199.372 21.1767C199.433 22.4367 199.417 23.7342 199.247 24.998C199.035 27.5205 197.76 29.7455 196.782 32.018L196.745 32.118L196.701 32.2255C198.589 30.323 200.664 28.4255 201.663 25.873C202.141 25.078 201.81 24.1955 201.519 23.403C201.306 22.3067 200.183 21.8055 199.372 21.1767ZM207.087 21.8917L206.353 25.2517C206.328 25.3338 206.308 25.4173 206.294 25.5017C206.291 25.5267 206.285 25.5517 206.281 25.5767C206.269 25.6687 206.262 25.7614 206.261 25.8542L206.259 25.893H206.263C206.263 26.678 206.634 27.313 207.091 27.3142C207.17 27.3133 207.248 27.294 207.319 27.258L207.353 27.2392C207.383 27.222 207.412 27.2023 207.44 27.1805C207.456 27.168 207.47 27.153 207.485 27.1392C207.552 27.0779 207.61 27.0071 207.656 26.9292L207.694 26.8617C207.718 26.8178 207.739 26.7727 207.759 26.7267L207.78 26.6767C207.805 26.6105 207.828 26.5417 207.846 26.4692L207.849 26.4667L207.85 26.463L208.355 25.8992L207.846 25.3292V25.3305L207.821 25.2517L207.087 21.8917ZM201.611 22.9617C202.474 25.1067 202.674 27.5955 201.725 29.7492C201.112 31.4592 199.741 32.828 199.382 34.6305C200.295 34.7742 201.217 34.8505 202.145 34.863C204.852 34.8992 207.56 34.338 210 33.1567C207.45 29.5705 204.849 25.963 201.611 22.9617ZM195.426 24.183C195.62 24.183 195.805 24.2597 195.942 24.3964C196.078 24.5331 196.155 24.7184 196.155 24.9117C196.155 25.105 196.078 25.2904 195.942 25.427C195.805 25.5637 195.62 25.6405 195.426 25.6405C195.233 25.6405 195.048 25.5637 194.911 25.427C194.774 25.2904 194.698 25.105 194.698 24.9117C194.698 24.7184 194.774 24.5331 194.911 24.3964C195.048 24.2597 195.233 24.183 195.426 24.183ZM207.116 24.6455C207.289 24.6455 207.427 24.883 207.427 25.178C207.427 25.473 207.289 25.7105 207.116 25.7105C206.945 25.7105 206.806 25.473 206.806 25.178C206.806 24.8842 206.944 24.6455 207.116 24.6455ZM202.061 24.8755C202.041 25.0155 202.02 25.1367 201.999 25.238L201.991 25.2667C201.979 25.3292 201.964 25.3842 201.95 25.4267C201.35 27.198 200.356 28.5767 199 30.048C198.816 30.248 198.624 30.448 198.426 30.653C197.935 31.1622 197.437 31.6643 196.931 32.1592C196.791 32.2967 196.608 32.4855 196.4 32.7042C196.271 33.063 196.125 33.4667 196.003 33.8917C195.948 33.8717 195.895 33.853 195.839 33.8305C193.204 32.8117 191.44 31.4505 191.44 31.4505C191.44 31.4505 192.798 33.218 195.084 34.8755C195.305 35.0367 195.523 35.1755 195.736 35.2992C195.642 36.7917 196.301 38.2242 199.274 38.6517C199.783 38.7206 200.299 38.724 200.809 38.6617L200.796 38.6255C200.795 38.6212 200.793 38.617 200.791 38.613C200.791 38.613 200.583 38.4467 200.317 38.1417C200.023 37.8039 199.777 37.4264 199.587 37.0205C199.429 36.6778 199.317 36.3154 199.255 35.943C199.19 35.5408 199.188 35.131 199.247 34.728C199.269 34.578 199.298 34.4267 199.337 34.2705C199.454 33.803 199.656 33.3055 199.971 32.7805L199.974 32.7767L200.275 32.2717C201.654 29.9467 202.521 28.178 202.157 25.4705C202.13 25.2713 202.099 25.0729 202.061 24.8755ZM207.913 25.8492L207.916 25.8942V25.9067C207.916 25.923 207.913 25.938 207.913 25.9542C207.913 25.9367 207.916 25.9192 207.916 25.9005C207.916 25.883 207.914 25.868 207.913 25.8505V25.8492ZM207.898 26.193L207.895 26.2067L207.892 26.2242L207.898 26.193ZM209.589 33.603C206.397 35.0255 202.789 35.403 199.349 34.8617C199.174 36.2467 199.829 37.6342 200.866 38.5242L200.881 38.5367C204.26 37.9955 207.1 35.8255 209.589 33.603Z" fill="#202020"/>
<rect x="240" width="70" height="50" rx="25" fill="#F3FEFC"/>
<rect x="240" width="70" height="50" rx="25" fill="black" fill-opacity="0.06"/>
<path d="M273.239 15.9609C272.399 14.513 270.297 14.513 269.457 15.9609L260.296 31.7402C259.455 33.1881 260.506 34.9979 262.187 34.9979H269.338C268.62 34.369 268.354 33.281 268.898 32.3475L275.836 20.4335L273.239 15.9609Z" fill="#202020"/>
<path d="M279.043 19.4217C279.739 18.2371 281.478 18.2371 282.173 19.4217L289.755 32.332C290.45 33.5166 289.581 34.9974 288.189 34.9974H273.027C271.636 34.9974 270.766 33.5166 271.462 32.332L279.043 19.4217Z" fill="#202020"/>
</svg>
