<svg width="50" height="50" viewBox="0 0 50 50" fill="none" xmlns="http://www.w3.org/2000/svg">
<g clip-path="url(#clip0_5320_3039)">
<path fill-rule="evenodd" clip-rule="evenodd" d="M29.2081 1.22143L29.1325 0.662276L28.5744 0.580474C26.2042 0.233592 23.7967 0.233592 21.4276 0.580474L20.8684 0.662276L20.36 4.42621C18.0105 4.95637 15.7698 5.88415 13.734 7.17124L10.7125 4.86836L10.26 5.20592C8.33925 6.6359 6.63694 8.33822 5.20592 10.259L4.86836 10.7125L7.17124 13.734C5.88519 15.7698 4.95637 18.0105 4.42725 20.359L0.662276 20.8674L0.580474 21.4266C0.233592 23.7967 0.233592 26.2042 0.580474 28.5734L0.662276 29.1325L4.42725 29.6409C4.95637 31.9894 5.88519 34.2312 7.17124 36.2669L4.86836 39.2874L5.20592 39.7409C6.63694 41.6617 8.33925 43.364 10.26 44.794L10.7125 45.1316L13.734 42.8297C15.7698 44.1158 18.0105 45.0436 20.36 45.5737L20.8684 49.3387L21.4276 49.4205C23.7967 49.7674 26.2042 49.7674 28.5744 49.4205L29.1325 49.3387L29.6409 45.5737C31.9904 45.0436 34.2312 44.1158 36.2669 42.8297L39.2884 45.1316L39.7409 44.794C41.6617 43.364 43.364 41.6617 44.795 39.7409L45.1326 39.2874L42.8297 36.2659C44.1158 34.2312 45.0446 31.9894 45.5748 29.6409L49.3387 29.1325L49.4205 28.5734C49.7674 26.2042 49.7674 23.7967 49.4205 21.4266L49.3387 20.8674L45.5748 20.359C45.0446 18.0105 44.1158 15.7698 42.8297 13.734L45.1326 10.7125L44.795 10.259C43.364 8.33822 41.6617 6.6359 39.7409 5.20592L39.2884 4.86836L36.2669 7.17124C34.2312 5.88415 31.9904 4.95637 29.6409 4.42621L29.2081 1.22143ZM27.7988 1.98975L28.2969 5.6812L28.8229 5.78578C31.3453 6.28799 33.7455 7.28204 35.8848 8.71099L36.3301 9.00817L39.2926 6.75084C40.7671 7.90539 42.0956 9.2339 43.2501 10.7074L40.9918 13.6709L41.29 14.1161C42.7189 16.2554 43.713 18.6546 44.2152 21.178L44.3187 21.703L48.0112 22.2021C48.2369 24.0608 48.2369 25.9391 48.0112 27.7978L44.3187 28.2969L44.2152 28.8219C43.713 31.3453 42.7189 33.7445 41.29 35.8838L40.9918 36.329L43.2501 39.2926C42.0956 40.7671 40.7671 42.0956 39.2936 43.2491L36.3301 40.9918L35.8848 41.2889C33.7455 42.7179 31.3453 43.7119 28.8229 44.2141L28.2969 44.3187L27.7988 48.0102C25.9402 48.2369 24.0608 48.2369 22.2021 48.0112L21.7041 44.3187L21.1791 44.2141C18.6556 43.7119 16.2554 42.7179 14.1161 41.2889L13.6709 40.9918L10.7084 43.2491C9.2339 42.0956 7.90539 40.766 6.75084 39.2926L9.0092 36.329L8.71202 35.8838C7.28204 33.7445 6.28798 31.3453 5.78682 28.8219L5.68223 28.2969L1.98975 27.7978C1.76402 25.9391 1.76402 24.0608 1.98975 22.2021L5.68223 21.703L5.78682 21.178C6.28798 18.6546 7.28204 16.2554 8.71202 14.1161L9.0092 13.6709L6.75084 10.7074C7.90539 9.2339 9.2339 7.90539 10.7084 6.75084L13.6709 9.00817L14.1161 8.71099C16.2554 7.28204 18.6556 6.28799 21.1791 5.78578L21.7041 5.6812L22.2021 1.98975C24.0608 1.76298 25.9402 1.76298 27.7988 1.98975Z" fill="#06CEAF"/>
<path fill-rule="evenodd" clip-rule="evenodd" d="M24.9994 10.5254C32.9364 10.5334 39.4654 17.0624 39.4734 24.9994C39.4734 32.9394 32.9394 39.4734 24.9994 39.4734C17.0594 39.4734 10.5254 32.9394 10.5254 24.9994C10.5254 17.0594 17.0594 10.5254 24.9994 10.5254ZM20.2284 18.1274L20.2004 18.1454C17.9704 19.7074 16.6374 22.2654 16.6374 24.9904C16.6374 27.9724 18.2344 30.7374 20.8184 32.2274C21.0584 32.3654 21.2054 32.6224 21.2044 32.8984V37.3334L21.4544 37.4074L21.3864 37.3984L21.5604 37.4394L21.4904 37.4294C23.7894 38.0974 26.2314 38.0954 28.5294 37.4234L28.4584 37.4334L28.6134 37.3974L28.7944 37.3324V32.9014C28.7934 32.6234 28.9414 32.3654 29.1804 32.2274C31.7644 30.7374 33.3624 27.9724 33.3624 24.9904C33.3624 22.2624 32.0264 19.7014 29.7914 18.1404C29.7914 18.1404 29.5994 18.0364 29.5704 18.0204C29.1804 17.8134 29.1974 18.3554 29.1974 18.3554V24.9984C29.1954 25.2564 29.0654 25.4964 28.8514 25.6374L25.4174 27.9274C25.1634 28.1024 24.8314 28.1004 24.5824 27.9274L21.1514 25.6394C20.9334 25.4964 20.8034 25.2554 20.8024 24.9984V17.8124L20.2284 18.1274ZM19.1234 36.5074L19.6604 36.7854V33.4754C19.6604 33.4754 19.6584 33.3854 19.6254 33.3424C19.5934 33.2984 19.4654 33.2124 19.4654 33.2124C16.7314 31.3744 15.0864 28.2874 15.0864 24.9924C15.0864 20.9634 17.5444 17.3194 21.2794 15.8084L21.3084 15.7964C21.3944 15.7654 21.4834 15.7494 21.5744 15.7494C21.9974 15.7494 22.3464 16.0974 22.3464 16.5214V24.5804L24.9994 26.3574L27.5434 24.6524C27.6704 24.5654 27.6524 24.4484 27.6524 24.4464V16.5284C27.6564 16.2744 27.7824 16.0354 27.9894 15.8884L27.9934 15.8864C28.2104 15.7474 28.4794 15.7194 28.7224 15.8084C32.4574 17.3224 34.9124 20.9654 34.9124 24.9924C34.9124 28.3004 33.2554 31.3974 30.5034 33.2324C30.5034 33.2324 30.4214 33.2814 30.3814 33.3494C30.3404 33.4194 30.3394 33.5094 30.3394 33.5094V33.8904V36.7784L30.8764 36.5074C35.1974 34.3014 37.9284 29.8424 37.9284 24.9904C37.9284 17.8974 32.0924 12.0614 24.9994 12.0614C17.9074 12.0614 12.0704 17.8974 12.0704 24.9904C12.0704 29.8424 14.8014 34.3014 19.1234 36.5074Z" fill="#06CEAF"/>
</g>
<defs>
<clipPath id="clip0_5320_3039">
<rect width="50" height="50" fill="white"/>
</clipPath>
</defs>
</svg>
