<svg width="90" height="70" viewBox="0 0 90 70" fill="none" xmlns="http://www.w3.org/2000/svg">
<g clip-path="url(#clip0_5844_3817)">
<path d="M45.0001 59.0001C58.2549 59.0001 69.0001 48.2549 69.0001 35.0001C69.0001 21.7452 58.2549 11 45.0001 11C31.7452 11 21 21.7452 21 35.0001C21 48.2549 31.7452 59.0001 45.0001 59.0001Z" fill="#202020"/>
<path d="M55.4912 19.8809C53.0516 19.9658 50.9247 21.3085 49.3417 23.1698C47.5888 25.2082 46.4214 27.6243 45.5793 30.091C44.0758 28.8585 42.9156 27.2629 40.5194 26.5671C39.5681 26.2742 38.5602 26.2147 37.581 26.3937C36.6018 26.5727 35.6801 26.9849 34.8939 27.5954C34.041 28.2333 33.4518 29.1965 33.1736 30.1018C32.4507 32.4565 33.9325 34.5509 34.6084 35.3026L36.083 36.882C36.3866 37.1893 37.1184 38.0024 36.7606 39.159C36.3739 40.4185 34.8542 41.2372 33.2964 40.7547C32.6007 40.5432 31.6014 40.0246 31.8255 39.2945C31.9158 38.9964 32.1327 38.7705 32.2465 38.5139C32.3513 38.2916 32.4019 38.1253 32.4345 38.0259C32.72 37.0971 32.3296 35.8881 31.3357 35.5809C30.4069 35.2954 29.4564 35.5213 29.0877 36.7194C28.6721 38.0783 29.319 40.5432 32.8013 41.5986C36.8817 42.8527 40.3315 40.63 40.8212 37.7314C41.1284 35.9171 40.3098 34.569 38.8099 32.8522L37.5865 31.5005C36.8636 30.7777 36.5926 29.4982 37.3588 28.5296C38.0057 27.711 38.9274 27.3623 40.4363 27.7707C42.6409 28.367 43.6204 29.8976 45.2612 31.1319C44.5854 33.351 44.1408 35.5773 43.7433 37.576L43.4993 39.065C42.3283 45.2092 41.4338 48.583 39.1081 50.5184C38.6382 50.8509 37.9696 51.3497 36.9612 51.3858C36.4318 51.4039 36.2619 51.0389 36.2565 50.8798C36.2438 50.5094 36.5564 50.3377 36.7625 50.1714C37.0733 50.0016 37.5431 49.7197 37.5106 48.8215C37.4744 47.759 36.5962 46.8337 35.324 46.8789C34.3699 46.9114 32.9169 47.8096 32.9712 49.4522C33.029 51.1509 34.6102 52.4213 36.9956 52.34C38.2696 52.2966 41.1158 51.7798 43.9222 48.4421C47.1876 44.6182 48.1002 40.2378 48.7887 37.0284L49.5549 32.7926L50.9319 32.8902C54.9979 32.9751 57.0327 30.8698 57.0634 29.3374C57.0815 28.4104 56.4544 27.4978 55.5743 27.5177C54.9419 27.5357 54.1522 27.955 53.9624 28.826C53.7763 29.6808 55.2563 30.4524 54.0998 31.2005C53.2775 31.7318 51.8047 32.1077 49.7302 31.8023L50.1097 29.7169C50.8795 25.763 51.8264 20.8983 55.4316 20.7826C55.6936 20.77 56.655 20.7953 56.6785 21.4296C56.6857 21.641 56.6333 21.6952 56.3839 22.1813C56.1309 22.5427 56.0352 22.8825 56.0478 23.2529C56.0839 24.2649 56.8502 24.9263 57.9597 24.8865C59.447 24.8377 59.8752 23.3921 59.8499 22.6457C59.7903 20.9001 57.9489 19.7959 55.5129 19.8773L55.4912 19.8809Z" fill="#F3FEFC"/>
</g>
<defs>
<clipPath id="clip0_5844_3817">
<rect width="48" height="48" fill="white" transform="translate(21 11)"/>
</clipPath>
</defs>
</svg>
