<svg width="90" height="70" viewBox="0 0 90 70" fill="none" xmlns="http://www.w3.org/2000/svg">
<path fill-rule="evenodd" clip-rule="evenodd" d="M33 29.1996C34.5997 22.7999 38.6003 19.5996 45 19.5996C54.6 19.5996 55.8 26.7996 60.6 27.9996C63.8003 28.7999 66.6 27.5999 69 24.3996C67.4002 30.7994 63.3997 33.9996 57 33.9996C47.4 33.9996 46.2 26.7996 41.4 25.5996C38.1998 24.7994 35.4 25.9994 33 29.1996ZM21 43.5996C22.5997 37.1999 26.6003 33.9996 33 33.9996C42.6 33.9996 43.8 41.1996 48.6 42.3996C51.8002 43.1999 54.6 41.9999 57 38.7996C55.4002 45.1994 51.3997 48.3996 45 48.3996C35.4 48.3996 34.2 41.1996 29.4 39.9996C26.1997 39.1994 23.4 40.3994 21 43.5996Z" fill="#202020"/>
</svg>
