<svg width="55" height="55" viewBox="0 0 55 55" fill="none" xmlns="http://www.w3.org/2000/svg">
<g id="Vector 14" clip-path="url(#clip0_4774_4869)">
<path id="path18398" d="M27.4998 0.000312544C12.323 0.000312544 0 12.3233 0 27.5002C0 42.677 12.323 55 27.4998 55C42.6767 55 54.9997 42.677 54.9997 27.5002C54.9997 23.2819 54.0452 19.2846 52.3446 15.7106L49.6143 18.4409C49.0987 18.9594 48.3958 19.2517 47.6646 19.2519H46.9055C47.986 21.7865 48.5848 24.5737 48.5848 27.5002C48.5848 39.1332 39.1329 48.5851 27.4998 48.5851C15.8668 48.5851 6.41484 39.1332 6.41484 27.5002C6.41484 15.8671 15.8668 6.41503 27.4998 6.41503C30.4269 6.41503 33.2148 7.01347 35.7498 8.09444V7.3353C35.7499 6.60415 36.0423 5.90121 36.5608 5.38565L39.2893 2.65539C35.7153 0.954786 31.7181 0.000312544 27.4998 0.000312544ZM44.8913 0.000312544C44.6567 0.00730828 44.4337 0.103934 44.2683 0.270452L37.8535 6.68528C37.7678 6.77045 37.6998 6.87179 37.6534 6.98333C37.607 7.09486 37.5831 7.2144 37.5831 7.3352V14L28 23.5L27 28L31.5 27L41 17.4169H47.6646C47.7854 17.4169 47.905 17.3931 48.0165 17.3467C48.128 17.3004 48.2293 17.2324 48.3145 17.1468L54.7293 10.7319C54.857 10.6035 54.9437 10.4402 54.9786 10.2625C55.0136 10.0849 54.9951 9.90084 54.9256 9.73367C54.8561 9.5665 54.7386 9.42364 54.588 9.32312C54.4375 9.22261 54.2605 9.16893 54.0794 9.16887C42.1629 9.16887 48.5848 9.16887 45.8314 9.16887C45.8314 5.78777 45.8314 0.911807 45.8314 0.911807C45.831 0.789751 45.8061 0.668998 45.7584 0.556662C45.7107 0.444325 45.641 0.342706 45.5534 0.257658C45.4659 0.172611 45.3623 0.105881 45.2486 0.0614243C45.1349 0.0169675 45.0134 -0.00277474 44.8913 0.000312544ZM27.4998 12.83C19.4106 12.83 12.8297 19.4109 12.8297 27.5002C12.8297 35.5894 19.4106 42.1632 27.4998 42.1632C35.5891 42.1632 42.1628 35.5894 42.1628 27.5002C42.1628 25.1663 41.6032 22.9655 40.6303 21.0047L35.6084 26.0266C35.6953 26.5055 35.748 26.9966 35.748 27.5002C35.748 32.0456 32.0453 35.7482 27.4998 35.7482C22.9544 35.7482 19.2517 32.0456 19.2517 27.5002C19.2517 22.9547 22.9544 19.2519 27.4998 19.2519C28.0034 19.2519 28.4944 19.3046 28.9733 19.3915L33.997 14.3678C32.0361 13.3929 29.8351 12.83 27.4998 12.83Z" fill="#06CEAF"/>
</g>
<defs>
<clipPath id="clip0_4774_4869">
<rect width="55" height="55" fill="white"/>
</clipPath>
</defs>
</svg>
