<svg width="60" height="60" viewBox="0 0 60 60" fill="none" xmlns="http://www.w3.org/2000/svg">
<g id="teamwork (1) 1" clip-path="url(#clip0_4249_474)">
<path id="Vector" d="M53.095 43.4705L52.5695 43.92L53.1816 44.2417C56.9527 46.2232 59.5312 50.1791 59.5312 54.7266V58.2422C59.5312 58.9541 58.9541 59.5312 58.2422 59.5312H37.1484C36.4365 59.5312 35.8594 58.9541 35.8594 58.2422V54.7266C35.8594 53.9068 35.9432 53.1063 36.1027 52.3331L36.2496 51.6199L35.5396 51.7814C33.7976 52.1774 31.9295 52.3828 30 52.3828C18.1692 52.3828 8.44465 43.1434 7.56586 31.605L7.53293 31.1719H1.75781C1.0459 31.1719 0.46875 30.5947 0.46875 29.8828V26.3672C0.46875 21.8197 3.04734 17.8638 6.81844 15.8823L7.43051 15.5606L6.90504 15.1111C5.11969 13.5839 3.98438 11.3173 3.98438 8.78906C3.98438 4.20129 7.71691 0.46875 12.3047 0.46875C16.8925 0.46875 20.625 4.20129 20.625 8.78906C20.625 8.79879 20.6243 8.8084 20.6243 8.81812V9.51164L21.2678 9.25313C23.9497 8.1757 26.9099 7.61719 30 7.61719C42.3734 7.61719 52.5 17.7412 52.5 30.1172V30.3559L52.6869 30.4965C54.7065 32.0162 56.0156 34.4321 56.0156 37.1484C56.0156 39.6766 54.8803 41.9433 53.095 43.4705ZM38.4375 56.9531H56.9531V54.7266C56.9531 49.6218 52.8001 45.4688 47.6953 45.4688C42.5905 45.4688 38.4375 49.6218 38.4375 54.7266V56.9531ZM30 49.8047C32.7606 49.8047 35.3534 49.346 37.54 48.4808L37.6791 48.4259L37.7606 48.3002C38.8676 46.5952 40.4012 45.1916 42.2091 44.2417L42.8211 43.92L42.2957 43.4705C40.5103 41.9433 39.375 39.6766 39.375 37.1484C39.375 32.5607 43.1075 28.8281 47.6953 28.8281C48.2434 28.8281 48.7787 28.8829 49.2974 28.9845L49.905 29.1035L49.8547 28.4864C49.0222 18.2616 40.4358 10.1953 30 10.1953C26.1444 10.1953 22.5409 11.1647 19.5443 12.9916L19.4484 13.05L19.3894 13.1456C18.9325 13.8858 18.3623 14.5482 17.7043 15.1111L17.1789 15.5606L17.7909 15.8823C21.562 17.8638 24.1406 21.8197 24.1406 26.3672V29.8828C24.1406 30.5947 23.5635 31.1719 22.8516 31.1719H10.1143L10.1603 31.6827C11.0734 41.8271 19.6216 49.8047 30 49.8047ZM53.4375 37.1484C53.4375 33.9821 50.8616 31.4062 47.6953 31.4062C44.529 31.4062 41.9531 33.9821 41.9531 37.1484C41.9531 40.3147 44.529 42.8906 47.6953 42.8906C50.8616 42.8906 53.4375 40.3147 53.4375 37.1484ZM3.04688 26.3672V28.5938H21.5625V26.3672C21.5625 21.2624 17.4095 17.1094 12.3047 17.1094C7.19988 17.1094 3.04688 21.2624 3.04688 26.3672ZM12.3047 3.04688C9.1384 3.04688 6.5625 5.62277 6.5625 8.78906C6.5625 11.9554 9.1384 14.5312 12.3047 14.5312C15.471 14.5312 18.0469 11.9554 18.0469 8.78906C18.0469 5.62277 15.471 3.04688 12.3047 3.04688Z" fill="#08DBBA"/>
</g>
<defs>
<clipPath id="clip0_4249_474">
<rect width="60" height="60" fill="white"/>
</clipPath>
</defs>
</svg>
