<svg width="60" height="60" viewBox="0 0 60 60" fill="none" xmlns="http://www.w3.org/2000/svg">
<rect width="60" height="60" fill="url(#paint0_linear_4922_4578)"/>
<path d="M43.1328 20.7976L41.1915 22.7389L41.6193 23.2523C43.8738 25.9576 45.1011 29.3337 45.1011 32.8985C45.1011 41.246 38.346 48 29.9999 48C21.6525 48 14.8984 41.2449 14.8984 32.8985C14.8984 24.9623 20.9782 18.555 28.6045 17.8615L29.2699 17.801V13.4597H27.1254C26.7223 13.4597 26.3957 13.1328 26.3957 12.7297C26.3957 12.3267 26.7223 12 27.1254 12H32.8741C33.2772 12 33.6039 12.3267 33.6039 12.7297C33.6039 13.1328 33.2772 13.4597 32.8741 13.4597H30.7296V17.801L31.3951 17.8615C34.4409 18.1384 37.2964 19.3212 39.6462 21.2791L40.1595 21.7069L42.1008 19.7656C42.3858 19.4806 42.8478 19.4806 43.1328 19.7656C43.4179 20.0505 43.4178 20.5126 43.1328 20.7976ZM29.9996 46.5403C37.5218 46.5403 43.6414 40.4207 43.6414 32.8985C43.6414 25.3766 37.5218 19.2571 29.9996 19.2571C22.4778 19.2571 16.3578 25.3766 16.3578 32.8985C16.3578 40.4207 22.4778 46.5403 29.9996 46.5403ZM40.4303 22.4681C40.7153 22.7531 44.785 32.7151 44.5 33H30.5H30L29.9996 18.5C30.2847 18.2149 40.1453 22.1831 40.4303 22.4681Z" fill="#06CEAF"/>
<defs>
<linearGradient id="paint0_linear_4922_4578" x1="30" y1="0" x2="30" y2="60" gradientUnits="userSpaceOnUse">
<stop stop-color="#ECF6F4"/>
<stop offset="1" stop-color="#ECF6F4" stop-opacity="0"/>
</linearGradient>
</defs>
</svg>
