<svg width="80" height="60" viewBox="0 0 80 60" fill="none" xmlns="http://www.w3.org/2000/svg">
<rect width="80" height="60" rx="30" fill="#F3FEFC"/>
<rect width="80" height="60" rx="30" fill="black" fill-opacity="0.06"/>
<path d="M55 26V44C55 44.2652 54.8946 44.5196 54.7071 44.7071C54.5196 44.8946 54.2652 45 54 45H36C35.7348 45 35.4804 44.8946 35.2929 44.7071C35.1054 44.5196 35 44.2652 35 44V26C35 25.7348 35.1054 25.4804 35.2929 25.2929C35.4804 25.1054 35.7348 25 36 25H54C54.2652 25 54.5196 25.1054 54.7071 25.2929C54.8946 25.4804 55 25.7348 55 26V26Z" stroke="black" stroke-width="2" stroke-linecap="round" stroke-linejoin="round"/>
<path d="M45 16V34C45 34.2652 44.8946 34.5196 44.7071 34.7071C44.5196 34.8946 44.2652 35 44 35H26C25.7348 35 25.4804 34.8946 25.2929 34.7071C25.1054 34.5196 25 34.2652 25 34V16C25 15.7348 25.1054 15.4804 25.2929 15.2929C25.4804 15.1054 25.7348 15 26 15H44C44.2652 15 44.5196 15.1054 44.7071 15.2929C44.8946 15.4804 45 15.7348 45 16V16Z" stroke="black" stroke-width="2" stroke-linecap="round" stroke-linejoin="round"/>
</svg>
