<svg width="47" height="40" viewBox="0 0 47 40" fill="none" xmlns="http://www.w3.org/2000/svg">
<path fill-rule="evenodd" clip-rule="evenodd" d="M19.7716 20.2276V28.3645C19.7716 29.8398 20.3649 31.2543 21.3991 32.2885C22.4485 33.3379 23.8475 33.9156 25.3227 33.9156H38.6001L44.3948 39.7103C44.6837 39.9993 45.1095 40.0755 45.4746 39.9234C45.8396 39.7713 46.0831 39.4062 46.0831 39.0108V19.2391C46.0831 17.7639 45.5051 16.3645 44.4557 15.3151C43.4215 14.2809 42.0069 13.688 40.5317 13.688H27.8324V5.55111C27.8324 4.07584 27.2544 2.6765 26.205 1.62709C25.1707 0.592881 23.7562 0 22.2809 0H5.55111C4.07584 0 2.67688 0.592881 1.62746 1.62709C0.593252 2.6765 0 4.07584 0 5.55111L0 25.3227C0 25.7181 0.243194 26.0833 0.608209 26.2354C0.988432 26.3875 1.41459 26.3112 1.68835 26.0223L7.48267 20.2276H19.7716ZM27.7411 15.6649C27.5434 16.7752 27.011 17.7944 26.205 18.6005C25.1707 19.6499 23.7562 20.2276 22.2809 20.2276H21.7488V28.3645C21.7488 29.3075 22.129 30.2202 22.7982 30.8894C23.4674 31.5738 24.3798 31.9387 25.3227 31.9387H39.0108C39.2845 31.9387 39.5282 32.0451 39.7107 32.2276L44.1059 36.6232V19.2391C44.1059 18.2962 43.741 17.3842 43.0566 16.715C42.3874 16.0458 41.4898 15.6649 40.5317 15.6649H27.7411ZM38.5091 28.5776H28.2431V27.3612H32.7144V25.0494H29.2163V23.8323H32.7144V21.6727H28.5167V20.4563H33.3683C32.7752 19.8479 32.091 19.3762 31.3153 19.0112L32.319 18.0836C33.1707 18.4334 33.9311 18.9658 34.5851 19.6654L33.6119 20.4563H38.2503V21.6727H34.0526V23.8323H37.5508V25.0494H34.0526V27.3612H38.5091V28.5776ZM1.97724 22.9352V5.55111C1.97724 4.60816 2.35737 3.69613 3.02656 3.02693C3.69576 2.35774 4.60816 1.97686 5.55111 1.97686H22.2809C23.2391 1.97686 24.1367 2.35774 24.8059 3.02693C25.4903 3.69613 25.8552 4.60816 25.8552 5.55111V14.6765C25.8552 15.6194 25.4903 16.5322 24.8059 17.2014C24.1367 17.8858 23.2391 18.2507 22.2809 18.2507H7.072C6.81345 18.2507 6.57017 18.3571 6.37245 18.5396L1.97724 22.9352ZM15.9694 12.0454H11.8326L11.0113 13.9621H9.42946L13.1556 5.65805H14.6765L18.4182 13.9621H16.8059L15.9694 12.0454ZM15.4674 10.8289L13.9008 7.19379L12.3498 10.8289H15.4674Z" fill="#08DBBA"/>
</svg>
