<svg width="60" height="60" viewBox="0 0 60 60" fill="none" xmlns="http://www.w3.org/2000/svg">
<rect width="60" height="60" fill="url(#paint0_linear_5212_3958)"/>
<path fill-rule="evenodd" clip-rule="evenodd" d="M28.2177 30.1821V36.6916C28.2177 37.8718 28.6923 39.0035 29.5196 39.8308C30.3592 40.6704 31.4784 41.1325 32.6586 41.1325H43.2805L47.9162 45.7682C48.1474 45.9994 48.488 46.0604 48.78 45.9387C49.072 45.8171 49.2669 45.5249 49.2669 45.2086V29.3913C49.2669 28.2111 48.8045 27.0916 47.9649 26.2521C47.1376 25.4247 46.0059 24.9504 44.8257 24.9504H34.6663V18.4409C34.6663 17.2607 34.2039 16.1412 33.3644 15.3017C32.537 14.4743 31.4053 14 30.2251 14H16.8413C15.6611 14 14.5419 14.4743 13.7024 15.3017C12.875 16.1412 12.4004 17.2607 12.4004 18.4409V34.2582C12.4004 34.5745 12.5949 34.8666 12.887 34.9883C13.1911 35.11 13.5321 35.049 13.7511 34.8178L18.3865 30.1821H28.2177ZM34.5932 26.5319C34.4351 27.4201 34.0092 28.2355 33.3644 28.8804C32.537 29.7199 31.4053 30.1821 30.2251 30.1821H29.7995V36.6916C29.7995 37.446 30.1036 38.1762 30.6389 38.7115C31.1743 39.2591 31.9042 39.551 32.6586 39.551H43.609C43.828 39.551 44.0229 39.6361 44.1689 39.7821L47.6851 43.2986V29.3913C47.6851 28.637 47.3932 27.9073 46.8456 27.372C46.3103 26.8366 45.5922 26.5319 44.8257 26.5319H34.5932ZM43.2077 36.8621H34.9949V35.889H38.5719V34.0395H35.7734V33.0658H38.5719V31.3382H35.2138V30.365H39.095C38.6205 29.8784 38.0732 29.5009 37.4526 29.2089L38.2556 28.4669C38.9369 28.7467 39.5453 29.1726 40.0685 29.7323L39.2899 30.365H43.0006V31.3382H39.6425V33.0658H42.441V34.0395H39.6425V35.889H43.2077V36.8621ZM13.9822 32.3481V18.4409C13.9822 17.6865 14.2863 16.9569 14.8216 16.4215C15.357 15.8862 16.0869 15.5815 16.8413 15.5815H30.2251C30.9917 15.5815 31.7097 15.8862 32.2451 16.4215C32.7926 16.9569 33.0845 17.6865 33.0845 18.4409V25.7412C33.0845 26.4955 32.7926 27.2258 32.2451 27.7611C31.7097 28.3086 30.9917 28.6006 30.2251 28.6006H18.058C17.8512 28.6006 17.6565 28.6857 17.4984 28.8317L13.9822 32.3481ZM25.1759 23.6363H21.8665L21.2094 25.1697H19.944L22.9249 18.5264H24.1416L27.1349 25.1697H25.8451L25.1759 23.6363ZM24.7743 22.6631L23.521 19.755L22.2803 22.6631H24.7743Z" fill="#06CEAF"/>
<defs>
<linearGradient id="paint0_linear_5212_3958" x1="30" y1="0" x2="30" y2="60" gradientUnits="userSpaceOnUse">
<stop stop-color="#ECF6F4"/>
<stop offset="1" stop-color="#ECF6F4" stop-opacity="0"/>
</linearGradient>
</defs>
</svg>
