<svg width="90" height="70" viewBox="0 0 90 70" fill="none" xmlns="http://www.w3.org/2000/svg">
<g clip-path="url(#clip0_5844_3812)">
<path d="M21 34.9995V58.9995H69.0015V10.998H21V34.9995ZM59.6828 33.087C60.9015 33.3915 61.8315 33.933 62.685 34.8165C63.1275 35.289 63.7822 36.15 63.8355 36.3555C63.8505 36.4155 61.7633 37.818 60.498 38.6033C60.453 38.6333 60.2692 38.436 60.063 38.1308C59.4458 37.2308 58.7985 36.843 57.8078 36.7748C56.3527 36.6758 55.4077 37.4378 55.4227 38.7098C55.4227 39.0833 55.4753 39.3038 55.6283 39.6098C55.9485 40.2728 56.5433 40.6688 58.4093 41.4773C61.8458 42.9548 63.3158 43.9298 64.2292 45.3173C65.2492 46.8638 65.4788 49.3328 64.7858 51.1688C64.0238 53.1653 62.1345 54.5213 59.4757 54.9713C58.653 55.116 56.7022 55.0935 55.8187 54.9338C53.8913 54.591 52.0627 53.6385 50.9347 52.389C50.4922 51.9015 49.632 50.6288 49.6853 50.5365C49.7078 50.5065 49.9065 50.3843 50.1278 50.2545L51.9105 49.227L53.2905 48.4268L53.58 48.8543C53.9835 49.4715 54.8677 50.3168 55.401 50.5988C56.9325 51.4065 59.0355 51.2918 60.0713 50.3625C60.5138 49.959 60.696 49.5398 60.696 48.9225C60.696 48.366 60.6285 48.1223 60.3382 47.7038C59.9647 47.1713 59.2027 46.7213 57.0382 45.7838C54.5617 44.7173 53.4953 44.0543 52.5203 43.0028C51.9563 42.393 51.423 41.418 51.2018 40.6028C51.0188 39.9248 50.973 38.2253 51.1178 37.5398C51.6278 35.1398 53.4338 33.4785 56.04 32.9835C56.886 32.8238 58.8525 32.8845 59.682 33.09L59.6828 33.087ZM48.414 35.0895L48.429 37.0545H42.1815V54.807H37.7625V37.0545H31.515V35.127L31.5675 33.147C31.59 33.117 35.3925 33.102 40.002 33.1095L48.3908 33.132L48.414 35.0895Z" fill="#202020"/>
</g>
<defs>
<clipPath id="clip0_5844_3812">
<rect width="48" height="48" fill="white" transform="translate(21 11)"/>
</clipPath>
</defs>
</svg>
