<svg width="60" height="60" viewBox="0 0 60 60" fill="none" xmlns="http://www.w3.org/2000/svg">
<rect width="60" height="60" fill="url(#paint0_linear_4815_3068)"/>
<g clip-path="url(#clip0_4815_3068)">
<path d="M46.9453 12.2812C47.3725 12.2812 47.7188 12.6275 47.7188 13.0547V40.5469C47.7188 40.974 47.3725 41.3203 46.9453 41.3203H34.9922V46.1719H38.434C38.8611 46.1719 39.2074 46.5182 39.2074 46.9453C39.2074 47.3725 38.8611 47.7188 38.434 47.7188H21.566C21.1389 47.7188 20.7926 47.3725 20.7926 46.9453C20.7926 46.5182 21.1389 46.1719 21.566 46.1719H25.0078V41.3203H13.0547C12.6275 41.3203 12.2812 40.974 12.2812 40.5469V13.0547C12.2812 12.6275 12.6275 12.2812 13.0547 12.2812H46.9453ZM26.5547 46.1719H33.4453V41.3203H26.5547V46.1719ZM13.8281 39.7734H46.1719V13.8281H13.8281V39.7734ZM17.3473 37.098C16.9201 37.098 16.5738 36.7518 16.5738 36.3246V29.9965C16.5738 29.5693 16.9201 29.223 17.3473 29.223H27.8941C28.3213 29.223 28.6676 29.5693 28.6676 29.9965V36.3246C28.6676 36.7518 28.3213 37.098 27.8941 37.098H17.3473ZM42.6598 29.223C43.0869 29.223 43.4332 29.5693 43.4332 29.9965V36.3246C43.4332 36.7518 43.0869 37.098 42.6598 37.098H32.1129C31.6857 37.098 31.3395 36.7518 31.3395 36.3246V29.9965C31.3395 29.5693 31.6857 29.223 32.1129 29.223H42.6598ZM27.1207 30.7699H18.1207V35.5512H27.1207V30.7699ZM32.8863 35.5512H41.8863V30.7699H32.8863V35.5512ZM36.3316 26.5547C35.9045 26.5547 35.5582 26.2084 35.5582 25.7812C35.5582 25.3541 35.9045 25.0078 36.3316 25.0078H42.6598C43.0869 25.0078 43.4332 25.3541 43.4332 25.7812C43.4332 26.2084 43.0869 26.5547 42.6598 26.5547H36.3316ZM17.3473 26.5547C16.9201 26.5547 16.5738 26.2084 16.5738 25.7812V17.3438C16.5738 16.9166 16.9201 16.5703 17.3473 16.5703H32.1059C32.533 16.5703 32.8793 16.9166 32.8793 17.3438V25.7812C32.8793 26.2084 32.533 26.5547 32.1059 26.5547H17.3473ZM31.3324 18.1172H18.1207V25.0078H31.3324V18.1172ZM36.3316 22.3359C35.9045 22.3359 35.5582 21.9896 35.5582 21.5625C35.5582 21.1354 35.9045 20.7891 36.3316 20.7891H42.6598C43.0869 20.7891 43.4332 21.1354 43.4332 21.5625C43.4332 21.9896 43.0869 22.3359 42.6598 22.3359H36.3316ZM36.3316 18.1172C35.9045 18.1172 35.5582 17.7709 35.5582 17.3438C35.5582 16.9166 35.9045 16.5703 36.3316 16.5703H42.6527C43.0799 16.5703 43.4262 16.9166 43.4262 17.3438C43.4262 17.7709 43.0799 18.1172 42.6527 18.1172H36.3316Z" fill="#06CEAF"/>
</g>
<defs>
<linearGradient id="paint0_linear_4815_3068" x1="30" y1="0" x2="30" y2="60" gradientUnits="userSpaceOnUse">
<stop stop-color="#ECF6F4"/>
<stop offset="1" stop-color="#ECF6F4" stop-opacity="0"/>
</linearGradient>
<clipPath id="clip0_4815_3068">
<rect width="36" height="36" fill="white" transform="translate(12 12)"/>
</clipPath>
</defs>
</svg>
