<svg width="50" height="50" viewBox="0 0 50 50" fill="none" xmlns="http://www.w3.org/2000/svg">
<g id="ui-design 1" clip-path="url(#clip0_4249_232)">
<path id="Vector" d="M48.5352 0.390625C49.1284 0.390625 49.6094 0.871582 49.6094 1.46484V39.6484C49.6094 40.2417 49.1284 40.7227 48.5352 40.7227H31.9336V47.4609H36.7139C37.3071 47.4609 37.7881 47.9419 37.7881 48.5352C37.7881 49.1284 37.3071 49.6094 36.7139 49.6094H13.2861C12.6929 49.6094 12.2119 49.1284 12.2119 48.5352C12.2119 47.9419 12.6929 47.4609 13.2861 47.4609H18.0664V40.7227H1.46484C0.871582 40.7227 0.390625 40.2417 0.390625 39.6484V1.46484C0.390625 0.871582 0.871582 0.390625 1.46484 0.390625H48.5352ZM20.2148 47.4609H29.7852V40.7227H20.2148V47.4609ZM2.53906 38.5742H47.4609V2.53906H2.53906V38.5742ZM7.42676 34.8584C6.8335 34.8584 6.35254 34.3774 6.35254 33.7842V24.9951C6.35254 24.4019 6.8335 23.9209 7.42676 23.9209H22.0752C22.6685 23.9209 23.1494 24.4019 23.1494 24.9951V33.7842C23.1494 34.3774 22.6685 34.8584 22.0752 34.8584H7.42676ZM42.583 23.9209C43.1763 23.9209 43.6572 24.4019 43.6572 24.9951V33.7842C43.6572 34.3774 43.1763 34.8584 42.583 34.8584H27.9346C27.3413 34.8584 26.8603 34.3774 26.8603 33.7842V24.9951C26.8603 24.4019 27.3413 23.9209 27.9346 23.9209H42.583ZM21.001 26.0693H8.50098V32.71H21.001V26.0693ZM29.0088 32.71H41.5088V26.0693H29.0088V32.71ZM33.7939 20.2148C33.2007 20.2148 32.7197 19.7339 32.7197 19.1406C32.7197 18.5474 33.2007 18.0664 33.7939 18.0664H42.583C43.1763 18.0664 43.6572 18.5474 43.6572 19.1406C43.6572 19.7339 43.1763 20.2148 42.583 20.2148H33.7939ZM7.42676 20.2148C6.8335 20.2148 6.35254 19.7339 6.35254 19.1406V7.42188C6.35254 6.82861 6.8335 6.34766 7.42676 6.34766H27.9248C28.5181 6.34766 28.999 6.82861 28.999 7.42188V19.1406C28.999 19.7339 28.5181 20.2148 27.9248 20.2148H7.42676ZM26.8506 8.49609H8.50098V18.0664H26.8506V8.49609ZM33.7939 14.3555C33.2007 14.3555 32.7197 13.8745 32.7197 13.2812C32.7197 12.688 33.2007 12.207 33.7939 12.207H42.583C43.1763 12.207 43.6572 12.688 43.6572 13.2812C43.6572 13.8745 43.1763 14.3555 42.583 14.3555H33.7939ZM33.7939 8.49609C33.2007 8.49609 32.7197 8.01514 32.7197 7.42188C32.7197 6.82861 33.2007 6.34766 33.7939 6.34766H42.5732C43.1665 6.34766 43.6475 6.82861 43.6475 7.42188C43.6475 8.01514 43.1665 8.49609 42.5732 8.49609H33.7939Z" fill="#08DBBA"/>
</g>
<defs>
<clipPath id="clip0_4249_232">
<rect width="50" height="50" fill="white"/>
</clipPath>
</defs>
</svg>
