<svg width="55" height="55" viewBox="0 0 55 55" fill="none" xmlns="http://www.w3.org/2000/svg">
<g id="Vector 14" clip-path="url(#clip0_4708_3567)">
<path id="Vector" d="M50.6834 0C53.0637 0 55 1.93627 55 4.3166V50.6834C55 53.0637 53.0637 55 50.6834 55H28.6586C28.245 55 27.9091 54.6641 27.9091 54.2494C27.9091 53.8346 28.245 53.4988 28.6586 53.4988H50.6834C52.2353 53.4988 53.4988 52.2365 53.4988 50.6834V4.3166C53.4988 2.76352 52.2353 1.50123 50.6834 1.50123H4.3166C2.76465 1.50123 1.50123 2.76352 1.50123 4.3166V26.3403C1.50123 26.755 1.16537 27.0909 0.750615 27.0909C0.335861 27.0909 0 26.755 0 26.3403V4.3166C0 1.93627 1.93627 0 4.3166 0H50.6834ZM18.5839 32.0995C20.9642 32.0995 22.9005 34.0358 22.9005 36.4161V50.6834C22.9005 53.0637 20.9642 55 18.5839 55H4.3166C1.93627 55 0 53.0637 0 50.6834V36.4161C0 34.0358 1.93627 32.0995 4.3166 32.0995H18.5839ZM21.3993 50.6834V36.4161C21.3993 34.863 20.1359 33.6007 18.5839 33.6007H4.3166C2.76465 33.6007 1.50123 34.863 1.50123 36.4161V50.6834C1.50123 52.2365 2.76465 53.4988 4.3166 53.4988H18.5839C20.1359 53.4988 21.3993 52.2365 21.3993 50.6834ZM28.0308 28.0308C27.7378 28.3227 27.2532 28.3137 26.9692 28.0308C26.6761 27.7378 26.6761 27.2622 26.9692 26.9692L39.955 13.9844H33.843C33.4283 13.9844 33.0924 13.6486 33.0924 13.2338C33.0924 12.8191 33.4283 12.4832 33.843 12.4832H41.7662C42.1742 12.4832 42.5168 12.8315 42.5168 13.2338V21.157C42.5168 21.5717 42.1809 21.9076 41.7662 21.9076C41.3526 21.9076 41.0156 21.5717 41.0156 21.157V15.045L28.0308 28.0308Z" fill="#06CEAF"/>
</g>
<defs>
<clipPath id="clip0_4708_3567">
<rect width="55" height="55" fill="white"/>
</clipPath>
</defs>
</svg>
