<svg width="55" height="55" viewBox="0 0 55 55" fill="none" xmlns="http://www.w3.org/2000/svg">
<g id="user 1" clip-path="url(#clip0_4795_7029)">
<path id="Vector" d="M19.4694 25.7446L21.4434 25.2434C21.4 25.2108 19.6594 23.9279 19.6159 23.8954C16.3011 21.4183 14.2492 17.4412 14.2492 13.2488C14.2492 12.6734 14.716 12.2066 15.2896 12.2066C15.8632 12.2066 16.33 12.6734 16.33 13.2488C16.33 17.4068 18.7257 21.317 22.435 23.2078C26.2058 25.133 30.8325 24.7277 34.2179 22.1801C37.5743 19.6523 39.2517 15.3459 38.4917 11.2114C37.7426 7.15288 34.7046 3.7548 30.7511 2.55516C27.9501 1.70474 24.8596 2.0051 22.2703 3.37664C21.7619 3.64443 21.1322 3.45082 20.8626 2.94419C20.5948 2.43574 20.7866 1.80607 21.2951 1.53646C24.3674 -0.0901976 28.0333 -0.443033 31.3554 0.563C36.0472 1.9852 39.6497 6.01657 40.5382 10.8332C41.4393 15.7367 39.4507 20.8429 35.47 23.8411L33.6932 25.1547L35.5659 25.7211C42.5213 28.0226 48.3892 33.2573 51.9302 40.3864C53.9115 44.3743 54.9429 48.9376 55.0062 53.9461C55.0135 54.507 54.5756 54.9702 54.0183 54.9992C54.0002 54.9992 53.9821 54.9992 53.9658 54.9992C53.3977 54.9992 52.9326 54.5414 52.9254 53.9696C52.8657 49.2597 51.8995 45.0004 50.0665 41.3092C46.3645 33.8598 39.97 28.6686 32.5388 27.0438C25.0731 25.4153 16.8982 27.6499 11.2058 32.89C5.43194 38.2024 2.18585 45.6879 2.08091 53.9714C2.07367 54.5378 1.63579 55.0227 1.05316 54.9992H1.0405C0.452438 54.9919 -0.00715333 54.5197 8.4317e-05 53.9461C0.112268 45.0963 3.58634 37.0733 9.79624 31.3592C12.5791 28.7989 15.9084 26.899 19.4694 25.7446Z" fill="#06CEAF"/>
</g>
<defs>
<clipPath id="clip0_4795_7029">
<rect width="55" height="55" fill="white"/>
</clipPath>
</defs>
</svg>
