<svg width="80" height="60" viewBox="0 0 80 60" fill="none" xmlns="http://www.w3.org/2000/svg">
<rect width="80" height="60" rx="30" fill="#08DBBA"/>
<g clip-path="url(#clip0_4815_2877)">
<path d="M55.3966 38.9803L55.0463 39.28L55.4544 39.4945C57.9684 40.8155 59.6875 43.4527 59.6875 46.4844V48.8281C59.6875 49.3027 59.3027 49.6875 58.8281 49.6875H44.7656C44.291 49.6875 43.9062 49.3027 43.9062 48.8281V46.4844C43.9062 45.9379 43.9621 45.4042 44.0684 44.8887L44.1664 44.4133L43.693 44.5209C42.5317 44.7849 41.2863 44.9219 40 44.9219C32.1128 44.9219 25.6298 38.7623 25.0439 31.07L25.022 30.7812H21.1719C20.6973 30.7812 20.3125 30.3965 20.3125 29.9219V27.5781C20.3125 24.5465 22.0316 21.9092 24.5456 20.5882L24.9537 20.3737L24.6034 20.0741C23.4131 19.0559 22.6562 17.5448 22.6562 15.8594C22.6562 12.8009 25.1446 10.3125 28.2031 10.3125C31.2616 10.3125 33.75 12.8009 33.75 15.8594C33.75 15.8659 33.7495 15.8723 33.7495 15.8787V16.3411L34.1785 16.1687C35.9665 15.4505 37.9399 15.0781 40 15.0781C48.2489 15.0781 55 21.8275 55 30.0781V30.2373L55.1246 30.331C56.471 31.3441 57.3438 32.9548 57.3438 34.7656C57.3438 36.4511 56.5869 37.9622 55.3966 38.9803ZM45.625 47.9688H57.9688V46.4844C57.9688 43.0812 55.2001 40.3125 51.7969 40.3125C48.3937 40.3125 45.625 43.0812 45.625 46.4844V47.9688ZM40 43.2031C41.8404 43.2031 43.5689 42.8973 45.0266 42.3205L45.1194 42.2839L45.1737 42.2002C45.9117 41.0634 46.9341 40.1277 48.1394 39.4945L48.5474 39.28L48.1971 38.9803C47.0069 37.9622 46.25 36.4511 46.25 34.7656C46.25 31.7071 48.7384 29.2188 51.7969 29.2188C52.1623 29.2188 52.5191 29.2552 52.8649 29.323L53.27 29.4023L53.2365 28.9909C52.6815 22.1744 46.9572 16.7969 40 16.7969C37.4296 16.7969 35.0273 17.4431 33.0295 18.6611L32.9656 18.7L32.9262 18.7638C32.6216 19.2572 32.2416 19.6988 31.8029 20.0741L31.4526 20.3737L31.8606 20.5882C34.3747 21.9092 36.0938 24.5465 36.0938 27.5781V29.9219C36.0938 30.3965 35.709 30.7812 35.2344 30.7812H26.7429L26.7735 31.1218C27.3823 37.8848 33.0811 43.2031 40 43.2031ZM55.625 34.7656C55.625 32.6548 53.9077 30.9375 51.7969 30.9375C49.686 30.9375 47.9688 32.6548 47.9688 34.7656C47.9688 36.8765 49.686 38.5938 51.7969 38.5938C53.9077 38.5938 55.625 36.8765 55.625 34.7656ZM22.0312 27.5781V29.0625H34.375V27.5781C34.375 24.1749 31.6063 21.4062 28.2031 21.4062C24.7999 21.4062 22.0312 24.1749 22.0312 27.5781ZM28.2031 12.0312C26.0923 12.0312 24.375 13.7485 24.375 15.8594C24.375 17.9702 26.0923 19.6875 28.2031 19.6875C30.314 19.6875 32.0312 17.9702 32.0312 15.8594C32.0312 13.7485 30.314 12.0312 28.2031 12.0312Z" fill="#202020"/>
</g>
<defs>
<clipPath id="clip0_4815_2877">
<rect width="40" height="40" fill="white" transform="translate(20 10)"/>
</clipPath>
</defs>
</svg>
