<svg width="80" height="60" viewBox="0 0 80 60" fill="none" xmlns="http://www.w3.org/2000/svg">
<rect width="80" height="60" rx="30" fill="#08DBBA"/>
<g clip-path="url(#clip0_319_282)">
<path d="M57.9292 47.9293C56.863 48.9956 55.4623 49.5286 54.0617 49.5286C52.6611 49.5286 51.2605 48.9955 50.1942 47.9293L40.8393 38.5744L30.6923 48.7212C30.17 49.2436 29.4756 49.5312 28.737 49.5312C27.9984 49.5312 27.304 49.2436 26.7816 48.7212L21.2788 43.2183C20.7564 42.696 20.4688 42.0017 20.4688 41.263C20.4688 40.5244 20.7564 39.83 21.2787 39.3076L31.4257 29.1607L24.4318 22.1668C23.3762 21.1112 22.6248 19.7883 22.259 18.341L20.4902 11.3442C20.4295 11.1042 20.4996 10.8499 20.6747 10.6748L20.6748 10.6747C20.8498 10.4996 21.1042 10.4295 21.3442 10.4902L28.3409 12.2589C29.7884 12.6248 31.1113 13.3762 32.1668 14.4318L39.1607 21.4257L49.3078 11.2788C49.8301 10.7565 50.5245 10.4688 51.2631 10.4688C52.0017 10.4688 52.6962 10.7565 53.2184 11.2788L58.7212 16.7817C59.2435 17.3039 59.5312 17.9983 59.5312 18.7369C59.5312 19.4755 59.2436 20.17 58.7213 20.6922L48.5743 30.8393L57.9292 40.1943C60.0619 42.3268 60.0619 45.7968 57.9292 47.9293ZM29.698 47.7269L29.6984 47.7265L31.1037 46.3212L28.93 44.1474C28.6554 43.8729 28.6554 43.4276 28.9299 43.1531C29.2045 42.8786 29.6498 42.8785 29.9243 43.1531L32.098 45.3268L34.5686 42.8562L30.6625 38.9501C30.3879 38.6755 30.3879 38.2303 30.6624 37.9558C30.937 37.6812 31.3823 37.6812 31.6568 37.9558L35.563 41.8619L38.0335 39.3913L35.8598 37.2176C35.5852 36.943 35.5852 36.4978 35.8598 36.2233C36.1344 35.9487 36.5796 35.9487 36.8541 36.2233L39.0279 38.3969L41.4984 35.9264L37.5923 32.0201C37.3177 31.7456 37.3177 31.3004 37.5922 31.0258C37.8668 30.7512 38.312 30.7512 38.5866 31.0258L42.4928 34.932L44.932 32.4928L42.7584 30.319C42.4838 30.0445 42.4837 29.5993 42.7583 29.3247C43.0329 29.0502 43.4781 29.0501 43.7527 29.3247L45.9265 31.4984L48.397 29.0279L44.4909 25.1216C44.2163 24.8471 44.2162 24.4019 44.4908 24.1273C44.7654 23.8527 45.2106 23.8527 45.4852 24.1273L49.3914 28.0336L51.862 25.563L49.6882 23.3893C49.4136 23.1147 49.4136 22.6696 49.6881 22.395C49.9627 22.1204 50.408 22.1203 50.6825 22.3949L52.8563 24.5687L55.3269 22.0981L51.4207 18.1918C51.1461 17.9172 51.1461 17.472 51.4206 17.1975C51.6953 16.9229 52.1405 16.9228 52.415 17.1974L56.3212 21.1037L57.727 19.6979C57.9837 19.4412 58.1251 19.0999 58.1251 18.7369C58.1251 18.3739 57.9836 18.0325 57.727 17.7759L52.2241 12.273C51.9673 12.0164 51.6261 11.875 51.2631 11.875C50.9001 11.875 50.5587 12.0164 50.302 12.273L22.273 40.302C22.0164 40.5588 21.8751 40.9001 21.8751 41.263C21.8751 41.6261 22.0164 41.9674 22.273 42.224L27.7761 47.7269C28.0329 47.9836 28.3741 48.125 28.737 48.125C29.1 48.125 29.4413 47.9837 29.698 47.7269ZM56.9349 46.9349C58.5192 45.3506 58.5192 42.7729 56.935 41.1885L54.203 38.4566L48.4567 44.203L51.1885 46.9349C52.7728 48.5191 55.3506 48.5191 56.9349 46.9349ZM47.58 31.8337L41.8337 37.58L47.4623 43.2087L53.2087 37.4623L47.58 31.8337ZM38.1663 22.4201L33.4221 17.6758L27.6758 23.4222L32.42 28.1664L38.1663 22.4201ZM27.9962 13.6224L27.9945 13.6219L22.1424 12.1425L23.6223 17.9964C23.926 19.1979 24.5497 20.2962 25.426 21.1725L26.6814 22.4279L32.4277 16.6815L31.1724 15.4262C30.2961 14.5498 29.1978 13.9261 27.9962 13.6224Z" fill="#202020"/>
</g>
<defs>
<clipPath id="clip0_319_282">
<rect width="40" height="40" fill="white" transform="translate(20 10)"/>
</clipPath>
</defs>
</svg>
