<svg width="80" height="60" viewBox="0 0 80 60" fill="none" xmlns="http://www.w3.org/2000/svg">
<rect width="80" height="60" rx="30" fill="#08DBBA"/>
<g clip-path="url(#clip0_319_264)">
<path d="M57.0811 23.3465H45.2626C43.7042 23.3465 42.4409 24.6098 42.4409 26.168V32.5386H41.9797C41.3623 32.5386 40.8618 32.0381 40.8618 31.4207V28.1378C40.8618 26.5795 39.5985 25.3162 38.0402 25.3162H37.5789C37.5789 23.7313 37.5789 13.0365 37.5789 13.0365C37.5789 11.4781 36.3156 10.2148 34.7573 10.2148H22.9388C21.3805 10.2148 20.1172 11.4781 20.1172 13.0365V34.047C20.1172 35.6054 21.3805 36.8687 22.9388 36.8687H34.7573C36.3156 36.8687 37.5789 35.6054 37.5789 34.047V27.02H38.0402C38.6576 27.02 39.158 27.5205 39.158 28.1378V31.4207C39.158 32.9791 40.4213 34.2423 41.9797 34.2423H42.4409C42.4409 35.8741 42.4409 47.1787 42.4409 47.1787C42.4409 48.737 43.7042 50.0003 45.2626 50.0003H57.0811C58.6394 50.0003 59.9027 48.737 59.9027 47.1787V26.168C59.9027 24.6098 58.6394 23.3465 57.0811 23.3465ZM57.0811 48.2966H45.2626C44.6452 48.2966 44.1448 47.7961 44.1448 47.1787V44.7477H58.1989V47.1787C58.1989 47.7961 57.6984 48.2966 57.0811 48.2966ZM51.8284 45.6702H50.5152C50.0448 45.6702 49.6634 46.0516 49.6634 46.5221C49.6634 46.9926 50.0448 47.374 50.5152 47.374H51.8284C52.2989 47.374 52.6803 46.9926 52.6803 46.5221C52.6803 46.0516 52.2989 45.6702 51.8284 45.6702ZM46.5162 34.2423C46.3032 34.5723 46.3412 35.017 46.63 35.3059C46.9627 35.6385 47.502 35.6385 47.8346 35.3059L49.1478 33.9928C49.2273 33.9135 49.2902 33.819 49.3328 33.7149C49.4188 33.5067 49.4188 33.273 49.3328 33.0648C49.2902 32.9607 49.2273 32.8662 49.1477 32.7867C49.1478 32.7869 47.8346 31.4737 47.8346 31.4737C47.8338 31.4729 47.8331 31.4721 47.8322 31.4713C47.498 31.1484 46.9666 31.1531 46.6381 31.4817C46.3519 31.7678 46.3114 32.2077 46.5189 32.5373H44.1448V30.3029H58.1989C58.1989 31.8077 58.1989 41.5391 58.1989 43.0439H44.1448V34.2423H46.5162ZM34.7573 35.1649H22.9388C22.3215 35.1649 21.8209 34.6645 21.8209 34.047V31.616H35.8752V34.047C35.8752 34.6645 35.3747 35.1649 34.7573 35.1649ZM29.5046 32.5386H28.1915C27.721 32.5386 27.3396 32.92 27.3396 33.3905C27.3396 33.8609 27.721 34.2423 28.1915 34.2423H29.5046C29.9752 34.2423 30.3566 33.8609 30.3566 33.3905C30.3566 32.92 29.9752 32.5386 29.5046 32.5386ZM35.8752 29.9123H21.8209V17.1712H35.8752V25.3162H33.4566C33.1191 24.5268 32.3426 24.0066 31.4752 24.003H26.2217C25.026 24.003 24.0566 24.9723 24.0566 26.168C24.0566 27.3638 25.026 28.3331 26.2217 28.3331H31.4752C32.3426 28.3295 33.1191 27.8094 33.4567 27.0199C33.4566 27.02 35.8752 27.02 35.8752 27.02V29.9123ZM45.2626 25.0502H57.0811C57.6984 25.0502 58.1989 25.5507 58.1989 26.168V28.5991H44.1448V26.168C44.1448 25.5507 44.6452 25.0502 45.2626 25.0502ZM48.5455 27.6766H50.5152C50.9857 27.6766 51.3671 27.2952 51.3671 26.8247C51.3671 26.3541 50.9857 25.9727 50.5152 25.9727H48.5455C48.075 25.9727 47.6936 26.3541 47.6936 26.8247C47.6936 27.2952 48.075 27.6766 48.5455 27.6766ZM53.1416 27.6766H53.7981C54.2687 27.6766 54.6501 27.2952 54.6501 26.8247C54.6501 26.3541 54.2687 25.9727 53.7981 25.9727H53.1416C52.6711 25.9727 52.2897 26.3541 52.2897 26.8247C52.2897 27.2952 52.6711 27.6766 53.1416 27.6766ZM31.9356 26.168C31.9356 26.4228 31.7291 26.6294 31.4744 26.6294H26.2217C25.967 26.6294 25.7605 26.4228 25.7605 26.168C25.7605 25.9134 25.967 25.7068 26.2217 25.7068H31.4744C31.7291 25.7068 31.9356 25.9134 31.9356 26.168ZM22.9388 11.9186H34.7573C35.3747 11.9186 35.8752 12.4191 35.8752 13.0365V15.4675C35.8752 15.4675 23.5298 15.4675 21.8209 15.4675V13.0365C21.8209 12.4191 22.3215 11.9186 22.9388 11.9186ZM26.2217 14.5449H28.1915C28.662 14.5449 29.0434 14.1635 29.0434 13.693C29.0434 13.2226 28.662 12.8412 28.1915 12.8412H26.2217C25.7513 12.8412 25.3698 13.2226 25.3698 13.693C25.3698 14.1635 25.7513 14.5449 26.2217 14.5449ZM30.8178 14.5449H31.4744C31.9448 14.5449 32.3263 14.1635 32.3263 13.693C32.3263 13.2226 31.9448 12.8412 31.4744 12.8412H30.8178C30.3473 12.8412 29.9659 13.2226 29.9659 13.693C29.9659 14.1635 30.3473 14.5449 30.8178 14.5449Z" fill="#202020"/>
</g>
<defs>
<clipPath id="clip0_319_264">
<rect width="40" height="40" fill="white" transform="translate(20 10)"/>
</clipPath>
</defs>
</svg>
