<svg width="80" height="60" viewBox="0 0 80 60" fill="none" xmlns="http://www.w3.org/2000/svg">
<rect width="80" height="60" rx="30" fill="#08DBBA"/>
<g clip-path="url(#clip0_4815_2904)">
<path d="M27.7476 18.6066H43.2592C43.7443 18.6066 44.1377 18.2132 44.1377 17.7281C44.1377 17.2429 43.7443 16.8496 43.2592 16.8496H27.7476C27.2625 16.8496 26.8691 17.2429 26.8691 17.7281C26.8691 18.2132 27.2625 18.6066 27.7476 18.6066Z" fill="#202020"/>
<path d="M27.7476 41.6133C27.2625 41.6133 26.8691 42.0066 26.8691 42.4918C26.8691 42.9769 27.2625 43.3702 27.7476 43.3702H43.2592C43.7443 43.3702 44.1377 42.9769 44.1377 42.4918C44.1377 42.0142 43.7565 41.6256 43.2819 41.6136L43.2592 41.6133H27.7476Z" fill="#202020"/>
<path fill-rule="evenodd" clip-rule="evenodd" d="M59.6871 27.2797C59.6258 22.1929 55.6766 18.0214 50.6673 17.5768L50.4003 17.5531V11.2925C50.4003 10.8074 50.0071 10.4141 49.5218 10.4141H21.1714C20.6863 10.4141 20.293 10.8074 20.293 11.2925V48.9304C20.293 49.4156 20.6863 49.8089 21.1714 49.8089H49.7733V49.8094L49.7867 49.809V49.8089C51.7497 49.8089 53.3467 48.2119 53.3467 46.2489V36.6037L53.5289 36.5293C57.1384 35.0549 59.6878 31.5187 59.6878 27.4L59.6871 27.2797ZM43.4886 35.1173H27.7478C27.2626 35.1173 26.8694 34.7239 26.8694 34.2388C26.8694 33.7536 27.2626 33.3603 27.7478 33.3603H41.3193L41.5617 32.9031C40.4954 31.3303 39.8722 29.4362 39.8722 27.4C39.8722 27.3207 39.8734 27.2416 39.8753 27.1626L39.8825 26.8628H27.7478C27.2626 26.8628 26.8694 26.4695 26.8694 25.9843C26.8694 25.4991 27.2626 25.1058 27.7478 25.1058H40.1406L40.1983 24.8879C41.2024 21.0958 44.4232 18.1907 48.3912 17.6342L48.6434 17.5988V12.171H22.0499V48.052H46.6729L46.4984 47.6439C46.315 47.2154 46.2133 46.7438 46.2133 46.2489V36.6037L46.0312 36.5293C45.1881 36.1849 44.4028 35.7284 43.6944 35.1778L43.6123 35.1139L43.5083 35.1162L43.4886 35.1173ZM49.7269 48.0514L49.7733 48.052H49.7867L49.8332 48.0514C50.8059 48.0266 51.5898 47.2275 51.5898 46.2489V37.1041L51.2538 37.1542C50.7729 37.2258 50.2808 37.2633 49.7801 37.2633C49.2793 37.2633 48.7872 37.2258 48.3063 37.1542L47.9702 37.1041V46.2489C47.9702 47.2275 48.7541 48.0266 49.7269 48.0514ZM49.57 35.5037L49.6749 35.5057L49.7801 35.5064C54.2749 35.5064 57.9309 31.8693 57.9309 27.4C57.9309 22.9307 54.2749 19.2938 49.7801 19.2938C45.2852 19.2938 41.6292 22.9307 41.6292 27.4C41.6292 31.7997 45.1721 35.3927 49.57 35.5037Z" fill="#202020"/>
</g>
<defs>
<clipPath id="clip0_4815_2904">
<rect width="40" height="40" fill="white" transform="translate(20 10)"/>
</clipPath>
</defs>
</svg>
