<svg width="41" height="42" viewBox="0 0 41 42" fill="none" xmlns="http://www.w3.org/2000/svg">
<path d="M35.3395 41.0181H5.15976C2.3146 41.0181 0 38.7035 0 35.8584V5.16048C0 2.31532 2.3146 0 5.15976 0H35.3395C38.1847 0 40.5 2.31532 40.5 5.16048V35.8584C40.5 38.7035 38.1847 41.0181 35.3395 41.0181ZM5.15976 1.60258C3.1979 1.60258 1.60185 3.19863 1.60185 5.16048V35.8584C1.60185 37.8195 3.1979 39.4156 5.15976 39.4156H35.3395C37.3014 39.4156 38.8974 37.8195 38.8974 35.8584V5.16048C38.8974 3.19863 37.3014 1.60258 35.3395 1.60258H5.15976Z" fill="#07E7C4"/>
<path d="M15.7749 19.144C14.5749 19.144 13.6389 18.812 12.9669 18.148C12.3029 17.484 11.9709 16.536 11.9709 15.304V10.6H13.9149V15.232C13.9149 16.736 14.5389 17.488 15.7869 17.488C16.3949 17.488 16.8589 17.308 17.1789 16.948C17.4989 16.58 17.6589 16.008 17.6589 15.232V10.6H19.5789V15.304C19.5789 16.536 19.2429 17.484 18.5709 18.148C17.9069 18.812 16.9749 19.144 15.7749 19.144ZM26.6747 19L24.6467 16.084L22.6547 19H20.4227L23.5307 14.728L20.5787 10.6H22.7867L24.7187 13.324L26.6147 10.6H28.7147L25.7867 14.656L28.9187 19H26.6747ZM14.5171 20.896H16.1851L12.2251 32.2H10.5571L14.5171 20.896ZM20.3803 31.144C19.1803 31.144 18.2443 30.812 17.5723 30.148C16.9083 29.484 16.5763 28.536 16.5763 27.304V22.6H18.5203V27.232C18.5203 28.736 19.1443 29.488 20.3923 29.488C21.0003 29.488 21.4643 29.308 21.7843 28.948C22.1043 28.58 22.2643 28.008 22.2643 27.232V22.6H24.1843V27.304C24.1843 28.536 23.8483 29.484 23.1763 30.148C22.5123 30.812 21.5803 31.144 20.3803 31.144ZM26.1054 22.6H28.0494V31H26.1054V22.6Z" fill="#07E7C4"/>
</svg>
