<svg width="60" height="60" viewBox="0 0 60 60" fill="none" xmlns="http://www.w3.org/2000/svg">
<rect width="60" height="60" fill="url(#paint0_linear_4676_3191)"/>
<path d="M44.8533 50.4431H15.1455C12.3448 50.4431 10.0664 48.1647 10.0664 45.364V15.1462C10.0664 12.3455 12.3448 10.0664 15.1455 10.0664H44.8533C47.654 10.0664 49.9331 12.3455 49.9331 15.1462V45.364C49.9331 48.1647 47.654 50.4431 44.8533 50.4431ZM15.1455 11.6439C13.2143 11.6439 11.6432 13.215 11.6432 15.1462V45.364C11.6432 47.2945 13.2143 48.8656 15.1455 48.8656H44.8533C46.7845 48.8656 48.3556 47.2945 48.3556 45.364V15.1462C48.3556 13.215 46.7845 11.6439 44.8533 11.6439H15.1455Z" fill="#06CEAF"/>
<path d="M25.7749 29.144C24.5829 29.144 23.6509 28.812 22.9789 28.148C22.3069 27.484 21.9709 26.536 21.9709 25.304V20.6H23.9149V25.232C23.9149 26.032 24.0789 26.608 24.4069 26.96C24.7349 27.312 25.1949 27.488 25.7869 27.488C26.3789 27.488 26.8389 27.312 27.1669 26.96C27.4949 26.608 27.6589 26.032 27.6589 25.232V20.6H29.5789V25.304C29.5789 26.536 29.2429 27.484 28.5709 28.148C27.8989 28.812 26.9669 29.144 25.7749 29.144ZM30.4227 29L34.0347 24.02V25.436L30.5787 20.6H32.7867L35.1747 23.972L34.2507 23.984L36.6027 20.6H38.7147L35.2827 25.352V23.96L38.9187 29H36.6747L34.2027 25.436H35.0907L32.6547 29H30.4227ZM20.5571 42.2L24.5171 30.896H26.1851L22.2251 42.2H20.5571ZM30.3803 41.144C29.1883 41.144 28.2563 40.812 27.5843 40.148C26.9123 39.484 26.5763 38.536 26.5763 37.304V32.6H28.5203V37.232C28.5203 38.032 28.6843 38.608 29.0123 38.96C29.3403 39.312 29.8003 39.488 30.3923 39.488C30.9843 39.488 31.4443 39.312 31.7723 38.96C32.1003 38.608 32.2643 38.032 32.2643 37.232V32.6H34.1843V37.304C34.1843 38.536 33.8483 39.484 33.1763 40.148C32.5043 40.812 31.5723 41.144 30.3803 41.144ZM36.1054 41V32.6H38.0494V41H36.1054Z" fill="#06CEAF"/>
<defs>
<linearGradient id="paint0_linear_4676_3191" x1="30" y1="0" x2="30" y2="60" gradientUnits="userSpaceOnUse">
<stop stop-color="#ECF6F4"/>
<stop offset="1" stop-color="#ECF6F4" stop-opacity="0"/>
</linearGradient>
</defs>
</svg>
