<svg width="70" height="50" viewBox="0 0 70 50" fill="none" xmlns="http://www.w3.org/2000/svg">
<rect width="70" height="50" rx="25" fill="#F3FEFC"/>
<rect width="70" height="50" rx="25" fill="black" fill-opacity="0.06"/>
<g clip-path="url(#clip0_4757_1444)">
<path d="M44.1983 15.6468C44.1983 18.2294 42.1047 20.3229 39.5222 20.3229H34.7246V10.9707H39.5222C42.1047 10.9707 44.1983 13.0643 44.1983 15.6468Z" stroke="#202020" stroke-width="3"/>
<path d="M25.25 15.6468C25.25 18.2294 27.3436 20.3229 29.9261 20.3229H34.7237V10.9707H29.9261C27.3436 10.9707 25.25 13.0643 25.25 15.6468Z" stroke="#202020" stroke-width="3"/>
<path d="M25.25 24.9984C25.25 27.5809 27.3436 29.6745 29.9261 29.6745H34.7237V20.3223H29.9261C27.3436 20.3223 25.25 22.4158 25.25 24.9984Z" stroke="#202020" stroke-width="3"/>
<path d="M25.25 34.3519C25.25 36.9344 27.3737 39.028 29.9563 39.028C32.5724 39.028 34.7237 36.9072 34.7237 34.2912V29.6758H29.9261C27.3436 29.6758 25.25 31.7693 25.25 34.3519Z" stroke="#202020" stroke-width="3"/>
<path d="M34.7246 24.9984C34.7246 27.5809 36.8182 29.6745 39.4007 29.6745H39.5222C42.1047 29.6745 44.1983 27.5809 44.1983 24.9984C44.1983 22.4158 42.1047 20.3223 39.5222 20.3223H39.4007C36.8182 20.3223 34.7246 22.4158 34.7246 24.9984Z" stroke="#202020" stroke-width="3"/>
</g>
<defs>
<clipPath id="clip0_4757_1444">
<rect width="30" height="30" fill="white" transform="translate(20 10)"/>
</clipPath>
</defs>
</svg>
