<svg width="80" height="60" viewBox="0 0 80 60" fill="none" xmlns="http://www.w3.org/2000/svg">
<rect width="80" height="60" rx="30" fill="#08DBBA"/>
<path d="M51.7648 15.0184C53.5386 15.0184 54.9818 16.4615 54.9818 18.2353V46.4706C54.9818 48.2444 53.5386 49.6875 51.7649 49.6875H28.2354C26.4617 49.6875 25.0186 48.2444 25.0186 46.4706V18.2353C25.0186 16.4616 26.4617 15.0184 28.2354 15.0184H32.1879L32.2618 14.8104C32.7044 13.5623 33.8962 12.6655 35.2943 12.6655H36.8931L36.9668 12.4574C37.4094 11.2091 38.602 10.3125 40.0001 10.3125C41.3982 10.3125 42.5908 11.2091 43.0334 12.4573L43.1071 12.6654H44.706C46.1039 12.6654 47.2958 13.5623 47.7385 14.8103L47.8123 15.0184H51.7648ZM53.2207 46.7831H53.2539V18.2353C53.2539 17.4142 52.5858 16.7463 51.7649 16.7463H47.923V18.2353C47.923 18.7125 47.5361 19.0993 47.059 19.0993H32.9414C32.4642 19.0993 32.0774 18.7125 32.0774 18.2353V16.7463H28.2354C27.4143 16.7463 26.7464 17.4144 26.7464 18.2353V46.4706C26.7464 47.2917 27.4145 47.9596 28.2354 47.9596H51.7648C52.4787 47.9596 53.0768 47.4546 53.2207 46.7831ZM47.6699 40.0227L45.9278 41.7647L47.67 43.5066C48.0073 43.8441 48.0073 44.3911 47.67 44.7285H47.6699C47.5012 44.8973 47.2801 44.9816 47.059 44.9816C46.8379 44.9816 46.6168 44.8973 46.4482 44.7286L44.7061 42.9865L42.9639 44.7285C42.7953 44.8973 42.5742 44.9816 42.3531 44.9816C42.132 44.9816 41.9108 44.8973 41.7421 44.7286C41.4047 44.3912 41.4047 43.8441 41.7421 43.5067L43.4842 41.7647L41.7421 40.0227C41.4047 39.6852 41.4047 39.1382 41.7421 38.8008C42.0795 38.4634 42.6265 38.4634 42.9639 38.8008L44.706 40.5429L46.4479 38.8009C46.7854 38.4635 47.3324 38.4634 47.6697 38.8009H47.6698C48.0072 39.1383 48.0072 39.6853 47.6699 40.0227ZM36.4707 40.9007C36.9479 40.9007 37.3347 41.2875 37.3347 41.7647C37.3347 42.2419 36.9479 42.6287 36.4707 42.6287H31.7649C31.2877 42.6287 30.9009 42.2419 30.9009 41.7647C30.9009 41.2875 31.2878 40.9007 31.7649 40.9007H36.4707ZM48.8462 30.5655C49.1837 30.903 49.1836 31.4499 48.8464 31.7874L45.3169 35.3168C45.1482 35.4855 44.9271 35.5698 44.7061 35.5698C44.4849 35.5698 44.2638 35.4855 44.095 35.3168L41.7421 32.9639C41.4047 32.6265 41.4047 32.0795 41.7421 31.742C42.0795 31.4047 42.6265 31.4046 42.9639 31.742L44.706 33.4841L47.6246 30.5655C47.9619 30.2281 48.5089 30.2281 48.8462 30.5655ZM36.4707 32.6655C36.9479 32.6655 37.3346 33.0523 37.3347 33.5295C37.3347 34.0066 36.9479 34.3934 36.4707 34.3934H31.7649C31.2877 34.3934 30.9009 34.0066 30.9009 33.5295C30.9009 33.0523 31.2878 32.6655 31.7649 32.6655H36.4707ZM48.8462 23.5066C49.1837 23.8441 49.1837 24.3912 48.8464 24.7286L45.3169 28.258C45.1482 28.4267 44.9271 28.511 44.7061 28.511C44.4849 28.511 44.2638 28.4266 44.095 28.258L41.7421 25.9051C41.4047 25.5677 41.4047 25.0206 41.7421 24.6832C42.0795 24.3459 42.6265 24.3458 42.9639 24.6832L44.706 26.4252L47.6246 23.5067C47.9619 23.1693 48.5089 23.1693 48.8462 23.5066ZM36.4707 24.4302C36.9479 24.4302 37.3347 24.817 37.3347 25.2941C37.3347 25.7713 36.9479 26.1581 36.4707 26.1581H31.7649C31.2877 26.1581 30.9009 25.7713 30.9009 25.2941C30.9009 24.817 31.2878 24.4302 31.7649 24.4302H36.4707ZM33.8053 15.8823V17.3713H46.1951V15.8823C46.1951 15.0612 45.5271 14.3934 44.7061 14.3934H42.3532C41.876 14.3934 41.4892 14.0066 41.4892 13.5294C41.4892 12.7083 40.8211 12.0404 40.0002 12.0404C39.1791 12.0404 38.5112 12.7084 38.5112 13.5294C38.5112 14.0066 38.1243 14.3934 37.6472 14.3934H35.2943C34.4732 14.3934 33.8053 15.0614 33.8053 15.8823Z" fill="#202020"/>
</svg>
