<svg width="80" height="60" viewBox="0 0 80 60" fill="none" xmlns="http://www.w3.org/2000/svg">
<rect width="80" height="60" rx="30" fill="#08DBBA"/>
<g clip-path="url(#clip0_319_292)">
<path d="M59.641 13.003C59.8142 16.1755 59.6481 22.3845 56.5773 28.3214C55.0124 31.3469 52.3577 34.5454 49.2964 37.0988C49.2587 37.1303 49.2206 37.1609 49.1828 37.1922L49.0805 37.2767L48.6178 43.2668C48.5508 44.1341 48.0963 44.9067 47.3706 45.3864L41.326 49.3829C41.0209 49.5846 40.671 49.6875 40.3185 49.6875C40.0674 49.6875 39.8152 49.6354 39.5768 49.5299C39.0042 49.2765 38.605 48.7557 38.5092 48.1368L37.6957 42.8846L37.3801 42.9418C37.2856 42.959 37.1913 42.9763 37.0967 42.9921C36.946 43.0172 36.7944 43.0296 36.6437 43.0296C35.9107 43.0296 35.1955 42.7376 34.666 42.2082L27.7917 35.3338C27.1534 34.6955 26.86 33.787 27.0078 32.9032V32.9032C27.0235 32.8086 27.0408 32.7143 27.058 32.6198L27.1153 32.3042L21.8631 31.4907C21.2442 31.3949 20.7235 30.9957 20.47 30.4229C20.2167 29.8502 20.2716 29.1964 20.6171 28.6739L24.6135 22.6292C25.0931 21.9036 25.8657 21.4489 26.7331 21.3819L32.7233 20.9192L32.8078 20.8169C32.8391 20.779 32.8697 20.7411 32.9012 20.7033C35.4546 17.6422 38.6531 14.9875 41.6785 13.4225C47.6152 10.3519 53.8241 10.1855 56.9968 10.3589C58.4263 10.4369 59.5631 11.5736 59.641 13.003ZM29.1353 40.8645C29.4709 41.2001 29.4709 41.7443 29.1353 42.0798L21.7794 49.4357C21.6117 49.6036 21.3917 49.6874 21.1718 49.6874C20.9519 49.6874 20.732 49.6035 20.5642 49.4357C20.2286 49.1001 20.2286 48.556 20.5642 48.2204L27.9199 40.8645C28.2556 40.5289 28.7997 40.5289 29.1353 40.8645ZM27.6003 48.1968L31.4263 44.3708C31.7619 44.0353 32.306 44.0353 32.6415 44.3708C32.9771 44.7064 32.9771 45.2506 32.6416 45.5862L28.8155 49.4122C28.6478 49.5801 28.4278 49.6639 28.2079 49.6639C27.988 49.6639 27.7681 49.58 27.6003 49.4122C27.2647 49.0766 27.2647 48.5325 27.6003 48.1968ZM46.4228 43.9527C46.7029 43.7675 46.8785 43.4691 46.9043 43.1343L47.252 38.6331L46.7137 39.0345C44.4381 40.5578 42.0498 41.6954 39.6352 42.4053L39.3726 42.4825L40.2341 48.0443L46.4228 43.9527ZM21.1953 42.6513C20.9754 42.6513 20.7555 42.5674 20.5878 42.3996C20.2521 42.0639 20.2521 41.5198 20.5877 41.1842L24.4136 37.3582C24.7492 37.0226 25.2934 37.0225 25.6289 37.3582C25.9646 37.6938 25.9646 38.2379 25.629 38.5736L21.8029 42.3996C21.6352 42.5675 21.4153 42.6513 21.1953 42.6513ZM29.0069 34.1184L35.8814 40.9929C36.129 41.2405 36.4772 41.3527 36.813 41.2969H36.8131C37.8124 41.1298 39.0097 40.8443 40.3463 40.3656L40.8107 40.1992L29.7986 29.1871L29.6321 29.6511C29.2329 30.7641 28.9105 31.9454 28.703 33.1865C28.6468 33.5218 28.7592 33.8706 29.0069 34.1184ZM48.1956 35.7789C51.0927 33.3623 53.5902 30.3555 55.0507 27.5318C57.9307 21.9638 58.0885 16.098 57.9249 13.0967C57.8949 12.5443 57.4556 12.105 56.9033 12.075C53.902 11.9116 48.0361 12.0691 42.4682 14.9491C39.6444 16.4097 36.6375 18.9072 34.221 21.8043C33.0635 23.1918 31.7272 25.0546 30.6321 27.2914L30.5339 27.4919L42.5073 39.4653L42.7077 39.3675C44.4213 38.5314 46.2805 37.3763 48.1956 35.7789ZM26.8656 23.0956C26.5308 23.1214 26.2324 23.2969 26.0471 23.5772L21.9554 29.7659L27.5171 30.6273L27.5944 30.3647C28.3043 27.9501 29.4419 25.5618 30.9653 23.2862L31.3172 22.7517L26.8656 23.0956ZM47.4 17.0777C44.3521 17.0777 41.8777 19.5522 41.8777 22.6C41.8777 25.6478 44.3521 28.1222 47.4 28.1222C50.4478 28.1222 52.9223 25.6478 52.9223 22.6C52.9223 19.5522 50.4478 17.0777 47.4 17.0777ZM47.4 18.7183C49.5424 18.7183 51.2817 20.4576 51.2817 22.6C51.2817 24.7423 49.5424 26.4816 47.4 26.4816C45.2576 26.4816 43.5183 24.7423 43.5183 22.6C43.5183 20.4576 45.2576 18.7183 47.4 18.7183Z" fill="#202020"/>
</g>
<defs>
<clipPath id="clip0_319_292">
<rect width="40" height="40" fill="white" transform="translate(20 10)"/>
</clipPath>
</defs>
</svg>
