<svg width="80" height="60" viewBox="0 0 80 60" fill="none" xmlns="http://www.w3.org/2000/svg">
<rect width="80" height="60" rx="30" fill="#F3FEFC"/>
<rect width="80" height="60" rx="30" fill="black" fill-opacity="0.06"/>
<path d="M54.7869 50.3767H25.0791C22.2784 50.3767 20 48.0983 20 45.2976V15.0798C20 12.2791 22.2784 10 25.0791 10H54.7869C57.5876 10 59.8667 12.2791 59.8667 15.0798V45.2976C59.8667 48.0983 57.5876 50.3767 54.7869 50.3767ZM25.0791 11.5775C23.1479 11.5775 21.5768 13.1486 21.5768 15.0798V45.2976C21.5768 47.2281 23.1479 48.7992 25.0791 48.7992H54.7869C56.7181 48.7992 58.2891 47.2281 58.2891 45.2976V15.0798C58.2891 13.1486 56.7181 11.5775 54.7869 11.5775H25.0791Z" fill="#202020"/>
<path d="M35.7085 29.0776C34.5165 29.0776 33.5845 28.7456 32.9125 28.0816C32.2405 27.4176 31.9045 26.4696 31.9045 25.2376V20.5336H33.8485V25.1656C33.8485 25.9656 34.0125 26.5416 34.3405 26.8936C34.6685 27.2456 35.1285 27.4216 35.7205 27.4216C36.3125 27.4216 36.7725 27.2456 37.1005 26.8936C37.4285 26.5416 37.5925 25.9656 37.5925 25.1656V20.5336H39.5125V25.2376C39.5125 26.4696 39.1765 27.4176 38.5045 28.0816C37.8325 28.7456 36.9005 29.0776 35.7085 29.0776ZM40.3563 28.9336L43.9683 23.9536V25.3696L40.5123 20.5336H42.7203L45.1083 23.9056L44.1843 23.9176L46.5363 20.5336H48.6483L45.2163 25.2856V23.8936L48.8523 28.9336H46.6083L44.1363 25.3696H45.0243L42.5883 28.9336H40.3563ZM30.4907 42.1336L34.4507 30.8296H36.1187L32.1587 42.1336H30.4907ZM40.3139 41.0776C39.1219 41.0776 38.1899 40.7456 37.5179 40.0816C36.8459 39.4176 36.5099 38.4696 36.5099 37.2376V32.5336H38.4539V37.1656C38.4539 37.9656 38.6179 38.5416 38.9459 38.8936C39.2739 39.2456 39.7339 39.4216 40.3259 39.4216C40.9179 39.4216 41.3779 39.2456 41.7059 38.8936C42.0339 38.5416 42.1979 37.9656 42.1979 37.1656V32.5336H44.1179V37.2376C44.1179 38.4696 43.7819 39.4176 43.1099 40.0816C42.4379 40.7456 41.5059 41.0776 40.3139 41.0776ZM46.039 40.9336V32.5336H47.983V40.9336H46.039Z" fill="#202020"/>
</svg>
