<svg width="100" height="82" viewBox="0 0 100 82" fill="none" xmlns="http://www.w3.org/2000/svg">
<path d="M95 74H65C64.45 74 64 73.55 64 73C64 72.45 64.45 72 65 72H95C96.65 72 98 70.65 98 69V7C98 5.35 96.65 4 95 4H5C3.35 4 2 5.35 2 7V69C2 70.65 3.35 72 5 72H35C35.55 72 36 72.45 36 73C36 73.55 35.55 74 35 74H5C2.24 74 0 71.76 0 69V7C0 4.24 2.24 2 5 2H95C97.76 2 100 4.24 100 7V69C100 71.76 97.76 74 95 74Z" fill="#202020"/>
<path d="M95 2H5C2.24 2 0 4.24 0 7V9C0 9.55 0.45 10 1 10H99C99.55 10 100 9.55 100 9V7C100 4.24 97.76 2 95 2ZM2 7C2 5.35 3.35 4 5 4H82V8H2V7ZM98 8H84V4H95C96.65 4 98 5.35 98 7V8Z" fill="#202020"/>
<path d="M22.8278 52.4C20.2944 52.4 18.1211 51.8667 16.3078 50.8C14.4944 49.7067 13.1078 48.1333 12.1478 46.08C11.1878 44.0267 10.7078 41.4933 10.7078 38.48C10.7078 35.28 11.2811 32.5733 12.4278 30.36C13.6011 28.1467 15.2144 26.4667 17.2678 25.32C19.3478 24.1733 21.7344 23.6 24.4278 23.6C25.8411 23.6 27.1878 23.7467 28.4678 24.04C29.7744 24.3333 30.8811 24.7867 31.7878 25.4L29.8678 29.32C29.0944 28.8133 28.2544 28.4667 27.3478 28.28C26.4678 28.0667 25.5344 27.96 24.5478 27.96C21.9078 27.96 19.8144 28.7733 18.2678 30.4C16.7211 32.0267 15.9478 34.4267 15.9478 37.6C15.9478 38.1067 15.9611 38.7067 15.9878 39.4C16.0144 40.0667 16.1078 40.7467 16.2678 41.44L14.6678 39.68C15.1478 38.5867 15.8011 37.68 16.6278 36.96C17.4811 36.2133 18.4811 35.6533 19.6278 35.28C20.8011 34.9067 22.0678 34.72 23.4278 34.72C25.2678 34.72 26.9078 35.08 28.3478 35.8C29.7878 36.4933 30.9344 37.4933 31.7878 38.8C32.6411 40.08 33.0678 41.5867 33.0678 43.32C33.0678 45.16 32.6144 46.76 31.7078 48.12C30.8011 49.48 29.5744 50.5333 28.0278 51.28C26.4811 52.0267 24.7478 52.4 22.8278 52.4ZM22.5478 48.32C23.6144 48.32 24.5611 48.1333 25.3878 47.76C26.2144 47.36 26.8544 46.8 27.3078 46.08C27.7878 45.36 28.0278 44.52 28.0278 43.56C28.0278 42.0933 27.5211 40.9333 26.5078 40.08C25.4944 39.2267 24.1344 38.8 22.4278 38.8C21.3078 38.8 20.3211 39.0133 19.4678 39.44C18.6411 39.84 17.9744 40.4 17.4678 41.12C16.9878 41.84 16.7478 42.6667 16.7478 43.6C16.7478 44.4533 16.9744 45.24 17.4278 45.96C17.8811 46.68 18.5344 47.2533 19.3878 47.68C20.2678 48.1067 21.3211 48.32 22.5478 48.32ZM47.4659 52.4C45.2525 52.4 43.2525 51.84 41.4659 50.72C39.7059 49.6 38.3192 47.9733 37.3059 45.84C36.2925 43.68 35.7859 41.0667 35.7859 38C35.7859 34.9333 36.2925 32.3333 37.3059 30.2C38.3192 28.04 39.7059 26.4 41.4659 25.28C43.2525 24.16 45.2525 23.6 47.4659 23.6C49.7059 23.6 51.7059 24.16 53.4659 25.28C55.2259 26.4 56.6125 28.04 57.6259 30.2C58.6659 32.3333 59.1859 34.9333 59.1859 38C59.1859 41.0667 58.6659 43.68 57.6259 45.84C56.6125 47.9733 55.2259 49.6 53.4659 50.72C51.7059 51.84 49.7059 52.4 47.4659 52.4ZM47.4659 47.88C48.7725 47.88 49.9059 47.5333 50.8659 46.84C51.8259 46.12 52.5725 45.0267 53.1059 43.56C53.6659 42.0933 53.9459 40.24 53.9459 38C53.9459 35.7333 53.6659 33.88 53.1059 32.44C52.5725 30.9733 51.8259 29.8933 50.8659 29.2C49.9059 28.48 48.7725 28.12 47.4659 28.12C46.2125 28.12 45.0925 28.48 44.1059 29.2C43.1459 29.8933 42.3859 30.9733 41.8259 32.44C41.2925 33.88 41.0259 35.7333 41.0259 38C41.0259 40.24 41.2925 42.0933 41.8259 43.56C42.3859 45.0267 43.1459 46.12 44.1059 46.84C45.0925 47.5333 46.2125 47.88 47.4659 47.88ZM65.9099 52L82.6399 27.5H86.0699L69.3399 52H65.9099ZM67.9399 40.695C66.7966 40.695 65.7816 40.415 64.8949 39.855C64.0083 39.295 63.3199 38.5133 62.8299 37.51C62.3399 36.5067 62.0949 35.3283 62.0949 33.975C62.0949 32.6217 62.3399 31.4433 62.8299 30.44C63.3199 29.4367 64.0083 28.655 64.8949 28.095C65.7816 27.535 66.7966 27.255 67.9399 27.255C69.1299 27.255 70.1566 27.535 71.0199 28.095C71.9066 28.655 72.5949 29.4367 73.0849 30.44C73.5749 31.4433 73.8199 32.6217 73.8199 33.975C73.8199 35.3283 73.5749 36.5067 73.0849 37.51C72.5949 38.5133 71.9066 39.295 71.0199 39.855C70.1566 40.415 69.1299 40.695 67.9399 40.695ZM67.9749 38.245C68.9083 38.245 69.6316 37.8833 70.1449 37.16C70.6816 36.4133 70.9499 35.3517 70.9499 33.975C70.9499 32.5983 70.6816 31.5483 70.1449 30.825C69.6316 30.0783 68.9083 29.705 67.9749 29.705C67.0416 29.705 66.2949 30.0783 65.7349 30.825C65.1983 31.5717 64.9299 32.6217 64.9299 33.975C64.9299 35.3283 65.1983 36.3783 65.7349 37.125C66.2949 37.8717 67.0416 38.245 67.9749 38.245ZM84.0049 52.245C82.8616 52.245 81.8466 51.965 80.9599 51.405C80.0733 50.845 79.3849 50.0633 78.8949 49.06C78.4049 48.0567 78.1599 46.8783 78.1599 45.525C78.1599 44.1717 78.4049 42.9933 78.8949 41.99C79.3849 40.9867 80.0733 40.205 80.9599 39.645C81.8466 39.085 82.8616 38.805 84.0049 38.805C85.1949 38.805 86.2216 39.085 87.0849 39.645C87.9716 40.205 88.6599 40.9867 89.1499 41.99C89.6399 42.9933 89.8849 44.1717 89.8849 45.525C89.8849 46.8783 89.6399 48.0567 89.1499 49.06C88.6599 50.0633 87.9716 50.845 87.0849 51.405C86.2216 51.965 85.1949 52.245 84.0049 52.245ZM84.0049 49.795C84.9383 49.795 85.6733 49.4217 86.2099 48.675C86.7466 47.9283 87.0149 46.8783 87.0149 45.525C87.0149 44.1717 86.7466 43.1217 86.2099 42.375C85.6733 41.6283 84.9383 41.255 84.0049 41.255C83.0949 41.255 82.3599 41.6283 81.7999 42.375C81.2633 43.0983 80.9949 44.1483 80.9949 45.525C80.9949 46.9017 81.2633 47.9633 81.7999 48.71C82.3599 49.4333 83.0949 49.795 84.0049 49.795Z" fill="#06CEAF"/>
</svg>
