<svg width="230" height="50" viewBox="0 0 230 50" fill="none" xmlns="http://www.w3.org/2000/svg">
<rect width="70" height="50" rx="25" fill="#F3FEFC"/>
<rect width="70" height="50" rx="25" fill="black" fill-opacity="0.06"/>
<path d="M22.1188 25C22.1188 30.1094 25.0531 34.5109 29.3375 36.5763L23.2606 19.7828C22.5547 21.4131 22.1188 23.1531 22.1188 25ZM43.6953 24.3475C43.6953 22.7725 43.0972 21.6287 42.6078 20.815C41.9553 19.7275 41.3581 18.8584 41.3581 17.7719C41.3581 16.5766 42.2825 15.4891 43.5331 15.4891H43.6962C41.4125 13.3694 38.3694 12.1188 35 12.1188C32.8682 12.1376 30.7734 12.6773 28.8979 13.6909C27.0225 14.7045 25.4232 16.1611 24.2394 17.9341H25.055C26.4144 17.9341 28.4787 17.7709 28.4787 17.7709C29.1856 17.7166 29.24 18.7488 28.5875 18.8584C28.5875 18.8584 27.8806 18.9672 27.1203 18.9672L31.7947 32.8797L34.6203 24.4553L32.6094 18.9663L31.25 18.8594C30.5431 18.805 30.6519 17.7719 31.3044 17.7719C31.3044 17.7719 33.4231 17.935 34.6737 17.935C36.0331 17.935 38.0975 17.7719 38.0975 17.7719C38.8044 17.7175 38.8587 18.7497 38.2062 18.8594C38.2062 18.8594 37.4994 18.9681 36.7391 18.9681L41.4125 32.8281L42.725 28.5344C43.2687 26.7409 43.7028 25.4913 43.7028 24.3494L43.6953 24.3475ZM35.2175 26.1409L31.3588 37.3375C32.4997 37.6637 33.7494 37.8813 35 37.8813C36.5216 37.8813 37.9344 37.6 39.2938 37.1744C39.2394 37.12 39.2394 37.0656 39.185 37.0112L35.2175 26.1409ZM46.3044 18.8594L46.4131 20.1719C46.4131 21.4844 46.1956 22.9441 45.4353 24.7919L41.5222 36.1506C45.3266 33.9222 47.9347 29.7916 47.9347 25.0094C47.8803 22.7809 47.2822 20.7156 46.3034 18.8687L46.3044 18.8594ZM35 10C26.7387 10 20 16.7387 20 25C20 33.2612 26.7387 40 35 40C43.2612 40 50 33.2612 50 25C50 16.7387 43.2612 10 35 10ZM35 39.3475C27.1194 39.3475 20.7069 32.935 20.7069 25C20.7128 21.2111 22.2206 17.579 24.8998 14.8998C27.579 12.2206 31.2111 10.7128 35 10.7069C38.7889 10.7128 42.421 12.2206 45.1002 14.8998C47.7794 17.579 49.2872 21.2111 49.2931 25C49.2931 32.935 42.8806 39.3475 35 39.3475Z" fill="#202020"/>
<rect x="80" width="70" height="50" rx="25" fill="#F3FEFC"/>
<rect x="80" width="70" height="50" rx="25" fill="black" fill-opacity="0.06"/>
<path d="M119.569 16.3968C117.464 14.2915 115.44 12.2672 114.853 10C114.245 12.2672 112.241 14.2713 110.136 16.3968C106.978 19.5547 103.375 23.1376 103.375 28.5223C103.375 34.8583 108.517 40 114.853 40C121.189 40 126.33 34.8583 126.33 28.5223C126.33 23.1376 122.727 19.5547 119.569 16.3968ZM108.254 31.1943C107.545 31.1741 104.954 26.7004 109.772 21.9231L112.97 25.4049C113.071 25.5061 113.071 25.6883 112.97 25.7895L112.95 25.8097C112.181 26.5992 108.942 29.8381 108.537 30.9717C108.436 31.1943 108.314 31.1943 108.254 31.1943ZM114.853 37.085C112.666 37.085 110.905 35.3239 110.905 33.1377C110.926 32.1862 111.27 31.2551 111.897 30.5263C112.606 29.6559 114.853 27.2065 114.853 27.2065C114.853 27.2065 117.079 29.6964 117.808 30.5263C118.456 31.2348 118.8 32.1862 118.8 33.1377C118.8 35.3239 117.019 37.085 114.853 37.085ZM122.403 30.6883C122.322 30.8704 122.12 31.1943 121.857 31.1943C121.391 31.2146 121.351 30.9717 121.007 30.4656C120.258 29.3522 113.679 22.4696 112.444 21.1538C111.371 19.9798 112.282 19.17 112.727 18.7247C113.274 18.1781 114.853 16.5992 114.853 16.5992C114.853 16.5992 119.569 21.0729 121.513 24.1093C123.456 27.1458 122.808 29.8178 122.403 30.6883Z" fill="#202020"/>
<rect x="160" width="70" height="50" rx="25" fill="#F3FEFC"/>
<rect x="160" width="70" height="50" rx="25" fill="black" fill-opacity="0.06"/>
<path d="M193.239 15.9609C192.399 14.513 190.297 14.513 189.457 15.9609L180.296 31.7402C179.455 33.1881 180.506 34.9979 182.187 34.9979H189.338C188.62 34.369 188.354 33.281 188.898 32.3475L195.836 20.4335L193.239 15.9609Z" fill="#202020"/>
<path d="M199.043 19.4217C199.739 18.2371 201.478 18.2371 202.173 19.4217L209.755 32.332C210.45 33.5166 209.581 34.9974 208.189 34.9974H193.027C191.636 34.9974 190.766 33.5166 191.462 32.332L199.043 19.4217Z" fill="#202020"/>
</svg>
