<svg width="60" height="60" viewBox="0 0 60 60" fill="none" xmlns="http://www.w3.org/2000/svg">
<rect width="60" height="60" fill="url(#paint0_linear_5159_2596)"/>
<path d="M45.0625 31.5625H14.9375C14.4197 31.5625 14 31.9822 14 32.5C14 33.0178 14.4197 33.4375 14.9375 33.4375H28.3442L23.5711 41.3927C23.1966 42.0169 23.6473 42.8125 24.375 42.8125H35.625C36.3529 42.8125 36.8032 42.0166 36.4289 41.3927L31.6558 33.4375H45.0625C45.5802 33.4375 46 33.0178 46 32.5C46 31.9822 45.5802 31.5625 45.0625 31.5625ZM26.0308 40.9375L30 34.3222L33.9692 40.9375H26.0308Z" fill="#06CEAF"/>
<path d="M19.625 28.4375C22.7266 28.4375 25.25 25.9141 25.25 22.8125C25.25 19.7109 22.7266 17.1875 19.625 17.1875C16.5234 17.1875 14 19.7109 14 22.8125C14 25.9141 16.5234 28.4375 19.625 28.4375ZM19.625 19.0625C21.6927 19.0625 23.375 20.7448 23.375 22.8125C23.375 24.8802 21.6927 26.5625 19.625 26.5625C17.5573 26.5625 15.875 24.8802 15.875 22.8125C15.875 20.7448 17.5573 19.0625 19.625 19.0625Z" fill="#06CEAF"/>
<path d="M40.375 28.4375C43.4766 28.4375 46 25.9141 46 22.8125C46 19.7109 43.4766 17.1875 40.375 17.1875C37.2734 17.1875 34.75 19.7109 34.75 22.8125C34.75 25.9141 37.2734 28.4375 40.375 28.4375ZM40.375 19.0625C42.4427 19.0625 44.125 20.7448 44.125 22.8125C44.125 24.8802 42.4427 26.5625 40.375 26.5625C38.3073 26.5625 36.625 24.8802 36.625 22.8125C36.625 20.7448 38.3073 19.0625 40.375 19.0625Z" fill="#06CEAF"/>
<defs>
<linearGradient id="paint0_linear_5159_2596" x1="30" y1="0" x2="30" y2="60" gradientUnits="userSpaceOnUse">
<stop stop-color="#ECF6F4"/>
<stop offset="1" stop-color="#ECF6F4" stop-opacity="0"/>
</linearGradient>
</defs>
</svg>
