<svg width="80" height="60" viewBox="0 0 80 60" fill="none" xmlns="http://www.w3.org/2000/svg">
<rect width="80" height="60" rx="30" fill="#F3FEFC"/>
<rect width="80" height="60" rx="30" fill="black" fill-opacity="0.06"/>
<path d="M38.8625 34.7707L32.9296 44.5183L33.0151 44.5703L32.9296 44.5184C32.6707 44.9438 32.9837 45.4814 33.4809 45.4814H46.5191C47.0164 45.4814 47.3292 44.9436 47.0704 44.5184L41.1375 34.7707H57.4567C57.8106 34.7707 58.1 34.4875 58.1 34.1351C58.1 33.7828 57.8106 33.4996 57.4567 33.4996H22.5433C22.1894 33.4996 21.9 33.7828 21.9 34.1351C21.9 34.4875 22.1894 34.7707 22.5433 34.7707H38.8625ZM45.3816 44.2104H34.6184L40 35.3684L45.3816 44.2104Z" fill="#202020" stroke="#202020" stroke-width="0.2"/>
<path d="M21.9 21.1643C21.9 24.4679 24.5875 27.1553 27.8909 27.1553C31.1944 27.1553 33.8818 24.4679 33.8818 21.1643C33.8818 17.8609 31.1944 15.1734 27.8909 15.1734C24.5874 15.1734 21.9 17.8609 21.9 21.1643ZM23.1711 21.1643C23.1711 18.5619 25.2884 16.4445 27.8909 16.4445C30.4934 16.4445 32.6107 18.5619 32.6107 21.1643C32.6107 23.7668 30.4934 25.8842 27.8909 25.8842C25.2884 25.8842 23.1711 23.7668 23.1711 21.1643Z" fill="#202020" stroke="#202020" stroke-width="0.2"/>
<path d="M46.1187 21.1643C46.1187 24.4679 48.8062 27.1553 52.1097 27.1553C55.4132 27.1553 58.1006 24.4679 58.1006 21.1643C58.1006 17.8609 55.4132 15.1734 52.1097 15.1734C48.8062 15.1734 46.1187 17.8609 46.1187 21.1643ZM47.3898 21.1643C47.3898 18.5619 49.5073 16.4445 52.1097 16.4445C54.7121 16.4445 56.8295 18.5619 56.8295 21.1643C56.8295 23.7668 54.7121 25.8842 52.1097 25.8842C49.5073 25.8842 47.3898 23.7668 47.3898 21.1643Z" fill="#202020" stroke="#202020" stroke-width="0.2"/>
</svg>
