<svg width="100" height="80" viewBox="0 0 100 80" fill="none" xmlns="http://www.w3.org/2000/svg">
<path d="M25.5699 22.0898H74.4039C77.4945 22.0898 79.9963 24.5891 79.9963 27.6767V46.2992C79.9963 49.3868 77.4945 51.886 74.4039 51.886H56.8914L59.2952 57.7668L48.7237 51.886H25.5943C22.5039 51.886 20.0021 49.3868 20.0021 46.2992V27.6767C19.9775 24.6137 22.479 22.0898 25.5699 22.0898Z" fill="#202020"/>
<path d="M23.4197 27.1815C23.7612 26.7184 24.2732 26.4749 24.9561 26.4262C26.2001 26.3286 26.9074 26.9132 27.078 28.1803C27.834 33.2724 28.6631 37.585 29.541 41.1177L34.8819 30.9579C35.3699 30.0319 35.9796 29.5447 36.7113 29.496C37.7844 29.423 38.4427 30.105 38.711 31.5425C39.3208 34.7828 40.1012 37.5361 41.0278 39.875C41.662 33.6866 42.7351 29.228 44.2471 26.4749C44.6127 25.7927 45.1494 25.4515 45.8567 25.4026C46.4177 25.3541 46.9298 25.5246 47.3931 25.8901C47.8564 26.2555 48.1004 26.7184 48.1491 27.2789C48.1735 27.7174 48.1004 28.0829 47.9054 28.4483C46.9541 30.2026 46.1735 33.1507 45.5396 37.2436C44.93 41.2151 44.7105 44.3095 44.8567 46.5266C44.9057 47.1354 44.8079 47.6715 44.5642 48.1346C44.2713 48.6705 43.8326 48.9629 43.2715 49.0116C42.6374 49.0603 41.9791 48.7681 41.3449 48.1102C39.0768 45.7955 37.2721 42.3358 35.9553 37.7311C34.3699 40.8496 33.1993 43.1885 32.4433 44.7478C31.0043 47.5011 29.785 48.9142 28.7606 48.9873C28.1021 49.036 27.5413 48.4755 27.0536 47.3063C25.8099 44.1145 24.4685 37.9502 23.0298 28.8138C22.932 28.1803 23.0783 27.6198 23.4197 27.1815ZM75.8295 31.0066C74.9516 29.4717 73.6589 28.546 71.9275 28.1803C71.4639 28.0829 71.0252 28.0342 70.6104 28.0342C68.2692 28.0342 66.367 29.2523 64.8793 31.6888C63.611 33.7596 62.9771 36.0498 62.9771 38.5594C62.9771 40.4354 63.3673 42.0434 64.1477 43.3835C65.0256 44.9184 66.3183 45.8442 68.0497 46.2096C68.513 46.3073 68.9519 46.356 69.3667 46.356C71.7323 46.356 73.6345 45.1378 75.0978 42.7013C76.3659 40.6059 77.0001 38.3157 77.0001 35.8064C77.0244 33.906 76.6099 32.3221 75.8295 31.0066ZM72.7566 37.7554C72.4152 39.3634 71.8054 40.5572 70.9029 41.3612C70.1959 41.9947 69.5373 42.2625 68.9278 42.1408C68.3424 42.0191 67.8544 41.5075 67.4889 40.5572C67.1959 39.8019 67.0499 39.0466 67.0499 38.34C67.0499 37.7311 67.0987 37.1219 67.2205 36.5616C67.4401 35.5626 67.8547 34.588 68.513 33.6623C69.318 32.4682 70.1715 31.9812 71.0494 32.1517C71.6348 32.2734 72.1227 32.7852 72.4883 33.7353C72.781 34.4906 72.9272 35.2459 72.9272 35.9525C72.9272 36.586 72.8785 37.1952 72.7566 37.7554ZM60.5626 31.0066C59.6847 29.4717 58.3676 28.546 56.6606 28.1803C56.1973 28.0829 55.7583 28.0342 55.3435 28.0342C53.0023 28.0342 51.1001 29.2523 49.6124 31.6888C48.3443 33.7596 47.7102 36.0498 47.7102 38.5594C47.7102 40.4354 48.1004 42.0434 48.8808 43.3835C49.7587 44.9184 51.0513 45.8442 52.7827 46.2096C53.2463 46.3073 53.685 46.356 54.0998 46.356C56.4654 46.356 58.3676 45.1378 59.8309 42.7013C61.0992 40.6059 61.7331 38.3157 61.7331 35.8064C61.7331 33.906 61.3429 32.3221 60.5626 31.0066ZM57.4653 37.7554C57.1239 39.3634 56.5141 40.5572 55.6118 41.3612C54.9046 41.9947 54.246 42.2625 53.6363 42.1408C53.0511 42.0191 52.5634 41.5075 52.1973 40.5572C51.9049 39.8019 51.7586 39.0466 51.7586 38.34C51.7586 37.7311 51.8074 37.1219 51.9292 36.5616C52.1488 35.5626 52.5634 34.588 53.2219 33.6623C54.0267 32.4682 54.8802 31.9812 55.7581 32.1517C56.3435 32.2734 56.8314 32.7852 57.197 33.7353C57.49 34.4906 57.636 35.2459 57.636 35.9525C57.6606 36.586 57.5872 37.1952 57.4653 37.7554Z" fill="#F3FEFC"/>
</svg>
