<svg width="70" height="50" viewBox="0 0 70 50" fill="none" xmlns="http://www.w3.org/2000/svg">
<rect width="70" height="50" rx="25" fill="#09DBBA"/>
<path d="M22.1567 15.8507H49.8292C51.5806 15.8507 52.9983 17.267 52.9983 19.0166V29.5694C52.9983 31.319 51.5806 32.7353 49.8292 32.7353H39.9055L41.2676 36.0677L35.2772 32.7353H22.1705C20.4192 32.7353 19.0016 31.319 19.0016 29.5694V19.0166C18.9876 17.2809 20.4052 15.8507 22.1567 15.8507Z" fill="#202020"/>
<path d="M20.9376 18.7361C21.1311 18.4737 21.4213 18.3357 21.8083 18.3081C22.5132 18.2528 22.914 18.5841 23.0107 19.3021C23.4391 22.1876 23.9089 24.6314 24.4064 26.6333L27.4329 20.8761C27.7094 20.3514 28.0549 20.0753 28.4695 20.0477C29.0776 20.0063 29.4507 20.3928 29.6027 21.2074C29.9483 23.0435 30.3905 24.6037 30.9156 25.9291C31.2749 22.4223 31.883 19.8958 32.7398 18.3357C32.947 17.9491 33.2511 17.7558 33.6519 17.7281C33.9698 17.7006 34.26 17.7972 34.5226 18.0043C34.7851 18.2114 34.9233 18.4737 34.951 18.7913C34.9648 19.0398 34.9233 19.2469 34.8129 19.454C34.2738 20.4481 33.8315 22.1187 33.4722 24.438C33.1268 26.6885 33.0024 28.442 33.0853 29.6984C33.113 30.0433 33.0576 30.3471 32.9195 30.6095C32.7535 30.9132 32.5049 31.0789 32.187 31.1065C31.8276 31.1341 31.4546 30.9685 31.0953 30.5957C29.81 29.284 28.7873 27.3236 28.0411 24.7142C27.1427 26.4814 26.4794 27.8068 26.051 28.6903C25.2356 30.2505 24.5446 31.0513 23.9642 31.0927C23.591 31.1203 23.2732 30.8027 22.9968 30.1402C22.2921 28.3315 21.5319 24.8384 20.7167 19.6611C20.6613 19.3021 20.7442 18.9845 20.9376 18.7361ZM50.6365 20.9037C50.139 20.0339 49.4065 19.5093 48.4254 19.3021C48.1627 19.2469 47.9141 19.2193 47.679 19.2193C46.3524 19.2193 45.2744 19.9096 44.4314 21.2903C43.7127 22.4637 43.3535 23.7615 43.3535 25.1836C43.3535 26.2467 43.5746 27.1579 44.0168 27.9173C44.5143 28.7871 45.2468 29.3116 46.2279 29.5187C46.4905 29.5741 46.7392 29.6016 46.9743 29.6016C48.3148 29.6016 49.3927 28.9114 50.2219 27.5307C50.9405 26.3433 51.2998 25.0455 51.2998 23.6235C51.3137 22.5467 51.0787 21.6491 50.6365 20.9037ZM48.8952 24.728C48.7017 25.6392 48.3562 26.3157 47.8448 26.7713C47.4441 27.1303 47.071 27.282 46.7255 27.2131C46.3938 27.1441 46.1173 26.8542 45.9102 26.3157C45.7442 25.8877 45.6614 25.4597 45.6614 25.0593C45.6614 24.7142 45.689 24.369 45.7581 24.0515C45.8825 23.4854 46.1175 22.9331 46.4905 22.4085C46.9467 21.7319 47.4303 21.456 47.9278 21.5526C48.2595 21.6215 48.536 21.9116 48.7432 22.4499C48.909 22.8779 48.9919 23.3059 48.9919 23.7063C48.9919 24.0653 48.9643 24.4105 48.8952 24.728ZM41.9852 20.9037C41.4878 20.0339 40.7414 19.5093 39.7741 19.3021C39.5116 19.2469 39.2628 19.2193 39.0278 19.2193C37.7011 19.2193 36.6232 19.9096 35.7802 21.2903C35.0616 22.4637 34.7022 23.7615 34.7022 25.1836C34.7022 26.2467 34.9233 27.1579 35.3656 27.9173C35.863 28.7871 36.5956 29.3116 37.5767 29.5187C37.8394 29.5741 38.088 29.6016 38.323 29.6016C39.6635 29.6016 40.7414 28.9114 41.5706 27.5307C42.2894 26.3433 42.6486 25.0455 42.6486 23.6235C42.6486 22.5467 42.4275 21.6491 41.9852 20.9037ZM40.2302 24.728C40.0367 25.6392 39.6911 26.3157 39.1798 26.7713C38.7791 27.1303 38.4059 27.282 38.0603 27.2131C37.7287 27.1441 37.4524 26.8542 37.245 26.3157C37.0792 25.8877 36.9964 25.4597 36.9964 25.0593C36.9964 24.7142 37.024 24.369 37.093 24.0515C37.2175 23.4854 37.4524 22.9331 37.8256 22.4085C38.2816 21.7319 38.7652 21.456 39.2627 21.5526C39.5944 21.6215 39.8709 21.9116 40.0781 22.4499C40.2441 22.8779 40.3268 23.3059 40.3268 23.7063C40.3408 24.0653 40.2992 24.4105 40.2302 24.728Z" fill="#09DBBA"/>
</svg>
