<svg width="80" height="60" viewBox="0 0 80 60" fill="none" xmlns="http://www.w3.org/2000/svg">
<rect width="80" height="60" rx="30" fill="#08DBBA"/>
<path d="M22.825 30C22.825 36.8125 26.7375 42.6812 32.45 45.435L24.3475 23.0438C23.4062 25.2175 22.825 27.5375 22.825 30ZM51.5938 29.13C51.5938 27.03 50.7962 25.505 50.1437 24.42C49.2738 22.97 48.4775 21.8112 48.4775 20.3625C48.4775 18.7688 49.71 17.3187 51.3775 17.3187H51.595C48.55 14.4925 44.4925 12.825 40 12.825C37.1577 12.8502 34.3646 13.5698 31.8639 14.9212C29.3633 16.2726 27.2309 18.2148 25.6525 20.5788H26.74C28.5525 20.5788 31.305 20.3612 31.305 20.3612C32.2475 20.2887 32.32 21.665 31.45 21.8113C31.45 21.8113 30.5075 21.9562 29.4937 21.9562L35.7263 40.5063L39.4937 29.2738L36.8125 21.955L35 21.8125C34.0575 21.74 34.2025 20.3625 35.0725 20.3625C35.0725 20.3625 37.8975 20.58 39.565 20.58C41.3775 20.58 44.13 20.3625 44.13 20.3625C45.0725 20.29 45.145 21.6663 44.275 21.8125C44.275 21.8125 43.3325 21.9575 42.3187 21.9575L48.55 40.4375L50.3 34.7125C51.025 32.3213 51.6038 30.655 51.6038 29.1325L51.5938 29.13ZM40.29 31.5212L35.145 46.45C36.6663 46.885 38.3325 47.175 40 47.175C42.0287 47.175 43.9125 46.8 45.725 46.2325C45.6525 46.16 45.6525 46.0875 45.58 46.015L40.29 31.5212ZM55.0725 21.8125L55.2175 23.5625C55.2175 25.3125 54.9275 27.2587 53.9137 29.7225L48.6963 44.8675C53.7687 41.8962 57.2463 36.3888 57.2463 30.0125C57.1738 27.0413 56.3762 24.2875 55.0713 21.825L55.0725 21.8125ZM40 10C28.985 10 20 18.985 20 30C20 41.015 28.985 50 40 50C51.015 50 60 41.015 60 30C60 18.985 51.015 10 40 10ZM40 49.13C29.4925 49.13 20.9425 40.58 20.9425 30C20.9504 24.9481 22.9608 20.1053 26.5331 16.5331C30.1053 12.9608 34.9481 10.9504 40 10.9425C45.0519 10.9504 49.8947 12.9608 53.4669 16.5331C57.0392 20.1053 59.0496 24.9481 59.0575 30C59.0575 40.58 50.5075 49.13 40 49.13Z" fill="#202020"/>
</svg>
