<svg width="80" height="60" viewBox="0 0 80 60" fill="none" xmlns="http://www.w3.org/2000/svg">
<rect width="80" height="60" rx="30" fill="#08DBBA"/>
<path d="M39.6667 14V20.6667M39.6667 14C30.4617 14 23 21.4617 23 30.6667C22.9948 34.2742 24.165 37.7852 26.3334 40.6683H33.8334M39.6667 14C48.8717 14 56.3334 21.4617 56.3334 30.6667C56.3334 34.42 55.0934 37.8833 53 40.6683L45.5 40.6667M26.3334 20.6667L30.5 24.8333M48.8334 24.8333L53 20.6667M24.6667 35.6667H29.6667M39.6667 35.6667L41.3334 25.6667M49.6667 35.6667H54.6667" stroke="black" stroke-width="1.8" stroke-linecap="round" stroke-linejoin="round"/>
<path d="M39.666 45.666C40.9921 45.666 42.2639 45.1392 43.2015 44.2015C44.1392 43.2639 44.666 41.9921 44.666 40.666C44.666 39.3399 44.1392 38.0682 43.2015 37.1305C42.2639 36.1928 40.9921 35.666 39.666 35.666C38.3399 35.666 37.0682 36.1928 36.1305 37.1305C35.1928 38.0682 34.666 39.3399 34.666 40.666C34.666 41.9921 35.1928 43.2639 36.1305 44.2015C37.0682 45.1392 38.3399 45.666 39.666 45.666Z" stroke="black" stroke-width="1.8" stroke-linecap="round" stroke-linejoin="round"/>
</svg>
