<svg width="100" height="80" viewBox="0 0 100 80" fill="none" xmlns="http://www.w3.org/2000/svg">
<path d="M24.2375 40C24.2375 50.2188 30.1062 59.0219 38.675 63.1525L26.5212 29.5656C25.1094 32.8263 24.2375 36.3062 24.2375 40ZM67.3906 38.695C67.3906 35.545 66.1944 33.2575 65.2156 31.63C63.9106 29.455 62.7162 27.7169 62.7162 25.5437C62.7162 23.1531 64.565 20.9781 67.0662 20.9781H67.3925C62.825 16.7387 56.7388 14.2375 50 14.2375C45.7365 14.2752 41.5469 15.3547 37.7959 17.3818C34.0449 19.4089 30.8464 22.3222 28.4787 25.8681H30.11C32.8288 25.8681 36.9575 25.5419 36.9575 25.5419C38.3713 25.4331 38.48 27.4975 37.175 27.7169C37.175 27.7169 35.7612 27.9344 34.2406 27.9344L43.5894 55.7594L49.2406 38.9106L45.2188 27.9325L42.5 27.7188C41.0863 27.61 41.3037 25.5437 42.6087 25.5437C42.6087 25.5437 46.8463 25.87 49.3475 25.87C52.0662 25.87 56.195 25.5437 56.195 25.5437C57.6088 25.435 57.7175 27.4994 56.4125 27.7188C56.4125 27.7188 54.9987 27.9363 53.4781 27.9363L62.825 55.6562L65.45 47.0688C66.5375 43.4819 67.4056 40.9825 67.4056 38.6987L67.3906 38.695ZM50.435 42.2819L42.7175 64.675C44.9994 65.3275 47.4988 65.7625 50 65.7625C53.0431 65.7625 55.8688 65.2 58.5875 64.3488C58.4787 64.24 58.4788 64.1313 58.37 64.0225L50.435 42.2819ZM72.6087 27.7188L72.8262 30.3438C72.8262 32.9688 72.3913 35.8881 70.8706 39.5837L63.0444 62.3012C70.6531 57.8444 75.8694 49.5831 75.8694 40.0188C75.7606 35.5619 74.5644 31.4312 72.6069 27.7375L72.6087 27.7188ZM50 10C33.4775 10 20 23.4775 20 40C20 56.5225 33.4775 70 50 70C66.5225 70 80 56.5225 80 40C80 23.4775 66.5225 10 50 10ZM50 68.695C34.2387 68.695 21.4138 55.87 21.4138 40C21.4257 32.4221 24.4412 25.158 29.7996 19.7996C35.158 14.4412 42.4221 11.4257 50 11.4138C57.5779 11.4257 64.842 14.4412 70.2004 19.7996C75.5588 25.158 78.5743 32.4221 78.5863 40C78.5863 55.87 65.7612 68.695 50 68.695Z" fill="#202020"/>
</svg>
