<svg width="80" height="60" viewBox="0 0 80 60" fill="none" xmlns="http://www.w3.org/2000/svg">
<rect width="80" height="60" rx="30" fill="#08DBBA"/>
<path d="M46.6673 33.3327V38.3327M36.6673 38.3327V33.3327H31.6673M36.6673 23.3327H31.6673M23.334 14.3327V45.666C23.334 45.9312 23.4393 46.1856 23.6269 46.3731C23.8144 46.5607 24.0688 46.666 24.334 46.666H55.6673C55.9325 46.666 56.1869 46.5607 56.3744 46.3731C56.562 46.1856 56.6673 45.9312 56.6673 45.666V34.3327C56.6673 34.0675 56.562 33.8131 56.3744 33.6256C56.1869 33.438 55.9325 33.3327 55.6673 33.3327H37.6673C37.4021 33.3327 37.1477 33.2273 36.9602 33.0398C36.7727 32.8523 36.6673 32.5979 36.6673 32.3327V14.3327C36.6673 14.2014 36.6415 14.0713 36.5912 13.95C36.5409 13.8287 36.4673 13.7184 36.3744 13.6256C36.2816 13.5327 36.1713 13.4591 36.05 13.4088C35.9287 13.3585 35.7986 13.3327 35.6673 13.3327H24.334C24.2027 13.3327 24.0726 13.3585 23.9513 13.4088C23.83 13.4591 23.7197 13.5327 23.6269 13.6256C23.534 13.7184 23.4604 13.8287 23.4101 13.95C23.3598 14.0713 23.334 14.2014 23.334 14.3327Z" stroke="black" stroke-width="1.8" stroke-linecap="round" stroke-linejoin="round"/>
</svg>
