<svg width="80" height="60" viewBox="0 0 80 60" fill="none" xmlns="http://www.w3.org/2000/svg">
<rect width="80" height="60" rx="30" fill="#08DBBA"/>
<path d="M27.3391 35.8026L22.3273 30.7908C22.1177 30.581 22 30.2966 22 30C22 29.7034 22.1177 29.419 22.3273 29.2092L27.3391 24.1974C27.5489 23.9878 27.8333 23.8701 28.1299 23.8701C28.4265 23.8701 28.7109 23.9878 28.9207 24.1974L33.9325 29.2092C34.1421 29.419 34.2598 29.7034 34.2598 30C34.2598 30.2966 34.1421 30.581 33.9325 30.7908L28.9207 35.8026C28.7109 36.0122 28.4265 36.1299 28.1299 36.1299C27.8333 36.1299 27.5489 36.0122 27.3391 35.8026ZM39.2092 47.6727L34.1974 42.6609C34.0933 42.557 34.0108 42.4336 33.9545 42.2977C33.8981 42.1619 33.8692 42.0162 33.8692 41.8692C33.8692 41.7221 33.8981 41.5765 33.9545 41.4406C34.0108 41.3047 34.0933 41.1813 34.1974 41.0774L39.2092 36.0656C39.419 35.856 39.7034 35.7383 40 35.7383C40.2966 35.7383 40.581 35.856 40.7908 36.0656L45.8026 41.0774C45.9067 41.1813 45.9892 41.3047 46.0455 41.4406C46.1018 41.5765 46.1308 41.7221 46.1308 41.8692C46.1308 42.0162 46.1018 42.1619 46.0455 42.2977C45.9892 42.4336 45.9067 42.557 45.8026 42.6609L40.7908 47.6727C40.581 47.8823 40.2966 48 40 48C39.7034 48 39.419 47.8823 39.2092 47.6727ZM39.2092 23.9344L34.1974 18.9207C33.9878 18.7109 33.8701 18.4265 33.8701 18.1299C33.8701 17.8333 33.9878 17.5489 34.1974 17.3391L39.2092 12.3273C39.419 12.1177 39.7034 12 40 12C40.2966 12 40.581 12.1177 40.7908 12.3273L45.8026 17.3391C46.0122 17.5489 46.1299 17.8333 46.1299 18.1299C46.1299 18.4265 46.0122 18.7109 45.8026 18.9207L40.7908 23.9344C40.581 24.144 40.2966 24.2617 40 24.2617C39.7034 24.2617 39.419 24.144 39.2092 23.9344ZM51.0792 35.8026L46.0675 30.7908C45.8579 30.581 45.7402 30.2966 45.7402 30C45.7402 29.7034 45.8579 29.419 46.0675 29.2092L51.0792 24.1974C51.2891 23.9878 51.5735 23.8701 51.8701 23.8701C52.1667 23.8701 52.4511 23.9878 52.6609 24.1974L57.6727 29.2092C57.8823 29.419 58 29.7034 58 30C58 30.2966 57.8823 30.581 57.6727 30.7908L52.6609 35.8026C52.4511 36.0122 52.1667 36.1299 51.8701 36.1299C51.5735 36.1299 51.2891 36.0122 51.0792 35.8026Z" stroke="black" stroke-width="1.8"/>
</svg>
