<svg width="80" height="60" viewBox="0 0 80 60" fill="none" xmlns="http://www.w3.org/2000/svg">
<rect width="80" height="60" rx="30" fill="#08DBBA"/>
<path d="M23.334 41.6667V18.3333C23.334 17.4493 23.6852 16.6014 24.3103 15.9763C24.9354 15.3512 25.7833 15 26.6673 15H53.334C54.218 15 55.0659 15.3512 55.691 15.9763C56.3161 16.6014 56.6673 17.4493 56.6673 18.3333V41.6667C56.6673 42.5507 56.3161 43.3986 55.691 44.0237C55.0659 44.6488 54.218 45 53.334 45H26.6673C25.7833 45 24.9354 44.6488 24.3103 44.0237C23.6852 43.3986 23.334 42.5507 23.334 41.6667Z" stroke="black" stroke-width="1.5"/>
<path d="M23.334 21.667H56.6673M28.334 18.3504L28.3507 18.332M33.334 18.3504L33.3507 18.332M38.334 18.3504L38.3507 18.332" stroke="black" stroke-width="1.5" stroke-linecap="round" stroke-linejoin="round"/>
</svg>
