<svg width="505" height="248" viewBox="0 0 505 248" fill="none" xmlns="http://www.w3.org/2000/svg">
<path fill-rule="evenodd" clip-rule="evenodd" d="M395.938 535.912L395.926 535.919H395.914L395.9 535.927C395.788 535.951 395.681 536.005 395.59 536.091L395.579 536.098L395.564 536.114L395.549 536.122L367.828 563.834L367.815 563.842L367.799 563.857L367.788 563.873L367.775 563.888L367.768 563.896C367.703 563.982 367.658 564.067 367.63 564.169L367.627 564.176L367.622 564.192L367.621 564.207C367.617 564.223 367.614 564.231 367.612 564.246H367.611C367.604 564.293 367.6 564.34 367.6 564.379V690.072C367.6 690.391 367.793 690.671 368.087 690.795L432.957 716.99C445.192 721.923 456.268 720.585 464.294 714.493C470.538 709.763 474.944 702.123 476.578 692.258C493.144 691.511 505 677.624 505 655.747V580.335C505 580.016 504.805 579.728 504.51 579.612L396.401 535.958C396.369 535.943 396.335 535.935 396.302 535.927L396.285 535.919H396.277L396.263 535.912C396.155 535.888 396.045 535.896 395.938 535.912ZM395.674 576.243L369.157 565.538V689.55L433.541 715.544C445.177 720.243 455.723 719.052 463.352 713.256C471.02 707.444 475.722 697.035 475.722 683.451V608.561L395.955 576.352C395.853 576.336 395.758 576.298 395.674 576.243ZM503.443 582.226L477.279 608.359V683.451C477.279 685.972 477.116 688.391 476.812 690.694C492.451 689.815 503.443 676.472 503.443 655.747V582.226ZM42.9291 37.4254C40.2364 38.9658 37.6426 40.6775 35.1577 42.568C13.4666 59.0227 0 88.4153 0 126.856V403.38C0 479.989 53.5193 563.772 119.416 590.387L324.791 673.213C324.887 673.259 324.99 673.29 325.094 673.29H325.111C325.271 673.298 325.431 673.251 325.567 673.158C325.628 673.119 325.681 673.073 325.726 673.018L353.403 645.36C353.549 645.212 353.631 645.018 353.631 644.808V594.627C353.631 594.308 353.439 594.028 353.145 593.904L160.007 515.917C106.588 494.351 72.5254 440.957 72.5254 378.857V130.902C72.5254 113.755 75.1193 99.3695 80.0135 87.9952C93.8802 83.0316 111.384 84.3774 131.703 92.5775C131.793 92.6164 344.898 178.663 344.989 178.702C398.41 200.276 432.471 253.67 432.471 315.77V540.198C432.471 540.517 432.663 540.805 432.957 540.922L476.158 558.365C476.446 558.505 476.804 558.458 477.045 558.217L504.767 530.512C504.914 530.365 505 530.17 505 529.96V291.239C505 214.63 451.481 130.847 385.58 104.24L147.721 8.19598C102.719 -9.97804 63.482 3.07681 42.9291 37.4254ZM42.9337 39.2226C40.5711 40.6152 38.2918 42.14 36.0989 43.8049C14.7355 60.0184 1.55692 88.9988 1.55692 126.856V403.38C1.55692 479.39 54.6192 562.542 120 588.94L324.353 671.361V622.861L131.703 545.069C77.7115 523.269 43.2475 469.323 43.2475 406.562V158.606C43.2475 127.074 51.9686 104.777 67.3992 93.0678C82.8603 81.3356 105.113 80.1686 132.286 91.1384L345.573 177.255C399.564 199.062 434.028 253.001 434.028 315.77V539.677C434.028 539.677 475.714 556.513 475.722 556.513V318.944C475.722 242.941 422.657 159.789 357.275 133.384L119.416 37.3397C90.7687 25.7709 64.4925 27.0391 44.0563 38.5768C43.994 38.678 43.9333 38.7792 43.8733 38.8803C43.6803 39.2149 43.2802 39.3471 42.9337 39.2226ZM352.074 596.603L325.91 622.658V670.63L352.074 644.489V596.603ZM78.0027 88.7732C74.5331 90.2047 71.3087 92.0564 68.3404 94.3049C53.2141 105.788 44.8044 127.696 44.8044 158.606V406.562C44.8044 468.661 78.8668 522.055 132.286 543.629L324.946 621.421L351.543 594.938L159.424 517.364C105.433 495.565 70.9685 441.618 70.9685 378.857V130.902C70.9685 114.198 73.4113 100.085 78.0027 88.7732ZM396.879 575.053L476.314 607.122L502.851 580.615L396.879 537.825V575.053ZM369.761 564.098L395.322 574.422V538.557L369.761 564.098ZM477.279 555.789L503.443 529.641V291.239C503.443 215.237 450.375 132.084 384.996 105.679C384.946 105.664 147.138 9.63535 147.138 9.63535C103.99 -7.78401 66.216 3.94044 45.6903 35.9239C66.1343 25.3898 91.948 24.5729 120 35.9005L357.858 131.944C423.757 158.552 477.279 242.334 477.279 318.944V555.789Z" fill="#06CEAF"/>
</svg>
