<svg width="209" height="60" viewBox="0 0 209 60" fill="none" xmlns="http://www.w3.org/2000/svg">
<path d="M70.0451 29.3323L67.4944 43.6372H63.969L65.5658 34.6508L60.7962 43.6372H57.7478L56.1717 34.6712L54.5749 43.6372H51.0081L53.5588 29.3323H57.8929L60.0911 39.2968L65.7317 29.3323H70.0451V29.3323Z" fill="#002738"/>
<path fill-rule="evenodd" clip-rule="evenodd" d="M70.2625 29.388L70.0451 29.1265H65.6032L60.1826 38.7023C60.1826 38.7023 58.0702 29.1265 58.0702 29.1265H53.3739L50.7905 43.6143L51.008 43.8758H54.7597L56.1702 35.9559C56.1702 35.9559 57.5624 43.8758 57.5624 43.8758H60.9286L65.1023 36.0122C65.1023 36.0122 63.7515 43.6144 63.7515 43.6144L63.969 43.8758H67.6792L70.2625 29.388V29.388V29.388ZM69.781 29.571L67.3095 43.4314C67.3095 43.4314 64.2329 43.4314 64.2329 43.4314C64.2329 43.4314 65.7832 34.7063 65.7832 34.7063L65.3709 34.5625L60.6636 43.4313C60.6636 43.4313 57.933 43.4313 57.933 43.4313C57.933 43.4313 56.3892 34.6489 56.3892 34.6489L55.9542 34.6484L54.39 43.4314C54.39 43.4314 51.2721 43.4314 51.2721 43.4314C51.2721 43.4314 53.7435 29.571 53.7435 29.571H57.7156C57.7156 29.571 59.8754 39.3614 59.8754 39.3614L60.283 39.4232L65.8601 29.571L69.781 29.571V29.571V29.571Z" fill="#002738"/>
<path d="M76.2451 32.1626C77.1714 32.1626 77.9352 32.363 78.5366 32.7637C79.138 33.1645 79.5216 33.6977 79.6875 34.3633L80.0608 32.3052H83.6069L81.5539 43.6758H78.0078L78.4018 41.6177C77.987 42.2969 77.4237 42.8335 76.7117 43.2275C75.9997 43.6215 75.1944 43.8184 74.2957 43.8184C73.0377 43.8184 72.0423 43.4211 71.3095 42.6264C70.5768 41.8317 70.2104 40.7279 70.2104 39.3151C70.2104 38.7581 70.2588 38.2147 70.3556 37.6849C70.563 36.5573 70.9535 35.5758 71.5273 34.7404C72.101 33.9049 72.7992 33.2664 73.6218 32.8249C74.4444 32.3834 75.3188 32.1626 76.2451 32.1626V32.1626V32.1626ZM77.0124 35.2192C76.252 35.2192 75.5918 35.4637 75.0319 35.9528C74.472 36.4418 74.116 37.1211 73.9639 37.9905C73.9225 38.235 73.9017 38.4592 73.9017 38.663C73.9017 39.3286 74.0918 39.8448 74.472 40.2116C74.8522 40.5784 75.3603 40.7618 75.9962 40.7618C76.7428 40.7618 77.3995 40.5105 77.9663 40.0079C78.5331 39.5052 78.8926 38.8328 79.0446 37.9905C79.0861 37.7596 79.1069 37.5422 79.1069 37.3384C79.1069 36.6728 78.9168 36.1532 78.5366 35.7796C78.1564 35.406 77.6483 35.2192 77.0124 35.2192V35.2192Z" fill="#002738"/>
<path fill-rule="evenodd" clip-rule="evenodd" d="M76.2487 31.9053C75.2857 31.9053 74.3766 32.1347 73.5214 32.5937C72.6686 33.0515 71.944 33.7127 71.3492 34.5789C70.7586 35.4389 70.3555 36.4487 70.142 37.6093L70.142 37.6095C70.0428 38.1525 69.9932 38.7093 69.9932 39.28C69.9932 40.7584 70.3844 41.9108 71.1512 42.7424C71.9242 43.5808 72.9722 44.0056 74.2994 44.0056C75.2378 44.0056 76.0783 43.7985 76.8218 43.3871C77.2759 43.1359 77.6722 42.8292 78.0109 42.4672C78.0111 42.467 77.7945 43.5987 77.7945 43.5987L78.0114 43.863H81.742L83.828 32.3099L83.6106 32.0479H79.8802L79.6105 33.5346C79.388 33.1471 79.0722 32.8166 78.6622 32.5434C78.0285 32.1211 77.2248 31.9053 76.2487 31.9053V31.9053V31.9053ZM76.2487 32.3498C77.1252 32.3498 77.8492 32.5347 78.4182 32.9139C78.9706 33.2821 79.3245 33.7709 79.4769 34.3823L79.9085 34.3682L80.2487 32.4924H83.3459L81.3731 43.4185C81.3731 43.4185 78.279 43.4185 78.279 43.4185L78.6224 41.6247L78.2172 41.4663C77.8226 42.1126 77.2863 42.6229 76.6089 42.9977C75.9283 43.3742 75.1583 43.5611 74.2994 43.5611C73.1105 43.5611 72.1676 43.1912 71.4752 42.4402C70.7765 41.6824 70.435 40.6272 70.435 39.28C70.435 38.7368 70.4822 38.2068 70.5765 37.6901C70.7778 36.5957 71.1558 35.6425 71.7127 34.8316C72.2653 34.0269 72.9371 33.4112 73.7294 32.9859C74.5194 32.5619 75.3592 32.3498 76.2487 32.3498V32.3498V32.3498ZM77.016 34.9619C76.1999 34.9619 75.4917 35.225 74.8907 35.7499C74.2947 36.2705 73.9119 36.9914 73.75 37.9169L73.7499 37.9175C73.706 38.1762 73.6844 38.4128 73.6844 38.6279C73.6844 39.3638 73.9025 39.9315 74.3227 40.337C74.7416 40.7411 75.2992 40.949 75.9999 40.949C76.8018 40.949 77.5072 40.6794 78.1161 40.1395C78.719 39.6049 79.1039 38.891 79.2657 37.9952L79.2657 37.9951C79.3097 37.75 79.3315 37.5195 79.3315 37.3034C79.3315 36.5686 79.1143 35.9979 78.6946 35.5855C78.2754 35.1736 77.7173 34.9619 77.016 34.9619V34.9619ZM77.016 35.4064C77.5867 35.4064 78.0447 35.5683 78.3859 35.9035C78.7266 36.2383 78.8896 36.7068 78.8896 37.3034C78.8896 37.4948 78.8699 37.6989 78.8309 37.9158C78.6885 38.7044 78.3546 39.3354 77.8239 39.8061C77.299 40.2715 76.6911 40.5045 75.9999 40.5045C75.4286 40.5045 74.9701 40.3456 74.6286 40.0161C74.2885 39.688 74.1263 39.2233 74.1263 38.6279C74.1263 38.4356 74.1462 38.2241 74.1853 37.9934C74.3276 37.1803 74.6567 36.5429 75.1804 36.0855C75.6993 35.6323 76.3114 35.4064 77.016 35.4064V35.4064Z" fill="#002738"/>
<path d="M97.9548 28.5603L95.2382 43.6395H91.6921L92.0654 41.5814C91.6506 42.2607 91.0907 42.7973 90.3856 43.1912C89.6805 43.5852 88.8787 43.7822 87.9801 43.7822C86.7496 43.7822 85.7612 43.3746 85.0146 42.5595C84.2681 41.7445 83.8948 40.6237 83.8948 39.1973C83.8948 38.6811 83.9432 38.1648 84.0399 37.6486C84.2473 36.5211 84.6379 35.5396 85.2116 34.7041C85.7853 33.8686 86.4835 33.2301 87.3061 32.7886C88.1287 32.3471 89.0031 32.1263 89.9294 32.1263C90.8557 32.1263 91.6161 32.3233 92.2105 32.7173C92.805 33.1113 93.1852 33.6479 93.3511 34.3271L94.4087 28.5603H97.9548V28.5603V28.5603ZM90.6967 35.1829C89.9363 35.1829 89.2762 35.4275 88.7163 35.9165C88.1563 36.4056 87.8003 37.0848 87.6483 37.9542C87.6068 38.1988 87.5861 38.4229 87.5861 38.6267C87.5861 39.2924 87.7762 39.8086 88.1563 40.1754C88.5365 40.5422 89.0446 40.7256 89.6805 40.7256C90.4271 40.7256 91.0838 40.4742 91.6506 39.9716C92.2174 39.469 92.5769 38.7965 92.729 37.9542C92.7704 37.7233 92.7912 37.506 92.7912 37.3022C92.7912 36.6365 92.6011 36.1169 92.2209 35.7433C91.8407 35.3697 91.3326 35.1829 90.6967 35.1829V35.1829Z" fill="#002738"/>
<path fill-rule="evenodd" clip-rule="evenodd" d="M98.1757 28.6164L97.9583 28.3545H94.2282L93.2769 33.5417C93.0557 33.1487 92.742 32.8175 92.3355 32.5481C91.709 32.133 90.909 31.9205 89.9328 31.9205C88.9698 31.9205 88.0607 32.1499 87.2055 32.6089C86.3526 33.0667 85.6281 33.728 85.0332 34.5942C84.4427 35.4541 84.0396 36.4638 83.8262 37.6242C83.7269 38.154 83.6772 38.6839 83.6772 39.2137C83.6772 40.7051 84.075 41.8743 84.8555 42.7266C85.6434 43.5868 86.685 44.0209 87.9835 44.0209C88.9223 44.0209 89.7597 43.8135 90.4963 43.4019C90.9501 43.1484 91.3465 42.8384 91.6855 42.4721C91.6857 42.4719 91.4782 43.6161 91.4782 43.6161L91.6955 43.8782H95.4261L98.1757 28.6163V28.6164V28.6164ZM97.6937 28.799L95.0571 43.4337C95.0571 43.4337 91.9604 43.4337 91.9604 43.4337C91.9604 43.4337 92.2861 41.6377 92.2861 41.6377L91.8805 41.4815C91.4858 42.1279 90.9528 42.6384 90.2818 43.0134C89.6082 43.3897 88.8419 43.5763 87.9835 43.5763C86.8212 43.5763 85.8857 43.1953 85.1805 42.4254C84.4679 41.6474 84.1191 40.5752 84.1191 39.2137C84.1191 38.7112 84.1663 38.2087 84.2605 37.7062L84.2605 37.7058C84.4619 36.611 84.8399 35.6578 85.3968 34.8468C85.9494 34.0421 86.6212 33.4264 87.4135 33.0011C88.2035 32.5771 89.0432 32.365 89.9328 32.365C90.8092 32.365 91.5299 32.5466 92.0924 32.9193C92.6381 33.2809 92.9877 33.7731 93.14 34.3966L93.5718 34.3839L94.596 28.799H97.6937V28.799ZM90.7001 34.9771C89.884 34.9771 89.1758 35.2402 88.5748 35.7651C87.9788 36.2857 87.596 37.0067 87.4341 37.9322L87.434 37.9327C87.3901 38.1914 87.3685 38.428 87.3685 38.6431C87.3685 39.379 87.5865 39.9467 88.0068 40.3522C88.4257 40.7563 88.9833 40.9643 89.684 40.9643C90.4858 40.9643 91.1913 40.6947 91.8001 40.1548C92.403 39.6201 92.788 38.9063 92.9498 38.0104L92.9498 38.0103C92.9938 37.7653 93.0155 37.5347 93.0155 37.3186C93.0155 36.5839 92.7983 36.0131 92.3787 35.6008C91.9595 35.1888 91.4013 34.9771 90.7001 34.9771V34.9771ZM90.7001 35.4216C91.2708 35.4216 91.7288 35.5835 92.0699 35.9187C92.4107 36.2536 92.5737 36.722 92.5737 37.3186C92.5737 37.51 92.5539 37.7142 92.515 37.9311C92.3726 38.7197 92.0387 39.3507 91.5079 39.8213C90.9831 40.2867 90.3752 40.5197 89.684 40.5197C89.1127 40.5197 88.6542 40.3609 88.3127 40.0314C87.9726 39.7033 87.8104 39.2386 87.8104 38.6431C87.8104 38.4508 87.8303 38.2394 87.8694 38.0086C88.0117 37.1955 88.3408 36.5582 88.8645 36.1008C89.3834 35.6476 89.9954 35.4216 90.7001 35.4216V35.4216Z" fill="#002738"/>
<path d="M104.655 32.1626C106.176 32.1626 107.368 32.56 108.233 33.3547C109.097 34.1494 109.529 35.2124 109.529 36.5437C109.529 36.8562 109.494 37.2365 109.425 37.6848C109.37 38.0109 109.28 38.3233 109.155 38.6222H101.13C101.102 38.8939 101.088 39.0773 101.088 39.1724C101.088 40.4086 101.69 41.0267 102.893 41.0267C103.404 41.0267 103.86 40.8977 104.261 40.6396C104.662 40.3814 104.953 40.0486 105.132 39.6411H108.886C108.43 40.8773 107.638 41.8826 106.511 42.6569C105.385 43.4312 104.068 43.8184 102.561 43.8184C101.068 43.8184 99.8822 43.4109 99.0043 42.5958C98.1264 41.7807 97.6875 40.6531 97.6875 39.2131C97.6875 38.7784 97.729 38.3165 97.8119 37.8275C98.0193 36.6728 98.4479 35.6675 99.0977 34.8116C99.7474 33.9558 100.553 33.3003 101.514 32.8452C102.474 32.3901 103.522 32.1626 104.655 32.1626H104.655V32.1626ZM105.92 37.155C105.962 36.9241 105.983 36.7203 105.983 36.5437C105.983 36.0003 105.81 35.5928 105.464 35.3211C105.118 35.0494 104.683 34.9135 104.158 34.9135C103.508 34.9135 102.934 35.1037 102.436 35.4841C101.939 35.8645 101.593 36.4215 101.4 37.155H105.92V37.155Z" fill="#002738"/>
<path fill-rule="evenodd" clip-rule="evenodd" d="M104.659 31.9053C103.491 31.9053 102.413 32.1403 101.423 32.6091C100.43 33.0795 99.5974 33.757 98.9257 34.6417C98.2553 35.5247 97.8121 36.5615 97.5982 37.7529L97.598 37.754C97.5126 38.2573 97.4702 38.7316 97.4702 39.1781C97.4702 40.6887 97.9372 41.869 98.8581 42.724C99.7736 43.574 101.008 44.0056 102.564 44.0056C104.119 44.0056 105.477 43.6042 106.64 42.8054C107.806 42.0039 108.624 40.9629 109.097 39.6833L108.889 39.3837H104.992L104.934 39.5159C104.772 39.8842 104.508 40.184 104.146 40.4173C103.78 40.6529 103.363 40.7694 102.896 40.7694C102.367 40.7694 101.966 40.6447 101.701 40.3726C101.435 40.0989 101.313 39.6847 101.313 39.1373C101.313 39.0718 101.32 38.9625 101.334 38.8094C101.334 38.8094 109.306 38.8094 109.306 38.8094L109.363 38.673C109.494 38.3587 109.588 38.0301 109.646 37.6872L109.647 37.6855C109.718 37.2222 109.753 36.8304 109.753 36.5086C109.753 35.1081 109.294 33.9916 108.385 33.1556C107.485 32.3272 106.244 31.9053 104.659 31.9053H104.659V31.9053ZM104.659 32.3498C106.115 32.3498 107.26 32.7226 108.087 33.4836C108.906 34.237 109.311 35.2466 109.311 36.5086C109.311 36.8114 109.277 37.1798 109.211 37.614C109.166 37.8734 109.099 38.1236 109.009 38.3648C109.009 38.3649 100.934 38.3649 100.934 38.3649L100.914 38.5645C100.885 38.8474 100.871 39.0383 100.871 39.1373C100.871 39.8262 101.05 40.3391 101.385 40.6835C101.722 41.0295 102.223 41.2139 102.896 41.2139C103.452 41.2139 103.948 41.0723 104.384 40.7917C104.78 40.5371 105.076 40.2155 105.275 39.8282C105.275 39.8283 108.563 39.8283 108.563 39.8283C108.11 40.8849 107.385 41.7547 106.39 42.4383C105.299 43.1881 104.024 43.5611 102.564 43.5611C101.135 43.5611 99.9982 43.1776 99.1579 42.3974C98.323 41.6223 97.9121 40.5475 97.9121 39.1781C97.9121 38.7554 97.9526 38.3064 98.0332 37.8309C98.2341 36.7133 98.648 35.7399 99.2769 34.9115C99.9048 34.0845 100.683 33.451 101.611 33.0112C102.543 32.5698 103.559 32.3498 104.659 32.3498H104.659V32.3498ZM101.403 37.3422H106.109L106.141 37.1595C106.186 36.9136 106.207 36.6966 106.207 36.5086C106.207 35.8857 106 35.4224 105.604 35.1109C105.222 34.8106 104.742 34.6562 104.161 34.6562C103.461 34.6562 102.843 34.8621 102.306 35.2721C101.772 35.6803 101.397 36.2756 101.19 37.063L101.403 37.3422V37.3422ZM105.736 36.8977H101.701C101.889 36.3535 102.178 35.9286 102.574 35.626C103.033 35.2752 103.562 35.1007 104.161 35.1007C104.631 35.1007 105.022 35.218 105.332 35.4611C105.627 35.6931 105.765 36.0448 105.765 36.5086C105.765 36.6256 105.755 36.7553 105.736 36.8977L105.736 36.8977V36.8977Z" fill="#002738"/>
<path d="M126.593 29.2292L126.096 32.0006H122.114L120.04 43.636H116.474L118.547 32.0006H114.607L115.105 29.2292H126.593V29.2292Z" fill="#002738"/>
<path fill-rule="evenodd" clip-rule="evenodd" d="M126.811 29.2852L126.594 29.0234H114.92L114.39 31.9775L114.607 32.2393H118.283C118.283 32.2393 116.256 43.6132 116.256 43.6132L116.474 43.8747H120.225L122.299 32.2392C122.299 32.2393 126.281 32.2393 126.281 32.2393L126.811 29.2852L126.811 29.2852V29.2852ZM126.329 29.4679L125.911 31.7948C125.911 31.7948 121.929 31.7948 121.929 31.7948L119.856 43.4302H116.738L118.765 32.0562L118.547 31.7948H114.872C114.872 31.7948 115.29 29.468 115.29 29.468H126.329L126.329 29.4679Z" fill="#002738"/>
<path d="M132.856 32.1626C133.879 32.1626 134.782 32.3528 135.563 32.7332C136.344 33.1135 136.952 33.6671 137.388 34.3939C137.823 35.1207 138.041 35.9799 138.041 36.9716C138.041 37.3792 137.999 37.8207 137.916 38.2962C137.709 39.4237 137.274 40.4018 136.61 41.2305C135.946 42.0592 135.127 42.6977 134.153 43.146C133.178 43.5943 132.131 43.8184 131.011 43.8184C129.974 43.8184 129.061 43.6248 128.273 43.2377C127.485 42.8505 126.874 42.2969 126.438 41.5769C126.003 40.8569 125.785 40.0011 125.785 39.0094C125.785 38.5882 125.826 38.1467 125.909 37.6848C126.117 36.5573 126.552 35.5758 127.216 34.7403C127.879 33.9049 128.705 33.2664 129.694 32.8249C130.682 32.3834 131.737 32.1626 132.856 32.1626V32.1626ZM132.421 35.1784C131.744 35.1784 131.132 35.4162 130.586 35.8916C130.04 36.3671 129.684 37.0667 129.518 37.9905C129.462 38.3437 129.435 38.595 129.435 38.7445C129.435 39.4101 129.618 39.9162 129.984 40.2626C130.351 40.609 130.824 40.7822 131.405 40.7822C132.082 40.7822 132.694 40.5445 133.24 40.069C133.786 39.5935 134.142 38.9007 134.308 37.9905C134.35 37.7188 134.37 37.4675 134.37 37.2365C134.37 36.5709 134.187 36.0615 133.821 35.7083C133.454 35.355 132.988 35.1784 132.421 35.1784V35.1784Z" fill="#002738"/>
<path fill-rule="evenodd" clip-rule="evenodd" d="M132.86 31.9053C131.708 31.9053 130.624 32.1326 129.608 32.5867C128.586 33.043 127.732 33.703 127.047 34.5665C126.361 35.43 125.91 36.444 125.695 37.6093L125.695 37.6098C125.61 38.0859 125.567 38.5406 125.567 38.9743C125.567 40.0109 125.798 40.9048 126.253 41.6574C126.71 42.4136 127.352 42.9956 128.18 43.4023C128.996 43.8032 129.94 44.0056 131.014 44.0056C132.167 44.0056 133.245 43.7744 134.248 43.313C135.254 42.8501 136.1 42.1906 136.785 41.3349C137.471 40.4781 137.923 39.4673 138.137 38.3015L138.137 38.3005C138.223 37.8103 138.265 37.3559 138.265 36.9366C138.265 35.9005 138.035 35.0034 137.58 34.2441C137.122 33.4802 136.483 32.8979 135.662 32.498C134.853 32.1041 133.919 31.9053 132.86 31.9053ZM132.86 32.3498C133.846 32.3498 134.717 32.5313 135.47 32.8981C136.211 33.2591 136.789 33.7839 137.202 34.4736C137.618 35.1678 137.823 35.9893 137.823 36.9366C137.823 37.332 137.783 37.7604 137.702 38.2217C137.502 39.3106 137.082 40.2557 136.441 41.056C135.799 41.8576 135.007 42.4751 134.064 42.9088C133.118 43.3439 132.101 43.5611 131.014 43.5611C130.014 43.5611 129.134 43.3763 128.374 43.0029C127.625 42.6352 127.044 42.1101 126.63 41.4263C126.215 40.7389 126.009 39.9211 126.009 38.9743C126.009 38.5659 126.05 38.1377 126.13 37.6898C126.331 36.6002 126.751 35.6514 127.392 34.844C128.033 34.0365 128.832 33.4196 129.787 32.9929C130.747 32.5639 131.772 32.3498 132.86 32.3498ZM132.424 34.9211C131.694 34.9211 131.033 35.1758 130.444 35.6885C129.864 36.1938 129.48 36.9342 129.304 37.9159L129.303 37.9184C129.245 38.2902 129.217 38.5531 129.217 38.7094C129.217 39.4476 129.43 40.0053 129.836 40.3894C130.242 40.7732 130.765 40.9694 131.408 40.9694C132.139 40.9694 132.799 40.7147 133.388 40.202C133.969 39.6966 134.352 38.963 134.529 37.9955L134.529 37.9923C134.573 37.7053 134.595 37.4427 134.595 37.2015C134.595 36.4645 134.383 35.9038 133.977 35.5127C133.57 35.1206 133.054 34.9211 132.424 34.9211V34.9211ZM132.424 35.3656C132.929 35.3656 133.345 35.5193 133.671 35.8336C133.998 36.149 134.153 36.6071 134.153 37.2015C134.153 37.4205 134.133 37.6588 134.094 37.9162C133.938 38.7699 133.61 39.4209 133.099 39.8659C132.596 40.3041 132.033 40.5249 131.408 40.5249C130.89 40.5249 130.466 40.3747 130.139 40.0656C129.813 39.7569 129.659 39.3025 129.659 38.7094C129.659 38.5674 129.686 38.3293 129.739 37.9946C129.895 37.1279 130.222 36.4699 130.734 36.0246C131.237 35.5864 131.8 35.3656 132.424 35.3656V35.3656Z" fill="#002738"/>
<path d="M142.854 43.8184C141.624 43.8184 140.635 43.4109 139.889 42.5958C139.142 41.7807 138.769 40.6599 138.769 39.2335C138.769 38.7173 138.817 38.2011 138.914 37.6848C139.122 36.5573 139.512 35.5758 140.086 34.7403C140.66 33.9049 141.358 33.2664 142.18 32.8249C143.003 32.3834 143.877 32.1626 144.804 32.1626C145.744 32.1626 146.511 32.3596 147.106 32.7535C147.7 33.1475 148.08 33.6841 148.246 34.3633L148.619 32.3052H152.145L150.113 43.6147C149.933 44.6743 149.563 45.6286 149.003 46.4777C148.443 47.3267 147.7 48.0026 146.774 48.5052C145.848 49.0079 144.769 49.2592 143.539 49.2592C141.824 49.2592 140.504 48.855 139.578 48.0467C138.652 47.2384 138.168 46.1414 138.126 44.7558H141.631C141.672 45.2177 141.866 45.5777 142.212 45.8358C142.557 46.0939 143.048 46.223 143.684 46.223C144.417 46.223 145.042 46.0158 145.561 45.6014C146.079 45.1871 146.421 44.5248 146.587 43.6147L146.96 41.6177C146.546 42.2969 145.982 42.8335 145.27 43.2275C144.558 43.6215 143.753 43.8184 142.854 43.8184V43.8184V43.8184ZM145.55 35.2192C144.79 35.2192 144.133 35.4637 143.58 35.9527C143.027 36.4418 142.675 37.121 142.523 37.9905C142.481 38.235 142.46 38.4659 142.46 38.6833C142.46 39.3354 142.65 39.8448 143.031 40.2116C143.411 40.5784 143.919 40.7618 144.555 40.7618C145.301 40.7618 145.958 40.5105 146.525 40.0078C147.092 39.5052 147.451 38.8327 147.603 37.9905C147.645 37.7595 147.666 37.5422 147.666 37.3384C147.666 36.6727 147.472 36.1531 147.085 35.7795C146.698 35.406 146.186 35.2192 145.55 35.2192Z" fill="#002738"/>
<path fill-rule="evenodd" clip-rule="evenodd" d="M142.851 44.0056C143.79 44.0056 144.63 43.7985 145.374 43.3871C145.83 43.1346 146.228 42.8261 146.568 42.4617C146.568 42.4614 146.367 43.539 146.367 43.539C146.212 44.3863 145.903 45.0068 145.42 45.3923C144.94 45.7762 144.36 45.9656 143.681 45.9656C143.103 45.9656 142.654 45.8569 142.34 45.6222C142.046 45.4023 141.883 45.0943 141.848 44.7007L141.83 44.4984H138.123L137.902 44.7274C137.946 46.1817 138.458 47.3312 139.43 48.1795C140.391 49.0179 141.758 49.4463 143.536 49.4463C144.806 49.4463 145.919 49.1847 146.876 48.6657C147.835 48.1451 148.604 47.4448 149.184 46.5654C149.761 45.6913 150.142 44.709 150.327 43.6182L152.359 32.3097L152.142 32.0479H148.432L148.164 33.5244C147.943 33.1323 147.63 32.8018 147.224 32.5329C146.598 32.1179 145.791 31.9053 144.801 31.9053C143.838 31.9053 142.929 32.1347 142.073 32.5937C141.22 33.0515 140.496 33.7127 139.901 34.5789C139.311 35.4388 138.908 36.4485 138.694 37.609C138.595 38.1388 138.545 38.6686 138.545 39.1985C138.545 40.6898 138.943 41.8591 139.723 42.7113C140.511 43.5715 141.553 44.0056 142.851 44.0056V44.0056V44.0056ZM142.851 43.5611C141.689 43.5611 140.754 43.1801 140.048 42.4101C139.336 41.6321 138.987 40.5599 138.987 39.1984C138.987 38.6959 139.034 38.1934 139.128 37.691L139.128 37.6906C139.33 36.5957 139.708 35.6425 140.265 34.8316C140.817 34.0269 141.489 33.4111 142.281 32.9859C143.071 32.5619 143.911 32.3498 144.801 32.3498C145.691 32.3498 146.418 32.5311 146.981 32.9041C147.527 33.2657 147.876 33.7578 148.029 34.3813L148.46 34.3682L148.801 32.4924H151.877C151.877 32.4924 149.892 43.5411 149.892 43.5411C149.717 44.5701 149.359 45.4961 148.816 46.3197C148.276 47.1385 147.559 47.7898 146.666 48.2745C145.77 48.7608 144.726 49.0018 143.536 49.0018C141.885 49.0018 140.611 48.622 139.72 47.8438C138.891 47.1206 138.438 46.1526 138.355 44.943C138.355 44.943 141.436 44.943 141.436 44.943C141.517 45.3768 141.732 45.7217 142.077 45.9792C142.454 46.2608 142.987 46.4101 143.681 46.4101C144.468 46.4101 145.138 46.1853 145.695 45.7404C146.249 45.2973 146.624 44.5937 146.801 43.6205C146.801 43.6205 147.175 41.6237 147.175 41.6237L146.769 41.4663C146.375 42.1126 145.838 42.6228 145.161 42.9977C144.48 43.3742 143.71 43.5611 142.851 43.5611H142.851V43.5611V43.5611ZM145.547 34.9618C144.73 34.9618 144.025 35.2254 143.431 35.7507C142.843 36.2711 142.464 36.9918 142.302 37.9169L142.302 37.9174C142.258 38.1757 142.236 38.4191 142.236 38.6482C142.236 39.3699 142.454 39.931 142.875 40.3369C143.294 40.741 143.851 40.949 144.552 40.949C145.354 40.949 146.059 40.6794 146.668 40.1395C147.271 39.6048 147.656 38.891 147.818 37.9951L147.818 37.995C147.862 37.75 147.883 37.5194 147.883 37.3033C147.883 36.568 147.662 35.9968 147.235 35.5841C146.809 35.1728 146.247 34.9618 145.547 34.9618V34.9618ZM145.547 35.4063C146.119 35.4063 146.581 35.569 146.929 35.9048C147.275 36.2393 147.442 36.7073 147.442 37.3033C147.442 37.4947 147.422 37.6989 147.383 37.9158C147.24 38.7044 146.907 39.3354 146.376 39.806C145.851 40.2714 145.243 40.5045 144.552 40.5045C143.981 40.5045 143.522 40.3456 143.181 40.0161C142.841 39.6885 142.678 39.2307 142.678 38.6482C142.678 38.4428 142.698 38.2245 142.737 37.9933C142.88 37.1799 143.206 36.5422 143.723 36.0846C144.235 35.6318 144.843 35.4063 145.547 35.4063V35.4063Z" fill="#002738"/>
<path d="M159.443 32.1626C160.964 32.1626 162.156 32.56 163.02 33.3547C163.884 34.1494 164.316 35.2124 164.316 36.5437C164.316 36.8562 164.282 37.2365 164.213 37.6848C164.157 38.0109 164.068 38.3233 163.943 38.6222H155.918C155.89 38.8939 155.876 39.0773 155.876 39.1724C155.876 40.4086 156.478 41.0267 157.68 41.0267C158.192 41.0267 158.648 40.8977 159.049 40.6396C159.45 40.3814 159.74 40.0486 159.92 39.6411H163.674C163.217 40.8773 162.426 41.8826 161.299 42.6569C160.172 43.4312 158.856 43.8184 157.349 43.8184C155.856 43.8184 154.67 43.4109 153.792 42.5958C152.914 41.7807 152.475 40.6531 152.475 39.2131C152.475 38.7784 152.517 38.3165 152.6 37.8275C152.807 36.6728 153.236 35.6675 153.885 34.8116C154.535 33.9558 155.341 33.3003 156.301 32.8452C157.262 32.3901 158.309 32.1626 159.443 32.1626H159.443V32.1626ZM160.708 37.155C160.75 36.9241 160.77 36.7203 160.77 36.5437C160.77 36.0003 160.598 35.5928 160.252 35.3211C159.906 35.0494 159.471 34.9135 158.945 34.9135C158.296 34.9135 157.722 35.1037 157.224 35.4841C156.727 35.8645 156.381 36.4215 156.187 37.155H160.708Z" fill="#002738"/>
<path fill-rule="evenodd" clip-rule="evenodd" d="M159.447 31.9053C158.279 31.9053 157.2 32.1403 156.211 32.6091C155.218 33.0795 154.385 33.757 153.713 34.6417C153.043 35.5247 152.6 36.5615 152.386 37.7529L152.386 37.754C152.3 38.2573 152.258 38.7316 152.258 39.1781C152.258 40.6887 152.725 41.869 153.646 42.724C154.561 43.574 155.795 44.0056 157.352 44.0056C158.907 44.0056 160.265 43.6042 161.427 42.8054C162.593 42.0039 163.412 40.9629 163.884 39.6833L163.677 39.3837H159.78L159.722 39.5159C159.559 39.8842 159.296 40.184 158.933 40.4173C158.568 40.6529 158.151 40.7694 157.684 40.7694C157.154 40.7694 156.753 40.6447 156.489 40.3726C156.222 40.0989 156.101 39.6847 156.101 39.1373C156.101 39.0718 156.108 38.9625 156.122 38.8094C156.122 38.8094 164.094 38.8094 164.094 38.8094L164.15 38.673C164.281 38.3587 164.376 38.0301 164.434 37.6872L164.434 37.6855C164.506 37.2222 164.541 36.8304 164.541 36.5086C164.541 35.1081 164.082 33.9916 163.173 33.1556C162.272 32.3272 161.032 31.9053 159.447 31.9053H159.447V31.9053ZM159.447 32.3498C160.903 32.3498 162.047 32.7226 162.875 33.4836C163.694 34.237 164.099 35.2466 164.099 36.5086C164.099 36.8114 164.065 37.1798 163.998 37.614C163.954 37.8734 163.887 38.1236 163.797 38.3648C163.797 38.3649 155.722 38.3649 155.722 38.3649L155.701 38.5645C155.673 38.8474 155.659 39.0383 155.659 39.1373C155.659 39.8262 155.838 40.3391 156.173 40.6835C156.51 41.0295 157.011 41.2139 157.684 41.2139C158.24 41.2139 158.736 41.0723 159.172 40.7917C159.567 40.5371 159.864 40.2155 160.063 39.8282C160.063 39.8283 163.351 39.8283 163.351 39.8283C162.897 40.8849 162.173 41.7547 161.178 42.4383C160.087 43.1881 158.811 43.5611 157.352 43.5611C155.923 43.5611 154.786 43.1776 153.945 42.3974C153.111 41.6223 152.7 40.5475 152.7 39.1781C152.7 38.7554 152.74 38.3064 152.821 37.8309C153.022 36.7133 153.436 35.7399 154.064 34.9115C154.692 34.0845 155.471 33.451 156.399 33.0112C157.331 32.5698 158.347 32.3498 159.447 32.3498H159.447V32.3498ZM156.191 37.3422H160.896L160.929 37.1595C160.973 36.9136 160.995 36.6966 160.995 36.5086C160.995 35.8857 160.788 35.4224 160.391 35.1109C160.009 34.8106 159.529 34.6562 158.949 34.6562C158.249 34.6562 157.63 34.8621 157.094 35.2721C156.56 35.6803 156.185 36.2756 155.977 37.063L156.191 37.3422V37.3422ZM160.523 36.8977H156.489C156.676 36.3535 156.965 35.9286 157.361 35.626C157.82 35.2752 158.35 35.1007 158.949 35.1007C159.419 35.1007 159.81 35.218 160.119 35.4611C160.414 35.6931 160.553 36.0448 160.553 36.5086C160.553 36.6256 160.543 36.7553 160.523 36.8977L160.523 36.8977V36.8977Z" fill="#002738"/>
<path d="M169.419 39.4511C169.392 39.6413 169.378 39.7703 169.378 39.8382C169.378 40.1235 169.461 40.3307 169.627 40.4598C169.793 40.5888 170.062 40.6533 170.436 40.6533H171.555L171.016 43.6488H169.399C168.237 43.6488 167.342 43.4111 166.713 42.9356C166.084 42.4601 165.77 41.679 165.77 40.5922C165.77 40.1575 165.804 39.7567 165.873 39.3899L166.62 35.2126H165.085L165.624 32.2783H167.159L167.657 29.4866H171.224L170.726 32.2783H173.028L172.509 35.2126H170.187L169.419 39.4511V39.4511Z" fill="#002738"/>
<path fill-rule="evenodd" clip-rule="evenodd" d="M169.637 39.5034L170.371 35.4513C170.371 35.4513 172.694 35.4513 172.694 35.4513L173.245 32.3336L173.027 32.0725H170.99C170.99 32.0725 171.441 29.5422 171.441 29.5422L171.223 29.2808H167.472L166.974 32.0725H165.44L164.868 35.1886L165.085 35.4513H166.355C166.355 35.4513 165.656 39.3663 165.656 39.3663C165.584 39.7453 165.548 40.1595 165.548 40.6087C165.548 41.7806 165.902 42.617 166.58 43.1297C167.241 43.6291 168.179 43.8875 169.398 43.8875H171.2L171.772 40.7094L171.555 40.4475H170.435C170.126 40.4475 169.899 40.4074 169.762 40.3004C169.644 40.2089 169.599 40.0569 169.599 39.8547C169.599 39.7931 169.612 39.6767 169.637 39.5054L169.637 39.5034V39.5034ZM170.002 35.0068L169.201 39.4315C169.171 39.6413 169.157 39.7811 169.157 39.8547C169.157 40.2232 169.277 40.4853 169.491 40.652C169.686 40.8032 169.998 40.892 170.435 40.892H171.29C171.29 40.892 170.831 43.443 170.831 43.443C170.831 43.443 169.398 43.443 169.398 43.443C168.295 43.443 167.443 43.2259 166.846 42.7744C166.266 42.3361 165.99 41.6104 165.99 40.6087C165.99 40.1889 166.023 39.8019 166.09 39.4478L166.837 35.2684L166.62 35.0068H165.35C165.35 35.0068 165.808 32.517 165.808 32.517H167.344L167.841 29.7253H170.959L170.508 32.2555L170.726 32.517H172.764C172.764 32.517 172.324 35.0068 172.324 35.0068H170.002V35.0068Z" fill="#002738"/>
<path d="M182.359 32.1467C183.479 32.1467 184.353 32.4626 184.982 33.0943C185.611 33.726 185.926 34.6124 185.926 35.7535C185.926 36.161 185.884 36.589 185.801 37.0373L184.619 43.6395H181.094L182.193 37.4448C182.234 37.2139 182.255 37.0101 182.255 36.8335C182.255 36.2494 182.089 35.801 181.758 35.4886C181.426 35.1761 180.963 35.0199 180.368 35.0199C179.718 35.0199 179.155 35.2067 178.678 35.5803C178.201 35.9539 177.859 36.4939 177.651 37.2003L176.511 43.6395H172.944L175.64 28.5603H179.207L178.17 34.3067C178.626 33.641 179.217 33.1146 179.943 32.7275C180.669 32.3403 181.474 32.1467 182.359 32.1467V32.1467V32.1467Z" fill="#002738"/>
<path fill-rule="evenodd" clip-rule="evenodd" d="M182.359 31.9409C181.436 31.9409 180.596 32.1438 179.839 32.5475C179.347 32.8105 178.913 33.135 178.539 33.521C178.539 33.5213 179.424 28.6164 179.424 28.6164L179.207 28.3545H175.455L172.727 43.6166L172.944 43.8782H176.696L177.867 37.268C178.06 36.6173 178.373 36.1171 178.814 35.7721C179.252 35.4286 179.771 35.2586 180.368 35.2586C180.897 35.2586 181.311 35.3894 181.606 35.6673C181.897 35.9413 182.034 36.3376 182.034 36.8499C182.034 37.0151 182.014 37.2057 181.976 37.4217L180.876 43.6169L181.094 43.8782H184.804L186.019 37.0935C186.104 36.6313 186.147 36.1901 186.147 35.7699C186.147 34.56 185.805 33.6231 185.138 32.9534C184.471 32.2834 183.546 31.9409 182.359 31.9409V31.9409V31.9409ZM182.359 32.3854C183.411 32.3854 184.235 32.6745 184.826 33.268C185.417 33.8616 185.705 34.6975 185.705 35.7699C185.705 36.1646 185.664 36.5789 185.584 37.013L184.435 43.4337C184.435 43.4337 181.358 43.4337 181.358 43.4337L182.41 37.5003C182.455 37.2549 182.476 37.0379 182.476 36.8499C182.476 36.1939 182.281 35.6937 181.908 35.3428C181.54 34.9957 181.028 34.8141 180.368 34.8141C179.666 34.8141 179.058 35.0176 178.542 35.4214C178.031 35.8214 177.662 36.3974 177.44 37.1538L177.436 37.1656L176.326 43.4337C176.326 43.4337 173.208 43.4337 173.208 43.4337L175.825 28.799H178.942C178.942 28.799 177.952 34.2834 177.952 34.2834L178.352 34.4493C178.788 33.8131 179.353 33.3103 180.046 32.9403C180.741 32.5697 181.512 32.3854 182.359 32.3854Z" fill="#002738"/>
<path d="M193.928 32.1626C195.449 32.1626 196.642 32.56 197.506 33.3547C198.37 34.1494 198.802 35.2124 198.802 36.5437C198.802 36.8562 198.767 37.2365 198.698 37.6848C198.643 38.0109 198.553 38.3233 198.429 38.6222H190.403C190.375 38.8939 190.362 39.0773 190.362 39.1724C190.362 40.4086 190.963 41.0267 192.166 41.0267C192.677 41.0267 193.134 40.8977 193.535 40.6396C193.935 40.3814 194.226 40.0486 194.405 39.6411H198.159C197.703 40.8773 196.911 41.8826 195.785 42.6569C194.658 43.4312 193.341 43.8184 191.834 43.8184C190.341 43.8184 189.155 43.4109 188.278 42.5958C187.4 41.7807 186.961 40.6531 186.961 39.2131C186.961 38.7784 187.002 38.3165 187.085 37.8275C187.292 36.6728 187.721 35.6675 188.371 34.8116C189.021 33.9558 189.826 33.3003 190.787 32.8452C191.748 32.3901 192.795 32.1626 193.929 32.1626H193.928V32.1626ZM195.193 37.155C195.235 36.9241 195.256 36.7203 195.256 36.5437C195.256 36.0003 195.083 35.5928 194.737 35.3211C194.392 35.0494 193.956 34.9135 193.431 34.9135C192.781 34.9135 192.207 35.1037 191.71 35.4841C191.212 35.8645 190.866 36.4215 190.673 37.155H195.193Z" fill="#002738"/>
<path fill-rule="evenodd" clip-rule="evenodd" d="M193.932 31.9053C192.764 31.9053 191.686 32.1403 190.696 32.6091C189.703 33.0795 188.87 33.757 188.199 34.6417C187.528 35.5247 187.085 36.5615 186.871 37.7529L186.871 37.754C186.786 38.2573 186.743 38.7316 186.743 39.1781C186.743 40.6887 187.21 41.869 188.131 42.724C189.047 43.574 190.28 44.0056 191.837 44.0056C193.392 44.0056 194.75 43.6042 195.913 42.8054C197.079 42.0039 197.897 40.9629 198.369 39.6833L198.162 39.3837H194.265L194.207 39.5159C194.045 39.8842 193.781 40.184 193.419 40.4173C193.053 40.6529 192.636 40.7694 192.169 40.7694C191.64 40.7694 191.239 40.6447 190.974 40.3726C190.708 40.0989 190.586 39.6847 190.586 39.1373C190.586 39.0718 190.593 38.9625 190.607 38.8094C190.607 38.8094 198.579 38.8094 198.579 38.8094L198.636 38.673C198.767 38.3587 198.861 38.0301 198.919 37.6872L198.92 37.6855C198.991 37.2222 199.026 36.8304 199.026 36.5086C199.026 35.1081 198.567 33.9916 197.658 33.1556C196.758 32.3272 195.517 31.9053 193.932 31.9053H193.932V31.9053ZM193.932 32.3498C195.388 32.3498 196.533 32.7226 197.36 33.4836C198.179 34.237 198.584 35.2466 198.584 36.5086C198.584 36.8114 198.55 37.1798 198.483 37.614C198.439 37.8734 198.372 38.1236 198.282 38.3648C198.282 38.3649 190.207 38.3649 190.207 38.3649L190.187 38.5645C190.158 38.8474 190.144 39.0383 190.144 39.1373C190.144 39.8262 190.323 40.3391 190.658 40.6835C190.995 41.0295 191.496 41.2139 192.169 41.2139C192.725 41.2139 193.221 41.0723 193.657 40.7917C194.052 40.5371 194.349 40.2155 194.548 39.8282C194.548 39.8283 197.836 39.8283 197.836 39.8283C197.383 40.8849 196.658 41.7547 195.663 42.4383C194.572 43.1881 193.297 43.5611 191.837 43.5611C190.408 43.5611 189.271 43.1776 188.431 42.3974C187.596 41.6223 187.185 40.5475 187.185 39.1781C187.185 38.7554 187.226 38.3064 187.306 37.8309C187.507 36.7133 187.921 35.7399 188.55 34.9115C189.178 34.0845 189.956 33.451 190.884 33.0112C191.816 32.5698 192.832 32.3498 193.932 32.3498H193.932ZM190.676 37.3422H195.382L195.414 37.1595C195.458 36.9136 195.48 36.6966 195.48 36.5086C195.48 35.8857 195.273 35.4224 194.877 35.1109C194.495 34.8106 194.015 34.6562 193.434 34.6562C192.734 34.6562 192.116 34.8621 191.579 35.2721C191.045 35.6803 190.67 36.2756 190.463 37.063L190.676 37.3422V37.3422ZM195.009 36.8977H190.974C191.162 36.3535 191.451 35.9286 191.847 35.626C192.306 35.2752 192.835 35.1007 193.434 35.1007C193.904 35.1007 194.295 35.218 194.605 35.4611C194.9 35.6931 195.038 36.0448 195.038 36.5086C195.038 36.6256 195.028 36.7553 195.009 36.8977L195.009 36.8977V36.8977Z" fill="#002738"/>
<path d="M204.406 34.4245C204.973 33.7317 205.64 33.1815 206.407 32.7739C207.175 32.3664 207.966 32.1626 208.782 32.1626L208.118 35.8916H207.081C206.141 35.8916 205.378 36.0886 204.79 36.4826C204.202 36.8765 203.833 37.5422 203.68 38.4796L202.747 43.6554H199.18L201.213 32.2848H204.78L204.406 34.4244V34.4245V34.4245Z" fill="#002738"/>
<path fill-rule="evenodd" clip-rule="evenodd" d="M204.755 33.7306L204.997 32.3397L204.78 32.0791H201.028L198.963 43.6325L199.181 43.8941H202.932L203.898 38.5337C204.039 37.667 204.371 37.0474 204.913 36.684C205.468 36.3113 206.192 36.1303 207.082 36.1303H208.303L209 32.2182L208.782 31.9568C207.931 31.9568 207.105 32.1686 206.304 32.5938C205.734 32.8966 205.218 33.2754 204.755 33.7304L204.755 33.7306V33.7306V33.7306ZM204.189 34.4025L204.577 34.5822C205.125 33.9126 205.769 33.3808 206.511 32.9869C207.161 32.6414 207.83 32.4483 208.517 32.4089C208.517 32.4089 207.934 35.6859 207.934 35.6859C207.934 35.6858 207.082 35.6858 207.082 35.6858C206.091 35.6858 205.287 35.8988 204.668 36.3141C204.035 36.7383 203.627 37.4493 203.463 38.458C203.463 38.458 202.563 43.4496 202.563 43.4496C202.563 43.4496 199.445 43.4496 199.445 43.4496L201.398 32.5236C201.398 32.5236 204.517 32.5236 204.517 32.5236C204.517 32.5236 204.189 34.4025 204.189 34.4025V34.4025Z" fill="#002738"/>
<path fill-rule="evenodd" clip-rule="evenodd" d="M5.39564 20.4637L7.4109 14.664H25.5862L24.5152 20.6447H11.7016L9.87962 25.8687L9.89318 25.8575C11.8093 24.2614 14.0191 23.8202 15.7847 23.8202C21.611 23.8202 24.0748 26.8363 24.0748 31.4925C24.0748 31.5785 24.0734 31.6659 24.0706 31.755C24.1281 31.5344 24.18 31.3197 24.2082 31.1657C24.8226 27.8097 28.6323 20.6447 37.175 20.6447C38.9406 20.6447 41.229 20.9567 43.145 22.5524C45.3059 24.3519 45.612 27.1559 45.6116 28.9456L39.0838 28.9438C39.0901 28.2716 38.8045 26.1587 36.0784 26.2442C32.2782 26.3635 30.8643 30.1203 30.6383 34.0827C30.5192 36.1668 31.763 38.4 34.251 38.4C35.3288 38.4 37.6234 38.3176 38.6027 35.993H35.6273L36.4911 31.1657H45.6089L43.4019 43.4277H39.0825L39.2745 41.3035H39.1787C39.1787 41.3035 38.0106 42.7843 35.4729 43.5898C32.9347 44.3948 28.2433 44.2511 25.659 41.0779C24.3033 39.4134 23.7279 37.4288 23.728 35.4379C23.728 35.0174 23.741 34.4722 23.756 33.9801C23.3391 35.7135 22.4992 37.6278 21.1561 39.277C19.1821 41.7006 15.7154 43.9644 10.1352 44.0211C7.80074 44.0445 4.74717 43.66 2.66009 42.0851C0.713086 40.616 -0.368898 38.0826 0.113977 34.6415H7.12071C6.95958 37.8016 9.97376 38.2212 11.4817 38.2212C13.9698 38.2212 16.8336 36.0624 16.8336 32.683C16.8336 29.0239 14.2159 28.8466 12.6651 28.8466C9.93777 28.8466 9.10758 30.0136 8.06507 31.0707H1.69604L5.39556 20.4637H5.39564V20.4637ZM52.0861 17.6966C49.411 15.8233 40.9753 8.15205 28.0473 19.8685C38.4653 11.686 47.2747 19.8991 47.9273 20.4944C49.2557 19.5957 51.2111 18.277 52.0861 17.6966H52.0861V17.6966ZM60.4882 12.3366C56.4812 9.22907 43.1505 1.44255 29.1313 16.8799C41.396 5.20804 53.2744 15.731 54.3906 16.5238C55.966 15.4579 59.4512 13.0248 60.4882 12.3366V12.3366ZM72.449 5.24072C68.0897 1.66455 57.4748 -2.39661 45.9652 1.75163C40.4767 3.7298 34.6999 7.57255 29.7534 14.3247C35.6461 8.349 40.5595 6.28964 45.4316 5.77359C54.9097 4.76958 62.3013 10.5786 63.2233 11.2334C65.1926 9.90039 71.1519 6.10113 72.4489 5.2407L72.449 5.24072V5.24072Z" fill="#002738"/>
<path d="M49.4279 52.9539V52.9526H68.9622V54.6196L33.1884 54.6209L27.8875 60.0001H-0.000488281V58.3331H27.1353L32.4359 52.9539H49.4278H49.4279Z" fill="#002738"/>
</svg>
