<svg width="76" height="80" viewBox="0 0 76 80" fill="none" xmlns="http://www.w3.org/2000/svg">
<path d="M74.5388 78.5322V1.46793H1.46143V78.5322H74.5388ZM71.6153 75.5966H4.38446V4.4038H71.6154L71.6153 75.5966Z" fill="black"/>
<path d="M8.03845 56.514H67.962V71.9267H8.03845V56.514Z" fill="black"/>
<path d="M62.4812 70.092V58.3486H57.2249V70.092H62.4812ZM56.0442 64.2213C56.0499 62.6696 55.4416 61.1791 54.3531 60.0778C53.2647 58.9764 51.7852 58.3544 50.2402 58.3486H42.4724V70.092H50.2402C51.785 70.0864 53.2643 69.4648 54.3527 68.3639C55.4412 67.2629 56.0496 65.7728 56.0442 64.2213ZM51.217 64.2203C51.217 65.6302 50.1541 66.7721 48.8414 66.7721H47.7161V61.669H48.843C50.1556 61.669 51.217 62.8114 51.217 64.2203ZM31.5335 70.092H41.4604V66.6993H36.871V58.3486H31.5335V70.092ZM25.5434 70.092H30.8429L24.8539 58.3486H19.5082L13.5192 70.092H18.8188L19.3821 68.8576H24.9799L25.5434 70.092ZM23.4075 65.7667H20.9553L22.1509 63.1603L23.4075 65.7667Z" fill="white"/>
<path d="M58.2989 55.0458C59.1186 53.5793 59.5335 51.9195 59.5008 50.2381C59.4635 48.2658 58.6509 46.9975 57.5396 45.3226L41.3032 20.8382L43.9457 16.834L62.0179 43.9776C63.5054 46.2097 64.3561 47.8765 64.4156 50.3656C64.3973 51.9859 64.0288 53.5828 63.3354 55.0459L58.2989 55.0458ZM37.7376 8.07343L13.9829 43.9776C12.4957 46.2097 11.6447 47.8765 11.5854 50.3656C11.6039 51.9858 11.9722 53.5826 12.6649 55.0459H17.7021C16.8823 53.5794 16.4673 51.9197 16.4999 50.2382C16.5376 48.2659 17.3503 46.9976 18.4611 45.3227L43.0112 8.07343H37.7376ZM22.9023 46.2471H51.6313L49.6687 43.2882H24.8368L23.6882 45.0182C23.4253 45.4137 23.154 45.8374 22.9023 46.2471Z" fill="black"/>
<path d="M64.0812 55.0458C64.2146 54.7566 64.2806 54.5841 64.3838 54.3085C64.7766 53.2672 65.2478 51.8417 65.2126 50.3554C65.1502 47.747 64.2473 45.9983 62.7439 43.7443L44.3756 16.1943L46.5004 12.9964L66.4815 43.093C68.2352 45.7363 69.0579 47.2782 69.0579 49.7329C69.0579 52.5299 68.3158 53.7633 67.7503 55.0459L64.0812 55.0458ZM52.8684 55.0458H57.4408C58.2967 53.5946 58.734 51.9331 58.7041 50.2467C58.6688 48.41 57.9256 47.2337 56.8123 45.5563L40.8486 21.5033L38.7761 24.6294L52.3126 45.0182C53.5186 46.8342 54.5251 48.4686 54.6148 50.1293C54.6631 51.0241 54.5335 51.9197 54.2337 52.7638C53.934 53.6079 53.4697 54.3837 52.8684 55.0458ZM32.5973 8.07344L9.52007 43.093C7.76582 45.7358 6.94321 47.2782 6.9422 49.7329C6.9422 52.5304 7.685 53.7628 8.24997 55.0459H11.936C11.838 54.8274 11.7338 54.5781 11.6302 54.303C11.1364 53.0461 10.8838 51.7067 10.8859 50.3555C10.948 47.7471 11.8513 45.9984 13.3535 43.744L36.9525 8.07354L32.5973 8.07344ZM43.7946 8.07344L19.0909 45.5563C17.9777 47.2337 17.2346 48.41 17.1989 50.2467C17.1686 51.9331 17.6059 53.5947 18.4619 55.0458H23.1325C22.5313 54.3836 22.0673 53.6079 21.7675 52.7638C21.4678 51.9197 21.3382 51.0242 21.3863 50.1294C21.4103 49.6899 21.4821 49.2545 21.6004 48.8307H53.0377C52.8286 48.1571 52.5066 47.5243 52.0855 46.9596H22.4768C22.8184 46.3619 23.2672 45.6514 23.6882 45.0182L25.3092 42.5766H49.1953L47.8872 40.6054H26.6177L48.0458 8.07333L43.7946 8.07344Z" fill="black"/>
</svg>
