<svg width="412" height="186" viewBox="0 0 412 186" fill="none" xmlns="http://www.w3.org/2000/svg">
<g clip-path="url(#clip0_270_107)">
<path d="M385.2 -143H26.8C-15.6155 -143 -50 -108.615 -50 -66.2V292.2C-50 334.615 -15.6155 369 26.8 369H385.2C427.615 369 462 334.615 462 292.2V-66.2C462 -108.615 427.615 -143 385.2 -143Z" fill="white"/>
<path d="M281 183C292 157 277 145 262 145L114 143C110 143 110 137 115 136L265 134C282 133 302 119 308 101C308 101 318 80 317 77C312.671 56.1127 301.578 37.2349 285.437 23.2886C269.297 9.34233 249.009 1.10536 227.715 -0.147245C206.42 -1.39985 185.307 4.40174 167.642 16.3595C149.978 28.3173 136.748 45.7643 130 66C92 41 52 75 61 112C13 115 -3.99997 158 1.00003 184C1.00003 185 2.00003 186 4.00003 186H278C279 186 281 185 281 183Z" fill="#F38020"/>
<path d="M331 81C327 81 325 80 324 82L319 103C314 119 322 133 339 134L371 136C375 136 375 142 370 143L337 144C301 148 291 183 291 183C291 185 291 186 293 186H406L409 184C412.4 171.952 412.961 159.279 410.64 146.978C408.318 134.676 403.176 123.08 395.618 113.1C388.061 103.119 378.293 95.027 367.081 89.4575C355.869 83.888 343.519 80.9931 331 81Z" fill="#FAAE40"/>
</g>
<defs>
<clipPath id="clip0_270_107">
<rect width="412" height="186" fill="white"/>
</clipPath>
</defs>
</svg>
