<svg width="98" height="45" viewBox="0 0 98 45" fill="none" xmlns="http://www.w3.org/2000/svg">
<g clip-path="url(#clip0_475_27)">
<path d="M91.3156 0L88.0001 3.36812L84.6312 6.68361L88.0001 10.0518L91.3156 6.68361L94.6845 10.0518L98 6.68361L91.3156 0Z" fill="#424242"/>
<path d="M49.2106 21.7875H56.3159V28.8921H61V9.99907H56.3159V17.1037H49.2106V9.99907H44.5264V28.8921H49.2106V21.7875Z" fill="#424242"/>
<path d="M16.4737 10.0518H0V14.7355H16.4737V10.0518Z" fill="#424242"/>
<path d="M8.26316 17.1563H0V21.8401H8.26316V17.1563Z" fill="#424242"/>
<path d="M16.4737 24.2084H0V28.8921H16.4737V24.2084Z" fill="#424242"/>
<path d="M84.6312 19.4719C84.6312 14.2618 80.421 10.0518 75.2105 10.0518C70 10.0518 65.7895 14.2618 65.7895 19.4719C65.7895 24.682 70 28.8921 75.2105 28.8921C80.3684 28.8921 84.6312 24.682 84.6312 19.4719ZM70.4211 19.4719C70.4211 16.8406 72.5263 14.7355 75.1579 14.7355C77.7895 14.7355 79.8948 16.8406 79.8948 19.4719C79.8948 22.1033 77.7895 24.2083 75.1579 24.2083C72.579 24.2083 70.4211 22.1033 70.4211 19.4719Z" fill="#424242"/>
<path d="M30.6315 28.8921C35.0525 28.8921 38.7368 25.8924 39.7368 21.7875H34.7367C33.8946 23.2084 32.3683 24.2083 30.6315 24.2083C27.9999 24.2083 25.8947 22.1033 25.8947 19.4719C25.8947 16.8406 27.9999 14.7355 30.6315 14.7355C32.421 14.7355 33.9472 15.6828 34.7367 17.1563H39.7368C38.6841 13.1041 34.9999 10.0518 30.6315 10.0518C25.421 10.0518 21.2104 14.2618 21.2104 19.4719C21.2104 24.682 25.421 28.8921 30.6315 28.8921Z" fill="#424242"/>
<path d="M3 39.4175C2.89474 39.2596 2.73684 39.1544 2.52631 39.0491C2.36842 38.9439 2.15789 38.8913 1.94737 38.8913H0V43.7329H0.473684V41.9436H2.05263C2.26316 41.9436 2.47369 41.891 2.63158 41.8383C2.78947 41.7857 2.94737 41.6278 3.05263 41.5226C3.1579 41.4173 3.26316 41.2068 3.31579 41.0489C3.36842 40.8911 3.42105 40.6806 3.42105 40.4701C3.42105 40.2595 3.36842 40.1016 3.31579 39.9438C3.26316 39.6806 3.1579 39.5228 3 39.4175ZM2.89474 40.8384C2.84211 40.9963 2.78947 41.1016 2.68421 41.2068C2.57895 41.3121 2.52631 41.3647 2.36842 41.4699C2.26316 41.5226 2.10526 41.5752 2 41.5752H0.473684V39.3649H2C2.10526 39.3649 2.26316 39.4175 2.36842 39.4701C2.47369 39.5228 2.57895 39.628 2.68421 39.6806C2.78947 39.7859 2.84211 39.8911 2.89474 40.049C2.94737 40.2069 2.94737 40.3122 2.94737 40.4701C2.94737 40.5753 2.94737 40.7332 2.89474 40.8384Z" fill="#424242"/>
<path d="M9.00006 39.6806C8.78949 39.4701 8.57901 39.2596 8.26324 39.1018C8.00005 38.9439 7.68425 38.8913 7.31583 38.8913C7.00004 38.8913 6.68426 38.9439 6.4211 39.1018C6.15794 39.2596 5.89479 39.4175 5.68426 39.628C5.47373 39.8385 5.31583 40.1016 5.21057 40.4174C5.10531 40.7332 5.05267 40.9963 5.05267 41.3647C5.05267 41.6804 5.10531 41.9963 5.21057 42.2594C5.31583 42.5751 5.47373 42.8382 5.68426 43.0487C5.89479 43.2592 6.10531 43.4698 6.4211 43.5751C6.68426 43.7329 7.00005 43.7856 7.36847 43.7856C7.68425 43.7856 8.00005 43.7329 8.26324 43.5751C8.52632 43.4172 8.78949 43.2592 9.00006 43.0487C9.21054 42.8382 9.36843 42.5751 9.47371 42.2594C9.57899 41.9436 9.6316 41.6804 9.6316 41.3121C9.6316 40.9963 9.57899 40.7332 9.47371 40.4174C9.36843 40.1542 9.21054 39.8911 9.00006 39.6806ZM9.00006 42.0489C8.89477 42.312 8.78949 42.5225 8.63161 42.6804C8.47372 42.8909 8.26324 43.0487 8.05268 43.154C7.84215 43.2592 7.57899 43.3119 7.31583 43.3119C7.05267 43.3119 6.78951 43.2592 6.57899 43.154C6.36846 43.0487 6.15794 42.8909 6.00004 42.6804C5.84215 42.4699 5.73688 42.2594 5.63163 42.0489C5.52636 41.7857 5.52636 41.5752 5.52636 41.3121C5.52636 41.0489 5.57899 40.8384 5.63163 40.5753C5.73688 40.3122 5.84215 40.1016 6.00004 39.9438C6.15794 39.7333 6.36846 39.5754 6.57899 39.4701C6.78951 39.3649 7.05267 39.3123 7.31583 39.3123C7.57899 39.3123 7.84215 39.3649 8.05268 39.4701C8.26324 39.5754 8.47372 39.7333 8.63161 39.8911C8.78949 40.049 8.89477 40.3122 9.00006 40.5227C9.10534 40.7858 9.15794 40.9963 9.15794 41.2594C9.15794 41.5752 9.10534 41.8383 9.00006 42.0489Z" fill="#424242"/>
<path d="M11 39.3649H12.7368V43.7329H13.2105V39.3649H14.8947V38.8913H11V39.3649Z" fill="#424242"/>
<path d="M17.3158 41.4699H19.6842V41.0489H17.3158V39.3123H20V38.8913H16.8421V43.7329H19.7368C19.579 43.8382 19.4211 43.9961 19.3684 44.1013C19.2632 44.2065 19.2632 44.3118 19.2632 44.417C19.2632 44.5223 19.3158 44.6275 19.3684 44.7328C19.4737 44.8381 19.579 44.8907 19.7368 44.9433L19.8421 44.6802C19.6316 44.6275 19.4737 44.5749 19.4737 44.3644C19.4737 44.2592 19.5263 44.1539 19.579 44.0487C19.6842 43.9434 19.7894 43.8382 20 43.7329V43.3119H17.2105V41.4699H17.3158Z" fill="#424242"/>
<path d="M24.4736 41.733H25.5262V42.5225C25.3157 42.7856 25.0526 42.9961 24.7894 43.154C24.5262 43.2592 24.2631 43.3645 23.9999 43.3645C23.7368 43.3645 23.5262 43.3118 23.2631 43.2066C23.0526 43.1013 22.842 42.9435 22.6841 42.7856C22.5262 42.6277 22.3684 42.3646 22.3157 42.1541C22.2105 41.8909 22.1578 41.6278 22.1578 41.3647C22.1578 41.1015 22.2105 40.8384 22.2631 40.6279C22.3684 40.3648 22.4736 40.1542 22.6315 39.9964C22.7894 39.7859 22.9473 39.6806 23.1578 39.5227C23.3683 39.4175 23.6315 39.3649 23.8947 39.3649C24.2104 39.3649 24.5262 39.4175 24.7368 39.5754C25 39.7332 25.2104 39.9437 25.3683 40.2595L25.7368 39.9964C25.6841 39.8385 25.5789 39.6806 25.4736 39.5754C25.3683 39.4701 25.2104 39.3123 25.1052 39.2596C24.9473 39.1544 24.7894 39.1018 24.5789 39.0491C24.3683 38.9965 24.1579 38.9965 23.9473 38.9965C23.6315 38.9965 23.3157 39.0491 23.0526 39.207C22.7894 39.3649 22.5262 39.5227 22.3684 39.7332C22.1578 39.9437 21.9999 40.2069 21.8946 40.5227C21.7894 40.8384 21.7367 41.1015 21.7367 41.4699C21.7367 41.7857 21.7894 42.1015 21.8946 42.3646C21.9999 42.6803 22.1578 42.9435 22.3684 43.154C22.5788 43.3645 22.7894 43.575 23.1052 43.7329C23.4209 43.8908 23.6841 43.9434 23.9999 43.9434C24.5789 43.9434 25.1052 43.6803 25.5262 43.2066V43.8908H25.9473V41.5225H24.4736V41.733Z" fill="#424242"/>
<path d="M29.6316 38.8913L27.6315 43.7329H28.1579L28.7895 42.2068H30.9474L31.579 43.7329H32.1052L30 38.8913H29.6316ZM28.8421 41.8383L29.8421 39.4701L30.7895 41.8383H28.8421Z" fill="#424242"/>
<path d="M39.4737 41.5752C39.3158 41.4699 39.1579 41.3647 38.9474 41.3121C38.7369 41.2594 38.5264 41.2068 38.2632 41.1542C38.0526 41.1016 37.8422 41.0489 37.6843 40.9963C37.5264 40.9437 37.3684 40.8911 37.2632 40.8384C37.1579 40.7858 37.0527 40.6806 37.0001 40.5753C36.9474 40.4701 36.9474 40.3648 36.9474 40.2069C36.9474 39.9438 37.0527 39.7333 37.2632 39.5754C37.4737 39.4175 37.7895 39.3123 38.2105 39.3123C38.5264 39.3123 38.7369 39.3649 39 39.4701C39.2106 39.5754 39.4211 39.6806 39.5264 39.8385L39.7369 39.4701C39.5264 39.3123 39.3158 39.1544 39.0526 39.0491C38.7895 38.9439 38.5264 38.8913 38.2105 38.8913C37.9474 38.8913 37.7369 38.9439 37.5264 38.9965C37.3158 39.0492 37.1579 39.1544 37.0001 39.2596C36.8422 39.3649 36.7369 39.5228 36.6316 39.6806C36.5263 39.8385 36.5263 40.049 36.5263 40.2595C36.5263 40.4701 36.579 40.628 36.6316 40.7332C36.6843 40.8911 36.7895 40.9963 36.9474 41.1016C37.0527 41.2068 37.2632 41.2594 37.4211 41.3647C37.579 41.4699 37.8422 41.4699 38.1053 41.5226C38.3685 41.5752 38.579 41.6278 38.7369 41.6804C38.8948 41.7331 39.0526 41.7857 39.2106 41.891C39.3158 41.9436 39.4211 42.0489 39.4737 42.1541C39.5264 42.2594 39.579 42.3646 39.579 42.5225C39.579 42.7856 39.4737 42.9961 39.2632 43.154C39.0526 43.3119 38.7369 43.3645 38.3685 43.3645C38.1579 43.3645 38 43.3645 37.8422 43.3119C37.6843 43.2593 37.5264 43.2066 37.3684 43.154C37.2105 43.1014 37.1053 42.9961 36.9474 42.9435C36.8422 42.8382 36.7369 42.7856 36.6316 42.6804L36.3684 43.0487C36.8948 43.5224 37.579 43.7329 38.3158 43.7329C38.579 43.7329 38.7895 43.7329 39 43.6803C39.2106 43.6277 39.4211 43.5224 39.5264 43.4172C39.6843 43.3119 39.7895 43.154 39.8948 42.9961C40 42.8382 40 42.6277 40 42.4172C40 42.2068 39.9474 41.9963 39.8948 41.891C39.6843 41.7857 39.579 41.6804 39.4737 41.5752Z" fill="#424242"/>
<path d="M44.9475 39.4175C44.8422 39.2596 44.6843 39.1544 44.4737 39.0491C44.3158 38.9439 44.1053 38.8913 43.8948 38.8913H41.8948V43.7329H42.3685V41.9436H43.9474C44.158 41.9436 44.3684 41.891 44.5263 41.8383C44.6843 41.7857 44.8422 41.6278 44.9475 41.5226C45.0527 41.3647 45.1579 41.2068 45.2105 41.0489C45.2632 40.8911 45.3158 40.6806 45.3158 40.4701C45.3158 40.2595 45.2632 40.1016 45.2105 39.9438C45.1579 39.6806 45.1053 39.5228 44.9475 39.4175ZM44.8422 40.8384C44.7895 40.9963 44.7369 41.1016 44.6316 41.2068C44.5264 41.3121 44.4737 41.3647 44.3158 41.4699C44.2106 41.5226 44.0527 41.5752 43.9474 41.5752H42.4211V39.3649H43.9474C44.0527 39.3649 44.2106 39.4175 44.3158 39.4701C44.4211 39.5228 44.5264 39.628 44.6316 39.6806C44.7369 39.7859 44.7895 39.8911 44.8422 40.049C44.8948 40.2069 44.8948 40.3122 44.8948 40.4701C44.8948 40.5753 44.8422 40.7332 44.8422 40.8384Z" fill="#424242"/>
<path d="M50.1579 41.6804C50.3158 41.5752 50.421 41.4699 50.4737 41.3647C50.5789 41.2594 50.6316 41.1016 50.6842 40.9437C50.7368 40.7858 50.7368 40.628 50.7368 40.4175C50.7368 40.2069 50.6842 40.049 50.6316 39.8911C50.5789 39.7333 50.4737 39.5228 50.3158 39.4175C50.2106 39.2596 50.0527 39.1544 49.8421 39.0491C49.6842 38.9439 49.4737 38.8913 49.2632 38.8913H47.3684V43.7329H47.8421V41.9436H49.2632L50.421 43.7329H50.9474L49.7895 41.891C49.8947 41.8383 50.0527 41.7857 50.1579 41.6804ZM47.8421 41.5226V39.3123H49.3684C49.4737 39.3123 49.6316 39.3649 49.7368 39.4175C49.8421 39.4701 49.9474 39.5754 50.0527 39.6806C50.1579 39.7859 50.2106 39.8911 50.2632 40.049C50.3158 40.2069 50.3158 40.3122 50.3158 40.4701C50.3158 40.628 50.3158 40.7332 50.2632 40.8911C50.2106 40.9963 50.1579 41.1542 50.0527 41.2594C49.9474 41.3647 49.8947 41.4699 49.7368 41.5226C49.6316 41.5752 49.4737 41.6278 49.3684 41.6278H47.8421V41.5226Z" fill="#424242"/>
<path d="M52.6315 39.3649H55.842L52.5789 43.3645V43.7329H56.421V43.3119H53.1578L56.421 39.3123V38.8913H52.6315V39.3649Z" fill="#424242"/>
<path d="M58.8948 41.4699H61.2632V41.1016H58.8948V39.3649H61.6316V38.8913H58.421V43.7329H61.6842V43.3119H58.8948V41.4699Z" fill="#424242"/>
<path d="M67.158 39.628C66.9474 39.4175 66.7369 39.2596 66.4212 39.1018C66.158 38.9965 65.7896 38.8913 65.4212 38.8913H63.7896V43.7329H65.4212C65.7896 43.7329 66.1053 43.6803 66.3685 43.5751C66.6317 43.4698 66.8948 43.3119 67.1054 43.1014C67.3159 42.8909 67.4738 42.6277 67.579 42.3646C67.6843 42.0489 67.7369 41.7331 67.7369 41.3647C67.7369 41.0489 67.6843 40.7332 67.579 40.4175C67.4738 40.1016 67.3159 39.8385 67.158 39.628ZM67.1054 42.1015C67.0001 42.3646 66.8948 42.5751 66.7369 42.733C66.5791 42.8909 66.3685 43.0487 66.158 43.154C65.9474 43.2592 65.6843 43.3119 65.3685 43.3119H64.2106V39.3123H65.3685C65.6843 39.3123 65.9474 39.3649 66.158 39.4701C66.3685 39.5754 66.5791 39.6806 66.7369 39.8911C66.8948 40.049 67.0001 40.2595 67.1054 40.5227C67.2106 40.7858 67.2106 41.0489 67.2106 41.3121C67.2633 41.6278 67.2106 41.891 67.1054 42.1015Z" fill="#424242"/>
<path d="M71.1579 38.8913L69.1579 43.7329H69.6842L70.3158 42.2068H72.4736L73.1053 43.7329H73.6315L71.6315 38.8913H71.1579ZM70.3684 41.8383L71.3684 39.4701L72.3158 41.8383H70.3684Z" fill="#424242"/>
<path d="M77.3159 37.523H76.8948V38.2071H77.3159V37.523Z" fill="#424242"/>
<path d="M75.1053 39.3649H78.3158L75.0527 43.3645V43.7329H78.8948V43.3119H75.6316L78.8948 39.3123V38.8913H75.1053V39.3649Z" fill="#424242"/>
<path d="M82.5263 41.5226L80.9475 38.8913H80.4209L82.2633 41.9436V43.7329H82.7368V41.9436L84.6312 38.8913H84.1052L82.5263 41.5226Z" fill="#424242"/>
</g>
<defs>
<clipPath id="clip0_475_27">
<rect width="98" height="45" fill="white"/>
</clipPath>
</defs>
</svg>
