<svg width="154" height="70" viewBox="0 0 154 70" fill="none" xmlns="http://www.w3.org/2000/svg">
<g clip-path="url(#clip0_20_305)">
<path d="M142.834 0L137.676 5.2393L132.435 10.3967L137.676 15.6361L142.834 10.3967L148.075 15.6361L153.234 10.3967L142.834 0Z" fill="black"/>
<path d="M77.3291 33.8918H88.3832V44.9434H95.6707V15.5542H88.3832V26.6059H77.3291V15.5542H70.0417V44.9434H77.3291V33.8918Z" fill="black"/>
<path d="M26.3986 15.636H0.769531V22.9218H26.3986V15.636Z" fill="black"/>
<path d="M13.625 26.6877H0.769531V33.9737H13.625V26.6877Z" fill="black"/>
<path d="M26.3986 37.6575H0.769531V44.9433H26.3986V37.6575Z" fill="black"/>
<path d="M132.435 30.2895C132.435 22.185 125.885 15.636 117.779 15.636C109.672 15.636 103.122 22.185 103.122 30.2895C103.122 38.3942 109.672 44.9432 117.779 44.9432C125.803 44.9432 132.435 38.3942 132.435 30.2895ZM110.327 30.2895C110.327 26.1964 113.603 22.9218 117.697 22.9218C121.791 22.9218 125.066 26.1964 125.066 30.2895C125.066 34.3828 121.791 37.6573 117.697 37.6573C113.685 37.6573 110.327 34.3828 110.327 30.2895Z" fill="black"/>
<path d="M48.4247 44.9432C55.3027 44.9432 61.0345 40.277 62.5902 33.8916H54.8114C53.5013 36.1019 51.1267 37.6573 48.4247 37.6573C44.3306 37.6573 41.0553 34.3828 41.0553 30.2895C41.0553 26.1964 44.3306 22.9218 48.4247 22.9218C51.2087 22.9218 53.5831 24.3954 54.8114 26.6876H62.5902C60.9525 20.384 55.2208 15.636 48.4247 15.636C40.3184 15.636 33.7677 22.185 33.7677 30.2895C33.7677 38.3942 40.3184 44.9432 48.4247 44.9432Z" fill="black"/>
<path d="M5.43679 61.3162C5.27304 61.0705 5.02738 60.9069 4.69986 60.7431C4.45421 60.5794 4.12669 60.4976 3.79916 60.4976H0.769531V68.029H1.50647V65.2456H3.96293C4.29046 65.2456 4.61798 65.1638 4.86362 65.0819C5.10927 65.0001 5.35492 64.7545 5.51868 64.5908C5.68245 64.427 5.84621 64.0995 5.92809 63.8539C6.00998 63.6084 6.09185 63.2809 6.09185 62.9535C6.09185 62.626 6.00998 62.3804 5.92809 62.1349C5.84621 61.7255 5.68245 61.4799 5.43679 61.3162ZM5.27304 63.5264C5.19115 63.7721 5.10927 63.9359 4.94551 64.0995C4.78174 64.2633 4.69986 64.3452 4.45421 64.5088C4.29046 64.5908 4.0448 64.6726 3.88104 64.6726H1.50647V61.2343H3.88104C4.0448 61.2343 4.29046 61.3162 4.45421 61.398C4.61798 61.4799 4.78174 61.6436 4.94551 61.7255C5.10927 61.8892 5.19115 62.0529 5.27304 62.2985C5.35492 62.5442 5.35492 62.7078 5.35492 62.9535C5.35492 63.1171 5.35492 63.3628 5.27304 63.5264Z" fill="black"/>
<path d="M14.7714 61.7255C14.4438 61.398 14.1164 61.0705 13.6251 60.825C13.2156 60.5794 12.7244 60.4976 12.1512 60.4976C11.6599 60.4976 11.1686 60.5794 10.7592 60.825C10.3498 61.0705 9.94038 61.3162 9.61285 61.6436C9.28532 61.9711 9.03967 62.3804 8.87591 62.8716C8.71214 63.3628 8.63026 63.7721 8.63026 64.3452C8.63026 64.8363 8.71214 65.3276 8.87591 65.7369C9.03967 66.228 9.28532 66.6373 9.61285 66.9647C9.94038 67.2922 10.2679 67.6197 10.7592 67.7835C11.1686 68.029 11.6599 68.1109 12.2331 68.1109C12.7244 68.1109 13.2156 68.029 13.6251 67.7835C14.0344 67.5378 14.4438 67.2922 14.7714 66.9647C15.0989 66.6373 15.3445 66.228 15.5083 65.7369C15.6721 65.2456 15.7539 64.8363 15.7539 64.2633C15.7539 63.7721 15.6721 63.3628 15.5083 62.8716C15.3445 62.4622 15.0989 62.0529 14.7714 61.7255ZM14.7714 65.4094C14.6076 65.8187 14.4438 66.1462 14.1982 66.3918C13.9526 66.7193 13.6251 66.9648 13.2975 67.1285C12.97 67.2922 12.5606 67.3741 12.1512 67.3741C11.7418 67.3741 11.3324 67.2922 11.0048 67.1285C10.6773 66.9648 10.3498 66.7193 10.1041 66.3918C9.85849 66.0643 9.69472 65.7369 9.53097 65.4094C9.3672 65.0001 9.3672 64.6726 9.3672 64.2633C9.3672 63.8539 9.44908 63.5264 9.53097 63.1171C9.69472 62.7078 9.85849 62.3804 10.1041 62.1349C10.3498 61.8074 10.6773 61.5618 11.0048 61.398C11.3324 61.2343 11.7418 61.1525 12.1512 61.1525C12.5606 61.1525 12.97 61.2343 13.2975 61.398C13.6251 61.5618 13.9526 61.8074 14.1982 62.0529C14.4438 62.2985 14.6076 62.7078 14.7714 63.0353C14.9352 63.4446 15.0171 63.7721 15.0171 64.1814C15.0171 64.6726 14.9352 65.0819 14.7714 65.4094Z" fill="black"/>
<path d="M17.8828 61.2343H20.5848V68.029H21.3218V61.2343H23.942V60.4976H17.8828V61.2343Z" fill="black"/>
<path d="M27.7087 64.5088H31.3934V63.8539H27.7087V61.1525H31.8847V60.4976H26.9717V68.029H31.4752C31.2296 68.1928 30.984 68.4384 30.902 68.6021C30.7383 68.7657 30.7383 68.9295 30.7383 69.0932C30.7383 69.257 30.8202 69.4207 30.902 69.5845C31.0658 69.7481 31.2296 69.83 31.4752 69.9119L31.639 69.5026C31.3114 69.4207 31.0658 69.3388 31.0658 69.0114C31.0658 68.8477 31.1478 68.6839 31.2296 68.5202C31.3934 68.3564 31.5571 68.1928 31.8847 68.029V67.3741H27.5449V64.5088H27.7087Z" fill="black"/>
<path d="M38.8445 64.918H40.4821V66.1461C40.1546 66.5554 39.7452 66.8828 39.3358 67.1285C38.9263 67.2921 38.5169 67.4558 38.1075 67.4558C37.6982 67.4558 37.3706 67.374 36.9612 67.2103C36.6337 67.0465 36.3061 66.801 36.0605 66.5554C35.8149 66.3097 35.5692 65.9004 35.4873 65.573C35.3236 65.1637 35.2416 64.7544 35.2416 64.3451C35.2416 63.9356 35.3236 63.5264 35.4054 63.1989C35.5692 62.7896 35.733 62.4621 35.9787 62.2166C36.2243 61.8892 36.4699 61.7254 36.7974 61.4797C37.125 61.3161 37.5344 61.2342 37.9438 61.2342C38.4351 61.2342 38.9263 61.3161 39.2539 61.5617C39.6633 61.8072 39.9908 62.1347 40.2364 62.6259L40.8097 62.2166C40.7277 61.971 40.564 61.7254 40.4002 61.5617C40.2364 61.3979 39.9908 61.1524 39.827 61.0704C39.5814 60.9068 39.3358 60.8249 39.0083 60.743C38.6807 60.6611 38.3532 60.6611 38.0257 60.6611C37.5344 60.6611 37.0431 60.743 36.6337 60.9886C36.2243 61.2342 35.8149 61.4797 35.5692 61.8072C35.2416 62.1347 34.996 62.544 34.8322 63.0352C34.6685 63.5263 34.5866 63.9356 34.5866 64.5087C34.5866 65 34.6685 65.4911 34.8322 65.9004C34.996 66.3916 35.2416 66.801 35.5692 67.1285C35.8967 67.4558 36.2243 67.7833 36.7155 68.0289C37.2068 68.2745 37.6162 68.3563 38.1075 68.3563C39.0083 68.3563 39.827 67.947 40.4821 67.2103V68.2745H41.1371V64.5906H38.8445V64.918Z" fill="black"/>
<path d="M46.8691 60.4976L43.7575 68.029H44.5763L45.559 65.655H48.9161L49.8987 68.029H50.7174L47.4422 60.4976H46.8691ZM45.6408 65.0819L47.1965 61.398L48.6704 65.0819H45.6408Z" fill="black"/>
<path d="M62.1809 64.6726C61.9353 64.5088 61.6897 64.3452 61.3622 64.2633C61.0346 64.1814 60.7072 64.0995 60.2977 64.0177C59.9701 63.9359 59.6427 63.8539 59.3971 63.7721C59.1514 63.6902 58.9057 63.6084 58.742 63.5264C58.5782 63.4446 58.4144 63.2809 58.3326 63.1171C58.2506 62.9535 58.2506 62.7897 58.2506 62.5442C58.2506 62.1349 58.4144 61.8074 58.742 61.5618C59.0695 61.3162 59.5607 61.1525 60.2158 61.1525C60.7072 61.1525 61.0346 61.2343 61.444 61.398C61.7716 61.5618 62.0991 61.7255 62.2629 61.9711L62.5904 61.398C62.2629 61.1525 61.9353 60.9069 61.5259 60.7431C61.1166 60.5794 60.7072 60.4976 60.2158 60.4976C59.8065 60.4976 59.4789 60.5794 59.1514 60.6612C58.8238 60.7432 58.5782 60.9069 58.3326 61.0705C58.0869 61.2343 57.9231 61.4799 57.7594 61.7255C57.5956 61.9711 57.5956 62.2985 57.5956 62.626C57.5956 62.9535 57.6775 63.1991 57.7594 63.3628C57.8413 63.6084 58.005 63.7721 58.2506 63.9359C58.4144 64.0995 58.742 64.1814 58.9876 64.3452C59.2333 64.5088 59.6427 64.5088 60.0521 64.5908C60.4615 64.6726 60.789 64.7545 61.0346 64.8363C61.2803 64.9181 61.5259 65.0001 61.7716 65.1638C61.9353 65.2456 62.0991 65.4094 62.1809 65.5731C62.2629 65.7369 62.3447 65.9005 62.3447 66.1462C62.3447 66.5555 62.1809 66.8829 61.8535 67.1285C61.5259 67.3741 61.0346 67.456 60.4615 67.456C60.1339 67.456 59.8883 67.456 59.6427 67.3741C59.3971 67.2922 59.1514 67.2104 58.9057 67.1285C58.66 67.0467 58.4964 66.8829 58.2506 66.8011C58.0869 66.6373 57.9231 66.5555 57.7594 66.3918L57.3499 66.9648C58.1688 67.7015 59.2333 68.029 60.3796 68.029C60.789 68.029 61.1166 68.029 61.444 67.9471C61.7716 67.8653 62.0991 67.7015 62.2629 67.5378C62.5085 67.374 62.6723 67.1286 62.8361 66.8829C62.9998 66.6373 62.9998 66.3098 62.9998 65.9824C62.9998 65.655 62.918 65.3276 62.8361 65.1638C62.5085 65.0001 62.3447 64.8363 62.1809 64.6726Z" fill="black"/>
<path d="M70.6968 61.3162C70.533 61.0705 70.2873 60.9069 69.9598 60.7431C69.7141 60.5794 69.3867 60.4976 69.0591 60.4976H65.9476V68.029H66.6845V65.2456H69.1409C69.4685 65.2456 69.796 65.1638 70.0416 65.0819C70.2874 65.0001 70.533 64.7545 70.6968 64.5908C70.8604 64.3452 71.0242 64.0995 71.1061 63.8539C71.188 63.6084 71.2699 63.2809 71.2699 62.9535C71.2699 62.626 71.188 62.3804 71.1061 62.1349C71.0242 61.7255 70.9424 61.4799 70.6968 61.3162ZM70.533 63.5264C70.451 63.7721 70.3692 63.9359 70.2054 64.0995C70.0417 64.2633 69.9598 64.3452 69.7141 64.5088C69.5503 64.5908 69.3047 64.6726 69.1409 64.6726H66.7663V61.2343H69.1409C69.3047 61.2343 69.5503 61.3162 69.7141 61.398C69.8779 61.4799 70.0417 61.6436 70.2054 61.7255C70.3692 61.8892 70.451 62.0529 70.533 62.2985C70.6148 62.5442 70.6148 62.7078 70.6148 62.9535C70.6148 63.1171 70.533 63.3628 70.533 63.5264Z" fill="black"/>
<path d="M78.8029 64.8363C79.0485 64.6726 79.2123 64.5088 79.2943 64.3452C79.458 64.1814 79.5399 63.9359 79.6218 63.6902C79.7036 63.4446 79.7036 63.1991 79.7036 62.8716C79.7036 62.5442 79.6218 62.2985 79.5399 62.0529C79.458 61.8074 79.2943 61.4799 79.0485 61.3162C78.8849 61.0705 78.6392 60.9069 78.3117 60.7431C78.066 60.5794 77.7384 60.4976 77.411 60.4976H74.4632V68.029H75.2002V65.2456H77.411L79.2123 68.029H80.0312L78.2298 65.1638C78.3935 65.0819 78.6392 65.0001 78.8029 64.8363ZM75.2002 64.5908V61.1525H77.5748C77.7384 61.1525 77.9842 61.2343 78.1479 61.3162C78.3117 61.398 78.4754 61.5618 78.6392 61.7255C78.8029 61.8892 78.8849 62.0529 78.9667 62.2985C79.0485 62.5442 79.0485 62.7078 79.0485 62.9535C79.0485 63.1991 79.0485 63.3628 78.9667 63.6084C78.8849 63.7721 78.8029 64.0177 78.6392 64.1814C78.4754 64.3452 78.3935 64.5088 78.1479 64.5908C77.9842 64.6726 77.7384 64.7545 77.5748 64.7545H75.2002V64.5908Z" fill="black"/>
<path d="M82.6513 61.2343H87.6461L82.5694 67.456V68.029H88.5469V67.3741H83.4701L88.5469 61.1525V60.4976H82.6513V61.2343Z" fill="black"/>
<path d="M92.3954 64.5088H96.0801V63.9359H92.3954V61.2343H96.6532V60.4976H91.6584V68.029H96.7351V67.3741H92.3954V64.5088Z" fill="black"/>
<path d="M105.251 61.6436C104.923 61.3162 104.596 61.0705 104.105 60.825C103.695 60.6612 103.122 60.4976 102.549 60.4976H100.011V68.029H102.549C103.122 68.029 103.613 67.9471 104.023 67.7835C104.432 67.6197 104.842 67.374 105.169 67.0467C105.497 66.7192 105.742 66.3098 105.906 65.9005C106.07 65.4094 106.152 64.9181 106.152 64.3452C106.152 63.8539 106.07 63.3628 105.906 62.8716C105.742 62.3804 105.497 61.9711 105.251 61.6436ZM105.169 65.4912C105.005 65.9005 104.842 66.228 104.596 66.4736C104.35 66.7192 104.023 66.9648 103.695 67.1285C103.368 67.2922 102.958 67.3741 102.467 67.3741H100.666V61.1525H102.467C102.958 61.1525 103.368 61.2343 103.695 61.398C104.023 61.5618 104.35 61.7255 104.596 62.0529C104.842 62.2985 105.005 62.626 105.169 63.0353C105.333 63.4446 105.333 63.8539 105.333 64.2633C105.415 64.7545 105.333 65.1638 105.169 65.4912Z" fill="black"/>
<path d="M111.474 60.4976L108.362 68.029H109.181L110.164 65.655H113.521L114.503 68.029H115.322L112.211 60.4976H111.474ZM110.246 65.0819L111.801 61.398L113.275 65.0819H110.246Z" fill="black"/>
<path d="M121.054 58.3691H120.399V59.4334H121.054V58.3691Z" fill="black"/>
<path d="M117.615 61.2343H122.61L117.533 67.456V68.029H123.511V67.3741H118.434L123.511 61.1525V60.4976H117.615V61.2343Z" fill="black"/>
<path d="M129.16 64.5908L126.704 60.4976H125.885L128.751 65.2456V68.029H129.488V65.2456L132.435 60.4976H131.617L129.16 64.5908Z" fill="black"/>
</g>
<defs>
<clipPath id="clip0_20_305">
<rect width="152.464" height="70" fill="white" transform="translate(0.769531)"/>
</clipPath>
</defs>
</svg>
