<svg width="218" height="80" viewBox="0 0 218 80" fill="none" xmlns="http://www.w3.org/2000/svg">
<g clip-path="url(#clip0_6455_4629)">
<path d="M174.833 5L169.675 10.2393L164.434 15.3967L169.675 20.6361L174.833 15.3967L180.074 20.6361L185.232 15.3967L174.833 5Z" fill="#C7D0CF"/>
<path d="M109.33 38.8923H120.384V49.9439H127.672V20.5547H120.384V31.6064H109.33V20.5547H102.043V49.9439H109.33V38.8923Z" fill="#C7D0CF"/>
<path d="M58.3986 20.6367H32.7695V27.9225H58.3986V20.6367Z" fill="#C7D0CF"/>
<path d="M45.625 31.6875H32.7695V38.9734H45.625V31.6875Z" fill="#C7D0CF"/>
<path d="M58.3986 42.6582H32.7695V49.944H58.3986V42.6582Z" fill="#C7D0CF"/>
<path d="M164.434 35.2903C164.434 27.1857 157.884 20.6367 149.778 20.6367C141.672 20.6367 135.121 27.1857 135.121 35.2903C135.121 43.3949 141.672 49.9439 149.778 49.9439C157.802 49.9439 164.434 43.3949 164.434 35.2903ZM142.327 35.2903C142.327 31.1972 145.602 27.9225 149.696 27.9225C153.79 27.9225 157.065 31.1972 157.065 35.2903C157.065 39.3835 153.79 42.658 149.696 42.658C145.684 42.658 142.327 39.3835 142.327 35.2903Z" fill="#C7D0CF"/>
<path d="M80.4265 49.9439C87.3045 49.9439 93.0363 45.2777 94.592 38.8924H86.8132C85.5031 41.1027 83.1285 42.658 80.4265 42.658C76.3324 42.658 73.0571 39.3835 73.0571 35.2903C73.0571 31.1972 76.3324 27.9225 80.4265 27.9225C83.2105 27.9225 85.5849 29.3962 86.8132 31.6883H94.592C92.9543 25.3848 87.2226 20.6367 80.4265 20.6367C72.3202 20.6367 65.7695 27.1857 65.7695 35.2903C65.7695 43.3949 72.3202 49.9439 80.4265 49.9439Z" fill="#C7D0CF"/>
<path d="M37.4368 66.3166C37.273 66.071 37.0274 65.9073 36.6999 65.7435C36.4542 65.5799 36.1267 65.498 35.7992 65.498H32.7695V73.0295H33.5065V70.2461H35.9629C36.2905 70.2461 36.618 70.1642 36.8636 70.0824C37.1093 70.0006 37.3549 69.7549 37.5187 69.5913C37.6824 69.4275 37.8462 69.1 37.9281 68.8544C38.01 68.6089 38.0918 68.2814 38.0918 67.954C38.0918 67.6265 38.01 67.3809 37.9281 67.1354C37.8462 66.7259 37.6824 66.4804 37.4368 66.3166ZM37.273 68.5269C37.1912 68.7726 37.1093 68.9364 36.9455 69.1C36.7817 69.2638 36.6999 69.3457 36.4542 69.5093C36.2905 69.5913 36.0448 69.6731 35.881 69.6731H33.5065V66.2348H35.881C36.0448 66.2348 36.2905 66.3166 36.4542 66.3985C36.618 66.4804 36.7817 66.6441 36.9455 66.7259C37.1093 66.8897 37.1912 67.0534 37.273 67.299C37.3549 67.5447 37.3549 67.7083 37.3549 67.954C37.3549 68.1176 37.3549 68.3633 37.273 68.5269Z" fill="#C7D0CF"/>
<path d="M46.7701 66.7259C46.4425 66.3985 46.115 66.071 45.6238 65.8255C45.2143 65.5799 44.723 65.498 44.1498 65.498C43.6585 65.498 43.1672 65.5799 42.7578 65.8255C42.3484 66.071 41.939 66.3166 41.6115 66.6441C41.284 66.9716 41.0383 67.3809 40.8746 67.8721C40.7108 68.3633 40.6289 68.7726 40.6289 69.3457C40.6289 69.8368 40.7108 70.328 40.8746 70.7373C41.0383 71.2285 41.284 71.6378 41.6115 71.9652C41.939 72.2927 42.2666 72.6202 42.7578 72.784C43.1672 73.0295 43.6585 73.1114 44.2317 73.1114C44.723 73.1114 45.2143 73.0295 45.6238 72.784C46.0331 72.5383 46.4425 72.2927 46.7701 71.9652C47.0975 71.6378 47.3432 71.2285 47.507 70.7373C47.6708 70.2461 47.7526 69.8368 47.7526 69.2638C47.7526 68.7726 47.6708 68.3633 47.507 67.8721C47.3432 67.4627 47.0975 67.0534 46.7701 66.7259ZM46.7701 70.4099C46.6063 70.8192 46.4425 71.1466 46.1969 71.3923C45.9512 71.7197 45.6238 71.9652 45.2962 72.129C44.9687 72.2927 44.5592 72.3745 44.1498 72.3745C43.7404 72.3745 43.331 72.2927 43.0035 72.129C42.676 71.9652 42.3484 71.7197 42.1028 71.3923C41.8571 71.0648 41.6934 70.7373 41.5296 70.4099C41.3658 70.0006 41.3658 69.6731 41.3658 69.2638C41.3658 68.8544 41.4477 68.5269 41.5296 68.1176C41.6934 67.7083 41.8571 67.3809 42.1028 67.1354C42.3484 66.8079 42.676 66.5623 43.0035 66.3985C43.331 66.2348 43.7404 66.153 44.1498 66.153C44.5592 66.153 44.9687 66.2348 45.2962 66.3985C45.6238 66.5623 45.9512 66.8079 46.1969 67.0534C46.4425 67.299 46.6063 67.7083 46.7701 68.0358C46.9339 68.4451 47.0157 68.7726 47.0157 69.1819C47.0157 69.6731 46.9339 70.0824 46.7701 70.4099Z" fill="#C7D0CF"/>
<path d="M49.8828 66.2348H52.5849V73.0295H53.3219V66.2348H55.9421V65.498H49.8828V66.2348Z" fill="#C7D0CF"/>
<path d="M59.7097 69.5093H63.3944V68.8544H59.7097V66.153H63.8856V65.498H58.9727V73.0295H63.4762C63.2306 73.1933 62.9849 73.4389 62.903 73.6026C62.7393 73.7662 62.7393 73.93 62.7393 74.0937C62.7393 74.2575 62.8211 74.4212 62.903 74.5849C63.0668 74.7486 63.2306 74.8305 63.4762 74.9124L63.64 74.5031C63.3124 74.4212 63.0668 74.3393 63.0668 74.0119C63.0668 73.8482 63.1487 73.6844 63.2306 73.5207C63.3944 73.3569 63.558 73.1933 63.8856 73.0295V72.3745H59.5459V69.5093H59.7097Z" fill="#C7D0CF"/>
<path d="M70.8439 69.919H72.4814V71.147C72.154 71.5563 71.7445 71.8838 71.3351 72.1294C70.9257 72.2931 70.5163 72.4568 70.1068 72.4568C69.6975 72.4568 69.3699 72.3749 68.9605 72.2113C68.6331 72.0475 68.3055 71.802 68.0598 71.5563C67.8142 71.3107 67.5686 70.9014 67.4866 70.5739C67.323 70.1646 67.241 69.7553 67.241 69.3461C67.241 68.9366 67.323 68.5273 67.4048 68.1999C67.5686 67.7906 67.7324 67.4631 67.978 67.2176C68.2236 66.8901 68.4693 66.7263 68.7967 66.4807C69.1243 66.317 69.5337 66.2352 69.9432 66.2352C70.4344 66.2352 70.9257 66.317 71.2533 66.5627C71.6627 66.8082 71.9902 67.1356 72.2358 67.6269L72.809 67.2176C72.7271 66.972 72.5634 66.7263 72.3996 66.5627C72.2358 66.3989 71.9902 66.1534 71.8264 66.0714C71.5807 65.9077 71.3351 65.8259 71.0076 65.7439C70.6801 65.6621 70.3526 65.6621 70.025 65.6621C69.5337 65.6621 69.0425 65.7439 68.6331 65.9896C68.2236 66.2352 67.8142 66.4807 67.5686 66.8082C67.241 67.1356 66.9954 67.5449 66.8316 68.0362C66.6679 68.5273 66.5859 68.9366 66.5859 69.5097C66.5859 70.001 66.6679 70.4921 66.8316 70.9014C66.9954 71.3925 67.241 71.802 67.5686 72.1294C67.896 72.4568 68.2236 72.7842 68.7149 73.0299C69.2062 73.2755 69.6156 73.3573 70.1068 73.3573C71.0076 73.3573 71.8264 72.948 72.4814 72.2113V73.2755H73.1365V69.5916H70.8439V69.919Z" fill="#C7D0CF"/>
<path d="M78.8694 65.498L75.7578 73.0295H76.5767L77.5593 70.6555H80.9164L81.8991 73.0295H82.7178L79.4425 65.498H78.8694ZM77.6411 70.0824L79.1969 66.3985L80.6708 70.0824H77.6411Z" fill="#C7D0CF"/>
<path d="M94.1826 69.6731C93.9369 69.5093 93.6913 69.3457 93.3638 69.2638C93.0363 69.1819 92.7088 69.1 92.2994 69.0182C91.9718 68.9364 91.6443 68.8544 91.3987 68.7726C91.1531 68.6907 90.9073 68.6089 90.7436 68.5269C90.5798 68.4451 90.416 68.2814 90.3342 68.1176C90.2522 67.954 90.2522 67.7902 90.2522 67.5447C90.2522 67.1354 90.416 66.8079 90.7436 66.5623C91.0711 66.3166 91.5624 66.153 92.2174 66.153C92.7088 66.153 93.0363 66.2348 93.4457 66.3985C93.7733 66.5623 94.1007 66.7259 94.2645 66.9716L94.592 66.3985C94.2645 66.153 93.9369 65.9073 93.5275 65.7435C93.1182 65.5799 92.7088 65.498 92.2174 65.498C91.8081 65.498 91.4805 65.5799 91.1531 65.6617C90.8255 65.7437 90.5798 65.9073 90.3342 66.071C90.0886 66.2348 89.9248 66.4804 89.761 66.7259C89.5972 66.9716 89.5972 67.299 89.5972 67.6265C89.5972 67.954 89.6792 68.1996 89.761 68.3633C89.8429 68.6089 90.0066 68.7726 90.2522 68.9364C90.416 69.1 90.7436 69.1819 90.9893 69.3457C91.2349 69.5093 91.6443 69.5093 92.0537 69.5913C92.4632 69.6731 92.7906 69.755 93.0363 69.8368C93.2819 69.9186 93.5275 70.0006 93.7733 70.1643C93.9369 70.2461 94.1007 70.4099 94.1826 70.5735C94.2645 70.7373 94.3464 70.901 94.3464 71.1466C94.3464 71.5559 94.1826 71.8834 93.8551 72.129C93.5275 72.3745 93.0363 72.4565 92.4632 72.4565C92.1356 72.4565 91.8899 72.4565 91.6443 72.3745C91.3987 72.2927 91.1531 72.2109 90.9073 72.129C90.6617 72.0472 90.498 71.8834 90.2522 71.8016C90.0886 71.6378 89.9248 71.5559 89.761 71.3923L89.3516 71.9652C90.1704 72.702 91.2349 73.0295 92.3812 73.0295C92.7906 73.0295 93.1182 73.0295 93.4457 72.9476C93.7733 72.8658 94.1007 72.702 94.2645 72.5383C94.5102 72.3745 94.674 72.129 94.8377 71.8834C95.0014 71.6378 95.0014 71.3103 95.0014 70.9828C95.0014 70.6555 94.9196 70.328 94.8377 70.1643C94.5102 70.0006 94.3464 69.8368 94.1826 69.6731Z" fill="#C7D0CF"/>
<path d="M102.698 66.3166C102.535 66.071 102.289 65.9073 101.961 65.7435C101.716 65.5799 101.388 65.498 101.061 65.498H97.9492V73.0295H98.6861V70.2461H101.143C101.47 70.2461 101.798 70.1642 102.043 70.0824C102.289 70.0006 102.535 69.7549 102.698 69.5913C102.862 69.3457 103.026 69.1 103.108 68.8544C103.19 68.6089 103.271 68.2814 103.271 67.954C103.271 67.6265 103.19 67.3809 103.108 67.1354C103.026 66.7259 102.944 66.4804 102.698 66.3166ZM102.535 68.5269C102.453 68.7726 102.371 68.9364 102.207 69.1C102.043 69.2638 101.961 69.3457 101.716 69.5093C101.552 69.5913 101.306 69.6731 101.143 69.6731H98.7679V66.2348H101.143C101.306 66.2348 101.552 66.3166 101.716 66.3985C101.88 66.4804 102.043 66.6441 102.207 66.7259C102.371 66.8897 102.453 67.0534 102.535 67.299C102.616 67.5447 102.616 67.7083 102.616 67.954C102.616 68.1176 102.535 68.3633 102.535 68.5269Z" fill="#C7D0CF"/>
<path d="M110.805 69.8368C111.05 69.6731 111.214 69.5093 111.296 69.3457C111.46 69.1819 111.542 68.9364 111.623 68.6907C111.705 68.4451 111.705 68.1996 111.705 67.8721C111.705 67.5447 111.623 67.299 111.542 67.0534C111.46 66.8079 111.296 66.4804 111.05 66.3166C110.887 66.071 110.641 65.9073 110.313 65.7435C110.068 65.5799 109.74 65.498 109.413 65.498H106.465V73.0295H107.202V70.2461H109.413L111.214 73.0295H112.033L110.231 70.1643C110.395 70.0824 110.641 70.0006 110.805 69.8368ZM107.202 69.5913V66.153H109.576C109.74 66.153 109.986 66.2348 110.15 66.3166C110.313 66.3985 110.477 66.5623 110.641 66.7259C110.805 66.8897 110.887 67.0534 110.968 67.299C111.05 67.5447 111.05 67.7083 111.05 67.954C111.05 68.1996 111.05 68.3633 110.968 68.6089C110.887 68.7726 110.805 69.0182 110.641 69.1819C110.477 69.3457 110.395 69.5093 110.15 69.5913C109.986 69.6731 109.74 69.755 109.576 69.755H107.202V69.5913Z" fill="#C7D0CF"/>
<path d="M114.652 66.2348H119.647L114.57 72.4565V73.0295H120.548V72.3745H115.471L120.548 66.153V65.498H114.652V66.2348Z" fill="#C7D0CF"/>
<path d="M124.397 69.5093H128.082V68.9364H124.397V66.2348H128.655V65.498H123.66V73.0295H128.737V72.3745H124.397V69.5093Z" fill="#C7D0CF"/>
<path d="M137.252 66.6441C136.925 66.3166 136.597 66.071 136.106 65.8255C135.696 65.6617 135.123 65.498 134.55 65.498H132.012V73.0295H134.55C135.123 73.0295 135.614 72.9476 136.024 72.784C136.433 72.6202 136.843 72.3745 137.17 72.0472C137.498 71.7197 137.743 71.3103 137.907 70.901C138.071 70.4099 138.153 69.9186 138.153 69.3457C138.153 68.8544 138.071 68.3633 137.907 67.8721C137.743 67.3809 137.498 66.9716 137.252 66.6441ZM137.17 70.4917C137.007 70.901 136.843 71.2285 136.597 71.4741C136.351 71.7197 136.024 71.9652 135.696 72.129C135.369 72.2927 134.959 72.3745 134.468 72.3745H132.667V66.153H134.468C134.959 66.153 135.369 66.2348 135.696 66.3985C136.024 66.5623 136.351 66.7259 136.597 67.0534C136.843 67.299 137.007 67.6265 137.17 68.0358C137.334 68.4451 137.334 68.8544 137.334 69.2638C137.416 69.755 137.334 70.1643 137.17 70.4917Z" fill="#C7D0CF"/>
<path d="M143.475 65.498L140.363 73.0295H141.182L142.165 70.6555H145.522L146.504 73.0295H147.323L144.212 65.498H143.475ZM142.246 70.0824L143.802 66.3985L145.276 70.0824H142.246Z" fill="#C7D0CF"/>
<path d="M153.053 63.3691H152.398V64.4334H153.053V63.3691Z" fill="#C7D0CF"/>
<path d="M149.613 66.2348H154.608L149.531 72.4565V73.0295H155.509V72.3745H150.432L155.509 66.153V65.498H149.613V66.2348Z" fill="#C7D0CF"/>
<path d="M161.162 69.5913L158.706 65.498H157.887L160.753 70.2461V73.0295H161.49V70.2461L164.437 65.498H163.619L161.162 69.5913Z" fill="#C7D0CF"/>
</g>
<defs>
<clipPath id="clip0_6455_4629">
<rect width="152.464" height="70" fill="white" transform="translate(32.7695 5)"/>
</clipPath>
</defs>
</svg>
