<svg width="128" height="57" viewBox="0 0 128 57" fill="none" xmlns="http://www.w3.org/2000/svg">
<g clip-path="url(#clip0_653_62)">
<path d="M44.3583 17.7753H40.2153C40.056 17.7753 39.9033 17.8373 39.7907 17.9476C39.6781 18.058 39.6148 18.2077 39.6148 18.3637V38.2904C39.6148 38.4465 39.6781 38.5961 39.7907 38.7065C39.9033 38.8168 40.056 38.8788 40.2153 38.8788H44.3383C44.4976 38.8788 44.6503 38.8168 44.7629 38.7065C44.8755 38.5961 44.9388 38.4465 44.9388 38.2904V18.3833C44.9388 18.2273 44.8755 18.0776 44.7629 17.9673C44.6503 17.8569 44.4976 17.7949 44.3383 17.7949M16.1173 17.7949H2.84748C2.09371 17.7949 1.37081 18.0883 0.837807 18.6106C0.304807 19.1329 0.00537109 19.8413 0.00537109 20.58L0.00537109 36.0938C0.00537109 36.8324 0.304807 37.5408 0.837807 38.0631C1.37081 38.5854 2.09371 38.8788 2.84748 38.8788H16.1173C16.2766 38.8788 16.4293 38.8168 16.5419 38.7065C16.6545 38.5961 16.7178 38.4465 16.7178 38.2904V35.9369C16.7178 35.7808 16.6545 35.6312 16.5419 35.5208C16.4293 35.4105 16.2766 35.3485 16.1173 35.3485H5.94979C5.79054 35.3485 5.63782 35.2865 5.52521 35.1762C5.41261 35.0658 5.34934 34.9162 5.34934 34.7601V30.1118H13.3553C13.5145 30.1118 13.6673 30.0499 13.7799 29.9395C13.8925 29.8292 13.9557 29.6795 13.9557 29.5235V27.1699C13.9557 27.0139 13.8925 26.8642 13.7799 26.7539C13.6673 26.6435 13.5145 26.5815 13.3553 26.5815H5.34934V21.9529C5.34934 21.7968 5.41261 21.6472 5.52521 21.5368C5.63782 21.4265 5.79054 21.3645 5.94979 21.3645H16.1173C16.2766 21.3645 16.4293 21.3025 16.5419 21.1921C16.6545 21.0818 16.7178 20.9321 16.7178 20.7761V18.4225C16.7178 18.2665 16.6545 18.1168 16.5419 18.0065C16.4293 17.8961 16.2766 17.8342 16.1173 17.8342M128.721 17.7753H112.189C112.03 17.7753 111.877 17.8373 111.764 17.9476C111.652 18.058 111.588 18.2077 111.588 18.3637V20.7173C111.588 20.8733 111.652 21.023 111.764 21.1333C111.877 21.2437 112.03 21.3056 112.189 21.3056H117.793V38.2904C117.793 38.4465 117.856 38.5961 117.969 38.7065C118.081 38.8168 118.234 38.8788 118.393 38.8788H122.536C122.696 38.8788 122.848 38.8168 122.961 38.7065C123.074 38.5961 123.137 38.4465 123.137 38.2904V21.3253H128.741C128.9 21.3253 129.053 21.2633 129.166 21.1529C129.278 21.0426 129.342 20.8929 129.342 20.7369V18.3833C129.342 18.2273 129.278 18.0776 129.166 17.9673C129.053 17.8569 128.9 17.7949 128.741 17.7949M35.7319 17.7753H19.2197C19.0604 17.7753 18.9077 17.8373 18.7951 17.9476C18.6825 18.058 18.6192 18.2077 18.6192 18.3637V20.7173C18.6192 20.8733 18.6825 21.023 18.7951 21.1333C18.9077 21.2437 19.0604 21.3056 19.2197 21.3056H24.8238V38.2904C24.8238 38.4465 24.8871 38.5961 24.9997 38.7065C25.1123 38.8168 25.265 38.8788 25.4243 38.8788H29.5673C29.7266 38.8788 29.8793 38.8168 29.9919 38.7065C30.1045 38.5961 30.1678 38.4465 30.1678 38.2904V21.3253H35.772C35.9312 21.3253 36.0839 21.2633 36.1965 21.1529C36.3091 21.0426 36.3724 20.8929 36.3724 20.7369V18.3833C36.3724 18.2273 36.3091 18.0776 36.1965 17.9673C36.0839 17.8569 35.9312 17.7949 35.772 17.7949M109.447 17.7753H96.8774C96.5025 17.7753 96.1312 17.848 95.7851 17.9892C95.439 18.1304 95.1248 18.3373 94.8606 18.598C94.5964 18.8586 94.3875 19.168 94.2458 19.5082C94.1042 19.8483 94.0326 20.2126 94.0353 20.58V38.2904C94.0353 38.4465 94.0985 38.5961 94.2111 38.7065C94.3237 38.8168 94.4765 38.8788 94.6357 38.8788H98.9389C98.9967 38.8788 99.054 38.8677 99.1074 38.846C99.1608 38.8243 99.2094 38.7925 99.2503 38.7524C99.2912 38.7124 99.3236 38.6648 99.3457 38.6125C99.3679 38.5601 99.3792 38.504 99.3792 38.4473V31.8182H107.365C107.524 31.8182 107.677 31.7562 107.79 31.6458C107.902 31.5355 107.966 31.3858 107.966 31.2298V28.8762C107.966 28.7202 107.902 28.5705 107.79 28.4602C107.677 28.3498 107.524 28.2878 107.365 28.2878H99.3592V21.9136C99.3592 21.7576 99.4225 21.6079 99.5351 21.4976C99.6477 21.3872 99.8004 21.3253 99.9597 21.3253H109.427C109.586 21.3253 109.739 21.2633 109.851 21.1529C109.964 21.0426 110.027 20.8929 110.027 20.7369V18.3833C110.027 18.2273 109.964 18.0776 109.851 17.9673C109.739 17.8569 109.586 17.7949 109.427 17.7949M61.0307 26.758L59.9299 26.5423C55.3865 25.6009 54.5259 25.0321 54.5259 24.3064V22.6001C54.5259 21.2272 56.2072 21.0899 58.3888 21.0899C60.8129 21.0871 63.2297 21.3503 65.5941 21.8744C65.7453 21.9106 65.9049 21.8879 66.0393 21.8111C66.1737 21.7343 66.2724 21.6093 66.3147 21.4625L66.9151 19.1678C66.9362 19.0925 66.9417 19.0138 66.9314 18.9364C66.9211 18.8589 66.8951 18.7843 66.8551 18.7167C66.8139 18.6481 66.759 18.5885 66.6936 18.5413C66.6283 18.4941 66.5538 18.4603 66.4748 18.4422C63.4766 17.7676 60.4028 17.471 57.328 17.5596C53.9054 17.5596 51.944 17.893 50.7831 18.6579C49.7023 19.3836 49.262 20.5407 49.262 22.6197V23.973C49.262 29.0527 51.5837 29.5235 55.7868 30.3864L56.3873 30.5237C60.5904 31.3867 61.7913 31.7005 61.7913 32.7792V34.1717C61.7913 35.5446 60.1101 35.6819 57.9084 35.6819C55.491 35.6835 53.0809 35.4204 50.7231 34.8974C50.5719 34.8612 50.4123 34.8839 50.2779 34.9607C50.1435 35.0375 50.0448 35.1625 50.0025 35.3093L49.4021 37.604C49.3812 37.68 49.376 37.7593 49.3869 37.8373C49.3978 37.9153 49.4246 37.9904 49.4657 38.0581C49.5067 38.1257 49.5612 38.1846 49.626 38.2313C49.6907 38.2779 49.7643 38.3114 49.8424 38.3297C52.8395 39.0119 55.9135 39.3151 58.9892 39.2319C62.4118 39.2319 64.3732 38.8984 65.5341 38.1139C66.6149 37.3882 67.0552 36.2507 67.0552 34.1521V32.4262C67.0552 27.974 65.2939 27.621 61.0307 26.758ZM80.5052 17.5007C71.0382 17.5007 70.6179 19.9327 70.6179 28.3663C70.6179 36.8391 71.0182 39.2711 80.5052 39.2711C85.5089 39.2711 87.9507 38.6435 89.1516 37.0156C90.4126 35.3289 90.4126 32.5635 90.4126 28.3663C90.4126 24.1691 90.4126 21.4037 89.1516 19.7366C87.9307 18.1087 85.589 17.5007 80.5252 17.5007M80.5252 36.0742C75.9618 35.9369 75.9618 33.5637 75.9618 28.3859C75.9618 23.2081 75.9618 20.8545 80.5252 20.7369C85.0686 20.8349 85.0686 23.1885 85.0686 28.3663C85.0686 33.5637 85.0686 35.9173 80.5052 36.0546" fill="#424242"/>
</g>
<defs>
<clipPath id="clip0_653_62">
<rect width="128" height="22" fill="white" transform="translate(0 17.5)"/>
</clipPath>
</defs>
</svg>
