<svg width="197" height="34" viewBox="0 0 197 34" fill="none" xmlns="http://www.w3.org/2000/svg">
<g clip-path="url(#clip0_376_275)">
<path d="M67.5568 0.428829H61.2462C61.0036 0.428829 60.771 0.525643 60.5995 0.697974C60.428 0.870305 60.3316 1.10404 60.3316 1.34775V32.4685C60.3316 32.7122 60.428 32.9459 60.5995 33.1182C60.771 33.2906 61.0036 33.3874 61.2462 33.3874H67.5263C67.7689 33.3874 68.0015 33.2906 68.173 33.1182C68.3445 32.9459 68.4409 32.7122 68.4409 32.4685V1.37838C68.4409 1.13467 68.3445 0.900935 68.173 0.728605C68.0015 0.556274 67.7689 0.459459 67.5263 0.459459M24.5412 0.459459H4.329C3.18088 0.459459 2.07978 0.917714 1.26793 1.73341C0.45609 2.54911 0 3.65544 0 4.80901L0 29.0378C0 30.1914 0.45609 31.2977 1.26793 32.1134C2.07978 32.9291 3.18088 33.3874 4.329 33.3874H24.5412C24.7837 33.3874 25.0164 33.2906 25.1879 33.1182C25.3594 32.9459 25.4557 32.7122 25.4557 32.4685V28.7928C25.4557 28.5491 25.3594 28.3153 25.1879 28.143C25.0164 27.9707 24.7837 27.8739 24.5412 27.8739H9.05432C8.81176 27.8739 8.57913 27.7771 8.40761 27.6047C8.2361 27.4324 8.13974 27.1987 8.13974 26.955V19.6955H20.3341C20.5767 19.6955 20.8093 19.5987 20.9808 19.4264C21.1523 19.254 21.2487 19.0203 21.2487 18.7766V15.1009C21.2487 14.8572 21.1523 14.6235 20.9808 14.4511C20.8093 14.2788 20.5767 14.182 20.3341 14.182H8.13974V6.95315C8.13974 6.70944 8.2361 6.47571 8.40761 6.30338C8.57913 6.13105 8.81176 6.03423 9.05432 6.03423H24.5412C24.7837 6.03423 25.0164 5.93742 25.1879 5.76509C25.3594 5.59276 25.4557 5.35903 25.4557 5.11532V1.43964C25.4557 1.19593 25.3594 0.962197 25.1879 0.789866C25.0164 0.617535 24.7837 0.520721 24.5412 0.520721M196.055 0.428829H170.874C170.631 0.428829 170.398 0.525643 170.227 0.697974C170.055 0.870305 169.959 1.10404 169.959 1.34775V5.02342C169.959 5.26714 170.055 5.50087 170.227 5.6732C170.398 5.84553 170.631 5.94234 170.874 5.94234H179.41V32.4685C179.41 32.7122 179.506 32.9459 179.677 33.1182C179.849 33.2906 180.082 33.3874 180.324 33.3874H186.635C186.877 33.3874 187.11 33.2906 187.281 33.1182C187.453 32.9459 187.549 32.7122 187.549 32.4685V5.97297H196.085C196.328 5.97297 196.561 5.87616 196.732 5.70383C196.904 5.5315 197 5.29777 197 5.05405V1.37838C197 1.13467 196.904 0.900935 196.732 0.728605C196.561 0.556274 196.328 0.459459 196.085 0.459459M54.4174 0.428829H29.2665C29.0239 0.428829 28.7913 0.525643 28.6198 0.697974C28.4483 0.870305 28.3519 1.10404 28.3519 1.34775V5.02342C28.3519 5.26714 28.4483 5.50087 28.6198 5.6732C28.7913 5.84553 29.0239 5.94234 29.2665 5.94234H37.8025V32.4685C37.8025 32.7122 37.8989 32.9459 38.0704 33.1182C38.2419 33.2906 38.4746 33.3874 38.7171 33.3874H45.0277C45.2703 33.3874 45.5029 33.2906 45.6744 33.1182C45.8459 32.9459 45.9423 32.7122 45.9423 32.4685V5.97297H54.4783C54.7209 5.97297 54.9535 5.87616 55.125 5.70383C55.2966 5.5315 55.3929 5.29777 55.3929 5.05405V1.37838C55.3929 1.13467 55.2966 0.900935 55.125 0.728605C54.9535 0.556274 54.7209 0.459459 54.4783 0.459459M166.697 0.428829H147.552C146.981 0.428815 146.415 0.542326 145.888 0.762824C145.361 0.983322 144.882 1.30645 144.48 1.71359C144.078 2.12074 143.759 2.60385 143.544 3.1351C143.328 3.66635 143.219 4.23525 143.223 4.80901V32.4685C143.223 32.7122 143.319 32.9459 143.491 33.1182C143.662 33.2906 143.895 33.3874 144.137 33.3874H150.692C150.78 33.3874 150.867 33.37 150.949 33.3361C151.03 33.3022 151.104 33.2526 151.166 33.19C151.228 33.1274 151.278 33.0532 151.312 32.9714C151.345 32.8896 151.363 32.802 151.363 32.7135V22.3604H163.526C163.769 22.3604 164.002 22.2635 164.173 22.0912C164.345 21.9189 164.441 21.6852 164.441 21.4414V17.7658C164.441 17.5221 164.345 17.2883 164.173 17.116C164.002 16.9437 163.769 16.8468 163.526 16.8468H151.332V6.89189C151.332 6.64818 151.428 6.41445 151.6 6.24212C151.771 6.06979 152.004 5.97297 152.247 5.97297H166.667C166.909 5.97297 167.142 5.87616 167.313 5.70383C167.485 5.5315 167.581 5.29777 167.581 5.05405V1.37838C167.581 1.13467 167.485 0.900935 167.313 0.728605C167.142 0.556274 166.909 0.459459 166.667 0.459459M92.9516 14.4577L91.2748 14.1207C84.3545 12.6504 83.0436 11.7622 83.0436 10.6288V7.96396C83.0436 5.81982 85.6045 5.60541 88.9274 5.60541C92.6198 5.60109 96.301 6.01205 99.9024 6.83063C100.133 6.8872 100.376 6.85175 100.58 6.73175C100.785 6.61176 100.936 6.41659 101 6.18739L101.914 2.6036C101.946 2.48595 101.955 2.36307 101.939 2.24211C101.923 2.12116 101.884 2.00455 101.823 1.8991C101.76 1.79199 101.677 1.69876 101.577 1.62505C101.478 1.55134 101.364 1.49869 101.244 1.47027C96.6771 0.416717 91.9951 -0.0464903 87.3117 0.0918919C82.0986 0.0918919 79.111 0.612613 77.3428 1.80721C75.6965 2.94054 75.0258 4.74775 75.0258 7.99459V10.1081C75.0258 18.0414 78.5622 18.7766 84.9643 20.1243L85.8788 20.3387C92.2809 21.6865 94.11 22.1766 94.11 23.8613V26.036C94.11 28.1802 91.5492 28.3946 88.1958 28.3946C84.5136 28.3971 80.8426 27.9862 77.2513 27.1694C77.0211 27.1128 76.778 27.1483 76.5732 27.2682C76.3685 27.3882 76.2181 27.5834 76.1538 27.8126L75.2392 31.3964C75.2073 31.5151 75.1995 31.639 75.2161 31.7608C75.2328 31.8826 75.2736 31.9999 75.3361 32.1055C75.3986 32.2112 75.4816 32.3032 75.5802 32.3761C75.6788 32.4489 75.7909 32.5012 75.9099 32.5297C80.475 33.5952 85.1571 34.0688 89.842 33.9387C95.0551 33.9387 98.0427 33.418 99.8109 32.1928C101.457 31.0595 102.128 29.2829 102.128 26.0054V23.3099C102.128 16.3568 99.4451 15.8054 92.9516 14.4577ZM122.614 0C108.195 0 107.554 3.7982 107.554 16.9694C107.554 30.2018 108.164 34 122.614 34C130.236 34 133.955 33.0198 135.784 30.4775C137.705 27.8432 137.705 23.5243 137.705 16.9694C137.705 10.4144 137.705 6.0955 135.784 3.49189C133.925 0.949549 130.358 0 122.645 0M122.645 29.0072C115.694 28.7928 115.694 25.0865 115.694 17C115.694 8.91351 115.694 5.23784 122.645 5.05405C129.565 5.20721 129.565 8.88288 129.565 16.9694C129.565 25.0865 129.565 28.7622 122.614 28.9766" fill="black"/>
</g>
<defs>
<clipPath id="clip0_376_275">
<rect width="197" height="34" fill="white"/>
</clipPath>
</defs>
</svg>
