<svg width="116" height="32" viewBox="0 0 116 32" fill="none" xmlns="http://www.w3.org/2000/svg">
<g clip-path="url(#clip0_758_310)">
<path d="M39.7796 6.25225H36.0638C35.9209 6.25225 35.784 6.3092 35.683 6.41057C35.582 6.51194 35.5252 6.64943 35.5252 6.79279V25.0991C35.5252 25.2425 35.582 25.3799 35.683 25.4813C35.784 25.5827 35.9209 25.6396 36.0638 25.6396H39.7617C39.9045 25.6396 40.0415 25.5827 40.1425 25.4813C40.2435 25.3799 40.3002 25.2425 40.3002 25.0991V6.81081C40.3002 6.66745 40.2435 6.52996 40.1425 6.42859C40.0415 6.32722 39.9045 6.27027 39.7617 6.27027M14.4506 6.27027H2.54906C1.873 6.27027 1.22464 6.53983 0.746601 7.01965C0.268561 7.49948 0 8.15026 0 8.82883L0 23.0811C0 23.7597 0.268561 24.4104 0.746601 24.8903C1.22464 25.3701 1.873 25.6396 2.54906 25.6396H14.4506C14.5935 25.6396 14.7304 25.5827 14.8314 25.4813C14.9324 25.3799 14.9892 25.2425 14.9892 25.0991V22.9369C14.9892 22.7936 14.9324 22.6561 14.8314 22.5547C14.7304 22.4533 14.5935 22.3964 14.4506 22.3964H5.33148C5.18865 22.3964 5.05167 22.3394 4.95068 22.2381C4.84968 22.1367 4.79294 21.9992 4.79294 21.8559V17.5856H11.9734C12.1162 17.5856 12.2532 17.5286 12.3542 17.4273C12.4552 17.3259 12.5119 17.1884 12.5119 17.045V14.8829C12.5119 14.7395 12.4552 14.602 12.3542 14.5007C12.2532 14.3993 12.1162 14.3423 11.9734 14.3423H4.79294V10.0901C4.79294 9.94673 4.84968 9.80924 4.95068 9.70787C5.05167 9.6065 5.18865 9.54955 5.33148 9.54955H14.4506C14.5935 9.54955 14.7304 9.4926 14.8314 9.39123C14.9324 9.28986 14.9892 9.15237 14.9892 9.00901V6.84685C14.9892 6.70349 14.9324 6.566 14.8314 6.46463C14.7304 6.36326 14.5935 6.30631 14.4506 6.30631M115.444 6.25225H100.616C100.473 6.25225 100.336 6.3092 100.235 6.41057C100.134 6.51194 100.077 6.64943 100.077 6.79279V8.95495C100.077 9.09832 100.134 9.2358 100.235 9.33717C100.336 9.43855 100.473 9.4955 100.616 9.4955H105.642V25.0991C105.642 25.2425 105.699 25.3799 105.8 25.4813C105.901 25.5827 106.038 25.6396 106.181 25.6396H109.897C110.039 25.6396 110.176 25.5827 110.277 25.4813C110.378 25.3799 110.435 25.2425 110.435 25.0991V9.51351H115.461C115.604 9.51351 115.741 9.45656 115.842 9.35519C115.943 9.25382 116 9.11633 116 8.97297V6.81081C116 6.66745 115.943 6.52996 115.842 6.42859C115.741 6.32722 115.604 6.27027 115.461 6.27027M32.0427 6.25225H17.2331C17.0902 6.25225 16.9532 6.3092 16.8523 6.41057C16.7513 6.51194 16.6945 6.64943 16.6945 6.79279V8.95495C16.6945 9.09832 16.7513 9.2358 16.8523 9.33717C16.9532 9.43855 17.0902 9.4955 17.2331 9.4955H22.2594V25.0991C22.2594 25.2425 22.3161 25.3799 22.4171 25.4813C22.5181 25.5827 22.6551 25.6396 22.7979 25.6396H26.5138C26.6566 25.6396 26.7936 25.5827 26.8946 25.4813C26.9956 25.3799 27.0523 25.2425 27.0523 25.0991V9.51351H32.0786C32.2214 9.51351 32.3584 9.45656 32.4594 9.35519C32.5604 9.25382 32.6171 9.11633 32.6171 8.97297V6.81081C32.6171 6.66745 32.5604 6.52996 32.4594 6.42859C32.3584 6.32722 32.2214 6.27027 32.0786 6.27027M98.1566 6.25225H86.8833C86.5471 6.25224 86.2141 6.31902 85.9037 6.44872C85.5932 6.57842 85.3114 6.7685 85.0745 7.008C84.8375 7.24749 84.6502 7.53168 84.5231 7.84418C84.3961 8.15668 84.3319 8.49132 84.3343 8.82883V25.0991C84.3343 25.2425 84.391 25.3799 84.492 25.4813C84.593 25.5827 84.73 25.6396 84.8728 25.6396H88.7323C88.7841 25.6396 88.8355 25.6294 88.8834 25.6095C88.9313 25.5895 88.9749 25.5603 89.0115 25.5235C89.0482 25.4867 89.0773 25.443 89.0971 25.3949C89.117 25.3468 89.1272 25.2953 89.1272 25.2432V19.1532H96.2897C96.4325 19.1532 96.5695 19.0962 96.6705 18.9948C96.7715 18.8935 96.8282 18.756 96.8282 18.6126V16.4505C96.8282 16.3071 96.7715 16.1696 96.6705 16.0682C96.5695 15.9669 96.4325 15.9099 96.2897 15.9099H89.1092V10.0541C89.1092 9.91069 89.166 9.77321 89.267 9.67183C89.368 9.57046 89.505 9.51351 89.6478 9.51351H98.1387C98.2815 9.51351 98.4185 9.45656 98.5195 9.35519C98.6205 9.25382 98.6772 9.11633 98.6772 8.97297V6.81081C98.6772 6.66745 98.6205 6.52996 98.5195 6.42859C98.4185 6.32722 98.2815 6.27027 98.1387 6.27027M54.7329 14.5045L53.7456 14.3063C49.6707 13.4414 48.8988 12.9189 48.8988 12.2523V10.6847C48.8988 9.42342 50.4067 9.2973 52.3634 9.2973C54.5375 9.29476 56.7052 9.5365 58.8258 10.018C58.9613 10.0513 59.1045 10.0304 59.225 9.95985C59.3456 9.88927 59.4341 9.77447 59.472 9.63964L60.0105 7.53153C60.0294 7.46233 60.0344 7.39004 60.0251 7.31889C60.0159 7.24774 59.9926 7.17915 59.9567 7.11712C59.9198 7.05411 59.8705 6.99927 59.8119 6.95591C59.7533 6.91256 59.6865 6.88158 59.6156 6.86486C56.9266 6.24513 54.1697 5.97265 51.4119 6.05405C48.3423 6.05405 46.5831 6.36036 45.5419 7.06306C44.5726 7.72973 44.1777 8.79279 44.1777 10.7027V11.9459C44.1777 16.6126 46.26 17.045 50.0297 17.8378L50.5682 17.964C54.338 18.7568 55.415 19.045 55.415 20.036V21.3153C55.415 22.5766 53.9071 22.7027 51.9325 22.7027C49.7643 22.7042 47.6028 22.4625 45.4881 21.982C45.3525 21.9487 45.2094 21.9696 45.0888 22.0401C44.9683 22.1107 44.8797 22.2255 44.8418 22.3604L44.3033 24.4685C44.2845 24.5383 44.2799 24.6112 44.2897 24.6828C44.2995 24.7545 44.3235 24.8234 44.3603 24.8856C44.3972 24.9478 44.446 25.0019 44.5041 25.0448C44.5621 25.0876 44.6281 25.1183 44.6982 25.1351C47.3863 25.7619 50.1433 26.0404 52.9019 25.964C55.9715 25.964 57.7307 25.6577 58.7719 24.9369C59.7413 24.2703 60.1362 23.2252 60.1362 21.2973V19.7117C60.1362 15.6216 58.5565 15.2973 54.7329 14.5045ZM72.1993 6C63.7084 6 63.3315 8.23423 63.3315 15.982C63.3315 23.7658 63.6905 26 72.1993 26C76.6871 26 78.8771 25.4234 79.9542 23.9279C81.0851 22.3784 81.0851 19.8378 81.0851 15.982C81.0851 12.1261 81.0851 9.58559 79.9542 8.05405C78.8592 6.55856 76.7589 6 72.2173 6M72.2173 23.0631C68.1244 22.9369 68.1244 20.7568 68.1244 16C68.1244 11.2432 68.1244 9.08108 72.2173 8.97297C76.2922 9.06306 76.2922 11.2252 76.2922 15.982C76.2922 20.7568 76.2922 22.9189 72.1993 23.045" fill="#202020"/>
</g>
<defs>
<clipPath id="clip0_758_310">
<rect width="116" height="20" fill="white" transform="translate(0 6)"/>
</clipPath>
</defs>
</svg>
