<svg width="116" height="45" viewBox="0 0 116 45" fill="none" xmlns="http://www.w3.org/2000/svg">
<g clip-path="url(#clip0_475_51)">
<path d="M39.7796 12.7523H36.0638C35.9209 12.7523 35.784 12.8092 35.683 12.9106C35.582 13.0119 35.5252 13.1494 35.5252 13.2928V31.5991C35.5252 31.7425 35.582 31.8799 35.683 31.9813C35.784 32.0827 35.9209 32.1396 36.0638 32.1396H39.7617C39.9045 32.1396 40.0415 32.0827 40.1425 31.9813C40.2435 31.8799 40.3002 31.7425 40.3002 31.5991V13.3108C40.3002 13.1675 40.2435 13.03 40.1425 12.9286C40.0415 12.8272 39.9045 12.7703 39.7617 12.7703M14.4506 12.7703H2.54906C1.873 12.7703 1.22464 13.0398 0.746601 13.5197C0.268561 13.9995 0 14.6503 0 15.3288L0 29.5811C0 30.2597 0.268561 30.9104 0.746601 31.3903C1.22464 31.8701 1.873 32.1396 2.54906 32.1396H14.4506C14.5935 32.1396 14.7304 32.0827 14.8314 31.9813C14.9324 31.8799 14.9892 31.7425 14.9892 31.5991V29.4369C14.9892 29.2936 14.9324 29.1561 14.8314 29.0547C14.7304 28.9533 14.5935 28.8964 14.4506 28.8964H5.33148C5.18865 28.8964 5.05167 28.8394 4.95068 28.7381C4.84968 28.6367 4.79294 28.4992 4.79294 28.3559V24.0856H11.9734C12.1162 24.0856 12.2532 24.0286 12.3542 23.9273C12.4552 23.8259 12.5119 23.6884 12.5119 23.545V21.3829C12.5119 21.2395 12.4552 21.102 12.3542 21.0007C12.2532 20.8993 12.1162 20.8423 11.9734 20.8423H4.79294V16.5901C4.79294 16.4467 4.84968 16.3092 4.95068 16.2079C5.05167 16.1065 5.18865 16.0495 5.33148 16.0495H14.4506C14.5935 16.0495 14.7304 15.9926 14.8314 15.8912C14.9324 15.7899 14.9892 15.6524 14.9892 15.509V13.3468C14.9892 13.2035 14.9324 13.066 14.8314 12.9646C14.7304 12.8633 14.5935 12.8063 14.4506 12.8063M115.444 12.7523H100.616C100.473 12.7523 100.336 12.8092 100.235 12.9106C100.134 13.0119 100.077 13.1494 100.077 13.2928V15.455C100.077 15.5983 100.134 15.7358 100.235 15.8372C100.336 15.9385 100.473 15.9955 100.616 15.9955H105.642V31.5991C105.642 31.7425 105.699 31.8799 105.8 31.9813C105.901 32.0827 106.038 32.1396 106.181 32.1396H109.897C110.039 32.1396 110.176 32.0827 110.277 31.9813C110.378 31.8799 110.435 31.7425 110.435 31.5991V16.0135H115.461C115.604 16.0135 115.741 15.9566 115.842 15.8552C115.943 15.7538 116 15.6163 116 15.473V13.3108C116 13.1675 115.943 13.03 115.842 12.9286C115.741 12.8272 115.604 12.7703 115.461 12.7703M32.0427 12.7523H17.2331C17.0902 12.7523 16.9532 12.8092 16.8523 12.9106C16.7513 13.0119 16.6945 13.1494 16.6945 13.2928V15.455C16.6945 15.5983 16.7513 15.7358 16.8523 15.8372C16.9532 15.9385 17.0902 15.9955 17.2331 15.9955H22.2594V31.5991C22.2594 31.7425 22.3161 31.8799 22.4171 31.9813C22.5181 32.0827 22.6551 32.1396 22.7979 32.1396H26.5138C26.6566 32.1396 26.7936 32.0827 26.8946 31.9813C26.9956 31.8799 27.0523 31.7425 27.0523 31.5991V16.0135H32.0786C32.2214 16.0135 32.3584 15.9566 32.4594 15.8552C32.5604 15.7538 32.6171 15.6163 32.6171 15.473V13.3108C32.6171 13.1675 32.5604 13.03 32.4594 12.9286C32.3584 12.8272 32.2214 12.7703 32.0786 12.7703M98.1566 12.7523H86.8833C86.5471 12.7522 86.2141 12.819 85.9037 12.9487C85.5932 13.0784 85.3114 13.2685 85.0745 13.508C84.8375 13.7475 84.6502 14.0317 84.5231 14.3442C84.3961 14.6567 84.3319 14.9913 84.3343 15.3288V31.5991C84.3343 31.7425 84.391 31.8799 84.492 31.9813C84.593 32.0827 84.73 32.1396 84.8728 32.1396H88.7323C88.7841 32.1396 88.8355 32.1294 88.8834 32.1095C88.9313 32.0895 88.9749 32.0603 89.0115 32.0235C89.0482 31.9867 89.0773 31.943 89.0971 31.8949C89.117 31.8468 89.1272 31.7953 89.1272 31.7432V25.6532H96.2897C96.4325 25.6532 96.5695 25.5962 96.6705 25.4948C96.7715 25.3935 96.8282 25.256 96.8282 25.1126V22.9505C96.8282 22.8071 96.7715 22.6696 96.6705 22.5682C96.5695 22.4669 96.4325 22.4099 96.2897 22.4099H89.1092V16.5541C89.1092 16.4107 89.166 16.2732 89.267 16.1718C89.368 16.0705 89.505 16.0135 89.6478 16.0135H98.1387C98.2815 16.0135 98.4185 15.9566 98.5195 15.8552C98.6205 15.7538 98.6772 15.6163 98.6772 15.473V13.3108C98.6772 13.1675 98.6205 13.03 98.5195 12.9286C98.4185 12.8272 98.2815 12.7703 98.1387 12.7703M54.7329 21.0045L53.7456 20.8063C49.6707 19.9414 48.8988 19.4189 48.8988 18.7523V17.1847C48.8988 15.9234 50.4067 15.7973 52.3634 15.7973C54.5375 15.7948 56.7052 16.0365 58.8258 16.518C58.9613 16.5513 59.1045 16.5304 59.225 16.4599C59.3456 16.3893 59.4341 16.2745 59.472 16.1396L60.0105 14.0315C60.0294 13.9623 60.0344 13.89 60.0251 13.8189C60.0159 13.7477 59.9926 13.6791 59.9567 13.6171C59.9198 13.5541 59.8705 13.4993 59.8119 13.4559C59.7533 13.4126 59.6865 13.3816 59.6156 13.3649C56.9266 12.7451 54.1697 12.4727 51.4119 12.5541C48.3423 12.5541 46.5831 12.8604 45.5419 13.5631C44.5726 14.2297 44.1777 15.2928 44.1777 17.2027V18.4459C44.1777 23.1126 46.26 23.545 50.0297 24.3378L50.5682 24.464C54.338 25.2568 55.415 25.545 55.415 26.536V27.8153C55.415 29.0766 53.9071 29.2027 51.9325 29.2027C49.7643 29.2042 47.6028 28.9625 45.4881 28.482C45.3525 28.4487 45.2094 28.4696 45.0888 28.5401C44.9683 28.6107 44.8797 28.7255 44.8418 28.8604L44.3033 30.9685C44.2845 31.0383 44.2799 31.1112 44.2897 31.1828C44.2995 31.2545 44.3235 31.3234 44.3603 31.3856C44.3972 31.4478 44.446 31.5019 44.5041 31.5448C44.5621 31.5876 44.6281 31.6183 44.6982 31.6351C47.3863 32.2619 50.1433 32.5404 52.9019 32.464C55.9715 32.464 57.7307 32.1577 58.7719 31.4369C59.7413 30.7703 60.1362 29.7252 60.1362 27.7973V26.2117C60.1362 22.1216 58.5565 21.7973 54.7329 21.0045ZM72.1993 12.5C63.7084 12.5 63.3315 14.7342 63.3315 22.482C63.3315 30.2658 63.6905 32.5 72.1993 32.5C76.6871 32.5 78.8771 31.9234 79.9542 30.4279C81.0851 28.8784 81.0851 26.3378 81.0851 22.482C81.0851 18.6261 81.0851 16.0856 79.9542 14.5541C78.8592 13.0586 76.7589 12.5 72.2173 12.5M72.2173 29.5631C68.1244 29.4369 68.1244 27.2568 68.1244 22.5C68.1244 17.7432 68.1244 15.5811 72.2173 15.473C76.2922 15.5631 76.2922 17.7252 76.2922 22.482C76.2922 27.2568 76.2922 29.4189 72.1993 29.545" fill="#424242"/>
</g>
<defs>
<clipPath id="clip0_475_51">
<rect width="116" height="20" fill="white" transform="translate(0 12.5)"/>
</clipPath>
</defs>
</svg>
