<svg width="899" height="128" viewBox="0 0 899 128" fill="none" xmlns="http://www.w3.org/2000/svg">
<path fill-rule="evenodd" clip-rule="evenodd" d="M119.881 0.5L239.102 21.631V125.875H215.046V41.799L119.881 24.931L24.7162 41.799V125.875H0.660156V21.631L119.881 0.5Z" fill="#CC0D27"/>
<path fill-rule="evenodd" clip-rule="evenodd" d="M119.881 31.5508L209.573 47.448V125.872H191.475V62.6207L119.881 49.9306L48.2872 62.6207V125.872H30.1895V47.448L119.881 31.5508Z" fill="#CC0D27"/>
<path fill-rule="evenodd" clip-rule="evenodd" d="M119.881 55.8008L186.515 67.611V125.874H173.07V78.883L119.881 69.4554L66.6931 78.883V125.874H53.248V67.611L119.881 55.8008Z" fill="#CC0D27"/>
<path d="M272.571 65.2193H311.696V86.1886H272.571V65.2193ZM274.256 104.317H318.318V125.988H250.66V26.8418H316.752V48.5119H274.256V104.317Z" fill="black"/>
<path d="M366.833 127.971C354.392 127.971 344.682 123.949 337.699 115.927C330.717 107.904 327.226 96.5283 327.226 81.7986V26.8418H351.062V80.9408C351.062 89.4421 352.486 95.5367 355.336 99.2135C358.185 102.902 362.097 104.74 367.073 104.74C372.049 104.74 375.941 102.902 378.75 99.2135C381.56 95.5367 382.964 89.4421 382.964 80.9408V26.8418H406.44V81.7986C406.44 96.5283 402.949 107.904 395.965 115.927C388.983 123.949 379.272 127.971 366.833 127.971Z" fill="black"/>
<path d="M418.959 125.988V26.8418H457.483C465.188 26.8418 471.829 28.3059 477.406 31.2329C482.985 34.1599 487.298 38.3849 490.348 43.908C493.399 49.4322 494.923 55.9715 494.923 63.5257C494.923 70.9797 493.399 77.431 490.348 82.8571C487.298 88.2833 482.985 92.4392 477.406 95.325C471.829 98.1996 465.188 99.6369 457.483 99.6369H432.202L442.796 87.8822V125.988H418.959ZM471.087 125.988L450.139 89.8654H475.541L496.608 125.988H471.087ZM442.796 90.857L432.202 77.9658H456.038C461.014 77.9658 464.727 76.6956 467.175 74.1441C469.622 71.5926 470.846 68.0605 470.846 63.5257C470.846 58.9018 469.622 55.3141 467.175 52.7626C464.727 50.2111 461.014 48.9364 456.038 48.9364H432.202L442.796 36.0484V90.857Z" fill="black"/>
<path d="M546.926 127.97C540.19 127.97 533.968 126.689 528.27 124.137C522.571 121.597 517.622 117.976 513.402 113.307C509.192 108.627 505.917 103.179 503.596 96.9507C501.265 90.7223 500.095 83.8699 500.095 76.4159C500.095 68.9508 501.265 62.1096 503.596 55.8812C505.917 49.6439 509.192 44.191 513.402 39.5169C517.622 34.8429 522.571 31.2317 528.27 28.6825C533.968 26.1332 540.19 24.8574 546.926 24.8574C553.754 24.8574 559.997 26.1332 565.655 28.6825C571.312 31.2317 576.22 34.8429 580.399 39.5169C584.568 44.191 587.843 49.6439 590.205 55.8812C592.577 62.1096 593.758 68.9508 593.758 76.4159C593.758 83.8699 592.577 90.7445 590.205 97.0174C587.843 103.302 584.568 108.75 580.399 113.374C576.22 118.009 571.312 121.597 565.655 124.137C559.997 126.689 553.754 127.97 546.926 127.97ZM546.926 104.739C550.14 104.739 553.128 104.081 555.9 102.756C558.673 101.43 561.075 99.5244 563.118 97.0174C565.172 94.5216 566.774 91.5245 567.934 88.0259C569.105 84.5273 569.68 80.661 569.68 76.4159C569.68 72.0705 569.105 68.1708 567.934 64.728C566.774 61.2851 565.172 58.3101 563.118 55.8032C561.075 53.2962 558.673 51.3899 555.9 50.0684C553.128 48.7459 550.14 48.0851 546.926 48.0851C543.723 48.0851 540.735 48.7459 537.962 50.0684C535.19 51.3899 532.787 53.2962 530.744 55.8032C528.691 58.3101 527.089 61.2851 525.929 64.728C524.758 68.1708 524.183 72.0705 524.183 76.4159C524.183 80.661 524.758 84.5273 525.929 88.0259C527.089 91.5245 528.691 94.5216 530.744 97.0174C532.787 99.5244 535.19 101.43 537.962 102.756C540.735 104.081 543.723 104.739 546.926 104.739Z" fill="black"/>
<path d="M632.282 127.97C625.382 127.97 618.739 126.956 612.362 124.917C605.976 122.889 600.78 120.271 596.766 117.062L604.59 96.3824C608.368 99.2125 612.722 101.552 617.661 103.391C622.589 105.229 627.507 106.154 632.405 106.154C635.691 106.154 638.34 105.797 640.352 105.095C642.355 104.382 643.823 103.435 644.747 102.254C645.671 101.073 646.123 99.6803 646.123 98.0759C646.123 95.8141 645.25 94.0202 643.484 92.6943C641.718 91.3796 639.428 90.2876 636.615 89.4408C633.812 88.594 630.701 87.7362 627.292 86.8894C623.873 86.0426 620.464 84.9506 617.055 83.6359C613.646 82.31 610.535 80.5942 607.721 78.4661C604.918 76.3379 602.629 73.5524 600.862 70.1096C599.096 66.6667 598.213 62.299 598.213 57.0066C598.213 51.0601 599.599 45.6774 602.372 40.8618C605.134 36.0473 609.292 32.1755 614.827 29.2485C620.361 26.3215 627.271 24.8574 635.537 24.8574C641.071 24.8574 646.513 25.5895 651.842 27.0535C657.181 28.5165 661.935 30.6646 666.114 33.4969L658.773 54.3213C654.758 51.7675 650.784 49.8556 646.852 48.581C642.919 47.3063 639.11 46.669 635.414 46.669C632.128 46.669 629.479 47.0701 627.466 47.8734C625.464 48.6757 624.016 49.7375 623.133 51.06C622.25 52.3815 621.809 53.8868 621.809 55.5915C621.809 57.7642 622.671 59.4912 624.396 60.7614C626.121 62.0316 628.411 63.0789 631.255 63.8811C634.11 64.6834 637.241 65.5078 640.65 66.3546C644.059 67.2014 647.468 68.2711 650.887 69.5413C654.296 70.8226 657.407 72.5162 660.21 74.6443C663.024 76.7613 665.293 79.5468 667.018 83.0009C668.743 86.4437 669.605 90.7668 669.605 95.959C669.605 101.719 668.219 107.023 665.447 111.892C662.685 116.75 658.547 120.65 653.054 123.58C647.55 126.499 640.63 127.97 632.282 127.97Z" fill="black"/>
<path d="M693.581 125.988V49.0779H667.696V26.8418H743.175V49.0779H717.413V125.988H693.581Z" fill="black"/>
<path d="M733.8 125.988L770.99 26.8418H794.472L831.785 125.988H806.989L777.859 40.5799H787.244L758.114 125.988H733.8ZM754.14 106.723L760.281 86.0437H801.454L807.594 106.723H754.14Z" fill="black"/>
<path d="M834.917 125.988V26.8418H858.759V103.748H898.968V125.988H834.917Z" fill="black"/>
</svg>
