<svg width="106" height="57" viewBox="0 0 106 57" fill="none" xmlns="http://www.w3.org/2000/svg">
<g clip-path="url(#clip0_653_56)">
<path d="M102.099 30.2662C102.622 30.2634 103.14 30.3685 103.62 30.5747C104.552 30.9692 105.293 31.7036 105.692 32.6253C105.896 33.0967 106.001 33.6041 106.001 34.1169C106.001 34.6296 105.896 35.137 105.692 35.6084C105.293 36.53 104.551 37.2643 103.62 37.6591C103.139 37.8608 102.622 37.9647 102.099 37.9647C101.576 37.9647 101.059 37.8608 100.577 37.6591C99.6463 37.2643 98.9045 36.53 98.5056 35.6084C98.3019 35.137 98.1968 34.6296 98.1968 34.1169C98.1968 33.6041 98.3019 33.0967 98.5056 32.6253C98.9042 31.7036 99.6461 30.9692 100.577 30.5747C101.057 30.3684 101.575 30.2634 102.099 30.2662Z" fill="#424242"/>
<path d="M19.1303 18.0939C18.312 16.9709 17.224 16.0674 15.9646 15.4648C14.7052 14.8623 13.3141 14.5797 11.9167 14.6426C10.317 14.6339 8.73243 14.9488 7.26011 15.5681C5.84572 16.155 4.55902 17.0066 3.4706 18.0761C2.39781 19.1409 1.53817 20.3969 0.937013 21.7779C0.319315 23.2181 0.000976562 24.7667 0.000976562 26.3312C0.000976562 27.8958 0.319315 29.4444 0.937013 30.8845C2.13517 33.705 4.40656 35.9454 7.26011 37.1214C8.73247 37.7405 10.3171 38.0554 11.9167 38.0468C13.914 38.1108 15.8701 37.4759 17.4413 36.2537L17.4865 36.2098L15.2037 32.2172L15.1578 32.1717H15.1126C14.3388 32.5188 13.496 32.6888 12.6467 32.6691C11.7915 32.6745 10.9444 32.5041 10.1591 32.1686C9.3997 31.8464 8.7099 31.3827 8.12725 30.8027C7.54808 30.225 7.08351 29.5449 6.75761 28.7976C6.41893 28.0219 6.24775 27.1847 6.25508 26.3397C6.25025 25.507 6.41312 24.6816 6.73416 23.9119C7.05521 23.1421 7.52799 22.4435 8.12489 21.8566C8.7127 21.2886 9.40158 20.8331 10.1568 20.5132C10.9441 20.1835 11.7903 20.0137 12.6452 20.0137C13.5001 20.0137 14.3462 20.1835 15.1336 20.5132C15.893 20.8346 16.5887 21.2871 17.1881 21.8497C17.787 22.416 18.2679 23.093 18.6037 23.8425C18.955 24.6185 19.134 25.4601 19.1288 26.3104V34.6033C19.1435 35.6086 18.9653 36.6076 18.6037 37.5471C18.2782 38.3825 17.7981 39.1504 17.1881 39.8114C16.6189 40.428 15.9271 40.9216 15.1562 41.2613C14.4238 41.5869 13.6304 41.7567 12.8275 41.7595C12.281 41.7559 11.737 41.6876 11.207 41.5559C10.6393 41.4189 10.0882 41.2219 9.5631 40.9682C9.01853 40.7045 8.51183 40.3702 8.05635 39.9741C7.58692 39.5709 7.1929 39.089 6.89237 38.5504L1.87036 40.7199L1.8244 40.7646L1.87036 40.8548C2.98161 42.7294 4.56943 44.2832 6.47582 45.3616C8.3822 46.44 10.5406 47.0054 12.7363 47.0015C14.3655 47.0104 15.98 46.6957 17.4841 46.076C20.4182 44.8871 22.7741 42.6211 24.0589 39.752C24.7352 38.2627 25.1224 36.6608 25.2002 35.0298V15.009H19.1288L19.1303 18.0939Z" fill="#424242"/>
<path d="M46.569 15.9086H46.5238C44.8829 15.0804 43.0679 14.6468 41.226 14.6431C38.1216 14.6431 35.7627 15.7428 34.1495 17.9423V15.0048H27.9409V37.6015H34.1503V25.1733C34.2702 24.4546 34.5257 23.7646 34.9036 23.1396C35.2744 22.5185 35.7449 21.9613 36.2966 21.4899C36.8491 21.0202 37.4825 20.6529 38.1665 20.4056C39.0598 20.0868 40.0125 19.9642 40.9585 20.0461C41.9045 20.128 42.8212 20.4125 43.645 20.8799L43.6902 20.9254L46.0189 16.8125L46.569 15.9086Z" fill="#424242"/>
<path d="M65.1505 18.0773C64.0734 17.0153 62.8032 16.1643 61.4069 15.5693C59.948 14.958 58.38 14.6431 56.7959 14.6431C55.2117 14.6431 53.6437 14.958 52.1848 15.5693C49.3636 16.7652 47.1158 18.9903 45.9077 21.783C45.2901 23.2113 44.9717 24.7487 44.9717 26.3023C44.9717 27.8559 45.2901 29.3934 45.9077 30.8217C47.1158 33.6146 49.3636 35.8399 52.1848 37.0361C53.6437 37.6474 55.2117 37.9624 56.7959 37.9624C58.38 37.9624 59.948 37.6474 61.4069 37.0361C64.2285 35.8412 66.4771 33.617 67.6864 30.8248C68.3042 29.3965 68.6228 27.8591 68.6228 26.3054C68.6228 24.7518 68.3042 23.2143 67.6864 21.7861C67.0848 20.4052 66.2252 19.1493 65.1528 18.0842M61.8432 28.6754C61.5697 29.4162 61.1682 30.1043 60.6567 30.7091C60.1768 31.2786 59.5866 31.7472 58.9209 32.0872C58.2639 32.4196 57.5356 32.5902 56.7978 32.5847C56.053 32.5888 55.3177 32.4183 54.6522 32.0872C53.9769 31.752 53.3783 31.2829 52.8938 30.7091C52.3818 30.1046 51.9803 29.4164 51.7072 28.6754C51.4115 27.872 51.2645 27.0224 51.2733 26.1674C51.2698 25.3422 51.4168 24.5231 51.7072 23.7496C51.9736 23.0189 52.376 22.3443 52.8938 21.7606C53.3885 21.209 53.9854 20.7564 54.6522 20.4272C55.3179 20.0966 56.053 19.9261 56.7978 19.9297C57.5355 19.9247 58.2637 20.0953 58.9209 20.4272C59.5781 20.7611 60.1667 21.2133 60.6567 21.7606C61.174 22.3446 61.5764 23.0192 61.8432 23.7496C62.1331 24.5233 62.28 25.3422 62.2772 26.1674C62.2853 27.0223 62.1383 27.8718 61.8432 28.6754Z" fill="#424242"/>
<path d="M95.6302 10L91.2618 32.1031L90.3861 27.7843L87.7941 15.0037H81.4936L78.0243 32.1317L74.509 15.0037H68.2085L68.2537 15.0484L74.3711 37.5996H81.6307L84.5982 24.222L87.657 37.5996H94.8417L102.348 10H95.6302Z" fill="#424242"/>
<path d="M29.3062 40.4307C29.4524 40.4298 29.5973 40.459 29.7316 40.5163C29.9928 40.625 30.2006 40.8307 30.3104 41.0893C30.3683 41.2222 30.3978 41.3656 30.3969 41.5104C30.3975 41.6523 30.3711 41.7931 30.319 41.9253C30.2697 42.0512 30.194 42.1652 30.097 42.26C29.991 42.3601 29.8645 42.4364 29.7261 42.4837C29.5593 42.5392 29.3839 42.5653 29.208 42.5608H28.524V43.4662H27.9365V40.4307H29.3062ZM29.3062 42.0418C29.384 42.0436 29.4613 42.0288 29.5329 41.9986C29.5935 41.9716 29.6468 41.9309 29.6887 41.8798C29.7298 41.8294 29.7605 41.7715 29.7791 41.7094C29.7989 41.6449 29.8089 41.5778 29.8087 41.5104C29.8086 41.4404 29.7959 41.3709 29.7713 41.3052C29.7467 41.2388 29.7097 41.1776 29.6622 41.1248C29.6095 41.0668 29.5448 41.0207 29.4725 40.9898C29.4001 40.9589 29.3218 40.944 29.2431 40.9459H28.5255V42.0426L29.3062 42.0418Z" fill="#424242"/>
<path d="M32.2176 43.5298C32.0057 43.531 31.7959 43.4887 31.6013 43.4056C31.2201 43.2444 30.9165 42.9438 30.7537 42.5665C30.6707 42.3724 30.6279 42.1638 30.6279 41.953C30.6279 41.7422 30.6707 41.5336 30.7537 41.3395C30.9158 40.9613 31.2196 40.6601 31.6013 40.4989C31.797 40.4166 32.0074 40.3743 32.2199 40.3743C32.4325 40.3743 32.6429 40.4166 32.8385 40.4989C33.2202 40.6601 33.5241 40.9613 33.6862 41.3395C33.7692 41.5336 33.8119 41.7422 33.8119 41.953C33.8119 42.1638 33.7692 42.3724 33.6862 42.5665C33.5234 42.9438 33.2197 43.2444 32.8385 43.4056C32.6417 43.4894 32.4295 43.5317 32.2153 43.5298M32.2153 40.9184C32.0807 40.9177 31.9476 40.9467 31.8257 41.0032C31.7065 41.0587 31.5987 41.1356 31.5079 41.23C31.4159 41.3258 31.3427 41.4378 31.292 41.5601C31.2397 41.6847 31.2128 41.8184 31.2128 41.9534C31.2128 42.0884 31.2397 42.222 31.292 42.3467C31.3435 42.4686 31.4166 42.5804 31.5079 42.6768C31.598 42.7733 31.7058 42.8518 31.8257 42.9081C31.9479 42.9636 32.0808 42.9923 32.2153 42.9923C32.3497 42.9923 32.4826 42.9636 32.6048 42.9081C32.7247 42.8518 32.8326 42.7733 32.9227 42.6768C33.014 42.5804 33.0871 42.4686 33.1385 42.3467C33.191 42.2221 33.2181 42.0884 33.2181 41.9534C33.2181 41.8184 33.191 41.6847 33.1385 41.5601C33.0878 41.4378 33.0146 41.3258 32.9227 41.23C32.8318 41.1356 32.724 41.0587 32.6048 41.0032C32.4829 40.9467 32.3499 40.9177 32.2153 40.9184Z" fill="#424242"/>
<path d="M37.9786 40.4353L36.8333 43.4701H36.7749L35.9444 41.7017L35.1053 43.4755H35.0508L33.918 40.4361H34.5412L35.1411 42.1011L35.9202 40.4361H35.9584L36.7375 42.105L37.3499 40.4361L37.9786 40.4353Z" fill="#424242"/>
<path d="M38.9414 40.9459V41.7063H40.4263V42.233H38.9414V42.9472H40.6148V43.47H38.3555V40.4307H40.6148V40.9459H38.9414Z" fill="#424242"/>
<path d="M41.8101 43.4701H41.2227V40.4307H42.618C42.7653 40.4291 42.9115 40.4553 43.0488 40.5079C43.174 40.5561 43.2875 40.6296 43.3823 40.7238C43.4766 40.8189 43.5503 40.932 43.5989 41.0562C43.6517 41.1904 43.6781 41.3333 43.6768 41.4773C43.6814 41.6909 43.6205 41.9009 43.5023 42.0796C43.3895 42.2482 43.2259 42.3775 43.0348 42.449C43.2945 42.7873 43.5493 43.1277 43.7991 43.4701H43.0979C42.9754 43.3123 42.8554 43.1532 42.738 42.9927C42.6206 42.8323 42.5037 42.6691 42.3874 42.503H41.8062L41.8101 43.4701ZM41.8101 41.9878H42.6172C42.6737 41.9873 42.7296 41.9768 42.7824 41.957C42.8408 41.9367 42.8939 41.9041 42.9382 41.8614C42.9851 41.8156 43.0226 41.7614 43.0488 41.7017C43.0794 41.6308 43.0943 41.5543 43.0925 41.4773C43.0914 41.4255 43.086 41.3739 43.0761 41.323C43.0646 41.2612 43.0419 41.2018 43.0091 41.148C42.9735 41.0907 42.925 41.0424 42.8673 41.0068C42.7924 40.9651 42.7071 40.945 42.6211 40.949H41.814L41.8101 41.9878Z" fill="#424242"/>
<path d="M44.8286 40.9459V41.7063H46.3135V42.233H44.8286V42.9472H46.502V43.47H44.2427V40.4307H46.502V40.9459H44.8286Z" fill="#424242"/>
<path d="M48.3157 43.471H47.105V40.4316H48.3157C48.7126 40.4176 49.0997 40.5557 49.3963 40.8172C49.5467 40.9531 49.6635 41.1215 49.7375 41.3093C49.891 41.7278 49.891 42.1864 49.7375 42.6049C49.6634 42.7925 49.5466 42.9606 49.3963 43.0962C49.2579 43.222 49.0948 43.3181 48.9171 43.3785C48.7236 43.444 48.5202 43.4763 48.3157 43.4741M47.6924 42.9589H48.3157C48.4274 42.9586 48.5387 42.9462 48.6476 42.9219C48.7591 42.8966 48.8632 42.846 48.9514 42.7738C49.0499 42.6901 49.1268 42.5843 49.1758 42.4653C49.2405 42.303 49.2705 42.1292 49.2638 41.9548C49.2703 41.7797 49.2403 41.6051 49.1758 41.4419C49.1271 41.3221 49.0493 41.2162 48.9491 41.1335C48.8594 41.0629 48.7547 41.0133 48.6429 40.9885C48.5355 40.9644 48.4258 40.952 48.3157 40.9514H47.6924V42.9589Z" fill="#424242"/>
<path d="M54.0826 41.2758C54.0815 41.3428 54.0689 41.409 54.0452 41.4717C54.0206 41.5403 53.9859 41.605 53.9424 41.6637C53.8999 41.722 53.8471 41.7721 53.7866 41.8118C53.727 41.8516 53.6574 41.8741 53.5856 41.8766C53.6639 41.883 53.7402 41.9048 53.81 41.9406C53.8856 41.9792 53.9532 42.0316 54.0094 42.0949C54.0692 42.1597 54.1181 42.2337 54.1543 42.3139C54.1923 42.3973 54.2117 42.4877 54.2112 42.5792C54.2145 42.7231 54.188 42.8661 54.1333 42.9995C54.0882 43.107 54.0177 43.2023 53.9276 43.2771C53.8388 43.3497 53.7351 43.4024 53.6237 43.4314C53.5027 43.4625 53.378 43.4778 53.2529 43.4769H51.835V40.4375H53.1867C53.3034 40.4371 53.4199 40.449 53.5342 40.473C53.6381 40.494 53.7358 40.538 53.8201 40.6018C53.9055 40.6704 53.972 40.7593 54.0133 40.8601C54.065 40.995 54.0891 41.1386 54.0842 41.2828M52.4232 41.6753H53.1446C53.1948 41.6767 53.2446 41.6665 53.29 41.6455C53.3355 41.6245 53.3753 41.5932 53.4064 41.5542C53.4361 41.5177 53.4588 41.4762 53.4734 41.4316C53.4887 41.3877 53.4966 41.3416 53.4968 41.2951C53.4969 41.2507 53.4882 41.2066 53.4711 41.1655C53.4406 41.0864 53.3818 41.0211 53.3059 40.982C53.2689 40.9627 53.2277 40.9527 53.1859 40.9527H52.4224L52.4232 41.6753ZM53.2537 42.9625C53.3035 42.9628 53.3525 42.9506 53.3963 42.927C53.4414 42.9031 53.4814 42.8706 53.5139 42.8314C53.5468 42.7915 53.5731 42.7467 53.5918 42.6987C53.6112 42.652 53.6212 42.6019 53.6214 42.5514C53.6223 42.5028 53.6125 42.4545 53.5926 42.41C53.5726 42.3655 53.5431 42.3259 53.5061 42.2938C53.4176 42.2206 53.3042 42.1834 53.189 42.1897H52.4216V42.9609L53.2537 42.9625Z" fill="#424242"/>
<path d="M57.1397 40.4353C57.0612 40.5623 56.9711 40.7075 56.8693 40.871L56.5577 41.3716L56.2461 41.8744C56.1422 42.0389 56.0513 42.1875 55.9734 42.3202V43.4701H55.3867V42.3202C55.2049 42.005 55.0123 41.6909 54.8087 41.3777C54.6051 41.0646 54.4105 40.7505 54.2251 40.4353H54.9092C55.0348 40.641 55.1647 40.8556 55.2987 41.0793C55.4327 41.3029 55.5626 41.5173 55.6882 41.7225C55.7501 41.6258 55.8144 41.523 55.8815 41.414C55.9485 41.305 56.0155 41.1937 56.0825 41.0801L56.2819 40.7477L56.4689 40.4392L57.1397 40.4353Z" fill="#424242"/>
<path d="M58.8061 43.0717L59.1256 42.609C59.2764 42.7125 59.4356 42.8036 59.6016 42.8812C59.762 42.9567 59.9374 42.9957 60.115 42.9954C60.2003 42.9967 60.2852 42.9848 60.3667 42.9599C60.4329 42.9397 60.4954 42.9087 60.5513 42.8681C60.5984 42.8344 60.6373 42.7906 60.6651 42.7401C60.6888 42.6959 60.7016 42.6467 60.7024 42.5967C60.7032 42.5401 60.6829 42.4852 60.6456 42.4424C60.6037 42.3966 60.552 42.3605 60.4944 42.3368C60.4229 42.306 60.3486 42.2823 60.2724 42.2658C60.1867 42.2457 60.0979 42.228 60.006 42.2118L59.7917 42.1725C59.7067 42.1565 59.6226 42.1356 59.5401 42.11C59.4519 42.0833 59.3663 42.0487 59.2845 42.0067C59.201 41.9641 59.1244 41.9095 59.057 41.8447C58.9889 41.7784 58.9342 41.6999 58.8958 41.6134C58.853 41.5129 58.8323 41.4046 58.835 41.2956C58.8291 41.1409 58.8668 40.9876 58.944 40.8529C59.0129 40.7393 59.1086 40.644 59.223 40.5753C59.3395 40.5061 59.4674 40.4575 59.6008 40.4318C59.7326 40.4048 59.8667 40.3909 60.0013 40.3902C60.1163 40.3893 60.2312 40.3975 60.3449 40.4149C60.4404 40.4303 60.5343 40.4546 60.6253 40.4874C60.7135 40.5201 60.7985 40.5607 60.8793 40.6085C60.9619 40.657 61.0507 40.7141 61.1457 40.7804L60.8185 41.237C60.6881 41.1445 60.5475 41.0669 60.3994 41.0056C60.2643 40.9536 60.1205 40.9274 59.9756 40.9285C59.9177 40.9292 59.86 40.9353 59.8034 40.947C59.7403 40.9589 59.679 40.9789 59.6211 41.0064C59.5668 41.032 59.5183 41.0682 59.4785 41.1128C59.4411 41.1556 59.4209 41.2105 59.4216 41.2671C59.421 41.296 59.4266 41.3248 59.4382 41.3514C59.4497 41.378 59.4669 41.4019 59.4886 41.4213C59.5389 41.4662 59.5974 41.5013 59.6608 41.5247C59.7368 41.5542 59.8149 41.578 59.8945 41.5956L60.1376 41.6535C60.1963 41.6673 60.2654 41.6812 60.3449 41.6951C60.4285 41.7101 60.5112 41.7297 60.5926 41.7537C60.6798 41.7794 60.7646 41.8127 60.8458 41.8532C60.9289 41.894 61.0047 41.9479 61.0702 42.0129C61.1376 42.0822 61.1905 42.1639 61.226 42.2535C61.2693 42.3638 61.2899 42.4815 61.2868 42.5997C61.2901 42.7413 61.2613 42.8817 61.2026 43.0108C61.1483 43.1251 61.0661 43.2242 60.9635 43.2992C60.8525 43.3795 60.7272 43.4381 60.5942 43.472C60.4394 43.5125 60.2798 43.5322 60.1197 43.5306C59.9784 43.5323 59.8372 43.5204 59.6982 43.4951C59.4787 43.4551 59.2687 43.3743 59.0796 43.2568C58.9898 43.2018 58.8973 43.1409 58.8022 43.074" fill="#424242"/>
<path d="M63.7256 40.9459H62.8492V43.47H62.2617V40.9459H61.3813V40.4307H63.7256V40.9459Z" fill="#424242"/>
<path d="M65.4477 43.5248C65.2633 43.527 65.0801 43.4959 64.907 43.433C64.7521 43.3769 64.6106 43.2894 64.4917 43.1762C64.375 43.062 64.2842 42.9245 64.2253 42.7729C64.1605 42.6045 64.1285 42.4255 64.131 42.2454V40.4353H64.7184V42.2431C64.7145 42.373 64.7412 42.5021 64.7963 42.6202C64.8401 42.7119 64.904 42.7928 64.9833 42.8569C65.0537 42.9131 65.1352 42.9541 65.2225 42.9773C65.3717 43.0209 65.5306 43.0209 65.6798 42.9773C65.7668 42.9539 65.848 42.913 65.9182 42.8569C65.9976 42.7928 66.0615 42.7119 66.1052 42.6202C66.1605 42.5022 66.1872 42.3731 66.1831 42.2431V40.4353H66.7706V42.2454C66.7731 42.4253 66.7419 42.6042 66.6786 42.7729C66.6211 42.9246 66.531 43.0623 66.4145 43.1762C66.2955 43.2894 66.1541 43.3768 65.9992 43.433C65.8246 43.4961 65.6398 43.5272 65.4539 43.5248" fill="#424242"/>
<path d="M68.6453 43.471H67.4346V40.4316H68.6453C69.0419 40.4178 69.4287 40.5559 69.7251 40.8172C69.8757 40.9529 69.9925 41.1214 70.0663 41.3093C70.2198 41.7278 70.2198 42.1864 70.0663 42.6049C69.9925 42.7926 69.8757 42.9607 69.7251 43.0962C69.5867 43.2219 69.4236 43.318 69.2459 43.3785C69.0527 43.4439 68.8495 43.4762 68.6453 43.4741M68.022 42.9589H68.6453C68.7567 42.9586 68.8677 42.9462 68.9764 42.9219C69.0883 42.8969 69.1926 42.8462 69.281 42.7738C69.3794 42.69 69.4562 42.5842 69.5054 42.4653C69.5697 42.3029 69.5994 42.1291 69.5926 41.9548C69.5992 41.7797 69.5695 41.6052 69.5054 41.4419C69.4566 41.3222 69.3787 41.2162 69.2787 41.1334C69.189 41.0628 69.0843 41.0132 68.9725 40.9884C68.8651 40.9644 68.7554 40.9519 68.6453 40.9514H68.022V42.9589Z" fill="#424242"/>
<path d="M71.3614 40.4353H70.7739V43.47H71.3614V40.4353Z" fill="#424242"/>
<path d="M73.5521 43.5297C73.3402 43.531 73.1303 43.4887 72.9358 43.4055C72.5546 43.2444 72.251 42.9438 72.0882 42.5664C72.0052 42.3723 71.9624 42.1637 71.9624 41.9529C71.9624 41.7422 72.0052 41.5335 72.0882 41.3394C72.2503 40.9613 72.5541 40.66 72.9358 40.4988C73.1315 40.4166 73.3418 40.3743 73.5544 40.3743C73.7669 40.3743 73.9773 40.4166 74.173 40.4988C74.3615 40.5793 74.533 40.6941 74.6786 40.8374C74.8239 40.9816 74.94 41.152 75.0207 41.3394C75.1036 41.5335 75.1464 41.7422 75.1464 41.9529C75.1464 42.1637 75.1036 42.3723 75.0207 42.5664C74.8579 42.9438 74.5542 43.2444 74.173 43.4055C73.9762 43.4893 73.7639 43.5316 73.5497 43.5297M73.5497 40.9183C73.4151 40.9177 73.2821 40.9466 73.1602 41.0032C72.9177 41.1155 72.7271 41.3144 72.6265 41.56C72.574 41.6846 72.5469 41.8183 72.5469 41.9533C72.5469 42.0884 72.574 42.222 72.6265 42.3466C72.6777 42.4685 72.7505 42.5803 72.8415 42.6767C72.9317 42.7731 73.0396 42.8516 73.1594 42.9081C73.2822 42.9641 73.4157 42.9931 73.5509 42.9931C73.6861 42.9931 73.8196 42.9641 73.9424 42.9081C74.0622 42.8516 74.1701 42.7731 74.2603 42.6767C74.3515 42.5803 74.4246 42.4685 74.4761 42.3466C74.5284 42.222 74.5553 42.0883 74.5553 41.9533C74.5553 41.8183 74.5284 41.6847 74.4761 41.56C74.4254 41.4377 74.3522 41.3258 74.2603 41.2299C74.1693 41.1356 74.0616 41.0587 73.9424 41.0032C73.8205 40.9466 73.6874 40.9177 73.5528 40.9183" fill="#424242"/>
<path d="M80.879 40.4353L79.7337 43.4701H79.6753L78.8448 41.7017L78.0057 43.4755H77.9512L76.8184 40.4361H77.4416L78.0415 42.1011L78.8206 40.4361H78.858L79.6371 42.105L80.2495 40.4361L80.879 40.4353Z" fill="#424242"/>
<path d="M81.9248 40.4353H81.3374V43.47H81.9248V40.4353Z" fill="#424242"/>
<path d="M83.269 40.9459V41.7063H84.7539V42.233H83.269V42.9472H84.9425V43.47H82.6831V40.4307H84.9425V40.9459H83.269Z" fill="#424242"/>
<path d="M86.7561 43.471H85.5454V40.4316H86.7561C87.153 40.4177 87.5401 40.5558 87.8367 40.8172C87.9874 40.9529 88.1042 41.1214 88.178 41.3093C88.3319 41.7277 88.3319 42.1865 88.178 42.6049C88.1041 42.7926 87.9873 42.9608 87.8367 43.0962C87.6981 43.222 87.5347 43.318 87.3568 43.3785C87.1635 43.4439 86.9604 43.4763 86.7561 43.4741M86.1329 42.9589H86.7561C86.8675 42.9586 86.9786 42.9462 87.0872 42.9219C87.1991 42.897 87.3035 42.8463 87.3919 42.7738C87.4903 42.6901 87.5672 42.5843 87.6162 42.4653C87.6808 42.303 87.7108 42.1292 87.7043 41.9548C87.7105 41.7797 87.6806 41.6052 87.6162 41.4419C87.5676 41.3221 87.4897 41.2161 87.3895 41.1334C87.2999 41.0627 87.1952 41.0132 87.0833 40.9885C86.976 40.9644 86.8662 40.9519 86.7561 40.9514H86.1329V42.9589Z" fill="#424242"/>
<path d="M91.2488 40.507L89.5347 42.931H91.1872V43.4708H88.5024V43.4045L90.2165 40.9713H88.631V40.4353H91.244L91.2488 40.507Z" fill="#424242"/>
<path d="M94.2757 40.4353C94.1973 40.5623 94.1072 40.7075 94.0054 40.871C93.9036 41.0345 93.7997 41.2014 93.6938 41.3716L93.3821 41.8744C93.2782 42.0389 93.1874 42.1875 93.1095 42.3202V43.4701H92.5228V42.3202C92.341 42.005 92.148 41.6909 91.9439 41.3777C91.7398 41.0646 91.5453 40.7505 91.3604 40.4353H92.0444C92.1701 40.641 92.2987 40.8556 92.4301 41.0793C92.5615 41.3029 92.69 41.5173 92.8157 41.7225C92.8775 41.6258 92.9419 41.523 93.0089 41.414C93.0759 41.305 93.1429 41.1937 93.2099 41.0801L93.4094 40.7477L93.5964 40.4392L94.2757 40.4353Z" fill="#424242"/>
</g>
<defs>
<clipPath id="clip0_653_56">
<rect width="106" height="37" fill="white" transform="translate(0 10)"/>
</clipPath>
</defs>
</svg>
