<svg width="85" height="32" viewBox="0 0 85 32" fill="none" xmlns="http://www.w3.org/2000/svg">
<g clip-path="url(#clip0_757_232)">
<g clip-path="url(#clip1_757_232)">
<path d="M82.8636 16.4313C83.2868 16.4291 83.7058 16.5143 84.094 16.6815C84.847 17.0014 85.4469 17.5968 85.7692 18.3442C85.9339 18.7264 86.0189 19.1378 86.0189 19.5535C86.0189 19.9693 85.9339 20.3807 85.7692 20.7629C85.4467 21.5101 84.8468 22.1055 84.094 22.4256C83.7048 22.5891 83.2864 22.6734 82.8636 22.6734C82.4409 22.6734 82.0225 22.5891 81.6333 22.4256C80.8805 22.1055 80.2806 21.5101 79.9581 20.7629C79.7933 20.3807 79.7084 19.9693 79.7084 19.5535C79.7084 19.1378 79.7933 18.7264 79.9581 18.3442C80.2804 17.5968 80.8803 17.0014 81.6333 16.6815C82.0215 16.5142 82.4405 16.4291 82.8636 16.4313Z" fill="#202020"/>
<path d="M15.7732 6.56203C15.1114 5.65152 14.2317 4.91892 13.2133 4.43038C12.1949 3.94184 11.07 3.71274 9.94007 3.76375C8.64652 3.75666 7.36516 4.012 6.17461 4.51411C5.0309 4.98998 3.99044 5.68045 3.11032 6.54764C2.24283 7.41096 1.5477 8.42935 1.06159 9.54913C0.562104 10.7168 0.304688 11.9724 0.304688 13.241C0.304688 14.5096 0.562104 15.7651 1.06159 16.9328C2.03045 19.2197 3.86715 21.0363 6.17461 21.9897C7.36519 22.4918 8.64653 22.7471 9.94007 22.7401C11.5551 22.792 13.1368 22.2772 14.4074 21.2863L14.4439 21.2506L12.598 18.0134L12.5608 17.9765H12.5243C11.8987 18.2579 11.2171 18.3958 10.5304 18.3798C9.83878 18.3842 9.15381 18.246 8.51882 17.974C7.90473 17.7127 7.34694 17.3367 6.8758 16.8665C6.40747 16.3981 6.0318 15.8466 5.76827 15.2407C5.49441 14.6118 5.35599 13.933 5.36191 13.2479C5.35801 12.5727 5.48971 11.9035 5.74931 11.2794C6.00892 10.6552 6.39122 10.0887 6.87389 9.61293C7.3492 9.15237 7.90625 8.78305 8.51691 8.52363C9.15359 8.25637 9.83784 8.11865 10.5291 8.11865C11.2204 8.11865 11.9046 8.25637 12.5413 8.52363C13.1554 8.78424 13.7179 9.15117 14.2026 9.6073C14.6869 10.0665 15.0758 10.6154 15.3473 11.2231C15.6314 11.8523 15.7762 12.5346 15.7719 13.2241V19.9481C15.7838 20.7632 15.6397 21.5731 15.3473 22.3349C15.0841 23.0122 14.6959 23.6349 14.2026 24.1708C13.7423 24.6708 13.183 25.071 12.5596 25.3464C11.9673 25.6105 11.3258 25.7481 10.6765 25.7504C10.2347 25.7475 9.79474 25.6921 9.36616 25.5853C8.90713 25.4742 8.46147 25.3145 8.03686 25.1088C7.59651 24.895 7.18678 24.6239 6.81846 24.3028C6.43887 23.9758 6.12026 23.5851 5.87724 23.1484L1.81632 24.9074L1.77916 24.9437L1.81632 25.0169C2.7149 26.5368 3.99886 27.7967 5.54041 28.671C7.08195 29.5454 8.82733 30.0038 10.6028 30.0006C11.9202 30.0079 13.2257 29.7527 14.442 29.2502C16.8146 28.2863 18.7196 26.449 19.7585 24.1227C20.3054 22.9152 20.6185 21.6163 20.6815 20.2939V4.06078H15.7719L15.7732 6.56203Z" fill="#202020"/>
<path d="M37.9596 4.78989H37.9231C36.5962 4.11833 35.1285 3.76678 33.6392 3.76376C31.1288 3.76376 29.2214 4.65544 27.9169 6.43883V4.05702H22.8965V22.3787H27.9176V12.3018C28.0145 11.719 28.2212 11.1596 28.5267 10.6528C28.8266 10.1492 29.207 9.69746 29.6532 9.31528C30.0999 8.93443 30.6121 8.6366 31.1652 8.43608C31.8875 8.17763 32.6579 8.07817 33.4228 8.14457C34.1878 8.21097 34.9291 8.44167 35.5953 8.82066L35.6318 8.85755L37.5149 5.52275L37.9596 4.78989Z" fill="#202020"/>
<path d="M52.9862 6.54827C52.1153 5.68718 51.0882 4.99722 49.9591 4.51475C48.7794 4.01914 47.5115 3.76377 46.2305 3.76377C44.9495 3.76377 43.6816 4.01914 42.5019 4.51475C40.2206 5.4844 38.403 7.28855 37.426 9.55289C36.9266 10.711 36.6692 11.9575 36.6692 13.2172C36.6692 14.4769 36.9266 15.7235 37.426 16.8816C38.4029 19.1461 40.2206 20.9504 42.5019 21.9203C43.6816 22.4159 44.9495 22.6713 46.2305 22.6713C47.5115 22.6713 48.7794 22.4159 49.9591 21.9203C52.2407 20.9514 54.059 19.148 55.0368 16.8841C55.5365 15.7261 55.7941 14.4795 55.7941 13.2197C55.7941 11.96 55.5365 10.7134 55.0368 9.55539C54.5504 8.43581 53.8553 7.41748 52.9881 6.5539M50.3119 15.1413C50.0907 15.742 49.7661 16.2999 49.3524 16.7903C48.9644 17.252 48.4872 17.632 47.9488 17.9077C47.4176 18.1772 46.8287 18.3155 46.2321 18.311C45.6298 18.3144 45.0352 18.1761 44.4971 17.9077C43.951 17.6359 43.467 17.2555 43.0752 16.7903C42.6612 16.3002 42.3365 15.7422 42.1157 15.1413C41.8766 14.4899 41.7577 13.8011 41.7648 13.1078C41.7619 12.4387 41.8808 11.7746 42.1157 11.1474C42.3311 10.555 42.6565 10.008 43.0752 9.53476C43.4752 9.08754 43.9579 8.72053 44.4971 8.4536C45.0354 8.18553 45.6298 8.04733 46.2321 8.05026C46.8286 8.04615 47.4174 8.1845 47.9488 8.4536C48.4803 8.72433 48.9563 9.09098 49.3524 9.53476C49.7707 10.0083 50.0961 10.5552 50.3119 11.1474C50.5463 11.7747 50.6651 12.4388 50.6628 13.1078C50.6694 13.801 50.5505 14.4898 50.3119 15.1413Z" fill="#202020"/>
<path d="M77.6334 0L74.101 17.9214L73.3929 14.4197L71.297 4.05702H66.2022L63.3968 17.9446L60.5543 4.05702H55.4596L55.4961 4.09329L60.4428 22.3781H66.3131L68.7127 11.5314L71.1861 22.3781H76.9959L83.0658 0H77.6334Z" fill="#202020"/>
<path d="M24.0034 24.6736C24.1217 24.6729 24.2388 24.6965 24.3474 24.743C24.5586 24.8312 24.7266 24.9979 24.8155 25.2076C24.8623 25.3154 24.8861 25.4316 24.8854 25.549C24.8859 25.6641 24.8645 25.7782 24.8224 25.8854C24.7825 25.9875 24.7213 26.08 24.6429 26.1568C24.5572 26.238 24.4549 26.2998 24.343 26.3382C24.2081 26.3832 24.0663 26.4044 23.924 26.4007H23.3709V27.1348H22.8959V24.6736H24.0034ZM24.0034 25.9799C24.0663 25.9813 24.1288 25.9694 24.1867 25.9448C24.2357 25.923 24.2789 25.89 24.3127 25.8486C24.3459 25.8077 24.3708 25.7607 24.3858 25.7104C24.4018 25.6581 24.4099 25.6037 24.4098 25.549C24.4097 25.4922 24.3994 25.4359 24.3795 25.3827C24.3596 25.3288 24.3297 25.2792 24.2913 25.2364C24.2487 25.1893 24.1964 25.152 24.1379 25.1269C24.0794 25.1019 24.0161 25.0897 23.9524 25.0913H23.3722V25.9805L24.0034 25.9799Z" fill="#202020"/>
<path d="M26.357 27.1855C26.1857 27.1865 26.016 27.1522 25.8587 27.0848C25.5505 26.9541 25.3049 26.7104 25.1733 26.4044C25.1062 26.2471 25.0716 26.0779 25.0716 25.907C25.0716 25.7361 25.1062 25.567 25.1733 25.4096C25.3044 25.103 25.5501 24.8587 25.8587 24.728C26.0169 24.6613 26.1871 24.627 26.3589 24.627C26.5308 24.627 26.7009 24.6613 26.8591 24.728C27.1678 24.8587 27.4135 25.103 27.5446 25.4096C27.6117 25.567 27.6463 25.7361 27.6463 25.907C27.6463 26.0779 27.6117 26.2471 27.5446 26.4044C27.4129 26.7104 27.1674 26.9541 26.8591 27.0848C26.7 27.1528 26.5284 27.187 26.3552 27.1855M26.3552 25.0682C26.2463 25.0676 26.1387 25.0911 26.0402 25.1369C25.9438 25.1819 25.8566 25.2443 25.7831 25.3208C25.7088 25.3985 25.6496 25.4893 25.6086 25.5884C25.5663 25.6895 25.5445 25.7979 25.5445 25.9073C25.5445 26.0168 25.5663 26.1252 25.6086 26.2262C25.6502 26.3251 25.7093 26.4157 25.7831 26.4939C25.856 26.5721 25.9432 26.6358 26.0402 26.6815C26.139 26.7264 26.2464 26.7497 26.3552 26.7497C26.4639 26.7497 26.5713 26.7264 26.6701 26.6815C26.7671 26.6358 26.8543 26.5721 26.9272 26.4939C27.001 26.4157 27.0601 26.3251 27.1017 26.2262C27.1442 26.1252 27.1661 26.0168 27.1661 25.9073C27.1661 25.7979 27.1442 25.6895 27.1017 25.5884C27.0607 25.4893 27.0015 25.3985 26.9272 25.3208C26.8537 25.2443 26.7665 25.1819 26.6701 25.1369C26.5716 25.0911 26.464 25.0676 26.3552 25.0682Z" fill="#202020"/>
<path d="M31.014 24.6773L30.0879 27.1379H30.0406L29.3691 25.7041L28.6905 27.1423H28.6465L27.7304 24.678H28.2344L28.7195 26.028L29.3495 24.678H29.3804L30.0104 26.0311L30.5056 24.678L31.014 24.6773Z" fill="#202020"/>
<path d="M31.792 25.0913V25.7079H32.9928V26.1349H31.792V26.714H33.1452V27.1379H31.3182V24.6736H33.1452V25.0913H31.792Z" fill="#202020"/>
<path d="M34.111 27.1379H33.636V24.6736H34.7643C34.8834 24.6723 35.0016 24.6935 35.1127 24.7361C35.2139 24.7752 35.3057 24.8348 35.3823 24.9112C35.4586 24.9883 35.5182 25.08 35.5575 25.1807C35.6002 25.2895 35.6215 25.4054 35.6205 25.5221C35.6242 25.6953 35.575 25.8656 35.4793 26.0105C35.3881 26.1472 35.2559 26.252 35.1014 26.31C35.3114 26.5843 35.5174 26.8603 35.7194 27.1379H35.1524C35.0533 27.01 34.9562 26.8809 34.8613 26.7509C34.7664 26.6208 34.6719 26.4885 34.5778 26.3538H34.1078L34.111 27.1379ZM34.111 25.9361H34.7637C34.8093 25.9356 34.8546 25.9272 34.8972 25.9111C34.9444 25.8947 34.9874 25.8682 35.0232 25.8335C35.0611 25.7965 35.0915 25.7525 35.1127 25.7041C35.1374 25.6466 35.1494 25.5846 35.148 25.5221C35.1471 25.4801 35.1427 25.4383 35.1347 25.3971C35.1254 25.3469 35.1071 25.2988 35.0806 25.2551C35.0518 25.2087 35.0125 25.1695 34.9659 25.1407C34.9053 25.1068 34.8363 25.0906 34.7668 25.0938H34.1142L34.111 25.9361Z" fill="#202020"/>
<path d="M36.5529 25.0913V25.7079H37.7536V26.1349H36.5529V26.714H37.9061V27.1379H36.0791V24.6736H37.9061V25.0913H36.5529Z" fill="#202020"/>
<path d="M39.3734 27.138H38.3943V24.6736H39.3734C39.6943 24.6622 40.0073 24.7742 40.2472 24.9862C40.3688 25.0964 40.4632 25.2329 40.5231 25.3852C40.6472 25.7245 40.6472 26.0964 40.5231 26.4357C40.4632 26.5878 40.3687 26.7241 40.2472 26.8341C40.1353 26.936 40.0034 27.014 39.8597 27.0629C39.7032 27.116 39.5387 27.1422 39.3734 27.1405M38.8694 26.7227H39.3734C39.4637 26.7225 39.5537 26.7124 39.6417 26.6927C39.7319 26.6722 39.8161 26.6311 39.8874 26.5727C39.967 26.5048 40.0292 26.419 40.0689 26.3225C40.1212 26.1909 40.1455 26.05 40.1401 25.9086C40.1453 25.7666 40.121 25.6251 40.0689 25.4927C40.0295 25.3956 39.9665 25.3097 39.8855 25.2426C39.813 25.1854 39.7284 25.1452 39.638 25.1251C39.5511 25.1055 39.4624 25.0955 39.3734 25.0951H38.8694V26.7227Z" fill="#202020"/>
<path d="M44.0378 25.3589C44.0369 25.4132 44.0267 25.4669 44.0076 25.5178C43.9876 25.5734 43.9596 25.6258 43.9244 25.6735C43.89 25.7207 43.8473 25.7614 43.7984 25.7935C43.7503 25.8258 43.6939 25.844 43.6359 25.8461C43.6992 25.8512 43.7609 25.8689 43.8173 25.898C43.8785 25.9293 43.9332 25.9717 43.9786 26.023C44.027 26.0756 44.0665 26.1356 44.0958 26.2006C44.1265 26.2682 44.1422 26.3416 44.1417 26.4157C44.1444 26.5324 44.123 26.6484 44.0788 26.7565C44.0423 26.8437 43.9853 26.9209 43.9124 26.9816C43.8406 27.0405 43.7568 27.0832 43.6667 27.1067C43.5688 27.1319 43.468 27.1443 43.3669 27.1436H42.2203V24.6792H43.3133C43.4077 24.6789 43.5019 24.6885 43.5943 24.708C43.6783 24.725 43.7574 24.7607 43.8255 24.8124C43.8946 24.868 43.9483 24.9401 43.9817 25.0219C44.0235 25.1312 44.043 25.2477 44.0391 25.3646M42.6959 25.6829H43.2793C43.3198 25.684 43.3601 25.6757 43.3969 25.6587C43.4336 25.6416 43.4658 25.6163 43.491 25.5847C43.515 25.5551 43.5333 25.5214 43.5451 25.4853C43.5575 25.4496 43.5639 25.4122 43.564 25.3746C43.5641 25.3385 43.5571 25.3028 43.5433 25.2695C43.5186 25.2053 43.4711 25.1524 43.4097 25.1207C43.3798 25.1051 43.3465 25.0969 43.3127 25.0969H42.6953L42.6959 25.6829ZM43.3675 26.7265C43.4077 26.7268 43.4474 26.7169 43.4828 26.6977C43.5193 26.6783 43.5516 26.652 43.5779 26.6202C43.6045 26.5879 43.6258 26.5516 43.6409 26.5126C43.6566 26.4747 43.6647 26.4342 43.6648 26.3932C43.6656 26.3537 43.6576 26.3146 43.6415 26.2785C43.6254 26.2425 43.6015 26.2103 43.5716 26.1844C43.5 26.125 43.4084 26.0948 43.3152 26.0999H42.6947V26.7252L43.3675 26.7265Z" fill="#202020"/>
<path d="M46.5067 24.6773C46.4433 24.7803 46.3705 24.8981 46.2881 25.0306L46.0361 25.4365L45.7841 25.8442C45.7002 25.9776 45.6266 26.098 45.5636 26.2056V27.1379H45.0893V26.2056C44.9423 25.95 44.7865 25.6953 44.6218 25.4415C44.4572 25.1876 44.2999 24.9329 44.1499 24.6773H44.7031C44.8047 24.8441 44.9097 25.0181 45.0181 25.1995C45.1264 25.3808 45.2314 25.5546 45.3331 25.721C45.3831 25.6426 45.4351 25.5592 45.4893 25.4709C45.5435 25.3825 45.5977 25.2922 45.6518 25.2001L45.8131 24.9306L45.9643 24.6805L46.5067 24.6773Z" fill="#202020"/>
<path d="M47.8562 26.8153L48.1145 26.4401C48.2365 26.5241 48.3652 26.5979 48.4994 26.6608C48.6291 26.722 48.771 26.7536 48.9146 26.7534C48.9835 26.7545 49.0522 26.7448 49.1181 26.7246C49.1716 26.7082 49.2221 26.6831 49.2674 26.6502C49.3055 26.6228 49.3369 26.5874 49.3594 26.5464C49.3785 26.5106 49.3889 26.4707 49.3896 26.4301C49.3902 26.3842 49.3738 26.3397 49.3436 26.305C49.3097 26.2679 49.268 26.2387 49.2214 26.2194C49.1635 26.1945 49.1034 26.1752 49.0418 26.1618C48.9725 26.1456 48.9007 26.1312 48.8264 26.1181L48.6531 26.0862C48.5844 26.0732 48.5164 26.0563 48.4496 26.0355C48.3783 26.0139 48.3092 25.9858 48.243 25.9517C48.1755 25.9172 48.1135 25.8729 48.059 25.8204C48.004 25.7666 47.9598 25.703 47.9286 25.6328C47.8941 25.5514 47.8774 25.4635 47.8795 25.3752C47.8747 25.2497 47.9053 25.1255 47.9677 25.0163C48.0233 24.9242 48.1007 24.8469 48.1932 24.7911C48.2875 24.735 48.3909 24.6957 48.4988 24.6748C48.6053 24.6529 48.7138 24.6416 48.8226 24.6411C48.9156 24.6403 49.0085 24.647 49.1004 24.6611C49.1777 24.6736 49.2536 24.6933 49.3272 24.7199C49.3985 24.7464 49.4672 24.7793 49.5326 24.818C49.5994 24.8574 49.6712 24.9037 49.748 24.9575L49.4835 25.3277C49.378 25.2527 49.2643 25.1897 49.1445 25.1401C49.0353 25.0979 48.919 25.0767 48.8018 25.0775C48.755 25.0781 48.7084 25.0831 48.6626 25.0925C48.6115 25.1022 48.562 25.1184 48.5152 25.1407C48.4712 25.1614 48.432 25.1908 48.3999 25.227C48.3696 25.2617 48.3533 25.3062 48.3539 25.3521C48.3534 25.3755 48.3579 25.3989 48.3673 25.4204C48.3766 25.442 48.3905 25.4614 48.4081 25.4771C48.4487 25.5135 48.496 25.5419 48.5473 25.5609C48.6087 25.5849 48.6719 25.6041 48.7363 25.6184L48.9328 25.6653C48.9803 25.6766 49.0362 25.6878 49.1004 25.6991C49.168 25.7113 49.2349 25.7271 49.3008 25.7466C49.3713 25.7674 49.4398 25.7944 49.5055 25.8273C49.5727 25.8603 49.634 25.9041 49.6869 25.9567C49.7414 26.0129 49.7843 26.0792 49.8129 26.1518C49.8479 26.2413 49.8646 26.3367 49.8621 26.4326C49.8647 26.5473 49.8415 26.6612 49.7941 26.7659C49.7501 26.8585 49.6836 26.9389 49.6006 26.9998C49.5109 27.0648 49.4096 27.1123 49.302 27.1398C49.1769 27.1727 49.0478 27.1887 48.9184 27.1873C48.8041 27.1887 48.6899 27.1791 48.5775 27.1586C48.4 27.1262 48.2302 27.0606 48.0773 26.9654C48.0047 26.9207 47.9299 26.8713 47.853 26.8172" fill="#202020"/>
<path d="M51.8346 25.0913H51.1258V27.1379H50.6508V25.0913H49.9389V24.6736H51.8346V25.0913Z" fill="#202020"/>
<path d="M53.2256 27.1823C53.0765 27.1841 52.9284 27.1589 52.7884 27.1079C52.6631 27.0624 52.5488 26.9915 52.4526 26.8997C52.3582 26.8071 52.2848 26.6956 52.2372 26.5726C52.1848 26.4361 52.159 26.291 52.1609 26.1449V24.6773H52.6359V26.1431C52.6328 26.2485 52.6544 26.3531 52.6989 26.4488C52.7344 26.5232 52.786 26.5888 52.8501 26.6408C52.9071 26.6863 52.9729 26.7196 53.0436 26.7384C53.1642 26.7738 53.2927 26.7738 53.4133 26.7384C53.4837 26.7195 53.5494 26.6862 53.6061 26.6408C53.6704 26.5888 53.722 26.5232 53.7573 26.4488C53.802 26.3532 53.8236 26.2485 53.8203 26.1431V24.6773H54.2953V26.1449C54.2974 26.2908 54.2722 26.4359 54.221 26.5726C54.1745 26.6957 54.1016 26.8073 54.0074 26.8997C53.9112 26.9914 53.7969 27.0623 53.6716 27.1079C53.5304 27.159 53.381 27.1842 53.2307 27.1823" fill="#202020"/>
<path d="M55.8124 27.138H54.8334V24.6736H55.8124C56.1331 24.6624 56.4459 24.7744 56.6856 24.9862C56.8073 25.0963 56.9018 25.2328 56.9615 25.3852C57.0856 25.7245 57.0856 26.0964 56.9615 26.4357C56.9017 26.5879 56.8073 26.7242 56.6856 26.8341C56.5736 26.936 56.4417 27.0139 56.2981 27.0629C56.1418 27.1159 55.9775 27.1422 55.8124 27.1405M55.3084 26.7227H55.8124C55.9025 26.7225 55.9923 26.7124 56.0801 26.6927C56.1706 26.6725 56.255 26.6313 56.3265 26.5727C56.406 26.5047 56.4682 26.419 56.5079 26.3225C56.5599 26.1908 56.5839 26.0499 56.5784 25.9086C56.5837 25.7667 56.5597 25.6251 56.5079 25.4927C56.4684 25.3957 56.4055 25.3098 56.3246 25.2426C56.2521 25.1854 56.1674 25.1452 56.077 25.1251C55.9901 25.1055 55.9014 25.0955 55.8124 25.0951H55.3084V26.7227Z" fill="#202020"/>
<path d="M58.0079 24.6773H57.5329V27.1379H58.0079V24.6773Z" fill="#202020"/>
<path d="M59.7782 27.1855C59.6068 27.1865 59.4372 27.1522 59.2799 27.0848C58.9716 26.9541 58.7261 26.7104 58.5944 26.4044C58.5273 26.2471 58.4927 26.0779 58.4927 25.907C58.4927 25.7361 58.5273 25.567 58.5944 25.4096C58.7255 25.103 58.9712 24.8587 59.2799 24.728C59.4381 24.6614 59.6082 24.627 59.7801 24.627C59.9519 24.627 60.1221 24.6614 60.2803 24.728C60.4327 24.7932 60.5714 24.8863 60.6892 25.0025C60.8067 25.1194 60.9005 25.2576 60.9657 25.4096C61.0328 25.567 61.0674 25.7361 61.0674 25.907C61.0674 26.0779 61.0328 26.2471 60.9657 26.4044C60.8341 26.7104 60.5885 26.9541 60.2803 27.0848C60.1212 27.1527 59.9495 27.187 59.7763 27.1855M59.7763 25.0682C59.6675 25.0676 59.5599 25.0911 59.4613 25.1369C59.2652 25.228 59.1111 25.3893 59.0298 25.5884C58.9873 25.6895 58.9654 25.7979 58.9654 25.9073C58.9654 26.0168 58.9873 26.1252 59.0298 26.2262C59.0711 26.325 59.13 26.4157 59.2036 26.4939C59.2766 26.572 59.3638 26.6357 59.4607 26.6815C59.5599 26.7269 59.6679 26.7504 59.7772 26.7504C59.8865 26.7504 59.9945 26.7269 60.0938 26.6815C60.1907 26.6357 60.2779 26.572 60.3508 26.4939C60.4246 26.4157 60.4838 26.3251 60.5254 26.2262C60.5677 26.1252 60.5895 26.0168 60.5895 25.9073C60.5895 25.7979 60.5677 25.6895 60.5254 25.5884C60.4843 25.4893 60.4252 25.3985 60.3508 25.3208C60.2773 25.2443 60.1902 25.182 60.0938 25.1369C59.9952 25.0911 59.8877 25.0676 59.7788 25.0682" fill="#202020"/>
<path d="M65.7033 24.6773L64.7772 27.1379H64.7299L64.0584 25.7041L63.3799 27.1423H63.3358L62.4197 24.678H62.9237L63.4088 26.028L64.0388 24.678H64.0691L64.6991 26.0311L65.1942 24.678L65.7033 24.6773Z" fill="#202020"/>
<path d="M66.5512 24.6773H66.0762V27.1379H66.5512V24.6773Z" fill="#202020"/>
<path d="M67.6361 25.0913V25.7079H68.8368V26.1349H67.6361V26.714H68.9893V27.1379H67.1623V24.6736H68.9893V25.0913H67.6361Z" fill="#202020"/>
<path d="M70.4572 27.1379H69.4781V24.6736H70.4572C70.7781 24.6623 71.0911 24.7743 71.331 24.9862C71.4528 25.0963 71.5472 25.2328 71.6069 25.3852C71.7314 25.7245 71.7314 26.0964 71.6069 26.4357C71.5472 26.5879 71.4527 26.7242 71.331 26.834C71.2189 26.936 71.0867 27.0139 70.9429 27.0629C70.7866 27.116 70.6223 27.1422 70.4572 27.1404M69.9532 26.7227H70.4572C70.5473 26.7225 70.637 26.7124 70.7249 26.6927C70.8154 26.6725 70.8998 26.6314 70.9712 26.5727C71.0508 26.5048 71.1131 26.419 71.1527 26.3225C71.2049 26.1909 71.2291 26.05 71.2239 25.9086C71.2289 25.7666 71.2047 25.6251 71.1527 25.4927C71.1133 25.3956 71.0503 25.3097 70.9693 25.2426C70.8969 25.1853 70.8122 25.1451 70.7218 25.1251C70.6349 25.1055 70.5462 25.0955 70.4572 25.095H69.9532V26.7227Z" fill="#202020"/>
<path d="M74.091 24.7349L72.705 26.7002H74.0412V27.1379H71.8702V27.0842L73.2562 25.1113H71.9742V24.6767H74.0872L74.091 24.7349Z" fill="#202020"/>
<path d="M76.536 24.6773C76.4725 24.7803 76.3997 24.8981 76.3174 25.0306C76.235 25.1632 76.1511 25.2985 76.0654 25.4365L75.8134 25.8442C75.7294 25.9776 75.6559 26.098 75.5929 26.2056V27.1379H75.1185V26.2056C74.9715 25.95 74.8155 25.6953 74.6504 25.4415C74.4853 25.1876 74.328 24.9329 74.1785 24.6773H74.7317C74.8333 24.8441 74.9373 25.0181 75.0435 25.1995C75.1498 25.3808 75.2537 25.5546 75.3554 25.721C75.4054 25.6426 75.4574 25.5592 75.5116 25.4709C75.5658 25.3825 75.62 25.2922 75.6741 25.2001L75.8354 24.9306L75.9866 24.6805L76.536 24.6773Z" fill="#202020"/>
</g>
</g>
<defs>
<clipPath id="clip0_757_232">
<rect width="85" height="30" fill="white"/>
</clipPath>
<clipPath id="clip1_757_232">
<rect width="85.7143" height="30" fill="white" transform="translate(0.304962)"/>
</clipPath>
</defs>
</svg>
