<svg width="171" height="60" viewBox="0 0 171 60" fill="none" xmlns="http://www.w3.org/2000/svg">
<path d="M164.092 32.8626C164.932 32.8582 165.764 33.0286 166.535 33.3629C168.031 34.0027 169.222 35.1936 169.862 36.6883C170.189 37.4527 170.358 38.2756 170.358 39.107C170.358 39.9385 170.189 40.7613 169.862 41.5257C169.222 43.0201 168.03 44.2109 166.535 44.8511C165.762 45.1782 164.931 45.3468 164.092 45.3468C163.253 45.3468 162.422 45.1782 161.649 44.8511C160.154 44.2109 158.962 43.0201 158.322 41.5257C157.995 40.7613 157.826 39.9385 157.826 39.107C157.826 38.2756 157.995 37.4527 158.322 36.6883C158.962 35.1936 160.153 34.0027 161.649 33.3629C162.42 33.0284 163.252 32.8581 164.092 32.8626Z" fill="black"/>
<path d="M30.8591 13.1239C29.545 11.3029 27.7979 9.83773 25.7755 8.86065C23.7532 7.88357 21.5192 7.42537 19.2753 7.52739C16.7065 7.51322 14.1619 8.02389 11.7976 9.02812C9.52634 9.97986 7.46012 11.3608 5.71231 13.0952C3.98959 14.8218 2.60917 16.8586 1.64381 19.0982C0.651897 21.4335 0.140701 23.9447 0.140701 26.4819C0.140701 29.019 0.651897 31.5302 1.64381 33.8656C3.56784 38.4393 7.21529 42.0724 11.7976 43.9794C14.1619 44.9834 16.7065 45.4941 19.2753 45.4801C22.4825 45.5838 25.6236 44.5543 28.1467 42.5724L28.2193 42.5011L24.5536 36.0266L24.4798 35.9529H24.4073C23.1648 36.5158 21.8114 36.7915 20.4476 36.7595C19.0742 36.7683 17.7139 36.4919 16.4529 35.9479C15.2334 35.4253 14.1257 34.6734 13.1901 33.733C12.26 32.7961 11.514 31.6932 10.9907 30.4814C10.4468 29.2235 10.1719 27.8659 10.1837 26.4956C10.1759 25.1452 10.4375 23.8068 10.953 22.5586C11.4686 21.3104 12.2278 20.1774 13.1863 19.2257C14.1302 18.3046 15.2364 17.566 16.4491 17.0472C17.7135 16.5126 19.0723 16.2372 20.4451 16.2372C21.8179 16.2372 23.1767 16.5126 24.441 17.0472C25.6606 17.5684 26.7777 18.3022 27.7401 19.2145C28.7019 20.1328 29.4742 21.2307 30.0134 22.4461C30.5775 23.7045 30.865 25.0692 30.8566 26.4481V39.8961C30.8803 41.5263 30.5941 43.1462 30.0134 44.6697C29.4908 46.0244 28.7198 47.2697 27.7401 48.3416C26.8261 49.3416 25.7153 50.142 24.4773 50.6927C23.3012 51.2209 22.0272 51.4961 20.7378 51.5006C19.8603 51.4949 18.9867 51.3841 18.1356 51.1705C17.224 50.9483 16.339 50.6289 15.4958 50.2175C14.6213 49.7898 13.8076 49.2477 13.0762 48.6054C12.3224 47.9516 11.6897 47.1701 11.2071 46.2968L3.14261 49.8148L3.0688 49.8873L3.14261 50.0337C4.92707 53.0735 7.47684 55.5932 10.5382 57.342C13.5995 59.0907 17.0656 60.0075 20.5915 60.0011C23.2077 60.0156 25.8002 59.5053 28.2155 58.5004C32.9272 56.5725 36.7104 52.8978 38.7734 48.2452C39.8595 45.8302 40.4813 43.2325 40.6063 40.5877V8.12145H30.8566L30.8591 13.1239Z" fill="black"/>
<path d="M74.9185 9.57985H74.8459C72.211 8.23674 69.2963 7.53364 66.3386 7.52759C61.3534 7.52759 57.5656 9.31096 54.975 12.8777V8.11412H45.0051V44.7574H54.9762V24.6036C55.1688 23.4381 55.5792 22.3193 56.186 21.3057C56.7814 20.2985 57.5369 19.395 58.4229 18.6306C59.31 17.8689 60.3272 17.2733 61.4256 16.8722C62.8601 16.3553 64.3899 16.1564 65.909 16.2892C67.4281 16.422 68.9002 16.8834 70.2232 17.6414L70.2957 17.7152L74.0352 11.0456L74.9185 9.57985Z" fill="black"/>
<path d="M104.759 13.0966C103.03 11.3744 100.99 9.99449 98.7479 9.02954C96.4052 8.03833 93.8873 7.52759 91.3434 7.52759C88.7995 7.52759 86.2815 8.03833 83.9388 9.02954C79.4085 10.9689 75.7989 14.5772 73.8589 19.1058C72.8671 21.422 72.3558 23.9151 72.3558 26.4345C72.3558 28.9538 72.8671 31.447 73.8589 33.7632C75.7988 38.2922 79.4084 41.9008 83.9388 43.8407C86.2815 44.8319 88.7995 45.3427 91.3434 45.3427C93.8873 45.3427 96.4052 44.8319 98.7479 43.8407C103.279 41.9029 106.89 38.296 108.832 33.7682C109.824 31.4522 110.335 28.959 110.335 26.4395C110.335 23.9201 109.824 21.4268 108.832 19.1108C107.866 16.8717 106.485 14.835 104.763 13.1078M99.4485 30.2827C99.0092 31.484 98.3645 32.5999 97.5431 33.5806C96.7726 34.5041 95.8248 35.264 94.7557 35.8154C93.7007 36.3544 92.5312 36.6311 91.3465 36.6221C90.1504 36.6288 88.9697 36.3523 87.901 35.8154C86.8165 35.2718 85.8554 34.5111 85.0773 33.5806C84.2551 32.6004 83.6103 31.4844 83.1719 30.2827C82.6971 28.9799 82.461 27.6022 82.4751 26.2156C82.4694 24.8775 82.7055 23.5492 83.1719 22.2949C83.5996 21.1101 84.2459 20.016 85.0773 19.0696C85.8717 18.1751 86.8303 17.4411 87.901 16.9072C88.97 16.3711 90.1505 16.0947 91.3465 16.1006C92.5312 16.0924 93.7004 16.369 94.7557 16.9072C95.8111 17.4487 96.7564 18.182 97.5431 19.0696C98.3738 20.0166 99.02 21.1105 99.4485 22.2949C99.9139 23.5495 100.15 24.8775 100.145 26.2156C100.158 27.6021 99.9223 28.9796 99.4485 30.2827Z" fill="black"/>
<path d="M153.705 0L146.691 35.8429L145.284 28.8394L141.122 8.11405H131.005L125.433 35.8892L119.789 8.11405H109.671L109.744 8.18658L119.567 44.7561H131.225L135.99 23.0628L140.902 44.7561H152.439L164.494 0H153.705Z" fill="black"/>
<path d="M47.2032 49.3472C47.4381 49.3458 47.6707 49.3931 47.8864 49.486C48.3058 49.6624 48.6395 49.9959 48.8159 50.4152C48.9089 50.6308 48.9562 50.8633 48.9547 51.0981C48.9557 51.3282 48.9133 51.5565 48.8297 51.7709C48.7505 51.975 48.629 52.16 48.4731 52.3137C48.303 52.476 48.0999 52.5997 47.8776 52.6764C47.6097 52.7665 47.3281 52.8088 47.0456 52.8015H45.9472V54.2697H45.0038V49.3472H47.2032ZM47.2032 51.9598C47.3282 51.9627 47.4524 51.9388 47.5673 51.8897C47.6646 51.846 47.7503 51.78 47.8175 51.6972C47.8835 51.6154 47.9328 51.5215 47.9626 51.4208C47.9945 51.3162 48.0106 51.2074 48.0102 51.0981C48.0101 50.9845 47.9897 50.8719 47.9502 50.7654C47.9107 50.6577 47.8512 50.5585 47.775 50.4728C47.6904 50.3787 47.5865 50.304 47.4703 50.2539C47.3541 50.2038 47.2284 50.1795 47.1019 50.1827H45.9497V51.961L47.2032 51.9598Z" fill="black"/>
<path d="M51.8773 54.3709C51.537 54.3729 51.2001 54.3044 50.8877 54.1696C50.2756 53.9082 49.7879 53.4208 49.5265 52.8089C49.3932 52.4941 49.3246 52.1558 49.3246 51.814C49.3246 51.4722 49.3932 51.1339 49.5265 50.8191C49.7869 50.2059 50.2747 49.7173 50.8877 49.456C51.2019 49.3226 51.5397 49.2539 51.8811 49.2539C52.2224 49.2539 52.5602 49.3226 52.8744 49.456C53.4874 49.7173 53.9752 50.2059 54.2356 50.8191C54.3688 51.1339 54.4375 51.4722 54.4375 51.814C54.4375 52.1558 54.3688 52.4941 54.2356 52.8089C53.9742 53.4208 53.4865 53.9082 52.8744 54.1696C52.5584 54.3055 52.2175 54.3741 51.8735 54.3709M51.8735 50.1363C51.6574 50.1352 51.4437 50.1822 51.248 50.2739C51.0566 50.3638 50.8835 50.4885 50.7376 50.6415C50.5899 50.797 50.4724 50.9785 50.391 51.1768C50.307 51.379 50.2637 51.5957 50.2637 51.8147C50.2637 52.0336 50.307 52.2503 50.391 52.4525C50.4736 52.6502 50.591 52.8315 50.7376 52.9877C50.8823 53.1442 51.0555 53.2715 51.248 53.3629C51.4443 53.4528 51.6576 53.4994 51.8735 53.4994C52.0894 53.4994 52.3028 53.4528 52.4991 53.3629C52.6916 53.2715 52.8648 53.1442 53.0095 52.9877C53.1561 52.8314 53.2735 52.6501 53.3561 52.4525C53.4404 52.2504 53.4839 52.0336 53.4839 51.8147C53.4839 51.5957 53.4404 51.3789 53.3561 51.1768C53.2747 50.9785 53.1572 50.797 53.0095 50.6415C52.8636 50.4885 52.6905 50.3638 52.4991 50.2739C52.3034 50.1821 52.0897 50.1351 51.8735 50.1363Z" fill="black"/>
<path d="M61.1253 49.3547L59.2862 54.276H59.1924L57.8588 51.4083L56.5113 54.2847H56.4238L54.6047 49.356H55.6055L56.5689 52.0561L57.82 49.356H57.8812L59.1323 52.0624L60.1157 49.356L61.1253 49.3547Z" fill="black"/>
<path d="M62.6704 50.1826V51.4157H65.0549V52.2699H62.6704V53.428H65.3577V54.2759H61.7296V49.3472H65.3577V50.1826H62.6704Z" fill="black"/>
<path d="M67.2756 54.276H66.3323V49.3473H68.573C68.8095 49.3447 69.0443 49.3871 69.2649 49.4723C69.4658 49.5505 69.6482 49.6698 69.8003 49.8225C69.9517 49.9767 70.0701 50.1601 70.1481 50.3615C70.2329 50.5791 70.2754 50.8109 70.2732 51.0444C70.2806 51.3908 70.1829 51.7313 69.993 52.0211C69.8118 52.2946 69.5493 52.5041 69.2424 52.6202C69.6594 53.1688 70.0685 53.7207 70.4697 54.276H69.3437C69.1469 54.02 68.9542 53.762 68.7657 53.5019C68.5772 53.2418 68.3895 52.977 68.2027 52.7077H67.2694L67.2756 54.276ZM67.2756 51.8723H68.5718C68.6624 51.8714 68.7522 51.8545 68.837 51.8223C68.9307 51.7894 69.0161 51.7365 69.0872 51.6672C69.1624 51.593 69.2227 51.5052 69.2649 51.4083C69.3139 51.2934 69.3378 51.1693 69.3349 51.0444C69.3333 50.9604 69.3245 50.8767 69.3086 50.7943C69.2902 50.6939 69.2537 50.5977 69.2011 50.5104C69.1439 50.4175 69.066 50.3391 68.9733 50.2815C68.853 50.2138 68.716 50.1812 68.578 50.1877H67.2819L67.2756 51.8723Z" fill="black"/>
<path d="M72.1248 50.1826V51.4157H74.5094V52.2699H72.1248V53.428H74.8121V54.2759H71.184V49.3472H74.8121V50.1826H72.1248Z" fill="black"/>
<path d="M77.726 54.276H75.7818V49.3473H77.726C78.3634 49.3245 78.985 49.5485 79.4612 49.9726C79.7028 50.1929 79.8903 50.466 80.0092 50.7705C80.2556 51.4492 80.2556 52.1928 80.0092 52.8715C79.8901 53.1756 79.7026 53.4483 79.4612 53.6682C79.239 53.8722 78.9771 54.028 78.6918 54.1259C78.381 54.2321 78.0544 54.2846 77.726 54.281M76.7251 53.4456H77.726C77.9053 53.4451 78.084 53.425 78.2589 53.3856C78.438 53.3446 78.6051 53.2624 78.7468 53.1455C78.9049 53.0096 79.0284 52.8381 79.1071 52.6452C79.2111 52.382 79.2592 52.1001 79.2485 51.8173C79.2589 51.5333 79.2108 51.2502 79.1071 50.9856C79.029 50.7913 78.9039 50.6195 78.7431 50.4854C78.599 50.3709 78.4309 50.2906 78.2514 50.2503C78.079 50.2112 77.9028 50.1911 77.726 50.1902H76.7251V53.4456Z" fill="black"/>
<path d="M86.989 50.7179C86.9872 50.8264 86.9669 50.9338 86.9289 51.0355C86.8893 51.1468 86.8336 51.2517 86.7638 51.3469C86.6955 51.4413 86.6107 51.5227 86.5136 51.587C86.4179 51.6516 86.3061 51.688 86.1908 51.6921C86.3166 51.7025 86.4391 51.7378 86.5511 51.7959C86.6726 51.8585 86.7812 51.9434 86.8713 52.046C86.9674 52.1512 87.046 52.2711 87.1041 52.4012C87.1651 52.5364 87.1962 52.6831 87.1954 52.8314C87.2007 53.0648 87.1581 53.2967 87.0703 53.513C86.9979 53.6874 86.8846 53.8418 86.74 53.9632C86.5974 54.081 86.4309 54.1663 86.2521 54.2134C86.0576 54.2638 85.8574 54.2886 85.6566 54.2871H83.3796V49.3584H85.5502C85.7377 49.3578 85.9248 49.377 86.1082 49.4159C86.2751 49.4499 86.4321 49.5214 86.5674 49.6248C86.7045 49.736 86.8112 49.8802 86.8776 50.0438C86.9606 50.2624 86.9994 50.4954 86.9915 50.7291M84.3242 51.3657H85.4827C85.5632 51.368 85.6431 51.3514 85.7161 51.3173C85.7891 51.2832 85.8531 51.2325 85.903 51.1693C85.9507 51.1101 85.9871 51.0427 86.0106 50.9705C86.0352 50.8992 86.0479 50.8245 86.0481 50.7491C86.0483 50.677 86.0343 50.6056 86.0069 50.539C85.958 50.4106 85.8636 50.3047 85.7416 50.2413C85.6822 50.2101 85.6161 50.1938 85.549 50.1938H84.3229L84.3242 51.3657ZM85.6578 53.453C85.7378 53.4535 85.8166 53.4337 85.8868 53.3954C85.9593 53.3567 86.0235 53.304 86.0757 53.2404C86.1285 53.1757 86.1707 53.1031 86.2008 53.0253C86.2319 52.9494 86.248 52.8683 86.2483 52.7864C86.2498 52.7075 86.234 52.6292 86.202 52.557C86.17 52.4849 86.1226 52.4206 86.0632 52.3687C85.921 52.2499 85.739 52.1895 85.554 52.1998H84.3216V53.4505L85.6578 53.453Z" fill="black"/>
<path d="M91.8919 49.3547C91.766 49.5607 91.6213 49.7962 91.4578 50.0613L90.9574 50.873L90.457 51.6884C90.2902 51.9552 90.1442 52.1962 90.0191 52.4113V54.276H89.077V52.4113C88.7851 51.9002 88.4757 51.3908 88.1487 50.883C87.8218 50.3753 87.5094 49.8658 87.2116 49.3547H88.3101C88.512 49.6882 88.7205 50.0364 88.9357 50.399C89.1508 50.7617 89.3594 51.1094 89.5612 51.442C89.6605 51.2853 89.7639 51.1186 89.8715 50.9418C89.979 50.765 90.0866 50.5846 90.1942 50.4003L90.5145 49.8613L90.8148 49.361L91.8919 49.3547Z" fill="black"/>
<path d="M94.5718 53.6305L95.0847 52.8801C95.3269 53.048 95.5826 53.1957 95.8491 53.3216C96.1067 53.444 96.3884 53.5072 96.6736 53.5067C96.8105 53.5089 96.9468 53.4895 97.0777 53.4492C97.1841 53.4164 97.2843 53.3661 97.3742 53.3003C97.4498 53.2456 97.5122 53.1747 97.5569 53.0927C97.595 53.021 97.6155 52.9413 97.6169 52.8601C97.6181 52.7684 97.5856 52.6794 97.5256 52.61C97.4582 52.5357 97.3754 52.4772 97.2828 52.4387C97.168 52.3888 97.0486 52.3503 96.9263 52.3236C96.7887 52.2911 96.6461 52.2623 96.4984 52.2361L96.1544 52.1723C96.0178 52.1464 95.8829 52.1125 95.7503 52.071C95.6087 52.0277 95.4713 51.9716 95.3399 51.9034C95.2059 51.8343 95.0827 51.7458 94.9746 51.6408C94.8653 51.5332 94.7775 51.4059 94.7157 51.2656C94.6471 51.1027 94.6138 50.927 94.6181 50.7503C94.6086 50.4994 94.6692 50.2508 94.7932 50.0325C94.9037 49.8483 95.0574 49.6937 95.2411 49.5822C95.4283 49.47 95.6336 49.3913 95.8479 49.3496C96.0595 49.3058 96.2749 49.2832 96.4909 49.2821C96.6756 49.2806 96.8601 49.294 97.0427 49.3221C97.1961 49.3471 97.3469 49.3864 97.493 49.4396C97.6346 49.4928 97.7711 49.5585 97.9009 49.636C98.0335 49.7148 98.1761 49.8073 98.3288 49.9149L97.8033 50.6553C97.5938 50.5053 97.368 50.3794 97.1302 50.2801C96.9133 50.1957 96.6824 50.1533 96.4496 50.155C96.3567 50.1561 96.2641 50.1661 96.1731 50.185C96.0718 50.2044 95.9734 50.2367 95.8804 50.2813C95.7932 50.3228 95.7153 50.3815 95.6515 50.4539C95.5914 50.5233 95.559 50.6123 95.5601 50.704C95.5591 50.751 95.5681 50.7976 95.5867 50.8408C95.6053 50.884 95.6329 50.9226 95.6677 50.9542C95.7485 51.027 95.8423 51.0838 95.9442 51.1217C96.0662 51.1697 96.1916 51.2082 96.3195 51.2368L96.7099 51.3306C96.8041 51.3531 96.915 51.3756 97.0427 51.3981C97.1769 51.4224 97.3097 51.4542 97.4405 51.4932C97.5806 51.5348 97.7166 51.5888 97.8471 51.6545C97.9805 51.7206 98.1022 51.8081 98.2074 51.9134C98.3156 52.0258 98.4007 52.1584 98.4576 52.3036C98.5271 52.4824 98.5602 52.6733 98.5552 52.8651C98.5605 53.0946 98.5143 53.3224 98.4201 53.5317C98.3328 53.717 98.2008 53.8777 98.036 53.9995C97.8579 54.1295 97.6566 54.2246 97.443 54.2796C97.1945 54.3453 96.9382 54.3773 96.6811 54.3746C96.4541 54.3774 96.2275 54.3582 96.0043 54.3171C95.6517 54.2522 95.3146 54.1211 95.0109 53.9306C94.8666 53.8414 94.7181 53.7426 94.5655 53.6342" fill="black"/>
<path d="M102.472 50.1826H101.065V54.2759H100.122V50.1826H98.7078V49.3472H102.472V50.1826Z" fill="black"/>
<path d="M105.235 54.3648C104.939 54.3683 104.644 54.3179 104.367 54.2159C104.118 54.1248 103.891 53.983 103.7 53.7995C103.512 53.6143 103.366 53.3913 103.272 53.1454C103.168 52.8723 103.117 52.5821 103.12 52.29V49.3547H104.064V52.2862C104.057 52.497 104.1 52.7064 104.189 52.8978C104.259 53.0465 104.362 53.1776 104.489 53.2817C104.602 53.3728 104.733 53.4392 104.873 53.4768C105.113 53.5477 105.368 53.5477 105.608 53.4768C105.747 53.439 105.878 53.3726 105.99 53.2817C106.118 53.1778 106.221 53.0466 106.291 52.8978C106.379 52.7064 106.422 52.497 106.416 52.2862V49.3547H107.359V52.29C107.363 52.5818 107.313 52.8718 107.211 53.1454C107.119 53.3915 106.974 53.6147 106.787 53.7995C106.596 53.9829 106.369 54.1247 106.121 54.2159C105.84 54.3182 105.543 54.3686 105.245 54.3648" fill="black"/>
<path d="M110.372 54.276H108.428V49.3472H110.372C111.009 49.3248 111.63 49.5488 112.106 49.9726C112.348 50.1926 112.535 50.4657 112.654 50.7705C112.9 51.4491 112.9 52.1928 112.654 52.8715C112.535 53.1758 112.347 53.4485 112.106 53.6682C111.883 53.872 111.622 54.0278 111.336 54.1259C111.026 54.232 110.7 54.2844 110.372 54.281M109.371 53.4455H110.372C110.551 53.445 110.729 53.4249 110.903 53.3855C111.083 53.345 111.251 53.2628 111.393 53.1454C111.551 53.0094 111.674 52.838 111.753 52.6451C111.856 52.3818 111.904 52.0999 111.893 51.8172C111.903 51.5334 111.856 51.2503 111.753 50.9856C111.675 50.7914 111.55 50.6196 111.389 50.4853C111.245 50.3708 111.077 50.2904 110.897 50.2502C110.725 50.2111 110.549 50.191 110.372 50.1902H109.371V53.4455Z" fill="black"/>
<path d="M114.732 49.3547H113.788V54.2759H114.732V49.3547Z" fill="black"/>
<path d="M118.247 54.371C117.907 54.3731 117.57 54.3046 117.258 54.1697C116.646 53.9084 116.158 53.4209 115.896 52.809C115.763 52.4942 115.695 52.1559 115.695 51.8141C115.695 51.4723 115.763 51.134 115.896 50.8193C116.157 50.206 116.645 49.7175 117.258 49.4561C117.572 49.3228 117.91 49.2542 118.251 49.2542C118.592 49.2542 118.93 49.3228 119.244 49.4561C119.547 49.5866 119.823 49.7728 120.056 50.0051C120.29 50.239 120.476 50.5154 120.606 50.8193C120.739 51.134 120.808 51.4723 120.808 51.8141C120.808 52.1559 120.739 52.4942 120.606 52.809C120.344 53.4209 119.857 53.9084 119.244 54.1697C118.928 54.3056 118.588 54.3742 118.244 54.371M118.244 50.1364C118.027 50.1353 117.814 50.1823 117.618 50.274C117.229 50.4561 116.922 50.7787 116.761 51.177C116.677 51.379 116.633 51.5958 116.633 51.8148C116.633 52.0338 116.677 52.2505 116.761 52.4526C116.843 52.6502 116.96 52.8315 117.106 52.9879C117.251 53.1441 117.424 53.2715 117.617 53.363C117.814 53.4539 118.028 53.501 118.245 53.501C118.462 53.501 118.677 53.4539 118.874 53.363C119.067 53.2715 119.24 53.1442 119.385 52.9879C119.531 52.8316 119.648 52.6503 119.731 52.4526C119.815 52.2504 119.858 52.0337 119.858 51.8148C119.858 51.5959 119.815 51.3791 119.731 51.177C119.65 50.9787 119.532 50.7972 119.385 50.6417C119.238 50.4887 119.065 50.3641 118.874 50.274C118.678 50.1823 118.465 50.1354 118.249 50.1364" fill="black"/>
<path d="M130.014 49.3547L128.175 54.276H128.081L126.747 51.4083L125.4 54.2847H125.312L123.493 49.356H124.494L125.457 52.0561L126.708 49.356H126.768L128.019 52.0624L129.003 49.356L130.014 49.3547Z" fill="black"/>
<path d="M131.698 49.3547H130.754V54.2759H131.698V49.3547Z" fill="black"/>
<path d="M133.852 50.1826V51.4157H136.237V52.2699H133.852V53.428H136.539V54.2759H132.911V49.3472H136.539V50.1826H133.852Z" fill="black"/>
<path d="M139.454 54.276H137.51V49.3473H139.454C140.092 49.3246 140.713 49.5486 141.19 49.9726C141.432 50.1926 141.619 50.4657 141.738 50.7705C141.985 51.449 141.985 52.193 141.738 52.8715C141.619 53.1758 141.431 53.4486 141.19 53.6682C140.967 53.8721 140.705 54.028 140.419 54.1259C140.109 54.2321 139.782 54.2845 139.454 54.281M138.454 53.4456H139.454C139.633 53.4451 139.812 53.425 139.986 53.3855C140.166 53.3452 140.333 53.2629 140.475 53.1454C140.633 53.0096 140.757 52.8381 140.836 52.6452C140.939 52.3819 140.987 52.1 140.977 51.8173C140.987 51.5333 140.939 51.2503 140.836 50.9856C140.757 50.7913 140.632 50.6195 140.471 50.4853C140.328 50.3707 140.159 50.2903 139.98 50.2502C139.807 50.2111 139.631 50.191 139.454 50.1902H138.454V53.4456Z" fill="black"/>
<path d="M146.671 49.4698L143.918 53.4006H146.572V54.276H142.261V54.1684L145.013 50.2227H142.467V49.3535H146.663L146.671 49.4698Z" fill="black"/>
<path d="M151.526 49.3547C151.4 49.5607 151.255 49.7962 151.092 50.0613C150.928 50.3265 150.762 50.597 150.592 50.873L150.091 51.6884C149.924 51.9552 149.778 52.1962 149.653 52.4113V54.276H148.711V52.4113C148.419 51.9002 148.109 51.3908 147.782 50.883C147.454 50.3753 147.141 49.8658 146.844 49.3547H147.943C148.145 49.6882 148.351 50.0364 148.562 50.399C148.773 50.7617 148.98 51.1094 149.182 51.442C149.281 51.2853 149.384 51.1186 149.492 50.9418C149.599 50.765 149.707 50.5846 149.815 50.4003L150.135 49.8613L150.435 49.361L151.526 49.3547Z" fill="black"/>
</svg>
