<svg width="220" height="80" viewBox="0 0 220 80" fill="none" xmlns="http://www.w3.org/2000/svg">
<g clip-path="url(#clip0_6455_4537)">
<path d="M189.09 42.8634C189.931 42.8589 190.763 43.0293 191.534 43.3636C193.029 44.0034 194.22 45.1943 194.86 46.689C195.187 47.4534 195.356 48.2763 195.356 49.1078C195.356 49.9392 195.187 50.762 194.86 51.5265C194.22 53.0209 193.029 54.2116 191.534 54.8519C190.761 55.179 189.93 55.3475 189.09 55.3475C188.251 55.3475 187.42 55.179 186.647 54.8519C185.152 54.2116 183.961 53.0209 183.32 51.5265C182.993 50.762 182.824 49.9392 182.824 49.1078C182.824 48.2763 182.993 47.4534 183.32 46.689C183.96 45.1943 185.152 44.0034 186.647 43.3636C187.418 43.0292 188.25 42.8588 189.09 42.8634Z" fill="#C7D0CF"/>
<path d="M55.859 23.1242C54.5449 21.3032 52.7978 19.838 50.7755 18.8609C48.7531 17.8838 46.5191 17.4256 44.2752 17.5276C41.7064 17.5135 39.1618 18.0241 36.7975 19.0284C34.5263 19.9801 32.46 21.361 30.7122 23.0954C28.9895 24.822 27.6091 26.8588 26.6437 29.0984C25.6518 31.4338 25.1406 33.945 25.1406 36.4821C25.1406 39.0193 25.6518 41.5304 26.6437 43.8658C28.5678 48.4396 32.2152 52.0727 36.7975 53.9796C39.1619 54.9836 41.7064 55.4943 44.2752 55.4803C47.4824 55.5841 50.6236 54.5546 53.1467 52.5727L53.2193 52.5014L49.5536 46.0269L49.4797 45.9531H49.4072C48.1647 46.516 46.8113 46.7917 45.4475 46.7597C44.0741 46.7686 42.7138 46.4922 41.4528 45.9481C40.2333 45.4256 39.1256 44.6736 38.19 43.7332C37.2599 42.7963 36.5139 41.6934 35.9906 40.4816C35.4467 39.2238 35.1719 37.8661 35.1836 36.4959C35.1759 35.1455 35.4374 33.8071 35.9529 32.5588C36.4685 31.3106 37.2277 30.1776 38.1862 29.226C39.1301 28.3049 40.2363 27.5662 41.449 27.0474C42.7134 26.5129 44.0722 26.2374 45.445 26.2374C46.8178 26.2374 48.1766 26.5129 49.441 27.0474C50.6605 27.5686 51.7776 28.3025 52.7401 29.2147C53.7018 30.133 54.4741 31.2309 55.0133 32.4463C55.5774 33.7047 55.865 35.0694 55.8565 36.4483V49.8963C55.8802 51.5265 55.594 53.1464 55.0133 54.67C54.4907 56.0246 53.7197 57.2699 52.7401 58.3418C51.826 59.3418 50.7153 60.1422 49.4773 60.6929C48.3011 61.2211 47.0271 61.4963 45.7378 61.5008C44.8603 61.4952 43.9866 61.3843 43.1355 61.1707C42.224 60.9486 41.3389 60.6291 40.4957 60.2177C39.6212 59.7901 38.8076 59.2479 38.0761 58.6057C37.3223 57.9518 36.6896 57.1703 36.207 56.297L28.1425 59.815L28.0687 59.8876L28.1425 60.0339C29.927 63.0738 32.4768 65.5935 35.5381 67.3422C38.5994 69.0909 42.0655 70.0078 45.5914 70.0014C48.2076 70.0159 50.8001 69.5055 53.2155 68.5006C57.9271 66.5728 61.7103 62.8981 63.7734 58.2455C64.8594 55.8305 65.4812 53.2328 65.6062 50.5879V18.1217H55.8565L55.859 23.1242Z" fill="#C7D0CF"/>
<path d="M99.9173 19.5796H99.8447C97.2098 18.2365 94.2951 17.5334 91.3374 17.5273C86.3522 17.5273 82.5644 19.3107 79.9738 22.8775V18.1139H70.0039V54.7572H79.975V34.6034C80.1676 33.4379 80.578 32.3191 81.1848 31.3055C81.7802 30.2983 82.5358 29.3948 83.4217 28.6304C84.3088 27.8687 85.326 27.273 86.4244 26.872C87.8589 26.3551 89.3887 26.1562 90.9078 26.289C92.4269 26.4218 93.899 26.8832 95.222 27.6412L95.2945 27.7149L99.034 21.0453L99.9173 19.5796Z" fill="#C7D0CF"/>
<path d="M129.759 23.0963C128.029 21.3742 125.99 19.9942 123.748 19.0293C121.405 18.0381 118.887 17.5273 116.343 17.5273C113.799 17.5273 111.281 18.0381 108.939 19.0293C104.408 20.9686 100.799 24.5769 98.8585 29.1056C97.8668 31.4217 97.3555 33.9149 97.3555 36.4342C97.3555 38.9536 97.8668 41.4468 98.8585 43.7629C100.799 48.2919 104.408 51.9006 108.939 53.8404C111.281 54.8316 113.799 55.3424 116.343 55.3424C118.887 55.3424 121.405 54.8316 123.748 53.8404C128.279 51.9027 131.889 48.2958 133.831 43.7679C134.823 41.4519 135.335 38.9587 135.335 36.4393C135.335 33.9198 134.823 31.4266 133.831 29.1106C132.865 26.8714 131.485 24.8348 129.763 23.1076M124.448 40.2824C124.009 41.4838 123.364 42.5996 122.543 43.5803C121.772 44.5039 120.824 45.2638 119.755 45.8152C118.7 46.3541 117.531 46.6309 116.346 46.6219C115.15 46.6285 113.969 46.3521 112.901 45.8152C111.816 45.2715 110.855 44.5109 110.077 43.5803C109.255 42.6002 108.61 41.4842 108.172 40.2824C107.697 38.9796 107.461 37.6019 107.475 36.2154C107.469 34.8772 107.705 33.549 108.172 32.2947C108.599 31.1098 109.246 30.0158 110.077 29.0693C110.871 28.1749 111.83 27.4409 112.901 26.907C113.97 26.3709 115.15 26.0945 116.346 26.1003C117.531 26.0921 118.7 26.3688 119.755 26.907C120.811 27.4485 121.756 28.1818 122.543 29.0693C123.373 30.0163 124.02 31.1102 124.448 32.2947C124.914 33.5493 125.15 34.8773 125.145 36.2154C125.158 37.6018 124.922 38.9794 124.448 40.2824Z" fill="#C7D0CF"/>
<path d="M178.706 10L171.691 45.8429L170.285 38.8394L166.123 18.114H156.005L150.434 45.8892L144.789 18.114H134.672L134.744 18.1866L144.568 54.7561H156.226L160.991 33.0628L165.903 54.7561H177.44L189.494 10H178.706Z" fill="#C7D0CF"/>
<path d="M72.2033 59.3477C72.4381 59.3463 72.6708 59.3936 72.8864 59.4865C73.3059 59.6629 73.6396 59.9964 73.816 60.4157C73.909 60.6313 73.9562 60.8638 73.9548 61.0986C73.9558 61.3287 73.9133 61.557 73.8297 61.7714C73.7506 61.9755 73.629 62.1605 73.4732 62.3142C73.3031 62.4765 73.0999 62.6002 72.8776 62.6769C72.6098 62.767 72.3282 62.8093 72.0457 62.8019H70.9472V64.2702H70.0039V59.3477H72.2033ZM72.2033 61.9603C72.3283 61.9632 72.4524 61.9393 72.5674 61.8902C72.6647 61.8465 72.7504 61.7805 72.8176 61.6976C72.8836 61.6159 72.9329 61.522 72.9627 61.4212C72.9946 61.3167 73.0106 61.2079 73.0103 61.0986C73.0101 60.985 72.9898 60.8724 72.9502 60.7659C72.9107 60.6582 72.8513 60.559 72.7751 60.4733C72.6905 60.3792 72.5865 60.3045 72.4703 60.2544C72.3541 60.2043 72.2285 60.18 72.102 60.1831H70.9497V61.9615L72.2033 61.9603Z" fill="#C7D0CF"/>
<path d="M76.8769 64.3709C76.5367 64.3729 76.1997 64.3044 75.8873 64.1696C75.2752 63.9082 74.7876 63.4208 74.5262 62.8089C74.3929 62.4941 74.3242 62.1558 74.3242 61.814C74.3242 61.4722 74.3929 61.1339 74.5262 60.8191C74.7865 60.2059 75.2744 59.7173 75.8873 59.456C76.2015 59.3226 76.5394 59.2539 76.8807 59.2539C77.222 59.2539 77.5599 59.3226 77.874 59.456C78.487 59.7173 78.9749 60.2059 79.2352 60.8191C79.3685 61.1339 79.4372 61.4722 79.4372 61.814C79.4372 62.1558 79.3685 62.4941 79.2352 62.8089C78.9738 63.4208 78.4862 63.9082 77.874 64.1696C77.5581 64.3055 77.2172 64.3741 76.8732 64.3709M76.8732 60.1363C76.6571 60.1352 76.4434 60.1822 76.2477 60.2739C76.0562 60.3638 75.8832 60.4885 75.7372 60.6415C75.5896 60.797 75.4721 60.9785 75.3907 61.1768C75.3066 61.379 75.2634 61.5957 75.2634 61.8147C75.2634 62.0336 75.3066 62.2503 75.3907 62.4525C75.4732 62.6502 75.5906 62.8315 75.7372 62.9877C75.8819 63.1442 76.0551 63.2715 76.2477 63.3629C76.4439 63.4528 76.6573 63.4994 76.8732 63.4994C77.0891 63.4994 77.3025 63.4528 77.4987 63.3629C77.6912 63.2715 77.8645 63.1442 78.0092 62.9877C78.1558 62.8314 78.2731 62.6501 78.3557 62.4525C78.4401 62.2504 78.4836 62.0336 78.4836 61.8147C78.4836 61.5957 78.4401 61.3789 78.3557 61.1768C78.2743 60.9785 78.1568 60.797 78.0092 60.6415C77.8632 60.4885 77.6902 60.3638 77.4987 60.2739C77.303 60.1821 77.0893 60.1351 76.8732 60.1363Z" fill="#C7D0CF"/>
<path d="M86.1261 59.3555L84.287 64.2767H84.1932L82.8596 61.409L81.5121 64.2855H81.4246L79.6055 59.3567H80.6063L81.5697 62.0568L82.8208 59.3567H82.882L84.1331 62.0631L85.1165 59.3567L86.1261 59.3555Z" fill="#C7D0CF"/>
<path d="M87.6713 60.1831V61.4162H90.0558V62.2704H87.6713V63.4284H90.3586V64.2764H86.7305V59.3477H90.3586V60.1831H87.6713Z" fill="#C7D0CF"/>
<path d="M92.2753 64.2765H91.332V59.3478H93.5727C93.8092 59.3452 94.044 59.3876 94.2646 59.4728C94.4655 59.551 94.6479 59.6703 94.8 59.823C94.9514 59.9772 95.0698 60.1606 95.1479 60.362C95.2327 60.5796 95.2751 60.8114 95.2729 61.0449C95.2803 61.3913 95.1826 61.7318 94.9927 62.0216C94.8115 62.2951 94.549 62.5046 94.2421 62.6207C94.6591 63.1693 95.0682 63.7212 95.4694 64.2765H94.3434C94.1466 64.0205 93.9539 63.7625 93.7654 63.5024C93.5769 63.2422 93.3892 62.9775 93.2024 62.7082H92.2691L92.2753 64.2765ZM92.2753 61.8728H93.5715C93.6622 61.8719 93.752 61.855 93.8367 61.8228C93.9304 61.7899 94.0158 61.737 94.0869 61.6677C94.1621 61.5935 94.2224 61.5057 94.2646 61.4088C94.3136 61.2939 94.3375 61.1698 94.3346 61.0449C94.333 60.9609 94.3242 60.8772 94.3084 60.7948C94.2899 60.6944 94.2534 60.5982 94.2008 60.5108C94.1436 60.418 94.0657 60.3396 93.9731 60.282C93.8527 60.2142 93.7157 60.1817 93.5777 60.1882H92.2816L92.2753 61.8728Z" fill="#C7D0CF"/>
<path d="M97.1244 60.1831V61.4162H99.509V62.2704H97.1244V63.4284H99.8117V64.2764H96.1836V59.3477H99.8117V60.1831H97.1244Z" fill="#C7D0CF"/>
<path d="M102.725 64.276H100.781V59.3473H102.725C103.363 59.3245 103.984 59.5485 104.461 59.9726C104.702 60.1929 104.89 60.466 105.009 60.7705C105.255 61.4492 105.255 62.1928 105.009 62.8715C104.89 63.1756 104.702 63.4483 104.461 63.6682C104.239 63.8722 103.977 64.028 103.691 64.1259C103.38 64.2321 103.054 64.2846 102.725 64.281M101.725 63.4456H102.725C102.905 63.4451 103.083 63.425 103.258 63.3856C103.438 63.3446 103.605 63.2624 103.746 63.1455C103.904 63.0096 104.028 62.8381 104.107 62.6452C104.211 62.382 104.259 62.1001 104.248 61.8173C104.258 61.5333 104.21 61.2502 104.107 60.9856C104.028 60.7913 103.903 60.6195 103.743 60.4854C103.599 60.3709 103.43 60.2906 103.251 60.2503C103.078 60.2112 102.902 60.1911 102.725 60.1902H101.725V63.4456Z" fill="#C7D0CF"/>
<path d="M111.988 60.7188C111.987 60.8274 111.966 60.9348 111.928 61.0365C111.889 61.1477 111.833 61.2526 111.763 61.3479C111.695 61.4423 111.61 61.5237 111.513 61.588C111.417 61.6526 111.305 61.689 111.19 61.6931C111.316 61.7034 111.438 61.7387 111.55 61.7969C111.672 61.8595 111.78 61.9443 111.871 62.047C111.967 62.1522 112.045 62.2721 112.103 62.4022C112.164 62.5374 112.196 62.6841 112.195 62.8324C112.2 63.0657 112.157 63.2977 112.07 63.514C111.997 63.6883 111.884 63.8428 111.739 63.9642C111.597 64.0819 111.43 64.1673 111.251 64.2143C111.057 64.2648 110.857 64.2896 110.656 64.2881H108.379V59.3594H110.55C110.737 59.3587 110.924 59.378 111.108 59.4169C111.274 59.4509 111.431 59.5224 111.567 59.6258C111.704 59.737 111.811 59.8811 111.877 60.0447C111.96 60.2634 111.999 60.4964 111.991 60.7301M109.323 61.3667H110.482C110.563 61.369 110.642 61.3524 110.715 61.3183C110.788 61.2842 110.852 61.2335 110.902 61.1703C110.95 61.1111 110.986 61.0437 111.01 60.9714C111.035 60.9002 111.047 60.8254 111.047 60.7501C111.048 60.678 111.034 60.6066 111.006 60.54C110.957 60.4116 110.863 60.3057 110.741 60.2423C110.682 60.2111 110.615 60.1948 110.548 60.1948H109.322L109.323 61.3667ZM110.657 63.454C110.737 63.4545 110.816 63.4347 110.886 63.3964C110.959 63.3576 111.023 63.3049 111.075 63.2413C111.128 63.1767 111.17 63.1041 111.2 63.0262C111.231 62.9504 111.247 62.8693 111.248 62.7874C111.249 62.7084 111.233 62.6302 111.201 62.558C111.169 62.4859 111.122 62.4216 111.062 62.3697C110.92 62.2509 110.738 62.1905 110.553 62.2008H109.321V63.4514L110.657 63.454Z" fill="#C7D0CF"/>
<path d="M116.891 59.3555C116.765 59.5614 116.621 59.7969 116.457 60.0621L115.957 60.8738L115.456 61.6892C115.289 61.956 115.143 62.1969 115.018 62.412V64.2767H114.076V62.412C113.784 61.9009 113.475 61.3915 113.148 60.8838C112.821 60.376 112.509 59.8666 112.211 59.3555H113.309C113.511 59.689 113.72 60.0371 113.935 60.3998C114.15 60.7624 114.359 61.1101 114.56 61.4428C114.66 61.286 114.763 61.1193 114.871 60.9425C114.978 60.7658 115.086 60.5853 115.194 60.401L115.514 59.862L115.814 59.3617L116.891 59.3555Z" fill="#C7D0CF"/>
<path d="M119.573 63.6298L120.086 62.8794C120.328 63.0473 120.584 63.195 120.85 63.3209C121.108 63.4432 121.389 63.5065 121.674 63.506C121.811 63.5081 121.948 63.4887 122.079 63.4484C122.185 63.4157 122.285 63.3654 122.375 63.2996C122.451 63.2449 122.513 63.174 122.558 63.092C122.596 63.0203 122.616 62.9406 122.618 62.8594C122.619 62.7677 122.586 62.6787 122.526 62.6093C122.459 62.535 122.376 62.4765 122.284 62.4379C122.169 62.3881 122.05 62.3496 121.927 62.3229C121.79 62.2903 121.647 62.2616 121.499 62.2353L121.155 62.1716C121.019 62.1457 120.884 62.1118 120.751 62.0702C120.61 62.027 120.472 61.9709 120.341 61.9026C120.207 61.8336 120.084 61.7451 119.976 61.64C119.866 61.5325 119.778 61.4052 119.717 61.2649C119.648 61.1019 119.615 60.9263 119.619 60.7496C119.609 60.4987 119.67 60.2501 119.794 60.0317C119.905 59.8475 120.058 59.693 120.242 59.5815C120.429 59.4693 120.635 59.3906 120.849 59.3489C121.06 59.3051 121.276 59.2825 121.492 59.2814C121.677 59.2799 121.861 59.2932 122.044 59.3214C122.197 59.3464 122.348 59.3857 122.494 59.4389C122.635 59.492 122.772 59.5578 122.902 59.6353C123.034 59.7141 123.177 59.8066 123.33 59.9142L122.804 60.6545C122.595 60.5045 122.369 60.3787 122.131 60.2794C121.914 60.195 121.683 60.1525 121.451 60.1543C121.358 60.1553 121.265 60.1654 121.174 60.1843C121.073 60.2036 120.974 60.236 120.881 60.2806C120.794 60.322 120.716 60.3807 120.652 60.4532C120.592 60.5226 120.56 60.6116 120.561 60.7033C120.56 60.7503 120.569 60.7969 120.588 60.8401C120.606 60.8832 120.634 60.9219 120.669 60.9535C120.749 61.0263 120.843 61.0831 120.945 61.121C121.067 61.169 121.193 61.2074 121.32 61.2361L121.711 61.3299C121.805 61.3524 121.916 61.3749 122.044 61.3974C122.178 61.4217 122.311 61.4535 122.441 61.4925C122.581 61.5341 122.718 61.5881 122.848 61.6538C122.981 61.7199 123.103 61.8073 123.208 61.9127C123.317 62.0251 123.402 62.1576 123.459 62.3029C123.528 62.4817 123.561 62.6726 123.556 62.8644C123.561 63.0939 123.515 63.3216 123.421 63.531C123.334 63.7163 123.202 63.877 123.037 63.9987C122.859 64.1288 122.658 64.2239 122.444 64.2789C122.195 64.3446 121.939 64.3766 121.682 64.3739C121.455 64.3767 121.228 64.3574 121.005 64.3164C120.653 64.2515 120.316 64.1204 120.012 63.9299C119.868 63.8407 119.719 63.7419 119.566 63.6335" fill="#C7D0CF"/>
<path d="M127.472 60.1831H126.064V64.2764H125.121V60.1831H123.707V59.3477H127.472V60.1831Z" fill="#C7D0CF"/>
<path d="M130.236 64.3655C129.94 64.3691 129.645 64.3187 129.367 64.2167C129.119 64.1256 128.892 63.9837 128.701 63.8002C128.513 63.615 128.367 63.392 128.273 63.1461C128.169 62.8731 128.117 62.5828 128.121 62.2907V59.3555H129.065V62.287C129.058 62.4978 129.101 62.7071 129.19 62.8985C129.26 63.0472 129.363 63.1784 129.49 63.2825C129.603 63.3735 129.734 63.44 129.874 63.4776C130.114 63.5484 130.369 63.5484 130.608 63.4776C130.748 63.4397 130.879 63.3733 130.991 63.2825C131.119 63.1785 131.221 63.0473 131.292 62.8985C131.38 62.7072 131.423 62.4978 131.417 62.287V59.3555H132.36V62.2907C132.364 62.5825 132.314 62.8725 132.212 63.1461C132.12 63.3922 131.975 63.6154 131.788 63.8002C131.597 63.9837 131.37 64.1255 131.121 64.2167C130.841 64.3189 130.544 64.3693 130.246 64.3655" fill="#C7D0CF"/>
<path d="M135.37 64.276H133.426V59.3472H135.37C136.007 59.3248 136.628 59.5488 137.104 59.9726C137.346 60.1926 137.533 60.4657 137.652 60.7705C137.898 61.4491 137.898 62.1928 137.652 62.8715C137.533 63.1758 137.346 63.4485 137.104 63.6682C136.882 63.872 136.62 64.0278 136.335 64.1259C136.024 64.232 135.698 64.2844 135.37 64.281M134.369 63.4455H135.37C135.549 63.445 135.727 63.4249 135.902 63.3855C136.081 63.345 136.249 63.2628 136.391 63.1454C136.549 63.0094 136.672 62.838 136.751 62.6451C136.854 62.3818 136.902 62.0999 136.891 61.8172C136.902 61.5334 136.854 61.2503 136.751 60.9856C136.673 60.7914 136.548 60.6196 136.387 60.4853C136.243 60.3708 136.075 60.2904 135.895 60.2502C135.723 60.2111 135.547 60.191 135.37 60.1902H134.369V63.4455Z" fill="#C7D0CF"/>
<path d="M139.732 59.3555H138.789V64.2767H139.732V59.3555Z" fill="#C7D0CF"/>
<path d="M143.248 64.3708C142.908 64.3729 142.571 64.3043 142.258 64.1695C141.646 63.9081 141.159 63.4207 140.897 62.8088C140.764 62.494 140.695 62.1557 140.695 61.8139C140.695 61.4721 140.764 61.1338 140.897 60.819C141.158 60.2058 141.645 59.7172 142.258 59.4558C142.573 59.3226 142.91 59.2539 143.252 59.2539C143.593 59.2539 143.931 59.3226 144.245 59.4558C144.548 59.5863 144.823 59.7726 145.057 60.0049C145.29 60.2388 145.477 60.5151 145.606 60.819C145.74 61.1338 145.808 61.4721 145.808 61.8139C145.808 62.1557 145.74 62.494 145.606 62.8088C145.345 63.4207 144.857 63.9081 144.245 64.1695C143.929 64.3054 143.588 64.3739 143.244 64.3708M143.244 60.1362C143.028 60.1351 142.814 60.182 142.619 60.2737C142.229 60.4559 141.923 60.7784 141.762 61.1767C141.677 61.3788 141.634 61.5956 141.634 61.8145C141.634 62.0335 141.677 62.2503 141.762 62.4523C141.844 62.65 141.961 62.8313 142.107 62.9876C142.252 63.1439 142.425 63.2712 142.617 63.3628C142.815 63.4537 143.029 63.5007 143.246 63.5007C143.463 63.5007 143.678 63.4537 143.875 63.3628C144.067 63.2713 144.24 63.1439 144.385 62.9876C144.532 62.8313 144.649 62.65 144.732 62.4523C144.816 62.2502 144.859 62.0335 144.859 61.8145C144.859 61.5956 144.816 61.3789 144.732 61.1767C144.65 60.9784 144.533 60.7969 144.385 60.6414C144.239 60.4885 144.066 60.3638 143.875 60.2737C143.679 60.1821 143.465 60.1351 143.249 60.1362" fill="#C7D0CF"/>
<path d="M155.013 59.3555L153.174 64.2767H153.08L151.746 61.409L150.399 64.2855H150.311L148.492 59.3567H149.493L150.456 62.0568L151.707 59.3567H151.768L153.019 62.0631L154.002 59.3567L155.013 59.3555Z" fill="#C7D0CF"/>
<path d="M156.697 59.3555H155.754V64.2767H156.697V59.3555Z" fill="#C7D0CF"/>
<path d="M158.851 60.1831V61.4162H161.236V62.2704H158.851V63.4284H161.538V64.2764H157.91V59.3477H161.538V60.1831H158.851Z" fill="#C7D0CF"/>
<path d="M164.456 64.276H162.512V59.3473H164.456C165.093 59.3246 165.715 59.5486 166.191 59.9726C166.433 60.1926 166.621 60.4657 166.739 60.7705C166.986 61.449 166.986 62.193 166.739 62.8715C166.621 63.1758 166.433 63.4486 166.191 63.6682C165.969 63.8721 165.706 64.028 165.421 64.1259C165.11 64.2321 164.784 64.2845 164.456 64.281M163.455 63.4456H164.456C164.635 63.4451 164.813 63.425 164.988 63.3855C165.167 63.3452 165.335 63.2629 165.477 63.1454C165.635 63.0096 165.758 62.8381 165.837 62.6452C165.941 62.3819 165.989 62.1 165.978 61.8173C165.989 61.5333 165.94 61.2503 165.837 60.9856C165.759 60.7913 165.634 60.6195 165.473 60.4853C165.329 60.3707 165.161 60.2903 164.981 60.2502C164.809 60.2111 164.633 60.191 164.456 60.1902H163.455V63.4456Z" fill="#C7D0CF"/>
<path d="M171.672 59.4698L168.919 63.4006H171.573V64.276H167.262V64.1684L170.014 60.2227H167.468V59.3535H171.664L171.672 59.4698Z" fill="#C7D0CF"/>
<path d="M176.525 59.3555C176.399 59.5614 176.255 59.7969 176.091 60.0621C175.928 60.3272 175.761 60.5978 175.591 60.8738L175.09 61.6892C174.924 61.956 174.778 62.1969 174.653 62.412V64.2767H173.71V62.412C173.418 61.9009 173.109 61.3915 172.781 60.8838C172.453 60.376 172.141 59.8666 171.844 59.3555H172.942C173.144 59.689 173.351 60.0371 173.562 60.3998C173.773 60.7624 173.979 61.1101 174.181 61.4428C174.28 61.286 174.383 61.1193 174.491 60.9425C174.599 60.7658 174.706 60.5853 174.814 60.401L175.134 59.862L175.434 59.3617L176.525 59.3555Z" fill="#C7D0CF"/>
</g>
<defs>
<clipPath id="clip0_6455_4537">
<rect width="170.217" height="60" fill="white" transform="translate(25.1406 10)"/>
</clipPath>
</defs>
</svg>
