<svg width="126" height="57" viewBox="0 0 126 57" fill="none" xmlns="http://www.w3.org/2000/svg">
<g clip-path="url(#clip0_653_15)">
<path d="M14.409 31.0621L5.66708 31.8133L6.4414 23.1798L1.90773 23.561L0 44.999L4.53367 44.6066L5.34165 35.4797L14.0835 34.7397L13.2531 43.8666L17.7868 43.4741L19.7282 22.0474L15.1945 22.4286L14.409 31.0621Z" fill="#424242"/>
<path d="M20.0439 43.284L24.5776 42.9028L26.4853 21.4648L21.9629 21.8573L20.0439 43.284Z" fill="#424242"/>
<path d="M40.7472 21.0842C39.7036 20.6245 38.4018 20.4676 36.8308 20.6021L28.7061 21.2973L26.7983 42.724L31.332 42.3428L32.0839 34.1018L34.8445 33.8663L37.8407 41.7822L42.8233 41.3561L39.3894 32.9132C39.6811 32.7899 39.9729 32.6554 40.2422 32.4984C41.4991 31.7808 42.453 30.8614 43.1038 29.7289C43.7547 28.5965 44.0577 27.3295 43.9904 25.9167C43.9567 24.8628 43.6761 23.9097 43.1263 23.0576C42.5764 22.2055 41.7796 21.5439 40.736 21.0842H40.7472ZM32.9255 24.717L36.337 24.4255C37.3694 24.3358 38.1213 24.504 38.6038 24.9301C39.0864 25.3561 39.3445 25.9504 39.3669 26.724C39.4118 27.778 39.12 28.6413 38.4916 29.3253C37.8632 30.0092 36.9654 30.4017 35.7983 30.4914L32.3869 30.7829L32.9367 24.717H32.9255Z" fill="#424242"/>
<path d="M59.6012 22.2712L59.9603 18.616L46.2808 19.782L44.373 41.22L58.0189 40.0539L58.3444 36.4099L49.2321 37.1836L49.7259 31.6783L57.9404 30.972L58.2546 27.4849L50.0401 28.1801L50.489 23.0448L59.6012 22.2712Z" fill="#424242"/>
<path d="M72.5494 26.3877L65.4796 26.9931L65.9509 21.7233L75.0631 20.9497L75.3886 17.3057L61.7427 18.4717L59.835 39.8985L64.3574 39.5173L65.1429 30.5474L72.2128 29.942L72.5494 26.3877Z" fill="#424242"/>
<path d="M99.6524 18.9747C100.045 18.7617 100.505 18.6272 101.033 18.5823C101.56 18.5375 102.02 18.5935 102.413 18.7505C102.806 18.9075 103.12 19.1654 103.344 19.5017C103.569 19.8493 103.659 20.2754 103.625 20.7799L108.484 20.3651C108.529 19.0084 108.26 17.8871 107.676 17.0014C107.093 16.1156 106.273 15.4877 105.219 15.0953C104.164 14.7141 102.918 14.5795 101.493 14.7028C99.9218 14.8374 98.5302 15.2298 97.3183 15.8913C96.1063 16.5529 95.1749 17.4162 94.5128 18.5038C93.8507 19.5802 93.5589 20.8136 93.615 22.1815C93.6599 23.4709 94.0976 24.5248 94.9168 25.3209C95.736 26.117 96.8806 26.7112 98.3507 27.0925C98.8444 27.2158 99.3382 27.3391 99.8095 27.4737C100.292 27.6082 100.73 27.7428 101.134 27.8885C101.538 28.0343 101.908 28.2137 102.233 28.4155C102.559 28.6173 102.806 28.864 102.974 29.1443C103.154 29.4246 103.243 29.7498 103.255 30.1086C103.277 30.6356 103.176 31.1065 102.929 31.5213C102.694 31.9362 102.346 32.2726 101.908 32.5192C101.459 32.7659 100.932 32.9229 100.303 32.9789C99.6973 33.035 99.1587 32.9565 98.6761 32.7659C98.1936 32.5753 97.8232 32.2614 97.5764 31.8241C97.3295 31.3868 97.2173 30.871 97.2509 30.2543L92.4479 30.6692C92.3469 32.138 92.6163 33.349 93.2447 34.3132C93.8731 35.2775 94.7821 35.9614 95.9604 36.3875C97.1387 36.8136 98.5078 36.9593 100.056 36.8248C101.706 36.6902 103.154 36.2642 104.388 35.5802C105.622 34.885 106.576 33.9881 107.25 32.8892C107.912 31.7904 108.215 30.5571 108.136 29.178C108.103 28.3707 107.945 27.6643 107.654 27.0588C107.362 26.4534 106.958 25.9488 106.464 25.534C105.959 25.1191 105.398 24.7715 104.758 24.48C104.13 24.1885 103.445 23.953 102.716 23.7736C102.256 23.6503 101.818 23.5269 101.392 23.4148C100.965 23.3027 100.573 23.1682 100.214 23.0336C99.8544 22.8878 99.5514 22.7309 99.2933 22.5627C99.0352 22.3945 98.8332 22.1927 98.6761 21.946C98.519 21.7105 98.4405 21.419 98.4292 21.0714C98.4068 20.6117 98.5078 20.1969 98.721 19.8269C98.9342 19.4681 99.2372 19.1766 99.63 18.9635L99.6524 18.9747Z" fill="#424242"/>
<path d="M109.213 14.423L108.854 18.0782L115.014 17.5512L113.398 35.3452L117.921 34.9528L119.514 17.17L125.664 16.643L126.001 12.999L109.213 14.423Z" fill="#424242"/>
<path d="M85.7368 31.8584L87.1844 37.5655L91.9538 37.1618L89.6982 28.9768C88.2842 29.7617 86.9263 30.7371 85.7368 31.8584Z" fill="#424242"/>
<path d="M93.1217 27.6434C91.8761 27.4977 90.5968 27.4752 89.3062 27.5313L86.2314 16.3862L81.0132 16.8347L71.4072 38.923L76.1429 38.5194C79.6554 32.8571 86.6803 28.6189 93.1217 27.6434ZM83.1566 21.6897L84.7838 28.1031C83.1117 28.4507 81.4621 28.9553 79.8574 29.5944L83.1566 21.6897Z" fill="#424242"/>
</g>
<defs>
<clipPath id="clip0_653_15">
<rect width="126" height="32" fill="white" transform="translate(0 13)"/>
</clipPath>
</defs>
</svg>
