<svg width="181" height="62" viewBox="0 0 181 62" fill="none" xmlns="http://www.w3.org/2000/svg">
<path fill-rule="evenodd" clip-rule="evenodd" d="M34.2152 22.2031C35.281 22.2031 36.146 23.1228 36.146 24.2549C36.146 25.387 35.281 26.3067 34.2152 26.3067C33.1498 26.3061 32.2847 25.387 32.2847 24.2549C32.2847 23.1228 33.1498 22.2037 34.2152 22.2037V22.2031V22.2031Z" fill="#333333"/>
<path d="M28.9062 33.008C22.8369 27.1739 20.1006 19.1803 23.6943 15.0752C27.3161 10.9364 35.746 12.3206 42.426 18.1669C45.5574 20.9083 47.8039 24.1445 48.893 27.2345L50.6402 27.2263C49.097 23.7853 46.5499 20.3096 43.1183 17.3068C34.48 9.74464 23.6077 8.04004 18.8295 13.499C14.049 18.9586 17.0255 29.5142 25.6655 37.0767C26.7656 38.0401 28.3544 38.9067 28.9062 39.6774V33.008V33.008Z" fill="#2173BA"/>
<path d="M174.065 27.1695V23.5966H172.791V22.8701H176.204V23.5966H174.932V27.1695H174.065ZM176.753 27.1695V22.8701H178.053L178.833 25.8007L179.606 22.8701H180.907V27.1695H180.098V23.7848L179.244 27.1695H178.411L177.559 23.7848V27.1695H176.753Z" fill="#333333"/>
<path d="M35.451 42.0233C35.451 43.0357 34.2031 43.093 33.4665 42.8564C33.1207 42.7503 32.948 42.4729 32.948 42.0233V30.0542C32.948 29.603 33.1207 29.3271 33.4665 29.2223C33.5857 29.1919 33.9559 29.1748 34.5726 29.1748C35.1569 29.1748 35.451 29.4694 35.451 30.0542V42.0233Z" fill="#333333"/>
<path d="M53.0295 39.5335C53.0295 40.2656 52.9148 40.8393 52.6819 41.2625C52.0392 42.3841 50.1547 42.9413 47.0156 42.9413H38.3423C37.7647 42.9413 37.4772 42.6446 37.4772 42.0526C37.4772 41.6521 37.5187 41.3745 37.5997 41.2156C37.7255 40.9883 37.9771 40.8791 38.3423 40.8791H47.0182C49.3546 40.8791 50.5264 40.4472 50.5264 39.5809V38.3982C50.5264 37.5391 49.3961 37.0818 47.1313 37.0206C43.2733 36.9081 41.1724 36.8192 40.8238 36.7635C38.5707 36.3772 37.4436 35.3682 37.4436 33.7402V32.6996C37.4436 31.0606 38.3274 30.0058 40.0999 29.5313C40.9215 29.3112 42.4812 29.2041 44.7718 29.2041C45.3593 29.2041 45.6533 29.4966 45.6533 30.0841V30.356C45.6533 30.9486 45.3593 31.2465 44.7718 31.2465H44.2863H43.6425C41.1742 31.2465 39.9428 31.7249 39.9428 32.6848V33.6403C39.9428 34.2401 40.4608 34.6307 41.4869 34.8094C41.9047 34.88 42.6383 34.9098 43.7009 34.9098H47.0492C48.5409 34.9098 49.8043 35.1178 50.8414 35.5338C52.3019 36.119 53.0295 37.0443 53.0295 38.3055V39.5335V39.5335Z" fill="#333333"/>
<path d="M64.6174 35.8647C64.6174 36.5952 64.2803 36.9588 63.6045 36.9588H55.1784C54.677 36.9588 54.3785 36.8679 54.2655 36.6923C54.197 36.5627 54.1611 36.2262 54.1611 35.6762C54.1611 34.948 54.5 34.5811 55.1774 34.5811H63.6029C64.0807 34.5811 64.3747 34.6738 64.4878 34.8508C64.57 34.9705 64.6146 35.3065 64.6146 35.8647H64.6174ZM90.9139 30.3446C90.9139 30.5519 90.8477 30.7887 90.7219 31.0507L85.7016 41.7354C85.4063 42.3654 84.8647 42.676 84.0547 42.676C83.2863 42.676 82.7528 42.3753 82.4498 41.7647L78.4572 33.5537L74.3995 41.7945C74.0934 42.4135 73.5416 42.7208 72.7416 42.7208C71.9146 42.7208 71.3508 42.3992 71.0629 41.7514L66.1401 31.0507C66.0215 30.6861 65.9614 30.4516 65.9614 30.3446C65.9614 29.7068 66.3856 29.3879 67.2368 29.3879C67.9689 29.3879 68.4517 29.6113 68.6768 30.05L72.8305 38.8639L76.8943 30.6568C77.2065 29.9991 77.7295 29.6721 78.4567 29.6721C79.1585 29.6721 79.6682 29.9948 79.9987 30.643L84.053 38.8639L88.2024 30.05C88.4093 29.6113 88.8837 29.3879 89.6285 29.3879C90.4836 29.3879 90.9106 29.7068 90.9106 30.3446H90.9139ZM95.6752 27.601C95.6752 28.0919 95.4881 28.4754 95.1102 28.7585C94.7852 29.0012 94.3875 29.1247 93.9174 29.1247C93.4473 29.1247 93.049 29.0012 92.7257 28.7585C92.349 28.4754 92.1603 28.0919 92.1603 27.601C92.1603 27.116 92.349 26.7332 92.7257 26.4485C93.0495 26.2036 93.4479 26.0839 93.9174 26.0839C94.3868 26.0839 94.7847 26.2036 95.1102 26.4485C95.4881 26.7332 95.6752 27.116 95.6752 27.601ZM95.301 41.8309C95.301 42.5712 94.9656 42.9414 94.2908 42.9414C93.6272 42.9414 93.241 42.9077 93.1318 42.8448C92.7814 42.707 92.6065 42.3654 92.6065 41.8309V30.5023C92.6065 29.7676 92.9448 29.4017 93.6183 29.4017C94.2694 29.4017 94.6534 29.4376 94.7614 29.5026C95.1234 29.6428 95.2999 29.9761 95.2999 30.5023V41.8309H95.301V41.8309ZM105.038 30.8543C105.038 31.5991 104.632 31.9687 103.831 31.9687C103.72 31.9687 103.558 31.9594 103.35 31.945C103.139 31.9296 102.975 31.9235 102.866 31.9235C100.785 31.9235 99.746 32.4924 99.746 33.6265V41.8309C99.746 42.3753 99.5563 42.7208 99.1817 42.8598C99.0272 42.9138 98.635 42.9414 98.001 42.9414C97.36 42.9414 97.0339 42.5657 97.0339 41.8176V33.6265C97.0339 31.8617 97.8609 30.6667 99.5122 30.0378C100.525 29.6428 102.027 29.4458 104.02 29.4458C104.699 29.4458 105.036 29.9158 105.036 30.8543H105.038ZM122.719 36.4276C122.719 37.244 122.461 37.6512 121.96 37.6512H108.49V37.7472C108.49 39.0254 109.176 39.843 110.548 40.2084C110.843 40.2866 111.278 40.3423 111.847 40.3854C112.419 40.4279 113.146 40.4488 114.023 40.4488C114.692 40.4488 115.021 40.9089 115.021 41.8264C115.021 42.5712 114.691 42.9414 114.022 42.9414C113.119 42.9414 112.372 42.9381 111.795 42.9227C111.22 42.9077 110.777 42.8835 110.478 42.8448C108.987 42.676 107.893 42.292 107.194 41.6913C106.187 40.8389 105.688 39.8321 105.688 38.6812V33.7126C105.688 32.1525 106.46 31 107.997 30.2481C109.052 29.7068 110.448 29.431 112.186 29.431H117.246C118.664 29.431 119.84 29.6902 120.777 30.2061C122.07 30.8632 122.714 31.8523 122.714 33.1753V36.4276H122.719V36.4276ZM120.073 35.0792V33.4142C120.073 32.4013 118.235 31.8965 114.563 31.8965C112.398 31.8965 110.91 31.9836 110.106 32.1525C108.967 32.3875 108.398 32.8426 108.398 33.5306V35.0792H120.073V35.0792ZM126.991 41.8309C126.991 42.5712 126.657 42.9414 125.992 42.9414C125.331 42.9414 124.943 42.9077 124.835 42.8448C124.468 42.6964 124.283 42.3539 124.283 41.8309V26.9015C124.283 26.1644 124.614 25.8008 125.282 25.8008C125.909 25.8008 126.299 25.8273 126.453 25.8858C126.813 26.0165 126.99 26.3574 126.99 26.9015V41.8309H126.991ZM145.575 36.4276C145.575 37.244 145.322 37.6512 144.818 37.6512H131.348V37.7472C131.348 39.0254 132.035 39.843 133.403 40.2084C133.702 40.2866 134.134 40.3423 134.704 40.3854C135.274 40.4279 136.001 40.4488 136.881 40.4488C137.547 40.4488 137.882 40.9089 137.882 41.8264C137.882 42.5712 137.547 42.9414 136.881 42.9414C135.974 42.9414 135.228 42.9381 134.651 42.9227C134.075 42.9077 133.634 42.8835 133.337 42.8448C131.846 42.676 130.75 42.292 130.048 41.6913C129.045 40.8389 128.543 39.8321 128.543 38.6812V33.7126C128.543 32.1525 129.315 31 130.853 30.2481C131.91 29.7068 133.304 29.431 135.041 29.431H140.102C141.523 29.431 142.7 29.6902 143.633 30.2061C144.93 30.8632 145.573 31.8523 145.573 33.1753V36.4276H145.575ZM142.928 35.0792V33.4142C142.928 32.4013 141.091 31.8965 137.42 31.8965C135.252 31.8965 133.768 31.9836 132.964 32.1525C131.826 32.3875 131.257 32.8426 131.257 33.5306V35.0792H142.928ZM162.268 39.0834C162.268 41.6542 160.48 42.9414 156.9 42.9414H147.736C147.063 42.9414 146.733 42.5712 146.733 41.8264C146.733 40.9089 147.063 40.4488 147.73 40.4488H156.913C158.608 40.4488 159.454 39.9925 159.454 39.0834V38.5791C159.454 37.7621 158.68 37.355 157.146 37.355H152.737C148.689 37.355 146.662 36.1137 146.662 33.641V32.9049C146.662 31.2681 147.681 30.2155 149.716 29.7537C150.13 29.6533 150.729 29.5777 151.522 29.5226C152.311 29.4707 153.307 29.4458 154.513 29.4458C155.185 29.4458 155.52 29.9158 155.52 30.8543C155.52 31.5826 155.185 31.95 154.512 31.95H152.559C151.533 31.95 150.928 31.9633 150.721 31.9919C149.824 32.1227 149.372 32.4288 149.372 32.9049V33.6117C149.372 34.4199 150.496 34.8215 152.752 34.8215H157.238C160.591 34.8215 162.263 36.0381 162.263 38.4672V39.0834H162.268V39.0834ZM178.967 39.0834C178.967 41.6542 177.176 42.9414 173.598 42.9414H164.431C163.76 42.9414 163.428 42.5712 163.428 41.8264C163.428 40.9089 163.759 40.4488 164.427 40.4488H173.61C175.303 40.4488 176.152 39.9925 176.152 39.0834V38.5791C176.152 37.7621 175.38 37.355 173.84 37.355H169.438C165.383 37.355 163.36 36.1137 163.36 33.641V32.9049C163.36 31.2681 164.379 30.2155 166.414 29.7537C166.828 29.6533 167.427 29.5777 168.221 29.5226C169.009 29.4707 170.002 29.4458 171.208 29.4458C171.883 29.4458 172.219 29.9158 172.219 30.8543C172.219 31.5826 171.882 31.95 171.207 31.95H169.256C168.235 31.95 167.623 31.9633 167.416 31.9919C166.521 32.1227 166.068 32.4288 166.068 32.9049V33.6117C166.068 34.4199 167.195 34.8215 169.445 34.8215H173.94C177.288 34.8215 178.963 36.0381 178.963 38.4672V39.0834H178.967V39.0834Z" fill="#333333"/>
<path d="M56.2045 47.7336C49.3063 54.2893 34.8193 51.6004 23.1499 41.3852C11.0566 30.7983 6.57081 16.1386 13.1333 8.64278C19.694 1.14737 34.8177 3.65369 46.9118 14.2408C51.4203 18.1865 54.8684 22.6983 57.084 27.193L59.9384 27.1792C57.1138 22.1107 53.1046 17.113 48.0439 12.6828C32.4006 -1.01086 12.7045 -4.097 4.05124 5.78769C-4.6026 15.6746 1.06322 34.7881 16.706 48.4823C32.3504 62.1764 52.0454 65.2627 60.6999 55.3773C61.9168 53.9865 62.8409 52.4086 63.5036 50.6934L56.2045 47.7336V47.7336Z" fill="#2173BA"/>
</svg>
