<svg width="95" height="32" viewBox="0 0 95 32" fill="none" xmlns="http://www.w3.org/2000/svg">
<path fill-rule="evenodd" clip-rule="evenodd" d="M19.9169 11.89C20.4396 11.89 20.8639 12.3411 20.8639 12.8964C20.8639 13.4516 20.4396 13.9027 19.9169 13.9027C19.3943 13.9024 18.97 13.4516 18.97 12.8964C18.97 12.3411 19.3943 11.8903 19.9169 11.8903V11.89V11.89Z" fill="#202020"/>
<path d="M17.3128 17.1895C14.336 14.328 12.9939 10.4074 14.7565 8.39398C16.5329 6.36403 20.6676 7.04293 23.9439 9.91037C25.4798 11.2549 26.5817 12.8422 27.1158 14.3578L27.9728 14.3538C27.2159 12.6661 25.9666 10.9613 24.2835 9.48851C20.0466 5.77948 14.714 4.94342 12.3705 7.62091C10.0258 10.2987 11.4857 15.4759 15.7234 19.1851C16.2629 19.6576 17.0422 20.0827 17.3128 20.4607V17.1895V17.1895Z" fill="#202020"/>
<path d="M88.5096 14.3264V12.574H87.8843V12.2177H89.5587V12.574H88.9347V14.3264H88.5096ZM89.828 14.3264V12.2177H90.4652L90.8478 13.655L91.2269 12.2177H91.865V14.3264H91.4686V12.6663L91.0497 14.3264H90.6411L90.223 12.6663V14.3264H89.828Z" fill="#202020"/>
<path d="M20.5224 21.6118C20.5224 22.1083 19.9103 22.1364 19.5491 22.0204C19.3794 21.9684 19.2947 21.8323 19.2947 21.6118V15.7413C19.2947 15.52 19.3794 15.3846 19.5491 15.3332C19.6075 15.3183 19.7891 15.3099 20.0916 15.3099C20.3782 15.3099 20.5224 15.4544 20.5224 15.7413V21.6118Z" fill="#202020"/>
<path d="M29.1444 20.3897C29.1444 20.7487 29.0882 21.0301 28.9739 21.2377C28.6587 21.7878 27.7344 22.0611 26.1947 22.0611H21.9407C21.6574 22.0611 21.5165 21.9155 21.5165 21.6252C21.5165 21.4287 21.5368 21.2926 21.5765 21.2147C21.6382 21.1032 21.7616 21.0496 21.9407 21.0496H26.196C27.342 21.0496 27.9167 20.8378 27.9167 20.4129V19.8328C27.9167 19.4114 27.3623 19.1871 26.2515 19.1571C24.3593 19.1019 23.3289 19.0583 23.1579 19.031C22.0527 18.8416 21.5 18.3466 21.5 17.5482V17.0378C21.5 16.2339 21.9334 15.7166 22.8028 15.4838C23.2058 15.3759 23.9707 15.3233 25.0942 15.3233C25.3824 15.3233 25.5266 15.4668 25.5266 15.7549V15.8883C25.5266 16.179 25.3824 16.3251 25.0942 16.3251H24.8561H24.5403C23.3297 16.3251 22.7257 16.5597 22.7257 17.0305V17.4992C22.7257 17.7933 22.9798 17.9849 23.4831 18.0726C23.688 18.1072 24.0478 18.1218 24.569 18.1218H26.2112C26.9429 18.1218 27.5625 18.2238 28.0712 18.4279C28.7875 18.7149 29.1444 19.1687 29.1444 19.7873V20.3897V20.3897Z" fill="#202020"/>
<path d="M34.8276 18.5907C34.8276 18.949 34.6623 19.1273 34.3308 19.1273H30.198C29.9521 19.1273 29.8057 19.0827 29.7503 18.9966C29.7167 18.933 29.6991 18.768 29.6991 18.4982C29.6991 18.141 29.8653 17.9611 30.1975 17.9611H34.33C34.5644 17.9611 34.7086 18.0065 34.764 18.0934C34.8044 18.1521 34.8263 18.3169 34.8263 18.5907H34.8276ZM47.7253 15.8832C47.7253 15.9849 47.6929 16.101 47.6312 16.2295L45.1688 21.4701C45.024 21.7791 44.7583 21.9314 44.3611 21.9314C43.9842 21.9314 43.7225 21.7839 43.5739 21.4844L41.6157 17.4572L39.6255 21.499C39.4753 21.8026 39.2047 21.9534 38.8123 21.9534C38.4067 21.9534 38.1302 21.7956 37.9889 21.4779L35.5745 16.2295C35.5163 16.0507 35.4868 15.9357 35.4868 15.8832C35.4868 15.5704 35.6949 15.414 36.1124 15.414C36.4714 15.414 36.7082 15.5235 36.8186 15.7387L38.8559 20.0617L40.8491 16.0363C41.0022 15.7138 41.2588 15.5534 41.6154 15.5534C41.9596 15.5534 42.2096 15.7116 42.3717 16.0296L44.3603 20.0617L46.3954 15.7387C46.4969 15.5235 46.7296 15.414 47.0949 15.414C47.5143 15.414 47.7237 15.5704 47.7237 15.8832H47.7253ZM50.0606 14.5375C50.0606 14.7783 49.9688 14.9664 49.7835 15.1053C49.6241 15.2243 49.429 15.2849 49.1985 15.2849C48.9679 15.2849 48.7725 15.2243 48.6139 15.1053C48.4292 14.9664 48.3366 14.7783 48.3366 14.5375C48.3366 14.2996 48.4292 14.1119 48.6139 13.9723C48.7728 13.8521 48.9682 13.7934 49.1985 13.7934C49.4287 13.7934 49.6239 13.8521 49.7835 13.9723C49.9688 14.1119 50.0606 14.2996 50.0606 14.5375ZM49.8771 21.5169C49.8771 21.88 49.7126 22.0616 49.3816 22.0616C49.0561 22.0616 48.8667 22.0451 48.8131 22.0142C48.6413 21.9466 48.5555 21.7791 48.5555 21.5169V15.9605C48.5555 15.6002 48.7214 15.4207 49.0518 15.4207C49.3711 15.4207 49.5594 15.4383 49.6124 15.4702C49.79 15.539 49.8765 15.7025 49.8765 15.9605V21.5169H49.8771V21.5169ZM54.6528 16.1332C54.6528 16.4985 54.4538 16.6798 54.0607 16.6798C54.0063 16.6798 53.927 16.6752 53.8248 16.6681C53.7214 16.6606 53.641 16.6576 53.5875 16.6576C52.567 16.6576 52.0572 16.9366 52.0572 17.4929V21.5169C52.0572 21.7839 51.9642 21.9534 51.7804 22.0216C51.7047 22.0481 51.5123 22.0616 51.2014 22.0616C50.887 22.0616 50.727 21.8773 50.727 21.5104V17.4929C50.727 16.6273 51.1327 16.0412 51.9425 15.7327C52.4394 15.539 53.1759 15.4424 54.1535 15.4424C54.4866 15.4424 54.6517 15.6729 54.6517 16.1332H54.6528ZM63.3247 18.8668C63.3247 19.2672 63.1983 19.4669 62.9526 19.4669H56.3459V19.514C56.3459 20.1409 56.6822 20.5419 57.3551 20.7211C57.5002 20.7595 57.7132 20.7868 57.9927 20.8079C58.273 20.8288 58.6294 20.839 59.0596 20.839C59.3879 20.839 59.5494 21.0647 59.5494 21.5147C59.5494 21.88 59.3875 22.0616 59.0593 22.0616C58.6161 22.0616 58.25 22.0599 57.9669 22.0524C57.685 22.0451 57.4675 22.0332 57.3211 22.0142C56.5897 21.9314 56.0531 21.7431 55.7102 21.4485C55.2164 21.0304 54.9715 20.5365 54.9715 19.9721V17.5351C54.9715 16.7699 55.35 16.2047 56.104 15.8359C56.6216 15.5704 57.3065 15.4351 58.1585 15.4351H60.6407C61.3361 15.4351 61.913 15.5623 62.3722 15.8153C63.0067 16.1376 63.3223 16.6227 63.3223 17.2716V18.8668H63.3247V18.8668ZM62.0269 18.2054V17.3887C62.0269 16.8919 61.1256 16.6444 59.3245 16.6444C58.2628 16.6444 57.5327 16.6871 57.1387 16.7699C56.5797 16.8852 56.3007 17.1084 56.3007 17.4458V18.2054H62.0269V18.2054ZM65.4201 21.5169C65.4201 21.88 65.2562 22.0616 64.9303 22.0616C64.606 22.0616 64.4157 22.0451 64.3627 22.0142C64.1825 21.9414 64.0921 21.7734 64.0921 21.5169V14.1944C64.0921 13.8329 64.2542 13.6546 64.5819 13.6546C64.8895 13.6546 65.0808 13.6676 65.1563 13.6963C65.333 13.7604 65.4199 13.9276 65.4199 14.1944V21.5169H65.4201ZM74.5353 18.8668C74.5353 19.2672 74.4111 19.4669 74.164 19.4669H67.5572V19.514C67.5572 20.1409 67.8942 20.5419 68.5652 20.7211C68.7116 20.7595 68.9238 20.7868 69.2033 20.8079C69.4828 20.8288 69.8392 20.839 70.271 20.839C70.5974 20.839 70.7619 21.0647 70.7619 21.5147C70.7619 21.88 70.5974 22.0616 70.271 22.0616C69.8262 22.0616 69.46 22.0599 69.177 22.0524C68.8948 22.0451 68.6783 22.0332 68.5325 22.0142C67.8014 21.9314 67.2636 21.7431 66.9198 21.4485C66.4275 21.0304 66.1813 20.5365 66.1813 19.9721V17.5351C66.1813 16.7699 66.5599 16.2047 67.3143 15.8359C67.8327 15.5704 68.5168 15.4351 69.3686 15.4351H71.8507C72.5475 15.4351 73.125 15.5623 73.5828 15.8153C74.2189 16.1376 74.5339 16.6227 74.5339 17.2716V18.8668H74.5353ZM73.2367 18.2054V17.3887C73.2367 16.8919 72.3359 16.6444 70.5354 16.6444C69.472 16.6444 68.7441 16.6871 68.3499 16.7699C67.7914 16.8852 67.5126 17.1084 67.5126 17.4458V18.2054H73.2367ZM82.7228 20.1694C82.7228 21.4303 81.8458 22.0616 80.0897 22.0616H75.5949C75.2651 22.0616 75.1032 21.88 75.1032 21.5147C75.1032 21.0647 75.2648 20.839 75.5919 20.839H80.0962C80.9275 20.839 81.3423 20.6153 81.3423 20.1694V19.922C81.3423 19.5213 80.9629 19.3216 80.2104 19.3216H78.0481C76.0625 19.3216 75.068 18.7128 75.068 17.5V17.139C75.068 16.3362 75.5678 15.8199 76.566 15.5934C76.769 15.5441 77.0631 15.507 77.452 15.48C77.8389 15.4546 78.3276 15.4424 78.9188 15.4424C79.2487 15.4424 79.4126 15.6729 79.4126 16.1332C79.4126 16.4904 79.2487 16.6706 78.9186 16.6706H77.9607C77.4574 16.6706 77.1608 16.6771 77.0591 16.6911C76.6191 16.7553 76.3975 16.9054 76.3975 17.139V17.4856C76.3975 17.882 76.9489 18.079 78.0551 18.079H80.2556C81.9 18.079 82.7201 18.6757 82.7201 19.8671V20.1694H82.7228V20.1694ZM90.9128 20.1694C90.9128 21.4303 90.0347 22.0616 88.2797 22.0616H83.7836C83.4542 22.0616 83.2914 21.88 83.2914 21.5147C83.2914 21.0647 83.454 20.839 83.7814 20.839H88.2853C89.1161 20.839 89.5322 20.6153 89.5322 20.1694V19.922C89.5322 19.5213 89.1534 19.3216 88.3985 19.3216H86.2394C84.2503 19.3216 83.2581 18.7128 83.2581 17.5V17.139C83.2581 16.3362 83.7578 15.8199 84.7561 15.5934C84.959 15.5441 85.2529 15.507 85.6425 15.48C86.0287 15.4546 86.516 15.4424 87.1072 15.4424C87.4384 15.4424 87.6035 15.6729 87.6035 16.1332C87.6035 16.4904 87.4382 16.6706 87.107 16.6706H86.1498C85.649 16.6706 85.3492 16.6771 85.2477 16.6911C84.8085 16.7553 84.5864 16.9054 84.5864 17.139V17.4856C84.5864 17.882 85.139 18.079 86.2427 18.079H88.4472C90.0897 18.079 90.9112 18.6757 90.9112 19.8671V20.1694H90.9128V20.1694Z" fill="#202020"/>
<path d="M30.7018 24.412C27.3184 27.6274 20.2129 26.3086 14.4894 21.2983C8.55798 16.1057 6.35781 8.91554 9.57653 5.23905C12.7944 1.56275 20.2121 2.79204 26.144 7.98473C28.3553 9.92 30.0465 12.1329 31.1331 14.3374L32.5332 14.3307C31.1478 11.8447 29.1814 9.39345 26.6992 7.22056C19.0266 0.5042 9.36624 -1.00947 5.12203 3.83871C0.877556 8.68798 3.65649 18.0626 11.3289 24.7792C19.002 31.4958 28.6618 33.0096 32.9066 28.1611C33.5035 27.4789 33.9568 26.705 34.2818 25.8638L30.7018 24.412V24.412Z" fill="#202020"/>
</svg>
