<svg width="157" height="32" viewBox="0 0 157 32" fill="none" xmlns="http://www.w3.org/2000/svg">
<path d="M50.2647 23.1921H53.6932L53.2902 25.4777H52.5426L52.6581 24.8226H50.7153L50.5998 25.4777H49.8618L50.2647 23.1921V23.1921ZM50.8202 24.2282H52.7629L52.8408 23.7863H50.8981L50.8202 24.2282Z" fill="#424242"/>
<path d="M50.2647 23.1921H53.6932L53.2902 25.4777H52.5426L52.6581 24.8226H50.7153L50.5998 25.4777H49.8618L50.2647 23.1921V23.1921ZM50.8202 24.2282H52.7629L52.8408 23.7863H50.8981L50.8202 24.2282Z" fill="#424242" fill-opacity="0.18"/>
<path fill-rule="evenodd" clip-rule="evenodd" d="M55.0291 23.1921H54.2863L53.8834 25.4777H54.6262L55.0291 23.1921Z" fill="#424242"/>
<path fill-rule="evenodd" clip-rule="evenodd" d="M55.0291 23.1921H54.2863L53.8834 25.4777H54.6262L55.0291 23.1921Z" fill="#424242" fill-opacity="0.18"/>
<path d="M59.0509 23.1921L58.7667 24.8035H58.0239L58.4454 25.2759L58.4099 25.4777H57.6479L57.0573 24.8035L56.0757 24.8072C56.0853 24.8072 56.0887 24.8149 56.086 24.8301C56.0812 24.8301 56.0765 24.8301 56.0724 24.8264L55.9575 25.4777H55.2195L55.6226 23.1921H59.0509V23.1921ZM56.2564 23.7826L56.1812 24.2092H58.1239L58.1991 23.7826H56.2564Z" fill="#424242"/>
<path d="M59.0509 23.1921L58.7667 24.8035H58.0239L58.4454 25.2759L58.4099 25.4777H57.6479L57.0573 24.8035L56.0757 24.8072C56.0853 24.8072 56.0887 24.8149 56.086 24.8301C56.0812 24.8301 56.0765 24.8301 56.0724 24.8264L55.9575 25.4777H55.2195L55.6226 23.1921H59.0509V23.1921ZM56.2564 23.7826L56.1812 24.2092H58.1239L58.1991 23.7826H56.2564Z" fill="#424242" fill-opacity="0.18"/>
<path d="M63.0714 23.1958L62.9478 23.8968H62.2002L62.2197 23.7863H60.2769L60.2326 24.0378H62.9229L62.669 25.4777H59.2407L59.3648 24.7729H60.103L60.0835 24.8835H62.0262L62.0705 24.632H59.3898L59.6436 23.1921L63.0714 23.1958V23.1958Z" fill="#424242"/>
<path d="M63.0714 23.1958L62.9478 23.8968H62.2002L62.2197 23.7863H60.2769L60.2326 24.0378H62.9229L62.669 25.4777H59.2407L59.3648 24.7729H60.103L60.0835 24.8835H62.0262L62.0705 24.632H59.3898L59.6436 23.1921L63.0714 23.1958V23.1958Z" fill="#424242" fill-opacity="0.18"/>
<path d="M63.6685 23.1958L67.0976 23.1921L66.6945 25.4777H63.2662L63.6685 23.1958ZM64.3024 23.7863L64.109 24.8835H66.0517L66.2452 23.7863H64.3024Z" fill="#424242"/>
<path d="M63.6685 23.1958L67.0976 23.1921L66.6945 25.4777H63.2662L63.6685 23.1958ZM64.3024 23.7863L64.109 24.8835H66.0517L66.2452 23.7863H64.3024Z" fill="#424242" fill-opacity="0.18"/>
<path d="M67.6817 23.1921H70.8483L70.7435 23.7863H68.3245L68.2802 24.0378H70.2277L70.1229 24.632H68.1754L68.0262 25.4777H67.2786L67.6817 23.1921V23.1921Z" fill="#424242"/>
<path d="M67.6817 23.1921H70.8483L70.7435 23.7863H68.3245L68.2802 24.0378H70.2277L70.1229 24.632H68.1754L68.0262 25.4777H67.2786L67.6817 23.1921V23.1921Z" fill="#424242" fill-opacity="0.18"/>
<path d="M71.1429 23.1921H74.5712L74.4666 23.7863H73.1237L72.8255 25.4777H72.0827L72.3809 23.7863H71.0381L71.1429 23.1921Z" fill="#424242"/>
<path d="M71.1429 23.1921H74.5712L74.4666 23.7863H73.1237L72.8255 25.4777H72.0827L72.3809 23.7863H71.0381L71.1429 23.1921Z" fill="#424242" fill-opacity="0.18"/>
<path d="M81.0039 23.1878L80.8991 23.7819H78.4803L78.4358 24.0335H80.3834L80.2787 24.6276H78.3312L78.2868 24.8792H80.7057L80.601 25.4733H77.4344L77.8374 23.1878H81.0039V23.1878Z" fill="#424242"/>
<path d="M81.0039 23.1878L80.8991 23.7819H78.4803L78.4358 24.0335H80.3834L80.2787 24.6276H78.3312L78.2868 24.8792H80.7057L80.601 25.4733H77.4344L77.8374 23.1878H81.0039V23.1878Z" fill="#424242" fill-opacity="0.18"/>
<path d="M83.9956 24.7942L84.2777 23.1943H85.0253L84.6224 25.4798H83.6225L82.2154 23.8723L81.9321 25.4798H81.1939L81.597 23.1943H82.5969L83.9956 24.7942Z" fill="#424242"/>
<path d="M83.9956 24.7942L84.2777 23.1943H85.0253L84.6224 25.4798H83.6225L82.2154 23.8723L81.9321 25.4798H81.1939L81.597 23.1943H82.5969L83.9956 24.7942Z" fill="#424242" fill-opacity="0.18"/>
<path d="M89.0465 23.1943L88.9101 23.9675H88.1625L88.194 23.7884H86.2513L86.0578 24.8857H88.0006L88.0329 24.7028H87.2901L87.3949 24.1085H88.8853L88.6435 25.4798H85.215L85.6181 23.1943H89.0465V23.1943Z" fill="#424242"/>
<path d="M89.0465 23.1943L88.9101 23.9675H88.1625L88.194 23.7884H86.2513L86.0578 24.8857H88.0006L88.0329 24.7028H87.2901L87.3949 24.1085H88.8853L88.6435 25.4798H85.215L85.6181 23.1943H89.0465V23.1943Z" fill="#424242" fill-opacity="0.18"/>
<path fill-rule="evenodd" clip-rule="evenodd" d="M90.3827 23.1878H89.6399L89.2362 25.4772H89.979L90.3827 23.1878Z" fill="#424242"/>
<path fill-rule="evenodd" clip-rule="evenodd" d="M90.3827 23.1878H89.6399L89.2362 25.4772H89.979L90.3827 23.1878Z" fill="#424242" fill-opacity="0.18"/>
<path d="M93.3785 24.7942L93.6606 23.1943H94.4082L94.0051 25.4798H93.0052L91.5981 23.8723L91.3148 25.4798H90.5766L90.9797 23.1943H91.9796L93.3785 24.7942Z" fill="#424242"/>
<path d="M93.3785 24.7942L93.6606 23.1943H94.4082L94.0051 25.4798H93.0052L91.5981 23.8723L91.3148 25.4798H90.5766L90.9797 23.1943H91.9796L93.3785 24.7942Z" fill="#424242" fill-opacity="0.18"/>
<path d="M98.1631 23.1878L98.0583 23.7819H95.6393L95.595 24.0335H97.5425L97.4377 24.6276H95.4902L95.4459 24.8792H97.8648L97.76 25.4733H94.5934L94.9965 23.1878H98.1631V23.1878Z" fill="#424242"/>
<path d="M98.1631 23.1878L98.0583 23.7819H95.6393L95.595 24.0335H97.5425L97.4377 24.6276H95.4902L95.4459 24.8792H97.8648L97.76 25.4733H94.5934L94.9965 23.1878H98.1631V23.1878Z" fill="#424242" fill-opacity="0.18"/>
<path d="M101.922 23.1878L101.818 23.7819H99.3987L99.3544 24.0335H101.302L101.197 24.6276H99.2496L99.2053 24.8792H101.624L101.519 25.4733H98.3528L98.7559 23.1878H101.922V23.1878Z" fill="#424242"/>
<path d="M101.922 23.1878L101.818 23.7819H99.3987L99.3544 24.0335H101.302L101.197 24.6276H99.2496L99.2053 24.8792H101.624L101.519 25.4733H98.3528L98.7559 23.1878H101.922V23.1878Z" fill="#424242" fill-opacity="0.18"/>
<path d="M105.948 23.1878L105.664 24.7992H104.921L105.343 25.2716L105.307 25.4733H104.545L103.955 24.7992L102.973 24.8029C102.982 24.8029 102.986 24.8105 102.983 24.8257C102.978 24.8257 102.974 24.8257 102.97 24.8221L102.855 25.4733H102.117L102.52 23.1878H105.948V23.1878ZM103.154 23.7782L103.078 24.2049H105.021L105.096 23.7782H103.154Z" fill="#424242"/>
<path d="M105.948 23.1878L105.664 24.7992H104.921L105.343 25.2716L105.307 25.4733H104.545L103.955 24.7992L102.973 24.8029C102.982 24.8029 102.986 24.8105 102.983 24.8257C102.978 24.8257 102.974 24.8257 102.97 24.8221L102.855 25.4733H102.117L102.52 23.1878H105.948V23.1878ZM103.154 23.7782L103.078 24.2049H105.021L105.096 23.7782H103.154Z" fill="#424242" fill-opacity="0.18"/>
<path fill-rule="evenodd" clip-rule="evenodd" d="M107.284 23.1878H106.542L106.138 25.4772H106.881L107.284 23.1878Z" fill="#424242"/>
<path fill-rule="evenodd" clip-rule="evenodd" d="M107.284 23.1878H106.542L106.138 25.4772H106.881L107.284 23.1878Z" fill="#424242" fill-opacity="0.18"/>
<path d="M110.275 24.794L110.558 23.1941H111.305L110.902 25.4797H109.902L108.495 23.8721L108.212 25.4797H107.474L107.877 23.1941H108.877L110.275 24.794Z" fill="#424242"/>
<path d="M110.275 24.794L110.558 23.1941H111.305L110.902 25.4797H109.902L108.495 23.8721L108.212 25.4797H107.474L107.877 23.1941H108.877L110.275 24.794Z" fill="#424242" fill-opacity="0.18"/>
<path d="M115.331 23.1943L115.194 23.9675H114.447L114.478 23.7884H112.536L112.342 24.8857H114.285L114.317 24.7028H113.574L113.679 24.1085H115.17L114.928 25.4798H111.499L111.902 23.1943H115.331V23.1943Z" fill="#424242"/>
<path d="M115.331 23.1943L115.194 23.9675H114.447L114.478 23.7884H112.536L112.342 24.8857H114.285L114.317 24.7028H113.574L113.679 24.1085H115.17L114.928 25.4798H111.499L111.902 23.1943H115.331V23.1943Z" fill="#424242" fill-opacity="0.18"/>
<path d="M121.687 25.1389L122.189 25.398L122.083 26L121.47 25.6952L121.414 25.9314H118.186L118.464 24.3542H118.635L118.841 23.1886H121.903L121.763 23.9809H121.035L121.07 23.7791H119.465L119.393 24.1905L121.003 24.8875L121.067 24.5257H121.796L121.687 25.1389V25.1389ZM120.128 25.1505L119.129 24.7162L119.017 25.3486H120.589C120.544 25.3295 120.47 25.2951 120.367 25.2534C120.265 25.2114 120.186 25.177 120.128 25.1505Z" fill="#424242"/>
<path d="M121.687 25.1389L122.189 25.398L122.083 26L121.47 25.6952L121.414 25.9314H118.186L118.464 24.3542H118.635L118.841 23.1886H121.903L121.763 23.9809H121.035L121.07 23.7791H119.465L119.393 24.1905L121.003 24.8875L121.067 24.5257H121.796L121.687 25.1389V25.1389ZM120.128 25.1505L119.129 24.7162L119.017 25.3486H120.589C120.544 25.3295 120.47 25.2951 120.367 25.2534C120.265 25.2114 120.186 25.177 120.128 25.1505Z" fill="#424242" fill-opacity="0.18"/>
<path d="M127.18 24.3006L128.532 23.1921H129.299L128.895 25.4815H128.152L128.397 24.0949L127.017 25.2224L126.03 24.0988L125.786 25.4815H125.048L125.451 23.1921H126.213L127.18 24.3006V24.3006Z" fill="#424242"/>
<path d="M127.18 24.3006L128.532 23.1921H129.299L128.895 25.4815H128.152L128.397 24.0949L127.017 25.2224L126.03 24.0988L125.786 25.4815H125.048L125.451 23.1921H126.213L127.18 24.3006V24.3006Z" fill="#424242" fill-opacity="0.18"/>
<path d="M129.887 23.1878H133.315L132.913 25.4733H132.165L132.28 24.8182H130.338L130.222 25.4733H129.484L129.887 23.1878V23.1878ZM130.442 24.2239H132.385L132.463 23.7819H130.52L130.442 24.2239Z" fill="#424242"/>
<path d="M129.887 23.1878H133.315L132.913 25.4733H132.165L132.28 24.8182H130.338L130.222 25.4733H129.484L129.887 23.1878V23.1878ZM130.442 24.2239H132.385L132.463 23.7819H130.52L130.442 24.2239Z" fill="#424242" fill-opacity="0.18"/>
<path d="M137.227 23.7819H134.546L134.352 24.8792H137.033L136.928 25.4733H133.51L133.913 23.1878H137.332L137.227 23.7819V23.7819Z" fill="#424242"/>
<path d="M137.227 23.7819H134.546L134.352 24.8792H137.033L136.928 25.4733H133.51L133.913 23.1878H137.332L137.227 23.7819V23.7819Z" fill="#424242" fill-opacity="0.18"/>
<path d="M140.687 23.1943H141.425L141.022 25.4798H140.284L140.433 24.6341H138.409L138.26 25.4798H137.522L137.925 23.1943H138.663L138.514 24.04H140.538L140.687 23.1943Z" fill="#424242"/>
<path d="M140.687 23.1943H141.425L141.022 25.4798H140.284L140.433 24.6341H138.409L138.26 25.4798H137.522L137.925 23.1943H138.663L138.514 24.04H140.538L140.687 23.1943Z" fill="#424242" fill-opacity="0.18"/>
<path fill-rule="evenodd" clip-rule="evenodd" d="M142.76 23.1878H142.017L141.613 25.4772H142.356L142.76 23.1878Z" fill="#424242"/>
<path fill-rule="evenodd" clip-rule="evenodd" d="M142.76 23.1878H142.017L141.613 25.4772H142.356L142.76 23.1878Z" fill="#424242" fill-opacity="0.18"/>
<path d="M145.751 24.7942L146.033 23.1943H146.781L146.378 25.4798H145.378L143.971 23.8723L143.688 25.4798H142.949L143.353 23.1943H144.352L145.751 24.7942Z" fill="#424242"/>
<path d="M145.751 24.7942L146.033 23.1943H146.781L146.378 25.4798H145.378L143.971 23.8723L143.688 25.4798H142.949L143.353 23.1943H144.352L145.751 24.7942Z" fill="#424242" fill-opacity="0.18"/>
<path fill-rule="evenodd" clip-rule="evenodd" d="M148.121 23.1878H147.379L146.975 25.4772H147.718L148.121 23.1878Z" fill="#424242"/>
<path fill-rule="evenodd" clip-rule="evenodd" d="M148.121 23.1878H147.379L146.975 25.4772H147.718L148.121 23.1878Z" fill="#424242" fill-opacity="0.18"/>
<path d="M151.113 24.7942L151.395 23.1943H152.142L151.739 25.4798H150.739L149.332 23.8723L149.049 25.4798H148.311L148.714 23.1943H149.714L151.113 24.7942V24.7942Z" fill="#424242"/>
<path d="M151.113 24.7942L151.395 23.1943H152.142L151.739 25.4798H150.739L149.332 23.8723L149.049 25.4798H148.311L148.714 23.1943H149.714L151.113 24.7942V24.7942Z" fill="#424242" fill-opacity="0.18"/>
<path d="M156.164 23.1943L156.027 23.9675H155.28L155.311 23.7884H153.369L153.175 24.8857H155.118L155.15 24.7028H154.407L154.512 24.1085H156.002L155.761 25.4798H152.332L152.735 23.1943H156.164V23.1943Z" fill="#424242"/>
<path d="M156.164 23.1943L156.027 23.9675H155.28L155.311 23.7884H153.369L153.175 24.8857H155.118L155.15 24.7028H154.407L154.512 24.1085H156.002L155.761 25.4798H152.332L152.735 23.1943H156.164V23.1943Z" fill="#424242" fill-opacity="0.18"/>
<path d="M11.9524 13.1587L19.4668 7H23.7257L21.3748 20.3333H17.248L18.7145 12.0158L11.0494 18.2804L5.56312 12.0371L4.10041 20.3333H0L2.35096 7H6.58354L11.9524 13.1587V13.1587Z" fill="#424242"/>
<path d="M11.9524 13.1587L19.4668 7H23.7257L21.3748 20.3333H17.248L18.7145 12.0158L11.0494 18.2804L5.56312 12.0371L4.10041 20.3333H0L2.35096 7H6.58354L11.9524 13.1587V13.1587Z" fill="#424242" fill-opacity="0.18"/>
<path d="M27.9117 17.3302H27.9097L27.3798 20.3355H23.2809L24.7921 11.7642L28.153 8.90709H42.4381L40.423 20.3355H36.269L36.7988 17.3302H28.6716L29.2537 14.0288H37.3809L37.7056 12.1875H28.8164L28.4919 14.0288H28.4936L27.9117 17.3302V17.3302Z" fill="#424242"/>
<path d="M27.9117 17.3302H27.9097L27.3798 20.3355H23.2809L24.7921 11.7642L28.153 8.90709H42.4381L40.423 20.3355H36.269L36.7988 17.3302H28.6716L29.2537 14.0288H37.3809L37.7056 12.1875H28.8164L28.4919 14.0288H28.4936L27.9117 17.3302V17.3302Z" fill="#424242" fill-opacity="0.18"/>
<path d="M57.7805 17.1609L59.2358 8.90709H63.389L61.374 20.3355H55.1837L47.8902 12.0393L46.4275 20.3355H42.3271L44.3422 8.90709H50.5854L57.7805 17.1609V17.1609Z" fill="#424242"/>
<path d="M57.7805 17.1609L59.2358 8.90709H63.389L61.374 20.3355H55.1837L47.8902 12.0393L46.4275 20.3355H42.3271L44.3422 8.90709H50.5854L57.7805 17.1609V17.1609Z" fill="#424242" fill-opacity="0.18"/>
<path d="M101.425 8.90709L100.467 14.346L97.1052 17.2031H95.8366L97.6309 19.2138L97.4347 20.3355H93.2007L90.4655 17.2031L86.9189 17.2169L86.3685 20.3355H82.2697L83.4029 13.9016H96.3928L96.69 12.2086H68.8074L67.9578 17.0338H80.9459L80.365 20.3355H63.2742L64.7865 11.7642L68.1463 8.90709H101.425V8.90709Z" fill="#424242"/>
<path d="M101.425 8.90709L100.467 14.346L97.1052 17.2031H95.8366L97.6309 19.2138L97.4347 20.3355H93.2007L90.4655 17.2031L86.9189 17.2169L86.3685 20.3355H82.2697L83.4029 13.9016H96.3928L96.69 12.2086H68.8074L67.9578 17.0338H80.9459L80.365 20.3355H63.2742L64.7865 11.7642L68.1463 8.90709H101.425V8.90709Z" fill="#424242" fill-opacity="0.18"/>
<path d="M105.948 17.3302H105.946L105.416 20.3355H101.317L102.828 11.7642L106.189 8.90709H120.474L118.459 20.3355H114.305L114.835 17.3302H106.708L107.29 14.0288H115.417L115.742 12.1875H106.853L106.528 14.0288H106.53L105.948 17.3302V17.3302Z" fill="#424242"/>
<path d="M105.948 17.3302H105.946L105.416 20.3355H101.317L102.828 11.7642L106.189 8.90709H120.474L118.459 20.3355H114.305L114.835 17.3302H106.708L107.29 14.0288H115.417L115.742 12.1875H106.853L106.528 14.0288H106.53L105.948 17.3302V17.3302Z" fill="#424242" fill-opacity="0.18"/>
<path d="M125.952 12.2086L124.52 20.3355H120.367L121.879 11.7642L125.239 8.90709H138.069L137.487 12.2086H125.952V12.2086ZM126.392 14.0288H133.403L132.82 17.3302H125.809L126.392 14.0288Z" fill="#424242"/>
<path d="M125.952 12.2086L124.52 20.3355H120.367L121.879 11.7642L125.239 8.90709H138.069L137.487 12.2086H125.952V12.2086ZM126.392 14.0288H133.403L132.82 17.3302H125.809L126.392 14.0288Z" fill="#424242" fill-opacity="0.18"/>
<path d="M139.022 8.90709H156.165L155.583 12.2086H149.075L147.642 20.3354H143.515L144.948 12.2086H138.44L139.022 8.90709V8.90709Z" fill="#424242"/>
<path d="M139.022 8.90709H156.165L155.583 12.2086H149.075L147.642 20.3354H143.515L144.948 12.2086H138.44L139.022 8.90709V8.90709Z" fill="#424242"/>
</svg>
