<svg width="226" height="61" viewBox="0 0 226 61" fill="none" xmlns="http://www.w3.org/2000/svg">
<path d="M73.0431 56.5718H77.995L77.4128 59.8728H76.3331L76.4999 58.9266H73.694L73.5271 59.8728H72.4612L73.0431 56.5718V56.5718ZM73.8453 58.0683H76.6513L76.7639 57.4299H73.9579L73.8453 58.0683Z" fill="black"/>
<path fill-rule="evenodd" clip-rule="evenodd" d="M79.9253 56.5718H78.8525L78.2705 59.8728H79.3433L79.9253 56.5718Z" fill="black"/>
<path d="M85.735 56.5718L85.3245 58.8991H84.2517L84.8605 59.5814L84.8091 59.8728H83.7086L82.8555 58.8991L81.4379 58.9044C81.4517 58.9044 81.4566 58.9155 81.4527 58.9375C81.4457 58.9375 81.439 58.9375 81.433 58.9322L81.2671 59.8728H80.2012L80.7834 56.5718H85.735V56.5718ZM81.6988 57.4246L81.5902 58.0408H84.3961L84.5048 57.4246H81.6988Z" fill="black"/>
<path d="M91.54 56.5771L91.3613 57.5896H90.2816L90.3098 57.4299H87.5038L87.4398 57.7932H91.3255L90.9587 59.8728H86.0071L86.1864 58.855H87.2526L87.2244 59.0147H90.0303L90.0944 58.6514H86.2225L86.589 56.5718L91.54 56.5771V56.5771Z" fill="black"/>
<path d="M92.3972 56.5771L97.35 56.5718L96.7678 59.8728H91.8162L92.3972 56.5771ZM93.3129 57.4299L93.0334 59.0147H95.8394L96.1188 57.4299H93.3129Z" fill="black"/>
<path d="M98.2072 56.5718H102.781L102.629 57.4299H99.1356L99.0716 57.7932H101.884L101.733 58.6514H98.9202L98.7048 59.8728H97.625L98.2072 56.5718V56.5718Z" fill="black"/>
<path d="M103.207 56.5718H108.158L108.007 57.4299H106.068L105.637 59.8728H104.564L104.995 57.4299H103.055L103.207 56.5718Z" fill="black"/>
<path d="M117.442 56.5718L117.29 57.4299H113.797L113.732 57.7932H116.545L116.394 58.6514H113.581L113.517 59.0147H117.011L116.86 59.8728H112.286L112.868 56.5718H117.442V56.5718Z" fill="black"/>
<path d="M121.764 58.8876L122.171 56.5769H123.251L122.669 59.8779H121.225L119.192 57.5561L118.783 59.8779H117.717L118.299 56.5769H119.743L121.764 58.8876Z" fill="black"/>
<path d="M129.061 56.5769L128.864 57.6937H127.784L127.83 57.435H125.024L124.744 59.0198H127.55L127.597 58.7556H126.524L126.676 57.8973H128.828L128.479 59.8779H123.527L124.109 56.5769H129.061V56.5769Z" fill="black"/>
<path fill-rule="evenodd" clip-rule="evenodd" d="M130.992 56.5718H129.919L129.336 59.8783H130.409L130.992 56.5718Z" fill="black"/>
<path d="M135.314 58.8876L135.722 56.5769H136.802L136.219 59.8779H134.775L132.743 57.5561L132.334 59.8779H131.268L131.85 56.5769H133.294L135.314 58.8876Z" fill="black"/>
<path d="M142.233 56.5718L142.081 57.4299H138.587L138.523 57.7932H141.336L141.185 58.6514H138.372L138.308 59.0147H141.802L141.65 59.8728H137.077L137.659 56.5718H142.233V56.5718Z" fill="black"/>
<path d="M147.664 56.5718L147.513 57.4299H144.019L143.955 57.7932H146.768L146.616 58.6514H143.803L143.739 59.0147H147.233L147.082 59.8728H142.508L143.09 56.5718H147.664V56.5718Z" fill="black"/>
<path d="M153.472 56.5718L153.062 58.8991H151.989L152.598 59.5814L152.546 59.8728H151.446L150.593 58.8991L149.175 58.9044C149.189 58.9044 149.194 58.9155 149.19 58.9375C149.183 58.9375 149.176 58.9375 149.17 58.9322L149.004 59.8728H147.938L148.52 56.5718H153.472V56.5718ZM149.436 57.4246L149.327 58.0408H152.133L152.242 57.4246H149.436Z" fill="black"/>
<path fill-rule="evenodd" clip-rule="evenodd" d="M155.404 56.5718H154.331L153.748 59.8783H154.821L155.404 56.5718Z" fill="black"/>
<path d="M159.725 58.8876L160.133 56.5769H161.213L160.63 59.8779H159.186L157.154 57.5561L156.745 59.8779H155.679L156.261 56.5769H157.705L159.725 58.8876Z" fill="black"/>
<path d="M167.022 56.5769L166.825 57.6937H165.745L165.791 57.435H162.985L162.706 59.0198H165.512L165.558 58.7556H164.485L164.637 57.8973H166.789L166.44 59.8779H161.488L162.07 56.5769H167.022V56.5769Z" fill="black"/>
<path d="M176.206 59.3886L176.931 59.7628L176.778 60.6322L175.893 60.192L175.812 60.5331H171.149L171.551 58.2552H171.798L172.095 56.5718H176.517L176.316 57.716H175.263L175.315 57.4246H172.997L172.892 58.0188L175.218 59.0255L175.31 58.503H176.362L176.206 59.3886V59.3886ZM173.954 59.4053L172.511 58.778L172.35 59.6914H174.619C174.555 59.6639 174.447 59.6142 174.299 59.5539C174.152 59.4933 174.037 59.4436 173.954 59.4053Z" fill="black"/>
<path d="M184.13 58.1727L186.083 56.5718H187.191L186.607 59.8783H185.535L185.888 57.8757L183.895 59.5042L182.469 57.8813L182.116 59.8783H181.051L181.633 56.5718H182.734L184.13 58.1727V58.1727Z" fill="black"/>
<path d="M188.048 56.5718H192.999L192.417 59.8728H191.338L191.505 58.9266H188.699L188.532 59.8728H187.466L188.048 56.5718V56.5718ZM188.85 58.0683H191.656L191.768 57.4299H188.962L188.85 58.0683Z" fill="black"/>
<path d="M198.645 57.4299H194.773L194.493 59.0147H198.366L198.214 59.8728H193.276L193.858 56.5718H198.796L198.645 57.4299V57.4299Z" fill="black"/>
<path d="M203.642 56.5769H204.708L204.126 59.8779H203.06L203.275 58.6565H200.352L200.137 59.8779H199.071L199.653 56.5769H200.719L200.503 57.7984H203.426L203.642 56.5769Z" fill="black"/>
<path fill-rule="evenodd" clip-rule="evenodd" d="M206.639 56.5718H205.566L204.983 59.8783H206.056L206.639 56.5718Z" fill="black"/>
<path d="M210.961 58.8876L211.368 56.5769H212.448L211.866 59.8779H210.422L208.389 57.5561L207.98 59.8779H206.914L207.496 56.5769H208.94L210.961 58.8876Z" fill="black"/>
<path fill-rule="evenodd" clip-rule="evenodd" d="M214.379 56.5718H213.306L212.723 59.8783H213.796L214.379 56.5718Z" fill="black"/>
<path d="M218.701 58.8876L219.108 56.5769H220.188L219.606 59.8779H218.162L216.13 57.5561L215.72 59.8779H214.654L215.236 56.5769H216.68L218.701 58.8876V58.8876Z" fill="black"/>
<path d="M225.998 56.5769L225.801 57.6937H224.721L224.767 57.435H221.961L221.681 59.0198H224.487L224.534 58.7556H223.461L223.612 57.8973H225.765L225.415 59.8779H220.464L221.046 56.5769H225.998V56.5769Z" fill="black"/>
<path d="M17.7129 42.0839L28.5661 33.189H34.7174L31.3219 52.4462H25.3614L27.4796 40.4333L16.4087 49.4812L8.48467 40.464L6.37204 52.4462H0.449707L3.84526 33.189H9.95849L17.7129 42.0839V42.0839Z" fill="black"/>
<path d="M40.7632 48.1086H40.7604L39.995 52.4491H34.075L36.2576 40.0697L41.1117 35.9431H61.7441L58.8337 52.4491H52.8339L53.5991 48.1086H41.8608L42.7016 43.3404H54.4399L54.9089 40.681H42.0699L41.6012 43.3404H41.6038L40.7632 48.1086V48.1086Z" fill="black"/>
<path d="M83.9023 47.8641L86.0043 35.9431H92.0029L89.0924 52.4491H80.1517L69.6175 40.467L67.5049 52.4491H61.5825L64.493 35.9431H73.5101L83.9023 47.8641V47.8641Z" fill="black"/>
<path d="M146.946 35.9431L145.562 43.7985L140.707 47.9251H138.874L141.466 50.829L141.182 52.4491H135.067L131.117 47.9251L125.994 47.9449L125.199 52.4491H119.279L120.916 43.1567H139.678L140.107 40.7115H99.8352L98.6083 47.6805H117.367L116.528 52.4491H91.8435L94.0278 40.0697L98.8805 35.9431H146.946V35.9431Z" fill="black"/>
<path d="M153.476 48.1086H153.474L152.708 52.4491H146.788L148.971 40.0697L153.825 35.9431H174.457L171.547 52.4491H165.547L166.312 48.1086H154.574L155.415 43.3404H167.153L167.622 40.681H154.783L154.314 43.3404H154.317L153.476 48.1086V48.1086Z" fill="black"/>
<path d="M182.364 40.7115L180.294 52.4491H174.297L176.48 40.0697L181.334 35.9431H199.865L199.024 40.7115H182.364V40.7115ZM182.998 43.3404H193.124L192.284 48.1086H182.157L182.998 43.3404Z" fill="black"/>
<path d="M201.24 35.9431H225.999L225.158 40.7115H215.759L213.689 52.4489H207.729L209.799 40.7115H200.399L201.24 35.9431V35.9431Z" fill="black"/>
<path d="M134.207 0.603516L127.516 5.31804H101.805L98.9312 21.6151H124.642L117.952 26.332H92.2397L96.0319 4.82715L102.058 0.603516H134.207V0.603516Z" fill="black"/>
<path d="M113.969 13.8609L122.436 6.92188H127.235L124.926 20.0132H120.276L121.588 12.5733L112.952 19.6316L106.77 12.5971L105.462 20.0132H100.842L103.15 6.92188H107.919L113.969 13.8609V13.8609Z" fill="black"/>
</svg>
