<svg width="169" height="31" viewBox="0 0 169 31" fill="none" xmlns="http://www.w3.org/2000/svg">
<path d="M128.743 0.278076C127.911 0.278076 127.234 0.955381 127.234 1.78796V28.7843C127.234 29.6172 127.911 30.2942 128.743 30.2942C129.576 30.2942 130.254 29.6172 130.254 28.7843V1.78796C130.254 0.955381 129.576 0.278076 128.743 0.278076V0.278076Z" fill="black"/>
<path d="M105.64 24.8056L94.5684 1.22904C94.268 0.467589 93.3914 0.0867768 92.6155 0.391152C91.8419 0.695528 91.4596 1.57404 91.7629 2.34903C91.7629 2.34903 101.029 22.4697 104.235 29.3337C104.478 29.8544 105.027 30.1953 105.641 30.1953C106.255 30.1948 106.803 29.8544 107.046 29.3337C110.092 22.8147 119.519 2.34903 119.519 2.34903C119.822 1.57404 119.44 0.695528 118.666 0.391495C117.889 0.0867766 117.013 0.467589 116.713 1.22904L105.641 24.8056H105.64Z" fill="black"/>
<path d="M79.1704 5.67595L68.0975 29.2519C67.7976 30.0133 66.921 30.3943 66.1444 30.0899C65.371 29.7855 64.9886 28.9069 65.2925 28.132C65.2925 28.132 74.559 8.01172 77.765 1.14716C78.0079 0.626499 78.556 0.286133 79.1704 0.286133C79.7841 0.286133 80.3322 0.626499 80.5755 1.14716C83.6213 7.6669 93.0481 28.132 93.0481 28.132C93.3516 28.9069 92.9696 29.7855 92.1951 30.0899C91.4191 30.3943 90.543 30.0133 90.2427 29.2519L79.1704 5.67595V5.67595Z" fill="black"/>
<path d="M153.518 27.3329C146.876 27.3329 141.472 21.9282 141.472 15.2859C141.472 8.64309 146.876 3.23837 153.518 3.23837C160.161 3.23837 165.565 8.64309 165.565 15.2859C165.565 21.9282 160.161 27.3329 153.518 27.3329ZM153.518 0.278076C145.243 0.278076 138.511 7.0105 138.511 15.2859C138.511 23.5613 145.243 30.2937 153.518 30.2937C161.794 30.2937 168.526 23.5613 168.526 15.2859C168.526 7.0105 161.794 0.278076 153.518 0.278076V0.278076Z" fill="black"/>
<path d="M15.9177 27.3331C9.27539 27.3331 3.87118 21.9284 3.87118 15.2861C3.87118 8.64334 9.27539 3.23861 15.9177 3.23861C22.5605 3.23861 27.9654 8.64334 27.9654 15.2861C27.9654 21.9284 22.5605 27.3331 15.9177 27.3331ZM15.9177 0.27832C7.6428 0.27832 0.910889 7.01075 0.910889 15.2861C0.910889 23.5615 7.6428 30.2939 15.9177 30.2939C24.193 30.2939 30.9255 23.5615 30.9255 15.2861C30.9255 7.01075 24.193 0.27832 15.9177 0.27832V0.27832Z" fill="black"/>
<path d="M56.7735 7.59362C55.9841 3.43947 52.3249 0.288086 47.9445 0.288086H36.8276C36.0131 0.288086 35.3508 0.950823 35.3508 1.7654C35.3508 2.5805 36.0131 3.24272 36.8276 3.24272H47.9445C51.2707 3.24272 53.9765 5.9492 53.9765 9.27471C53.9765 12.6009 51.2707 15.3063 47.9445 15.3063H40.5933C39.4758 15.3063 38.9111 16.0517 38.9111 16.9343C38.9111 17.4135 39.1204 17.8661 39.499 18.188L54.3986 29.9476C54.6634 30.1654 54.9963 30.285 55.3352 30.285C56.1507 30.285 56.8146 29.6213 56.8146 28.8051C56.8146 28.3386 56.6009 27.9086 56.2353 27.6322L44.3676 18.261H47.9445C52.8992 18.261 56.9312 14.2301 56.9312 9.27471C56.9312 8.70057 56.8772 8.13844 56.7735 7.59362V7.59362Z" fill="black"/>
</svg>
