<svg width="191" height="30" viewBox="0 0 191 30" fill="none" xmlns="http://www.w3.org/2000/svg">
<path d="M191 29.1262C190.595 22.3084 189.377 15.957 187.348 10.9451C184.565 4.06841 180.565 0.222432 176.044 0.222432C171.522 0.222432 167.522 4.06841 164.739 10.9451C162.769 15.957 161.493 22.3084 161.088 29.1262H167.058C167.87 15.0239 172.46 6.16637 176.044 6.16637C179.627 6.16637 184.218 15.0239 185.087 29.1262H191ZM136.014 8.13205C136.014 6.20413 138.647 5.60899 145.024 5.6672C149.603 5.72541 153.927 6.36464 157.637 6.94743V1.31358C152.129 0.614727 147.728 0.206563 144.018 0.206563C136.888 0.206563 130.1 2.07134 130.1 7.7821C130.1 15.0666 136.765 15.6868 143.506 17.4425C148.639 18.7792 152.71 19.2036 152.71 21.6519C152.71 23.6864 149.985 24.1569 143.782 24.1569C140.535 24.1569 136.767 23.8077 130.622 22.8746V28.6584C136.479 29.5156 140.999 29.927 144.478 29.927C154.507 29.927 158.622 27.1294 158.622 22.2925C158.622 15.0666 151.604 13.9381 145.395 12.4042C139.19 10.8707 136.014 10.5796 136.014 8.13205ZM125.833 15.2571C125.833 11.5857 125.427 6.92379 124.615 0.804868H118.644C119.514 7.15662 120.073 11.1194 120.073 14.499C120.073 21.0839 119.804 24.2307 118.006 24.2307C115.514 24.2307 114.065 19.3359 112.499 14.1497C110.47 7.56443 107.746 0.280288 100.963 0.280288C95.1661 0.280288 93.6009 6.86523 93.6009 14.3247C93.6009 18.2285 94.0066 23.1233 94.7604 29.1255H100.731C100.152 24.9884 99.5139 19.9773 99.5139 15.1985C99.4556 8.14723 100.152 6.04961 101.369 6.04961C103.862 6.04961 105.311 11.003 106.876 16.1306C108.905 22.7155 111.63 30 118.47 30C123.282 30 125.833 25.8044 125.833 15.2571ZM83.7858 29.1262H89.6984C89.2931 22.3084 88.0753 15.957 86.0462 10.9451C83.2632 4.06841 79.2632 0.222432 74.742 0.222432C70.2198 0.222432 66.2198 4.06841 63.4379 10.9451C61.4666 15.957 60.1909 22.3084 59.7849 29.1262H65.7565C66.5679 15.0239 71.1589 6.16637 74.742 6.16637C78.3255 6.16637 82.9158 15.0239 83.7858 29.1262ZM59.9263 10.0684C59.9263 3.25067 50.8254 -0.88705 38.4196 0.161756C31.869 0.686688 29.9107 4.70729 29.9107 14.0312C29.9107 15.0648 29.9409 16.2001 29.9981 17.4066C20.6585 16.8636 11.2182 14.0986 3.04196 9.65217L0 14.5466C8.61946 19.3902 18.2426 22.4442 30.394 22.8774C30.5891 24.9334 30.8368 27.0501 31.1285 29.1262H37.1439C36.8242 27.1735 36.5582 24.9775 36.3533 22.8594C49.4578 22.2131 59.9263 17.2358 59.9263 10.0684ZM54.2853 9.83561C54.2853 13.211 47.3276 16.954 35.9483 17.4507C35.896 16.4153 35.869 15.522 35.869 14.8468C35.869 9.31103 36.2838 6.20941 38.6256 5.83794C45.2774 4.78208 54.2853 6.43766 54.2853 9.83561Z" fill="black"/>
</svg>
