<svg width="200" height="45" viewBox="0 0 200 45" fill="none" xmlns="http://www.w3.org/2000/svg">
<path d="M16.5105 21.0324C13.2938 19.1452 10.077 17.258 6.86023 15.3709C11.11 12.9133 15.3597 10.4557 19.6094 7.99815C22.7857 9.86334 25.962 11.7286 29.1383 13.5938L35.6685 9.74698L18.6618 0.000946045L0.0606813 11.5033C0.0404544 14.0817 0.0202269 16.6601 0 19.2384C3.29157 21.1395 6.58313 23.0404 9.8746 24.9414L16.5105 21.0324Z" fill="#202020"/>
<path d="M18.8126 23.975C22.1866 25.9545 25.5607 27.9339 28.9347 29.9133C24.7633 32.3255 20.5918 34.7379 16.4204 37.1502C13.0863 35.1922 9.7521 33.2342 6.4179 31.2763L0 35.0569L17.3506 45L35.609 33.7097C35.6288 31.1788 35.6487 28.6478 35.6685 26.117C32.2194 24.1249 28.7703 22.133 25.3212 20.141L18.8126 23.975Z" fill="#202020"/>
<path d="M25.3445 20.14L18.8359 23.9739C22.2011 25.9481 25.5662 27.9223 28.9313 29.8965L35.5189 26.016C32.1275 24.0573 28.736 22.0986 25.3445 20.14Z" fill="#202020"/>
<path d="M185.854 27.3481V16.3528H196.841V21.0821L199.995 17.0676L199.988 16.9162C199.923 15.671 199.67 14.8066 199.213 14.2727C198.67 13.6406 197.683 13.3198 196.28 13.3198H186.415C184.975 13.3198 184.006 13.6351 183.451 14.2852C182.921 14.9121 182.664 15.9906 182.664 17.5826V26.1687C182.664 27.7605 182.921 28.8392 183.453 29.4693C184.004 30.114 184.973 30.4277 186.415 30.4277H189.493L191.914 27.3481H185.854Z" fill="#202020"/>
<path d="M196.841 22.6602V27.3484H193.155L190.734 30.4277H196.28C197.702 30.4277 198.661 30.1192 199.212 29.4835C199.744 28.8662 200.002 27.7819 200.002 26.1687V18.6373L196.841 22.6602Z" fill="#202020"/>
<path d="M138.781 11.9444L138.787 31.1309H141.787L141.793 19.1215L145.96 23.4025L147.783 21.0818L138.781 11.9444Z" fill="#202020"/>
<path d="M152.355 14.0308V25.7282L148.473 21.7855L146.648 24.1077L155.36 33.0566V14.023H152.764L152.355 14.0308Z" fill="#202020"/>
<path d="M96.7016 28.2053H92.987V12.8164H89.8281V31.041H94.5253L96.7016 28.2053Z" fill="#202020"/>
<path d="M95.8438 31.041H103.587V28.2053H98.02L95.8438 31.041Z" fill="#202020"/>
<path d="M115.928 28.2053H112.214V12.8164H109.055V31.041H113.752L115.928 28.2053Z" fill="#202020"/>
<path d="M115.07 31.041H122.814V28.2053H117.247L115.07 31.041Z" fill="#202020"/>
<path d="M128.281 21.8935V31.041H131.44V17.7777L128.281 21.8935Z" fill="#202020"/>
<path d="M131.44 16.0561V12.8156H128.281V20.1719L131.44 16.0561Z" fill="#202020"/>
<path d="M83.2292 15.916V12.8486L80.875 15.916H83.2292Z" fill="#202020"/>
<path d="M78.4255 23.0898V19.9917H77.745L75.3672 23.0898H78.4255Z" fill="#202020"/>
<path d="M72.2997 28.1629V23.0952H74.0463L76.4241 19.9967H72.2997V15.9146H79.5569L81.9348 12.8164H72.1244H71.4483H69.0859V15.586H69.0932C69.0894 15.6814 69.0859 15.7777 69.0859 15.878V31.041H83.3692V28.1629H72.2997Z" fill="#202020"/>
<path d="M176.839 15.916V12.8486L174.484 15.916H176.839Z" fill="#202020"/>
<path d="M172.035 23.0898V19.9917H171.354L168.977 23.0898H172.035Z" fill="#202020"/>
<path d="M165.909 28.1629V23.0952H167.656L170.033 19.9967H165.909V15.9146H173.166L175.544 12.8164H165.734H165.058H162.695V15.586H162.703C162.699 15.6814 162.695 15.7777 162.695 15.878V31.041H176.979V28.1629H165.909Z" fill="#202020"/>
<path d="M50.4926 23.4609H56.3041L59.0277 19.9339C58.9305 19.9304 58.8349 19.9255 58.733 19.9255H51.066C50.4003 19.9255 49.8608 19.3896 49.8608 18.729V17.2767C49.8608 16.5886 50.4228 16.0307 51.1159 16.0307V16.0255H59.4763L61.938 12.8179H51.1159H50.4926H49.539L47.0157 16.0611C46.9906 16.3865 46.9766 16.7374 46.9766 17.119V19.1234C46.9766 20.8247 47.228 21.9727 47.7322 22.5681C48.2354 23.1637 49.1558 23.4609 50.4926 23.4609Z" fill="#202020"/>
<path d="M50.4497 31.041L53.1237 27.5783H49.9055L47.7188 30.4277C48.2445 30.836 49.0766 31.041 50.2181 31.041H50.4497Z" fill="#202020"/>
<path d="M61.5066 20.7988C61.2163 20.4688 60.7895 20.2356 60.2358 20.0924L57.6357 23.4594H58.1123C58.8037 23.4594 59.3642 24.0159 59.3642 24.7025V26.2496C59.3642 26.9833 58.7648 27.5783 58.0259 27.5783H54.4552L51.7812 31.041H58.7324C60.069 31.041 60.9937 30.7493 61.5066 30.1661C62.0189 29.583 62.2756 28.441 62.2756 26.74V24.2249C62.2756 22.5245 62.0189 21.3819 61.5066 20.7988Z" fill="#202020"/>
</svg>
