<svg width="93" height="80" viewBox="0 0 93 80" fill="none" xmlns="http://www.w3.org/2000/svg">
<path d="M59.0678 40.5591L71.8935 27.7334V24.2557L59.6163 11.9804L57.2827 14.3179L68.9564 25.9935L56.7303 38.2216L44.1936 25.6849L45.6405 24.2419L43.301 21.9024L41.2584 23.947V27.4247L54.3928 40.5591L46.2086 48.7413L39.1844 41.7151L36.8469 44.0526L44.1602 51.3698H48.2571L56.7303 42.8966L65.2054 51.3698H68.6792L92.6262 27.4247V23.947L68.6792 0H65.2054L47.3646 17.8408L49.7041 20.1783L66.9433 2.93709L89.6891 25.6849C87.3811 27.9929 69.2513 46.1247 66.9433 48.4346L59.0678 40.5591ZM35.5179 7.72022L27.7977 0H24.3239L0.375 23.947V27.4247L24.3239 51.3698H27.7977L45.6425 33.527L43.303 31.1895L26.0618 48.4346L3.31405 25.6849C5.62205 23.3769 23.7538 5.24509 26.0618 2.93709L33.1804 10.0577L19.5998 23.6403V27.1161L32.628 40.1443L34.9675 37.8049L22.5369 25.3782L35.5199 12.3952L48.8076 25.6849L47.3115 27.1829L49.651 29.5204L51.7466 27.4247V23.947L37.8574 10.0577L45.2847 2.63042L53.0795 10.4234L55.4151 8.08784L47.3331 0H43.2362L35.5179 7.72022Z" fill="black"/>
<path d="M10.4816 62.7585C9.64021 61.8738 8.17362 61.4865 6.9862 61.4865C5.49799 61.4865 4.28895 62.1097 4.28895 63.1457C4.28895 64.5278 5.60614 64.7854 7.54848 64.9584C10.5229 65.2179 13.3499 66.362 13.3499 69.8555C13.3499 73.2231 10.2437 74.6877 6.9862 74.7113C4.37545 74.733 1.65852 73.7166 0.384598 71.6032L2.39185 69.5114C3.55568 70.9996 5.47639 71.6464 7.00785 71.6464C8.79881 71.6464 10.0275 70.9348 10.0275 69.8555C10.0511 68.5815 9.03667 67.9996 6.9862 67.8286C3.79353 67.5278 0.946867 66.7277 0.988151 63.1693C1.00978 60.1713 3.85844 58.571 6.9646 58.571C9.29423 58.571 11.0439 59.09 12.595 60.9026L10.4816 62.7585ZM77.0873 59.1333V67.5671C77.0873 72.0514 74.5847 74.4479 70.6115 74.5757C66.6659 74.7054 63.3219 72.4407 63.3219 67.5671V59.1333H66.6659V67.5671C66.6659 70.2624 68.1757 71.6641 70.6371 71.556C72.9215 71.4066 73.7413 69.8299 73.7413 67.5671V59.1333H77.0873ZM61.9142 74.2159H58.1809L54.3199 69.2519H51.8821V74.2159H48.5145V59.1117H55.6783C59.3251 59.1117 61.2694 61.5494 61.2694 64.2034C61.2439 66.1693 60.6639 67.9151 57.7721 68.9511L61.9142 73.9564V74.2159ZM40.8926 59.1117C43.7609 59.1117 46.1338 60.4072 46.1338 63.2106C46.1338 64.461 45.5754 65.6287 44.1285 66.2971C46.0492 66.9872 46.8474 68.9295 46.523 70.6753C46.0709 73.113 44.042 74.2159 41.0223 74.2159H33.4496V59.1117H40.8926ZM18.3847 59.1117H15.0386V74.2139H18.3847V59.1117ZM24.4908 59.1117V71.1294H32.042V74.2139H21.1251V59.1117H24.4908ZM92.0873 59.1982L85.9595 66.4485L92.626 74.0213V74.2139H88.5722L82.9831 67.7637V74.2139H79.6174V59.1117H82.9831V65.3456L88.01 59.1117H92.0873V59.1982ZM36.7503 71.2808H40.8926C42.4024 71.2808 43.1141 70.6124 43.1141 69.5547C43.1141 68.497 42.3375 67.7854 40.8493 67.7854H36.7503V71.2808ZM51.8821 62.0036V66.4033H55.7216C57.2766 66.4033 57.9431 65.2395 57.9431 64.2899C57.9214 63.2559 57.253 62.0036 55.6783 62.0036H51.8821ZM36.7503 64.98H40.8493C42.1645 64.98 42.8113 64.4393 42.8113 63.5566C42.8113 62.67 42.1645 62.0252 40.8926 62.0252H36.7503V64.98Z" fill="black"/>
<path d="M6.21164 78.0985C6.11727 77.9609 5.92461 77.8764 5.71425 77.8744C5.44295 77.8744 5.2483 77.9865 5.2483 78.1791C5.2483 78.3737 5.47246 78.4288 5.7359 78.4661C6.15071 78.5231 6.54583 78.6391 6.54583 79.0913C6.5419 79.5415 6.13102 79.7125 5.71032 79.7125C5.32696 79.7125 5.03012 79.5946 4.84533 79.2545L5.08713 79.0933C5.23064 79.337 5.48031 79.4235 5.71425 79.4235C5.95606 79.4235 6.22344 79.3429 6.22344 79.0913C6.22344 78.8711 5.99144 78.7984 5.70835 78.761C5.30926 78.704 4.92985 78.6057 4.92985 78.1732C4.92592 77.7564 5.34268 77.5952 5.70638 77.5952C5.99537 77.5952 6.28634 77.664 6.45541 77.9353L6.21164 78.0985ZM25.8945 78.6686C25.8945 79.2112 25.5642 79.7086 24.8663 79.7086C24.1664 79.7086 23.8362 79.1994 23.8362 78.6706C23.8362 78.0592 24.2647 77.6149 24.8702 77.6149C25.5583 77.6188 25.8945 78.1241 25.8945 78.6686ZM4.34204 78.6686C4.34204 79.2112 4.0098 79.7086 3.31189 79.7086C2.61399 79.7086 2.28175 79.1994 2.28175 78.6706C2.28175 78.0592 2.71032 77.6149 3.3178 77.6149C4.00587 77.6188 4.34204 78.1241 4.34204 78.6686ZM21.1723 77.6562V78.8318C21.1723 79.4235 20.7811 79.7204 20.2955 79.7027C19.8473 79.6909 19.4639 79.4039 19.4639 78.8318V77.6562H19.7824V78.8318C19.7824 79.1975 19.9967 79.396 20.2955 79.4078C20.616 79.4235 20.8519 79.2132 20.8519 78.8318V77.6562H21.1723ZM28.5721 79.6673H28.289L28.0216 78.9576L27.7995 78.2833L27.5773 78.9616L27.3139 79.6673H27.0308L26.3014 77.6542H26.6612L27.1723 79.2034L27.6933 77.6542H27.8998L28.4325 79.2034L28.9339 77.6542H29.2916L28.5721 79.6673ZM7.65268 77.9432H6.99014V77.6522H8.63367V77.9432H7.97704V79.6653H7.65268V77.9432ZM18.8663 79.6653H18.4888L17.8774 78.9694H17.4508V79.6653H17.1304V77.6503C17.443 77.6503 17.7536 77.6542 18.0682 77.6542C18.5321 77.6542 18.7778 77.9707 18.7778 78.3108C18.7778 78.5998 18.6265 78.8809 18.2313 78.938L18.8329 79.6083L18.8663 79.6653ZM1.9259 77.664L1.00389 78.6254L2.00649 79.6457V79.6653H1.60351L0.707037 78.7492V79.6653H0.384598V77.6542H0.707037V78.5212L1.52681 77.6542H1.9259V77.664ZM10.7647 77.664L9.8427 78.6254L10.8453 79.6457V79.6653H10.4423L9.54584 78.7492V79.6653H9.22345V77.6542H9.54584V78.5212L10.3637 77.6542H10.7647V77.664ZM23.4803 77.664L22.5563 78.6254L23.561 79.6457V79.6653H23.1579L22.2615 78.7492V79.6653H21.9391V77.6542H22.2615V78.5212L23.0793 77.6542H23.4803V77.664ZM15.7071 77.6542C16.0904 77.6542 16.3912 77.8292 16.3912 78.2263C16.3912 78.3973 16.3027 78.5507 16.114 78.6273C16.3538 78.7001 16.4561 78.938 16.4561 79.0913C16.4561 79.5317 16.1042 79.6653 15.7071 79.6653H14.785V77.6542H15.7071ZM12.768 79.2427H11.6789L11.4901 79.6653H11.1461L12.0504 77.6522H12.4004L13.3028 79.6653H12.9607L12.768 79.2427ZM31.1592 79.2427H30.0681L29.8794 79.6653H29.5354L30.4397 77.6522H30.7916L31.694 79.6653H31.3499L31.1592 79.2427ZM3.31189 79.4117C3.8132 79.4117 4.02157 79.0598 4.02157 78.6745C4.02157 78.3029 3.80928 77.9176 3.3178 77.9098C2.85187 77.9098 2.60217 78.2341 2.60217 78.6745C2.60807 79.0303 2.81451 79.4117 3.31189 79.4117ZM24.8663 79.4117C25.3657 79.4117 25.576 79.0598 25.576 78.6745C25.576 78.3029 25.3617 77.9176 24.8702 77.9098C24.4063 77.9098 24.1547 78.2341 24.1547 78.6745C24.1606 79.0303 24.367 79.4117 24.8663 79.4117ZM15.1035 79.3665H15.7071C15.886 79.3665 16.1337 79.3095 16.1337 79.0874C16.1337 78.8711 15.8938 78.7728 15.711 78.7728H15.1035V79.3665ZM12.2254 77.9923L11.8008 78.9497H12.6501L12.2254 77.9923ZM30.6147 77.9923L30.1901 78.9497H31.0413L30.6147 77.9923ZM17.4508 77.9452V78.6765H18.0642C18.3316 78.6765 18.4495 78.5074 18.4495 78.3167C18.4495 78.1359 18.3316 77.9452 18.0682 77.9452H17.4508ZM15.1035 78.4878H15.711C15.9528 78.4878 16.0727 78.3914 16.0727 78.2341C16.0727 78.0926 15.9489 77.9432 15.7071 77.9432H15.1035V78.4878Z" fill="black"/>
<path fill-rule="evenodd" clip-rule="evenodd" d="M34.1646 77.6359L34.8337 77.636L32.8042 79.6655L32.1351 79.6654L34.1646 77.6359Z" fill="black"/>
<path d="M64.6177 78.6682C64.6177 79.2108 64.2874 79.7082 63.5895 79.7082C62.8897 79.7082 62.5594 79.199 62.5594 78.6702C62.5594 78.0588 62.988 77.6145 63.5954 77.6145C64.2835 77.6184 64.6177 78.1237 64.6177 78.6682ZM59.4748 77.6558V78.8314C59.4748 79.4231 59.0836 79.72 58.5961 79.7023C58.1479 79.6905 57.7665 79.4035 57.7665 78.8314V77.6558H58.0869V78.8314C58.0869 79.1971 58.2973 79.3956 58.5961 79.4074C58.9185 79.4232 59.1544 79.2128 59.1544 78.8314V77.6558H59.4748ZM67.2973 79.6669H67.0122L66.7448 78.9572L66.5247 78.2829L66.3025 78.9612L66.0371 79.6669H65.756L65.0266 77.6538H65.3864L65.8975 79.203L66.4166 77.6538H66.625L67.1577 79.203L67.6551 77.6538H68.0148L67.2973 79.6669ZM37.0181 78.1237L36.3339 79.0771H36.2651L35.5908 78.1237V79.6669H35.2684V77.6558H35.6419L36.3064 78.5994L36.9669 77.6558H37.3404V79.6669H37.0181V78.1237ZM40.9047 77.9428H40.2422V77.6518H41.8877V77.9428H41.2291V79.665H40.9047V77.9428ZM46.4014 79.665H46.024L45.4126 78.969H44.986V79.665H44.6635V77.6499C44.9781 77.6499 45.2867 77.6538 45.6013 77.6538C46.0672 77.6538 46.311 77.9703 46.311 78.3104C46.311 78.5994 46.1616 78.8806 45.7664 78.9376L46.3661 79.6079L46.4014 79.665ZM61.0024 77.6518C61.6885 77.6518 62.0031 78.1433 62.0109 78.6407C62.0227 79.1519 61.7081 79.665 61.0024 79.665H60.2416V77.6518H61.0024ZM43.9637 79.665H42.4755V77.6538H43.9539V77.9664H42.7979V78.509H43.9067V78.8078H42.7979V79.3484H43.9637V79.665ZM77.066 79.665H75.5777V77.6538H77.0581V77.9664H75.9022V78.509H77.0109V78.8078H75.9022V79.3484H77.066V79.665ZM56.3706 77.6538C56.752 77.6538 57.0528 77.8288 57.0528 78.2259C57.0528 78.3969 56.9644 78.5503 56.7756 78.6269C57.0155 78.6997 57.1157 78.9376 57.1157 79.0909C57.1157 79.5313 56.7658 79.665 56.3706 79.665H55.4467V77.6538H56.3706ZM74.4651 79.085V77.6538H74.7875V79.665H74.5437L73.4015 78.2456V79.665H73.0771V77.6538H73.3228L74.4651 79.085ZM51.2553 78.3615V78.6152L50.9427 78.7606V79.3661H52.0043V79.665H50.6203V78.914L50.4021 79.0162V78.7685L50.6203 78.6643V77.6538H50.9427V78.509L51.2553 78.3615ZM53.0246 78.5404L53.5967 77.6518H53.984V77.6676L53.1858 78.8412V79.665H52.8635V78.8412L52.0869 77.6676V77.6518H52.4703L53.0246 78.5404ZM39.5266 79.2423H38.4374L38.2487 79.665H37.9047L38.809 77.6518H39.1589L40.0613 79.665H39.7192L39.5266 79.2423ZM49.5331 79.2423H48.4421L48.2533 79.665H47.9093L48.8136 77.6518H49.1636L50.0679 79.665H49.7239L49.5331 79.2423ZM71.9762 79.2423H70.8851L70.6964 79.665H70.3543L71.2566 77.6518H71.6066L72.5109 79.665H72.1669L71.9762 79.2423ZM68.927 77.6538V79.3661H69.9886V79.665H68.6066V77.6538H68.927ZM47.3431 77.6538H47.0246V79.665H47.3431V77.6538ZM63.5895 79.4113C64.0889 79.4113 64.2992 79.0594 64.2992 78.6741C64.2992 78.3026 64.0869 77.9173 63.5954 77.9094C63.1295 77.9094 62.8779 78.2337 62.8779 78.6741C62.8857 79.03 63.0921 79.4113 63.5895 79.4113ZM55.7652 79.3661H56.3706C56.5476 79.3661 56.7953 79.3091 56.7953 79.087C56.7953 78.8707 56.5554 78.7724 56.3706 78.7724H55.7652V79.3661ZM60.56 79.3543H61.0024C61.4939 79.3543 61.7023 78.9926 61.6924 78.6387C61.6826 78.3006 61.4781 77.9605 61.0024 77.9605H60.56V79.3543ZM38.984 77.9919L38.5574 78.9494H39.4106L38.984 77.9919ZM48.9886 77.9919L48.5639 78.9494H49.4132L48.9886 77.9919ZM71.4316 77.9919L71.007 78.9494H71.8582L71.4316 77.9919ZM44.986 77.9448V78.6761H45.5973C45.8647 78.6761 45.9827 78.507 45.9827 78.3163C45.9827 78.1355 45.8647 77.9448 45.6013 77.9448H44.986ZM55.7652 78.4874H56.3706C56.6144 78.4874 56.7344 78.391 56.7344 78.2338C56.7344 78.0922 56.6105 77.9428 56.3706 77.9428H55.7652V78.4874Z" fill="black"/>
<path fill-rule="evenodd" clip-rule="evenodd" d="M79.5846 77.6359L80.2537 77.636L78.2242 79.6655L77.555 79.6654L79.5846 77.6359Z" fill="black"/>
<path d="M82.7986 78.6684C82.7986 79.211 82.4683 79.7084 81.7684 79.7084C81.0705 79.7084 80.7402 79.1992 80.7402 78.6704C80.7402 78.059 81.1688 77.6147 81.7762 77.6147C82.4624 77.6186 82.7986 78.1238 82.7986 78.6684ZM89.1623 77.6166C89.8503 77.6186 90.1845 78.1238 90.1845 78.6664C90.1845 79.211 89.8543 79.7084 89.1563 79.7084C88.4584 79.7084 88.1262 79.1992 88.1262 78.6704C88.1262 78.059 88.5548 77.6166 89.1623 77.6166ZM84.9453 78.116C84.8018 77.9744 84.5895 77.8997 84.4008 77.8997C83.9309 77.8997 83.6557 78.2536 83.6596 78.6782C83.6596 79.0458 83.8798 79.4037 84.4008 79.4037C84.5738 79.4037 84.733 79.3604 84.8923 79.2267V78.8158H84.3339V78.5308H85.1911V79.3545C84.9906 79.5767 84.7409 79.7044 84.4008 79.7044C83.6636 79.7044 83.3451 79.2129 83.3451 78.6782C83.3451 78.0983 83.7147 77.6029 84.4008 77.6029C84.6701 77.6029 84.9395 77.7051 85.1459 77.9096L84.9453 78.116ZM87.6269 79.6651H87.2514L86.638 78.9692H86.2114V79.6651H85.891V77.65C86.2036 77.65 86.5142 77.654 86.8287 77.654C87.2927 77.654 87.5384 77.9705 87.5384 78.3106C87.5384 78.5996 87.387 78.8807 86.9919 78.9377L87.5915 79.6081L87.6269 79.6651ZM91.6157 77.652C92.3018 77.652 92.6164 78.1435 92.6262 78.6409C92.6361 79.152 92.3195 79.6651 91.6157 79.6651H90.8549V77.652H91.6157ZM81.7684 79.4115C82.2697 79.4115 82.4801 79.0596 82.4801 78.6743C82.4801 78.3027 82.2658 77.9174 81.7762 77.9096C81.3084 77.9096 81.0587 78.2339 81.0587 78.6743C81.0646 79.0301 81.273 79.4115 81.7684 79.4115ZM88.4447 78.6743C88.4526 79.0301 88.659 79.4115 89.1563 79.4115C89.6557 79.4115 89.8661 79.0596 89.8661 78.6743C89.8661 78.3027 89.6537 77.9174 89.1623 77.9096C88.6963 77.9096 88.4447 78.2339 88.4447 78.6743ZM91.1734 79.3545H91.6157C92.1072 79.3545 92.3156 78.9928 92.3058 78.6389C92.2979 78.3008 92.0895 77.9607 91.6157 77.9607H91.1734V79.3545ZM86.2114 77.9449V78.6762H86.8248C87.0922 78.6762 87.2101 78.5072 87.2101 78.3165C87.2101 78.1356 87.0922 77.9449 86.8287 77.9449H86.2114ZM89.5633 77.0308H89.2094L88.9932 77.4122V77.4259H89.2625L89.5633 77.0445V77.0308Z" fill="black"/>
</svg>
