<svg width="219" height="80" viewBox="0 0 219 80" fill="none" xmlns="http://www.w3.org/2000/svg">
<path d="M122.068 40.5591L134.893 27.7334V24.2557L122.616 11.9804L120.283 14.3179L131.956 25.9935L119.73 38.2216L107.194 25.6849L108.64 24.2419L106.301 21.9024L104.258 23.947V27.4247L117.393 40.5591L109.209 48.7413L102.184 41.7151L99.8469 44.0526L107.16 51.3698H111.257L119.73 42.8966L128.205 51.3698H131.679L155.626 27.4247V23.947L131.679 0H128.205L110.365 17.8408L112.704 20.1783L129.943 2.93709L152.689 25.6849C150.381 27.9929 132.251 46.1247 129.943 48.4346L122.068 40.5591ZM98.5179 7.72022L90.7977 0H87.3239L63.375 23.947V27.4247L87.3239 51.3698H90.7977L108.642 33.527L106.303 31.1895L89.0618 48.4346L66.3141 25.6849C68.6221 23.3769 86.7538 5.24509 89.0618 2.93709L96.1804 10.0577L82.5998 23.6403V27.1161L95.628 40.1443L97.9675 37.8049L85.5369 25.3782L98.5199 12.3952L111.808 25.6849L110.312 27.1829L112.651 29.5204L114.747 27.4247V23.947L100.857 10.0577L108.285 2.63042L116.08 10.4234L118.415 8.08784L110.333 0H106.236L98.5179 7.72022Z" fill="#C7D0CF"/>
<path d="M73.4798 62.7577C72.6384 61.8731 71.1718 61.4858 69.9844 61.4858C68.4962 61.4858 67.2872 62.109 67.2872 63.145C67.2872 64.5271 68.6044 64.7846 70.5467 64.9576C73.5211 65.2171 76.3482 66.3613 76.3482 69.8547C76.3482 73.2224 73.242 74.687 69.9844 74.7106C67.3737 74.7322 64.6567 73.7158 63.3828 71.6025L65.3901 69.5107C66.5539 70.9989 68.4746 71.6457 70.0061 71.6457C71.797 71.6457 73.0257 70.934 73.0257 69.8547C73.0493 68.5808 72.0349 67.9989 69.9844 67.8279C66.7917 67.5271 63.9451 66.7269 63.9864 63.1686C64.008 60.1706 66.8567 58.5703 69.9628 58.5703C72.2924 58.5703 74.0421 59.0893 75.5932 60.9019L73.4798 62.7577ZM140.086 59.1326V67.5664C140.086 72.0507 137.583 74.4472 133.61 74.5749C129.664 74.7047 126.32 72.4399 126.32 67.5664V59.1326H129.664V67.5664C129.664 70.2617 131.174 71.6634 133.635 71.5553C135.92 71.4059 136.74 69.8292 136.74 67.5664V59.1326H140.086ZM124.912 74.2152H121.179L117.318 69.2512H114.88V74.2152H111.513V59.1109H118.677C122.323 59.1109 124.268 61.5487 124.268 64.2027C124.242 66.1686 123.662 67.9144 120.77 68.9504L124.912 73.9557V74.2152ZM103.891 59.1109C106.759 59.1109 109.132 60.4065 109.132 63.2099C109.132 64.4602 108.574 65.628 107.127 66.2964C109.047 66.9864 109.846 68.9288 109.521 70.6745C109.069 73.1123 107.04 74.2152 104.021 74.2152H96.4478V59.1109H103.891ZM81.3829 59.1109H78.0369V74.2132H81.3829V59.1109ZM87.4891 59.1109V71.1287H95.0402V74.2132H84.1234V59.1109H87.4891ZM155.086 59.1974L148.958 66.4478L155.624 74.0206V74.2132H151.57L145.981 67.763V74.2132H142.616V59.1109H145.981V65.3449L151.008 59.1109H155.086V59.1974ZM99.7486 71.28H103.891C105.401 71.28 106.112 70.6116 106.112 69.554C106.112 68.4963 105.336 67.7846 103.848 67.7846H99.7486V71.28ZM114.88 62.0028V66.4026H118.72C120.275 66.4026 120.941 65.2387 120.941 64.2892C120.92 63.2551 120.251 62.0028 118.677 62.0028H114.88ZM99.7486 64.9792H103.848C105.163 64.9792 105.81 64.4386 105.81 63.5559C105.81 62.6693 105.163 62.0244 103.891 62.0244H99.7486V64.9792Z" fill="#C7D0CF"/>
<path d="M69.2099 78.099C69.1155 77.9614 68.9228 77.8768 68.7125 77.8749C68.4412 77.8749 68.2465 77.9869 68.2465 78.1796C68.2465 78.3742 68.4707 78.4293 68.7341 78.4666C69.1489 78.5236 69.544 78.6396 69.544 79.0918C69.5401 79.542 69.1292 79.713 68.7085 79.713C68.3252 79.713 68.0283 79.5951 67.8435 79.255L68.0853 79.0937C68.2289 79.3375 68.4785 79.424 68.7125 79.424C68.9543 79.424 69.2217 79.3434 69.2217 79.0918C69.2217 78.8716 68.9897 78.7989 68.7066 78.7615C68.3075 78.7045 67.9281 78.6062 67.9281 78.1737C67.9241 77.7569 68.3409 77.5957 68.7046 77.5957C68.9936 77.5957 69.2846 77.6645 69.4536 77.9358L69.2099 78.099ZM88.8927 78.6691C88.8927 79.2117 88.5624 79.7091 87.8645 79.7091C87.1647 79.7091 86.8344 79.1999 86.8344 78.6711C86.8344 78.0597 87.263 77.6154 87.8685 77.6154C88.5565 77.6193 88.8927 78.1246 88.8927 78.6691ZM67.3403 78.6691C67.3403 79.2117 67.008 79.7091 66.3101 79.7091C65.6122 79.7091 65.28 79.1999 65.28 78.6711C65.28 78.0597 65.7085 77.6154 66.316 77.6154C67.0041 77.6193 67.3403 78.1246 67.3403 78.6691ZM84.1705 77.6567V78.8323C84.1705 79.424 83.7793 79.7209 83.2937 79.7032C82.8455 79.6914 82.4622 79.4044 82.4622 78.8323V77.6567H82.7807V78.8323C82.7807 79.1979 82.9949 79.3965 83.2937 79.4083C83.6142 79.424 83.8501 79.2137 83.8501 78.8323V77.6567H84.1705ZM91.5703 79.6678H91.2872L91.0198 78.9581L90.7977 78.2838L90.5755 78.962L90.3121 79.6678H90.029L89.2997 77.6547H89.6594L90.1706 79.2038L90.6916 77.6547H90.898L91.4307 79.2038L91.9321 77.6547H92.2898L91.5703 79.6678ZM70.6509 77.9437H69.9884V77.6527H71.6319V77.9437H70.9753V79.6658H70.6509V77.9437ZM81.8645 79.6658H81.4871L80.8756 78.9699H80.449V79.6658H80.1286V77.6508C80.4412 77.6508 80.7518 77.6547 81.0664 77.6547C81.5303 77.6547 81.7761 77.9712 81.7761 78.3113C81.7761 78.6003 81.6247 78.8814 81.2295 78.9384L81.8311 79.6088L81.8645 79.6658ZM64.9241 77.6645L64.0021 78.6258L65.0047 79.6462V79.6658H64.6017L63.7053 78.7497V79.6658H63.3828V77.6547H63.7053V78.5217L64.525 77.6547H64.9241V77.6645ZM73.7629 77.6645L72.8409 78.6258L73.8436 79.6462V79.6658H73.4405L72.5441 78.7497V79.6658H72.2217V77.6547H72.5441V78.5217L73.3619 77.6547H73.7629V77.6645ZM86.4785 77.6645L85.5546 78.6258L86.5592 79.6462V79.6658H86.1561L85.2597 78.7497V79.6658H84.9373V77.6547H85.2597V78.5217L86.0775 77.6547H86.4785V77.6645ZM78.7053 77.6547C79.0887 77.6547 79.3894 77.8297 79.3894 78.2268C79.3894 78.3978 79.3009 78.5511 79.1122 78.6278C79.3521 78.7006 79.4543 78.9385 79.4543 79.0918C79.4543 79.5322 79.1024 79.6658 78.7053 79.6658H77.7832V77.6547H78.7053ZM75.7662 79.2432H74.6771L74.4883 79.6658H74.1443L75.0486 77.6527H75.3986L76.301 79.6658H75.9589L75.7662 79.2432ZM94.1575 79.2432H93.0664L92.8776 79.6658H92.5336L93.438 77.6527H93.7899L94.6922 79.6658H94.3482L94.1575 79.2432ZM66.3101 79.4122C66.8114 79.4122 67.0198 79.0603 67.0198 78.675C67.0198 78.3034 66.8075 77.9181 66.316 77.9103C65.8501 77.9103 65.6004 78.2346 65.6004 78.675C65.6063 79.0308 65.8127 79.4122 66.3101 79.4122ZM87.8645 79.4122C88.3639 79.4122 88.5742 79.0603 88.5742 78.675C88.5742 78.3034 88.3599 77.9181 87.8685 77.9103C87.4045 77.9103 87.1529 78.2346 87.1529 78.675C87.1588 79.0308 87.3652 79.4122 87.8645 79.4122ZM78.1017 79.367H78.7053C78.8842 79.367 79.1319 79.31 79.1319 79.0879C79.1319 78.8716 78.8921 78.7733 78.7092 78.7733H78.1017V79.367ZM75.2236 77.9928L74.799 78.9502H75.6483L75.2236 77.9928ZM93.6129 77.9928L93.1883 78.9502H94.0395L93.6129 77.9928ZM80.449 77.9456V78.677H81.0624C81.3298 78.677 81.4478 78.5079 81.4478 78.3172C81.4478 78.1363 81.3298 77.9456 81.0664 77.9456H80.449ZM78.1017 78.4882H78.7092C78.951 78.4882 79.0709 78.3919 79.0709 78.2346C79.0709 78.0931 78.9471 77.9437 78.7053 77.9437H78.1017V78.4882Z" fill="#C7D0CF"/>
<path fill-rule="evenodd" clip-rule="evenodd" d="M97.1629 77.6366L97.832 77.6367L95.8025 79.6663L95.1334 79.6662L97.1629 77.6366Z" fill="#C7D0CF"/>
<path d="M127.619 78.669C127.619 79.2116 127.289 79.7089 126.591 79.7089C125.891 79.7089 125.561 79.1998 125.561 78.6709C125.561 78.0595 125.989 77.6152 126.597 77.6152C127.285 77.6192 127.619 78.1244 127.619 78.669ZM122.476 77.6565V78.8321C122.476 79.4239 122.085 79.7207 121.597 79.7031C121.149 79.6913 120.768 79.4042 120.768 78.8321V77.6565H121.088V78.8321C121.088 79.1978 121.298 79.3964 121.597 79.4082C121.92 79.4239 122.156 79.2135 122.156 78.8321V77.6565H122.476ZM130.298 79.6677H130.013L129.746 78.958L129.526 78.2836L129.304 78.9619L129.038 79.6677H128.757L128.028 77.6545H128.388L128.899 79.2037L129.418 77.6545H129.626L130.159 79.2037L130.656 77.6545H131.016L130.298 79.6677ZM100.019 78.1244L99.335 79.0779H99.2662L98.5919 78.1244V79.6677H98.2695V77.6565H98.643L99.3075 78.6002L99.9681 77.6565H100.342V79.6677H100.019V78.1244ZM103.906 77.9435H103.243V77.6526H104.889V77.9435H104.23V79.6657H103.906V77.9435ZM109.403 79.6657H109.025L108.414 78.9697H107.987V79.6657H107.665V77.6506C107.979 77.6506 108.288 77.6545 108.602 77.6545C109.068 77.6545 109.312 77.9711 109.312 78.3112C109.312 78.6001 109.163 78.8813 108.768 78.9383L109.367 79.6087L109.403 79.6657ZM124.004 77.6526C124.69 77.6526 125.004 78.1441 125.012 78.6414C125.024 79.1526 124.709 79.6657 124.004 79.6657H123.243V77.6526H124.004ZM106.965 79.6657H105.477V77.6545H106.955V77.9671H105.799V78.5097H106.908V78.8085H105.799V79.3492H106.965V79.6657ZM140.067 79.6657H138.579V77.6545H140.059V77.9671H138.903V78.5097H140.012V78.8085H138.903V79.3492H140.067V79.6657ZM119.372 77.6545C119.753 77.6545 120.054 77.8295 120.054 78.2266C120.054 78.3977 119.965 78.551 119.777 78.6277C120.017 78.7004 120.117 78.9383 120.117 79.0917C120.117 79.532 119.767 79.6657 119.372 79.6657H118.448V77.6545H119.372ZM137.466 79.0857V77.6545H137.789V79.6657H137.545L136.403 78.2463V79.6657H136.078V77.6545H136.324L137.466 79.0857ZM114.256 78.3623V78.6159L113.944 78.7614V79.3669H115.005V79.6657H113.621V78.9147L113.403 79.0169V78.7692L113.621 78.665V77.6545H113.944V78.5097L114.256 78.3623ZM116.026 78.5412L116.598 77.6526H116.985V77.6683L116.187 78.842V79.6657H115.865V78.842L115.088 77.6683V77.6526H115.471L116.026 78.5412ZM102.528 79.243H101.439L101.25 79.6657H100.906L101.81 77.6526H102.16L103.062 79.6657H102.72L102.528 79.243ZM112.534 79.243H111.443L111.254 79.6657H110.91L111.815 77.6526H112.165L113.069 79.6657H112.725L112.534 79.243ZM134.977 79.243H133.886L133.698 79.6657H133.355L134.258 77.6526H134.608L135.512 79.6657H135.168L134.977 79.243ZM131.928 77.6545V79.3669H132.99V79.6657H131.608V77.6545H131.928ZM110.344 77.6545H110.026V79.6657H110.344V77.6545ZM126.591 79.4121C127.09 79.4121 127.3 79.0602 127.3 78.6749C127.3 78.3033 127.088 77.918 126.597 77.9101C126.131 77.9101 125.879 78.2345 125.879 78.6749C125.887 79.0307 126.093 79.4121 126.591 79.4121ZM118.766 79.3669H119.372C119.549 79.3669 119.796 79.3099 119.796 79.0877C119.796 78.8715 119.557 78.7731 119.372 78.7731H118.766V79.3669ZM123.561 79.3551H124.004C124.495 79.3551 124.703 78.9933 124.694 78.6395C124.684 78.3013 124.479 77.9612 124.004 77.9612H123.561V79.3551ZM101.985 77.9927L101.559 78.9501H102.412L101.985 77.9927ZM111.99 77.9927L111.565 78.9501H112.414L111.99 77.9927ZM134.433 77.9927L134.008 78.9501H134.859L134.433 77.9927ZM107.987 77.9455V78.6768H108.598C108.866 78.6768 108.984 78.5078 108.984 78.3171C108.984 78.1362 108.866 77.9455 108.602 77.9455H107.987ZM118.766 78.4881H119.372C119.616 78.4881 119.735 78.3918 119.735 78.2345C119.735 78.0929 119.612 77.9435 119.372 77.9435H118.766V78.4881Z" fill="#C7D0CF"/>
<path fill-rule="evenodd" clip-rule="evenodd" d="M142.585 77.6366L143.254 77.6367L141.224 79.6663L140.555 79.6662L142.585 77.6366Z" fill="#C7D0CF"/>
<path d="M145.797 78.6689C145.797 79.2115 145.466 79.7088 144.767 79.7088C144.069 79.7088 143.738 79.1997 143.738 78.6709C143.738 78.0594 144.167 77.6151 144.774 77.6151C145.46 77.6191 145.797 78.1243 145.797 78.6689ZM152.16 77.6171C152.848 77.6191 153.183 78.1243 153.183 78.6669C153.183 79.2115 152.852 79.7088 152.154 79.7088C151.457 79.7088 151.124 79.1997 151.124 78.6709C151.124 78.0594 151.553 77.6171 152.16 77.6171ZM147.943 78.1164C147.8 77.9749 147.588 77.9002 147.399 77.9002C146.929 77.9002 146.654 78.2541 146.658 78.6787C146.658 79.0463 146.878 79.4041 147.399 79.4041C147.572 79.4041 147.731 79.3609 147.89 79.2272V78.8163H147.332V78.5313H148.189V79.355C147.989 79.5771 147.739 79.7049 147.399 79.7049C146.662 79.7049 146.343 79.2134 146.343 78.6787C146.343 78.0988 146.713 77.6033 147.399 77.6033C147.668 77.6033 147.938 77.7056 148.144 77.91L147.943 78.1164ZM150.625 79.6656H150.249L149.636 78.9697H149.209V79.6656H148.889V77.6505C149.202 77.6505 149.512 77.6545 149.827 77.6545C150.291 77.6545 150.536 77.971 150.536 78.3111C150.536 78.6001 150.385 78.8812 149.99 78.9382L150.59 79.6086L150.625 79.6656ZM154.614 77.6525C155.3 77.6525 155.614 78.144 155.624 78.6414C155.634 79.1525 155.318 79.6656 154.614 79.6656H153.853V77.6525H154.614ZM144.767 79.412C145.268 79.412 145.478 79.0601 145.478 78.6748C145.478 78.3032 145.264 77.9179 144.774 77.91C144.306 77.91 144.057 78.2344 144.057 78.6748C144.063 79.0306 144.271 79.412 144.767 79.412ZM151.443 78.6748C151.451 79.0306 151.657 79.412 152.154 79.412C152.654 79.412 152.864 79.0601 152.864 78.6748C152.864 78.3032 152.652 77.9179 152.16 77.91C151.694 77.91 151.443 78.2344 151.443 78.6748ZM154.171 79.355H154.614C155.105 79.355 155.314 78.9933 155.304 78.6394C155.296 78.3013 155.088 77.9612 154.614 77.9612H154.171V79.355ZM149.209 77.9454V78.6767H149.823C150.09 78.6767 150.208 78.5077 150.208 78.317C150.208 78.1361 150.09 77.9454 149.827 77.9454H149.209ZM152.561 77.0312H152.208L151.991 77.4127V77.4264H152.261L152.561 77.045V77.0312Z" fill="#C7D0CF"/>
</svg>
