<svg width="148" height="45" viewBox="0 0 148 45" fill="none" xmlns="http://www.w3.org/2000/svg">
<g clip-path="url(#clip0_20_259)">
<mask id="mask0_20_259" style="mask-type:luminance" maskUnits="userSpaceOnUse" x="0" y="0" width="175" height="50">
<path d="M174.456 0H0.542969V50H174.456V0Z" fill="white"/>
</mask>
<g mask="url(#mask0_20_259)">
<path d="M79.1272 6.38443H83.0513V30.4216H89.1636L95.2129 33.9151V6.38443H99.137V30.4216H105.249L111.481 34.0212H79.1307V6.38443H79.1272ZM60.9864 5.99194C65.2262 5.99194 68.7541 7.34267 71.5735 10.0441C74.386 12.7526 75.7993 16.14 75.7993 20.2134C75.7993 24.2868 74.372 27.66 71.5349 30.3368C68.6874 33.0028 65.0999 34.3394 60.7725 34.3394C56.4451 34.3394 53.1909 33.0028 50.438 30.3368C47.6851 27.6636 46.3141 24.3151 46.3141 20.2947C46.3141 16.2744 47.6992 12.7526 50.4731 10.0441C53.2434 7.34267 56.7468 5.99194 60.9864 5.99194ZM61.1408 9.7471C58.0057 9.7471 55.4212 10.7407 53.4048 12.7173C51.3813 14.6974 50.3713 17.222 50.3713 20.2912C50.3713 23.3603 51.3813 25.7471 53.4118 27.7237C55.4422 29.7038 57.9776 30.6938 61.025 30.6938C64.0724 30.6938 66.6359 29.6826 68.6874 27.6671C70.7354 25.6482 71.7559 23.1376 71.7559 20.125C71.7559 17.1124 70.7389 14.7363 68.6874 12.7385C66.6395 10.7407 64.1286 9.74002 61.1408 9.74002V9.7471ZM48.9125 32.5396C47.4853 33.7348 45.6828 34.3394 43.4945 34.3394C40.7873 34.3394 38.3255 33.5014 36.1022 31.8289V26.8044C38.2203 29.5058 40.6681 30.8565 43.456 30.8565C44.6798 30.8565 45.6968 30.5171 46.5139 29.8311C47.096 30.655 47.7658 31.4399 48.5268 32.1755C48.6566 32.3027 48.7863 32.423 48.9196 32.5432L48.9125 32.5396ZM43.74 22.183L41.1625 20.613C39.2863 19.4638 37.9608 18.3323 37.1647 17.2149C36.3757 16.1011 35.9795 14.8176 35.9795 13.3678C35.9795 11.1933 36.7299 9.42532 38.2308 8.06753C39.7247 6.70974 41.6745 6.0273 44.0626 6.0273C45.9913 6.0273 47.7834 6.49051 49.4456 7.40985C49.1439 7.66798 48.8494 7.93316 48.5619 8.21604C47.9376 8.82422 47.3731 9.46422 46.8681 10.136C45.9353 9.77538 44.9744 9.59505 43.982 9.59505C42.702 9.59505 41.6499 9.89206 40.8294 10.4932C40.0053 11.0943 39.5914 11.8651 39.5914 12.795C39.5914 13.626 39.8931 14.4074 40.4962 15.1323C41.0994 15.8607 42.0708 16.6174 43.4174 17.4095L43.8312 17.6534C43.7155 18.5126 43.6558 19.4001 43.6558 20.3195C43.6558 20.956 43.6874 21.5783 43.7435 22.1864L43.74 22.183ZM155.586 6.38443H160.334L149.404 19.7219L161.095 34.0247H156.347L147.033 22.5931L137.596 34.0247H132.809L144.617 19.7219L133.676 6.41273V22.038C133.676 24.2656 133.528 25.8991 133.233 26.9387C132.939 27.9783 132.564 28.8623 132.115 29.58C131.659 30.3014 131.113 30.952 130.453 31.5319C128.296 33.4024 125.431 34.3394 121.861 34.3394C118.291 34.3394 115.521 33.3953 113.351 31.5107C112.694 30.9449 112.136 30.3014 111.688 29.58C111.239 28.8658 110.857 27.9642 110.548 26.8786C110.24 25.8001 110.085 24.1984 110.085 22.0698V12.6677L114.03 6.38443V22.0698C114.03 24.2514 114.206 25.7825 114.539 26.6806C114.879 27.5787 115.436 28.3566 116.205 29.0178C117.67 30.2413 119.568 30.853 121.896 30.853C123.53 30.853 124.951 30.5489 126.157 29.9336C127.356 29.3184 128.251 28.5087 128.843 27.4903C129.432 26.4756 129.727 24.6687 129.727 22.0698V12.6677L133.661 6.39857L133.651 6.38443H138.438L147.03 16.9321L155.582 6.38443H155.586Z" fill="black"/>
<path d="M157.749 47.0123C157.326 47.0123 156.974 47.1042 156.701 47.2846C156.431 47.4649 156.294 47.7018 156.294 47.9847C156.294 48.6494 156.886 48.9818 158.076 48.9818C158.636 48.9818 159.071 48.9005 159.38 48.7343C159.689 48.5681 159.843 48.3347 159.843 48.0306C159.843 47.7266 159.646 47.4861 159.257 47.2987C158.868 47.1112 158.364 47.0123 157.746 47.0123M158.044 41.369C157.701 41.369 157.409 41.4821 157.167 41.7191C156.926 41.9524 156.806 42.2353 156.806 42.5606C156.806 42.8859 156.926 43.1653 157.16 43.3844C157.398 43.6036 157.697 43.7097 158.058 43.7097C158.419 43.7097 158.714 43.6002 158.953 43.3773C159.191 43.1546 159.31 42.8789 159.31 42.5465C159.31 42.2141 159.191 41.9277 158.948 41.7048C158.707 41.4785 158.409 41.369 158.044 41.369ZM155.667 42.4898C155.667 41.8039 155.916 41.2594 156.414 40.8598C156.911 40.4603 157.592 40.2622 158.455 40.2622H161.088V41.2594H159.794C160.046 41.514 160.218 41.7508 160.317 41.9595C160.415 42.1716 160.464 42.4085 160.464 42.6808C160.464 43.0167 160.369 43.3491 160.18 43.6744C159.991 43.9997 159.745 44.2472 159.447 44.4205C159.148 44.5937 158.658 44.7316 157.974 44.8342C157.497 44.9048 157.258 45.0675 157.258 45.3328C157.258 45.4812 157.349 45.605 157.526 45.7005C157.704 45.7959 158.027 45.8949 158.496 45.9974C159.279 46.1707 159.783 46.3052 160.008 46.4041C160.232 46.5031 160.435 46.6445 160.615 46.8249C160.92 47.1325 161.074 47.5215 161.074 47.9882C161.074 48.5999 160.804 49.0879 160.26 49.4556C159.72 49.8198 158.998 50.0002 158.096 50.0002C157.195 50.0002 156.452 49.8162 155.908 49.4485C155.365 49.0808 155.092 48.5893 155.092 47.9705C155.092 47.0971 155.628 46.5349 156.697 46.2804C156.27 46.0045 156.056 45.7323 156.056 45.46C156.056 45.2549 156.147 45.064 156.329 44.8978C156.511 44.7317 156.76 44.6043 157.069 44.5266C156.126 44.1058 155.656 43.4269 155.656 42.4864L155.667 42.4898ZM150.136 40.2622V41.0825C150.701 40.4532 151.346 40.1384 152.065 40.1384C152.465 40.1384 152.833 40.241 153.177 40.4496C153.52 40.6582 153.783 40.9411 153.958 41.3054C154.138 41.666 154.226 42.2423 154.226 43.0273V46.7153H152.959V43.0415C152.959 42.3803 152.861 41.9099 152.661 41.6306C152.461 41.3442 152.128 41.2028 151.658 41.2028C151.058 41.2028 150.554 41.5033 150.133 42.108V46.7153H148.839V40.2622H150.133H150.136ZM145.778 40.2622H147.043V46.7153H145.778V40.2622ZM146.402 37.5467C146.611 37.5467 146.788 37.6173 146.938 37.7659C147.085 37.9108 147.163 38.0877 147.163 38.2962C147.163 38.5048 147.085 38.6817 146.938 38.8302C146.788 38.9822 146.611 39.0565 146.402 39.0565C146.205 39.0565 146.036 38.9786 145.89 38.8302C145.739 38.6781 145.665 38.5014 145.665 38.2998C145.665 38.0982 145.739 37.932 145.89 37.7765C146.036 37.6244 146.208 37.5502 146.402 37.5502V37.5467ZM140.107 41.2841L142.484 38.9292V40.2622H144.508V41.4114H142.484V44.5725C142.484 45.3116 142.79 45.6793 143.396 45.6793C143.848 45.6793 144.329 45.5272 144.834 45.216V46.4077C144.346 46.6834 143.817 46.8214 143.242 46.8214C142.667 46.8214 142.179 46.6517 141.797 46.3086C141.674 46.2061 141.577 46.0894 141.499 45.9621C141.422 45.8312 141.355 45.6652 141.299 45.4565C141.246 45.2479 141.222 44.8519 141.222 44.2684V41.4079H140.107V41.2806V41.2841ZM133.854 36.9137H135.12V41.1073C135.649 40.4603 136.305 40.1314 137.091 40.1314C137.516 40.1314 137.897 40.241 138.238 40.4532C138.574 40.6689 138.827 40.9659 138.992 41.3442C139.156 41.7225 139.238 42.2847 139.238 43.0344V46.7082H137.971V42.7161C137.971 42.2459 137.855 41.864 137.628 41.5776C137.396 41.2911 137.094 41.1462 136.719 41.1462C136.442 41.1462 136.179 41.2169 135.933 41.3655C135.689 41.5104 135.415 41.7508 135.12 42.0868V46.7082H133.854V36.9102V36.9137ZM129.555 47.0123C129.131 47.0123 128.78 47.1042 128.506 47.2846C128.236 47.4649 128.099 47.7018 128.099 47.9847C128.099 48.6494 128.692 48.9818 129.881 48.9818C130.442 48.9818 130.877 48.9005 131.185 48.7343C131.494 48.5681 131.648 48.3347 131.648 48.0306C131.648 47.7266 131.452 47.4861 131.063 47.2987C130.673 47.1112 130.169 47.0123 129.552 47.0123H129.555ZM129.853 41.369C129.509 41.369 129.218 41.4821 128.977 41.7191C128.734 41.9524 128.615 42.2353 128.615 42.5606C128.615 42.8859 128.734 43.1653 128.969 43.3844C129.208 43.6036 129.506 43.7097 129.867 43.7097C130.228 43.7097 130.522 43.6002 130.761 43.3773C130.999 43.1546 131.119 42.8789 131.119 42.5465C131.119 42.2141 130.999 41.9277 130.758 41.7048C130.516 41.4785 130.218 41.369 129.853 41.369ZM127.476 42.4898C127.476 41.8039 127.724 41.2594 128.222 40.8598C128.72 40.4603 129.401 40.2622 130.264 40.2622H132.901V41.2594H131.606C131.859 41.514 132.031 41.7508 132.129 41.9595C132.227 42.1716 132.276 42.4085 132.276 42.6808C132.276 43.0167 132.181 43.3491 131.992 43.6744C131.803 43.9997 131.557 44.2472 131.259 44.4205C130.961 44.5937 130.47 44.7316 129.786 44.8342C129.309 44.9048 129.071 45.0675 129.071 45.3328C129.071 45.4812 129.163 45.605 129.338 45.7005C129.516 45.7959 129.839 45.8949 130.309 45.9974C131.091 46.1707 131.596 46.3052 131.82 46.4041C132.045 46.5031 132.248 46.6445 132.427 46.8249C132.732 47.1325 132.886 47.5215 132.886 47.9882C132.886 48.5999 132.616 49.0879 132.072 49.4556C131.533 49.8198 130.81 50.0002 129.909 50.0002C129.008 50.0002 128.265 49.8162 127.721 49.4485C127.177 49.0808 126.904 48.5893 126.904 47.9705C126.904 47.0971 127.44 46.5349 128.509 46.2804C128.082 46.0045 127.868 45.7323 127.868 45.46C127.868 45.2549 127.959 45.064 128.142 44.8978C128.323 44.7317 128.573 44.6043 128.881 44.5266C127.939 44.1058 127.468 43.4269 127.468 42.4864L127.476 42.4898ZM124.708 40.2622H125.974V46.7153H124.708V40.2622ZM125.332 37.5467C125.543 37.5467 125.718 37.6173 125.869 37.7659C126.017 37.9108 126.094 38.0877 126.094 38.2962C126.094 38.5048 126.017 38.6817 125.869 38.8302C125.718 38.9822 125.543 39.0565 125.332 39.0565C125.136 39.0565 124.968 38.9786 124.82 38.8302C124.67 38.6781 124.596 38.5014 124.596 38.2998C124.596 38.0982 124.67 37.932 124.82 37.7765C124.968 37.6244 125.14 37.5502 125.332 37.5502V37.5467ZM121.588 36.9137H122.854V46.7118H121.588V36.9137Z" fill="black"/>
<path fill-rule="evenodd" clip-rule="evenodd" d="M5.15441 5.90356H0.542969V10.8539C0.613105 10.8539 0.68324 10.8574 0.753377 10.8574C3.394 10.8574 5.53666 9.26269 5.53666 7.30026C5.53666 6.80523 5.39989 6.33141 5.15441 5.90356ZM9.96576 5.90356H5.52614C6.24854 6.63197 6.67637 7.53363 6.67637 8.50954C6.67637 10.9423 4.02523 12.9153 0.756884 12.9153C0.686748 12.9153 0.616612 12.9153 0.546476 12.9153V17.9928C0.616612 17.9928 0.686748 17.9928 0.756884 17.9928C6.68689 17.9928 11.4947 14.4181 11.4947 10.0052C11.4947 8.50601 10.9371 7.10225 9.96926 5.90356H9.96576ZM16.8041 5.90356H10.3725C12.6485 7.6786 14.0442 10.0795 14.0442 12.7244C14.0442 18.1838 8.09312 22.6108 0.753377 22.6108C0.68324 22.6108 0.613105 22.6108 0.542969 22.6108V28.2824C0.613105 28.2824 0.68324 28.2824 0.74987 28.2824C11.4246 28.2824 20.0759 21.8471 20.0759 13.9089C20.0759 10.9458 18.866 8.19131 16.8006 5.90356H16.8041ZM28.7868 5.90356H17.2248C21.8118 9.14601 24.6733 13.725 24.6733 18.8026C24.6733 25.5067 19.6867 31.3445 12.3188 34.3784H28.7833V5.90356H28.7868Z" fill="black"/>
</g>
</g>
<defs>
<clipPath id="clip0_20_259">
<rect width="173.913" height="50" fill="white" transform="translate(0.542969)"/>
</clipPath>
</defs>
</svg>
