<svg width="122" height="57" viewBox="0 0 122 57" fill="none" xmlns="http://www.w3.org/2000/svg">
<g clip-path="url(#clip0_653_26)">
<mask id="mask0_653_26" style="mask-type:luminance" maskUnits="userSpaceOnUse" x="0" y="14" width="123" height="36">
<path d="M122.131 14.9978H0V49.9603H122.131V14.9978Z" fill="white"/>
</mask>
<g mask="url(#mask0_653_26)">
<path d="M55.1863 19.4627H57.942V36.2707H62.2343L66.4824 38.7135V19.4627H69.2381V36.2707H73.5306L77.9067 38.7877H55.1887V19.4627H55.1863ZM42.4469 19.1882C45.4243 19.1882 47.9017 20.1327 49.8817 22.0217C51.8568 23.9156 52.8492 26.2843 52.8492 29.1326C52.8492 31.9809 51.8469 34.3397 49.8546 36.2114C47.8549 38.0756 45.3356 39.0102 42.2967 39.0102C39.2578 39.0102 36.9725 38.0756 35.0392 36.2114C33.106 34.3422 32.1432 32.0007 32.1432 29.1894C32.1432 26.3782 33.1159 23.9156 35.0639 22.0217C37.0093 20.1327 39.4696 19.1882 42.4469 19.1882ZM42.5553 21.814C40.3537 21.814 38.5387 22.5088 37.1227 23.8909C35.7017 25.2755 34.9924 27.0408 34.9924 29.187C34.9924 31.3331 35.7017 33.002 37.1276 34.3842C38.5535 35.7688 40.334 36.461 42.474 36.461C44.614 36.461 46.4142 35.754 47.8549 34.3446C49.2931 32.9329 50.0098 31.1774 50.0098 29.0708C50.0098 26.9642 49.2956 25.3027 47.8549 23.9058C46.4168 22.5088 44.6535 21.8091 42.5553 21.8091V21.814ZM33.968 37.7517C32.9657 38.5875 31.6999 39.0102 30.1632 39.0102C28.262 39.0102 26.5332 38.4243 24.9719 37.2548V33.7413C26.4593 35.6303 28.1783 36.5748 30.1361 36.5748C30.9956 36.5748 31.7097 36.3375 32.2836 35.8578C32.6923 36.4339 33.1627 36.9827 33.6971 37.4971C33.7882 37.5861 33.8794 37.6701 33.9729 37.7542L33.968 37.7517ZM30.3356 30.5098L28.5255 29.412C27.208 28.6085 26.2771 27.8172 25.7181 27.0359C25.164 26.2571 24.8857 25.3596 24.8857 24.3458C24.8857 22.8253 25.4127 21.589 26.4667 20.6396C27.5158 19.6902 28.8851 19.213 30.5621 19.213C31.9166 19.213 33.175 19.5369 34.3423 20.1797C34.1305 20.3602 33.9236 20.5456 33.7217 20.7434C33.2834 21.1687 32.8869 21.6162 32.5323 22.086C31.8772 21.8338 31.2024 21.7077 30.5055 21.7077C29.6066 21.7077 28.8678 21.9154 28.2916 22.3357C27.7128 22.756 27.4222 23.2951 27.4222 23.9453C27.4222 24.5264 27.6341 25.0728 28.0576 25.5796C28.4812 26.0889 29.1634 26.6181 30.109 27.172L30.3996 27.3425C30.3183 27.9433 30.2764 28.5639 30.2764 29.2068C30.2764 29.6519 30.2986 30.087 30.338 30.5122L30.3356 30.5098ZM108.88 19.4627H112.214L104.538 28.7889L112.748 38.7902H109.414L102.873 30.7966L96.2462 38.7902H92.8845L101.176 28.7889L93.4929 19.4825V30.4084C93.4929 31.9661 93.3891 33.1084 93.1822 33.8353C92.9754 34.5622 92.712 35.1804 92.3968 35.6822C92.0769 36.1867 91.693 36.6416 91.2297 37.047C89.7152 38.355 87.7031 39.0102 85.1964 39.0102C82.6889 39.0102 80.744 38.3501 79.2196 37.0322C78.7586 36.6366 78.367 36.1867 78.0518 35.6822C77.7365 35.1828 77.4686 34.5523 77.2518 33.7933C77.035 33.0391 76.9266 31.9191 76.9266 30.4307V23.8563L79.6967 19.4627V30.4307C79.6967 31.9562 79.8204 33.0268 80.054 33.6548C80.2929 34.2828 80.6845 34.8268 81.2241 35.2891C82.2531 36.1446 83.5858 36.5723 85.2208 36.5723C86.3681 36.5723 87.3658 36.3597 88.213 35.9295C89.055 35.4993 89.6832 34.9331 90.0992 34.221C90.5129 33.5114 90.7198 32.248 90.7198 30.4307V23.8563L93.483 19.4726L93.4753 19.4627H96.837L102.871 26.8381L108.877 19.4627H108.88Z" fill="#424242"/>
<path d="M110.4 47.8716C110.102 47.8716 109.855 47.9358 109.663 48.062C109.474 48.1881 109.378 48.3537 109.378 48.5515C109.378 49.0163 109.794 49.2487 110.629 49.2487C111.023 49.2487 111.328 49.1919 111.545 49.0757C111.761 48.9594 111.87 48.7963 111.87 48.5836C111.87 48.371 111.732 48.2029 111.458 48.0718C111.185 47.9407 110.831 47.8716 110.397 47.8716M110.607 43.9254C110.365 43.9254 110.161 44.0046 109.991 44.1703C109.821 44.3334 109.737 44.5312 109.737 44.7587C109.737 44.9862 109.821 45.1815 109.986 45.3347C110.153 45.488 110.363 45.5622 110.616 45.5622C110.87 45.5622 111.077 45.4856 111.245 45.3298C111.412 45.1741 111.496 44.9812 111.496 44.7488C111.496 44.5164 111.412 44.3161 111.242 44.1603C111.072 44.0021 110.863 43.9254 110.607 43.9254ZM108.937 44.7092C108.937 44.2295 109.112 43.8488 109.462 43.5694C109.811 43.29 110.289 43.1516 110.895 43.1516H112.744V43.8488H111.835C112.013 44.0268 112.133 44.1924 112.203 44.3384C112.271 44.4867 112.306 44.6524 112.306 44.8428C112.306 45.0776 112.239 45.31 112.106 45.5375C111.974 45.765 111.801 45.9381 111.592 46.0592C111.382 46.1804 111.038 46.2767 110.558 46.3485C110.223 46.3979 110.055 46.5117 110.055 46.6971C110.055 46.801 110.119 46.8875 110.242 46.9543C110.368 47.021 110.594 47.0902 110.924 47.1619C111.474 47.2831 111.828 47.3771 111.986 47.4462C112.143 47.5155 112.286 47.6144 112.412 47.7405C112.626 47.9556 112.735 48.2276 112.735 48.5539C112.735 48.9817 112.545 49.3229 112.163 49.58C111.784 49.8347 111.277 49.9608 110.643 49.9608C110.01 49.9608 109.488 49.8322 109.107 49.5751C108.725 49.318 108.533 48.9743 108.533 48.5416C108.533 47.9309 108.91 47.5378 109.661 47.3598C109.361 47.1668 109.21 46.9765 109.21 46.7861C109.21 46.6427 109.275 46.5092 109.402 46.393C109.53 46.2768 109.705 46.1877 109.922 46.1334C109.259 45.8392 108.929 45.3645 108.929 44.7068L108.937 44.7092ZM105.053 43.1516V43.7252C105.45 43.2851 105.903 43.065 106.407 43.065C106.688 43.065 106.947 43.1367 107.188 43.2826C107.43 43.4284 107.614 43.6263 107.737 43.881C107.863 44.1332 107.925 44.5361 107.925 45.0851V47.6638H107.036V45.0949C107.036 44.6326 106.967 44.3037 106.827 44.1084C106.686 43.9081 106.452 43.8092 106.122 43.8092C105.701 43.8092 105.346 44.0194 105.051 44.4422V47.6638H104.142V43.1516H105.051H105.053ZM101.992 43.1516H102.881V47.6638H101.992V43.1516ZM102.431 41.2527C102.578 41.2527 102.702 41.3021 102.807 41.406C102.911 41.5073 102.965 41.631 102.965 41.7768C102.965 41.9227 102.911 42.0464 102.807 42.1502C102.702 42.2565 102.578 42.3084 102.431 42.3084C102.292 42.3084 102.174 42.254 102.071 42.1502C101.965 42.0438 101.913 41.9203 101.913 41.7793C101.913 41.6384 101.965 41.5221 102.071 41.4134C102.174 41.3071 102.295 41.2551 102.431 41.2551V41.2527ZM98.0103 43.8661L99.6796 42.2194V43.1516H101.101V43.9551H99.6796V46.1656C99.6796 46.6823 99.8941 46.9394 100.32 46.9394C100.638 46.9394 100.975 46.8331 101.33 46.6155V47.4488C100.987 47.6416 100.615 47.738 100.212 47.738C99.8079 47.738 99.4651 47.6194 99.1972 47.3795C99.111 47.3078 99.0423 47.2262 98.9881 47.1372C98.9339 47.0457 98.8866 46.9296 98.8476 46.7836C98.8102 46.6378 98.7934 46.3609 98.7934 45.9529V43.9527H98.0103V43.8636V43.8661ZM93.6189 40.8101H94.5082V43.7425C94.8799 43.29 95.3402 43.06 95.8921 43.06C96.1905 43.06 96.4584 43.1367 96.6974 43.2851C96.934 43.4359 97.1111 43.6436 97.2271 43.9081C97.3424 44.1727 97.3996 44.5658 97.3996 45.09V47.6589H96.5103V44.8675C96.5103 44.5387 96.4287 44.2716 96.2691 44.0713C96.1065 43.871 95.8943 43.7697 95.631 43.7697C95.4364 43.7697 95.2516 43.8191 95.0791 43.923C94.9074 44.0243 94.715 44.1924 94.5082 44.4274V47.6589H93.6189V40.8076V40.8101ZM90.6 47.8716C90.3023 47.8716 90.0557 47.9358 89.8634 48.062C89.6741 48.1881 89.5779 48.3537 89.5779 48.5515C89.5779 49.0163 89.9939 49.2487 90.829 49.2487C91.2229 49.2487 91.5282 49.1919 91.745 49.0757C91.9617 48.9594 92.0701 48.7963 92.0701 48.5836C92.0701 48.371 91.932 48.2029 91.6587 48.0718C91.3854 47.9407 91.0313 47.8716 90.5977 47.8716H90.6ZM90.8091 43.9254C90.5679 43.9254 90.3634 44.0046 90.1939 44.1703C90.0237 44.3334 89.9397 44.5312 89.9397 44.7587C89.9397 44.9862 90.0237 45.1815 90.1886 45.3347C90.3565 45.488 90.5656 45.5622 90.8191 45.5622C91.0725 45.5622 91.2793 45.4856 91.4473 45.3298C91.6144 45.1741 91.6984 44.9812 91.6984 44.7488C91.6984 44.5164 91.6144 44.3161 91.445 44.1603C91.2748 44.0021 91.0656 43.9254 90.8091 43.9254ZM89.1398 44.7092C89.1398 44.2295 89.3146 43.8488 89.6642 43.5694C90.0138 43.29 90.4916 43.1516 91.0977 43.1516H92.9495V43.8488H92.0404C92.2182 44.0268 92.3388 44.1924 92.4075 44.3384C92.4762 44.4867 92.5106 44.6524 92.5106 44.8428C92.5106 45.0776 92.4442 45.31 92.3113 45.5375C92.1785 45.765 92.006 45.9381 91.7969 46.0592C91.5877 46.1804 91.2427 46.2767 90.7626 46.3485C90.4275 46.3979 90.2603 46.5117 90.2603 46.6971C90.2603 46.801 90.3244 46.8875 90.4473 46.9543C90.5725 47.021 90.7992 47.0902 91.1297 47.1619C91.6786 47.2831 92.0335 47.3771 92.1907 47.4462C92.3487 47.5155 92.4915 47.6144 92.6167 47.7405C92.8312 47.9556 92.9396 48.2276 92.9396 48.5539C92.9396 48.9817 92.7495 49.3229 92.3678 49.58C91.9892 49.8347 91.4816 49.9608 90.8488 49.9608C90.216 49.9608 89.6939 49.8322 89.3123 49.5751C88.9299 49.318 88.7383 48.9743 88.7383 48.5416C88.7383 47.9309 89.1146 47.5378 89.8657 47.3598C89.5657 47.1668 89.4153 46.9765 89.4153 46.7861C89.4153 46.6427 89.4794 46.5092 89.6077 46.393C89.7352 46.2768 89.9107 46.1877 90.1267 46.1334C89.4649 45.8392 89.1344 45.3645 89.1344 44.7068L89.1398 44.7092ZM87.1964 43.1516H88.0856V47.6638H87.1964V43.1516ZM87.6345 41.2527C87.7826 41.2527 87.9055 41.3021 88.0116 41.406C88.1154 41.5073 88.1696 41.631 88.1696 41.7768C88.1696 41.9227 88.1154 42.0464 88.0116 42.1502C87.9055 42.2565 87.7826 42.3084 87.6345 42.3084C87.4971 42.3084 87.3788 42.254 87.275 42.1502C87.1696 42.0438 87.1177 41.9203 87.1177 41.7793C87.1177 41.6384 87.1696 41.5221 87.275 41.4134C87.3788 41.3071 87.4994 41.2551 87.6345 41.2551V41.2527ZM85.0049 40.8101H85.8941V47.6614H85.0049V40.8101Z" fill="#424242"/>
<path fill-rule="evenodd" clip-rule="evenodd" d="M3.23839 19.1257H0V22.5872C0.0492531 22.5872 0.098506 22.5897 0.14776 22.5897C2.00214 22.5897 3.50683 21.4746 3.50683 20.1024C3.50683 19.7562 3.41078 19.4249 3.23839 19.1257ZM6.61717 19.1257H3.49944C4.00675 19.6351 4.30719 20.2656 4.30719 20.948C4.30719 22.6491 2.44542 24.0287 0.150222 24.0287C0.100969 24.0287 0.0517158 24.0287 0.00246266 24.0287V27.5792C0.0517158 27.5792 0.100969 27.5792 0.150222 27.5792C4.31458 27.5792 7.69087 25.0795 7.69087 21.9938C7.69087 20.9455 7.29932 19.9639 6.61962 19.1257H6.61717ZM11.4194 19.1257H6.90283C8.50113 20.3669 9.48123 22.0458 9.48123 23.8952C9.48123 27.7127 5.3021 30.8083 0.14776 30.8083C0.098506 30.8083 0.0492531 30.8083 0 30.8083V34.7742C0.0492531 34.7742 0.098506 34.7742 0.145296 34.7742C7.64164 34.7742 13.717 30.2742 13.717 24.7235C13.717 22.6515 12.8674 20.7254 11.4169 19.1257H11.4194ZM19.8342 19.1257H11.7148C14.936 21.393 16.9455 24.5949 16.9455 28.1454C16.9455 32.8333 13.4437 36.9153 8.26962 39.0368H19.8318V19.1257H19.8342Z" fill="#424242"/>
<path d="M117.444 17.7616H118.225C118.599 17.7616 118.853 17.7072 118.988 17.5959C119.124 17.4847 119.192 17.3363 119.192 17.1558C119.192 17.0371 119.158 16.9308 119.094 16.8393C119.028 16.7454 118.939 16.6762 118.823 16.6317C118.705 16.5871 118.49 16.5624 118.175 16.5624H117.444V17.7641V17.7616ZM116.801 20.014V16.016H118.173C118.643 16.016 118.98 16.0531 119.19 16.1273C119.402 16.2014 119.567 16.33 119.692 16.5154C119.815 16.6984 119.879 16.8937 119.879 17.1014C119.879 17.3932 119.776 17.6479 119.567 17.863C119.36 18.0805 119.082 18.2017 118.737 18.2289C118.877 18.2882 118.99 18.3575 119.074 18.4415C119.234 18.5973 119.431 18.8618 119.665 19.2352L120.15 20.0165H119.37L119.015 19.386C118.737 18.889 118.51 18.5775 118.341 18.4539C118.222 18.3624 118.052 18.3179 117.825 18.3204H117.446V20.0165H116.803L116.801 20.014ZM118.429 14.8539C117.907 14.8539 117.399 14.9874 116.907 15.2569C116.415 15.524 116.028 15.9072 115.75 16.4067C115.471 16.9036 115.333 17.4229 115.333 17.9619C115.333 18.5009 115.471 19.0127 115.745 19.5022C116.018 19.9942 116.4 20.3775 116.89 20.6519C117.38 20.9264 117.895 21.0648 118.429 21.0648C118.963 21.0648 119.476 20.9264 119.966 20.6519C120.456 20.3775 120.84 19.9942 121.111 19.5022C121.382 19.0102 121.517 18.4984 121.517 17.9619C121.517 17.4253 121.379 16.9061 121.101 16.4067C120.825 15.9097 120.438 15.524 119.944 15.2569C119.448 14.9899 118.944 14.8539 118.427 14.8539H118.429ZM118.429 14.2383C119.052 14.2383 119.658 14.399 120.251 14.7204C120.842 15.0394 121.305 15.4993 121.635 16.0951C121.966 16.6935 122.13 17.3141 122.13 17.9619C122.13 18.6096 121.968 19.2204 121.64 19.8113C121.315 20.4047 120.86 20.8621 120.271 21.1885C119.683 21.5173 119.067 21.6805 118.427 21.6805C117.786 21.6805 117.17 21.5173 116.582 21.1885C115.993 20.8621 115.535 20.4022 115.21 19.8113C114.883 19.2204 114.72 18.6022 114.72 17.9619C114.72 17.3215 114.885 16.6935 115.218 16.0951C115.55 15.4993 116.013 15.0394 116.604 14.7204C117.198 14.399 117.803 14.2383 118.427 14.2383H118.429Z" fill="#424242"/>
</g>
</g>
<defs>
<clipPath id="clip0_653_26">
<rect width="122" height="35" fill="white" transform="translate(0 15)"/>
</clipPath>
</defs>
</svg>
