<svg width="122" height="35" viewBox="0 0 122 35" fill="none" xmlns="http://www.w3.org/2000/svg">
<g clip-path="url(#clip0_477_78)">
<mask id="mask0_477_78" style="mask-type:luminance" maskUnits="userSpaceOnUse" x="0" y="0" width="122" height="35">
<path d="M122 0H0V35H122V0Z" fill="white"/>
</mask>
<g mask="url(#mask0_477_78)">
<path d="M55.1268 4.46909H57.8796V21.2951H62.1674L66.4109 23.7406V4.46909H69.1637V21.2951H73.4515L77.823 23.8148H55.1293V4.46909H55.1268ZM42.4011 4.19435C45.3753 4.19435 47.8501 5.13986 49.8279 7.03086C51.8009 8.92683 52.7923 11.298 52.7923 14.1494C52.7923 17.0007 51.791 19.362 49.8008 21.2357C47.8033 23.102 45.2867 24.0375 42.251 24.0375C39.2154 24.0375 36.9325 23.102 35.0013 21.2357C33.0702 19.3645 32.1084 17.0206 32.1084 14.2063C32.1084 11.392 33.0801 8.92683 35.026 7.03086C36.9693 5.13986 39.427 4.19435 42.4011 4.19435ZM42.5094 6.82295C40.3101 6.82295 38.4971 7.51846 37.0826 8.9021C35.6631 10.2882 34.9546 12.0554 34.9546 14.2038C34.9546 16.3522 35.6631 18.0229 37.0875 19.4066C38.5118 20.7927 40.2904 21.4857 42.4282 21.4857C44.5659 21.4857 46.3642 20.7778 47.8033 19.3669C49.2399 17.9537 49.9559 16.1963 49.9559 14.0875C49.9559 11.9787 49.2425 10.3154 47.8033 8.91694C46.3667 7.51847 44.6053 6.818 42.5094 6.818V6.82295ZM33.9312 22.7777C32.93 23.6143 31.6655 24.0375 30.1305 24.0375C28.2314 24.0375 26.5044 23.451 24.9448 22.2802V18.763C26.4306 20.654 28.1477 21.5996 30.1035 21.5996C30.962 21.5996 31.6754 21.3619 32.2486 20.8818C32.6569 21.4585 33.1268 22.0079 33.6606 22.5228C33.7517 22.6119 33.8427 22.6961 33.9362 22.7802L33.9312 22.7777ZM30.3027 15.5281L28.4946 14.4291C27.1785 13.6247 26.2486 12.8326 25.6901 12.0504C25.1366 11.2708 24.8587 10.3723 24.8587 9.35748C24.8587 7.83528 25.3851 6.59771 26.438 5.64726C27.486 4.6968 28.8537 4.2191 30.529 4.2191C31.882 4.2191 33.1391 4.54334 34.3052 5.18688C34.0936 5.36757 33.8869 5.5532 33.6852 5.75122C33.2473 6.17694 32.8513 6.62494 32.497 7.09522C31.8427 6.84275 31.1686 6.71652 30.4725 6.71652C29.5745 6.71652 28.8365 6.92443 28.2609 7.34521C27.6828 7.76597 27.3925 8.30558 27.3925 8.9565C27.3925 9.53819 27.6041 10.0852 28.0272 10.5926C28.4503 11.1025 29.1318 11.6322 30.0764 12.1866L30.3667 12.3574C30.2855 12.9588 30.2436 13.5801 30.2436 14.2236C30.2436 14.6692 30.2658 15.1048 30.3052 15.5305L30.3027 15.5281ZM108.763 4.46909H112.094L104.426 13.8053L112.627 23.8173H109.297L102.763 15.8151L96.1428 23.8173H92.7848L101.068 13.8053L93.3925 4.4889V15.4266C93.3925 16.9859 93.2888 18.1294 93.0822 18.8571C92.8755 19.5848 92.6125 20.2036 92.2976 20.706C91.9781 21.211 91.5945 21.6664 91.1317 22.0723C89.6189 23.3817 87.6089 24.0375 85.1049 24.0375C82.6001 24.0375 80.6572 23.3767 79.1345 22.0575C78.674 21.6614 78.2828 21.211 77.9679 20.706C77.653 20.206 77.3853 19.5749 77.1688 18.815C76.9522 18.0601 76.844 16.9389 76.844 15.4488V8.8674L79.6111 4.46909V15.4488C79.6111 16.976 79.7346 18.0478 79.9679 18.6764C80.2066 19.3051 80.5978 19.8496 81.1368 20.3125C82.1647 21.1689 83.496 21.5971 85.1293 21.5971C86.2753 21.5971 87.2719 21.3842 88.1183 20.9535C88.9593 20.5229 89.5869 19.9561 90.0024 19.2432C90.4157 18.5329 90.6223 17.2681 90.6223 15.4488V8.8674L93.3826 4.47899L93.375 4.46909H96.733L102.761 11.8524L108.76 4.46909H108.763Z" fill="#424242"/>
<path d="M110.28 32.9085C109.983 32.9085 109.737 32.9728 109.545 33.0991C109.355 33.2253 109.259 33.3911 109.259 33.5892C109.259 34.0545 109.675 34.2871 110.509 34.2871C110.903 34.2871 111.208 34.2302 111.424 34.1139C111.641 33.9976 111.749 33.8342 111.749 33.6213C111.749 33.4085 111.611 33.2402 111.338 33.109C111.065 32.9778 110.711 32.9085 110.278 32.9085M110.487 28.9582C110.246 28.9582 110.042 29.0374 109.872 29.2032C109.702 29.3666 109.619 29.5646 109.619 29.7923C109.619 30.02 109.702 30.2156 109.867 30.369C110.034 30.5224 110.244 30.5967 110.497 30.5967C110.75 30.5967 110.957 30.52 111.124 30.364C111.291 30.2081 111.375 30.0151 111.375 29.7824C111.375 29.5497 111.291 29.3493 111.121 29.1933C110.952 29.0349 110.743 28.9582 110.487 28.9582ZM108.819 29.7428C108.819 29.2626 108.994 28.8815 109.343 28.6018C109.693 28.3221 110.17 28.1834 110.775 28.1834H112.622V28.8815H111.715C111.892 29.0597 112.012 29.2255 112.081 29.3715C112.15 29.52 112.184 29.6859 112.184 29.8765C112.184 30.1116 112.118 30.3442 111.985 30.572C111.853 30.7997 111.68 30.9729 111.471 31.0942C111.262 31.2155 110.918 31.312 110.438 31.3838C110.103 31.4333 109.936 31.5472 109.936 31.7328C109.936 31.8368 110 31.9234 110.123 31.9902C110.248 32.057 110.475 32.1263 110.804 32.1981C111.353 32.3194 111.707 32.4135 111.865 32.4827C112.022 32.5521 112.165 32.651 112.29 32.7773C112.505 32.9927 112.613 33.2649 112.613 33.5916C112.613 34.0198 112.423 34.3614 112.042 34.6188C111.663 34.8738 111.157 35 110.524 35C109.892 35 109.37 34.8713 108.989 34.6139C108.607 34.3565 108.416 34.0124 108.416 33.5792C108.416 32.9679 108.792 32.5743 109.542 32.3962C109.243 32.203 109.092 32.0125 109.092 31.8219C109.092 31.6783 109.156 31.5447 109.284 31.4283C109.412 31.3121 109.587 31.2229 109.803 31.1685C109.141 30.874 108.812 30.3987 108.812 29.7403L108.819 29.7428ZM104.94 28.1834V28.7577C105.336 28.3171 105.789 28.0968 106.293 28.0968C106.573 28.0968 106.832 28.1686 107.073 28.3146C107.314 28.4606 107.498 28.6587 107.621 28.9137C107.747 29.1661 107.808 29.5695 107.808 30.119V32.7006H106.92V30.1289C106.92 29.6661 106.851 29.3368 106.711 29.1413C106.571 28.9408 106.337 28.8418 106.007 28.8418C105.586 28.8418 105.233 29.0522 104.938 29.4755V32.7006H104.029V28.1834H104.938H104.94ZM101.882 28.1834H102.77V32.7006H101.882V28.1834ZM102.32 26.2826C102.467 26.2826 102.591 26.332 102.696 26.436C102.8 26.5375 102.854 26.6612 102.854 26.8073C102.854 26.9533 102.8 27.0771 102.696 27.181C102.591 27.2874 102.467 27.3394 102.32 27.3394C102.182 27.3394 102.064 27.2849 101.961 27.181C101.855 27.0746 101.803 26.9508 101.803 26.8098C101.803 26.6686 101.855 26.5523 101.961 26.4434C102.064 26.337 102.184 26.285 102.32 26.285V26.2826ZM97.9043 28.8987L99.5718 27.2503V28.1834H100.992V28.9878H99.5718V31.2007C99.5718 31.718 99.7861 31.9754 100.212 31.9754C100.529 31.9754 100.866 31.8689 101.22 31.6511V32.4853C100.878 32.6783 100.507 32.7748 100.103 32.7748C99.6999 32.7748 99.3576 32.6561 99.0899 32.4159C99.0038 32.3442 98.9351 32.2625 98.881 32.1734C98.8269 32.0818 98.7796 31.9655 98.7407 31.8194C98.7034 31.6734 98.6866 31.3962 98.6866 30.9878V28.9854H97.9043V28.8963V28.8987ZM93.5176 25.8395H94.4059V28.775C94.7772 28.3221 95.237 28.0918 95.7883 28.0918C96.0865 28.0918 96.3541 28.1686 96.5928 28.3171C96.8291 28.4681 97.006 28.676 97.1219 28.9408C97.2371 29.2057 97.2943 29.5992 97.2943 30.124V32.6956H96.4059V29.9012C96.4059 29.572 96.3244 29.3047 96.165 29.1042C96.0026 28.9037 95.7906 28.8023 95.5275 28.8023C95.3331 28.8023 95.1486 28.8517 94.9763 28.9557C94.8047 29.0572 94.6125 29.2255 94.4059 29.4606V32.6956H93.5176V25.837V25.8395ZM90.5019 32.9085C90.2045 32.9085 89.9582 32.9728 89.7661 33.0991C89.577 33.2253 89.4809 33.3911 89.4809 33.5892C89.4809 34.0545 89.8965 34.2871 90.7307 34.2871C91.1241 34.2871 91.4291 34.2302 91.6457 34.1139C91.8622 33.9976 91.9705 33.8342 91.9705 33.6213C91.9705 33.4085 91.8325 33.2402 91.5595 33.109C91.2865 32.9778 90.9327 32.9085 90.4996 32.9085H90.5019ZM90.7108 28.9582C90.4699 28.9582 90.2655 29.0374 90.0963 29.2032C89.9262 29.3666 89.8423 29.5646 89.8423 29.7923C89.8423 30.02 89.9262 30.2156 90.0909 30.369C90.2587 30.5224 90.4676 30.5967 90.7207 30.5967C90.9739 30.5967 91.1805 30.52 91.3483 30.364C91.5153 30.2081 91.5991 30.0151 91.5991 29.7824C91.5991 29.5497 91.5153 29.3493 91.346 29.1933C91.176 29.0349 90.967 28.9582 90.7108 28.9582ZM89.0432 29.7428C89.0432 29.2626 89.2179 28.8815 89.5671 28.6018C89.9163 28.3221 90.3936 28.1834 90.9991 28.1834H92.8489V28.8815H91.9407C92.1184 29.0597 92.2389 29.2255 92.3075 29.3715C92.3761 29.52 92.4104 29.6859 92.4104 29.8765C92.4104 30.1116 92.3441 30.3442 92.2114 30.572C92.0788 30.7997 91.9064 30.9729 91.6975 31.0942C91.4886 31.2155 91.1439 31.312 90.6643 31.3838C90.3296 31.4333 90.1626 31.5472 90.1626 31.7328C90.1626 31.8368 90.2266 31.9234 90.3494 31.9902C90.4745 32.057 90.7009 32.1263 91.0311 32.1981C91.5793 32.3194 91.9339 32.4135 92.091 32.4827C92.2488 32.5521 92.3914 32.651 92.5164 32.7773C92.7307 32.9927 92.839 33.2649 92.839 33.5916C92.839 34.0198 92.6491 34.3614 92.2679 34.6188C91.8897 34.8738 91.3826 35 90.7505 35C90.1184 35 89.5968 34.8713 89.2156 34.6139C88.8336 34.3565 88.6422 34.0124 88.6422 33.5792C88.6422 32.9679 89.0181 32.5743 89.7684 32.3962C89.4687 32.203 89.3185 32.0125 89.3185 31.8219C89.3185 31.6783 89.3826 31.5447 89.5107 31.4283C89.638 31.3121 89.8134 31.2229 90.0292 31.1685C89.3681 30.874 89.0379 30.3987 89.0379 29.7403L89.0432 29.7428ZM87.1019 28.1834H87.9902V32.7006H87.1019V28.1834ZM87.5396 26.2826C87.6875 26.2826 87.8103 26.332 87.9163 26.436C88.02 26.5375 88.0741 26.6612 88.0741 26.8073C88.0741 26.9533 88.02 27.0771 87.9163 27.181C87.8103 27.2874 87.6875 27.3394 87.5396 27.3394C87.4023 27.3394 87.2842 27.2849 87.1805 27.181C87.0752 27.0746 87.0234 26.9508 87.0234 26.8098C87.0234 26.6686 87.0752 26.5523 87.1805 26.4434C87.2842 26.337 87.4046 26.285 87.5396 26.285V26.2826ZM84.9128 25.8395H85.8011V32.6981H84.9128V25.8395Z" fill="#424242"/>
<path fill-rule="evenodd" clip-rule="evenodd" d="M3.23493 4.13249H0V7.59769C0.0492005 7.59769 0.0984006 7.60017 0.147602 7.60017C2 7.60017 3.50308 6.48388 3.50308 5.11018C3.50308 4.76365 3.40713 4.43198 3.23493 4.13249ZM6.61009 4.13249H3.4957C4.00246 4.64237 4.30258 5.27353 4.30258 5.95667C4.30258 7.6596 2.44281 9.04073 0.150062 9.04073C0.100861 9.04073 0.0516605 9.04073 0.00246002 9.04073V12.595C0.0516605 12.595 0.100861 12.595 0.150062 12.595C4.30996 12.595 7.68265 10.0926 7.68265 7.00366C7.68265 5.9542 7.29151 4.97157 6.61255 4.13249H6.61009ZM11.4072 4.13249H6.89545C8.49204 5.37501 9.47109 7.05563 9.47109 8.90704C9.47109 12.7287 5.29643 15.8275 0.147602 15.8275C0.0984006 15.8275 0.0492005 15.8275 0 15.8275V19.7977C0.0492005 19.7977 0.0984006 19.7977 0.145141 19.7977C7.63346 19.7977 13.7024 15.2929 13.7024 9.73624C13.7024 7.66203 12.8536 5.73391 11.4047 4.13249H11.4072ZM19.813 4.13249H11.7023C14.9201 6.4022 16.9274 9.6075 16.9274 13.1618C16.9274 17.8547 13.4293 21.9411 8.26077 24.0649H19.8106V4.13249H19.813Z" fill="#424242"/>
<path d="M117.318 2.76621H118.098C118.472 2.76621 118.726 2.71175 118.861 2.60038C118.997 2.48899 119.065 2.34049 119.065 2.1598C119.065 2.04099 119.031 1.93456 118.967 1.84298C118.9 1.74893 118.812 1.67962 118.696 1.63507C118.578 1.59051 118.364 1.56576 118.049 1.56576H117.318V2.76868V2.76621ZM116.676 5.02106V1.01876H118.046C118.516 1.01876 118.853 1.05589 119.063 1.13014C119.274 1.2044 119.439 1.3331 119.565 1.51873C119.687 1.7019 119.751 1.89743 119.751 2.10535C119.751 2.39742 119.648 2.65235 119.439 2.86769C119.232 3.0855 118.955 3.20678 118.61 3.23401C118.75 3.29342 118.863 3.36272 118.947 3.44688C119.107 3.60281 119.304 3.86764 119.537 4.24139L120.022 5.02354H119.242L118.888 4.39238C118.61 3.89488 118.383 3.583 118.214 3.45925C118.096 3.36767 117.926 3.32312 117.7 3.32559H117.321V5.02354H116.679L116.676 5.02106ZM118.303 -0.144559C117.781 -0.144559 117.274 -0.0109011 116.782 0.25889C116.29 0.526205 115.904 0.909856 115.626 1.40983C115.348 1.90733 115.21 2.42711 115.21 2.9667C115.21 3.50628 115.348 4.01863 115.621 4.50871C115.894 5.00126 116.275 5.38491 116.765 5.65965C117.254 5.9344 117.769 6.073 118.303 6.073C118.836 6.073 119.348 5.9344 119.838 5.65965C120.327 5.38491 120.711 5.00126 120.981 4.50871C121.252 4.01616 121.387 3.5038 121.387 2.9667C121.387 2.42959 121.25 1.90981 120.971 1.40983C120.696 0.912329 120.31 0.526205 119.815 0.25889C119.321 -0.00842589 118.817 -0.144559 118.3 -0.144559H118.303ZM118.303 -0.76087C118.925 -0.76087 119.53 -0.599985 120.123 -0.278216C120.713 0.0410769 121.176 0.501453 121.505 1.09797C121.835 1.69694 122 2.31821 122 2.9667C122 3.61518 121.838 4.22655 121.51 4.8181C121.186 5.41214 120.73 5.87004 120.143 6.19676C119.555 6.52596 118.939 6.68931 118.3 6.68931C117.661 6.68931 117.045 6.52596 116.457 6.19676C115.87 5.87004 115.412 5.40966 115.087 4.8181C114.76 4.22655 114.598 3.60776 114.598 2.9667C114.598 2.32564 114.762 1.69694 115.095 1.09797C115.426 0.501453 115.889 0.0410769 116.479 -0.278216C117.073 -0.599985 117.677 -0.76087 118.3 -0.76087H118.303Z" fill="#424242"/>
</g>
</g>
<defs>
<clipPath id="clip0_477_78">
<rect width="122" height="35" fill="white"/>
</clipPath>
</defs>
</svg>
