<svg width="104" height="33" viewBox="0 0 104 33" fill="none" xmlns="http://www.w3.org/2000/svg">
<mask id="mask0_758_309" style="mask-type:luminance" maskUnits="userSpaceOnUse" x="0" y="-1" width="104" height="33">
<path d="M104 -0.0138245H0V31.3195H104V-0.0138245Z" fill="white"/>
</mask>
<g mask="url(#mask0_758_309)">
<path d="M46.9939 4.4827H49.3406V18.905H52.9957L56.6131 21.0011V4.4827H58.9598V18.905H62.615L66.3415 21.0648H46.996V4.4827H46.9939ZM36.1458 4.24721C38.6811 4.24721 40.7908 5.05764 42.4768 6.67851C44.1587 8.30362 45.0038 10.3361 45.0038 12.7801C45.0038 15.2241 44.1503 17.2481 42.4537 18.8541C40.7509 20.4537 38.6056 21.2557 36.0178 21.2557C33.4301 21.2557 31.484 20.4537 29.8378 18.8541C28.1916 17.2502 27.3717 15.2411 27.3717 12.8289C27.3717 10.4167 28.2 8.30362 29.8588 6.67851C31.5154 5.05764 33.6104 4.24721 36.1458 4.24721ZM36.2381 6.5003C34.3633 6.5003 32.8178 7.09645 31.6119 8.28242C30.4019 9.47049 29.7979 10.9852 29.7979 12.8268C29.7979 14.6682 30.4019 16.1003 31.6161 17.2863C32.8303 18.4743 34.3465 19.0683 36.1688 19.0683C37.9912 19.0683 39.5241 18.4616 40.7509 17.2523C41.9756 16.0409 42.5859 14.5346 42.5859 12.7271C42.5859 10.9195 41.9778 9.49384 40.7509 8.29514C39.5263 7.09645 38.0248 6.49605 36.2381 6.49605V6.5003ZM28.9256 20.1758C28.072 20.8929 26.9941 21.2557 25.6856 21.2557C24.0667 21.2557 22.5945 20.7529 21.265 19.7494V16.7347C22.5316 18.3555 23.9954 19.166 25.6626 19.166C26.3944 19.166 27.0025 18.9623 27.4912 18.5507C27.8393 19.0451 28.2398 19.516 28.6949 19.9573C28.7725 20.0337 28.8501 20.1058 28.9298 20.1779L28.9256 20.1758ZM25.8324 13.9618L24.2911 13.0198C23.1691 12.3303 22.3764 11.6514 21.9004 10.981C21.4285 10.3127 21.1916 9.54262 21.1916 8.67275C21.1916 7.36801 21.6404 6.30724 22.5379 5.49256C23.4312 4.67788 24.5972 4.26842 26.0253 4.26842C27.1787 4.26842 28.2503 4.54635 29.2443 5.09795C29.0639 5.25283 28.8878 5.41194 28.7159 5.58167C28.3426 5.94657 28.005 6.33057 27.703 6.73367C27.1451 6.51727 26.5705 6.40907 25.9771 6.40907C25.2117 6.40907 24.5825 6.58728 24.0918 6.94794C23.599 7.3086 23.3515 7.77112 23.3515 8.32905C23.3515 8.82764 23.5319 9.29649 23.8926 9.73142C24.2533 10.1684 24.8342 10.6225 25.6395 11.0977L25.8869 11.2441C25.8177 11.7596 25.782 12.2921 25.782 12.8437C25.782 13.2256 25.8009 13.599 25.8345 13.9639L25.8324 13.9618ZM92.7165 4.4827H95.5557L89.0193 12.4852L96.0107 21.0669H93.1715L87.6017 14.2079L81.9584 21.0669H79.0958L86.1568 12.4852L79.6139 4.49968V13.8748C79.6139 15.2114 79.5254 16.1915 79.3493 16.8153C79.1731 17.439 78.9489 17.9694 78.6804 18.4001C78.4081 18.8329 78.0812 19.2232 77.6866 19.5712C76.397 20.6935 74.6836 21.2557 72.549 21.2557C70.4138 21.2557 68.7576 20.6892 67.4595 19.5584C67.0669 19.219 66.7335 18.8329 66.465 18.4001C66.1966 17.9715 65.9684 17.4305 65.7838 16.7792C65.5992 16.1321 65.5069 15.1711 65.5069 13.8939V8.25268L67.8658 4.4827V13.8939C67.8658 15.2029 67.9711 16.1216 68.17 16.6604C68.3734 17.1993 68.7069 17.666 69.1664 18.0627C70.0426 18.7968 71.1775 19.1638 72.5698 19.1638C73.5467 19.1638 74.3963 18.9814 75.1178 18.6122C75.8348 18.2431 76.3697 17.7573 76.724 17.1462C77.0763 16.5374 77.2524 15.4533 77.2524 13.8939V8.25268L79.6054 4.49119L79.5989 4.4827H82.4615L87.5998 10.8113L92.714 4.4827H92.7165Z" fill="#202020"/>
<path d="M94.0089 28.8593C93.7554 28.8593 93.5455 28.9144 93.3817 29.0227C93.2205 29.1309 93.1386 29.273 93.1386 29.4427C93.1386 29.8415 93.4928 30.041 94.2039 30.041C94.5393 30.041 94.7993 29.9922 94.9839 29.8925C95.1685 29.7928 95.2608 29.6527 95.2608 29.4703C95.2608 29.2878 95.1432 29.1436 94.9105 29.0311C94.6778 28.9186 94.3762 28.8593 94.007 28.8593M94.1851 25.4733C93.9797 25.4733 93.8055 25.5412 93.6605 25.6833C93.5162 25.8234 93.4447 25.9931 93.4447 26.1883C93.4447 26.3834 93.5162 26.5511 93.6566 26.6825C93.799 26.8141 93.9777 26.8777 94.1935 26.8777C94.4093 26.8777 94.5855 26.812 94.7285 26.6783C94.8708 26.5447 94.9423 26.3792 94.9423 26.1798C94.9423 25.9803 94.8708 25.8085 94.7259 25.6748C94.5816 25.539 94.4035 25.4733 94.1851 25.4733ZM92.7635 26.1458C92.7635 25.7342 92.9124 25.4075 93.2101 25.1678C93.5078 24.9281 93.9147 24.8092 94.4308 24.8092H96.0051V25.4075H95.2316C95.3824 25.5603 95.4851 25.7024 95.5442 25.8276C95.6027 25.9548 95.632 26.097 95.632 26.2604C95.632 26.4619 95.5754 26.6613 95.4623 26.8565C95.3492 27.0517 95.2023 27.2002 95.0242 27.3042C94.8455 27.4081 94.5523 27.4908 94.1435 27.5524C93.8581 27.5948 93.7151 27.6924 93.7151 27.8516C93.7151 27.9406 93.7697 28.0149 93.875 28.0722C93.9816 28.1294 94.1747 28.1889 94.4555 28.2504C94.9235 28.3543 95.2251 28.435 95.3596 28.4943C95.4935 28.5538 95.6151 28.6386 95.7223 28.7469C95.905 28.9314 95.9973 29.1648 95.9973 29.4448C95.9973 29.8119 95.8354 30.1046 95.5104 30.3253C95.1874 30.5438 94.7558 30.652 94.2163 30.652C93.6774 30.652 93.2328 30.5416 92.9078 30.321C92.5828 30.1004 92.4197 29.8055 92.4197 29.4342C92.4197 28.9102 92.7401 28.5729 93.3797 28.4201C93.1243 28.2546 92.9962 28.0913 92.9962 27.9279C92.9962 27.8049 93.0508 27.6903 93.1594 27.5906C93.2686 27.4909 93.4174 27.4145 93.602 27.3678C93.0378 27.1154 92.757 26.708 92.757 26.1437L92.7635 26.1458ZM89.4563 24.8092V25.3014C89.7937 24.9238 90.1798 24.7349 90.6094 24.7349C90.8486 24.7349 91.069 24.7965 91.2744 24.9217C91.4798 25.0468 91.6371 25.2166 91.7417 25.4351C91.849 25.6515 91.9016 25.9973 91.9016 26.4683V28.6811H91.1444V26.4768C91.1444 26.0801 91.0859 25.7979 90.9663 25.6302C90.8467 25.4584 90.6471 25.3736 90.3663 25.3736C90.0075 25.3736 89.7059 25.5539 89.4544 25.9167V28.6811H88.6802V24.8092H89.4544H89.4563ZM86.8498 24.8092H87.6064V28.6811H86.8498V24.8092ZM87.2229 23.1799C87.3484 23.1799 87.4537 23.2223 87.5434 23.3114C87.6318 23.3984 87.6779 23.5045 87.6779 23.6296C87.6779 23.7548 87.6318 23.8609 87.5434 23.95C87.4537 24.0412 87.3484 24.0858 87.2229 24.0858C87.1053 24.0858 87.0045 24.0391 86.9168 23.95C86.8264 23.8587 86.7822 23.7527 86.7822 23.6318C86.7822 23.5108 86.8264 23.4111 86.9168 23.3178C87.0045 23.2265 87.1072 23.182 87.2229 23.182V23.1799ZM83.4588 25.4223L84.8803 24.0094V24.8092H86.0906V25.4987H84.8803V27.3954C84.8803 27.8388 85.063 28.0595 85.4257 28.0595C85.6961 28.0595 85.9834 27.9682 86.2856 27.7815V28.4965C85.9938 28.6619 85.6772 28.7447 85.3334 28.7447C84.9895 28.7447 84.6977 28.6429 84.4695 28.4371C84.3961 28.3756 84.3376 28.3055 84.2914 28.2292C84.2453 28.1506 84.205 28.051 84.1718 27.9258C84.14 27.8006 84.1257 27.563 84.1257 27.2129V25.4966H83.4588V25.4203V25.4223ZM79.7193 22.8001H80.4766V25.3163C80.7931 24.9281 81.1851 24.7307 81.655 24.7307C81.9092 24.7307 82.1373 24.7965 82.3408 24.9238C82.5423 25.0532 82.6931 25.2314 82.7919 25.4584C82.89 25.6854 82.9388 26.0227 82.9388 26.4725V28.6768H82.1815V26.2816C82.1815 25.9994 82.112 25.7703 81.9761 25.5984C81.8377 25.4266 81.657 25.3396 81.4327 25.3396C81.267 25.3396 81.1097 25.382 80.9628 25.4712C80.8165 25.5581 80.6527 25.7024 80.4766 25.904V28.6768H79.7193V22.798V22.8001ZM77.1486 28.8593C76.8951 28.8593 76.6851 28.9144 76.5213 29.0227C76.3601 29.1309 76.2782 29.273 76.2782 29.4427C76.2782 29.8415 76.6325 30.041 77.3436 30.041C77.679 30.041 77.939 29.9922 78.1236 29.8925C78.3082 29.7928 78.4005 29.6527 78.4005 29.4703C78.4005 29.2878 78.2828 29.1436 78.0501 29.0311C77.8174 28.9186 77.5158 28.8593 77.1466 28.8593H77.1486ZM77.3267 25.4733C77.1213 25.4733 76.9471 25.5412 76.8028 25.6833C76.6578 25.8234 76.5863 25.9931 76.5863 26.1883C76.5863 26.3834 76.6578 26.5511 76.7982 26.6825C76.9412 26.8141 77.1193 26.8777 77.3351 26.8777C77.5509 26.8777 77.7271 26.812 77.8701 26.6783C78.0124 26.5447 78.0839 26.3792 78.0839 26.1798C78.0839 25.9803 78.0124 25.8085 77.8681 25.6748C77.7232 25.539 77.5451 25.4733 77.3267 25.4733ZM75.9051 26.1458C75.9051 25.7342 76.054 25.4075 76.3517 25.1678C76.6494 24.9281 77.0563 24.8092 77.5724 24.8092H79.1493V25.4075H78.3751C78.5266 25.5603 78.6293 25.7024 78.6878 25.8276C78.7463 25.9548 78.7755 26.097 78.7755 26.2604C78.7755 26.4619 78.719 26.6613 78.6059 26.8565C78.4928 27.0517 78.3459 27.2002 78.1678 27.3042C77.9897 27.4081 77.6959 27.4908 77.287 27.5524C77.0017 27.5948 76.8593 27.6924 76.8593 27.8516C76.8593 27.9406 76.9139 28.0149 77.0186 28.0722C77.1252 28.1294 77.3182 28.1889 77.5997 28.2504C78.067 28.3543 78.3693 28.435 78.5032 28.4943C78.6377 28.5538 78.7593 28.6386 78.8659 28.7469C79.0485 28.9314 79.1408 29.1648 79.1408 29.4448C79.1408 29.8119 78.979 30.1046 78.654 30.3253C78.3316 30.5438 77.8993 30.652 77.3605 30.652C76.8216 30.652 76.377 30.5416 76.052 30.321C75.7264 30.1004 75.5632 29.8055 75.5632 29.4342C75.5632 28.9102 75.8837 28.5729 76.5233 28.4201C76.2678 28.2546 76.1398 28.0913 76.1398 27.9279C76.1398 27.8049 76.1944 27.6903 76.3036 27.5906C76.4121 27.4909 76.5616 27.4145 76.7456 27.3678C76.182 27.1154 75.9006 26.708 75.9006 26.1437L75.9051 26.1458ZM74.2502 24.8092H75.0075V28.6811H74.2502V24.8092ZM74.6233 23.1799C74.7494 23.1799 74.8541 23.2223 74.9444 23.3114C75.0328 23.3984 75.079 23.5045 75.079 23.6296C75.079 23.7548 75.0328 23.8609 74.9444 23.95C74.8541 24.0412 74.7494 24.0858 74.6233 24.0858C74.5063 24.0858 74.4056 24.0391 74.3172 23.95C74.2275 23.8587 74.1833 23.7527 74.1833 23.6318C74.1833 23.5108 74.2275 23.4111 74.3172 23.3178C74.4056 23.2265 74.5083 23.182 74.6233 23.182V23.1799ZM72.3841 22.8001H73.1413V28.679H72.3841V22.8001Z" fill="#202020"/>
<path fill-rule="evenodd" clip-rule="evenodd" d="M2.75764 4.19363H0V7.16381C0.0419414 7.16381 0.0838825 7.16593 0.125824 7.16593C1.70492 7.16593 2.98623 6.20911 2.98623 5.03165C2.98623 4.73463 2.90444 4.45034 2.75764 4.19363ZM5.63483 4.19363H2.97994C3.41193 4.63068 3.66778 5.17167 3.66778 5.75722C3.66778 7.21687 2.08239 8.4007 0.127921 8.4007C0.0859801 8.4007 0.0440385 8.4007 0.00209707 8.4007V11.4472C0.0440385 11.4472 0.0859801 11.4472 0.127921 11.4472C3.67407 11.4472 6.54914 9.30233 6.54914 6.65464C6.54914 5.7551 6.21572 4.91284 5.63692 4.19363H5.63483ZM9.72413 4.19363H5.87809C7.23912 5.25865 8.07372 6.69919 8.07372 8.28611C8.07372 11.5618 4.51499 14.218 0.125824 14.218C0.0838825 14.218 0.0419414 14.218 0 14.218V17.6209C0.0419414 17.6209 0.0838825 17.6209 0.123727 17.6209C6.50722 17.6209 11.6807 13.7597 11.6807 8.99685C11.6807 7.21896 10.9572 5.56628 9.72205 4.19363H9.72413ZM16.8898 4.19363H9.97575C12.7187 6.1391 14.4299 8.8865 14.4299 11.9331C14.4299 15.9555 11.4479 19.4582 7.04197 21.2785H16.8877V4.19363H16.8898Z" fill="#202020"/>
<path d="M100.009 3.02321H100.674C100.992 3.02321 101.209 2.97653 101.324 2.88107C101.44 2.7856 101.498 2.65831 101.498 2.50343C101.498 2.4016 101.469 2.31037 101.414 2.23187C101.358 2.15125 101.282 2.09185 101.184 2.05366C101.083 2.01547 100.9 1.99426 100.632 1.99426H100.009V3.02533V3.02321ZM99.4617 4.95594V1.5254H100.63C101.03 1.5254 101.317 1.55722 101.496 1.62087C101.676 1.68451 101.817 1.79483 101.924 1.95395C102.029 2.11094 102.083 2.27855 102.083 2.45676C102.083 2.7071 101.995 2.92562 101.817 3.11019C101.641 3.29689 101.404 3.40085 101.11 3.42418C101.23 3.4751 101.326 3.5345 101.397 3.60664C101.534 3.7403 101.702 3.9673 101.901 4.28765L102.314 4.95807H101.649L101.347 4.41707C101.11 3.99064 100.917 3.72332 100.773 3.61724C100.672 3.53875 100.527 3.50056 100.334 3.50268H100.011V4.95807H99.4637L99.4617 4.95594ZM100.848 0.528266C100.404 0.528266 99.9713 0.64283 99.5521 0.874079C99.1328 1.10321 98.8033 1.43205 98.5667 1.8606C98.3294 2.28703 98.2118 2.73256 98.2118 3.19506C98.2118 3.65755 98.3294 4.09672 98.5621 4.51678C98.7948 4.93897 99.1198 5.26781 99.5371 5.5033C99.9544 5.7388 100.393 5.8576 100.848 5.8576C101.303 5.8576 101.739 5.7388 102.157 5.5033C102.574 5.26781 102.901 4.93897 103.132 4.51678C103.362 4.0946 103.477 3.65543 103.477 3.19506C103.477 2.73468 103.36 2.28916 103.123 1.8606C102.889 1.43417 102.559 1.10321 102.138 0.874079C101.716 0.644952 101.286 0.528266 100.846 0.528266H100.848ZM100.848 0C101.379 0 101.895 0.137901 102.4 0.413703C102.903 0.687383 103.297 1.08199 103.578 1.59329C103.86 2.1067 104 2.63921 104 3.19506C104 3.7509 103.862 4.27493 103.583 4.78197C103.306 5.29115 102.918 5.68364 102.417 5.96368C101.915 6.24585 101.391 6.38587 100.846 6.38587C100.301 6.38587 99.7763 6.24585 99.2752 5.96368C98.774 5.68364 98.384 5.28903 98.1071 4.78197C97.8283 4.27493 97.6898 3.74454 97.6898 3.19506C97.6898 2.64558 97.8302 2.1067 98.1136 1.59329C98.3964 1.08199 98.7909 0.687383 99.294 0.413703C99.7997 0.137901 100.315 0 100.846 0H100.848Z" fill="#202020"/>
</g>
</svg>
