<svg width="174" height="51" viewBox="0 0 174 51" fill="none" xmlns="http://www.w3.org/2000/svg">
<g clip-path="url(#clip0_773_887)">
<path d="M78.1272 7.38443H82.0513V31.4216H88.1636L94.2129 34.9151V7.38443H98.137V31.4216H104.249L110.481 35.0212H78.1307V7.38443H78.1272ZM59.9864 6.99194C64.2262 6.99194 67.7541 8.34267 70.5735 11.0441C73.386 13.7526 74.7993 17.14 74.7993 21.2134C74.7993 25.2868 73.372 28.66 70.5349 31.3368C67.6874 34.0028 64.0999 35.3394 59.7725 35.3394C55.4451 35.3394 52.1909 34.0028 49.438 31.3368C46.6851 28.6636 45.3141 25.3151 45.3141 21.2947C45.3141 17.2744 46.6992 13.7526 49.4731 11.0441C52.2434 8.34267 55.7468 6.99194 59.9864 6.99194ZM60.1408 10.7471C57.0057 10.7471 54.4212 11.7407 52.4048 13.7173C50.3813 15.6974 49.3713 18.222 49.3713 21.2912C49.3713 24.3603 50.3813 26.7471 52.4118 28.7237C54.4422 30.7038 56.9776 31.6938 60.025 31.6938C63.0724 31.6938 65.6359 30.6826 67.6874 28.6671C69.7354 26.6482 70.7559 24.1376 70.7559 21.125C70.7559 18.1124 69.7389 15.7363 67.6874 13.7385C65.6395 11.7407 63.1286 10.74 60.1408 10.74V10.7471ZM47.9125 33.5396C46.4853 34.7348 44.6828 35.3394 42.4945 35.3394C39.7873 35.3394 37.3255 34.5014 35.1022 32.8289V27.8044C37.2203 30.5058 39.6681 31.8565 42.456 31.8565C43.6798 31.8565 44.6968 31.5171 45.5139 30.8311C46.096 31.655 46.7658 32.4399 47.5268 33.1755C47.6566 33.3027 47.7863 33.423 47.9196 33.5432L47.9125 33.5396ZM42.74 23.183L40.1625 21.613C38.2863 20.4638 36.9608 19.3323 36.1647 18.2149C35.3757 17.1011 34.9795 15.8176 34.9795 14.3678C34.9795 12.1933 35.7299 10.4253 37.2308 9.06753C38.7247 7.70974 40.6745 7.0273 43.0626 7.0273C44.9913 7.0273 46.7834 7.49051 48.4456 8.40985C48.1439 8.66798 47.8494 8.93316 47.5619 9.21604C46.9376 9.82422 46.3731 10.4642 45.8681 11.136C44.9353 10.7754 43.9744 10.5951 42.982 10.5951C41.702 10.5951 40.6499 10.8921 39.8294 11.4932C39.0053 12.0943 38.5914 12.8651 38.5914 13.795C38.5914 14.626 38.8931 15.4074 39.4962 16.1323C40.0994 16.8607 41.0708 17.6174 42.4174 18.4095L42.8312 18.6534C42.7155 19.5126 42.6558 20.4001 42.6558 21.3195C42.6558 21.956 42.6874 22.5783 42.7435 23.1864L42.74 23.183ZM154.586 7.38443H159.334L148.404 20.7219L160.095 35.0247H155.347L146.033 23.5931L136.596 35.0247H131.809L143.617 20.7219L132.676 7.41273V23.038C132.676 25.2656 132.528 26.8991 132.233 27.9387C131.939 28.9783 131.564 29.8623 131.115 30.58C130.659 31.3014 130.113 31.952 129.453 32.5319C127.296 34.4024 124.431 35.3394 120.861 35.3394C117.291 35.3394 114.521 34.3953 112.351 32.5107C111.694 31.9449 111.136 31.3014 110.688 30.58C110.239 29.8658 109.857 28.9642 109.548 27.8786C109.24 26.8001 109.085 25.1984 109.085 23.0698V13.6677L113.03 7.38443V23.0698C113.03 25.2514 113.206 26.7825 113.539 27.6806C113.879 28.5787 114.436 29.3566 115.205 30.0178C116.67 31.2413 118.568 31.853 120.896 31.853C122.53 31.853 123.951 31.5489 125.157 30.9336C126.356 30.3184 127.251 29.5087 127.843 28.4903C128.432 27.4756 128.727 25.6687 128.727 23.0698V13.6677L132.661 7.39857L132.651 7.38443H137.438L146.03 17.9321L154.582 7.38443H154.586Z" fill="#000"/>
<path d="M156.749 48.0123C156.326 48.0123 155.974 48.1042 155.701 48.2846C155.431 48.4649 155.294 48.7018 155.294 48.9847C155.294 49.6494 155.886 49.9818 157.076 49.9818C157.636 49.9818 158.071 49.9005 158.38 49.7343C158.689 49.5681 158.843 49.3347 158.843 49.0306C158.843 48.7266 158.646 48.4861 158.257 48.2987C157.868 48.1112 157.364 48.0123 156.746 48.0123M157.044 42.369C156.701 42.369 156.409 42.4821 156.167 42.7191C155.926 42.9524 155.806 43.2353 155.806 43.5606C155.806 43.8859 155.926 44.1653 156.16 44.3844C156.398 44.6036 156.697 44.7097 157.058 44.7097C157.419 44.7097 157.714 44.6002 157.953 44.3773C158.191 44.1546 158.31 43.8789 158.31 43.5465C158.31 43.2141 158.191 42.9277 157.948 42.7048C157.707 42.4785 157.409 42.369 157.044 42.369ZM154.667 43.4898C154.667 42.8039 154.916 42.2594 155.414 41.8598C155.911 41.4603 156.592 41.2622 157.455 41.2622H160.088V42.2594H158.794C159.046 42.514 159.218 42.7508 159.317 42.9595C159.415 43.1716 159.464 43.4085 159.464 43.6808C159.464 44.0167 159.369 44.3491 159.18 44.6744C158.991 44.9997 158.745 45.2472 158.447 45.4205C158.148 45.5937 157.658 45.7316 156.974 45.8342C156.497 45.9048 156.258 46.0675 156.258 46.3328C156.258 46.4812 156.349 46.605 156.526 46.7005C156.704 46.7959 157.027 46.8949 157.496 46.9974C158.279 47.1707 158.783 47.3052 159.008 47.4041C159.232 47.5031 159.435 47.6445 159.615 47.8249C159.92 48.1325 160.074 48.5215 160.074 48.9882C160.074 49.5999 159.804 50.0879 159.26 50.4556C158.72 50.8198 157.998 51.0002 157.096 51.0002C156.195 51.0002 155.452 50.8162 154.908 50.4485C154.365 50.0808 154.092 49.5893 154.092 48.9705C154.092 48.0971 154.628 47.5349 155.697 47.2804C155.27 47.0045 155.056 46.7323 155.056 46.46C155.056 46.2549 155.147 46.064 155.329 45.8978C155.511 45.7317 155.76 45.6043 156.069 45.5266C155.126 45.1058 154.656 44.4269 154.656 43.4864L154.667 43.4898ZM149.136 41.2622V42.0825C149.701 41.4532 150.346 41.1384 151.065 41.1384C151.465 41.1384 151.833 41.241 152.177 41.4496C152.52 41.6582 152.783 41.9411 152.958 42.3054C153.138 42.666 153.226 43.2423 153.226 44.0273V47.7153H151.959V44.0415C151.959 43.3803 151.861 42.9099 151.661 42.6306C151.461 42.3442 151.128 42.2028 150.658 42.2028C150.058 42.2028 149.554 42.5033 149.133 43.108V47.7153H147.839V41.2622H149.133H149.136ZM144.778 41.2622H146.043V47.7153H144.778V41.2622ZM145.402 38.5467C145.611 38.5467 145.788 38.6173 145.938 38.7659C146.085 38.9108 146.163 39.0877 146.163 39.2962C146.163 39.5048 146.085 39.6817 145.938 39.8302C145.788 39.9822 145.611 40.0565 145.402 40.0565C145.205 40.0565 145.036 39.9786 144.89 39.8302C144.739 39.6781 144.665 39.5014 144.665 39.2998C144.665 39.0982 144.739 38.932 144.89 38.7765C145.036 38.6244 145.208 38.5502 145.402 38.5502V38.5467ZM139.107 42.2841L141.484 39.9292V41.2622H143.508V42.4114H141.484V45.5725C141.484 46.3116 141.79 46.6793 142.396 46.6793C142.848 46.6793 143.329 46.5272 143.834 46.216V47.4077C143.346 47.6834 142.817 47.8214 142.242 47.8214C141.667 47.8214 141.179 47.6517 140.797 47.3086C140.674 47.2061 140.577 47.0894 140.499 46.9621C140.422 46.8312 140.355 46.6652 140.299 46.4565C140.246 46.2479 140.222 45.8519 140.222 45.2684V42.4079H139.107V42.2806V42.2841ZM132.854 37.9137H134.12V42.1073C134.649 41.4603 135.305 41.1314 136.091 41.1314C136.516 41.1314 136.897 41.241 137.238 41.4532C137.574 41.6689 137.827 41.9659 137.992 42.3442C138.156 42.7225 138.238 43.2847 138.238 44.0344V47.7082H136.971V43.7161C136.971 43.2459 136.855 42.864 136.628 42.5776C136.396 42.2911 136.094 42.1462 135.719 42.1462C135.442 42.1462 135.179 42.2169 134.933 42.3655C134.689 42.5104 134.415 42.7508 134.12 43.0868V47.7082H132.854V37.9102V37.9137ZM128.555 48.0123C128.131 48.0123 127.78 48.1042 127.506 48.2846C127.236 48.4649 127.099 48.7018 127.099 48.9847C127.099 49.6494 127.692 49.9818 128.881 49.9818C129.442 49.9818 129.877 49.9005 130.185 49.7343C130.494 49.5681 130.648 49.3347 130.648 49.0306C130.648 48.7266 130.452 48.4861 130.063 48.2987C129.673 48.1112 129.169 48.0123 128.552 48.0123H128.555ZM128.853 42.369C128.509 42.369 128.218 42.4821 127.977 42.7191C127.734 42.9524 127.615 43.2353 127.615 43.5606C127.615 43.8859 127.734 44.1653 127.969 44.3844C128.208 44.6036 128.506 44.7097 128.867 44.7097C129.228 44.7097 129.522 44.6002 129.761 44.3773C129.999 44.1546 130.119 43.8789 130.119 43.5465C130.119 43.2141 129.999 42.9277 129.758 42.7048C129.516 42.4785 129.218 42.369 128.853 42.369ZM126.476 43.4898C126.476 42.8039 126.724 42.2594 127.222 41.8598C127.72 41.4603 128.401 41.2622 129.264 41.2622H131.901V42.2594H130.606C130.859 42.514 131.031 42.7508 131.129 42.9595C131.227 43.1716 131.276 43.4085 131.276 43.6808C131.276 44.0167 131.181 44.3491 130.992 44.6744C130.803 44.9997 130.557 45.2472 130.259 45.4205C129.961 45.5937 129.47 45.7316 128.786 45.8342C128.309 45.9048 128.071 46.0675 128.071 46.3328C128.071 46.4812 128.163 46.605 128.338 46.7005C128.516 46.7959 128.839 46.8949 129.309 46.9974C130.091 47.1707 130.596 47.3052 130.82 47.4041C131.045 47.5031 131.248 47.6445 131.427 47.8249C131.732 48.1325 131.886 48.5215 131.886 48.9882C131.886 49.5999 131.616 50.0879 131.072 50.4556C130.533 50.8198 129.81 51.0002 128.909 51.0002C128.008 51.0002 127.265 50.8162 126.721 50.4485C126.177 50.0808 125.904 49.5893 125.904 48.9705C125.904 48.0971 126.44 47.5349 127.509 47.2804C127.082 47.0045 126.868 46.7323 126.868 46.46C126.868 46.2549 126.959 46.064 127.142 45.8978C127.323 45.7317 127.573 45.6043 127.881 45.5266C126.939 45.1058 126.468 44.4269 126.468 43.4864L126.476 43.4898ZM123.708 41.2622H124.974V47.7153H123.708V41.2622ZM124.332 38.5467C124.543 38.5467 124.718 38.6173 124.869 38.7659C125.017 38.9108 125.094 39.0877 125.094 39.2962C125.094 39.5048 125.017 39.6817 124.869 39.8302C124.718 39.9822 124.543 40.0565 124.332 40.0565C124.136 40.0565 123.968 39.9786 123.82 39.8302C123.67 39.6781 123.596 39.5014 123.596 39.2998C123.596 39.0982 123.67 38.932 123.82 38.7765C123.968 38.6244 124.14 38.5502 124.332 38.5502V38.5467ZM120.588 37.9137H121.854V47.7118H120.588V37.9137Z" fill="#000"/>
<path fill-rule="evenodd" clip-rule="evenodd" d="M4.15441 6.90356H-0.457031V11.8539C-0.386895 11.8539 -0.31676 11.8574 -0.246623 11.8574C2.394 11.8574 4.53666 10.2627 4.53666 8.30026C4.53666 7.80523 4.39989 7.33141 4.15441 6.90356ZM8.96576 6.90356H4.52614C5.24854 7.63197 5.67637 8.53363 5.67637 9.50954C5.67637 11.9423 3.02523 13.9153 -0.243116 13.9153C-0.313252 13.9153 -0.383388 13.9153 -0.453524 13.9153V18.9928C-0.383388 18.9928 -0.313252 18.9928 -0.243116 18.9928C5.68689 18.9928 10.4947 15.4181 10.4947 11.0052C10.4947 9.50601 9.93714 8.10225 8.96926 6.90356H8.96576ZM15.8041 6.90356H9.37254C11.6485 8.6786 13.0442 11.0795 13.0442 13.7244C13.0442 19.1838 7.09312 23.6108 -0.246623 23.6108C-0.31676 23.6108 -0.386895 23.6108 -0.457031 23.6108V29.2824C-0.386895 29.2824 -0.31676 29.2824 -0.25013 29.2824C10.4246 29.2824 19.0759 22.8471 19.0759 14.9089C19.0759 11.9458 17.866 9.19131 15.8006 6.90356H15.8041ZM27.7868 6.90356H16.2248C20.8118 10.146 23.6733 14.725 23.6733 19.8026C23.6733 26.5067 18.6867 32.3445 11.3188 35.3784H27.7833V6.90356H27.7868Z" fill="#000"/>
<path d="M166.782 4.95177H167.894C168.427 4.95177 168.789 4.87398 168.981 4.71487C169.174 4.55575 169.272 4.3436 169.272 4.08547C169.272 3.91575 169.223 3.76371 169.132 3.63287C169.037 3.49851 168.911 3.3995 168.746 3.33586C168.578 3.27221 168.272 3.23685 167.823 3.23685H166.782V4.9553V4.95177ZM165.867 8.17299V2.45541H167.82C168.49 2.45541 168.97 2.50846 169.269 2.61453C169.57 2.72061 169.805 2.90448 169.984 3.16966C170.159 3.43133 170.251 3.71066 170.251 4.00768C170.251 4.42492 170.104 4.78912 169.805 5.09674C169.51 5.4079 169.115 5.58116 168.623 5.62005C168.823 5.70492 168.984 5.80392 169.104 5.92415C169.332 6.14691 169.613 6.52525 169.945 7.05917L170.636 8.17653H169.524L169.02 7.27487C168.623 6.56415 168.301 6.11862 168.059 5.94183C167.891 5.811 167.648 5.74736 167.326 5.75089H166.785V8.17653H165.87L165.867 8.17299ZM168.185 0.793529C167.442 0.793529 166.719 0.984469 166.018 1.36989C165.317 1.75176 164.766 2.29984 164.37 3.01409C163.973 3.7248 163.777 4.46735 163.777 5.23818C163.777 6.00901 163.973 6.74095 164.362 7.44105C164.752 8.14471 165.295 8.69277 165.993 9.08526C166.691 9.47775 167.424 9.67576 168.185 9.67576C168.946 9.67576 169.676 9.47775 170.373 9.08526C171.071 8.69277 171.618 8.14471 172.004 7.44105C172.39 6.73741 172.582 6.00548 172.582 5.23818C172.582 4.47089 172.386 3.72835 171.99 3.01409C171.597 2.30337 171.046 1.75176 170.342 1.36989C169.636 0.988005 168.918 0.793529 168.182 0.793529H168.185ZM168.185 -0.0869141C169.072 -0.0869141 169.935 0.142921 170.78 0.60259C171.621 1.05872 172.281 1.7164 172.751 2.56856C173.221 3.42425 173.456 4.31177 173.456 5.23818C173.456 6.16459 173.224 7.03797 172.758 7.88304C172.295 8.73167 171.646 9.38582 170.808 9.85255C169.97 10.3228 169.093 10.5562 168.182 10.5562C167.27 10.5562 166.393 10.3228 165.555 9.85255C164.717 9.38582 164.065 8.72813 163.602 7.88304C163.135 7.03797 162.904 6.15399 162.904 5.23818C162.904 4.32238 163.139 3.42425 163.612 2.56856C164.085 1.7164 164.745 1.05872 165.586 0.60259C166.432 0.142921 167.294 -0.0869141 168.182 -0.0869141H168.185Z" fill="#000"/>
</g>
<defs>
<clipPath id="clip0_773_887">
<rect width="174" height="51" fill="white"/>
</clipPath>
</defs>
</svg>
