<svg width="219" height="80" viewBox="0 0 219 80" fill="none" xmlns="http://www.w3.org/2000/svg">
<g clip-path="url(#clip0_6455_4600)">
<mask id="mask0_6455_4600" style="mask-type:luminance" maskUnits="userSpaceOnUse" x="22" y="15" width="175" height="50">
<path d="M196.456 15H22.543V65H196.456V15Z" fill="white"/>
</mask>
<g mask="url(#mask0_6455_4600)">
<path d="M101.128 21.3827H105.052V45.4199H111.165L117.214 48.9134V21.3827H121.138V45.4199H127.25L133.482 49.0195H101.132V21.3827H101.128ZM82.9874 20.9902C87.2272 20.9902 90.755 22.341 93.5745 25.0424C96.387 27.7509 97.8003 31.1383 97.8003 35.2117C97.8003 39.285 96.373 42.6583 93.5359 45.335C90.6884 48.0011 87.1009 49.3377 82.7735 49.3377C78.4461 49.3377 75.1919 48.0011 72.4389 45.335C69.6861 42.6619 68.315 39.3134 68.315 35.293C68.315 31.2727 69.7001 27.7509 72.4741 25.0424C75.2444 22.341 78.7478 20.9902 82.9874 20.9902ZM83.1418 24.7454C80.0067 24.7454 77.4222 25.739 75.4058 27.7156C73.3823 29.6957 72.3723 32.2203 72.3723 35.2895C72.3723 38.3586 73.3823 40.7454 75.4128 42.722C77.4432 44.7021 79.9786 45.6921 83.026 45.6921C86.0734 45.6921 88.6369 44.6809 90.6884 42.6654C92.7363 40.6465 93.7569 38.1359 93.7569 35.1233C93.7569 32.1107 92.7399 29.7346 90.6884 27.7368C88.6405 25.739 86.1296 24.7383 83.1418 24.7383V24.7454ZM70.9135 47.5379C69.4862 48.7331 67.6837 49.3377 65.4955 49.3377C62.7883 49.3377 60.3264 48.4997 58.1032 46.8272V41.8027C60.2212 44.5041 62.6691 45.8548 65.457 45.8548C66.6808 45.8548 67.6978 45.5154 68.5149 44.8294C69.097 45.6533 69.7668 46.4382 70.5278 47.1737C70.6575 47.301 70.7873 47.4212 70.9206 47.5415L70.9135 47.5379ZM65.741 37.1812L63.1635 35.6112C61.2873 34.4621 59.9618 33.3306 59.1657 32.2132C58.3767 31.0994 57.9805 29.8159 57.9805 28.3661C57.9805 26.1916 58.7309 24.4236 60.2318 23.0658C61.7257 21.708 63.6755 21.0256 66.0636 21.0256C67.9923 21.0256 69.7844 21.4888 71.4466 22.4081C71.1449 22.6663 70.8504 22.9315 70.5629 23.2143C69.9386 23.8225 69.3741 24.4625 68.8691 25.1343C67.9362 24.7737 66.9754 24.5933 65.983 24.5933C64.703 24.5933 63.6509 24.8904 62.8304 25.4915C62.0062 26.0925 61.5924 26.8634 61.5924 27.7933C61.5924 28.6243 61.8941 29.4057 62.4972 30.1306C63.1004 30.859 64.0718 31.6157 65.4184 32.4078L65.8322 32.6517C65.7164 33.5109 65.6568 34.3984 65.6568 35.3178C65.6568 35.9543 65.6884 36.5766 65.7445 37.1847L65.741 37.1812ZM177.587 21.3827H182.335L171.405 34.7202L183.096 49.023H178.348L169.034 37.5914L159.597 49.023H154.81L166.618 34.7202L155.677 21.411V37.0362C155.677 39.2639 155.529 40.8974 155.234 41.937C154.94 42.9766 154.565 43.8606 154.116 44.5783C153.66 45.2997 153.114 45.9503 152.454 46.5302C150.297 48.4007 147.432 49.3377 143.862 49.3377C140.292 49.3377 137.522 48.3936 135.352 46.509C134.695 45.9432 134.137 45.2997 133.689 44.5783C133.24 43.8641 132.858 42.9624 132.549 41.8769C132.241 40.7984 132.086 39.1967 132.086 37.0681V27.666L136.031 21.3827V37.0681C136.031 39.2497 136.207 40.7808 136.54 41.6789C136.88 42.577 137.437 43.3549 138.206 44.0161C139.671 45.2396 141.569 45.8512 143.897 45.8512C145.531 45.8512 146.952 45.5472 148.158 44.9319C149.357 44.3167 150.252 43.507 150.844 42.4886C151.433 41.4739 151.728 39.667 151.728 37.0681V27.666L155.662 21.3969L155.652 21.3827H160.439L169.031 31.9304L177.583 21.3827H177.587Z" fill="#C7D0CF"/>
<path d="M179.748 62.0104C179.324 62.0104 178.973 62.1022 178.699 62.2827C178.429 62.463 178.292 62.6998 178.292 62.9828C178.292 63.6474 178.885 63.9798 180.074 63.9798C180.635 63.9798 181.07 63.8985 181.378 63.7323C181.687 63.5661 181.841 63.3328 181.841 63.0286C181.841 62.7246 181.645 62.4842 181.256 62.2968C180.866 62.1093 180.362 62.0104 179.745 62.0104M180.042 56.367C179.699 56.367 179.408 56.4802 179.165 56.7171C178.924 56.9505 178.804 57.2333 178.804 57.5586C178.804 57.884 178.924 58.1633 179.159 58.3824C179.397 58.6017 179.696 58.7078 180.057 58.7078C180.417 58.7078 180.712 58.5982 180.951 58.3754C181.189 58.1527 181.309 57.8769 181.309 57.5445C181.309 57.2121 181.189 56.9257 180.947 56.7029C180.706 56.4766 180.408 56.367 180.042 56.367ZM177.665 57.4879C177.665 56.8019 177.914 56.2574 178.412 55.8579C178.91 55.4583 179.59 55.2603 180.453 55.2603H183.086V56.2574H181.792C182.045 56.512 182.216 56.7489 182.315 56.9576C182.413 57.1696 182.462 57.4066 182.462 57.6789C182.462 58.0147 182.367 58.3471 182.178 58.6724C181.989 58.9978 181.744 59.2453 181.446 59.4185C181.147 59.5918 180.657 59.7296 179.973 59.8322C179.496 59.9029 179.257 60.0656 179.257 60.3308C179.257 60.4793 179.348 60.6031 179.524 60.6985C179.702 60.794 180.025 60.893 180.495 60.9955C181.277 61.1687 181.782 61.3032 182.007 61.4021C182.23 61.5011 182.434 61.6426 182.613 61.823C182.919 62.1306 183.073 62.5195 183.073 62.9862C183.073 63.598 182.802 64.0859 182.259 64.4536C181.719 64.8179 180.997 64.9982 180.095 64.9982C179.194 64.9982 178.45 64.8143 177.907 64.4466C177.363 64.0789 177.09 63.5873 177.09 62.9685C177.09 62.0952 177.626 61.533 178.696 61.2784C178.269 61.0026 178.054 60.7304 178.054 60.4581C178.054 60.253 178.146 60.062 178.327 59.8958C178.51 59.7297 178.759 59.6023 179.067 59.5246C178.124 59.1039 177.654 58.4249 177.654 57.4844L177.665 57.4879ZM172.135 55.2603V56.0806C172.699 55.4512 173.345 55.1365 174.063 55.1365C174.463 55.1365 174.832 55.2391 175.175 55.4477C175.519 55.6562 175.782 55.9392 175.957 56.3034C176.136 56.6641 176.224 57.2404 176.224 58.0254V61.7133H174.958V58.0395C174.958 57.3783 174.86 56.908 174.66 56.6286C174.46 56.3422 174.126 56.2008 173.657 56.2008C173.057 56.2008 172.552 56.5014 172.132 57.106V61.7133H170.837V55.2603H172.132H172.135ZM167.776 55.2603H169.041V61.7133H167.776V55.2603ZM168.4 52.5447C168.61 52.5447 168.786 52.6154 168.936 52.764C169.084 52.9089 169.161 53.0857 169.161 53.2943C169.161 53.5029 169.084 53.6797 168.936 53.8282C168.786 53.9803 168.61 54.0545 168.4 54.0545C168.203 54.0545 168.035 53.9767 167.888 53.8282C167.737 53.6761 167.663 53.4994 167.663 53.2979C167.663 53.0962 167.737 52.9301 167.888 52.7745C168.035 52.6224 168.207 52.5482 168.4 52.5482V52.5447ZM162.106 56.2821L164.483 53.9272V55.2603H166.507V56.4094H164.483V59.5706C164.483 60.3096 164.788 60.6773 165.395 60.6773C165.847 60.6773 166.327 60.5253 166.833 60.2141V61.4057C166.345 61.6815 165.815 61.8194 165.24 61.8194C164.665 61.8194 164.177 61.6497 163.796 61.3067C163.673 61.2042 163.575 61.0874 163.498 60.9602C163.421 60.8293 163.353 60.6632 163.298 60.4545C163.245 60.2459 163.221 59.8499 163.221 59.2665V56.4059H162.106V56.2786V56.2821ZM155.852 51.9118H157.119V56.1054C157.648 55.4583 158.303 55.1294 159.089 55.1294C159.514 55.1294 159.896 55.2391 160.236 55.4512C160.573 55.6669 160.825 55.964 160.99 56.3422C161.154 56.7206 161.236 57.2828 161.236 58.0324V61.7062H159.97V57.7142C159.97 57.244 159.853 56.862 159.626 56.5756C159.395 56.2892 159.092 56.1443 158.717 56.1443C158.44 56.1443 158.177 56.2149 157.932 56.3635C157.687 56.5084 157.413 56.7489 157.119 57.0848V61.7062H155.852V51.9082V51.9118ZM151.553 62.0104C151.129 62.0104 150.778 62.1022 150.504 62.2827C150.235 62.463 150.098 62.6998 150.098 62.9828C150.098 63.6474 150.69 63.9798 151.879 63.9798C152.44 63.9798 152.875 63.8985 153.184 63.7323C153.492 63.5661 153.647 63.3328 153.647 63.0286C153.647 62.7246 153.45 62.4842 153.061 62.2968C152.672 62.1093 152.167 62.0104 151.55 62.0104H151.553ZM151.851 56.367C151.508 56.367 151.216 56.4802 150.975 56.7171C150.733 56.9505 150.613 57.2333 150.613 57.5586C150.613 57.884 150.733 58.1633 150.967 58.3824C151.207 58.6017 151.504 58.7078 151.865 58.7078C152.226 58.7078 152.521 58.5982 152.76 58.3754C152.998 58.1527 153.117 57.8769 153.117 57.5445C153.117 57.2121 152.998 56.9257 152.757 56.7029C152.514 56.4766 152.216 56.367 151.851 56.367ZM149.474 57.4879C149.474 56.8019 149.723 56.2574 150.221 55.8579C150.719 55.4583 151.399 55.2603 152.262 55.2603H154.899V56.2574H153.604C153.858 56.512 154.029 56.7489 154.127 56.9576C154.225 57.1696 154.274 57.4066 154.274 57.6789C154.274 58.0147 154.179 58.3471 153.99 58.6724C153.801 58.9978 153.556 59.2453 153.258 59.4185C152.96 59.5918 152.469 59.7296 151.785 59.8322C151.308 59.9029 151.07 60.0656 151.07 60.3308C151.07 60.4793 151.161 60.6031 151.336 60.6985C151.514 60.794 151.837 60.893 152.308 60.9955C153.089 61.1687 153.595 61.3032 153.819 61.4021C154.044 61.5011 154.247 61.6426 154.425 61.823C154.731 62.1306 154.885 62.5195 154.885 62.9862C154.885 63.598 154.614 64.0859 154.071 64.4536C153.532 64.8179 152.809 64.9982 151.908 64.9982C151.007 64.9982 150.263 64.8143 149.72 64.4466C149.175 64.0789 148.902 63.5873 148.902 62.9685C148.902 62.0952 149.438 61.533 150.508 61.2784C150.08 61.0026 149.866 60.7304 149.866 60.4581C149.866 60.253 149.958 60.062 150.14 59.8958C150.322 59.7297 150.572 59.6023 150.879 59.5246C149.937 59.1039 149.466 58.4249 149.466 57.4844L149.474 57.4879ZM146.707 55.2603H147.973V61.7133H146.707V55.2603ZM147.331 52.5447C147.541 52.5447 147.716 52.6154 147.867 52.764C148.015 52.9089 148.092 53.0857 148.092 53.2943C148.092 53.5029 148.015 53.6797 147.867 53.8282C147.716 53.9803 147.541 54.0545 147.331 54.0545C147.135 54.0545 146.966 53.9767 146.819 53.8282C146.669 53.6761 146.595 53.4994 146.595 53.2979C146.595 53.0962 146.669 52.9301 146.819 52.7745C146.966 52.6224 147.138 52.5482 147.331 52.5482V52.5447ZM143.586 51.9118H144.852V61.7098H143.586V51.9118Z" fill="#C7D0CF"/>
<path fill-rule="evenodd" clip-rule="evenodd" d="M27.1544 20.9023H22.543V25.8526C22.6131 25.8526 22.6832 25.8562 22.7534 25.8562C25.394 25.8562 27.5367 24.2615 27.5367 22.299C27.5367 21.804 27.3999 21.3302 27.1544 20.9023ZM31.9658 20.9023H27.5261C28.2485 21.6307 28.6764 22.5324 28.6764 23.5083C28.6764 25.9411 26.0252 27.9141 22.7569 27.9141C22.6867 27.9141 22.6166 27.9141 22.5465 27.9141V32.9916C22.6166 32.9916 22.6867 32.9916 22.7569 32.9916C28.6869 32.9916 33.4947 29.4168 33.4947 25.004C33.4947 23.5048 32.9371 22.101 31.9693 20.9023H31.9658ZM38.8041 20.9023H32.3725C34.6485 22.6774 36.0442 25.0783 36.0442 27.7231C36.0442 33.1826 30.0931 37.6096 22.7534 37.6096C22.6832 37.6096 22.6131 37.6096 22.543 37.6096V43.2812C22.6131 43.2812 22.6832 43.2812 22.7499 43.2812C33.4246 43.2812 42.0759 36.8459 42.0759 28.9077C42.0759 25.9446 40.866 23.1901 38.8006 20.9023H38.8041ZM50.7868 20.9023H39.2248C43.8118 24.1448 46.6733 28.7238 46.6733 33.8014C46.6733 40.5055 41.6867 46.3432 34.3188 49.3772H50.7833V20.9023H50.7868Z" fill="#C7D0CF"/>
<path d="M189.781 18.9508H190.893C191.425 18.9508 191.787 18.873 191.98 18.7139C192.173 18.5548 192.271 18.3426 192.271 18.0845C192.271 17.9148 192.222 17.7627 192.131 17.6319C192.036 17.4975 191.91 17.3985 191.745 17.3349C191.576 17.2712 191.271 17.2359 190.822 17.2359H189.781V18.9543V18.9508ZM188.865 22.172V16.4544H190.819C191.488 16.4544 191.969 16.5075 192.268 16.6136C192.569 16.7196 192.803 16.9035 192.983 17.1687C193.158 17.4303 193.249 17.7097 193.249 18.0067C193.249 18.4239 193.102 18.7881 192.803 19.0958C192.509 19.4069 192.113 19.5802 191.622 19.6191C191.822 19.7039 191.983 19.8029 192.102 19.9232C192.331 20.1459 192.611 20.5243 192.944 21.0582L193.635 22.1756H192.523L192.019 21.2739C191.622 20.5632 191.299 20.1176 191.058 19.9408C190.889 19.81 190.647 19.7464 190.324 19.7499H189.784V22.1756H188.869L188.865 22.172ZM191.184 14.7926C190.44 14.7926 189.718 14.9835 189.016 15.3689C188.315 15.7508 187.764 16.2989 187.369 17.0131C186.972 17.7238 186.775 18.4664 186.775 19.2372C186.775 20.008 186.972 20.74 187.361 21.4401C187.75 22.1437 188.294 22.6918 188.991 23.0843C189.689 23.4768 190.423 23.6748 191.184 23.6748C191.945 23.6748 192.674 23.4768 193.372 23.0843C194.07 22.6918 194.616 22.1437 195.002 21.4401C195.388 20.7364 195.581 20.0045 195.581 19.2372C195.581 18.4699 195.385 17.7274 194.988 17.0131C194.596 16.3024 194.045 15.7508 193.34 15.3689C192.635 14.987 191.916 14.7926 191.181 14.7926H191.184ZM191.184 13.9121C192.071 13.9121 192.934 14.1419 193.778 14.6016C194.62 15.0577 195.28 15.7154 195.749 16.5676C196.22 17.4233 196.455 18.3108 196.455 19.2372C196.455 20.1636 196.223 21.037 195.757 21.8821C195.294 22.7307 194.645 23.3848 193.807 23.8516C192.969 24.3219 192.091 24.5552 191.181 24.5552C190.269 24.5552 189.391 24.3219 188.553 23.8516C187.715 23.3848 187.063 22.7272 186.6 21.8821C186.134 21.037 185.902 20.153 185.902 19.2372C185.902 18.3214 186.137 17.4233 186.611 16.5676C187.084 15.7154 187.744 15.0577 188.585 14.6016C189.431 14.1419 190.293 13.9121 191.181 13.9121H191.184Z" fill="#C7D0CF"/>
</g>
</g>
<defs>
<clipPath id="clip0_6455_4600">
<rect width="173.913" height="50" fill="white" transform="translate(22.543 15)"/>
</clipPath>
</defs>
</svg>
