<svg width="194" height="62" viewBox="0 0 194 62" fill="none" xmlns="http://www.w3.org/2000/svg">
<path d="M151.943 9.47133L150.11 9.6319C149.985 9.10852 149.729 8.70047 149.345 8.40758C148.96 8.11468 148.474 7.99401 147.886 8.04536C147.399 8.08802 147.033 8.24168 146.789 8.50633C146.545 8.77138 146.44 9.1099 146.476 9.52228C146.503 9.82861 146.621 10.0676 146.829 10.2392C147.038 10.411 147.291 10.5372 147.589 10.618C147.887 10.699 148.308 10.7808 148.85 10.8641C149.566 10.9676 150.149 11.0887 150.6 11.2273C151.052 11.3662 151.449 11.6132 151.794 11.9689C152.138 12.3246 152.339 12.8326 152.397 13.4923C152.468 14.3054 152.229 14.9911 151.679 15.5499C151.13 16.1084 150.352 16.4317 149.345 16.5198C148.18 16.6217 147.214 16.4214 146.445 15.9186C145.678 15.4159 145.176 14.6643 144.94 13.6639L146.824 13.499C146.927 14.0243 147.191 14.4346 147.615 14.73C148.041 15.0251 148.575 15.1446 149.22 15.0881C149.684 15.0476 150.038 14.889 150.281 14.6125C150.524 14.3358 150.63 14.0032 150.596 13.6143C150.566 13.2727 150.44 13.0106 150.219 12.8279C149.998 12.6454 149.729 12.5115 149.414 12.4264C149.099 12.3412 148.67 12.2628 148.129 12.1915C147.435 12.0861 146.87 11.9693 146.431 11.8416C145.992 11.7136 145.607 11.4772 145.275 11.1323C144.942 10.7873 144.749 10.2967 144.693 9.66053C144.621 8.83577 144.859 8.14095 145.409 7.57649C145.957 7.01203 146.758 6.68378 147.81 6.59174C148.907 6.49576 149.812 6.71044 150.524 7.2358C151.237 7.76115 151.71 8.50633 151.943 9.47133ZM123.699 8.70107C124.604 8.62207 125.436 8.75084 126.195 9.08817C126.954 9.4257 127.57 9.95343 128.043 10.6719C128.516 11.3905 128.797 12.2563 128.886 13.2695C128.976 14.2947 128.85 15.2022 128.508 15.9919C128.167 16.7815 127.652 17.4085 126.963 17.8725C126.275 18.3364 125.477 18.608 124.572 18.6872C123.668 18.7664 122.839 18.637 122.085 18.2991C121.332 17.9614 120.716 17.4307 120.236 16.7066C119.757 15.983 119.473 15.1142 119.384 14.101C119.296 13.0876 119.425 12.1858 119.771 11.3956C120.118 10.6054 120.633 9.97851 121.317 9.51498C122 9.05144 122.794 8.78027 123.699 8.70107V8.70107ZM109.02 19.9231L107.085 20.0924L106.888 17.8302C106.701 18.5707 106.328 19.1851 105.766 19.6735C105.205 20.1619 104.5 20.4432 103.652 20.5174C102.837 20.5887 102.093 20.4521 101.419 20.1072C100.745 19.7626 100.194 19.2289 99.7658 18.5067C99.3378 17.7842 99.0791 16.9103 98.9892 15.8852C98.9005 14.8718 99.0042 13.9724 99.3003 13.1865C99.5963 12.4009 100.046 11.7797 100.65 11.3231C101.254 10.8665 101.964 10.6028 102.778 10.5315C103.627 10.4573 104.37 10.6117 105.007 10.9955C105.645 11.379 106.119 11.9192 106.431 12.6162L106.233 10.3538L108.168 10.1845L109.02 19.9231V19.9231ZM84.5865 22.0609L82.6522 22.2302L81.5606 9.75178L83.4949 9.58252L83.9942 15.2915L88.2457 9.16698L90.5871 8.96216L85.85 15.5923L91.5449 21.4153L89.1866 21.6217L84.0809 16.2812L84.5865 22.0609V22.0609ZM165.436 14.9876L163.502 15.1566L162.65 5.41799L164.584 5.24873L165.436 14.9876V14.9876ZM97.7746 13.1419L97.1978 13.1925L97.1779 13.1942C96.9054 13.2197 96.6344 13.2663 96.3719 13.3449C96.0245 13.4492 95.6933 13.6104 95.4095 13.8377C95.3111 13.9165 95.2175 14.0024 95.1339 14.0966C95.0601 14.1798 94.9943 14.27 94.937 14.365C94.8298 14.5432 94.753 14.7383 94.7008 14.9394C94.5934 15.3539 94.5877 15.7892 94.6238 16.2139L95.0553 21.1449L93.121 21.3142L92.269 11.5755L94.2031 11.4063L94.3702 13.3151C94.6313 12.6511 95.0397 12.1078 95.5955 11.6853C96.1513 11.2625 96.8137 11.0176 97.583 10.9504L97.7746 13.1419V13.1419ZM113.278 19.5505L111.344 19.7199L110.2 6.64072L112.134 6.47146L112.79 13.9655L115.752 9.5211L118.077 9.31767L114.428 14.5167L118.921 19.0304L116.529 19.2398L112.899 15.2202L113.278 19.5505V19.5505ZM156.495 15.7697L154.56 15.9389L153.416 2.85974L155.35 2.69068L156.006 10.1845L158.968 5.74011L161.292 5.53688L157.644 10.7357L162.247 15.2664L159.854 15.4758C158.608 14.1302 157.362 12.7848 156.116 11.4394L156.495 15.7697V15.7697ZM134.895 17.6596L132.774 17.845L129.326 8.33332L131.277 8.16268L133.748 15.8898L135.4 7.80204L137.437 7.62389L140.501 15.2988L141.594 7.26029L143.426 7.09972L141.682 17.0657L139.544 17.2527C138.555 14.8102 137.567 12.3677 136.578 9.92519L134.895 17.6596V17.6596ZM123.852 10.4509C123.354 10.4944 122.907 10.6524 122.509 10.9245C122.111 11.1969 121.806 11.5886 121.594 12.0997C121.382 12.6112 121.308 13.2203 121.369 13.9272C121.432 14.6459 121.612 15.2358 121.909 15.6966C122.206 16.1576 122.574 16.4872 123.013 16.6867C123.452 16.8856 123.92 16.9634 124.418 16.9195C124.916 16.8761 125.364 16.7183 125.761 16.4459C126.159 16.1736 126.464 15.7849 126.677 15.2795C126.889 14.7743 126.964 14.162 126.901 13.4433C126.839 12.7364 126.659 12.1495 126.362 11.6828C126.065 11.2161 125.696 10.8831 125.257 10.6842C124.818 10.4849 124.35 10.4075 123.852 10.4509V10.4509ZM103.527 12.247C102.667 12.3223 102.005 12.6679 101.54 13.2845C101.075 13.9009 100.887 14.7099 100.974 15.7116C101.062 16.7131 101.388 17.4771 101.953 18.0036C102.518 18.5302 103.23 18.7557 104.089 18.6805C104.632 18.6329 105.107 18.4577 105.514 18.1551C105.921 17.8523 106.227 17.4484 106.434 16.9436C106.64 16.4388 106.715 15.8623 106.659 15.2143C106.603 14.5781 106.429 14.0263 106.138 13.559C105.846 13.0917 105.474 12.7445 105.021 12.517C104.568 12.2895 104.07 12.1994 103.527 12.247V12.247ZM162.131 2.61385C162.101 2.27217 162.19 1.97947 162.397 1.73575C162.602 1.49223 162.893 1.35398 163.266 1.3212C163.64 1.28861 163.952 1.37413 164.203 1.57756C164.455 1.78138 164.595 2.05393 164.625 2.39561C164.655 2.73729 164.563 3.02446 164.35 3.25672C164.137 3.48898 163.844 3.62151 163.47 3.65429C163.097 3.68688 162.788 3.60709 162.543 3.41472C162.298 3.22255 162.161 2.95553 162.131 2.61385V2.61385Z" fill="black"/>
<path d="M151.943 9.47133L150.11 9.6319C149.985 9.10852 149.729 8.70047 149.345 8.40758C148.96 8.11468 148.474 7.99401 147.886 8.04536C147.399 8.08802 147.033 8.24168 146.789 8.50633C146.545 8.77138 146.44 9.1099 146.476 9.52228C146.503 9.82861 146.621 10.0676 146.829 10.2392C147.038 10.411 147.291 10.5372 147.589 10.618C147.887 10.699 148.308 10.7808 148.85 10.8641C149.566 10.9676 150.149 11.0887 150.6 11.2273C151.052 11.3662 151.449 11.6132 151.794 11.9689C152.138 12.3246 152.339 12.8326 152.397 13.4923C152.468 14.3054 152.229 14.9911 151.679 15.5499C151.13 16.1084 150.352 16.4317 149.345 16.5198C148.18 16.6217 147.214 16.4214 146.445 15.9186C145.678 15.4159 145.176 14.6643 144.94 13.6639L146.824 13.499C146.927 14.0243 147.191 14.4346 147.615 14.73C148.041 15.0251 148.575 15.1446 149.22 15.0881C149.684 15.0476 150.038 14.889 150.281 14.6125C150.524 14.3358 150.63 14.0032 150.596 13.6143C150.566 13.2727 150.44 13.0106 150.219 12.8279C149.998 12.6454 149.729 12.5115 149.414 12.4264C149.099 12.3412 148.67 12.2628 148.129 12.1915C147.435 12.0861 146.87 11.9693 146.431 11.8416C145.992 11.7136 145.607 11.4772 145.275 11.1323C144.942 10.7873 144.749 10.2967 144.693 9.66053C144.621 8.83577 144.859 8.14095 145.409 7.57649C145.957 7.01203 146.758 6.68378 147.81 6.59174C148.907 6.49576 149.812 6.71044 150.524 7.2358C151.237 7.76115 151.71 8.50633 151.943 9.47133ZM123.699 8.70107C124.604 8.62207 125.436 8.75084 126.195 9.08817C126.954 9.4257 127.57 9.95343 128.043 10.6719C128.516 11.3905 128.797 12.2563 128.886 13.2695C128.976 14.2947 128.85 15.2022 128.508 15.9919C128.167 16.7815 127.652 17.4085 126.963 17.8725C126.275 18.3364 125.477 18.608 124.572 18.6872C123.668 18.7664 122.839 18.637 122.085 18.2991C121.332 17.9614 120.716 17.4307 120.236 16.7066C119.757 15.983 119.473 15.1142 119.384 14.101C119.296 13.0876 119.425 12.1858 119.771 11.3956C120.118 10.6054 120.633 9.97851 121.317 9.51498C122 9.05144 122.794 8.78027 123.699 8.70107V8.70107ZM109.02 19.9231L107.085 20.0924L106.888 17.8302C106.701 18.5707 106.328 19.1851 105.766 19.6735C105.205 20.1619 104.5 20.4432 103.652 20.5174C102.837 20.5887 102.093 20.4521 101.419 20.1072C100.745 19.7626 100.194 19.2289 99.7658 18.5067C99.3378 17.7842 99.0791 16.9103 98.9892 15.8852C98.9005 14.8718 99.0042 13.9724 99.3003 13.1865C99.5963 12.4009 100.046 11.7797 100.65 11.3231C101.254 10.8665 101.964 10.6028 102.778 10.5315C103.627 10.4573 104.37 10.6117 105.007 10.9955C105.645 11.379 106.119 11.9192 106.431 12.6162L106.233 10.3538L108.168 10.1845L109.02 19.9231V19.9231ZM84.5865 22.0609L82.6522 22.2302L81.5606 9.75178L83.4949 9.58252L83.9942 15.2915L88.2457 9.16698L90.5871 8.96216L85.85 15.5923L91.5449 21.4153L89.1866 21.6217L84.0809 16.2812L84.5865 22.0609V22.0609ZM165.436 14.9876L163.502 15.1566L162.65 5.41799L164.584 5.24873L165.436 14.9876V14.9876ZM97.7746 13.1419L97.1978 13.1925L97.1779 13.1942C96.9054 13.2197 96.6344 13.2663 96.3719 13.3449C96.0245 13.4492 95.6933 13.6104 95.4095 13.8377C95.3111 13.9165 95.2175 14.0024 95.1339 14.0966C95.0601 14.1798 94.9943 14.27 94.937 14.365C94.8298 14.5432 94.753 14.7383 94.7008 14.9394C94.5934 15.3539 94.5877 15.7892 94.6238 16.2139L95.0553 21.1449L93.121 21.3142L92.269 11.5755L94.2031 11.4063L94.3702 13.3151C94.6313 12.6511 95.0397 12.1078 95.5955 11.6853C96.1513 11.2625 96.8137 11.0176 97.583 10.9504L97.7746 13.1419V13.1419ZM113.278 19.5505L111.344 19.7199L110.2 6.64072L112.134 6.47146L112.79 13.9655L115.752 9.5211L118.077 9.31767L114.428 14.5167L118.921 19.0304L116.529 19.2398L112.899 15.2202L113.278 19.5505V19.5505ZM156.495 15.7697L154.56 15.9389L153.416 2.85974L155.35 2.69068L156.006 10.1845L158.968 5.74011L161.292 5.53688L157.644 10.7357L162.247 15.2664L159.854 15.4758C158.608 14.1302 157.362 12.7848 156.116 11.4394L156.495 15.7697V15.7697ZM134.895 17.6596L132.774 17.845L129.326 8.33332L131.277 8.16268L133.748 15.8898L135.4 7.80204L137.437 7.62389L140.501 15.2988L141.594 7.26029L143.426 7.09972L141.682 17.0657L139.544 17.2527C138.555 14.8102 137.567 12.3677 136.578 9.92519L134.895 17.6596V17.6596ZM123.852 10.4509C123.354 10.4944 122.907 10.6524 122.509 10.9245C122.111 11.1969 121.806 11.5886 121.594 12.0997C121.382 12.6112 121.308 13.2203 121.369 13.9272C121.432 14.6459 121.612 15.2358 121.909 15.6966C122.206 16.1576 122.574 16.4872 123.013 16.6867C123.452 16.8856 123.92 16.9634 124.418 16.9195C124.916 16.8761 125.364 16.7183 125.761 16.4459C126.159 16.1736 126.464 15.7849 126.677 15.2795C126.889 14.7743 126.964 14.162 126.901 13.4433C126.839 12.7364 126.659 12.1495 126.362 11.6828C126.065 11.2161 125.696 10.8831 125.257 10.6842C124.818 10.4849 124.35 10.4075 123.852 10.4509V10.4509ZM103.527 12.247C102.667 12.3223 102.005 12.6679 101.54 13.2845C101.075 13.9009 100.887 14.7099 100.974 15.7116C101.062 16.7131 101.388 17.4771 101.953 18.0036C102.518 18.5302 103.23 18.7557 104.089 18.6805C104.632 18.6329 105.107 18.4577 105.514 18.1551C105.921 17.8523 106.227 17.4484 106.434 16.9436C106.64 16.4388 106.715 15.8623 106.659 15.2143C106.603 14.5781 106.429 14.0263 106.138 13.559C105.846 13.0917 105.474 12.7445 105.021 12.517C104.568 12.2895 104.07 12.1994 103.527 12.247V12.247ZM162.131 2.61385C162.101 2.27217 162.19 1.97947 162.397 1.73575C162.602 1.49223 162.893 1.35398 163.266 1.3212C163.64 1.28861 163.952 1.37413 164.203 1.57756C164.455 1.78138 164.595 2.05393 164.625 2.39561C164.655 2.73729 164.563 3.02446 164.35 3.25672C164.137 3.48898 163.844 3.62151 163.47 3.65429C163.097 3.68688 162.788 3.60709 162.543 3.41472C162.298 3.22255 162.161 2.95553 162.131 2.61385V2.61385Z" fill="black" fill-opacity="0.18"/>
<path fill-rule="evenodd" clip-rule="evenodd" d="M88.6737 28.9134L81.8462 29.5106C81.6528 28.3965 81.1656 27.8735 80.3849 27.9419C80.1183 27.9652 79.9067 28.0694 79.7503 28.2549C79.5937 28.4402 79.5305 28.7034 79.5603 29.0441C79.6006 29.5053 79.8763 29.8598 80.3873 30.1081C80.8984 30.3561 81.6846 30.6257 82.7466 30.9166C84.0835 31.2844 85.1964 31.6667 86.085 32.0639C86.9738 32.4609 87.777 33.0874 88.4947 33.9438C89.2126 34.7999 89.6337 35.9399 89.7581 37.3631C89.8652 38.586 89.662 39.7148 89.1479 40.7495C88.634 41.7842 87.8305 42.6372 86.7379 43.3085C85.6452 43.9798 84.3087 44.3847 82.7281 44.523C80.3094 44.7345 78.2623 44.3126 76.5867 43.2576C74.9113 42.2021 73.906 40.5275 73.5711 38.2339L80.3126 37.644C80.5148 38.8586 81.0825 39.425 82.0157 39.3435C82.3394 39.315 82.5934 39.2019 82.7774 39.004C82.9617 38.8061 83.0389 38.5369 83.0091 38.196C82.9652 37.6947 82.688 37.3202 82.1768 37.072C81.6657 36.8239 80.8508 36.5567 79.7319 36.2707C78.4174 35.9413 77.3161 35.5832 76.4283 35.1963C75.5405 34.8094 74.743 34.1924 74.0356 33.3453C73.3281 32.4982 72.9114 31.3529 72.7852 29.9094C72.6641 28.5265 72.8991 27.3191 73.4901 26.2878C74.081 25.2562 74.9403 24.4388 76.0677 23.8352C77.195 23.2314 78.492 22.8655 79.9583 22.7373C82.3771 22.5256 84.3521 22.9488 85.8839 24.0064C87.4158 25.0642 88.3456 26.7 88.6737 28.9134V28.9134Z" fill="black"/>
<path fill-rule="evenodd" clip-rule="evenodd" d="M88.6737 28.9134L81.8462 29.5106C81.6528 28.3965 81.1656 27.8735 80.3849 27.9419C80.1183 27.9652 79.9067 28.0694 79.7503 28.2549C79.5937 28.4402 79.5305 28.7034 79.5603 29.0441C79.6006 29.5053 79.8763 29.8598 80.3873 30.1081C80.8984 30.3561 81.6846 30.6257 82.7466 30.9166C84.0835 31.2844 85.1964 31.6667 86.085 32.0639C86.9738 32.4609 87.777 33.0874 88.4947 33.9438C89.2126 34.7999 89.6337 35.9399 89.7581 37.3631C89.8652 38.586 89.662 39.7148 89.1479 40.7495C88.634 41.7842 87.8305 42.6372 86.7379 43.3085C85.6452 43.9798 84.3087 44.3847 82.7281 44.523C80.3094 44.7345 78.2623 44.3126 76.5867 43.2576C74.9113 42.2021 73.906 40.5275 73.5711 38.2339L80.3126 37.644C80.5148 38.8586 81.0825 39.425 82.0157 39.3435C82.3394 39.315 82.5934 39.2019 82.7774 39.004C82.9617 38.8061 83.0389 38.5369 83.0091 38.196C82.9652 37.6947 82.688 37.3202 82.1768 37.072C81.6657 36.8239 80.8508 36.5567 79.7319 36.2707C78.4174 35.9413 77.3161 35.5832 76.4283 35.1963C75.5405 34.8094 74.743 34.1924 74.0356 33.3453C73.3281 32.4982 72.9114 31.3529 72.7852 29.9094C72.6641 28.5265 72.8991 27.3191 73.4901 26.2878C74.081 25.2562 74.9403 24.4388 76.0677 23.8352C77.195 23.2314 78.492 22.8655 79.9583 22.7373C82.3771 22.5256 84.3521 22.9488 85.8839 24.0064C87.4158 25.0642 88.3456 26.7 88.6737 28.9134V28.9134Z" fill="black" fill-opacity="0.18"/>
<path fill-rule="evenodd" clip-rule="evenodd" d="M102.019 42.6239L94.8779 43.2486L89.5947 26.6217L95.8792 26.0719L98.1242 36.2683L99.3073 25.7721L106.077 25.1798L109.19 35.4214L109.648 24.8673L115.504 24.355L113.16 41.6491L106.019 42.274C105.092 39.1432 104.166 36.0124 103.24 32.8817L102.019 42.6239Z" fill="black"/>
<path fill-rule="evenodd" clip-rule="evenodd" d="M102.019 42.6239L94.8779 43.2486L89.5947 26.6217L95.8792 26.0719L98.1242 36.2683L99.3073 25.7721L106.077 25.1798L109.19 35.4214L109.648 24.8673L115.504 24.355L113.16 41.6491L106.019 42.274C105.092 39.1432 104.166 36.0124 103.24 32.8817L102.019 42.6239Z" fill="black" fill-opacity="0.18"/>
<path fill-rule="evenodd" clip-rule="evenodd" d="M124.673 40.6414L118.331 41.1962L116.847 24.2369L123.189 23.6821L124.673 40.6414Z" fill="black"/>
<path fill-rule="evenodd" clip-rule="evenodd" d="M124.673 40.6414L118.331 41.1962L116.847 24.2369L123.189 23.6821L124.673 40.6414Z" fill="black" fill-opacity="0.18"/>
<path fill-rule="evenodd" clip-rule="evenodd" d="M140.614 28.0667L134.701 28.5839C134.369 27.6434 133.679 27.219 132.632 27.3106C132.041 27.3622 131.767 27.6286 131.809 28.1097C131.839 28.4506 132.076 28.6926 132.52 28.8353C132.965 28.9783 133.662 29.1091 134.613 29.2282C135.853 29.3619 136.92 29.5562 137.816 29.8112C138.711 30.0662 139.506 30.5372 140.199 31.2239C140.892 31.9107 141.295 32.8954 141.407 34.1784C141.495 35.1807 141.307 36.0961 140.842 36.9246C140.377 37.7532 139.65 38.4328 138.66 38.9637C137.67 39.4947 136.48 39.8212 135.09 39.9429C132.766 40.1461 130.873 39.7865 129.411 38.8639C127.949 37.9416 126.97 36.5123 126.474 34.576L132.559 34.0437C132.759 35.016 133.459 35.4495 134.659 35.3446C135.306 35.2879 135.609 35.0191 135.567 34.538C135.533 34.157 135.29 33.8958 134.836 33.7534C134.382 33.6113 133.662 33.4927 132.675 33.3971C131.414 33.2448 130.366 33.0536 129.53 32.8239C128.694 32.594 127.94 32.1447 127.268 31.4765C126.595 30.808 126.204 29.8424 126.093 28.5796C126.004 27.5573 126.181 26.6225 126.625 25.7758C127.069 24.9289 127.776 24.2308 128.745 23.6813C129.714 23.1321 130.922 22.7941 132.369 22.6674C134.56 22.4758 136.355 22.8793 137.757 23.8776C139.159 24.8762 140.111 26.2724 140.614 28.0667V28.0667Z" fill="black"/>
<path fill-rule="evenodd" clip-rule="evenodd" d="M140.614 28.0667L134.701 28.5839C134.369 27.6434 133.679 27.219 132.632 27.3106C132.041 27.3622 131.767 27.6286 131.809 28.1097C131.839 28.4506 132.076 28.6926 132.52 28.8353C132.965 28.9783 133.662 29.1091 134.613 29.2282C135.853 29.3619 136.92 29.5562 137.816 29.8112C138.711 30.0662 139.506 30.5372 140.199 31.2239C140.892 31.9107 141.295 32.8954 141.407 34.1784C141.495 35.1807 141.307 36.0961 140.842 36.9246C140.377 37.7532 139.65 38.4328 138.66 38.9637C137.67 39.4947 136.48 39.8212 135.09 39.9429C132.766 40.1461 130.873 39.7865 129.411 38.8639C127.949 37.9416 126.97 36.5123 126.474 34.576L132.559 34.0437C132.759 35.016 133.459 35.4495 134.659 35.3446C135.306 35.2879 135.609 35.0191 135.567 34.538C135.533 34.157 135.29 33.8958 134.836 33.7534C134.382 33.6113 133.662 33.4927 132.675 33.3971C131.414 33.2448 130.366 33.0536 129.53 32.8239C128.694 32.594 127.94 32.1447 127.268 31.4765C126.595 30.808 126.204 29.8424 126.093 28.5796C126.004 27.5573 126.181 26.6225 126.625 25.7758C127.069 24.9289 127.776 24.2308 128.745 23.6813C129.714 23.1321 130.922 22.7941 132.369 22.6674C134.56 22.4758 136.355 22.8793 137.757 23.8776C139.159 24.8762 140.111 26.2724 140.614 28.0667V28.0667Z" fill="black" fill-opacity="0.18"/>
<path fill-rule="evenodd" clip-rule="evenodd" d="M149.927 21.3443L152.556 21.1144L153.042 26.6773L150.414 26.9072L150.814 31.4778C150.827 31.6184 150.849 31.7586 150.892 31.8935C150.922 31.9865 150.961 32.0772 151.015 32.1591C151.049 32.2113 151.089 32.2597 151.135 32.3021C151.342 32.4945 151.644 32.5334 151.915 32.5275C151.965 32.5265 152.016 32.5235 152.066 32.5196L153.599 32.3855L154.097 38.0688L151.697 38.2788C147.279 38.6651 144.867 36.5431 144.462 31.9123L144.072 27.4621L142.073 27.6369L141.586 22.0741L143.586 21.8991L143.228 17.8096L149.57 17.2546L149.927 21.3443V21.3443Z" fill="black"/>
<path fill-rule="evenodd" clip-rule="evenodd" d="M149.927 21.3443L152.556 21.1144L153.042 26.6773L150.414 26.9072L150.814 31.4778C150.827 31.6184 150.849 31.7586 150.892 31.8935C150.922 31.9865 150.961 32.0772 151.015 32.1591C151.049 32.2113 151.089 32.2597 151.135 32.3021C151.342 32.4945 151.644 32.5334 151.915 32.5275C151.965 32.5265 152.016 32.5235 152.066 32.5196L153.599 32.3855L154.097 38.0688L151.697 38.2788C147.279 38.6651 144.867 36.5431 144.462 31.9123L144.072 27.4621L142.073 27.6369L141.586 22.0741L143.586 21.8991L143.228 17.8096L149.57 17.2546L149.927 21.3443V21.3443Z" fill="black" fill-opacity="0.18"/>
<path fill-rule="evenodd" clip-rule="evenodd" d="M182.29 35.6005L175.949 36.1553L174.003 13.9037L180.344 13.3489L181.362 24.9859L184.835 18.2888L192.205 17.644L186.924 26.7111L193.832 34.5908L186.261 35.2531C184.741 33.1137 183.22 30.9742 181.698 28.8348L182.29 35.6005V35.6005Z" fill="black"/>
<path fill-rule="evenodd" clip-rule="evenodd" d="M182.29 35.6005L175.949 36.1553L174.003 13.9037L180.344 13.3489L181.362 24.9859L184.835 18.2888L192.205 17.644L186.924 26.7111L193.832 34.5908L186.261 35.2531C184.741 33.1137 183.22 30.9742 181.698 28.8348L182.29 35.6005V35.6005Z" fill="black" fill-opacity="0.18"/>
<path fill-rule="evenodd" clip-rule="evenodd" d="M173.095 36.4049L166.781 36.9571L166.579 34.6418C166.247 35.4586 165.72 36.126 164.998 36.6437C164.276 37.1615 163.39 37.4661 162.343 37.5577C161.086 37.6675 159.922 37.421 158.853 36.8177C157.783 36.2143 156.9 35.2815 156.205 34.0192C155.509 32.757 155.083 31.2341 154.927 29.4496C154.771 27.6658 154.926 26.0915 155.392 24.7278C155.858 23.3638 156.565 22.292 157.514 21.5122C158.462 20.7323 159.565 20.2873 160.822 20.1773C161.87 20.0857 162.795 20.232 163.595 20.6163C164.397 21.0009 165.032 21.5665 165.5 22.3133L165.298 19.998L171.611 19.4456L173.095 36.4049V36.4049ZM163.447 25.8259C162.761 25.8859 162.222 26.1855 161.826 26.7251C161.432 27.2647 161.275 27.9854 161.354 28.8873C161.433 29.7895 161.713 30.4721 162.195 30.9349C162.678 31.3978 163.261 31.5989 163.947 31.539C164.632 31.479 165.172 31.1796 165.566 30.6398C165.96 30.1004 166.118 29.3797 166.039 28.4775C165.96 27.5755 165.68 26.893 165.198 26.43C164.716 25.9673 164.132 25.766 163.447 25.8259V25.8259Z" fill="black"/>
<path fill-rule="evenodd" clip-rule="evenodd" d="M173.095 36.4049L166.781 36.9571L166.579 34.6418C166.247 35.4586 165.72 36.126 164.998 36.6437C164.276 37.1615 163.39 37.4661 162.343 37.5577C161.086 37.6675 159.922 37.421 158.853 36.8177C157.783 36.2143 156.9 35.2815 156.205 34.0192C155.509 32.757 155.083 31.2341 154.927 29.4496C154.771 27.6658 154.926 26.0915 155.392 24.7278C155.858 23.3638 156.565 22.292 157.514 21.5122C158.462 20.7323 159.565 20.2873 160.822 20.1773C161.87 20.0857 162.795 20.232 163.595 20.6163C164.397 21.0009 165.032 21.5665 165.5 22.3133L165.298 19.998L171.611 19.4456L173.095 36.4049V36.4049ZM163.447 25.8259C162.761 25.8859 162.222 26.1855 161.826 26.7251C161.432 27.2647 161.275 27.9854 161.354 28.8873C161.433 29.7895 161.713 30.4721 162.195 30.9349C162.678 31.3978 163.261 31.5989 163.947 31.539C164.632 31.479 165.172 31.1796 165.566 30.6398C165.96 30.1004 166.118 29.3797 166.039 28.4775C165.96 27.5755 165.68 26.893 165.198 26.43C164.716 25.9673 164.132 25.766 163.447 25.8259V25.8259Z" fill="black" fill-opacity="0.18"/>
<path fill-rule="evenodd" clip-rule="evenodd" d="M116.831 19.7047C116.769 18.9935 116.963 18.383 117.415 17.8732C117.867 17.3635 118.501 17.0728 119.317 17.0013C120.12 16.9311 120.788 17.1079 121.321 17.5314C121.854 17.955 122.153 18.5224 122.215 19.2336C122.276 19.9302 122.08 20.5294 121.627 21.0319C121.175 21.5341 120.548 21.8205 119.745 21.8906C118.929 21.9621 118.254 21.7897 117.721 21.3736C117.189 20.9574 116.892 20.4011 116.831 19.7047V19.7047Z" fill="black"/>
<path fill-rule="evenodd" clip-rule="evenodd" d="M116.831 19.7047C116.769 18.9935 116.963 18.383 117.415 17.8732C117.867 17.3635 118.501 17.0728 119.317 17.0013C120.12 16.9311 120.788 17.1079 121.321 17.5314C121.854 17.955 122.153 18.5224 122.215 19.2336C122.276 19.9302 122.08 20.5294 121.627 21.0319C121.175 21.5341 120.548 21.8205 119.745 21.8906C118.929 21.9621 118.254 21.7897 117.721 21.3736C117.189 20.9574 116.892 20.4011 116.831 19.7047V19.7047Z" fill="black" fill-opacity="0.18"/>
<path fill-rule="evenodd" clip-rule="evenodd" d="M83.6993 18.7737L76.5479 22.2476L76.1584 17.7973L83.2677 13.8423L83.6993 18.7737Z" fill="black"/>
<path fill-rule="evenodd" clip-rule="evenodd" d="M83.6993 18.7737L76.5479 22.2476L76.1584 17.7973L83.2677 13.8423L83.6993 18.7737Z" fill="black" fill-opacity="0.18"/>
<path fill-rule="evenodd" clip-rule="evenodd" d="M28.072 1.10016C44.5745 -0.343581 59.1444 11.8822 60.5882 28.3845C62.0321 44.887 49.8063 59.4569 33.304 60.9009C16.8015 62.3444 2.2314 50.1188 0.787662 33.6163C-0.656079 17.114 11.5695 2.5441 28.072 1.10016V1.10016Z" fill="black"/>
<path fill-rule="evenodd" clip-rule="evenodd" d="M28.072 1.10016C44.5745 -0.343581 59.1444 11.8822 60.5882 28.3845C62.0321 44.887 49.8063 59.4569 33.304 60.9009C16.8015 62.3444 2.2314 50.1188 0.787662 33.6163C-0.656079 17.114 11.5695 2.5441 28.072 1.10016V1.10016Z" fill="black" fill-opacity="0.18"/>
<path fill-rule="evenodd" clip-rule="evenodd" d="M35.9456 14.2817L34.2674 13.528L29.301 14.4905C29.2771 14.4903 29.2373 14.4897 29.1835 14.4889L24.3404 14.3639L22.5968 15.4969L20.2252 13.8411L16.7271 16.5153L16.7723 22.8187L18.315 24.1132L14.0608 34.6819L17.1825 46.6772L23.2792 49.728L27.563 47.6945L32.2571 48.6712L36.7097 46.8682L41.4431 48.1259L46.7401 43.9181L47.699 31.7075L41.5772 22.0743L42.8693 20.476L41.8306 14.3218L37.872 12.2944L35.9456 14.2817V14.2817ZM24.3842 42.6081L21.3164 35.4204L18.1698 45.4896L18.2532 45.8102L23.3307 48.351L26.2127 46.8923L24.3931 42.6288L24.3773 42.6185L24.3842 42.6081V42.6081ZM37.925 45.843L41.1251 46.7764L45.532 43.2754L45.5659 42.8439L41.1374 33.6547L37.925 45.843ZM30.995 35.7725L31.4686 41.1857C31.4748 41.2558 31.4256 41.3188 31.3561 41.3298L28.893 41.7225C28.8223 41.7337 28.7553 41.6877 28.7405 41.6176L27.8863 37.5676L25.0927 42.6703L26.7932 46.6543L27.4228 46.396L32.1409 47.377L36.6151 45.5659L37.3105 45.713L38.5517 41.0042L35.0239 36.9234L34.9624 41.0715C34.9615 41.1442 34.9028 41.2026 34.8301 41.2038L32.4066 41.2374C32.3363 41.2384 32.2772 41.1851 32.2711 41.115L31.7994 35.7257L31.3448 35.6655L30.995 35.7725V35.7725ZM15.4476 35.0297L17.9018 44.46L20.8606 34.867L15.4476 35.0297V35.0297ZM41.528 33.0776L45.6525 41.7426L46.3968 32.2615L46.3992 32.2335L41.528 33.0776ZM24.7966 41.9765L27.8873 36.4191L21.7981 34.9509L24.7966 41.9765ZM34.79 35.8138L38.7357 40.3054L40.5664 33.3594L34.79 35.8138V35.8138ZM21.89 34.3292L28.4508 35.8977L30.9838 35.1204L30.7339 32.2639L28.5415 30.5403L26.0677 29.282L21.89 34.3292ZM33.2305 30.123L31.3588 32.2092L31.6089 35.0676L34.128 35.4006L40.435 32.7369L35.5109 28.4092L33.2305 30.123V30.123ZM40.629 23.6046L37.8715 24.7789L41.2183 32.492L46.1006 31.6461L44.2184 29.0687L40.7252 23.714L40.629 23.6046V23.6046ZM16.9046 31.6589L15.5896 34.3965L21.0534 34.232L22.7947 26.1093L21.7725 25.8524L19.7066 25.5144L16.9046 31.6589V31.6589ZM21.8833 33.3533L25.6109 28.8505L23.3596 26.467L21.8833 33.3533ZM35.866 27.8861L40.182 31.6795L37.3998 25.2684L35.866 27.8861V27.8861ZM23.6914 25.9047L25.9909 28.3395C26.0174 28.3156 26.0476 28.2963 26.0802 28.2824L27.8668 27.3415C27.8826 27.335 27.8988 27.3297 27.9154 27.3257L30.2864 26.7583L29.8384 22.4644L23.6914 25.9047V25.9047ZM30.4655 22.4293L30.9123 26.7113L33.3512 26.8385C33.3676 26.8395 33.3838 26.8415 33.3998 26.8448L35.3259 27.4221C35.3505 27.4275 35.3742 27.4355 35.3968 27.4464L36.9774 24.7487L30.4655 22.4293V22.4293ZM22.5103 17.0495L20.8695 21.2356L21.8807 21.2146C22.0219 21.2117 22.1477 21.3035 22.188 21.439L23.3552 25.3722L29.7683 21.7939L29.4393 18.6394L22.8686 16.8166L22.5103 17.0495V17.0495ZM30.0701 18.6394L30.3944 21.7477L37.1614 24.1491L37.4176 20.1236C37.4204 20.0817 37.431 20.0424 37.4482 20.0069C37.4881 19.9056 37.5794 19.8297 37.6917 19.8122L38.5969 19.6709L36.3219 15.826L36.0201 15.6905L30.0701 18.6394ZM18.1127 22.3058L18.8573 22.9307L19.6361 20.9442L18.1127 22.3058V22.3058ZM39.8232 19.2805L40.837 20.9944L41.4555 20.2295L39.8232 19.2805ZM20.6483 18.3617L20.097 15.5185L17.9861 17.1321L18.0177 21.5504L20.1417 19.6542L20.6483 18.3617V18.3617ZM38.3149 16.7307L39.1688 18.1745L41.4304 19.4892L40.6981 15.1515L38.3133 13.9299L38.3149 16.7307V16.7307ZM29.7614 15.6818L30.0012 17.9805L35.2605 15.3492L34.1092 14.8323L29.7614 15.6818V15.6818ZM23.5883 16.349L29.3702 17.976L29.1371 15.7428L24.7044 15.6235L23.5883 16.349ZM21.0759 17.2709L21.4778 16.2457L20.783 15.7606L21.0759 17.2709ZM37.1792 14.8116L37.3001 15.0156L37.6868 15.6695L37.6862 14.2886L37.1792 14.8116Z" fill="white"/>
</svg>
