<svg width="193" height="60" viewBox="0 0 193 60" fill="none" xmlns="http://www.w3.org/2000/svg">
<path d="M151.144 8.48561L149.313 8.6459C149.188 8.12304 148.933 7.7153 148.549 7.42261C148.164 7.12993 147.679 7.00937 147.091 7.06079C146.604 7.10337 146.239 7.25693 145.995 7.52143C145.751 7.78609 145.646 8.12437 145.682 8.53642C145.709 8.8426 145.827 9.08134 146.035 9.25286C146.244 9.42441 146.497 9.55066 146.794 9.63134C147.092 9.71217 147.512 9.7939 148.054 9.8771C148.769 9.98056 149.353 10.1016 149.803 10.2401C150.254 10.3787 150.651 10.6256 150.996 10.9812C151.34 11.3365 151.541 11.844 151.598 12.5031C151.669 13.3156 151.43 14.0007 150.881 14.5589C150.333 15.117 149.555 15.4402 148.549 15.5282C147.385 15.63 146.419 15.4298 145.652 14.9275C144.885 14.4252 144.384 13.6741 144.148 12.6745L146.03 12.5099C146.132 13.0347 146.396 13.4447 146.821 13.7398C147.246 14.0347 147.779 14.1541 148.424 14.0977C148.887 14.0572 149.241 13.8987 149.484 13.6225C149.727 13.346 149.832 13.0135 149.798 12.6251C149.769 12.2836 149.643 12.0218 149.422 11.8393C149.201 11.657 148.933 11.5232 148.618 11.4382C148.303 11.3531 147.875 11.2748 147.334 11.2036C146.641 11.0981 146.076 10.9815 145.638 10.8537C145.199 10.726 144.814 10.4898 144.482 10.1451C144.15 9.80048 143.956 9.3103 143.901 8.67454C143.829 7.85043 144.067 7.1563 144.616 6.5922C145.164 6.02824 145.964 5.70032 147.015 5.60841C148.111 5.51243 149.015 5.72685 149.727 6.25183C150.44 6.77678 150.912 7.52143 151.144 8.48561V8.48561ZM122.924 7.71591C123.828 7.63688 124.66 7.76568 125.418 8.10277C126.176 8.43987 126.792 8.96723 127.265 9.68518C127.737 10.403 128.018 11.2682 128.107 12.2806C128.196 13.3049 128.071 14.2116 127.73 15.0007C127.389 15.7897 126.874 16.4162 126.186 16.8797C125.498 17.3433 124.701 17.6145 123.797 17.6937C122.893 17.7727 122.064 17.6437 121.312 17.3059C120.559 16.9686 119.943 16.4382 119.464 15.7149C118.985 14.9917 118.701 14.1238 118.613 13.1113C118.524 12.0987 118.653 11.1978 119 10.4082C119.347 9.6186 119.861 8.99228 120.544 8.52908C121.226 8.06603 122.02 7.79508 122.924 7.71591V7.71591ZM108.257 18.9287L106.324 19.0978L106.127 16.8374C105.941 17.5772 105.567 18.1912 105.007 18.6792C104.446 19.1673 103.741 19.4483 102.894 19.5225C102.08 19.5937 101.336 19.4571 100.662 19.1125C99.9889 18.7683 99.4385 18.235 99.0108 17.5133C98.5832 16.7915 98.3247 15.9183 98.235 14.8941C98.1464 13.8816 98.25 12.9828 98.5458 12.1977C98.8415 11.4126 99.2911 10.7919 99.8946 10.3358C100.498 9.87951 101.207 9.61605 102.021 9.54483C102.868 9.47059 103.611 9.62504 104.248 10.0083C104.885 10.3916 105.359 10.9314 105.671 11.6277L105.473 9.3673L107.406 9.19816L108.257 18.9287V18.9287ZM83.8442 21.0645L81.9115 21.2337L80.8208 8.76584L82.7535 8.5967L83.2525 14.3009L87.5004 8.18151L89.8399 7.97682L85.1066 14.6014L90.797 20.4196L88.4406 20.6258L83.339 15.2898L83.8442 21.0645V21.0645ZM164.627 13.9971L162.694 14.166L161.843 4.43551L163.775 4.26651L164.627 13.9971ZM97.0214 12.153L96.445 12.2035L96.4252 12.2053C96.1527 12.2308 95.8821 12.2773 95.6198 12.3559C95.2727 12.4601 94.9418 12.6211 94.6582 12.8483C94.56 12.927 94.4664 13.0128 94.3829 13.107C94.3091 13.1901 94.2433 13.2802 94.1862 13.3752C94.079 13.5532 94.0022 13.7482 93.9502 13.9489C93.8428 14.3633 93.8371 14.7981 93.8732 15.2225L94.3043 20.1494L92.3717 20.3186L91.5203 10.588L93.4529 10.4189L93.6198 12.326C93.8808 11.6627 94.2887 11.1199 94.8441 10.6976C95.3994 10.2752 96.0613 10.0305 96.8299 9.96333L97.0214 12.153V12.153ZM112.512 18.5564L110.58 18.7255L109.436 5.65728L111.369 5.48815L112.024 12.9759L114.984 8.53524L117.306 8.33191L113.661 13.5267L118.15 18.0367L115.76 18.2458L112.134 14.2296L112.512 18.5564V18.5564ZM155.692 14.7787L153.76 14.9477L152.616 1.8795L154.549 1.71051L155.204 9.19816L158.164 4.75745L160.486 4.55427L156.841 9.74891L161.44 14.2758L159.049 14.485C157.804 13.1406 156.559 11.7963 155.314 10.452L155.692 14.7787V14.7787ZM134.111 16.6669L131.992 16.8522L128.546 7.34855L130.496 7.17804L132.965 14.8986L134.616 6.81759L136.65 6.6396L139.713 14.3082L140.804 6.27627L142.635 6.11598L140.892 16.0736L138.756 16.2604C137.768 13.82 136.78 11.3796 135.792 8.93905L134.111 16.6669V16.6669ZM123.077 9.46429C122.58 9.50779 122.132 9.66553 121.735 9.93752C121.337 10.2097 121.033 10.6011 120.821 11.1118C120.609 11.6228 120.535 12.2314 120.597 12.9377C120.659 13.6558 120.839 14.2452 121.135 14.7057C121.432 15.1662 121.8 15.4956 122.238 15.6948C122.677 15.8936 123.145 15.9713 123.643 15.9276C124.14 15.8842 124.587 15.7264 124.985 15.4544C125.382 15.1823 125.687 14.7939 125.899 14.2889C126.111 13.784 126.186 13.1724 126.123 12.4543C126.061 11.7479 125.882 11.1614 125.585 10.6951C125.288 10.2287 124.92 9.89614 124.481 9.69731C124.042 9.49833 123.574 9.42081 123.077 9.46429V9.46429ZM102.769 11.2589C101.91 11.334 101.248 11.6795 100.784 12.2955C100.319 12.9114 100.131 13.7198 100.219 14.7206C100.306 15.7213 100.632 16.4847 101.196 17.0107C101.76 17.5367 102.472 17.7621 103.331 17.687C103.873 17.6394 104.348 17.4645 104.754 17.162C105.161 16.8596 105.467 16.4561 105.673 15.9516C105.88 15.4472 105.955 14.8711 105.898 14.2236C105.842 13.588 105.669 13.0367 105.377 12.5699C105.086 12.1029 104.714 11.756 104.261 11.5286C103.809 11.3013 103.311 11.2113 102.769 11.2589V11.2589ZM161.324 1.63375C161.295 1.2923 161.383 0.999899 161.589 0.756409C161.795 0.513026 162.085 0.374941 162.458 0.342228C162.832 0.309551 163.144 0.395024 163.394 0.598353C163.646 0.80197 163.786 1.07429 163.816 1.4157C163.846 1.75715 163.755 2.044 163.541 2.27612C163.329 2.50824 163.035 2.64064 162.662 2.67331C162.289 2.70585 161.98 2.62624 161.736 2.434C161.491 2.24193 161.354 1.97516 161.324 1.63375V1.63375Z" fill="#10B3A6"/>
<path fill-rule="evenodd" clip-rule="evenodd" d="M87.9286 27.9114L81.1069 28.5082C80.9136 27.3949 80.4269 26.8725 79.6467 26.9407C79.3804 26.9639 79.1689 27.0682 79.0126 27.2535C78.8562 27.4386 78.793 27.7015 78.8227 28.042C78.863 28.5028 79.1385 28.857 79.6491 29.105C80.1598 29.353 80.9454 29.6224 82.0064 29.913C83.3423 30.2805 84.4543 30.6625 85.3421 31.0593C86.2301 31.4559 87.0327 32.0819 87.7498 32.9375C88.467 33.7931 88.8878 34.932 89.0123 36.3541C89.1192 37.576 88.916 38.7038 88.4024 39.7377C87.8889 40.7716 87.0862 41.6239 85.9944 42.2946C84.9026 42.9653 83.5672 43.3698 81.9878 43.5079C79.5713 43.7194 77.526 43.2979 75.8518 42.2436C74.1777 41.1892 73.1731 39.5159 72.8385 37.2241L79.5746 36.6348C79.7765 37.8483 80.3438 38.4144 81.2762 38.3328C81.5996 38.3045 81.8533 38.1914 82.0373 37.9936C82.2214 37.7958 82.2985 37.5268 82.2688 37.1863C82.2249 36.6855 81.9478 36.3112 81.4372 36.0632C80.9265 35.8153 80.1121 35.5483 78.9943 35.2626C77.6809 34.9335 76.5805 34.5757 75.6935 34.1892C74.8064 33.8026 74.0096 33.186 73.3027 32.3396C72.5958 31.4932 72.1795 30.3488 72.0533 28.9066C71.9323 27.5247 72.1671 26.3184 72.7576 25.288C73.3481 24.2574 74.2067 23.4404 75.3331 22.8374C76.4595 22.2341 77.7554 21.8685 79.2205 21.7404C81.6372 21.5289 83.6107 21.9518 85.1412 23.0086C86.6717 24.0654 87.6008 25.6997 87.9286 27.9114V27.9114Z" fill="#10B3A6"/>
<path fill-rule="evenodd" clip-rule="evenodd" d="M101.263 41.6104L94.1279 42.2347L88.8491 25.6217L95.1283 25.0722L97.3716 35.2601L98.5536 24.7726L105.318 24.1808L108.428 34.414L108.886 23.8686L114.737 23.3567L112.395 40.6365L105.259 41.2609C104.334 38.1327 103.408 35.0045 102.483 31.8764L101.263 41.6104V41.6104Z" fill="#10B3A6"/>
<path fill-rule="evenodd" clip-rule="evenodd" d="M123.898 39.6289L117.562 40.1832L116.079 23.2379L122.416 22.6836L123.898 39.6289Z" fill="#10B3A6"/>
<path fill-rule="evenodd" clip-rule="evenodd" d="M139.826 27.0641L133.917 27.581C133.586 26.6412 132.897 26.2171 131.85 26.3087C131.26 26.3603 130.986 26.6264 131.028 27.1071C131.058 27.4477 131.295 27.6894 131.739 27.8321C132.183 27.9749 132.88 28.1056 133.83 28.2245C135.069 28.3583 136.135 28.5525 137.03 28.8073C137.925 29.062 138.719 29.5325 139.411 30.2187C140.104 30.9049 140.507 31.8888 140.619 33.1707C140.706 34.1722 140.518 35.0869 140.054 35.9146C139.589 36.7425 138.862 37.4216 137.873 37.9521C136.884 38.4826 135.695 38.8088 134.306 38.9304C131.985 39.1334 130.093 38.7741 128.632 37.8524C127.171 36.9308 126.193 35.5026 125.698 33.5679L131.777 33.0361C131.977 34.0076 132.677 34.4408 133.876 34.336C134.523 34.2793 134.825 34.0108 134.783 33.53C134.75 33.1494 134.506 32.8882 134.053 32.7461C133.599 32.6042 132.879 32.4855 131.893 32.3901C130.634 32.2379 129.586 32.0469 128.752 31.8173C127.916 31.5876 127.163 31.1388 126.491 30.4711C125.819 29.8032 125.428 28.8383 125.317 27.5765C125.228 26.5551 125.405 25.6212 125.849 24.7752C126.293 23.929 126.998 23.2313 127.967 22.6825C128.935 22.1335 130.142 21.7959 131.588 21.6693C133.776 21.4778 135.571 21.881 136.972 22.8785C138.372 23.8762 139.324 25.2713 139.826 27.0641V27.0641Z" fill="#10B3A6"/>
<path fill-rule="evenodd" clip-rule="evenodd" d="M149.132 20.3487L151.758 20.119L152.244 25.6771L149.618 25.9068L150.018 30.4736C150.03 30.6141 150.053 30.7543 150.096 30.8891C150.125 30.9821 150.165 31.0726 150.218 31.1545C150.253 31.2065 150.292 31.2548 150.338 31.2974C150.545 31.4895 150.847 31.5283 151.118 31.5225C151.168 31.5214 151.218 31.5186 151.268 31.5147L152.801 31.3806L153.297 37.0591L150.9 37.2689C146.485 37.655 144.075 35.5348 143.671 30.9078L143.282 26.4613L141.284 26.636L140.797 21.0779L142.795 20.903L142.438 16.8168L148.774 16.2625L149.132 20.3487V20.3487Z" fill="#10B3A6"/>
<path fill-rule="evenodd" clip-rule="evenodd" d="M181.468 34.5945L175.132 35.1489L173.187 12.9157L179.523 12.3613L180.54 23.9887L184.011 17.2971L191.374 16.6528L186.098 25.7125L192.999 33.5857L185.435 34.2474C183.916 32.1097 182.396 29.9721 180.876 27.8344L181.468 34.5945V34.5945Z" fill="#10B3A6"/>
<path fill-rule="evenodd" clip-rule="evenodd" d="M172.278 35.3987L165.97 35.9505L165.768 33.6371C165.437 34.4532 164.91 35.1199 164.188 35.6372C163.467 36.1545 162.583 36.4589 161.536 36.5504C160.28 36.6603 159.117 36.4139 158.049 35.811C156.98 35.2082 156.098 34.2761 155.402 33.0149C154.707 31.7539 154.282 30.2321 154.126 28.4492C153.97 26.6667 154.125 25.0939 154.59 23.7312C155.056 22.3685 155.763 21.2974 156.711 20.5183C157.658 19.739 158.761 19.2944 160.017 19.1845C161.063 19.093 161.987 19.2392 162.787 19.6232C163.588 20.0074 164.222 20.5726 164.69 21.3187L164.488 19.0053L170.796 18.4534L172.278 35.3987V35.3987ZM162.639 24.8284C161.954 24.8884 161.415 25.1878 161.02 25.7269C160.626 26.266 160.469 26.9861 160.548 27.8873C160.627 28.7888 160.906 29.4708 161.388 29.9332C161.87 30.3957 162.453 30.5967 163.138 30.5369C163.823 30.4769 164.362 30.1776 164.756 29.6384C165.15 29.0995 165.308 28.3793 165.229 27.4778C165.15 26.5766 164.87 25.8947 164.388 25.4321C163.907 24.9698 163.324 24.7686 162.639 24.8284H162.639Z" fill="#10B3A6"/>
<path fill-rule="evenodd" clip-rule="evenodd" d="M116.063 18.7096C116 17.9992 116.195 17.389 116.647 16.8798C117.098 16.3704 117.731 16.08 118.547 16.0086C119.349 15.9384 120.016 16.1151 120.549 16.5382C121.082 16.9615 121.38 17.5285 121.442 18.2391C121.503 18.935 121.307 19.5337 120.855 20.0358C120.403 20.5376 119.776 20.8237 118.975 20.8939C118.159 20.9653 117.485 20.793 116.952 20.3772C116.42 19.9614 116.123 19.4055 116.063 18.7096V18.7096Z" fill="#10B3A6"/>
<path fill-rule="evenodd" clip-rule="evenodd" d="M82.9574 17.7808L75.8119 21.2518L75.4229 16.8052L82.5263 12.8535L82.9574 17.7808Z" fill="#10B3A6"/>
<path fill-rule="evenodd" clip-rule="evenodd" d="M27.3769 0.115682C43.8656 -1.3268 58.4235 10.8887 59.8661 27.3773C61.3087 43.866 49.093 58.4239 32.6045 59.8665C16.1158 61.309 1.55786 49.0935 0.115193 32.6048C-1.32729 16.1161 10.8882 1.55831 27.3769 0.115682V0.115682Z" fill="#10B3A6"/>
<path fill-rule="evenodd" clip-rule="evenodd" d="M35.2438 13.2843L33.5671 12.5314L28.6047 13.493C28.5808 13.4927 28.5411 13.4921 28.4874 13.4914L23.6483 13.3664L21.9062 14.4985L19.5364 12.8442L16.0413 15.5161L16.0865 21.8144L17.6278 23.1076L13.3772 33.6676L16.4963 45.6529L22.588 48.7011L26.8682 46.6694L31.5584 47.6452L36.0073 45.8437L40.7366 47.1003L46.0293 42.8961L46.9874 30.6956L40.8707 21.0706L42.1617 19.4735L41.1238 13.3243L37.1687 11.2988L35.2438 13.2843V13.2843ZM23.6921 41.5871L20.6269 34.4055L17.4828 44.4662L17.5661 44.7865L22.6395 47.3253L25.5191 45.8678L23.7009 41.6079L23.6852 41.5976L23.6921 41.5871V41.5871ZM37.2216 44.8194L40.4189 45.7519L44.8223 42.2539L44.8562 41.8226L40.4312 32.6412L37.2216 44.8194V44.8194ZM30.2973 34.7573L30.7705 40.1659C30.7767 40.236 30.7275 40.2989 30.6581 40.31L28.1971 40.7022C28.1265 40.7135 28.0596 40.6675 28.0448 40.5974L27.1913 36.5509L24.4 41.6493L26.0991 45.63L26.7281 45.3719L31.4423 46.3521L35.9129 44.5425L36.6077 44.6895L37.8477 39.9846L34.3228 35.9072L34.2615 40.0519C34.2604 40.1245 34.2018 40.1829 34.1292 40.184L31.7077 40.2176C31.6375 40.2187 31.5785 40.1653 31.5723 40.0952L31.1012 34.7105L30.6468 34.6503L30.2973 34.7573V34.7573ZM14.7629 34.015L17.2151 43.4376L20.1713 33.8525L14.7629 34.015ZM40.8215 32.0647L44.9425 40.7225L45.6864 31.2492L45.6887 31.2212L40.8215 32.0647V32.0647ZM24.1042 40.9561L27.1922 35.4034L21.1082 33.9363L24.1042 40.9561V40.9561ZM34.0892 34.7985L38.0316 39.2864L39.8608 32.3463L34.0892 34.7985V34.7985ZM21.1998 33.3151L27.7553 34.8825L30.2861 34.1056L30.0364 31.2516L27.8458 29.5295L25.3742 28.2722L21.1998 33.3151V33.3151ZM32.5309 29.1123L30.6608 31.1969L30.9106 34.053L33.4278 34.3857L39.7295 31.7243L34.8095 27.4001L32.5309 29.1123V29.1123ZM39.9233 22.5995L37.1681 23.7728L40.5122 31.4795L45.3903 30.6343L43.5098 28.0591L40.0194 22.7088L39.9233 22.5995V22.5995ZM16.2186 30.647L14.9049 33.3824L20.364 33.2181L22.1039 25.1021L21.0824 24.8454L19.0184 24.5077L16.2186 30.647ZM21.1932 32.3401L24.9176 27.8409L22.6682 25.4595L21.1932 32.3401V32.3401ZM35.1643 26.8774L39.4766 30.6677L36.6969 24.2618L35.1643 26.8774ZM22.9998 24.8976L25.2975 27.3304C25.3238 27.3065 25.354 27.2872 25.3867 27.2735L27.1718 26.3333C27.1876 26.3267 27.2037 26.3215 27.2202 26.3175L29.5894 25.7507L29.1417 21.4602L22.9998 24.8976ZM29.7683 21.4251L30.2147 25.7036L32.6516 25.8307C32.668 25.8316 32.6842 25.8337 32.7001 25.837L34.6246 26.4139C34.6492 26.4191 34.6729 26.4272 34.6954 26.438L36.2747 23.7427L29.7683 21.4251ZM21.8197 16.0498L20.1802 20.2324L21.1907 20.2116C21.3318 20.2086 21.4575 20.3004 21.4976 20.4357L22.6639 24.3657L29.0718 20.7902L28.7429 17.6385L22.1776 15.8171L21.8197 16.0498V16.0498ZM29.3732 17.6383L29.6972 20.7442L36.4586 23.1435L36.7146 19.1215C36.7173 19.0796 36.728 19.0403 36.7452 19.0048C36.7851 18.9036 36.8763 18.8277 36.9884 18.8102L37.8929 18.6691L35.6197 14.8273L35.3183 14.6919L29.3732 17.6383V17.6383ZM17.4258 21.3019L18.1698 21.9262L18.9479 19.9412L17.4258 21.3019ZM39.1181 18.2789L40.1311 19.9914L40.7491 19.2272L39.1181 18.2789ZM19.9593 17.3609L19.4085 14.52L17.2994 16.1323L17.3309 20.5469L19.4531 18.6523L19.9593 17.3609ZM37.611 15.7313L38.4644 17.174L40.724 18.4876L39.9925 14.1534L37.6095 12.933L37.611 15.7313V15.7313ZM29.0647 14.6833L29.3043 16.9801L34.5593 14.351L33.409 13.8346L29.0647 14.6833ZM22.8968 15.3498L28.6738 16.9756L28.441 14.7443L24.012 14.6251L22.8968 15.3498V15.3498ZM20.3865 16.2711L20.7881 15.2467L20.0938 14.762L20.3865 16.2711ZM36.4765 13.8138L36.5972 14.0177L36.9836 14.671L36.983 13.2912L36.4765 13.8138V13.8138Z" fill="white"/>
</svg>
