<svg width="170" height="60" viewBox="0 0 170 60" fill="none" xmlns="http://www.w3.org/2000/svg">
<path d="M152.31 11.3479C148.386 11.3487 144.622 12.9082 141.847 15.6834C139.071 18.4586 137.512 22.2223 137.511 26.1471V33.8529C137.511 37.7779 139.07 41.5421 141.846 44.3175C144.621 47.0929 148.385 48.652 152.31 48.652C156.235 48.652 159.999 47.0929 162.775 44.3175C165.55 41.5421 167.109 37.7779 167.109 33.8529V26.1471C167.109 22.2221 165.55 18.4579 162.775 15.6825C159.999 12.9071 156.235 11.3479 152.31 11.3479ZM165.1 33.8466C165.127 35.5428 164.816 37.2274 164.185 38.8022C163.554 40.377 162.616 41.8105 161.426 43.0194C160.236 44.2283 158.817 45.1883 157.252 45.8437C155.688 46.499 154.008 46.8364 152.312 46.8364C150.615 46.8364 148.936 46.499 147.371 45.8437C145.806 45.1883 144.388 44.2283 143.198 43.0194C142.007 41.8105 141.07 40.377 140.439 38.8022C139.808 37.2274 139.497 35.5428 139.524 33.8466V26.1471C139.576 22.79 140.946 19.5882 143.339 17.2327C145.732 14.8773 148.954 13.5571 152.312 13.5571C155.669 13.5571 158.892 14.8773 161.285 17.2327C163.677 19.5882 165.048 22.79 165.1 26.1471V33.8466Z" fill="black"/>
<path d="M134.33 21.3317C134.326 18.6856 133.273 16.1491 131.402 14.2778C129.532 12.4064 126.995 11.3529 124.349 11.3479H104.632V48.652H106.632V31.3155H122.046L132.09 48.652H134.411L124.377 31.3124C127.02 31.305 129.551 30.2501 131.417 28.3792C133.282 26.5083 134.33 23.9739 134.33 21.3317ZM106.632 29.3063V13.3697H124.349C126.408 13.4512 128.355 14.3264 129.783 15.8118C131.211 17.2973 132.008 19.2776 132.008 21.338C132.008 23.3983 131.211 25.3787 129.783 26.8641C128.355 28.3495 126.408 29.2247 124.349 29.3063H106.632Z" fill="black"/>
<path d="M99.7039 2.62964L67.9713 57.3703H70.2931L102.029 2.62964H99.7039Z" fill="black"/>
<path d="M95.1885 18.4319C96.8777 20.649 97.7912 23.3599 97.7884 26.1471V33.8529C97.7888 36.0079 97.2444 38.128 96.2059 40.0162C95.1673 41.9044 93.6683 43.4994 91.8481 44.653C90.0279 45.8066 87.9456 46.4814 85.7947 46.6146C83.6439 46.7477 81.4943 46.335 79.5457 45.4148L78.5301 47.1615C80.7864 48.2571 83.2841 48.7613 85.7887 48.6268C88.2934 48.4924 90.7227 47.7237 92.8488 46.393C94.9749 45.0622 96.728 43.213 97.9435 41.019C99.1589 38.8249 99.797 36.358 99.7976 33.8498V26.1471C99.8022 22.6355 98.5522 19.2377 96.2728 16.5664L95.1885 18.4319Z" fill="black"/>
<path d="M18.6928 48.652V13.3603H32.4858V11.3479H2.88749V13.3603H16.6805V48.652H18.6928Z" fill="black"/>
<path d="M63.0653 11.3479V29.3063H39.1636V11.3479H37.1512V48.652H39.1636V31.3155H63.0653V48.652H65.0746V11.3479H63.0653Z" fill="black"/>
<path d="M84.9985 11.3479C81.0737 11.3487 77.31 12.9082 74.5348 15.6834C71.7596 18.4586 70.2001 22.2223 70.1993 26.1471V33.8529C70.1948 37.366 71.446 40.765 73.7272 43.4367L74.8084 41.5618C73.1204 39.3441 72.2071 36.6336 72.2086 33.8466V26.1471C72.209 23.9924 72.7539 21.8728 73.7927 19.985C74.8314 18.0973 76.3304 16.5027 78.1503 15.3492C79.9703 14.1958 82.0521 13.521 84.2027 13.3874C86.3532 13.2538 88.5026 13.6659 90.4513 14.5852L91.4668 12.8384C89.4519 11.8568 87.2398 11.347 84.9985 11.3479Z" fill="black"/>
</svg>
