<svg width="218" height="80" viewBox="0 0 218 80" fill="none" xmlns="http://www.w3.org/2000/svg">
<path d="M176.311 21.3477C172.386 21.3485 168.622 22.9079 165.847 25.6831C163.072 28.4583 161.513 32.2221 161.512 36.1468V43.8526C161.512 47.7776 163.071 51.5418 165.846 54.3172C168.622 57.0926 172.386 58.6518 176.311 58.6518C180.236 58.6518 184 57.0926 186.775 54.3172C189.551 51.5418 191.11 47.7776 191.11 43.8526V36.1468C191.11 32.2218 189.551 28.4576 186.775 25.6822C184 22.9068 180.236 21.3477 176.311 21.3477ZM189.101 43.8464C189.127 45.5426 188.816 47.2271 188.185 48.8019C187.555 50.3767 186.617 51.8103 185.427 53.0192C184.237 54.2281 182.818 55.1881 181.253 55.8434C179.688 56.4987 178.009 56.8362 176.312 56.8362C174.616 56.8362 172.937 56.4987 171.372 55.8434C169.807 55.1881 168.388 54.2281 167.198 53.0192C166.008 51.8103 165.07 50.3767 164.44 48.8019C163.809 47.2271 163.498 45.5426 163.524 43.8464V36.1468C163.577 32.7898 164.947 29.588 167.34 27.2325C169.732 24.877 172.955 23.5568 176.312 23.5568C179.67 23.5568 182.893 24.877 185.285 27.2325C187.678 29.588 189.048 32.7898 189.101 36.1468V43.8464Z" fill="#C7D0CF"/>
<path d="M158.331 31.3315C158.327 28.6854 157.274 26.1489 155.403 24.2775C153.533 22.4062 150.997 21.3526 148.35 21.3477H128.633V58.6518H130.633V41.3153H146.047L156.091 58.6518H158.412L148.379 41.3122C151.021 41.3047 153.552 40.2499 155.418 38.379C157.283 36.508 158.331 33.9736 158.331 31.3315ZM130.633 39.306V23.3694H148.35C150.409 23.451 152.356 24.3262 153.784 25.8116C155.212 27.297 156.009 29.2774 156.009 31.3377C156.009 33.398 155.212 35.3784 153.784 36.8638C152.356 38.3493 150.409 39.2245 148.35 39.306H130.633Z" fill="#C7D0CF"/>
<path d="M123.701 12.6289L91.9688 67.3696H94.2905L126.026 12.6289H123.701Z" fill="#C7D0CF"/>
<path d="M119.19 28.4319C120.879 30.649 121.792 33.3599 121.79 36.1471V43.8529C121.79 46.0079 121.246 48.128 120.207 50.0162C119.168 51.9044 117.669 53.4994 115.849 54.653C114.029 55.8066 111.947 56.4814 109.796 56.6146C107.645 56.7477 105.495 56.335 103.547 55.4148L102.531 57.1616C104.788 58.2571 107.285 58.7613 109.79 58.6269C112.295 58.4924 114.724 57.7237 116.85 56.393C118.976 55.0622 120.729 53.213 121.945 51.019C123.16 48.8249 123.798 46.358 123.799 43.8498V36.1471C123.803 32.6355 122.553 29.2377 120.274 26.5664L119.19 28.4319Z" fill="#C7D0CF"/>
<path d="M42.6921 58.6518V23.36H56.485V21.3477H26.8867V23.36H40.6797V58.6518H42.6921Z" fill="#C7D0CF"/>
<path d="M87.0665 21.3477V39.306H63.1647V21.3477H61.1523V58.6518H63.1647V41.3153H87.0665V58.6518H89.0758V21.3477H87.0665Z" fill="#C7D0CF"/>
<path d="M108.998 21.3477C105.074 21.3485 101.31 22.9079 98.5347 25.6831C95.7595 28.4583 94.2001 32.2221 94.1992 36.1468V43.8526C94.1947 47.3657 95.446 50.7648 97.7272 53.4365L98.8083 51.5616C97.1204 49.3439 96.207 46.6334 96.2085 43.8464V36.1468C96.2089 33.9922 96.7538 31.8725 97.7926 29.9848C98.8314 28.0971 100.33 26.5024 102.15 25.349C103.97 24.1956 106.052 23.5207 108.203 23.3871C110.353 23.2536 112.503 23.6656 114.451 24.585L115.467 22.8382C113.452 21.8565 111.24 21.3468 108.998 21.3477Z" fill="#C7D0CF"/>
</svg>
