<svg width="93" height="32" viewBox="0 0 93 32" fill="none" xmlns="http://www.w3.org/2000/svg">
<path d="M56.7473 25.5591V6.44327H64.319C68.2463 6.44327 70.6651 8.67995 70.6651 12.165C70.6651 15.1299 69.0266 17.1585 66.0096 17.7047L71.6534 25.5591H67.4921L62.1343 17.8347H60.2845V25.5591H56.7473ZM60.2845 14.7138H64.189C66.0876 14.7138 67.1279 13.6735 67.1279 12.165C67.1279 10.6826 66.0876 9.61624 64.215 9.61624H60.2845V14.7138Z" fill="#202020"/>
<path d="M16.8754 6.44327H20.4126V13.3386H27.9485V6.44327H31.4856V25.5591H27.9485V16.4596H20.4126V25.5591H16.8754V6.44327Z" fill="#202020"/>
<path d="M0 6.44327H13.8235V9.72027H8.70631V25.5591H5.16917V9.72027H0V6.44327Z" fill="#202020"/>
<path d="M43.992 6C49.515 6 53.992 10.4772 53.992 16C53.992 21.5228 49.515 26 43.992 26C38.4691 25.9999 33.992 21.5228 33.992 16C33.992 10.4772 38.4691 6.00006 43.992 6ZM43.9949 9.19336C40.234 9.19336 37.1844 12.242 37.1844 16.0029C37.1845 19.7637 40.2341 22.8125 43.9949 22.8125C47.7557 22.8124 50.8044 19.7636 50.8045 16.0029C50.8045 12.2421 47.7558 9.19348 43.9949 9.19336Z" fill="#202020"/>
<path d="M82.8789 6C88.4018 6 92.8789 10.4772 92.8789 16C92.8789 21.5228 88.4018 26 82.8789 26C77.356 25.9999 72.8789 21.5228 72.8789 16C72.8789 10.4772 77.356 6.00007 82.8789 6ZM82.8779 9.19336C79.1171 9.19358 76.0683 12.2422 76.0683 16.0029C76.0684 19.7636 79.1172 22.8123 82.8779 22.8125C86.6388 22.8125 89.6883 19.7637 89.6884 16.0029C89.6884 12.242 86.6389 9.19336 82.8779 9.19336Z" fill="#202020"/>
</svg>
