<svg xmlns="http://www.w3.org/2000/svg" width="112" height="25" viewBox="0 0 112 25" fill="none">
<path d="M68.3691 24.2206V1.28162H77.455C82.1676 1.28162 85.0701 3.96563 85.0701 8.1477C85.0701 11.7056 83.1039 14.1399 79.4836 14.7953L86.2561 24.2206H81.2626L74.8334 14.9514H72.6136V24.2206H68.3691ZM72.6136 11.2062H77.299C79.5772 11.2062 80.8256 9.95785 80.8256 8.1477C80.8256 6.36876 79.5772 5.08917 77.3302 5.08917H72.6136V11.2062Z" fill="#181B1A"/>
<path d="M20.5195 1.28162H24.764V9.55603H33.807V1.28162H38.0515V24.2206H33.807V13.3012H24.764V24.2206H20.5195V1.28162Z" fill="#181B1A"/>
<path d="M0.271484 1.28198H16.8593V5.21438H10.7189V24.2209H6.47437V5.21438H0.271484V1.28198Z" fill="#181B1A"/>
<path fill-rule="evenodd" clip-rule="evenodd" d="M53.0664 24.75C59.6938 24.75 65.0664 19.3774 65.0664 12.75C65.0664 6.12258 59.6938 0.75 53.0664 0.75C46.439 0.75 41.0664 6.12258 41.0664 12.75C41.0664 19.3774 46.439 24.75 53.0664 24.75ZM53.0652 20.9216C57.5783 20.9216 61.2369 17.263 61.2369 12.7499C61.2369 8.23686 57.5783 4.57827 53.0652 4.57827C48.5522 4.57827 44.8936 8.23686 44.8936 12.7499C44.8936 17.263 48.5522 20.9216 53.0652 20.9216Z" fill="#181B1A"/>
<path fill-rule="evenodd" clip-rule="evenodd" d="M99.7266 24.75C106.354 24.75 111.727 19.3774 111.727 12.75C111.727 6.12258 106.354 0.75 99.7266 0.75C93.0991 0.75 87.7266 6.12258 87.7266 12.75C87.7266 19.3774 93.0991 24.75 99.7266 24.75ZM99.7254 20.9216C104.238 20.9216 107.897 17.263 107.897 12.7499C107.897 8.23686 104.238 4.57827 99.7254 4.57827C95.2123 4.57827 91.5537 8.23686 91.5537 12.7499C91.5537 17.263 95.2123 20.9216 99.7254 20.9216Z" fill="#181B1A"/>
</svg>