<svg width="107" height="45" viewBox="0 0 107 45" fill="none" xmlns="http://www.w3.org/2000/svg">
<path d="M65.2579 33.4935V11.5103H73.9651C78.4814 11.5103 81.2629 14.0825 81.2629 18.0903C81.2629 21.4999 79.3787 23.8329 75.9092 24.4609L82.3995 33.4935H77.614L71.4528 24.6105H69.3255V33.4935H65.2579ZM69.3255 21.0214H73.8156C75.9989 21.0214 77.1953 19.825 77.1953 18.0903C77.1953 16.3855 75.9989 15.1592 73.8455 15.1592H69.3255V21.0214Z" fill="#424242"/>
<path d="M19.4065 11.5103H23.4741V19.44H32.1402V11.5103H36.2078V33.4935H32.1402V23.029H23.4741V33.4935H19.4065V11.5103Z" fill="#424242"/>
<path d="M0 11.5103H15.8966V15.2789H10.012V33.4935H5.9444V15.2789H0V11.5103Z" fill="#424242"/>
<path d="M50.5941 11C56.9453 11 62.0941 16.1487 62.0941 22.5C62.0941 28.8513 56.9453 34 50.5941 34C44.243 33.9998 39.0941 28.8512 39.0941 22.5C39.0941 16.1488 44.243 11.0002 50.5941 11ZM50.597 14.6729C46.272 14.6729 42.766 18.1789 42.766 22.5039C42.766 26.829 46.272 30.335 50.597 30.335C54.9219 30.3348 58.4281 26.8288 58.4281 22.5039C58.428 18.179 54.9219 14.673 50.597 14.6729Z" fill="#424242"/>
<path d="M95.3127 11C101.664 11 106.813 16.1487 106.813 22.5C106.813 28.8513 101.664 34 95.3127 34C88.9615 33.9999 83.8127 28.8512 83.8127 22.5C83.8127 16.1488 88.9615 11.0001 95.3127 11ZM95.3136 14.6729C90.9886 14.6729 87.4816 18.1789 87.4816 22.5039C87.4816 26.829 90.9886 30.335 95.3136 30.335C99.6385 30.3347 103.145 26.8288 103.145 22.5039C103.145 18.179 99.6384 14.6731 95.3136 14.6729Z" fill="#424242"/>
</svg>
