<svg width="145" height="72" viewBox="0 0 145 72" fill="none" xmlns="http://www.w3.org/2000/svg">
<mask id="mask0_305_154" style="mask-type:luminance" maskUnits="userSpaceOnUse" x="0" y="0" width="145" height="72">
<path d="M144.901 0H0.15625V71.206H144.901V0Z" fill="white"/>
</mask>
<g mask="url(#mask0_305_154)">
<path d="M39.2289 0C38.0418 0.119701 36.909 0.557379 35.9499 1.26697C35.5949 1.44397 35.9128 2.04298 36.3418 1.82898C37.2133 1.18465 38.2425 0.787386 39.3209 0.679016C39.7149 0.680016 39.7149 0 39.2289 0ZM42.5868 0.404969C42.5117 0.411632 42.4409 0.442794 42.3852 0.493653C42.3296 0.544511 42.2921 0.612256 42.2787 0.686466C42.2653 0.760666 42.2767 0.837236 42.311 0.904356C42.3454 0.971486 42.4008 1.02546 42.4689 1.05799C43.4107 1.45687 44.2406 2.08041 44.8859 2.87403H44.8989V2.88703L44.9119 2.90003L44.9249 2.91303V2.92603L44.9379 2.93903H44.9509V2.95197L44.9639 2.96497L44.9769 2.97797L44.9899 2.99097V3.00397C45.0438 3.06111 45.1155 3.0984 45.1932 3.10975C45.271 3.12109 45.3503 3.10587 45.4183 3.06653C45.4863 3.0272 45.5391 2.96606 45.568 2.89301C45.597 2.81996 45.6005 2.73926 45.5779 2.66401C45.5624 2.62966 45.5404 2.59873 45.5129 2.573L45.4999 2.56V2.547L45.4869 2.534H45.4739L45.4609 2.521V2.508L45.4479 2.495L45.4349 2.482V2.469L45.4219 2.456H45.4089C44.6571 1.60693 43.7419 0.918166 42.7179 0.43097C42.6769 0.411825 42.632 0.402902 42.5868 0.404969ZM49.1979 2.88703C48.6979 2.88703 48.1979 3.04401 47.7219 3.04401C47.3549 3.04401 47.3449 3.69703 47.8529 3.69703H47.8789C48.3154 3.62376 48.7564 3.57995 49.1989 3.56598C49.8338 3.55629 50.4682 3.60892 51.0929 3.72303C51.5929 3.72303 51.5849 3.05701 51.2099 3.05701C50.5463 2.93511 49.8725 2.87819 49.1979 2.88703ZM33.8068 3.61902C33.7761 3.61928 33.7455 3.62365 33.7159 3.63202C33.675 3.64155 33.637 3.66078 33.6052 3.68811C33.5733 3.71545 33.5485 3.75005 33.5329 3.78901C32.8769 4.73339 32.3415 5.75597 31.9389 6.83301C31.7469 7.21701 32.3668 7.493 32.5658 7.094C32.9992 6.07198 33.5104 5.08474 34.0949 4.141C34.1229 4.08876 34.1374 4.03035 34.137 3.97107C34.1367 3.9118 34.1215 3.85354 34.0929 3.80164C34.0643 3.74974 34.0231 3.70586 33.9731 3.67395C33.9231 3.64205 33.866 3.62316 33.8068 3.61902ZM54.2069 4.37702C54.1406 4.38696 54.0784 4.41513 54.0272 4.45844C53.976 4.50175 53.9379 4.55846 53.9171 4.6222C53.8964 4.68594 53.8938 4.7542 53.9096 4.81934C53.9255 4.88448 53.9591 4.94389 54.0069 4.99097C54.8509 5.64952 55.4518 6.57023 55.7149 7.60798C55.9269 8.03398 56.5438 7.77999 56.3679 7.42499C56.0969 6.06299 55.2249 5.46299 54.4339 4.47199C54.4052 4.43928 54.3693 4.41371 54.329 4.39722C54.2888 4.38074 54.2453 4.37381 54.2019 4.37702H54.2069ZM110.14 4.599C109.705 4.58754 109.273 4.66373 108.869 4.823C108.465 4.98228 108.097 5.22137 107.788 5.52601C107.477 5.82237 107.231 6.17954 107.064 6.57526C106.898 6.97098 106.815 7.39675 106.821 7.82599C106.981 9.43771 107.697 10.9435 108.846 12.085L111.355 15.064C112.01 15.6689 112.47 16.4559 112.675 17.324C112.671 17.4822 112.654 17.6398 112.623 17.795L113.433 19.036L116.233 18.788L114.757 16.58C114.616 16.3671 114.463 16.1621 114.3 15.966C113.773 15.4349 113.422 14.7555 113.294 14.019C113.337 13.5508 113.499 13.1015 113.764 12.713L113.964 12.386C114.484 11.5994 114.786 10.6887 114.839 9.74702C114.834 8.41546 114.314 7.13737 113.389 6.18C112.993 5.69651 112.497 5.30472 111.935 5.03174C111.374 4.75876 110.759 4.61111 110.135 4.599H110.14ZM40.1879 4.71698C39.7029 4.73599 39.2295 4.8704 38.8069 5.10901C38.3843 5.34762 38.0246 5.68357 37.7579 6.08899C36.7602 7.61392 35.9942 9.27838 35.4849 11.028C34.5169 13.916 33.6719 16.8383 32.9499 19.795C32.2279 22.7516 31.6662 25.6183 31.2649 28.395C30.5257 29.0844 29.7054 29.6811 28.8219 30.172C28.1995 30.525 27.4992 30.7181 26.7839 30.734C26.126 30.773 25.4702 30.6283 24.8899 30.316C24.7144 30.1556 24.5792 29.9561 24.4953 29.7337C24.4114 29.5114 24.3811 29.2723 24.4069 29.036C24.4388 28.1682 24.5793 27.3079 24.8249 26.475C25.2079 25.1509 25.6571 23.847 26.1709 22.568C26.5982 21.4713 27.0948 20.3 27.6608 19.054C27.9996 18.3854 28.2835 17.6905 28.5098 16.976C28.5098 16.606 28.2029 16.292 27.5949 16.022C26.9207 15.7405 26.1953 15.6026 25.4649 15.617C24.6055 15.617 23.9305 16.4793 23.4399 18.204C23.0288 19.6913 22.5179 21.1493 21.9108 22.568C21.1352 24.5129 20.1028 26.3451 18.8409 28.016C17.7619 29.369 16.7998 30.042 15.9668 30.041C15.8185 30.0493 15.67 30.0269 15.5306 29.9753C15.3913 29.9237 15.264 29.8439 15.1569 29.741C14.951 29.5028 14.8479 29.1929 14.8699 28.879C14.9269 28.1551 15.0851 27.4429 15.3399 26.763C15.6539 25.793 16.1879 24.377 16.9469 22.53C17.4129 21.402 17.9469 20.223 18.5279 19.002C18.8731 18.3515 19.1658 17.6743 19.4029 16.977C19.4029 16.619 19.0029 16.277 18.2029 15.971C17.4209 15.6618 16.5877 15.5023 15.7468 15.501C15.1198 15.501 14.4869 16.479 13.8529 18.428C13.6529 19.011 13.5019 19.475 13.3829 19.813C13.2579 20.195 13.0659 20.738 12.8209 21.433C11.5322 25.1663 10.8875 27.64 10.8869 28.854C10.8869 29.035 10.8939 29.172 10.8999 29.259C10.9059 29.346 10.9139 29.433 10.9259 29.52C10.3025 29.8769 9.6406 30.1617 8.95286 30.369C8.26924 30.5671 7.56407 30.6812 6.85287 30.709L6.13386 33.192C7.08577 33.1295 8.02784 32.9618 8.94286 32.692C9.7475 32.4371 10.5093 32.0629 11.2029 31.582C11.41 32.1033 11.8015 32.5303 12.3028 32.782C12.9086 33.0763 13.5767 33.2197 14.2499 33.2C15.4989 33.1717 16.6958 32.6938 17.6209 31.854C19.2811 30.2516 20.734 28.4475 21.9459 26.484C21.6379 27.475 21.4249 28.284 21.2929 28.884C21.1682 29.389 21.0982 29.906 21.0839 30.426C21.0425 30.844 21.1155 31.2653 21.295 31.645C21.4745 32.0247 21.7537 32.3485 22.1029 32.582C23.2495 33.0812 24.5009 33.292 25.7479 33.196C26.844 33.1738 27.9259 32.9433 28.9359 32.517C29.8929 32.0969 30.7719 31.5181 31.5358 30.805C31.6319 31.1963 31.8127 31.5618 32.0655 31.8756C32.3183 32.1894 32.6369 32.4438 32.9989 32.621C34.0053 33.0631 35.101 33.2645 36.1989 33.209H36.6169C37.6142 33.1618 38.5956 32.9408 39.5169 32.556C40.465 32.165 41.3432 31.6222 42.1169 30.949C42.7049 31.7635 43.5454 32.3611 44.5079 32.649C45.8337 33.0645 47.2189 33.2588 48.6079 33.224C49.8808 33.1536 51.126 32.8241 52.2672 32.2558C53.4084 31.6876 54.4216 30.8924 55.2449 29.919C56.9962 27.8463 58.6902 24.4406 60.3269 19.7019C60.8992 20.0185 61.4415 20.3868 61.9469 20.802C62.0791 20.898 62.1894 21.021 62.2704 21.1629C62.3514 21.3048 62.4014 21.4623 62.4169 21.625C62.1564 22.9733 61.6892 24.2733 61.0319 25.479C60.2794 26.8811 59.8089 28.417 59.6469 30C59.6163 30.5074 59.7364 31.0124 59.9921 31.4517C60.2478 31.891 60.6276 32.2449 61.0839 32.469C62.592 33.077 64.2169 33.3404 65.8399 33.24C66.1719 33.24 66.4838 33.234 66.7808 33.227C67.5879 33.1953 68.3908 33.095 69.1809 32.927C69.9094 32.7663 70.6125 32.5069 71.2709 32.156C71.5895 32.5576 72.0152 32.861 72.4989 33.031C73.0822 33.2344 73.6972 33.3316 74.3149 33.318C75.8404 33.2999 77.3075 32.7289 78.4439 31.711C80.0337 30.2519 81.3559 28.5259 82.3508 26.611C82.0119 27.589 81.7569 28.381 81.6059 29.002C81.4781 29.5197 81.408 30.0499 81.3969 30.583C81.3663 31.0048 81.4617 31.4263 81.6711 31.7937C81.8805 32.1612 82.1944 32.4582 82.5729 32.647C83.8637 33.1372 85.2454 33.342 86.6229 33.247H86.9498L87.6688 30.791C86.9516 30.7769 86.2431 30.6308 85.5788 30.36C85.4186 30.2464 85.2918 30.092 85.2114 29.9128C85.1311 29.7336 85.1001 29.5362 85.1218 29.341C85.1841 28.3027 85.3907 27.2782 85.7359 26.297C86.2656 24.6845 86.8805 23.1013 87.5779 21.554C87.9779 20.62 88.4358 19.642 88.9628 18.614C89.2839 18.0658 89.5518 17.4881 89.7629 16.889C89.7629 16.5 89.4549 16.159 88.8219 15.87C88.1212 15.5681 87.3636 15.4207 86.6008 15.438C86.3538 15.421 86.1087 15.4918 85.9089 15.638C85.6736 15.9175 85.508 16.2489 85.4259 16.605L85.1778 17.428C84.7149 16.9469 84.1595 16.5646 83.5448 16.304C82.8856 16.0561 82.185 15.9362 81.4809 15.951C79.8434 15.9665 78.244 16.4468 76.8689 17.336C75.2518 18.3876 73.8652 19.7566 72.7929 21.36C72.0298 22.4633 71.4066 23.6571 70.9379 24.914C70.5243 25.9776 70.299 27.1051 70.2719 28.246C70.2719 28.566 70.2859 28.872 70.3109 29.146C70.3359 29.42 70.3718 29.686 70.4108 29.946C69.9605 30.1996 69.4768 30.3888 68.9739 30.508C68.4605 30.6414 67.9353 30.7245 67.4058 30.756C66.4157 30.8037 65.4258 30.6573 64.4919 30.325C64.3257 30.2376 64.1893 30.1025 64.1003 29.9372C64.0112 29.7719 63.9735 29.5838 63.9919 29.397C64.2238 27.9307 64.7194 26.5185 65.4549 25.229C66.2053 23.9078 66.7057 22.4596 66.9309 20.957C66.9309 19.999 66.0249 19.036 64.2309 18.07C63.2409 17.517 62.4309 17.042 61.8139 16.646C61.9411 16.4064 62.0375 16.1517 62.1009 15.888C62.1678 15.6232 62.2014 15.3511 62.2009 15.078C62.2135 14.8043 62.1676 14.5311 62.0662 14.2765C61.9648 14.022 61.8102 13.792 61.6128 13.602C61.1137 13.1959 60.4749 13.0025 59.8343 13.0637C59.1938 13.1249 58.6031 13.4357 58.1899 13.929C57.6919 14.5449 57.4321 15.3194 57.4578 16.111C57.452 16.5162 57.5197 16.919 57.6579 17.3C57.8021 17.6485 58.0154 17.9641 58.2849 18.228C57.1917 21.5253 55.7231 24.6861 53.9079 27.648C52.6459 29.448 51.2749 30.648 49.7399 30.748C48.7121 30.8246 47.6856 30.583 46.7999 30.056C46.4983 29.9002 46.2459 29.664 46.0706 29.3734C45.8953 29.0828 45.804 28.7493 45.8068 28.41C45.821 28.0138 45.8736 27.62 45.9639 27.234C46.0838 26.6511 46.2343 26.075 46.4148 25.508L48.2149 19.589H50.9058C51.256 19.6108 51.607 19.5618 51.9379 19.445C52.0366 19.3946 52.1236 19.324 52.1934 19.2379C52.2631 19.1518 52.314 19.052 52.3429 18.945L52.6569 18.057C52.6681 18.0095 52.6768 17.9614 52.6829 17.913C52.691 17.8567 52.6953 17.7999 52.6959 17.743C52.6985 17.6786 52.6828 17.6148 52.6503 17.5592C52.6179 17.5035 52.5702 17.4584 52.5129 17.429C52.3449 17.3528 52.161 17.3184 51.9769 17.329H48.8939L51.0109 11.123C51.0869 10.904 51.1999 10.617 51.3509 10.248C51.5626 9.80222 51.7036 9.32616 51.7689 8.83698C51.7573 8.64113 51.6861 8.45356 51.5647 8.29944C51.4433 8.14533 51.2776 8.03207 51.0899 7.97498C50.4851 7.74892 49.8409 7.64691 49.1959 7.67499C48.0549 7.67499 47.3059 8.46098 46.9229 10.053C46.7909 10.617 46.6708 11.066 46.5698 11.386L44.7699 17.331H43.3978C43.0452 17.3065 42.6911 17.3465 42.3529 17.449C42.2588 17.4977 42.1763 17.566 42.1109 17.6493C42.0455 17.7327 41.9988 17.829 41.9739 17.932L41.6739 18.807C41.6477 18.8796 41.626 18.9537 41.6088 19.029C41.5975 19.194 41.649 19.3573 41.7529 19.486C41.9243 19.5652 42.114 19.5965 42.3019 19.5769H44.0918L42.5369 25.038C42.2031 26.6122 41.5101 28.0879 40.5119 29.35C39.651 30.181 38.5188 30.6729 37.3239 30.735C36.7413 30.7929 36.1573 30.64 35.6778 30.304C35.4949 30.115 35.3548 29.8888 35.267 29.6409C35.1792 29.3929 35.1457 29.129 35.1688 28.867C35.3089 27.1641 35.5973 25.4767 36.0308 23.824C36.5975 21.2866 37.3552 18.508 38.3039 15.488C39.4413 14.1041 40.4188 12.5962 41.2179 10.993C41.8369 9.87002 42.2067 8.62681 42.3019 7.34803C42.328 6.66615 42.1159 5.99641 41.7019 5.45398C41.5239 5.22207 41.294 5.03508 41.0308 4.90796C40.7675 4.78085 40.4782 4.71716 40.1859 4.72199L40.1879 4.71698ZM110.245 5.84101C110.692 5.86189 111.128 5.98737 111.519 6.2074C111.909 6.42744 112.242 6.73587 112.492 7.10798C113.148 7.91141 113.504 8.91855 113.498 9.95602C113.502 10.5827 113.31 11.195 112.949 11.707C112.83 11.9278 112.658 12.1154 112.449 12.2524C112.239 12.3894 111.998 12.4714 111.749 12.491C111.159 12.491 110.489 12.027 109.737 11.08L109.162 10.361C108.554 9.66572 108.18 8.79778 108.091 7.87897C108.09 7.60796 108.147 7.33998 108.258 7.09241C108.368 6.84484 108.529 6.62326 108.731 6.44202C109.135 6.05123 109.676 5.83496 110.239 5.83997L110.245 5.84101ZM60.0219 8.271C58.9233 8.24694 57.8361 8.4986 56.8599 9.003C56.7856 9.04578 56.7306 9.11529 56.7059 9.19733C56.6812 9.27937 56.6888 9.36772 56.7271 9.44434C56.7654 9.52096 56.8316 9.58008 56.912 9.60952C56.9924 9.63902 57.0811 9.63672 57.1599 9.60297C57.6008 9.37161 58.0721 9.2033 58.5599 9.10297C59.0431 9.01562 59.5321 8.96317 60.0228 8.94599H60.2449L60.2709 8.95899C60.3588 8.95897 60.4432 8.92492 60.5066 8.86396C60.5699 8.80299 60.6072 8.71987 60.6106 8.63202C60.6139 8.54418 60.5831 8.4584 60.5246 8.39277C60.4662 8.32713 60.3845 8.28671 60.2969 8.27997H60.1659L60.1399 8.26697L60.1269 8.27997L60.1009 8.26697H60.0149L60.0219 8.271ZM63.5369 9.185C63.2089 9.165 63.0138 9.64902 63.3368 9.81202C63.722 10.0327 64.0776 10.3015 64.3949 10.612H64.4079C64.8603 11.0411 65.2477 11.534 65.5578 12.075C65.7459 12.452 66.3489 12.155 66.1459 11.748C65.7985 11.1459 65.3675 10.5961 64.8659 10.115C64.5089 9.76962 64.1094 9.47122 63.6769 9.22699C63.6315 9.20254 63.5813 9.18822 63.5299 9.185H63.5369ZM31.0299 9.82502C30.9758 9.83972 30.9256 9.86602 30.8828 9.90212C30.8399 9.93822 30.8055 9.98322 30.7819 10.034L30.7168 10.217L30.6169 10.544L30.5649 10.714L30.4869 10.962C30.4107 11.1294 30.3537 11.3048 30.3169 11.485C30.2627 11.6252 30.219 11.7693 30.1859 11.916L30.1599 11.968L30.1209 11.942H30.1079L30.0949 11.929H30.0819L30.0689 11.916H30.0559V11.903L30.0299 11.89L30.0039 11.877L29.9779 11.864H29.9649L29.9519 11.851L29.9129 11.838L29.8999 11.825L29.8869 11.812H29.8739L29.8609 11.799H29.8349V11.786H29.8219L29.7829 11.76H29.7699L29.7569 11.747H29.7439L29.7179 11.734L29.7049 11.721H29.6919C29.3019 11.526 29.0229 12.138 29.4179 12.335H29.4309L29.4439 12.348L29.4699 12.361L29.5089 12.387H29.5349V12.4L29.5739 12.426H29.5998L29.6258 12.439L29.6518 12.4519H29.6648V12.465L29.6908 12.478L29.7168 12.491H29.7299L29.7429 12.504L29.7689 12.517L29.7819 12.53H29.8079V12.543L29.8599 12.569L29.8859 12.582L29.9249 12.595L29.9509 12.621H29.9769V12.634L30.0029 12.647L30.0289 12.66L30.0549 12.686L30.1069 12.712L30.1329 12.725C30.1523 12.7384 30.1745 12.7473 30.1979 12.751L30.5509 12.999L30.6818 12.568L30.6948 12.516H30.7078L30.7338 12.425L30.7598 12.334L30.7989 12.203L30.8379 12.085V12.072L30.9689 11.654L31.1128 11.197V11.184C31.1808 11.018 31.2439 10.833 31.2959 10.661L31.3219 10.543L31.3609 10.443L31.3869 10.365L31.4259 10.265C31.5429 10.031 31.3398 9.84402 31.1258 9.83402C31.0926 9.82542 31.0581 9.82242 31.0239 9.82502H31.0299ZM86.2049 10.674V10.687L86.0049 10.7H85.9529L85.7439 10.726H85.6919L85.5349 10.752L85.4829 10.765H85.4439L85.3129 10.791L85.2739 10.804L85.2089 10.817L85.0779 10.843L84.8299 10.908L84.7909 10.921L84.5909 10.986H84.5779L84.4859 11.025C84.0809 11.225 84.3298 11.853 84.7078 11.665L84.7468 11.652L84.8248 11.626L84.9559 11.574L84.9949 11.561L85.0599 11.548L85.1249 11.535L85.1639 11.522L85.1899 11.509L85.2549 11.496L85.3198 11.483L85.3848 11.47L85.4238 11.457H85.4498L85.5809 11.431H85.6069L85.6719 11.418L85.7499 11.405L85.8019 11.392H85.8539L85.9849 11.379L86.0239 11.366H86.0889L86.1889 11.353H86.3718L86.4238 11.34H86.5809C87.0173 11.3418 87.4533 11.3678 87.8869 11.418C88.3749 11.418 88.3689 10.752 87.9779 10.752C87.513 10.7007 87.0456 10.6746 86.5779 10.674H86.1859H86.2049ZM16.9049 10.774C16.4249 10.774 16.4279 11.453 16.8269 11.453C17.9754 11.5664 19.0994 11.8572 20.1589 12.315C20.5359 12.498 20.7159 11.878 20.4199 11.715C19.3135 11.1906 18.1205 10.8734 16.8999 10.779L16.9049 10.774ZM25.4629 10.826C24.554 10.8179 23.6555 11.0191 22.8368 11.414C22.7619 11.4547 22.7054 11.5227 22.6791 11.6039C22.6528 11.6851 22.6587 11.7733 22.6955 11.8503C22.7323 11.9272 22.7973 11.9872 22.877 12.0176C22.9567 12.0481 23.0451 12.0468 23.1239 12.014C23.8542 11.6672 24.6544 11.4927 25.4629 11.504C25.7279 11.504 25.9838 11.53 26.2468 11.53C26.7188 11.53 26.7219 10.864 26.3119 10.863C26.0299 10.863 25.7469 10.824 25.4629 10.824V10.826ZM13.5469 11.179C13.4967 11.1818 13.4476 11.1951 13.4029 11.218C12.3415 11.7684 11.448 12.5942 10.8159 13.609C10.6049 14.03 11.1979 14.336 11.3779 13.975C11.9427 13.0661 12.7416 12.3259 13.6908 11.832C13.7558 11.7951 13.8071 11.7383 13.8371 11.6699C13.8672 11.6015 13.8744 11.5253 13.8577 11.4525C13.8409 11.3797 13.8011 11.3143 13.7443 11.2659C13.6874 11.2175 13.6164 11.1888 13.5419 11.184L13.5469 11.179ZM81.3299 11.179C80.1632 11.1269 78.9973 11.2966 77.8938 11.679C77.4748 11.889 77.7279 12.512 78.0939 12.332C79.1435 12.0091 80.2357 11.846 81.3339 11.848C81.4174 11.8406 81.4951 11.8018 81.5514 11.7396C81.6077 11.6774 81.6384 11.5962 81.6373 11.5123C81.6363 11.4284 81.6037 11.348 81.5459 11.2871C81.4882 11.2262 81.4096 11.1894 81.3259 11.184L81.3299 11.179ZM91.1679 11.754C91.093 11.7514 91.0194 11.7738 90.9587 11.8177C90.898 11.8616 90.8537 11.9245 90.8327 11.9964C90.8117 12.0683 90.8153 12.1451 90.8428 12.2148C90.8704 12.2844 90.9203 12.3429 90.9849 12.381C91.9279 12.8866 92.7142 13.6413 93.2579 14.563C93.3019 14.638 93.3732 14.6933 93.4569 14.7173C93.5406 14.7412 93.6303 14.7321 93.7074 14.6917C93.7845 14.6513 93.8432 14.5829 93.8712 14.5005C93.8992 14.418 93.8944 14.328 93.8579 14.249C93.2566 13.2069 92.3734 12.3555 91.3099 11.793C91.2642 11.7713 91.2144 11.7597 91.1639 11.759L91.1679 11.754ZM74.8619 13.008C73.7824 13.541 72.7945 14.2421 71.9349 15.085C71.6169 15.403 72.0889 15.885 72.3919 15.585C73.2161 14.8487 74.1084 14.1924 75.0568 13.625C75.3828 13.463 75.1859 12.994 74.8579 13.013L74.8619 13.008ZM67.3619 14.408C67.0269 14.384 66.8368 14.864 67.1529 15.022C68.068 15.6175 68.8985 16.334 69.6218 17.152C69.9498 17.48 70.4359 17.013 70.1449 16.721C69.4035 15.8247 68.5156 15.0605 67.5188 14.461C67.4693 14.4334 67.415 14.4155 67.3588 14.408H67.3619ZM9.6129 16.538C9.5587 16.5526 9.50849 16.5788 9.46564 16.6149C9.42279 16.651 9.38839 16.6961 9.36486 16.747L9.35186 16.76V16.786L9.33886 16.825L9.32586 16.864L9.31286 16.89L9.29986 16.929L9.28686 16.968V16.981L9.27386 17.007V17.033L9.26085 17.059L9.24785 17.072V17.111L9.23485 17.124V17.15L9.22185 17.163V17.189L9.20885 17.2019V17.215L9.19585 17.228V17.267L9.18285 17.28V17.306L9.16985 17.332V17.345L9.15687 17.358V17.384L9.14387 17.397V17.423L9.13087 17.462L9.11786 17.475V17.508L9.10486 17.534L9.09186 17.573V17.586L9.07886 17.599V17.625L9.06586 17.638V17.651L9.05286 17.69L9.03986 17.716V17.742L9.02686 17.768L9.01386 17.794V17.82L9.00086 17.846L8.98786 17.859V17.885L8.97486 17.911V17.937L8.96186 17.95V17.976L8.94886 17.989L8.93586 18.015V18.041L8.92286 18.067V18.08L8.90986 18.106L8.89686 18.132V18.145L8.88386 18.184L8.87086 18.21V18.223L8.83185 18.315V18.341H8.81486V18.38L8.80186 18.406V18.432L8.78885 18.458L8.77585 18.484V18.508L8.76285 18.534L8.74985 18.56V18.573L8.73685 18.599V18.612L8.72385 18.638V18.664L8.71085 18.677L8.69785 18.716V18.729L8.68487 18.755V18.768L8.67187 18.781V18.807L8.65887 18.82V18.846L8.64586 18.872V18.898L8.63286 18.911V18.924L8.61986 18.95V18.963L8.60686 18.989V19.002L8.59386 19.015L8.58086 19.041V19.08L8.56786 19.106L8.55486 19.119V19.158L8.54186 19.171L8.52886 19.197V19.223L8.51586 19.249L8.50286 19.275V19.301L8.48986 19.314V19.3269L8.47585 19.342V19.381L8.46287 19.394V19.407L8.44987 19.42V19.446L8.43687 19.472L8.42386 19.498V19.511L8.41086 19.537V19.563L8.39786 19.589L8.38486 19.615V19.628L8.37186 19.654V19.68L8.35886 19.693L8.34586 19.719V19.732L8.33286 19.758V19.784L8.31986 19.797L8.30686 19.823V19.836L8.29386 19.862V19.888L8.28086 19.901V19.927L8.26786 19.94C8.08086 20.314 8.70286 20.571 8.90786 20.162L8.92086 20.149V20.123L8.93386 20.11V20.084L8.94686 20.058V20.045L8.95986 20.032V20.006L8.97286 19.98L8.98586 19.954V19.928L8.99886 19.915V19.908L9.01186 19.882L9.02486 19.856V19.843L9.03786 19.817V19.791L9.06386 19.752V19.713L9.07686 19.7V19.687L9.08986 19.661L9.10287 19.635V19.608H9.11486V19.582L9.12786 19.556V19.53L9.14086 19.517V19.508L9.15386 19.482V19.469L9.16686 19.443V19.43L9.17986 19.417V19.391L9.19286 19.365L9.20586 19.326V19.308L9.21886 19.282L9.23186 19.256V19.243L9.24486 19.23V19.208L9.25786 19.182V19.169L9.27086 19.143V19.13L9.28387 19.104V19.078L9.29687 19.065V19.039L9.30987 19.013L9.32285 18.974L9.33585 18.948L9.34885 18.922V18.896L9.36185 18.87V18.857L9.37485 18.818L9.38785 18.779L9.40085 18.753V18.727L9.41385 18.714L9.42686 18.688V18.662L9.43986 18.636L9.45286 18.597V18.584L9.46586 18.545V18.532H9.47886L9.50486 18.454V18.441L9.51786 18.415V18.389L9.5309 18.363V18.35L9.5439 18.324L9.5569 18.298V18.272L9.5699 18.259V18.246L9.5829 18.22V18.207L9.5959 18.181V18.168L9.6089 18.142L9.6219 18.116V18.103L9.6349 18.0769V18.051L9.6479 18.025L9.6609 18.012V17.986L9.6739 17.96V17.934L9.6869 17.895L9.6999 17.869V17.856L9.7129 17.843V17.808L9.7259 17.795V17.782L9.7389 17.756V17.73H9.7519V17.691L9.7649 17.678V17.652L9.7779 17.639V17.608L9.7909 17.595V17.569L9.8039 17.556V17.543L9.8169 17.53V17.491L9.8299 17.478V17.465L9.8429 17.439V17.413L9.8559 17.4L9.8689 17.361V17.335L9.8819 17.322V17.296L9.8949 17.27L9.9079 17.231V17.218L9.9209 17.179L9.9339 17.14H9.9469V17.108L9.9599 17.082L9.9729 17.043L9.9859 17.017L9.9989 16.978C10.0226 16.9299 10.0329 16.8763 10.0289 16.8229C10.0249 16.7694 10.0066 16.718 9.976 16.674C9.9453 16.63 9.9035 16.595 9.8548 16.5727C9.806 16.5503 9.7522 16.5415 9.6989 16.547C9.6687 16.5428 9.638 16.5428 9.6079 16.547L9.6129 16.538ZM94.0018 17.348C93.9414 17.3637 93.8879 17.3992 93.85 17.4488C93.8121 17.4985 93.792 17.5595 93.7929 17.622C93.5322 18.6286 93.1367 19.5954 92.6169 20.496L92.6039 20.509V20.522H92.5909V20.535L92.5779 20.561L92.5649 20.574V20.6L92.5519 20.613L92.5389 20.626V20.652C92.5061 20.7307 92.5048 20.8191 92.5352 20.8988C92.5657 20.9786 92.6256 21.0435 92.7026 21.0804C92.7796 21.1172 92.8678 21.123 92.9489 21.0967C93.0301 21.0704 93.0981 21.014 93.1388 20.939L93.1518 20.926V20.913L93.1648 20.887L93.1778 20.874V20.861L93.1908 20.848V20.835L93.2038 20.822L93.2168 20.809C93.7975 19.8614 94.2168 18.8239 94.4578 17.739C94.4639 17.6421 94.4317 17.5467 94.3681 17.4734C94.3045 17.4 94.2146 17.3547 94.1178 17.347C94.0783 17.3414 94.038 17.3428 93.9989 17.351L94.0018 17.348ZM134.322 17.779L111.654 20.118C111.62 20.3113 111.546 20.4954 111.435 20.6576C111.325 20.8199 111.181 20.9568 111.014 21.059C110.389 21.2912 109.732 21.4234 109.067 21.451L102.704 22.144C101.535 22.1848 100.388 22.4649 99.3328 22.967C99.0265 23.1704 98.7803 23.4522 98.6196 23.7829C98.4588 24.1137 98.3895 24.4814 98.4188 24.848C98.4293 25.3739 98.5802 25.8875 98.8559 26.3355C99.1316 26.7835 99.5221 27.1496 99.9873 27.396C101.209 28.1095 102.609 28.4585 104.024 28.402C107.604 28.402 109.924 27.056 110.988 24.378L111.158 23.973C111.272 23.5939 111.508 23.2631 111.829 23.0317C112.15 22.8003 112.539 22.6812 112.935 22.693C113.092 22.6947 113.249 22.7077 113.405 22.732L113.81 22.758C113.94 22.7742 114.071 22.7829 114.202 22.784C114.383 22.784 114.749 22.752 115.286 22.706L138.947 21.006C137.721 19.5335 136.121 18.4196 134.315 17.782L134.322 17.779ZM82.2699 18.889C82.6048 18.8914 82.9366 18.9534 83.2499 19.072C83.6027 19.2151 83.9328 19.4087 84.2298 19.647C83.0594 22.4444 81.5548 25.09 79.7489 27.526C78.3119 29.31 76.9868 30.205 75.7898 30.204C75.6064 30.2151 75.4232 30.1804 75.2566 30.1028C75.09 30.0253 74.9454 29.9075 74.8359 29.76C74.5984 29.3626 74.4888 28.9018 74.5219 28.44C74.5627 27.4332 74.7977 26.4437 75.2139 25.526C75.6869 24.3945 76.3157 23.3346 77.0819 22.377C77.843 21.3911 78.7505 20.5274 79.7728 19.816C80.4995 19.2725 81.3676 18.9503 82.2728 18.888L82.2699 18.889ZM115.97 20.352C116.57 20.352 116.885 20.61 116.885 21.136C116.885 21.702 116.628 21.985 116.114 21.985C115.514 21.985 115.199 21.725 115.199 21.185C115.191 20.638 115.448 20.355 115.962 20.356L115.97 20.352ZM107.909 22.9C109.048 22.9 109.621 23.28 109.621 24.011C109.621 24.84 109.056 25.563 107.921 26.193C106.703 26.8394 105.34 27.1634 103.962 27.134C102.912 27.1623 101.872 26.9338 100.931 26.468C100.096 26.029 99.6893 25.505 99.6903 24.874C99.6903 24.098 100.541 23.616 102.264 23.437L106.864 22.937C107.174 22.914 107.525 22.897 107.909 22.898V22.9ZM7.55385 22.9519C7.47999 22.9515 7.40754 22.9722 7.34501 23.0115C7.28248 23.0508 7.23246 23.1072 7.20086 23.174C6.96786 24.103 6.67586 25.008 6.46886 25.944H6.45586C6.36755 25.9474 6.28422 25.9858 6.2242 26.0507C6.16419 26.1156 6.13241 26.2016 6.13586 26.29C6.1393 26.3783 6.1777 26.4616 6.24259 26.5217C6.30748 26.5817 6.39355 26.6134 6.48186 26.61C6.68186 26.61 6.82886 26.592 7.03086 26.584L7.08286 26.336C7.22386 25.755 7.64386 24.13 7.85386 23.357C7.95886 23.135 7.76186 22.958 7.54586 22.956L7.55385 22.9519ZM119.276 23.279L116.193 23.527L121.132 31.627C121.1 31.6575 121.075 31.694 121.058 31.7344C121.041 31.7747 121.032 31.8181 121.032 31.862C121.031 31.9075 121.039 31.9528 121.055 31.9952C121.072 32.0376 121.097 32.0763 121.128 32.1091C121.16 32.1418 121.198 32.1681 121.239 32.1863C121.281 32.2044 121.326 32.2142 121.372 32.215H124.756C124.845 32.2139 124.931 32.1778 124.995 32.1142C125.058 32.0507 125.095 31.9648 125.096 31.875C125.098 31.8056 125.077 31.7374 125.037 31.6808C124.997 31.6241 124.94 31.582 124.874 31.561L119.276 23.279ZM91.3418 23.54C91.2906 23.5486 91.2423 23.5699 91.2013 23.6019C91.1603 23.6338 91.1278 23.6754 91.1069 23.723C90.8943 24.1501 90.7109 24.5911 90.5578 25.043L90.5318 25.095L90.5188 25.134L90.4188 25.395L90.2489 25.826L90.1839 26.026C90.1209 26.168 90.0678 26.326 90.0138 26.47L89.8699 26.87L90.3009 26.909L90.7579 26.948C91.2289 26.948 91.2299 26.282 90.8229 26.282H90.7969L90.8359 26.204L90.8619 26.139H90.8489L91.0488 25.656L91.1669 25.356L91.1799 25.317L91.2059 25.265C91.3574 24.8336 91.532 24.4106 91.7289 23.998C91.7525 23.9494 91.7633 23.8957 91.7604 23.8418C91.7574 23.7879 91.7409 23.7356 91.7121 23.6899C91.6834 23.6441 91.6436 23.6065 91.5963 23.5804C91.549 23.5544 91.4958 23.5408 91.4419 23.541C91.4059 23.5367 91.3695 23.5377 91.3339 23.544L91.3418 23.54ZM3.37285 26.48C3.30071 26.4798 3.23009 26.5007 3.16968 26.5401C3.10928 26.5796 3.06172 26.6358 3.03286 26.7019L2.09186 29.942C1.91186 30.302 2.52186 30.558 2.73186 30.142L3.68586 26.889C3.79086 26.663 3.58186 26.485 3.36486 26.483L3.37285 26.48ZM93.2629 27.238C93.189 27.2374 93.1165 27.258 93.0539 27.2973C92.9914 27.3367 92.9414 27.3932 92.9099 27.46L91.9689 30.713C91.7879 31.074 92.4118 31.313 92.6218 30.896L93.5629 27.656C93.5831 27.6079 93.5906 27.5553 93.5843 27.5035C93.5781 27.4517 93.5585 27.4024 93.5274 27.3605C93.4963 27.3186 93.4548 27.2855 93.407 27.2646C93.3592 27.2436 93.3068 27.2355 93.2549 27.241L93.2629 27.238ZM94.2818 31.51C94.238 31.5106 94.1947 31.52 94.1545 31.5375C94.1142 31.5549 94.0779 31.5802 94.0475 31.6118C94.0171 31.6434 93.9932 31.6807 93.9773 31.7216C93.9614 31.7625 93.9538 31.8061 93.9549 31.85C93.9528 31.8941 93.9598 31.9381 93.9753 31.9794C93.9909 32.0207 94.0147 32.0584 94.0453 32.0903C94.0759 32.1221 94.1126 32.1473 94.1533 32.1645C94.194 32.1816 94.2377 32.1903 94.2818 32.19H97.6659C97.7097 32.191 97.7533 32.1834 97.7942 32.1675C97.8351 32.1516 97.8724 32.1278 97.904 32.0974C97.9357 32.067 97.9609 32.0306 97.9784 31.9903C97.9959 31.9501 98.0052 31.9068 98.0058 31.863C98.0068 31.8174 97.9987 31.7722 97.9821 31.7298C97.9655 31.6874 97.9407 31.6487 97.9091 31.6159C97.8776 31.5831 97.8398 31.5569 97.7981 31.5387C97.7563 31.5205 97.7114 31.5108 97.6659 31.51H94.2818ZM101.063 31.523C101.019 31.5221 100.975 31.5298 100.934 31.5457C100.894 31.5616 100.856 31.5855 100.825 31.6159C100.793 31.6463 100.768 31.6826 100.75 31.7228C100.733 31.7629 100.723 31.8061 100.723 31.85C100.72 31.8941 100.727 31.9382 100.743 31.9796C100.758 32.021 100.782 32.0588 100.813 32.0906C100.843 32.1225 100.88 32.1477 100.921 32.1648C100.962 32.1819 101.005 32.1904 101.05 32.19L104.45 32.203C104.493 32.2023 104.537 32.193 104.577 32.1755C104.617 32.158 104.654 32.1328 104.684 32.1012C104.714 32.0696 104.738 32.0322 104.754 31.9913C104.77 31.9504 104.778 31.9068 104.777 31.863C104.779 31.8189 104.772 31.7748 104.756 31.7335C104.741 31.6922 104.717 31.6545 104.686 31.6227C104.656 31.5909 104.619 31.5656 104.578 31.5485C104.537 31.5314 104.494 31.5227 104.45 31.523H101.063ZM107.831 31.523C107.741 31.5238 107.655 31.5599 107.591 31.6235C107.527 31.6871 107.491 31.773 107.491 31.863C107.49 31.9078 107.498 31.9522 107.515 31.9937C107.532 32.0352 107.557 32.0729 107.589 32.1046C107.621 32.1363 107.658 32.1613 107.7 32.1782C107.741 32.1951 107.786 32.2035 107.831 32.203H111.215C111.304 32.2019 111.39 32.1658 111.454 32.1022C111.517 32.0387 111.554 31.9528 111.555 31.863C111.555 31.8182 111.547 31.7737 111.53 31.7322C111.513 31.6907 111.488 31.6531 111.456 31.6214C111.424 31.5897 111.387 31.5647 111.345 31.5478C111.304 31.5309 111.259 31.5225 111.215 31.523H107.831ZM114.599 31.523C114.509 31.524 114.423 31.5602 114.359 31.6237C114.296 31.6872 114.26 31.7731 114.259 31.863C114.258 31.9078 114.266 31.9522 114.283 31.9937C114.3 32.0352 114.325 32.0729 114.357 32.1046C114.389 32.1363 114.426 32.1613 114.468 32.1782C114.509 32.1951 114.554 32.2035 114.599 32.203H117.983C118.026 32.204 118.07 32.1964 118.111 32.1806C118.151 32.1648 118.189 32.141 118.22 32.1107C118.252 32.0804 118.277 32.0442 118.295 32.0041C118.312 31.964 118.322 31.9208 118.323 31.877C118.323 31.8322 118.315 31.7876 118.298 31.7461C118.281 31.7045 118.256 31.6668 118.224 31.6351C118.193 31.6033 118.155 31.5784 118.113 31.5615C118.072 31.5447 118.027 31.5363 117.983 31.537L114.599 31.523ZM128.618 31.536L128.553 31.549H128.213L128.226 31.562H128.069L127.978 31.575L127.778 31.588L127.713 31.601C127.323 31.601 127.302 32.267 127.791 32.267L127.856 32.254L128 32.241H128.2V32.228H128.409L128.461 32.215V32.228L128.513 32.215H131.139C131.182 32.216 131.226 32.2084 131.267 32.1925C131.308 32.1766 131.345 32.1528 131.377 32.1224C131.408 32.092 131.434 32.0556 131.451 32.0154C131.469 31.9751 131.478 31.9318 131.479 31.888C131.479 31.8431 131.471 31.7986 131.454 31.7571C131.437 31.7155 131.412 31.6777 131.38 31.646C131.349 31.6143 131.311 31.5893 131.269 31.5725C131.228 31.5556 131.183 31.5473 131.139 31.548L128.8 31.535H128.682L128.604 31.548L128.617 31.535L128.618 31.536ZM134.523 31.549C134.479 31.5481 134.435 31.5558 134.394 31.5717C134.354 31.5876 134.316 31.6115 134.285 31.6419C134.253 31.6723 134.228 31.7086 134.21 31.7488C134.193 31.7889 134.183 31.8321 134.183 31.876C134.181 31.9678 134.216 32.0566 134.28 32.1228C134.343 32.189 134.431 32.2271 134.523 32.229H134.588C135.655 32.2236 136.715 32.4001 137.724 32.751C138.101 32.94 138.365 32.327 137.959 32.124C136.872 31.7551 135.735 31.561 134.588 31.549H134.523ZM1.49087 32.973C1.41697 32.9724 1.34445 32.9931 1.2819 33.0324C1.21934 33.0717 1.16936 33.1281 1.13785 33.195L0.196857 36.448C0.0168569 36.809 0.626857 37.048 0.836857 36.631L1.79085 33.391C1.81092 33.3429 1.81814 33.2905 1.8118 33.2389C1.80547 33.1872 1.78581 33.1381 1.75474 33.0963C1.72367 33.0545 1.68226 33.0216 1.63459 33.0007C1.58692 32.9797 1.53463 32.9716 1.48286 32.977L1.49087 32.973ZM140.624 33.953C140.559 33.9543 140.496 33.9743 140.443 34.0106C140.39 34.0469 140.348 34.0979 140.323 34.1575C140.298 34.217 140.291 34.2825 140.303 34.3459C140.314 34.4094 140.344 34.4682 140.389 34.515C141.124 35.3143 141.665 36.2725 141.97 37.315C142.178 37.734 142.791 37.482 142.61 37.115C142.277 35.9808 141.687 34.9389 140.885 34.071C140.85 34.0341 140.808 34.0049 140.762 33.9853C140.715 33.9656 140.665 33.956 140.615 33.957L140.624 33.953ZM9.5919 36.213V38.094H11.4729L11.4469 64.421H9.5659V66.308H14.2659L14.2789 50.891L18.3288 66.308L21.2949 66.321L25.5539 48.003L25.5409 66.321H30.3149V64.438H28.4339L28.4599 38.111H30.3409V36.243L26.5779 36.23L20.8418 60.035L15.0279 36.23L9.5799 36.217L9.5919 36.213ZM37.4209 36.239C34.9642 36.239 33.7362 37.515 33.7369 40.067L33.7109 64.434H31.8299V66.315L37.4739 66.328L37.4869 51.277L43.1179 51.29L43.1049 66.328H48.7489V64.486H46.8679L46.8939 40.08C46.8939 37.5227 45.6659 36.2423 43.2099 36.239H37.4209ZM55.0979 36.252C52.6419 36.252 51.3978 37.536 51.3978 40.093V51.293L60.8699 51.306L60.8569 62.516C60.8919 62.7846 60.8638 63.0577 60.7748 63.3136C60.6858 63.5695 60.5385 63.8012 60.3443 63.9902C60.1502 64.1792 59.9147 64.3203 59.6565 64.4024C59.3983 64.4845 59.1245 64.5052 58.8569 64.463H57.2109C56.9424 64.5037 56.668 64.4815 56.4096 64.3981C56.1512 64.3146 55.9157 64.1722 55.7217 63.9821C55.5277 63.792 55.3806 63.5595 55.292 63.3028C55.2033 63.0461 55.1756 62.7722 55.2109 62.503L55.2239 60.703H51.4609V62.508C51.4609 65.065 52.6749 66.347 55.1319 66.349H60.9318C63.3885 66.349 64.6165 65.073 64.6159 62.521L64.6289 49.43H55.1569V40.098C55.1215 39.8287 55.1493 39.5549 55.238 39.2982C55.3266 39.0415 55.4738 38.8089 55.6677 38.6188C55.8617 38.4287 56.0972 38.2864 56.3556 38.2029C56.6141 38.1195 56.8883 38.0972 57.1569 38.138H58.8028C59.0714 38.0972 59.3457 38.1195 59.6041 38.2029C59.8626 38.2864 60.098 38.4287 60.292 38.6188C60.486 38.8089 60.6331 39.0415 60.7218 39.2982C60.8104 39.5549 60.8382 39.8287 60.8028 40.098V41.898L66.4469 41.911V40.03H64.5658C64.5432 37.5233 63.3152 36.269 60.8819 36.267L55.0979 36.252ZM69.8359 36.265V40.028H71.7168V38.108L79.1639 38.121L69.8089 63.716V66.355L82.9659 66.368L82.9789 62.605H81.0979V64.473H73.3498L82.9849 38.608V36.282L69.8279 36.269L69.8359 36.265ZM86.3768 36.278V38.159H88.2589L88.2459 47.488C88.2459 50.0446 89.4739 51.325 91.9299 51.329H93.0299L93.0169 64.486H91.0958V66.368L98.6218 66.381V64.508L96.7009 64.495L96.7139 51.338H97.7329C100.19 51.338 101.418 50.062 101.417 47.51V38.181H103.298L103.311 36.3H97.6669L97.6438 47.508C97.6789 47.7766 97.6508 48.0497 97.5618 48.3056C97.4728 48.5616 97.3254 48.7932 97.1313 48.9822C96.9372 49.1712 96.7017 49.3123 96.4435 49.3944C96.1853 49.4765 95.9115 49.4972 95.6438 49.455H93.9979C93.7294 49.4955 93.4552 49.4732 93.1968 49.3896C92.9385 49.3061 92.7031 49.1637 92.5092 48.9736C92.3153 48.7836 92.1681 48.5511 92.0794 48.2945C91.9907 48.0379 91.9627 47.7642 91.9979 47.495L92.0109 38.166L93.8919 38.179V36.298L86.3768 36.278ZM104.812 36.291V38.172H106.68L106.66 64.508H104.779V66.389H109.548L109.574 46.089L116.995 66.406H121.695V64.525H119.815L119.841 38.198H121.722V36.308H117.022L117.009 56.246L110.331 36.308L104.812 36.291ZM128.8 36.317C126.342 36.317 125.114 37.593 125.115 40.145L125.089 64.512H123.208V66.393L128.852 66.406L128.865 51.355L134.496 51.368V66.408H140.115V64.566H138.234L138.26 40.16C138.26 37.6026 137.032 36.3223 134.576 36.319L128.8 36.317ZM5.48885 37.349L5.12285 37.388L1.73885 37.662C1.32985 37.662 1.31785 38.328 1.79085 38.328L4.95286 38.08C5.00738 38.115 5.07106 38.1331 5.13586 38.132C5.18138 38.1329 5.22664 38.1249 5.26903 38.1083C5.31143 38.0917 5.35015 38.0668 5.38294 38.0353C5.41574 38.0037 5.44197 37.9659 5.46015 37.9242C5.47833 37.8824 5.48807 37.8375 5.48885 37.792V37.349ZM39.4889 38.12H41.1478C41.4156 38.0797 41.6892 38.1024 41.9466 38.1863C42.2041 38.2701 42.4386 38.4128 42.6313 38.603C42.8241 38.7932 42.9698 39.0258 43.0571 39.2821C43.1443 39.5385 43.1706 39.8117 43.1339 40.08V49.408L37.4899 49.395V40.079C37.4559 39.8113 37.4841 39.5395 37.5725 39.2845C37.6608 39.0296 37.8068 38.7986 37.9991 38.6094C38.1915 38.4201 38.4249 38.2779 38.6812 38.1937C38.9375 38.1095 39.2098 38.0857 39.4769 38.124L39.4889 38.12ZM130.868 38.198H132.515C132.782 38.1577 133.056 38.1804 133.313 38.2643C133.571 38.3481 133.805 38.4908 133.998 38.681C134.191 38.8712 134.337 39.1038 134.424 39.3602C134.511 39.6165 134.537 39.8897 134.501 40.158V49.486L128.857 49.473V40.157C128.822 39.8882 128.851 39.615 128.94 39.3591C129.029 39.1032 129.176 38.8715 129.37 38.6821C129.564 38.4927 129.799 38.3509 130.057 38.2677C130.315 38.1846 130.589 38.1624 130.857 38.203L130.868 38.198ZM142.718 40.21C142.673 40.2095 142.628 40.2179 142.587 40.2348C142.545 40.2517 142.508 40.2767 142.476 40.3084C142.444 40.3401 142.419 40.3777 142.402 40.4192C142.385 40.4607 142.377 40.5052 142.378 40.55V43.934C142.377 43.9778 142.384 44.0213 142.4 44.0621C142.416 44.1028 142.44 44.14 142.471 44.1715C142.501 44.203 142.537 44.2282 142.577 44.2456C142.618 44.263 142.661 44.2723 142.705 44.273C142.749 44.2735 142.794 44.2651 142.835 44.2483C142.877 44.2314 142.914 44.2065 142.946 44.1749C142.977 44.1433 143.003 44.1058 143.019 44.0644C143.036 44.0231 143.045 43.9787 143.045 43.934L143.058 40.55C143.055 40.4591 143.017 40.3728 142.951 40.31C142.885 40.2473 142.797 40.2131 142.707 40.215L142.718 40.21ZM5.15285 40.837C5.10806 40.8364 5.06361 40.8448 5.02212 40.8617C4.98062 40.8786 4.94293 40.9037 4.91125 40.9353C4.87957 40.967 4.85455 41.0048 4.83765 41.0462C4.82076 41.0877 4.81232 41.1322 4.81286 41.177L4.79986 42.536V42.876H6.74686C6.77734 42.9205 6.81823 42.9569 6.86599 42.982C6.91374 43.0071 6.96692 43.0201 7.02087 43.02C7.06566 43.0205 7.11011 43.0121 7.1516 42.9952C7.1931 42.9783 7.23079 42.9533 7.26247 42.9216C7.29415 42.8899 7.31917 42.8522 7.33607 42.8107C7.35296 42.7692 7.3614 42.7248 7.36086 42.68V42.197H5.47986V41.178C5.48093 41.1341 5.47328 41.0905 5.45739 41.0496C5.44149 41.0087 5.41765 40.9714 5.38724 40.9398C5.35684 40.9082 5.32048 40.8829 5.28025 40.8655C5.24002 40.848 5.19671 40.8376 5.15285 40.837ZM7.02087 45.737C6.97677 45.7349 6.93272 45.7419 6.89141 45.7574C6.8501 45.773 6.81238 45.7968 6.78057 45.8274C6.74876 45.858 6.72349 45.8947 6.70635 45.9354C6.68921 45.9761 6.68054 46.0199 6.68085 46.064V49.448C6.67979 49.4918 6.68743 49.5355 6.70333 49.5763C6.71923 49.6172 6.74307 49.6545 6.77347 49.6861C6.80388 49.7178 6.84024 49.7431 6.88047 49.7605C6.9207 49.778 6.96401 49.7874 7.00786 49.788C7.05265 49.7903 7.09744 49.7835 7.13959 49.7682C7.18175 49.7529 7.2204 49.7294 7.2533 49.6989C7.2862 49.6684 7.31267 49.6317 7.33114 49.5908C7.34961 49.5499 7.35972 49.5058 7.36086 49.461V46.0769C7.35851 45.9869 7.32095 45.9015 7.25626 45.8389C7.19157 45.7762 7.10489 45.7414 7.01485 45.742L7.02087 45.737ZM142.721 46.991C142.676 46.9887 142.631 46.9954 142.589 47.0107C142.547 47.026 142.508 47.0496 142.475 47.0801C142.442 47.1105 142.416 47.1473 142.397 47.1882C142.379 47.229 142.369 47.2731 142.368 47.318V50.708C142.369 50.7978 142.405 50.8837 142.468 50.9473C142.532 51.0108 142.618 51.0469 142.708 51.048C142.752 51.0486 142.797 51.0403 142.838 51.0235C142.88 51.0066 142.918 50.9816 142.949 50.9499C142.981 50.9182 143.006 50.8805 143.023 50.8389C143.04 50.7974 143.048 50.7528 143.048 50.708V47.324C143.049 47.2795 143.04 47.2353 143.023 47.1941C143.007 47.153 142.981 47.1158 142.949 47.085C142.917 47.0542 142.879 47.0303 142.837 47.015C142.795 46.9997 142.751 46.9932 142.707 46.996L142.721 46.991ZM7.01485 52.508C6.97005 52.5074 6.92561 52.5159 6.88412 52.5328C6.84262 52.5497 6.80493 52.5747 6.77325 52.6064C6.74157 52.638 6.71655 52.6757 6.69965 52.7172C6.68276 52.7587 6.67432 52.8032 6.67486 52.848L6.66186 56.232C6.66264 56.3219 6.69871 56.4079 6.76231 56.4715C6.8259 56.5351 6.91192 56.5712 7.00185 56.572C7.04669 56.5727 7.0912 56.5643 7.13276 56.5475C7.17431 56.5306 7.21207 56.5056 7.24378 56.4739C7.27549 56.4422 7.30051 56.4045 7.31736 56.3629C7.33421 56.3213 7.34254 56.2768 7.34186 56.232V52.848C7.34293 52.8042 7.33528 52.7605 7.31939 52.7196C7.30349 52.6788 7.27965 52.6414 7.24924 52.6098C7.21884 52.5782 7.18248 52.5529 7.14225 52.5354C7.10202 52.518 7.05871 52.5086 7.01485 52.508ZM142.699 53.762C142.654 53.7613 142.609 53.7696 142.568 53.7865C142.526 53.8033 142.488 53.8284 142.457 53.8601C142.425 53.8918 142.4 53.9295 142.383 53.9711C142.366 54.0126 142.358 54.0571 142.359 54.102V57.486C142.358 57.5292 142.366 57.572 142.382 57.612C142.398 57.6521 142.422 57.6885 142.453 57.719C142.483 57.7496 142.519 57.7736 142.559 57.7897C142.6 57.8059 142.642 57.8138 142.686 57.813C142.73 57.815 142.774 57.8081 142.815 57.7925C142.856 57.777 142.894 57.7532 142.926 57.7226C142.958 57.692 142.983 57.6552 143 57.6145C143.017 57.5739 143.026 57.5301 143.026 57.486L143.039 54.102C143.037 54.0116 143 53.9255 142.935 53.8622C142.871 53.799 142.784 53.7637 142.694 53.764L142.699 53.762ZM6.99886 59.276C6.95406 59.2754 6.9096 59.2839 6.86811 59.3008C6.82662 59.3177 6.78893 59.3427 6.75725 59.3744C6.72557 59.4061 6.70054 59.4437 6.68365 59.4852C6.66675 59.5267 6.65833 59.5712 6.65887 59.616V59.642H4.77785V61.118C4.77889 61.2078 4.81505 61.2937 4.87859 61.3572C4.94213 61.4208 5.02801 61.457 5.11787 61.458C5.16266 61.4585 5.20711 61.4501 5.2486 61.4332C5.2901 61.4163 5.32779 61.3913 5.35947 61.3596C5.39115 61.3279 5.41617 61.2902 5.43307 61.2487C5.44996 61.2072 5.4584 61.1628 5.45786 61.118V60.318H7.33886V59.612C7.33677 59.5226 7.29985 59.4375 7.23597 59.3749C7.17208 59.3123 7.08629 59.2772 6.99686 59.277L6.99886 59.276ZM143.414 59.799C143.37 59.7981 143.326 59.8058 143.286 59.8216C143.245 59.8375 143.208 59.8613 143.176 59.8915C143.144 59.9218 143.119 59.958 143.102 59.9981C143.084 60.0381 143.074 60.0813 143.074 60.125C143.072 60.2168 143.107 60.3056 143.171 60.3717C143.234 60.4379 143.322 60.4761 143.414 60.478H144.224V62.373C144.224 62.4629 144.26 62.5489 144.324 62.6125C144.388 62.6761 144.474 62.7122 144.564 62.713C144.608 62.7135 144.653 62.7051 144.694 62.6882C144.736 62.6713 144.773 62.6463 144.805 62.6146C144.837 62.5829 144.862 62.5452 144.879 62.5037C144.896 62.4622 144.904 62.4178 144.904 62.373V59.799H143.414ZM5.11486 64.164C5.07006 64.1635 5.02562 64.1719 4.98412 64.1888C4.94263 64.2057 4.90493 64.2307 4.87325 64.2624C4.84157 64.2941 4.81654 64.3317 4.79964 64.3732C4.78275 64.4147 4.77433 64.4592 4.77486 64.504V67.888C4.7738 67.9318 4.78144 67.9755 4.79734 68.0163C4.81324 68.0572 4.83706 68.0945 4.86747 68.1261C4.89787 68.1578 4.93425 68.1831 4.97448 68.2005C5.01471 68.218 5.058 68.2273 5.10186 68.228C5.19372 68.2296 5.28248 68.1947 5.34865 68.131C5.41483 68.0672 5.45302 67.9798 5.45486 67.888V64.508C5.45512 64.4174 5.41952 64.3303 5.35581 64.2659C5.2921 64.2014 5.20548 64.1648 5.11486 64.164ZM144.561 65.418C144.516 65.4173 144.471 65.4256 144.43 65.4425C144.388 65.4593 144.35 65.4843 144.319 65.516C144.287 65.5477 144.262 65.5855 144.245 65.6271C144.228 65.6686 144.22 65.7131 144.221 65.758V69.142C144.22 69.1858 144.227 69.2294 144.243 69.2702C144.259 69.311 144.283 69.3483 144.313 69.3799C144.344 69.4115 144.38 69.4367 144.42 69.4543C144.461 69.4718 144.504 69.4812 144.548 69.482C144.593 69.4829 144.638 69.4748 144.681 69.4582C144.723 69.4416 144.762 69.4168 144.795 69.3852C144.827 69.3537 144.854 69.3159 144.872 69.2742C144.89 69.2324 144.9 69.1875 144.901 69.142V65.758C144.9 65.6682 144.864 65.5824 144.8 65.5188C144.737 65.4552 144.65 65.419 144.561 65.418ZM5.63785 70.408C5.59404 70.4071 5.55047 70.4148 5.50965 70.4307C5.46883 70.4467 5.43156 70.4705 5.39997 70.5009C5.36838 70.5313 5.34311 70.5676 5.32558 70.6078C5.30806 70.6479 5.29864 70.6912 5.29786 70.735C5.29625 70.8268 5.33115 70.9156 5.39489 70.9818C5.45863 71.048 5.54599 71.0862 5.63785 71.088H9.02186C9.06571 71.0873 9.10901 71.078 9.14924 71.0605C9.18947 71.0431 9.22584 71.0177 9.25625 70.9861C9.28665 70.9545 9.3105 70.9172 9.32639 70.8763C9.34229 70.8354 9.34991 70.7918 9.34885 70.748C9.35089 70.7039 9.34393 70.6598 9.32839 70.6185C9.31285 70.5772 9.28904 70.5395 9.25844 70.5077C9.22785 70.4759 9.19109 70.4506 9.15041 70.4335C9.10974 70.4163 9.066 70.4077 9.02186 70.408H5.63785ZM12.4058 70.408C12.3159 70.4088 12.2299 70.4448 12.1663 70.5084C12.1027 70.572 12.0666 70.658 12.0659 70.748C12.0652 70.7928 12.0735 70.8373 12.0904 70.8789C12.1072 70.9204 12.1322 70.9582 12.1639 70.9899C12.1956 71.0216 12.2334 71.0466 12.275 71.0635C12.3165 71.0803 12.361 71.0887 12.4058 71.088H15.7898C15.8782 71.088 15.9629 71.0529 16.0253 70.9905C16.0878 70.928 16.1229 70.8433 16.1229 70.755C16.1229 70.6667 16.0878 70.582 16.0253 70.5195C15.9629 70.4571 15.8782 70.422 15.7898 70.422L12.4058 70.408ZM19.1739 70.421C19.13 70.4201 19.0865 70.4278 19.0456 70.4437C19.0048 70.4597 18.9676 70.4835 18.936 70.5139C18.9044 70.5443 18.8791 70.5806 18.8616 70.6208C18.8441 70.6609 18.8346 70.7042 18.8339 70.748C18.8322 70.8398 18.8671 70.9286 18.9309 70.9948C18.9946 71.061 19.082 71.0992 19.1739 71.101H22.5579C22.6476 71.1002 22.7335 71.0643 22.797 71.0009C22.8606 70.9375 22.8968 70.8518 22.8978 70.762C22.8984 70.7172 22.89 70.6727 22.8731 70.6312C22.8562 70.5897 22.8311 70.552 22.7995 70.5204C22.7678 70.4887 22.7301 70.4637 22.6886 70.4468C22.6471 70.4299 22.6027 70.4214 22.5579 70.422L19.1739 70.421ZM25.9419 70.421C25.8519 70.4218 25.7659 70.4578 25.7023 70.5214C25.6387 70.585 25.6026 70.671 25.6019 70.761C25.6013 70.8057 25.6098 70.8502 25.6267 70.8916C25.6436 70.933 25.6686 70.9706 25.7003 71.0022C25.732 71.0338 25.7697 71.0588 25.8112 71.0755C25.8527 71.0923 25.8971 71.1006 25.9419 71.1H29.3259C29.3697 71.1009 29.4132 71.0932 29.4541 71.0773C29.4949 71.0613 29.5322 71.0374 29.5637 71.0071C29.5953 70.9767 29.6206 70.9404 29.6381 70.9002C29.6557 70.86 29.6651 70.8168 29.6659 70.773C29.6675 70.6811 29.6326 70.5923 29.5688 70.5262C29.5051 70.46 29.4177 70.4218 29.3259 70.42L25.9419 70.421ZM32.7099 70.434C32.6215 70.434 32.5368 70.4691 32.4744 70.5315C32.4119 70.594 32.3769 70.6786 32.3769 70.767C32.3769 70.8553 32.4119 70.94 32.4744 71.0024C32.5368 71.0649 32.6215 71.1 32.7099 71.1L36.0939 71.113C36.1838 71.1122 36.2698 71.0761 36.3334 71.0126C36.397 70.949 36.4331 70.8629 36.4339 70.773C36.4345 70.7282 36.4262 70.6836 36.4094 70.6421C36.3925 70.6005 36.3675 70.5628 36.3358 70.5311C36.3041 70.4993 36.2663 70.4743 36.2248 70.4575C36.1832 70.4407 36.1387 70.4323 36.0939 70.433L32.7099 70.434ZM39.4779 70.434C39.388 70.435 39.3021 70.4712 39.2386 70.5347C39.175 70.5983 39.1389 70.6841 39.1379 70.774C39.1372 70.8188 39.1455 70.8633 39.1624 70.9049C39.1792 70.9464 39.2042 70.9842 39.236 71.0159C39.2677 71.0476 39.3054 71.0726 39.3469 71.0895C39.3885 71.1063 39.433 71.1147 39.4779 71.114H42.8619C42.9057 71.1151 42.9493 71.1074 42.9902 71.0915C43.0311 71.0756 43.0684 71.0517 43.1 71.0213C43.1316 70.9909 43.1569 70.9546 43.1744 70.9144C43.1919 70.8741 43.2012 70.8308 43.2019 70.787C43.2035 70.6951 43.1686 70.6064 43.1049 70.5402C43.0411 70.474 42.9537 70.4358 42.8619 70.434H39.4779ZM46.2459 70.447C46.1576 70.447 46.0728 70.4821 46.0104 70.5445C45.9479 70.607 45.9129 70.6916 45.9129 70.78C45.9129 70.8683 45.9479 70.953 46.0104 71.0154C46.0728 71.0779 46.1576 71.113 46.2459 71.113L49.6299 71.126C49.7197 71.1249 49.8056 71.0888 49.8691 71.0253C49.9327 70.9617 49.9688 70.8758 49.9699 70.786C49.9705 70.7412 49.9622 70.6966 49.9454 70.6551C49.9285 70.6135 49.9035 70.5758 49.8718 70.5441C49.8401 70.5123 49.8023 70.4874 49.7608 70.4705C49.7192 70.4537 49.6747 70.4453 49.6299 70.446L46.2459 70.447ZM52.4519 70.46C52.3635 70.46 52.2788 70.4951 52.2164 70.5575C52.1539 70.62 52.1189 70.7046 52.1189 70.793C52.1189 70.8813 52.1539 70.966 52.2164 71.0284C52.2788 71.0909 52.3635 71.126 52.4519 71.126L55.8359 71.139C55.9258 71.1382 56.0118 71.1021 56.0754 71.0386C56.139 70.975 56.1751 70.8889 56.1759 70.799C56.1765 70.7542 56.1682 70.7096 56.1514 70.6681C56.1345 70.6265 56.1095 70.5888 56.0778 70.5571C56.0461 70.5253 56.0083 70.5004 55.9668 70.4835C55.9252 70.4667 55.8807 70.4583 55.8359 70.459L52.4519 70.46ZM59.2199 70.46C59.13 70.461 59.0441 70.4972 58.9806 70.5607C58.917 70.6243 58.8809 70.7101 58.8799 70.8C58.8793 70.8448 58.8878 70.8892 58.9047 70.9307C58.9216 70.9722 58.9466 71.0099 58.9782 71.0416C59.0099 71.0733 59.0476 71.0983 59.0891 71.1152C59.1306 71.1321 59.1751 71.1405 59.2199 71.14H62.6039C62.6477 71.1411 62.6913 71.1334 62.7322 71.1175C62.7731 71.1016 62.8104 71.0778 62.842 71.0473C62.8736 71.0169 62.8989 70.9806 62.9164 70.9404C62.9339 70.9001 62.9432 70.8568 62.9439 70.813C62.9455 70.7211 62.9106 70.6324 62.8468 70.5662C62.7831 70.5 62.6957 70.4618 62.6039 70.46H59.2199ZM71.8279 70.46C71.7379 70.4608 71.6519 70.4968 71.5883 70.5604C71.5247 70.624 71.4886 70.71 71.4878 70.8C71.4858 70.8441 71.4928 70.8881 71.5083 70.9294C71.5239 70.9707 71.5477 71.0085 71.5783 71.0403C71.6089 71.0721 71.6456 71.0973 71.6863 71.1145C71.727 71.1316 71.7707 71.1403 71.8149 71.14H75.2149C75.258 71.1407 75.3008 71.1326 75.3408 71.1164C75.3808 71.1002 75.4171 71.0762 75.4476 71.0457C75.4781 71.0152 75.5021 70.9789 75.5183 70.9389C75.5345 70.8989 75.5425 70.8561 75.5419 70.813C75.5441 70.7682 75.5374 70.7234 75.5221 70.6813C75.5068 70.6391 75.4832 70.6004 75.4528 70.5676C75.4223 70.5347 75.3855 70.5081 75.3447 70.4897C75.3038 70.4712 75.2597 70.4612 75.2149 70.46H71.8279ZM65.9878 70.473C65.8994 70.473 65.8146 70.5081 65.752 70.5707C65.6895 70.6332 65.6543 70.7181 65.6543 70.8065C65.6543 70.895 65.6895 70.9797 65.752 71.0423C65.8146 71.1048 65.8994 71.14 65.9878 71.14L69.3718 71.153C69.4617 71.152 69.5476 71.1158 69.6111 71.0522C69.6747 70.9887 69.7108 70.9028 69.7118 70.813C69.7124 70.7682 69.704 70.7237 69.6871 70.6822C69.6702 70.6407 69.6452 70.6031 69.6135 70.5714C69.5818 70.5397 69.5441 70.5147 69.5026 70.4978C69.4611 70.4809 69.4166 70.4725 69.3718 70.473H65.9878ZM78.5958 70.473C78.5074 70.473 78.4226 70.5081 78.36 70.5707C78.2975 70.6332 78.2623 70.7181 78.2623 70.8065C78.2623 70.895 78.2975 70.9797 78.36 71.0423C78.4226 71.1048 78.5074 71.14 78.5958 71.14L81.9798 71.153C82.0698 71.1522 82.1558 71.1161 82.2194 71.0525C82.283 70.9889 82.3191 70.9029 82.3198 70.813C82.3205 70.7681 82.3122 70.7236 82.2953 70.6821C82.2785 70.6405 82.2535 70.6028 82.2218 70.5711C82.1901 70.5394 82.1523 70.5143 82.1108 70.4975C82.0692 70.4806 82.0247 70.4723 81.9798 70.473H78.5958ZM85.3638 70.473C85.274 70.474 85.1881 70.5102 85.1246 70.5737C85.0611 70.6373 85.0249 70.7231 85.0239 70.813C85.0232 70.8578 85.0315 70.9023 85.0484 70.9439C85.0652 70.9855 85.0902 71.0232 85.1219 71.0549C85.1536 71.0866 85.1914 71.1116 85.233 71.1285C85.2745 71.1453 85.319 71.1537 85.3638 71.153H88.7479C88.7916 71.1541 88.8352 71.1464 88.876 71.1306C88.9168 71.1148 88.9541 71.091 88.9857 71.0607C89.0173 71.0304 89.0426 70.9941 89.0601 70.954C89.0776 70.9139 89.0871 70.8707 89.0878 70.8269C89.0895 70.7351 89.0546 70.6464 88.9908 70.5802C88.9271 70.514 88.8397 70.4758 88.7479 70.474L85.3638 70.473ZM92.1319 70.473V70.486C92.088 70.4849 92.0444 70.4926 92.0035 70.5085C91.9626 70.5244 91.9253 70.5482 91.8937 70.5786C91.862 70.609 91.8368 70.6454 91.8193 70.6856C91.8018 70.7258 91.7925 70.7691 91.7919 70.813C91.7913 70.8578 91.7997 70.9022 91.8166 70.9437C91.8335 70.9852 91.8586 71.0229 91.8902 71.0546C91.9219 71.0863 91.9596 71.1113 92.0011 71.1282C92.0426 71.1451 92.0871 71.1535 92.1319 71.153L95.5159 71.166C95.6057 71.165 95.6916 71.1288 95.7551 71.0652C95.8187 71.0017 95.8548 70.9158 95.8559 70.826C95.8564 70.7812 95.848 70.7367 95.8311 70.6952C95.8142 70.6537 95.7891 70.6161 95.7575 70.5844C95.7258 70.5527 95.6881 70.5277 95.6466 70.5108C95.6051 70.4939 95.5607 70.4855 95.5159 70.486L92.1319 70.473ZM98.8999 70.486C98.856 70.4851 98.8125 70.4928 98.7717 70.5087C98.7308 70.5247 98.6936 70.5485 98.662 70.5789C98.6304 70.6093 98.6051 70.6456 98.5876 70.6858C98.57 70.7259 98.5606 70.7692 98.5599 70.813C98.5583 70.9048 98.5931 70.9936 98.6569 71.0598C98.7206 71.126 98.808 71.1642 98.8999 71.166H102.284C102.373 71.1652 102.46 71.1291 102.523 71.0655C102.587 71.0019 102.623 70.9159 102.624 70.826C102.624 70.7811 102.616 70.7366 102.599 70.6951C102.582 70.6535 102.557 70.6158 102.525 70.5841C102.494 70.5524 102.456 70.5273 102.414 70.5105C102.373 70.4936 102.328 70.4853 102.284 70.486H98.8999ZM105.668 70.486C105.578 70.4868 105.492 70.5228 105.428 70.5864C105.364 70.65 105.328 70.736 105.328 70.826C105.327 70.8708 105.335 70.9152 105.352 70.9567C105.369 70.9982 105.394 71.0359 105.426 71.0676C105.458 71.0993 105.495 71.1243 105.537 71.1412C105.578 71.1581 105.623 71.1665 105.668 71.166H109.052C109.14 71.166 109.225 71.1309 109.287 71.0685C109.349 71.006 109.385 70.9213 109.385 70.833C109.385 70.7447 109.349 70.66 109.287 70.5975C109.225 70.5351 109.14 70.5 109.052 70.5L105.668 70.486ZM112.436 70.499C112.392 70.4979 112.348 70.5056 112.307 70.5215C112.266 70.5374 112.229 70.5612 112.197 70.5916C112.166 70.622 112.14 70.6584 112.123 70.6986C112.106 70.7388 112.096 70.7821 112.096 70.826C112.094 70.9178 112.129 71.0066 112.193 71.0728C112.256 71.139 112.344 71.1772 112.436 71.179H115.815C115.904 71.1782 115.991 71.1421 116.054 71.0785C116.118 71.0149 116.154 70.9289 116.155 70.839C116.155 70.7942 116.147 70.7497 116.13 70.7082C116.113 70.6667 116.088 70.6291 116.056 70.5974C116.024 70.5657 115.987 70.5407 115.945 70.5238C115.904 70.5069 115.859 70.4985 115.815 70.499H112.436ZM119.204 70.499C119.114 70.5 119.028 70.5362 118.964 70.5997C118.901 70.6633 118.865 70.7491 118.864 70.839C118.863 70.8838 118.871 70.9283 118.888 70.9699C118.905 71.0115 118.93 71.0492 118.962 71.0809C118.993 71.1126 119.031 71.1376 119.073 71.1545C119.114 71.1713 119.159 71.1797 119.204 71.179H122.588C122.631 71.1801 122.675 71.1724 122.716 71.1565C122.757 71.1406 122.794 71.1168 122.826 71.0863C122.857 71.0559 122.883 71.0196 122.9 70.9794C122.918 70.9391 122.927 70.8958 122.928 70.852C122.929 70.7601 122.894 70.6714 122.831 70.6052C122.767 70.539 122.679 70.5008 122.588 70.499H119.204ZM125.972 70.512C125.928 70.5109 125.884 70.5186 125.843 70.5345C125.802 70.5504 125.765 70.5742 125.733 70.6046C125.702 70.635 125.676 70.6714 125.659 70.7116C125.642 70.7518 125.632 70.7951 125.632 70.839C125.631 70.8838 125.639 70.9283 125.656 70.9699C125.673 71.0115 125.698 71.0492 125.73 71.0809C125.761 71.1126 125.799 71.1376 125.841 71.1545C125.882 71.1713 125.927 71.1797 125.972 71.179L129.356 71.192C129.445 71.191 129.531 71.1548 129.595 71.0912C129.658 71.0277 129.695 70.9418 129.696 70.852C129.696 70.8072 129.688 70.7628 129.671 70.7214C129.654 70.6799 129.629 70.6423 129.597 70.6107C129.565 70.5791 129.528 70.5542 129.486 70.5374C129.445 70.5206 129.4 70.5123 129.356 70.513L125.972 70.512ZM132.74 70.512C132.65 70.513 132.564 70.5492 132.5 70.6127C132.437 70.6763 132.401 70.7621 132.4 70.852C132.399 70.8968 132.407 70.9413 132.424 70.9829C132.441 71.0245 132.466 71.0622 132.498 71.0939C132.529 71.1256 132.567 71.1506 132.609 71.1675C132.65 71.1843 132.695 71.1927 132.74 71.192H136.124C136.167 71.1931 136.211 71.1854 136.252 71.1695C136.293 71.1536 136.33 71.1298 136.362 71.0993C136.393 71.0689 136.419 71.0326 136.436 70.9924C136.454 70.9521 136.463 70.9088 136.464 70.865C136.464 70.8195 136.456 70.7742 136.44 70.7318C136.423 70.6894 136.398 70.6507 136.367 70.6179C136.335 70.5851 136.298 70.5589 136.256 70.5407C136.214 70.5225 136.169 70.5128 136.124 70.512H132.74ZM139.508 70.512V70.525C139.464 70.5239 139.42 70.5315 139.379 70.5473C139.339 70.5632 139.301 70.5869 139.27 70.6172C139.238 70.6475 139.213 70.6838 139.195 70.7239C139.178 70.764 139.168 70.8072 139.168 70.851C139.167 70.8958 139.175 70.9403 139.192 70.9819C139.209 71.0234 139.234 71.0612 139.266 71.0929C139.297 71.1246 139.335 71.1496 139.377 71.1665C139.418 71.1833 139.463 71.1916 139.508 71.191L142.892 71.204C142.981 71.2029 143.067 71.1668 143.131 71.1033C143.194 71.0397 143.231 70.9538 143.232 70.864C143.232 70.8192 143.224 70.7748 143.207 70.7334C143.19 70.6919 143.165 70.6543 143.133 70.6227C143.101 70.5911 143.064 70.5662 143.022 70.5494C142.981 70.5326 142.936 70.5243 142.892 70.525L139.508 70.512Z" fill="black"/>
</g>
</svg>
