<svg width="95" height="32" viewBox="0 0 95 32" fill="none" xmlns="http://www.w3.org/2000/svg">
<g clip-path="url(#clip0_758_337)">
<path d="M10.9119 27.4132H6.92356L0.116394 10.7867H4.6013L8.92578 22.8327L13.2506 10.7867H17.7512L10.9119 27.4132Z" fill="#202020"/>
<path d="M23.1434 20.4708C23.4105 21.6544 23.9841 22.5843 24.865 23.2606C25.7461 23.9368 26.79 24.2751 27.9964 24.2751C29.545 24.2751 30.8744 23.7678 31.9848 22.7533L33.9389 25.5586C33.1381 26.2879 32.2169 26.8533 31.176 27.2547C30.1351 27.6561 28.9952 27.8569 27.7564 27.8569C26.1226 27.8569 24.6464 27.4685 23.3276 26.6921C22.0089 25.9155 20.9756 24.8617 20.2283 23.5301C19.4807 22.1987 19.1072 20.7458 19.1072 19.1712C19.1072 17.5756 19.4596 16.1124 20.1642 14.7809C20.869 13.4494 21.8487 12.3952 23.1032 11.6186C24.3581 10.8421 25.7649 10.4536 27.3237 10.4536C29.0431 10.4536 30.5273 10.8209 31.7765 11.5551C33.0261 12.2897 33.9764 13.3069 34.6277 14.6065C35.2791 15.9059 35.6047 17.3906 35.6047 19.0603C35.6047 19.5676 35.5727 20.0377 35.5085 20.4708H23.1434ZM23.1754 17.3959H31.6645C31.4188 16.2971 30.9356 15.449 30.215 14.8521C29.4941 14.2549 28.5839 13.9564 27.4839 13.9564C26.4162 13.9564 25.4978 14.2604 24.7289 14.8679C23.9602 15.4755 23.4424 16.3183 23.1754 17.3959Z" fill="#202020"/>
<path d="M38.9461 3.66978H43.0147V27.4131H38.9461V3.66978Z" fill="#202020"/>
<path d="M60.2622 10.8024H63.818V27.4132H60.2463L59.9578 25.4636C59.3171 26.1928 58.5641 26.766 57.6993 27.1835C56.8344 27.6008 55.868 27.8095 54.8003 27.8095C53.2842 27.8095 51.8773 27.4211 50.5799 26.6445C49.2825 25.868 48.2546 24.8163 47.4966 23.4904C46.7386 22.1643 46.3594 20.7087 46.3594 19.1238C46.3594 17.5388 46.741 16.0831 47.5046 14.7571C48.268 13.4309 49.2959 12.3794 50.5879 11.6028C51.8799 10.8261 53.2842 10.4378 54.8003 10.4378C55.8896 10.4378 56.8691 10.6492 57.7395 11.0718C58.6098 11.4946 59.3652 12.0759 60.0058 12.8154L60.2622 10.8024ZM59.9738 19.1394C59.9738 18.2201 59.7601 17.388 59.3332 16.6432C58.9061 15.898 58.3242 15.3144 57.5873 14.8918C56.8507 14.4692 56.0389 14.2578 55.1527 14.2578C54.2771 14.2578 53.4762 14.4692 52.75 14.8918C52.024 15.3144 51.4528 15.898 51.0363 16.6432C50.6199 17.388 50.4117 18.2201 50.4117 19.1394C50.4117 20.0589 50.6199 20.8885 51.0363 21.628C51.4528 22.3675 52.0213 22.9435 52.742 23.3557C53.4631 23.7678 54.2666 23.9736 55.1527 23.9736C56.0389 23.9736 56.8507 23.7652 57.5873 23.3479C58.3242 22.9303 58.9061 22.3546 59.3332 21.62C59.7601 20.8855 59.9738 20.0589 59.9738 19.1394Z" fill="#202020"/>
<path d="M67.7355 5.55617C67.7355 5.14384 67.8452 4.75041 68.0638 4.3753C68.2828 4.00007 68.5874 3.69626 68.9771 3.46401C69.3666 3.2314 69.8073 3.11516 70.2984 3.11516C70.7894 3.11516 71.23 3.2314 71.6196 3.46401C72.0095 3.69626 72.3137 4.00007 72.5325 4.3753C72.7514 4.75041 72.8611 5.14384 72.8611 5.55617C72.8611 5.96838 72.7514 6.35917 72.5325 6.7291C72.3137 7.0988 72.0095 7.3973 71.6196 7.62449C71.23 7.85179 70.7894 7.96527 70.2984 7.96527C69.8073 7.96527 69.3666 7.85179 68.9771 7.62449C68.5874 7.3973 68.2828 7.0988 68.0638 6.7291C67.8452 6.35917 67.7355 5.96838 67.7355 5.55617ZM72.3164 27.4132H68.2321V10.7868H72.3164V27.4132Z" fill="#202020"/>
<path d="M88.8596 11.7536L87.0496 15.0502C86.2167 14.4689 85.3626 14.1784 84.4867 14.1784C83.8674 14.189 83.2802 14.3819 82.7251 14.757C82.1698 15.132 81.7186 15.6604 81.3716 16.3421C81.0245 17.0236 80.8403 17.8135 80.8189 18.7115V27.4131H76.7345V10.8024H80.2424L80.5307 13.0372C81.0004 12.2235 81.617 11.5895 82.3805 11.1353C83.1439 10.6809 84.0118 10.4536 84.9832 10.4536C85.6241 10.4536 86.2755 10.5645 86.9372 10.7868C87.5993 11.0085 88.24 11.3308 88.8596 11.7536Z" fill="#202020"/>
<path d="M89.7842 25.4637C89.7842 25.0411 89.8908 24.65 90.1042 24.291C90.3179 23.9313 90.6168 23.6464 91.0014 23.435C91.3858 23.2235 91.8182 23.118 92.2987 23.118C92.7792 23.118 93.2115 23.2235 93.5961 23.435C93.9802 23.6464 94.2795 23.9313 94.4929 24.291C94.7065 24.65 94.8135 25.0411 94.8135 25.4637C94.8135 25.8968 94.7065 26.2932 94.4929 26.6525C94.2795 27.0119 93.9802 27.2945 93.5961 27.5002C93.2115 27.7064 92.7792 27.8096 92.2987 27.8096C91.8182 27.8096 91.3858 27.7038 91.0014 27.4924C90.6168 27.2812 90.3179 26.996 90.1042 26.6366C89.8908 26.2773 89.7842 25.8865 89.7842 25.4637Z" fill="#202020"/>
</g>
<defs>
<clipPath id="clip0_758_337">
<rect width="95" height="25" fill="white" transform="translate(0 3)"/>
</clipPath>
</defs>
</svg>
