<svg width="95" height="32" viewBox="0 0 95 32" fill="none" xmlns="http://www.w3.org/2000/svg">
<g clip-path="url(#clip0_756_167)">
<path d="M10.912 26.4132H6.92359L0.116422 9.78674H4.60133L8.92581 21.8327L13.2506 9.78674H17.7513L10.912 26.4132Z" fill="#202020"/>
<path d="M23.1434 19.4708C23.4105 20.6544 23.9841 21.5843 24.8651 22.2606C25.7462 22.9368 26.79 23.2751 27.9965 23.2751C29.545 23.2751 30.8744 22.7678 31.9848 21.7533L33.939 24.5586C33.1381 25.2879 32.217 25.8533 31.1761 26.2547C30.1351 26.6561 28.9953 26.8569 27.7564 26.8569C26.1227 26.8569 24.6464 26.4685 23.3276 25.6921C22.0089 24.9155 20.9757 23.8617 20.2284 22.5301C19.4807 21.1987 19.1072 19.7458 19.1072 18.1712C19.1072 16.5756 19.4596 15.1124 20.1642 13.7809C20.869 12.4494 21.8487 11.3952 23.1033 10.6186C24.3582 9.84212 25.7649 9.45364 27.3238 9.45364C29.0431 9.45364 30.5274 9.82092 31.7766 10.5551C33.0261 11.2897 33.9765 12.3069 34.6277 13.6065C35.2791 14.9059 35.6047 16.3906 35.6047 18.0603C35.6047 18.5676 35.5727 19.0377 35.5086 19.4708H23.1434ZM23.1755 16.3959H31.6646C31.4188 15.2971 30.9357 14.449 30.215 13.8521C29.4941 13.2549 28.5839 12.9564 27.484 12.9564C26.4163 12.9564 25.4978 13.2604 24.729 13.8679C23.9603 14.4755 23.4424 15.3183 23.1755 16.3959Z" fill="#202020"/>
<path d="M38.9462 2.66978H43.0147V26.4131H38.9462V2.66978Z" fill="#202020"/>
<path d="M60.2622 9.80241H63.818V26.4132H60.2463L59.9578 24.4636C59.3171 25.1928 58.5641 25.766 57.6993 26.1835C56.8344 26.6008 55.868 26.8095 54.8003 26.8095C53.2843 26.8095 51.8773 26.4211 50.5799 25.6445C49.2825 24.868 48.2546 23.8163 47.4966 22.4904C46.7386 21.1643 46.3594 19.7087 46.3594 18.1238C46.3594 16.5388 46.741 15.0831 47.5047 13.7571C48.268 12.4309 49.2959 11.3794 50.588 10.6028C51.8799 9.82614 53.2843 9.43778 54.8003 9.43778C55.8897 9.43778 56.8691 9.64918 57.7395 10.0718C58.6099 10.4946 59.3652 11.0759 60.0059 11.8154L60.2622 9.80241ZM59.9739 18.1394C59.9739 17.2201 59.7601 16.388 59.3332 15.6432C58.9062 14.898 58.3243 14.3144 57.5873 13.8918C56.8507 13.4692 56.0389 13.2578 55.1527 13.2578C54.2771 13.2578 53.4763 13.4692 52.75 13.8918C52.024 14.3144 51.4529 14.898 51.0363 15.6432C50.62 16.388 50.4117 17.2201 50.4117 18.1394C50.4117 19.0589 50.62 19.8885 51.0363 20.628C51.4529 21.3675 52.0213 21.9435 52.742 22.3557C53.4631 22.7678 54.2667 22.9736 55.1527 22.9736C56.0389 22.9736 56.8507 22.7652 57.5873 22.3479C58.3243 21.9303 58.9062 21.3546 59.3332 20.62C59.7601 19.8855 59.9739 19.0589 59.9739 18.1394Z" fill="#202020"/>
<path d="M67.7356 4.55618C67.7356 4.14385 67.8453 3.75041 68.0639 3.3753C68.2829 3.00007 68.5874 2.69627 68.9771 2.46401C69.3667 2.23141 69.8073 2.11516 70.2985 2.11516C70.7894 2.11516 71.2301 2.23141 71.6196 2.46401C72.0095 2.69627 72.3138 3.00007 72.5325 3.3753C72.7515 3.75041 72.8612 4.14385 72.8612 4.55618C72.8612 4.96839 72.7515 5.35917 72.5325 5.7291C72.3138 6.0988 72.0095 6.3973 71.6196 6.62449C71.2301 6.8518 70.7894 6.96528 70.2985 6.96528C69.8073 6.96528 69.3667 6.8518 68.9771 6.62449C68.5874 6.3973 68.2829 6.0988 68.0639 5.7291C67.8453 5.35917 67.7356 4.96839 67.7356 4.55618ZM72.3164 26.4132H68.2321V9.78682H72.3164V26.4132Z" fill="#202020"/>
<path d="M88.8596 10.7536L87.0496 14.0503C86.2167 13.4689 85.3626 13.1784 84.4867 13.1784C83.8674 13.189 83.2802 13.3819 82.7251 13.757C82.1698 14.132 81.7186 14.6604 81.3716 15.3421C81.0245 16.0236 80.8404 16.8135 80.8189 17.7115V26.4132H76.7345V9.80244H80.2424L80.5307 12.0372C81.0004 11.2235 81.617 10.5895 82.3805 10.1353C83.1439 9.6809 84.0118 9.45359 84.9832 9.45359C85.6241 9.45359 86.2755 9.56454 86.9372 9.78677C87.5993 10.0085 88.24 10.3308 88.8596 10.7536Z" fill="#202020"/>
<path d="M89.7842 24.4637C89.7842 24.0411 89.8908 23.65 90.1042 23.291C90.3179 22.9313 90.6169 22.6464 91.0014 22.435C91.3858 22.2235 91.8182 22.118 92.2987 22.118C92.7793 22.118 93.2115 22.2235 93.5961 22.435C93.9803 22.6464 94.2795 22.9313 94.4929 23.291C94.7065 23.65 94.8135 24.0411 94.8135 24.4637C94.8135 24.8968 94.7065 25.2932 94.4929 25.6525C94.2795 26.0119 93.9803 26.2945 93.5961 26.5002C93.2115 26.7065 92.7793 26.8096 92.2987 26.8096C91.8182 26.8096 91.3858 26.7038 91.0014 26.4924C90.6169 26.2812 90.3179 25.996 90.1042 25.6366C89.8908 25.2773 89.7842 24.8865 89.7842 24.4637Z" fill="#202020"/>
</g>
<defs>
<clipPath id="clip0_756_167">
<rect width="95" height="25" fill="white" transform="translate(0 2)"/>
</clipPath>
</defs>
</svg>
