<svg width="238" height="238" viewBox="0 0 238 238" fill="none" xmlns="http://www.w3.org/2000/svg">
<g opacity="0.5">
<rect x="27.5" y="27.5" width="183" height="183" rx="91.5" stroke="#08DBBA"/>
</g>
<g opacity="0.2">
<rect x="4.5" y="2.5" width="229" height="229" rx="114.5" stroke="#08DBBA"/>
</g>
<g filter="url(#filter0_d_8288_20072)">
<rect x="50" y="50" width="138" height="138" rx="69" fill="#08DBBA" shape-rendering="crispEdges"/>
<g clip-path="url(#clip0_8288_20072)">
<path d="M109.625 119H128.375M123.688 114.312V123.688M109.625 133.062H128.375M114.312 128.375V137.75M91.3438 105.406H146.656M100.719 91.3438V96.0312M110.094 91.3438V96.0312M119.469 91.3438V96.0312M141.969 146.656H96.0312C93.4425 146.656 91.3438 144.558 91.3438 141.969V96.0312C91.3438 93.4425 93.4425 91.3438 96.0312 91.3438H141.969C144.558 91.3438 146.656 93.4425 146.656 96.0312V141.969C146.656 144.558 144.558 146.656 141.969 146.656Z" stroke="white" stroke-width="4" stroke-miterlimit="10" stroke-linecap="round" stroke-linejoin="round"/>
</g>
</g>
<defs>
<filter id="filter0_d_8288_20072" x="0" y="0" width="238" height="238" filterUnits="userSpaceOnUse" color-interpolation-filters="sRGB">
<feFlood flood-opacity="0" result="BackgroundImageFix"/>
<feColorMatrix in="SourceAlpha" type="matrix" values="0 0 0 0 0 0 0 0 0 0 0 0 0 0 0 0 0 0 127 0" result="hardAlpha"/>
<feOffset/>
<feGaussianBlur stdDeviation="25"/>
<feComposite in2="hardAlpha" operator="out"/>
<feColorMatrix type="matrix" values="0 0 0 0 0.027451 0 0 0 0 0.905882 0 0 0 0 0.768627 0 0 0 0.4 0"/>
<feBlend mode="normal" in2="BackgroundImageFix" result="effect1_dropShadow_8288_20072"/>
<feBlend mode="normal" in="SourceGraphic" in2="effect1_dropShadow_8288_20072" result="shape"/>
</filter>
<clipPath id="clip0_8288_20072">
<rect width="60" height="60" fill="white" transform="translate(89 89)"/>
</clipPath>
</defs>
</svg>
