<svg width="715" height="124" viewBox="0 0 715 124" fill="none" xmlns="http://www.w3.org/2000/svg">
<rect width="98" height="78" rx="39" fill="#F3FEFC"/>
<rect width="98" height="78" rx="39" fill="black" fill-opacity="0.06"/>
<path d="M28.39 39C28.39 47.175 33.085 54.2175 39.94 57.522L30.217 30.6525C29.0875 33.261 28.39 36.045 28.39 39ZM62.9125 37.956C62.9125 35.436 61.9555 33.606 61.1725 32.304C60.1285 30.564 59.173 29.1735 59.173 27.435C59.173 25.5225 60.652 23.7825 62.653 23.7825H62.914C59.26 20.391 54.391 18.39 49 18.39C45.5892 18.4202 42.2375 19.2837 39.2367 20.9054C36.2359 22.5271 33.6771 24.8578 31.783 27.6945H33.088C35.263 27.6945 38.566 27.4335 38.566 27.4335C39.697 27.3465 39.784 28.998 38.74 29.1735C38.74 29.1735 37.609 29.3475 36.3925 29.3475L43.8715 51.6075L48.3925 38.1285L45.175 29.346L43 29.175C41.869 29.088 42.043 27.435 43.087 27.435C43.087 27.435 46.477 27.696 48.478 27.696C50.653 27.696 53.956 27.435 53.956 27.435C55.087 27.348 55.174 28.9995 54.13 29.175C54.13 29.175 52.999 29.349 51.7825 29.349L59.26 51.525L61.36 44.655C62.23 41.7855 62.9245 39.786 62.9245 37.959L62.9125 37.956ZM49.348 40.8255L43.174 58.74C44.9995 59.262 46.999 59.61 49 59.61C51.4345 59.61 53.695 59.16 55.87 58.479C55.783 58.392 55.783 58.305 55.696 58.218L49.348 40.8255ZM67.087 29.175L67.261 31.275C67.261 33.375 66.913 35.7105 65.6965 38.667L59.4355 56.841C65.5225 53.2755 69.6955 46.6665 69.6955 39.015C69.6085 35.4495 68.6515 32.145 67.0855 29.19L67.087 29.175ZM49 15C35.782 15 25 25.782 25 39C25 52.218 35.782 63 49 63C62.218 63 73 52.218 73 39C73 25.782 62.218 15 49 15ZM49 61.956C36.391 61.956 26.131 51.696 26.131 39C26.1405 32.9377 28.553 27.1264 32.8397 22.8397C37.1264 18.553 42.9377 16.1405 49 16.131C55.0623 16.1405 60.8736 18.553 65.1603 22.8397C69.447 27.1264 71.8595 32.9377 71.869 39C71.869 51.696 61.609 61.956 49 61.956Z" fill="#202020"/>
<path d="M8.52681 99L4.81481 87.8H6.97481L10.2868 97.928H9.21481L12.6548 87.8H14.5748L17.9188 97.928H16.8788L20.2708 87.8H22.2548L18.5428 99H16.3348L13.2788 89.864H13.8548L10.7508 99H8.52681ZM26.9567 99.112C26.082 99.112 25.3034 98.9253 24.6207 98.552C23.938 98.168 23.3994 97.6453 23.0047 96.984C22.61 96.3227 22.4127 95.5707 22.4127 94.728C22.4127 93.8747 22.61 93.1227 23.0047 92.472C23.3994 91.8107 23.938 91.2933 24.6207 90.92C25.3034 90.5467 26.082 90.36 26.9567 90.36C27.842 90.36 28.626 90.5467 29.3087 90.92C30.002 91.2933 30.5407 91.8053 30.9247 92.456C31.3194 93.1067 31.5167 93.864 31.5167 94.728C31.5167 95.5707 31.3194 96.3227 30.9247 96.984C30.5407 97.6453 30.002 98.168 29.3087 98.552C28.626 98.9253 27.842 99.112 26.9567 99.112ZM26.9567 97.4C27.4474 97.4 27.8847 97.2933 28.2687 97.08C28.6527 96.8667 28.9514 96.5573 29.1647 96.152C29.3887 95.7467 29.5007 95.272 29.5007 94.728C29.5007 94.1733 29.3887 93.6987 29.1647 93.304C28.9514 92.8987 28.6527 92.5893 28.2687 92.376C27.8847 92.1627 27.4527 92.056 26.9727 92.056C26.482 92.056 26.0447 92.1627 25.6607 92.376C25.2874 92.5893 24.9887 92.8987 24.7647 93.304C24.5407 93.6987 24.4287 94.1733 24.4287 94.728C24.4287 95.272 24.5407 95.7467 24.7647 96.152C24.9887 96.5573 25.2874 96.8667 25.6607 97.08C26.0447 97.2933 26.4767 97.4 26.9567 97.4ZM33.4292 99V90.456H35.3332V92.808L35.1092 92.12C35.3652 91.544 35.7652 91.1067 36.3092 90.808C36.8639 90.5093 37.5519 90.36 38.3732 90.36V92.264C38.2879 92.2427 38.2079 92.232 38.1332 92.232C38.0585 92.2213 37.9839 92.216 37.9092 92.216C37.1519 92.216 36.5492 92.44 36.1012 92.888C35.6532 93.3253 35.4292 93.9813 35.4292 94.856V99H33.4292ZM43.6077 99.112C42.7864 99.112 42.045 98.9307 41.3837 98.568C40.733 98.1947 40.221 97.6827 39.8477 97.032C39.4744 96.3813 39.2877 95.6133 39.2877 94.728C39.2877 93.8427 39.4744 93.0747 39.8477 92.424C40.221 91.7733 40.733 91.2667 41.3837 90.904C42.045 90.5413 42.7864 90.36 43.6077 90.36C44.3224 90.36 44.9624 90.52 45.5277 90.84C46.093 91.1493 46.541 91.624 46.8717 92.264C47.2024 92.904 47.3677 93.7253 47.3677 94.728C47.3677 95.72 47.2077 96.5413 46.8877 97.192C46.5677 97.832 46.125 98.312 45.5597 98.632C44.9944 98.952 44.3437 99.112 43.6077 99.112ZM43.8477 97.4C44.3277 97.4 44.7544 97.2933 45.1277 97.08C45.5117 96.8667 45.8157 96.5573 46.0397 96.152C46.2744 95.7467 46.3917 95.272 46.3917 94.728C46.3917 94.1733 46.2744 93.6987 46.0397 93.304C45.8157 92.8987 45.5117 92.5893 45.1277 92.376C44.7544 92.1627 44.3277 92.056 43.8477 92.056C43.3677 92.056 42.9357 92.1627 42.5517 92.376C42.1784 92.5893 41.8744 92.8987 41.6397 93.304C41.4157 93.6987 41.3037 94.1733 41.3037 94.728C41.3037 95.272 41.4157 95.7467 41.6397 96.152C41.8744 96.5573 42.1784 96.8667 42.5517 97.08C42.9357 97.2933 43.3677 97.4 43.8477 97.4ZM46.4397 99V96.984L46.5197 94.712L46.3597 92.44V87.128H48.3437V99H46.4397ZM55.7121 99.112C55.0187 99.112 54.3841 98.952 53.8081 98.632C53.2427 98.312 52.7894 97.832 52.4481 97.192C52.1174 96.5413 51.9521 95.72 51.9521 94.728C51.9521 93.7253 52.1121 92.904 52.4321 92.264C52.7627 91.624 53.2107 91.1493 53.7761 90.84C54.3414 90.52 54.9867 90.36 55.7121 90.36C56.5547 90.36 57.2961 90.5413 57.9361 90.904C58.5867 91.2667 59.0987 91.7733 59.4721 92.424C59.8561 93.0747 60.0481 93.8427 60.0481 94.728C60.0481 95.6133 59.8561 96.3867 59.4721 97.048C59.0987 97.6987 58.5867 98.2053 57.9361 98.568C57.2961 98.9307 56.5547 99.112 55.7121 99.112ZM50.9761 102.104V90.456H52.8801V92.472L52.8161 94.744L52.9761 97.016V102.104H50.9761ZM55.4881 97.4C55.9681 97.4 56.3947 97.2933 56.7681 97.08C57.1521 96.8667 57.4561 96.5573 57.6801 96.152C57.9041 95.7467 58.0161 95.272 58.0161 94.728C58.0161 94.1733 57.9041 93.6987 57.6801 93.304C57.4561 92.8987 57.1521 92.5893 56.7681 92.376C56.3947 92.1627 55.9681 92.056 55.4881 92.056C55.0081 92.056 54.5761 92.1627 54.1921 92.376C53.8081 92.5893 53.5041 92.8987 53.2801 93.304C53.0561 93.6987 52.9441 94.1733 52.9441 94.728C52.9441 95.272 53.0561 95.7467 53.2801 96.152C53.5041 96.5573 53.8081 96.8667 54.1921 97.08C54.5761 97.2933 55.0081 97.4 55.4881 97.4ZM61.9448 99V90.456H63.8488V92.808L63.6248 92.12C63.8808 91.544 64.2808 91.1067 64.8248 90.808C65.3795 90.5093 66.0675 90.36 66.8888 90.36V92.264C66.8035 92.2427 66.7235 92.232 66.6488 92.232C66.5741 92.2213 66.4995 92.216 66.4248 92.216C65.6675 92.216 65.0648 92.44 64.6168 92.888C64.1688 93.3253 63.9448 93.9813 63.9448 94.856V99H61.9448ZM72.5233 99.112C71.574 99.112 70.742 98.9253 70.0273 98.552C69.3233 98.168 68.774 97.6453 68.3793 96.984C67.9953 96.3227 67.8033 95.5707 67.8033 94.728C67.8033 93.8747 67.99 93.1227 68.3633 92.472C68.7473 91.8107 69.27 91.2933 69.9313 90.92C70.6033 90.5467 71.366 90.36 72.2193 90.36C73.0513 90.36 73.7926 90.5413 74.4433 90.904C75.094 91.2667 75.606 91.7787 75.9793 92.44C76.3526 93.1013 76.5393 93.88 76.5393 94.776C76.5393 94.8613 76.534 94.9573 76.5233 95.064C76.5233 95.1707 76.518 95.272 76.5073 95.368H69.3873V94.04H75.4513L74.6673 94.456C74.678 93.9653 74.5766 93.5333 74.3633 93.16C74.15 92.7867 73.8566 92.4933 73.4833 92.28C73.1206 92.0667 72.6993 91.96 72.2193 91.96C71.7286 91.96 71.2966 92.0667 70.9233 92.28C70.5606 92.4933 70.2726 92.792 70.0593 93.176C69.8566 93.5493 69.7553 93.992 69.7553 94.504V94.824C69.7553 95.336 69.8726 95.7893 70.1073 96.184C70.342 96.5787 70.6726 96.8827 71.0993 97.096C71.526 97.3093 72.0166 97.416 72.5713 97.416C73.0513 97.416 73.4833 97.3413 73.8673 97.192C74.2513 97.0427 74.5926 96.808 74.8913 96.488L75.9633 97.72C75.5793 98.168 75.094 98.5147 74.5073 98.76C73.9313 98.9947 73.27 99.112 72.5233 99.112ZM81.1004 99.112C80.3858 99.112 79.6978 99.0213 79.0364 98.84C78.3858 98.648 77.8684 98.4187 77.4844 98.152L78.2524 96.632C78.6364 96.8773 79.0951 97.08 79.6284 97.24C80.1618 97.4 80.6951 97.48 81.2284 97.48C81.8578 97.48 82.3111 97.3947 82.5884 97.224C82.8764 97.0533 83.0204 96.824 83.0204 96.536C83.0204 96.3013 82.9244 96.1253 82.7324 96.008C82.5404 95.88 82.2898 95.784 81.9804 95.72C81.6711 95.656 81.3244 95.5973 80.9404 95.544C80.5671 95.4907 80.1884 95.4213 79.8044 95.336C79.4311 95.24 79.0898 95.1067 78.7804 94.936C78.4711 94.7547 78.2204 94.5147 78.0284 94.216C77.8364 93.9173 77.7404 93.5227 77.7404 93.032C77.7404 92.488 77.8951 92.0187 78.2044 91.624C78.5138 91.2187 78.9458 90.9093 79.5004 90.696C80.0658 90.472 80.7324 90.36 81.5004 90.36C82.0764 90.36 82.6578 90.424 83.2444 90.552C83.8311 90.68 84.3164 90.8613 84.7004 91.096L83.9324 92.616C83.5271 92.3707 83.1164 92.2053 82.7004 92.12C82.2951 92.024 81.8898 91.976 81.4844 91.976C80.8764 91.976 80.4231 92.0667 80.1244 92.248C79.8364 92.4293 79.6924 92.6587 79.6924 92.936C79.6924 93.192 79.7884 93.384 79.9804 93.512C80.1724 93.64 80.4231 93.7413 80.7324 93.816C81.0418 93.8907 81.3831 93.9547 81.7564 94.008C82.1404 94.0507 82.5191 94.12 82.8924 94.216C83.2658 94.312 83.6071 94.4453 83.9164 94.616C84.2364 94.776 84.4924 95.0053 84.6844 95.304C84.8764 95.6027 84.9724 95.992 84.9724 96.472C84.9724 97.0053 84.8124 97.4693 84.4924 97.864C84.1831 98.2587 83.7404 98.568 83.1644 98.792C82.5884 99.0053 81.9004 99.112 81.1004 99.112ZM89.3348 99.112C88.6201 99.112 87.9321 99.0213 87.2708 98.84C86.6201 98.648 86.1028 98.4187 85.7188 98.152L86.4868 96.632C86.8708 96.8773 87.3295 97.08 87.8628 97.24C88.3961 97.4 88.9295 97.48 89.4628 97.48C90.0921 97.48 90.5455 97.3947 90.8228 97.224C91.1108 97.0533 91.2548 96.824 91.2548 96.536C91.2548 96.3013 91.1588 96.1253 90.9668 96.008C90.7748 95.88 90.5241 95.784 90.2148 95.72C89.9055 95.656 89.5588 95.5973 89.1748 95.544C88.8015 95.4907 88.4228 95.4213 88.0388 95.336C87.6655 95.24 87.3241 95.1067 87.0148 94.936C86.7055 94.7547 86.4548 94.5147 86.2628 94.216C86.0708 93.9173 85.9748 93.5227 85.9748 93.032C85.9748 92.488 86.1295 92.0187 86.4388 91.624C86.7481 91.2187 87.1801 90.9093 87.7348 90.696C88.3001 90.472 88.9668 90.36 89.7348 90.36C90.3108 90.36 90.8921 90.424 91.4788 90.552C92.0655 90.68 92.5508 90.8613 92.9348 91.096L92.1668 92.616C91.7615 92.3707 91.3508 92.2053 90.9348 92.12C90.5295 92.024 90.1241 91.976 89.7188 91.976C89.1108 91.976 88.6575 92.0667 88.3588 92.248C88.0708 92.4293 87.9268 92.6587 87.9268 92.936C87.9268 93.192 88.0228 93.384 88.2148 93.512C88.4068 93.64 88.6575 93.7413 88.9668 93.816C89.2761 93.8907 89.6175 93.9547 89.9908 94.008C90.3748 94.0507 90.7535 94.12 91.1268 94.216C91.5001 94.312 91.8415 94.4453 92.1508 94.616C92.4708 94.776 92.7268 95.0053 92.9188 95.304C93.1108 95.6027 93.2068 95.992 93.2068 96.472C93.2068 97.0053 93.0468 97.4693 92.7268 97.864C92.4175 98.2587 91.9748 98.568 91.3988 98.792C90.8228 99.0053 90.1348 99.112 89.3348 99.112Z" fill="#202020"/>
<rect x="148" width="98" height="78" rx="39" fill="#F3FEFC"/>
<rect x="148" width="98" height="78" rx="39" fill="black" fill-opacity="0.06"/>
<path d="M179.255 37.95H186.955V42.4H179.255V37.95ZM179.655 48H173.755V30.5H187.98V34.95H179.655V48Z" fill="#202020"/>
<path d="M196.368 48.4C194.902 48.4 193.485 48.2333 192.118 47.9C190.752 47.5667 189.627 47.1333 188.743 46.6L190.643 42.3C191.477 42.7833 192.402 43.175 193.418 43.475C194.452 43.7583 195.452 43.9 196.418 43.9C196.985 43.9 197.427 43.8667 197.743 43.8C198.077 43.7167 198.318 43.6083 198.468 43.475C198.618 43.325 198.693 43.15 198.693 42.95C198.693 42.6333 198.518 42.3833 198.168 42.2C197.818 42.0167 197.352 41.8667 196.768 41.75C196.202 41.6167 195.577 41.4833 194.893 41.35C194.21 41.2 193.518 41.0083 192.818 40.775C192.135 40.5417 191.502 40.2333 190.918 39.85C190.352 39.4667 189.893 38.9667 189.543 38.35C189.193 37.7167 189.018 36.9333 189.018 36C189.018 34.9167 189.318 33.9333 189.918 33.05C190.535 32.15 191.443 31.4333 192.643 30.9C193.86 30.3667 195.368 30.1 197.168 30.1C198.352 30.1 199.518 30.225 200.668 30.475C201.818 30.725 202.852 31.1083 203.768 31.625L201.993 35.9C201.127 35.4667 200.285 35.1417 199.468 34.925C198.668 34.7083 197.885 34.6 197.118 34.6C196.552 34.6 196.102 34.65 195.768 34.75C195.435 34.85 195.193 34.9833 195.043 35.15C194.91 35.3167 194.843 35.5 194.843 35.7C194.843 36 195.018 36.2417 195.368 36.425C195.718 36.5917 196.177 36.7333 196.743 36.85C197.327 36.9667 197.96 37.0917 198.643 37.225C199.343 37.3583 200.035 37.5417 200.718 37.775C201.402 38.0083 202.027 38.3167 202.593 38.7C203.177 39.0833 203.643 39.5833 203.993 40.2C204.343 40.8167 204.518 41.5833 204.518 42.5C204.518 43.5667 204.21 44.55 203.593 45.45C202.993 46.3333 202.093 47.05 200.893 47.6C199.693 48.1333 198.185 48.4 196.368 48.4Z" fill="#202020"/>
<path d="M211.674 37H219.474V41.25H211.674V37ZM212.074 43.55H220.824V48H206.274V30.5H220.499V34.95H212.074V43.55Z" fill="#202020"/>
<path d="M156.527 99L152.815 87.8H154.975L158.287 97.928H157.215L160.655 87.8H162.575L165.919 97.928H164.879L168.271 87.8H170.255L166.543 99H164.335L161.279 89.864H161.855L158.751 99H156.527ZM174.957 99.112C174.082 99.112 173.303 98.9253 172.621 98.552C171.938 98.168 171.399 97.6453 171.005 96.984C170.61 96.3227 170.413 95.5707 170.413 94.728C170.413 93.8747 170.61 93.1227 171.005 92.472C171.399 91.8107 171.938 91.2933 172.621 90.92C173.303 90.5467 174.082 90.36 174.957 90.36C175.842 90.36 176.626 90.5467 177.309 90.92C178.002 91.2933 178.541 91.8053 178.925 92.456C179.319 93.1067 179.517 93.864 179.517 94.728C179.517 95.5707 179.319 96.3227 178.925 96.984C178.541 97.6453 178.002 98.168 177.309 98.552C176.626 98.9253 175.842 99.112 174.957 99.112ZM174.957 97.4C175.447 97.4 175.885 97.2933 176.269 97.08C176.653 96.8667 176.951 96.5573 177.165 96.152C177.389 95.7467 177.501 95.272 177.501 94.728C177.501 94.1733 177.389 93.6987 177.165 93.304C176.951 92.8987 176.653 92.5893 176.269 92.376C175.885 92.1627 175.453 92.056 174.973 92.056C174.482 92.056 174.045 92.1627 173.661 92.376C173.287 92.5893 172.989 92.8987 172.765 93.304C172.541 93.6987 172.429 94.1733 172.429 94.728C172.429 95.272 172.541 95.7467 172.765 96.152C172.989 96.5573 173.287 96.8667 173.661 97.08C174.045 97.2933 174.477 97.4 174.957 97.4ZM181.429 99V90.456H183.333V92.808L183.109 92.12C183.365 91.544 183.765 91.1067 184.309 90.808C184.864 90.5093 185.552 90.36 186.373 90.36V92.264C186.288 92.2427 186.208 92.232 186.133 92.232C186.059 92.2213 185.984 92.216 185.909 92.216C185.152 92.216 184.549 92.44 184.101 92.888C183.653 93.3253 183.429 93.9813 183.429 94.856V99H181.429ZM191.608 99.112C190.786 99.112 190.045 98.9307 189.384 98.568C188.733 98.1947 188.221 97.6827 187.848 97.032C187.474 96.3813 187.288 95.6133 187.288 94.728C187.288 93.8427 187.474 93.0747 187.848 92.424C188.221 91.7733 188.733 91.2667 189.384 90.904C190.045 90.5413 190.786 90.36 191.608 90.36C192.322 90.36 192.962 90.52 193.528 90.84C194.093 91.1493 194.541 91.624 194.872 92.264C195.202 92.904 195.368 93.7253 195.368 94.728C195.368 95.72 195.208 96.5413 194.888 97.192C194.568 97.832 194.125 98.312 193.56 98.632C192.994 98.952 192.344 99.112 191.608 99.112ZM191.848 97.4C192.328 97.4 192.754 97.2933 193.128 97.08C193.512 96.8667 193.816 96.5573 194.04 96.152C194.274 95.7467 194.392 95.272 194.392 94.728C194.392 94.1733 194.274 93.6987 194.04 93.304C193.816 92.8987 193.512 92.5893 193.128 92.376C192.754 92.1627 192.328 92.056 191.848 92.056C191.368 92.056 190.936 92.1627 190.552 92.376C190.178 92.5893 189.874 92.8987 189.64 93.304C189.416 93.6987 189.304 94.1733 189.304 94.728C189.304 95.272 189.416 95.7467 189.64 96.152C189.874 96.5573 190.178 96.8667 190.552 97.08C190.936 97.2933 191.368 97.4 191.848 97.4ZM194.44 99V96.984L194.52 94.712L194.36 92.44V87.128H196.344V99H194.44ZM203.712 99.112C203.019 99.112 202.384 98.952 201.808 98.632C201.243 98.312 200.789 97.832 200.448 97.192C200.117 96.5413 199.952 95.72 199.952 94.728C199.952 93.7253 200.112 92.904 200.432 92.264C200.763 91.624 201.211 91.1493 201.776 90.84C202.341 90.52 202.987 90.36 203.712 90.36C204.555 90.36 205.296 90.5413 205.936 90.904C206.587 91.2667 207.099 91.7733 207.472 92.424C207.856 93.0747 208.048 93.8427 208.048 94.728C208.048 95.6133 207.856 96.3867 207.472 97.048C207.099 97.6987 206.587 98.2053 205.936 98.568C205.296 98.9307 204.555 99.112 203.712 99.112ZM198.976 102.104V90.456H200.88V92.472L200.816 94.744L200.976 97.016V102.104H198.976ZM203.488 97.4C203.968 97.4 204.395 97.2933 204.768 97.08C205.152 96.8667 205.456 96.5573 205.68 96.152C205.904 95.7467 206.016 95.272 206.016 94.728C206.016 94.1733 205.904 93.6987 205.68 93.304C205.456 92.8987 205.152 92.5893 204.768 92.376C204.395 92.1627 203.968 92.056 203.488 92.056C203.008 92.056 202.576 92.1627 202.192 92.376C201.808 92.5893 201.504 92.8987 201.28 93.304C201.056 93.6987 200.944 94.1733 200.944 94.728C200.944 95.272 201.056 95.7467 201.28 96.152C201.504 96.5573 201.808 96.8667 202.192 97.08C202.576 97.2933 203.008 97.4 203.488 97.4ZM209.945 99V90.456H211.849V92.808L211.625 92.12C211.881 91.544 212.281 91.1067 212.825 90.808C213.379 90.5093 214.067 90.36 214.889 90.36V92.264C214.803 92.2427 214.723 92.232 214.649 92.232C214.574 92.2213 214.499 92.216 214.425 92.216C213.667 92.216 213.065 92.44 212.617 92.888C212.169 93.3253 211.945 93.9813 211.945 94.856V99H209.945ZM220.523 99.112C219.574 99.112 218.742 98.9253 218.027 98.552C217.323 98.168 216.774 97.6453 216.379 96.984C215.995 96.3227 215.803 95.5707 215.803 94.728C215.803 93.8747 215.99 93.1227 216.363 92.472C216.747 91.8107 217.27 91.2933 217.931 90.92C218.603 90.5467 219.366 90.36 220.219 90.36C221.051 90.36 221.793 90.5413 222.443 90.904C223.094 91.2667 223.606 91.7787 223.979 92.44C224.353 93.1013 224.539 93.88 224.539 94.776C224.539 94.8613 224.534 94.9573 224.523 95.064C224.523 95.1707 224.518 95.272 224.507 95.368H217.387V94.04H223.451L222.667 94.456C222.678 93.9653 222.577 93.5333 222.363 93.16C222.15 92.7867 221.857 92.4933 221.483 92.28C221.121 92.0667 220.699 91.96 220.219 91.96C219.729 91.96 219.297 92.0667 218.923 92.28C218.561 92.4933 218.273 92.792 218.059 93.176C217.857 93.5493 217.755 93.992 217.755 94.504V94.824C217.755 95.336 217.873 95.7893 218.107 96.184C218.342 96.5787 218.673 96.8827 219.099 97.096C219.526 97.3093 220.017 97.416 220.571 97.416C221.051 97.416 221.483 97.3413 221.867 97.192C222.251 97.0427 222.593 96.808 222.891 96.488L223.963 97.72C223.579 98.168 223.094 98.5147 222.507 98.76C221.931 98.9947 221.27 99.112 220.523 99.112ZM229.1 99.112C228.386 99.112 227.698 99.0213 227.036 98.84C226.386 98.648 225.868 98.4187 225.484 98.152L226.252 96.632C226.636 96.8773 227.095 97.08 227.628 97.24C228.162 97.4 228.695 97.48 229.228 97.48C229.858 97.48 230.311 97.3947 230.588 97.224C230.876 97.0533 231.02 96.824 231.02 96.536C231.02 96.3013 230.924 96.1253 230.732 96.008C230.54 95.88 230.29 95.784 229.98 95.72C229.671 95.656 229.324 95.5973 228.94 95.544C228.567 95.4907 228.188 95.4213 227.804 95.336C227.431 95.24 227.09 95.1067 226.78 94.936C226.471 94.7547 226.22 94.5147 226.028 94.216C225.836 93.9173 225.74 93.5227 225.74 93.032C225.74 92.488 225.895 92.0187 226.204 91.624C226.514 91.2187 226.946 90.9093 227.5 90.696C228.066 90.472 228.732 90.36 229.5 90.36C230.076 90.36 230.658 90.424 231.244 90.552C231.831 90.68 232.316 90.8613 232.7 91.096L231.932 92.616C231.527 92.3707 231.116 92.2053 230.7 92.12C230.295 92.024 229.89 91.976 229.484 91.976C228.876 91.976 228.423 92.0667 228.124 92.248C227.836 92.4293 227.692 92.6587 227.692 92.936C227.692 93.192 227.788 93.384 227.98 93.512C228.172 93.64 228.423 93.7413 228.732 93.816C229.042 93.8907 229.383 93.9547 229.756 94.008C230.14 94.0507 230.519 94.12 230.892 94.216C231.266 94.312 231.607 94.4453 231.916 94.616C232.236 94.776 232.492 95.0053 232.684 95.304C232.876 95.6027 232.972 95.992 232.972 96.472C232.972 97.0053 232.812 97.4693 232.492 97.864C232.183 98.2587 231.74 98.568 231.164 98.792C230.588 99.0053 229.9 99.112 229.1 99.112ZM237.335 99.112C236.62 99.112 235.932 99.0213 235.271 98.84C234.62 98.648 234.103 98.4187 233.719 98.152L234.487 96.632C234.871 96.8773 235.329 97.08 235.863 97.24C236.396 97.4 236.929 97.48 237.463 97.48C238.092 97.48 238.545 97.3947 238.823 97.224C239.111 97.0533 239.255 96.824 239.255 96.536C239.255 96.3013 239.159 96.1253 238.967 96.008C238.775 95.88 238.524 95.784 238.215 95.72C237.905 95.656 237.559 95.5973 237.175 95.544C236.801 95.4907 236.423 95.4213 236.039 95.336C235.665 95.24 235.324 95.1067 235.015 94.936C234.705 94.7547 234.455 94.5147 234.263 94.216C234.071 93.9173 233.975 93.5227 233.975 93.032C233.975 92.488 234.129 92.0187 234.439 91.624C234.748 91.2187 235.18 90.9093 235.735 90.696C236.3 90.472 236.967 90.36 237.735 90.36C238.311 90.36 238.892 90.424 239.479 90.552C240.065 90.68 240.551 90.8613 240.935 91.096L240.167 92.616C239.761 92.3707 239.351 92.2053 238.935 92.12C238.529 92.024 238.124 91.976 237.719 91.976C237.111 91.976 236.657 92.0667 236.359 92.248C236.071 92.4293 235.927 92.6587 235.927 92.936C235.927 93.192 236.023 93.384 236.215 93.512C236.407 93.64 236.657 93.7413 236.967 93.816C237.276 93.8907 237.617 93.9547 237.991 94.008C238.375 94.0507 238.753 94.12 239.127 94.216C239.5 94.312 239.841 94.4453 240.151 94.616C240.471 94.776 240.727 95.0053 240.919 95.304C241.111 95.6027 241.207 95.992 241.207 96.472C241.207 97.0053 241.047 97.4693 240.727 97.864C240.417 98.2587 239.975 98.568 239.399 98.792C238.823 99.0053 238.135 99.112 237.335 99.112ZM135.502 113.952H141.086V115.712H135.502V113.952ZM135.678 120H133.598V108.8H141.774V110.544H135.678V120ZM146.975 120.112C146.25 120.112 145.61 119.979 145.055 119.712C144.5 119.435 144.068 119.019 143.759 118.464C143.45 117.899 143.295 117.189 143.295 116.336V111.456H145.295V116.064C145.295 116.832 145.466 117.408 145.807 117.792C146.159 118.165 146.655 118.352 147.295 118.352C147.764 118.352 148.17 118.256 148.511 118.064C148.863 117.872 149.135 117.584 149.327 117.2C149.53 116.816 149.631 116.341 149.631 115.776V111.456H151.631V120H149.727V117.696L150.063 118.4C149.775 118.955 149.354 119.381 148.799 119.68C148.244 119.968 147.636 120.112 146.975 120.112ZM154.25 120V108.128H156.25V120H154.25ZM158.875 120V108.128H160.875V120H158.875ZM171.585 120.16C170.711 120.16 169.873 120.037 169.073 119.792C168.273 119.536 167.639 119.211 167.169 118.816L167.889 117.2C168.337 117.552 168.892 117.845 169.553 118.08C170.215 118.315 170.892 118.432 171.585 118.432C172.172 118.432 172.647 118.368 173.009 118.24C173.372 118.112 173.639 117.941 173.809 117.728C173.98 117.504 174.065 117.253 174.065 116.976C174.065 116.635 173.943 116.363 173.697 116.16C173.452 115.947 173.132 115.781 172.737 115.664C172.353 115.536 171.921 115.419 171.441 115.312C170.972 115.205 170.497 115.083 170.017 114.944C169.548 114.795 169.116 114.608 168.721 114.384C168.337 114.149 168.023 113.84 167.777 113.456C167.532 113.072 167.409 112.581 167.409 111.984C167.409 111.376 167.569 110.821 167.889 110.32C168.22 109.808 168.716 109.403 169.377 109.104C170.049 108.795 170.897 108.64 171.921 108.64C172.593 108.64 173.26 108.725 173.921 108.896C174.583 109.067 175.159 109.312 175.649 109.632L174.993 111.248C174.492 110.949 173.975 110.731 173.441 110.592C172.908 110.443 172.396 110.368 171.905 110.368C171.329 110.368 170.86 110.437 170.497 110.576C170.145 110.715 169.884 110.896 169.713 111.12C169.553 111.344 169.473 111.6 169.473 111.888C169.473 112.229 169.591 112.507 169.825 112.72C170.071 112.923 170.385 113.083 170.769 113.2C171.164 113.317 171.601 113.435 172.081 113.552C172.561 113.659 173.036 113.781 173.505 113.92C173.985 114.059 174.417 114.24 174.801 114.464C175.196 114.688 175.511 114.992 175.745 115.376C175.991 115.76 176.113 116.245 176.113 116.832C176.113 117.429 175.948 117.984 175.617 118.496C175.297 118.997 174.801 119.403 174.129 119.712C173.457 120.011 172.609 120.16 171.585 120.16ZM177.984 120V111.456H179.984V120H177.984ZM178.992 110.048C178.619 110.048 178.309 109.931 178.064 109.696C177.829 109.461 177.712 109.179 177.712 108.848C177.712 108.507 177.829 108.224 178.064 108C178.309 107.765 178.619 107.648 178.992 107.648C179.365 107.648 179.669 107.76 179.904 107.984C180.149 108.197 180.272 108.469 180.272 108.8C180.272 109.152 180.155 109.451 179.92 109.696C179.685 109.931 179.376 110.048 178.992 110.048ZM185.825 120.112C184.886 120.112 184.161 119.872 183.649 119.392C183.137 118.901 182.881 118.181 182.881 117.232V109.568H184.881V117.184C184.881 117.589 184.982 117.904 185.185 118.128C185.398 118.352 185.692 118.464 186.065 118.464C186.513 118.464 186.886 118.347 187.185 118.112L187.745 119.536C187.51 119.728 187.222 119.872 186.881 119.968C186.54 120.064 186.188 120.112 185.825 120.112ZM181.473 113.12V111.52H187.169V113.12H181.473ZM193.125 120.112C192.176 120.112 191.344 119.925 190.629 119.552C189.925 119.168 189.376 118.645 188.981 117.984C188.597 117.323 188.405 116.571 188.405 115.728C188.405 114.875 188.592 114.123 188.965 113.472C189.349 112.811 189.872 112.293 190.533 111.92C191.205 111.547 191.968 111.36 192.821 111.36C193.653 111.36 194.394 111.541 195.045 111.904C195.696 112.267 196.208 112.779 196.581 113.44C196.954 114.101 197.141 114.88 197.141 115.776C197.141 115.861 197.136 115.957 197.125 116.064C197.125 116.171 197.12 116.272 197.109 116.368H189.989V115.04H196.053L195.269 115.456C195.28 114.965 195.178 114.533 194.965 114.16C194.752 113.787 194.458 113.493 194.085 113.28C193.722 113.067 193.301 112.96 192.821 112.96C192.33 112.96 191.898 113.067 191.525 113.28C191.162 113.493 190.874 113.792 190.661 114.176C190.458 114.549 190.357 114.992 190.357 115.504V115.824C190.357 116.336 190.474 116.789 190.709 117.184C190.944 117.579 191.274 117.883 191.701 118.096C192.128 118.309 192.618 118.416 193.173 118.416C193.653 118.416 194.085 118.341 194.469 118.192C194.853 118.043 195.194 117.808 195.493 117.488L196.565 118.72C196.181 119.168 195.696 119.515 195.109 119.76C194.533 119.995 193.872 120.112 193.125 120.112ZM205.596 113.456H211.164V115.168H205.596V113.456ZM205.756 118.256H212.076V120H203.676V108.8H211.852V110.544H205.756V118.256ZM217.741 120.112C216.919 120.112 216.178 119.931 215.517 119.568C214.866 119.195 214.354 118.683 213.981 118.032C213.607 117.381 213.421 116.613 213.421 115.728C213.421 114.843 213.607 114.075 213.981 113.424C214.354 112.773 214.866 112.267 215.517 111.904C216.178 111.541 216.919 111.36 217.741 111.36C218.455 111.36 219.095 111.52 219.661 111.84C220.226 112.149 220.674 112.624 221.005 113.264C221.335 113.904 221.501 114.725 221.501 115.728C221.501 116.72 221.341 117.541 221.021 118.192C220.701 118.832 220.258 119.312 219.693 119.632C219.127 119.952 218.477 120.112 217.741 120.112ZM217.981 118.4C218.461 118.4 218.887 118.293 219.261 118.08C219.645 117.867 219.949 117.557 220.173 117.152C220.407 116.747 220.525 116.272 220.525 115.728C220.525 115.173 220.407 114.699 220.173 114.304C219.949 113.899 219.645 113.589 219.261 113.376C218.887 113.163 218.461 113.056 217.981 113.056C217.501 113.056 217.069 113.163 216.685 113.376C216.311 113.589 216.007 113.899 215.773 114.304C215.549 114.699 215.437 115.173 215.437 115.728C215.437 116.272 215.549 116.747 215.773 117.152C216.007 117.557 216.311 117.867 216.685 118.08C217.069 118.293 217.501 118.4 217.981 118.4ZM220.573 120V117.984L220.653 115.712L220.493 113.44V108.128H222.477V120H220.573ZM225.109 120V111.456H227.109V120H225.109ZM226.117 110.048C225.744 110.048 225.434 109.931 225.189 109.696C224.954 109.461 224.837 109.179 224.837 108.848C224.837 108.507 224.954 108.224 225.189 108C225.434 107.765 225.744 107.648 226.117 107.648C226.49 107.648 226.794 107.76 227.029 107.984C227.274 108.197 227.397 108.469 227.397 108.8C227.397 109.152 227.28 109.451 227.045 109.696C226.81 109.931 226.501 110.048 226.117 110.048ZM232.95 120.112C232.011 120.112 231.286 119.872 230.774 119.392C230.262 118.901 230.006 118.181 230.006 117.232V109.568H232.006V117.184C232.006 117.589 232.107 117.904 232.31 118.128C232.523 118.352 232.817 118.464 233.19 118.464C233.638 118.464 234.011 118.347 234.31 118.112L234.87 119.536C234.635 119.728 234.347 119.872 234.006 119.968C233.665 120.064 233.313 120.112 232.95 120.112ZM228.598 113.12V111.52H234.294V113.12H228.598ZM236.515 120V111.456H238.515V120H236.515ZM237.523 110.048C237.15 110.048 236.84 109.931 236.595 109.696C236.36 109.461 236.243 109.179 236.243 108.848C236.243 108.507 236.36 108.224 236.595 108C236.84 107.765 237.15 107.648 237.523 107.648C237.896 107.648 238.2 107.76 238.435 107.984C238.68 108.197 238.803 108.469 238.803 108.8C238.803 109.152 238.686 109.451 238.451 109.696C238.216 109.931 237.907 110.048 237.523 110.048ZM245.988 111.36C246.671 111.36 247.279 111.493 247.812 111.76C248.356 112.027 248.783 112.437 249.092 112.992C249.401 113.536 249.556 114.24 249.556 115.104V120H247.556V115.36C247.556 114.603 247.375 114.037 247.012 113.664C246.66 113.291 246.164 113.104 245.524 113.104C245.055 113.104 244.639 113.2 244.276 113.392C243.913 113.584 243.631 113.872 243.428 114.256C243.236 114.629 243.14 115.104 243.14 115.68V120H241.14V111.456H243.044V113.76L242.708 113.056C243.007 112.512 243.439 112.096 244.004 111.808C244.58 111.509 245.241 111.36 245.988 111.36ZM255.981 123.216C255.192 123.216 254.418 123.109 253.661 122.896C252.914 122.693 252.301 122.395 251.821 122L252.717 120.496C253.09 120.805 253.56 121.051 254.125 121.232C254.701 121.424 255.282 121.52 255.869 121.52C256.808 121.52 257.496 121.301 257.933 120.864C258.37 120.437 258.589 119.792 258.589 118.928V117.408L258.749 115.472L258.685 113.536V111.456H260.589V118.704C260.589 120.251 260.194 121.387 259.405 122.112C258.616 122.848 257.474 123.216 255.981 123.216ZM255.725 119.616C254.914 119.616 254.178 119.445 253.517 119.104C252.866 118.752 252.349 118.267 251.965 117.648C251.592 117.029 251.405 116.304 251.405 115.472C251.405 114.651 251.592 113.931 251.965 113.312C252.349 112.693 252.866 112.213 253.517 111.872C254.178 111.531 254.914 111.36 255.725 111.36C256.45 111.36 257.101 111.504 257.677 111.792C258.253 112.08 258.712 112.528 259.053 113.136C259.405 113.744 259.581 114.523 259.581 115.472C259.581 116.421 259.405 117.205 259.053 117.824C258.712 118.432 258.253 118.885 257.677 119.184C257.101 119.472 256.45 119.616 255.725 119.616ZM256.029 117.92C256.53 117.92 256.978 117.819 257.373 117.616C257.768 117.403 258.072 117.115 258.285 116.752C258.509 116.379 258.621 115.952 258.621 115.472C258.621 114.992 258.509 114.571 258.285 114.208C258.072 113.835 257.768 113.552 257.373 113.36C256.978 113.157 256.53 113.056 256.029 113.056C255.528 113.056 255.074 113.157 254.669 113.36C254.274 113.552 253.965 113.835 253.741 114.208C253.528 114.571 253.421 114.992 253.421 115.472C253.421 115.952 253.528 116.379 253.741 116.752C253.965 117.115 254.274 117.403 254.669 117.616C255.074 117.819 255.528 117.92 256.029 117.92Z" fill="#202020"/>
<rect x="298" width="98" height="78" rx="39" fill="#F3FEFC"/>
<rect x="298" width="98" height="78" rx="39" fill="black" fill-opacity="0.06"/>
<path fill-rule="evenodd" clip-rule="evenodd" d="M335 34.2C336.6 27.8003 340.6 24.6 347 24.6C356.6 24.6 357.8 31.8 362.6 33C365.8 33.8003 368.6 32.6003 371 29.4C369.4 35.7998 365.4 39 359 39C349.4 39 348.2 31.8 343.4 30.6C340.2 29.7998 337.4 30.9998 335 34.2ZM323 48.6C324.6 42.2003 328.6 39 335 39C344.6 39 345.8 46.2 350.6 47.4C353.8 48.2003 356.6 47.0003 359 43.8C357.4 50.1998 353.4 53.4 347 53.4C337.4 53.4 336.2 46.2 331.4 45C328.2 44.1998 325.4 45.3998 323 48.6Z" fill="#202020"/>
<path d="M300.198 99V89.56H296.486V87.8H305.99V89.56H302.278V99H300.198ZM312.17 99V97.272L312.058 96.904V93.88C312.058 93.2933 311.882 92.84 311.53 92.52C311.178 92.1893 310.644 92.024 309.93 92.024C309.45 92.024 308.975 92.0987 308.506 92.248C308.047 92.3973 307.658 92.6053 307.338 92.872L306.554 91.416C307.012 91.064 307.556 90.8027 308.186 90.632C308.826 90.4507 309.487 90.36 310.17 90.36C311.407 90.36 312.362 90.6587 313.034 91.256C313.716 91.8427 314.058 92.7547 314.058 93.992V99H312.17ZM309.482 99.112C308.842 99.112 308.282 99.0053 307.802 98.792C307.322 98.568 306.948 98.264 306.682 97.88C306.426 97.4853 306.298 97.0427 306.298 96.552C306.298 96.072 306.41 95.64 306.634 95.256C306.868 94.872 307.247 94.568 307.77 94.344C308.292 94.12 308.986 94.008 309.85 94.008H312.33V95.336H309.994C309.311 95.336 308.852 95.448 308.618 95.672C308.383 95.8853 308.266 96.152 308.266 96.472C308.266 96.8347 308.41 97.1227 308.698 97.336C308.986 97.5493 309.386 97.656 309.898 97.656C310.388 97.656 310.826 97.544 311.21 97.32C311.604 97.096 311.887 96.7653 312.058 96.328L312.394 97.528C312.202 98.0293 311.855 98.4187 311.354 98.696C310.863 98.9733 310.239 99.112 309.482 99.112ZM316.625 99V90.456H318.625V99H316.625ZM317.633 89.048C317.259 89.048 316.95 88.9307 316.705 88.696C316.47 88.4613 316.353 88.1787 316.353 87.848C316.353 87.5067 316.47 87.224 316.705 87C316.95 86.7653 317.259 86.648 317.633 86.648C318.006 86.648 318.31 86.76 318.545 86.984C318.79 87.1973 318.913 87.4693 318.913 87.8C318.913 88.152 318.795 88.4507 318.561 88.696C318.326 88.9307 318.017 89.048 317.633 89.048ZM321.25 99V87.128H323.25V99H321.25ZM327.763 99L324.627 90.456H326.515L329.203 97.992H328.307L331.123 90.456H332.803L335.539 97.992H334.659L337.427 90.456H339.203L336.051 99H334.131L331.635 92.328H332.227L329.683 99H327.763ZM340.578 99V90.456H342.578V99H340.578ZM341.586 89.048C341.212 89.048 340.903 88.9307 340.658 88.696C340.423 88.4613 340.306 88.1787 340.306 87.848C340.306 87.5067 340.423 87.224 340.658 87C340.903 86.7653 341.212 86.648 341.586 86.648C341.959 86.648 342.263 86.76 342.498 86.984C342.743 87.1973 342.866 87.4693 342.866 87.8C342.866 88.152 342.748 88.4507 342.514 88.696C342.279 88.9307 341.97 89.048 341.586 89.048ZM350.051 90.36C350.733 90.36 351.341 90.4933 351.875 90.76C352.419 91.0267 352.845 91.4373 353.155 91.992C353.464 92.536 353.619 93.24 353.619 94.104V99H351.619V94.36C351.619 93.6027 351.437 93.0373 351.075 92.664C350.723 92.2907 350.227 92.104 349.587 92.104C349.117 92.104 348.701 92.2 348.339 92.392C347.976 92.584 347.693 92.872 347.491 93.256C347.299 93.6293 347.203 94.104 347.203 94.68V99H345.203V90.456H347.107V92.76L346.771 92.056C347.069 91.512 347.501 91.096 348.067 90.808C348.643 90.5093 349.304 90.36 350.051 90.36ZM359.787 99.112C358.966 99.112 358.225 98.9307 357.563 98.568C356.913 98.1947 356.401 97.6827 356.027 97.032C355.654 96.3813 355.467 95.6133 355.467 94.728C355.467 93.8427 355.654 93.0747 356.027 92.424C356.401 91.7733 356.913 91.2667 357.563 90.904C358.225 90.5413 358.966 90.36 359.787 90.36C360.502 90.36 361.142 90.52 361.707 90.84C362.273 91.1493 362.721 91.624 363.051 92.264C363.382 92.904 363.547 93.7253 363.547 94.728C363.547 95.72 363.387 96.5413 363.067 97.192C362.747 97.832 362.305 98.312 361.739 98.632C361.174 98.952 360.523 99.112 359.787 99.112ZM360.027 97.4C360.507 97.4 360.934 97.2933 361.307 97.08C361.691 96.8667 361.995 96.5573 362.219 96.152C362.454 95.7467 362.571 95.272 362.571 94.728C362.571 94.1733 362.454 93.6987 362.219 93.304C361.995 92.8987 361.691 92.5893 361.307 92.376C360.934 92.1627 360.507 92.056 360.027 92.056C359.547 92.056 359.115 92.1627 358.731 92.376C358.358 92.5893 358.054 92.8987 357.819 93.304C357.595 93.6987 357.483 94.1733 357.483 94.728C357.483 95.272 357.595 95.7467 357.819 96.152C358.054 96.5573 358.358 96.8667 358.731 97.08C359.115 97.2933 359.547 97.4 360.027 97.4ZM362.619 99V96.984L362.699 94.712L362.539 92.44V87.128H364.523V99H362.619ZM372.532 99.16C371.678 99.16 370.884 99.0213 370.148 98.744C369.422 98.456 368.788 98.056 368.244 97.544C367.71 97.0213 367.294 96.408 366.996 95.704C366.697 95 366.548 94.232 366.548 93.4C366.548 92.568 366.697 91.8 366.996 91.096C367.294 90.392 367.716 89.784 368.26 89.272C368.804 88.7493 369.438 88.3493 370.164 88.072C370.889 87.784 371.684 87.64 372.548 87.64C373.465 87.64 374.302 87.8 375.06 88.12C375.817 88.4293 376.457 88.8933 376.98 89.512L375.636 90.776C375.23 90.3387 374.777 90.0133 374.276 89.8C373.774 89.576 373.23 89.464 372.644 89.464C372.057 89.464 371.518 89.56 371.028 89.752C370.548 89.944 370.126 90.216 369.764 90.568C369.412 90.92 369.134 91.336 368.932 91.816C368.74 92.296 368.644 92.824 368.644 93.4C368.644 93.976 368.74 94.504 368.932 94.984C369.134 95.464 369.412 95.88 369.764 96.232C370.126 96.584 370.548 96.856 371.028 97.048C371.518 97.24 372.057 97.336 372.644 97.336C373.23 97.336 373.774 97.2293 374.276 97.016C374.777 96.792 375.23 96.456 375.636 96.008L376.98 97.288C376.457 97.896 375.817 98.36 375.06 98.68C374.302 99 373.46 99.16 372.532 99.16ZM382.429 99.16C381.554 99.16 380.717 99.0373 379.917 98.792C379.117 98.536 378.482 98.2107 378.013 97.816L378.733 96.2C379.181 96.552 379.736 96.8453 380.397 97.08C381.058 97.3147 381.736 97.432 382.429 97.432C383.016 97.432 383.49 97.368 383.853 97.24C384.216 97.112 384.482 96.9413 384.653 96.728C384.824 96.504 384.909 96.2533 384.909 95.976C384.909 95.6347 384.786 95.3627 384.541 95.16C384.296 94.9467 383.976 94.7813 383.581 94.664C383.197 94.536 382.765 94.4187 382.285 94.312C381.816 94.2053 381.341 94.0827 380.861 93.944C380.392 93.7947 379.96 93.608 379.565 93.384C379.181 93.1493 378.866 92.84 378.621 92.456C378.376 92.072 378.253 91.5813 378.253 90.984C378.253 90.376 378.413 89.8213 378.733 89.32C379.064 88.808 379.56 88.4027 380.221 88.104C380.893 87.7947 381.741 87.64 382.765 87.64C383.437 87.64 384.104 87.7253 384.765 87.896C385.426 88.0667 386.002 88.312 386.493 88.632L385.837 90.248C385.336 89.9493 384.818 89.7307 384.285 89.592C383.752 89.4427 383.24 89.368 382.749 89.368C382.173 89.368 381.704 89.4373 381.341 89.576C380.989 89.7147 380.728 89.896 380.557 90.12C380.397 90.344 380.317 90.6 380.317 90.888C380.317 91.2293 380.434 91.5067 380.669 91.72C380.914 91.9227 381.229 92.0827 381.613 92.2C382.008 92.3173 382.445 92.4347 382.925 92.552C383.405 92.6587 383.88 92.7813 384.349 92.92C384.829 93.0587 385.261 93.24 385.645 93.464C386.04 93.688 386.354 93.992 386.589 94.376C386.834 94.76 386.957 95.2453 386.957 95.832C386.957 96.4293 386.792 96.984 386.461 97.496C386.141 97.9973 385.645 98.4027 384.973 98.712C384.301 99.0107 383.453 99.16 382.429 99.16ZM392.492 99.16C391.617 99.16 390.78 99.0373 389.98 98.792C389.18 98.536 388.545 98.2107 388.076 97.816L388.796 96.2C389.244 96.552 389.798 96.8453 390.46 97.08C391.121 97.3147 391.798 97.432 392.492 97.432C393.078 97.432 393.553 97.368 393.916 97.24C394.278 97.112 394.545 96.9413 394.716 96.728C394.886 96.504 394.972 96.2533 394.972 95.976C394.972 95.6347 394.849 95.3627 394.604 95.16C394.358 94.9467 394.038 94.7813 393.644 94.664C393.26 94.536 392.828 94.4187 392.348 94.312C391.878 94.2053 391.404 94.0827 390.924 93.944C390.454 93.7947 390.022 93.608 389.628 93.384C389.244 93.1493 388.929 92.84 388.684 92.456C388.438 92.072 388.316 91.5813 388.316 90.984C388.316 90.376 388.476 89.8213 388.796 89.32C389.126 88.808 389.622 88.4027 390.284 88.104C390.956 87.7947 391.804 87.64 392.828 87.64C393.5 87.64 394.166 87.7253 394.828 87.896C395.489 88.0667 396.065 88.312 396.556 88.632L395.9 90.248C395.398 89.9493 394.881 89.7307 394.348 89.592C393.814 89.4427 393.302 89.368 392.812 89.368C392.236 89.368 391.766 89.4373 391.404 89.576C391.052 89.7147 390.79 89.896 390.62 90.12C390.46 90.344 390.38 90.6 390.38 90.888C390.38 91.2293 390.497 91.5067 390.732 91.72C390.977 91.9227 391.292 92.0827 391.676 92.2C392.07 92.3173 392.508 92.4347 392.988 92.552C393.468 92.6587 393.942 92.7813 394.412 92.92C394.892 93.0587 395.324 93.24 395.708 93.464C396.102 93.688 396.417 93.992 396.652 94.376C396.897 94.76 397.02 95.2453 397.02 95.832C397.02 96.4293 396.854 96.984 396.524 97.496C396.204 97.9973 395.708 98.4027 395.036 98.712C394.364 99.0107 393.516 99.16 392.492 99.16Z" fill="#202020"/>
<rect x="448" width="98" height="78" rx="39" fill="#F3FEFC"/>
<rect x="448" width="98" height="78" rx="39" fill="black" fill-opacity="0.06"/>
<g clip-path="url(#clip0_27_17)">
<path d="M497 15C483.746 15 473 25.746 473 39C473 52.254 483.746 63 497 63C510.254 63 521 52.254 521 39C521 25.746 510.254 15 497 15ZM506.768 50.816C506.262 51.9535 505.518 52.9686 504.584 53.792C503.623 54.6272 502.505 55.2635 501.296 55.664C500.032 56.096 498.68 56.312 497.24 56.312C495.8 56.312 494.504 56.112 493.352 55.712C492.2 55.312 491.176 54.784 490.28 54.128C489.384 53.472 488.616 52.72 487.976 51.872C487.368 51.0774 486.852 50.2158 486.44 49.304L489.8 47.288C490.088 47.96 490.464 48.608 490.928 49.232C491.392 49.856 491.928 50.408 492.536 50.888C493.862 51.9318 495.505 52.4907 497.192 52.472C497.992 52.472 498.768 52.36 499.52 52.136C500.272 51.912 500.936 51.576 501.512 51.128C502.088 50.68 502.552 50.128 502.904 49.472C503.256 48.816 503.432 48.04 503.432 47.144C503.432 46.28 503.264 45.536 502.928 44.912C502.579 44.2725 502.116 43.7029 501.56 43.232C500.93 42.7007 500.237 42.2492 499.496 41.888C498.696 41.488 497.832 41.064 496.904 40.616C495.797 40.0945 494.701 39.5504 493.616 38.984C492.548 38.4322 491.549 37.7555 490.64 36.968C489.773 36.2162 489.049 35.3137 488.504 34.304C487.96 33.296 487.688 32.12 487.688 30.776C487.688 29.656 487.896 28.544 488.312 27.44C488.722 26.3464 489.341 25.3436 490.136 24.488C490.936 23.624 491.936 22.92 493.136 22.376C494.336 21.832 495.736 21.56 497.336 21.56C498.52 21.56 499.616 21.712 500.624 22.016C502.426 22.5444 504.079 23.49 505.448 24.776C506.056 25.352 506.552 25.912 506.936 26.456L503.912 28.904C503.234 27.9394 502.358 27.1296 501.344 26.528C500.763 26.1827 500.143 25.9087 499.496 25.712C498.796 25.4999 498.068 25.3947 497.336 25.4C496.408 25.4 495.6 25.544 494.912 25.832C494.258 26.0975 493.663 26.4889 493.16 26.984C492.68 27.464 492.32 28.016 492.08 28.64C491.84 29.264 491.72 29.896 491.72 30.536C491.72 31.336 491.896 32.032 492.248 32.624C492.6 33.216 493.096 33.768 493.736 34.28C494.376 34.792 495.16 35.288 496.088 35.768C497.016 36.248 498.056 36.744 499.208 37.256C500.488 37.832 501.648 38.432 502.688 39.056C503.728 39.68 504.608 40.36 505.328 41.096C506.048 41.832 506.6 42.664 506.984 43.592C507.368 44.52 507.56 45.608 507.56 46.856C507.56 48.328 507.296 49.648 506.768 50.816Z" fill="black"/>
</g>
<path d="M473.539 99.16C472.664 99.16 471.827 99.0373 471.027 98.792C470.227 98.536 469.592 98.2107 469.123 97.816L469.843 96.2C470.291 96.552 470.845 96.8453 471.507 97.08C472.168 97.3147 472.845 97.432 473.539 97.432C474.125 97.432 474.6 97.368 474.963 97.24C475.325 97.112 475.592 96.9413 475.763 96.728C475.933 96.504 476.019 96.2533 476.019 95.976C476.019 95.6347 475.896 95.3627 475.651 95.16C475.405 94.9467 475.085 94.7813 474.691 94.664C474.307 94.536 473.875 94.4187 473.395 94.312C472.925 94.2053 472.451 94.0827 471.971 93.944C471.501 93.7947 471.069 93.608 470.674 93.384C470.291 93.1493 469.976 92.84 469.731 92.456C469.485 92.072 469.363 91.5813 469.363 90.984C469.363 90.376 469.523 89.8213 469.843 89.32C470.173 88.808 470.669 88.4027 471.331 88.104C472.003 87.7947 472.851 87.64 473.875 87.64C474.547 87.64 475.213 87.7253 475.875 87.896C476.536 88.0667 477.112 88.312 477.602 88.632L476.947 90.248C476.445 89.9493 475.928 89.7307 475.395 89.592C474.861 89.4427 474.349 89.368 473.859 89.368C473.283 89.368 472.813 89.4373 472.451 89.576C472.099 89.7147 471.837 89.896 471.667 90.12C471.507 90.344 471.427 90.6 471.427 90.888C471.427 91.2293 471.544 91.5067 471.779 91.72C472.024 91.9227 472.339 92.0827 472.723 92.2C473.117 92.3173 473.555 92.4347 474.035 92.552C474.515 92.6587 474.989 92.7813 475.459 92.92C475.939 93.0587 476.371 93.24 476.755 93.464C477.149 93.688 477.464 93.992 477.699 94.376C477.944 94.76 478.067 95.2453 478.067 95.832C478.067 96.4293 477.901 96.984 477.571 97.496C477.251 97.9973 476.755 98.4027 476.083 98.712C475.411 99.0107 474.563 99.16 473.539 99.16ZM481.669 99L478.533 90.456H480.421L483.109 97.992H482.213L485.029 90.456H486.709L489.445 97.992H488.565L491.333 90.456H493.109L489.957 99H488.037L485.541 92.328H486.133L483.589 99H481.669ZM494.484 99V90.456H496.484V99H494.484ZM495.492 89.048C495.119 89.048 494.809 88.9307 494.564 88.696C494.329 88.4613 494.212 88.1787 494.212 87.848C494.212 87.5067 494.329 87.224 494.564 87C494.809 86.7653 495.119 86.648 495.492 86.648C495.865 86.648 496.169 86.76 496.404 86.984C496.649 87.1973 496.772 87.4693 496.772 87.8C496.772 88.152 496.655 88.4507 496.42 88.696C496.185 88.9307 495.876 89.048 495.492 89.048ZM503.845 99.112C503.152 99.112 502.517 98.952 501.941 98.632C501.376 98.312 500.922 97.832 500.581 97.192C500.25 96.5413 500.085 95.72 500.085 94.728C500.085 93.7253 500.245 92.904 500.565 92.264C500.896 91.624 501.344 91.1493 501.909 90.84C502.474 90.52 503.12 90.36 503.845 90.36C504.688 90.36 505.429 90.5413 506.069 90.904C506.72 91.2667 507.232 91.7733 507.605 92.424C507.989 93.0747 508.181 93.8427 508.181 94.728C508.181 95.6133 507.989 96.3867 507.605 97.048C507.232 97.6987 506.72 98.2053 506.069 98.568C505.429 98.9307 504.688 99.112 503.845 99.112ZM499.109 102.104V90.456H501.013V92.472L500.949 94.744L501.109 97.016V102.104H499.109ZM503.621 97.4C504.101 97.4 504.528 97.2933 504.901 97.08C505.285 96.8667 505.589 96.5573 505.813 96.152C506.037 95.7467 506.149 95.272 506.149 94.728C506.149 94.1733 506.037 93.6987 505.813 93.304C505.589 92.8987 505.285 92.5893 504.901 92.376C504.528 92.1627 504.101 92.056 503.621 92.056C503.141 92.056 502.709 92.1627 502.325 92.376C501.941 92.5893 501.637 92.8987 501.413 93.304C501.189 93.6987 501.077 94.1733 501.077 94.728C501.077 95.272 501.189 95.7467 501.413 96.152C501.637 96.5573 501.941 96.8667 502.325 97.08C502.709 97.2933 503.141 97.4 503.621 97.4ZM514.094 99.112C513.144 99.112 512.312 98.9253 511.598 98.552C510.894 98.168 510.344 97.6453 509.95 96.984C509.566 96.3227 509.374 95.5707 509.374 94.728C509.374 93.8747 509.56 93.1227 509.934 92.472C510.318 91.8107 510.84 91.2933 511.502 90.92C512.174 90.5467 512.936 90.36 513.79 90.36C514.622 90.36 515.363 90.5413 516.014 90.904C516.664 91.2667 517.176 91.7787 517.55 92.44C517.923 93.1013 518.11 93.88 518.11 94.776C518.11 94.8613 518.104 94.9573 518.094 95.064C518.094 95.1707 518.088 95.272 518.078 95.368H510.958V94.04H517.022L516.238 94.456C516.248 93.9653 516.147 93.5333 515.934 93.16C515.72 92.7867 515.427 92.4933 515.054 92.28C514.691 92.0667 514.27 91.96 513.79 91.96C513.299 91.96 512.867 92.0667 512.494 92.28C512.131 92.4933 511.843 92.792 511.63 93.176C511.427 93.5493 511.326 93.992 511.326 94.504V94.824C511.326 95.336 511.443 95.7893 511.678 96.184C511.912 96.5787 512.243 96.8827 512.67 97.096C513.096 97.3093 513.587 97.416 514.142 97.416C514.622 97.416 515.054 97.3413 515.438 97.192C515.822 97.0427 516.163 96.808 516.462 96.488L517.534 97.72C517.15 98.168 516.664 98.5147 516.078 98.76C515.502 98.9947 514.84 99.112 514.094 99.112ZM520.031 99V90.456H521.935V92.808L521.711 92.12C521.967 91.544 522.367 91.1067 522.911 90.808C523.465 90.5093 524.153 90.36 524.975 90.36V92.264C524.889 92.2427 524.809 92.232 524.735 92.232C524.66 92.2213 524.585 92.216 524.511 92.216C523.753 92.216 523.151 92.44 522.703 92.888C522.255 93.3253 522.031 93.9813 522.031 94.856V99H520.031Z" fill="#202020"/>
<rect x="596" width="98.0006" height="78" rx="39" fill="#F3FEFC"/>
<rect x="596" width="98.0006" height="78" rx="39" fill="black" fill-opacity="0.06"/>
<path d="M668.096 36.8624L647.138 15.9062C646.851 15.6189 646.51 15.391 646.135 15.2355C645.76 15.08 645.358 15 644.952 15C644.546 15 644.143 15.08 643.768 15.2355C643.393 15.391 643.052 15.6189 642.765 15.9062L638.415 20.2586L643.934 25.7781C644.583 25.5577 645.281 25.5233 645.948 25.6787C646.616 25.8342 647.226 26.1733 647.711 26.6577C648.198 27.1457 648.539 27.761 648.693 28.4332C648.847 29.1054 648.809 29.8075 648.583 30.4591L653.904 35.779C654.556 35.5526 655.258 35.5145 655.931 35.669C656.603 35.8234 657.218 36.1643 657.706 36.6524C658.048 36.9939 658.319 37.3993 658.503 37.8456C658.688 38.2918 658.783 38.7701 658.783 39.2531C658.783 39.7361 658.688 40.2143 658.503 40.6606C658.319 41.1068 658.048 41.5122 657.706 41.8537C657.016 42.5435 656.079 42.931 655.103 42.931C654.127 42.931 653.191 42.5435 652.501 41.8537C651.988 41.3399 651.638 40.6858 651.496 39.9738C651.354 39.2618 651.426 38.5236 651.702 37.8523L646.74 32.8913V45.9492C647.264 46.2079 647.718 46.5877 648.066 47.0572C648.414 47.5266 648.645 48.0721 648.74 48.6486C648.835 49.225 648.791 49.8158 648.612 50.372C648.433 50.9281 648.125 51.4337 647.711 51.8468C647.37 52.1884 646.964 52.4593 646.518 52.6442C646.072 52.829 645.594 52.9242 645.111 52.9242C644.628 52.9242 644.15 52.829 643.703 52.6442C643.257 52.4593 642.852 52.1884 642.51 51.8468C642.168 51.5053 641.897 51.0998 641.713 50.6536C641.528 50.2073 641.432 49.729 641.432 49.2459C641.432 48.7628 641.528 48.2845 641.713 47.8382C641.897 47.392 642.168 46.9865 642.51 46.645C642.854 46.3001 643.263 46.0269 643.714 45.841V32.663C643.265 32.4783 642.858 32.2067 642.514 31.864C642.171 31.5213 641.899 31.1141 641.713 30.6659C641.528 30.2177 641.433 29.7372 641.434 29.2522C641.435 28.7671 641.531 28.287 641.718 27.8394L636.276 22.3962L621.904 36.7642C621.325 37.3445 621 38.1308 621 38.9506C621 39.7704 621.325 40.5568 621.904 41.137L642.863 62.0959C643.443 62.6748 644.23 63 645.049 63C645.869 63 646.655 62.6748 647.236 62.0959L668.096 41.2352C668.675 40.655 669.001 39.8686 669.001 39.0488C669.001 38.229 668.675 37.4427 668.096 36.8624Z" fill="#202020"/>
<path d="M639.853 99.16C638.979 99.16 638.173 99.0213 637.437 98.744C636.712 98.456 636.077 98.056 635.533 97.544C634.989 97.0213 634.568 96.408 634.269 95.704C633.971 95 633.821 94.232 633.821 93.4C633.821 92.568 633.971 91.8 634.269 91.096C634.568 90.392 634.989 89.784 635.533 89.272C636.088 88.7493 636.733 88.3493 637.469 88.072C638.205 87.784 639.011 87.64 639.885 87.64C640.835 87.64 641.688 87.7947 642.445 88.104C643.213 88.4133 643.859 88.8667 644.381 89.464L643.069 90.744C642.632 90.3067 642.157 89.9867 641.645 89.784C641.144 89.5707 640.589 89.464 639.981 89.464C639.395 89.464 638.851 89.56 638.349 89.752C637.848 89.944 637.416 90.216 637.053 90.568C636.691 90.92 636.408 91.336 636.205 91.816C636.013 92.296 635.917 92.824 635.917 93.4C635.917 93.9653 636.013 94.488 636.205 94.968C636.408 95.448 636.691 95.8693 637.053 96.232C637.416 96.584 637.843 96.856 638.333 97.048C638.824 97.24 639.368 97.336 639.965 97.336C640.52 97.336 641.053 97.2507 641.565 97.08C642.088 96.8987 642.584 96.6 643.053 96.184L644.237 97.736C643.651 98.2053 642.968 98.5627 642.189 98.808C641.421 99.0427 640.643 99.16 639.853 99.16ZM642.269 97.464V93.272H644.237V97.736L642.269 97.464ZM646.789 99V90.456H648.789V99H646.789ZM647.797 89.048C647.424 89.048 647.114 88.9307 646.869 88.696C646.634 88.4613 646.517 88.1787 646.517 87.848C646.517 87.5067 646.634 87.224 646.869 87C647.114 86.7653 647.424 86.648 647.797 86.648C648.17 86.648 648.474 86.76 648.709 86.984C648.954 87.1973 649.077 87.4693 649.077 87.8C649.077 88.152 648.96 88.4507 648.725 88.696C648.49 88.9307 648.181 89.048 647.797 89.048ZM654.63 99.112C653.691 99.112 652.966 98.872 652.454 98.392C651.942 97.9013 651.686 97.1813 651.686 96.232V88.568H653.686V96.184C653.686 96.5893 653.787 96.904 653.99 97.128C654.203 97.352 654.497 97.464 654.87 97.464C655.318 97.464 655.691 97.3467 655.99 97.112L656.55 98.536C656.315 98.728 656.027 98.872 655.686 98.968C655.345 99.064 654.993 99.112 654.63 99.112ZM650.278 92.12V90.52H655.974V92.12H650.278Z" fill="#202020"/>
<defs>
<clipPath id="clip0_27_17">
<rect width="48" height="48" fill="white" transform="translate(473 15)"/>
</clipPath>
</defs>
</svg>
